G04*
G04 #@! TF.GenerationSoftware,Altium Limited,Altium Designer,24.2.2 (26)*
G04*
G04 Layer_Color=16711935*
%FSLAX26Y26*%
%MOIN*%
G70*
G04*
G04 #@! TF.SameCoordinates,1490CFCF-B2EF-406E-B7EC-920D21FDAB99*
G04*
G04*
G04 #@! TF.FilePolarity,Positive*
G04*
G01*
G75*
%ADD13C,0.010000*%
%ADD143C,0.010000*%
D13*
X2854366Y2505001D02*
G03*
X2854331Y2505001I-35J-24686D01*
G01*
X2879017Y2480350D02*
G03*
X2854366Y2505001I-24686J-35D01*
G01*
X2879017Y2480315D02*
G03*
X2879017Y2480350I-24686J0D01*
G01*
X464567Y2505001D02*
G03*
X464531Y2505001I0J-5001D01*
G01*
X2854331Y-221536D02*
G03*
X2879017Y-196886I0J24686D01*
G01*
X614142Y-91615D02*
G03*
X614173Y-91615I32J5001D01*
G01*
X628857Y-106299D02*
G03*
X614173Y-91615I-14684J0D01*
G01*
X628857Y-106299D02*
G03*
X628857Y-106331I5001J-0D01*
G01*
Y-196850D02*
G03*
X653543Y-221536I24686J0D01*
G01*
X464531Y2505001D02*
G03*
X439881Y2480315I35J-24686D01*
G01*
X464567Y2505001D02*
G03*
X464531Y2505001I0J-24686D01*
G01*
X439881Y2417354D02*
G03*
X439880Y2417323I5001J-32D01*
G01*
Y2417322D02*
Y2417323D01*
X425197Y2402639D02*
G03*
X439880Y2417322I-0J14683D01*
G01*
X39370Y2402639D02*
G03*
X39334Y2402639I0J-5001D01*
G01*
D02*
G03*
X14684Y2377953I35J-24686D01*
G01*
X39370Y2402639D02*
G03*
X39334Y2402639I0J-24686D01*
G01*
X14684Y2334677D02*
G03*
X14684Y2334645I5001J-32D01*
G01*
X0Y2319962D02*
G03*
X14684Y2334645I0J14683D01*
G01*
X-0Y2319962D02*
G03*
X0Y2319962I1J14683D01*
G01*
X-208661Y2319961D02*
G03*
X-208697Y2319961I0J-5001D01*
G01*
D02*
G03*
X-233347Y2295276I35J-24686D01*
G01*
X-208661Y2319961D02*
G03*
X-208697Y2319961I-0J-24686D01*
G01*
X-233347Y-66929D02*
G03*
X-208662Y-91615I24686J0D01*
G01*
X464567Y2505001D02*
X2854331Y2505001D01*
X2879017Y-196850D02*
Y2480315D01*
X653543Y-221536D02*
X2854331Y-221536D01*
X653543Y-221536D02*
X653543D01*
X653543D02*
X653543D01*
X614142Y-91615D02*
X614173D01*
X578740Y-91615D02*
X614142Y-91615D01*
X628857Y-106331D02*
Y-106299D01*
Y-196850D02*
Y-106331D01*
X439881Y2417354D02*
X439881Y2480315D01*
X439881Y2417323D02*
Y2417354D01*
X314961Y2402639D02*
X409449Y2402639D01*
X425197Y2402639D02*
X425197D01*
X409449Y2402639D02*
X425197Y2402639D01*
X39370Y2402639D02*
X314961Y2402639D01*
X14684Y2377953D02*
Y2377953D01*
X14684Y2334677D02*
X14684Y2377953D01*
X14684Y2334645D02*
Y2334677D01*
X-0Y2319962D02*
X0D01*
X-19685D02*
X-0D01*
X-208661Y2319961D02*
X-78740Y2319962D01*
X-19685Y2319962D01*
X-208661Y-91615D02*
X578740Y-91615D01*
X-208662Y-91615D02*
X-208661D01*
X-208662D02*
X-208662D01*
X-233347Y2295276D02*
Y2295276D01*
Y-66929D02*
Y2295276D01*
Y-66929D02*
Y-66929D01*
Y-66929D02*
Y-66929D01*
D143*
X464567Y2505001D02*
D03*
X653543Y-221536D02*
D03*
X653543D02*
D03*
X653543D02*
D03*
X653543D02*
D03*
X628857Y-106299D02*
D03*
X425197Y2402639D02*
D03*
D03*
D03*
X39370D02*
D03*
X14684Y2334645D02*
D03*
X-0Y2319962D02*
D03*
D03*
M02*
