M48
;Layer_Color=9474304
;FILE_FORMAT=2:5
INCH,TZ
;TYPE=PLATED
T01F00S00C0.00394
;TYPE=NON_PLATED
%
T01
X177049Y145413
X179033
X181017
X183001
X184985
X186970
X188953Y145477
X188069Y149941
X186084Y149935
X184100
X182116
X180132
X178147
X176163
X189557Y151254
X189589Y153238
Y155222
Y157206
Y159191
X194112Y158714
Y156730
Y154746
Y152762
X194075Y150778
X193561Y148861
X194657Y160622
X196633Y160802
X198618
X200602
X202586
X204569Y160732
X205271Y158876
X205959Y157015
X207248Y155507
X208965Y154512
X210912Y154131
X212896Y154142
X214881
X216865
X218849
X220833
X224802
X226786
X228770
X230755
X232739
X234723
X236707
X238692
X240676
X242660
X244644
X246629
X248613
X246942Y158665
X242973
X240989
X237021
X233052
X231068
X229084
X227099
X225115
X221601Y160250
X219684Y159739
X218015Y158665
X216031
X214047
X212063
X210113Y159033
X209586Y160946
X208880Y162801
X207519Y164244
X205743Y165129
X203768Y165324
X201784
X199800
X197816
X195831
X193853Y165169
X234570Y174589
X235982Y173196
X241708Y172061
X251630
X257017Y174197
X250901Y158474
X254804Y154334
X256977Y151871
X256397Y147317
X262930Y151871
X264914
X266898
X268882
X270867
X272271Y147317
X274255
X276448Y147817
X276582Y152744
X278227Y153853
X283993Y153875
X284804Y155685
X285532Y157123
Y159108
Y161092
Y163076
Y165060
Y167045
Y169029
Y171013
Y172997
Y174909
X281009Y173398
Y171414
Y169430
Y165461
Y163477
Y159509
X282908Y152213
X281575Y150743
X280028Y149501
X249203Y136772
X279203Y106772
Y101772
X170941Y86227
Y83858
X168947Y82547
X166974Y82765
X164990
X163006
X161363Y81652
X159433Y81193
X157889Y82440
X155932Y82765
X154245Y81721
X154442Y79746
X149015Y80271
X147047
X145542Y79948
X145770Y81919
X143981Y82778
X141997
X140012
X138028
X136044
X135412Y80897
Y78913
Y76929
Y74944
Y72960
Y70976
X136700Y69466
X138684
X139299Y64944
X137315
X135332Y65029
X133466Y65703
X131998Y67038
X131092Y68803
X130890Y74746
Y76730
Y78714
Y80699
X130893Y82683
X131358Y84612
X132573Y86181
X134323Y87117
X136298Y87300
X138283
X140267
X142251
X144235
X145625Y87289
X147469Y86846
X149068Y85671
X151089Y85930
X152759Y87002
X154717Y87319
X156702
X158686
X160670
X166623
X169141Y87499
X150013Y84263
X144294Y67974
X145547Y66436
X146209Y64565
X146234Y62581
X147719Y62949
X148155Y61013
X149366Y59442
X151132Y58537
X151175Y55969
X148807
X147714Y53963
X145507Y60735
X144090Y59345
X142219Y58685
X140236Y58625
X138252
X136267
X134283
X132299
X130794Y57331
X128815Y57181
X127454Y58625
X125470
X123485
X121938Y59311
Y62461
X124266Y63147
X126251
X128235
X130219
X132203
X134187
X136172
X138156
X140140
X152288Y63404
X154175Y62790
X155993Y61996
X157434Y60632
X158367Y58881
X158636Y56915
Y54931
Y52946
X158550Y50964
X156457Y47691
X154636Y46903
X153619Y64876
X154555Y66625
X152916Y106819
X147011
X147333Y124392
X148728
X145770Y125555
Y131507
Y133492
X145955Y135467
X146707Y137304
X147923Y138871
X149539Y140023
X151413Y140675
X153393Y140814
X155374Y140927
X156083Y142780
X156529Y144713
X157439Y146476
X158778Y147941
X160423Y149050
X162283Y149742
X166242Y149935
X168226
X170210
X172195
X174179
X175064Y145413
X173080
X171096
X169112
X167127
X165143
X163163Y145290
X161475Y144247
X160620Y142456
X160364Y140489
X159524Y138691
X158118Y137290
X156316Y136460
X154339Y136291
X152356Y136218
X150708Y135113
X150292Y133173
Y131189
Y129205
Y127220
X152759Y127302
X154717Y127620
X154442Y120047
X161363Y121953
X166974Y123066
X168947Y122848
X170941Y124159
Y126527
X151421Y144354
X148578
X149215Y162242
X146847
X154245Y162322
X154442Y160348
X155932Y163367
X156702Y167921
X158686
X160670
X166623
X169141Y168100
X170941Y166828
Y164460
X168947Y163149
X163006Y163367
X161363Y162253
X142962Y169859
X141112Y169142
X139129Y169199
X137343Y170064
X136030Y171552
X135437Y173445
X140156Y173637
X145175Y175091
X129426Y171069
X123730Y170351
X121756Y170152
X119983Y169260
X117921Y165959
X122444Y165314
X124357Y165841
X128749Y163370
X128855Y161103
X129387Y159192
X129420Y157208
Y155224
Y153239
Y151255
Y149271
Y147287
Y145302
Y143318
Y141334
Y139350
X129235Y137374
X128340Y135603
X126848Y134295
X124962Y133679
X121938Y134311
Y137461
X124898Y146070
Y148054
Y150038
Y152022
Y154007
Y155991
Y157975
X119978Y160670
X117851Y160577
X115867
X113883
X112429Y159227
Y157243
X110224Y151930
X98827Y151328
X97407Y152714
X96557Y154507
X96379Y156483
X97472Y158120
X99840
X121520Y118172
Y115804
Y80968
Y78599
X136762Y38664
X135397Y175429
X134179Y176996
X130328Y176922
X129789Y181430
X127907Y180801
X126363Y179555
X124893Y175924
X139920Y175607
X140351Y181534
X142336Y181519
X144320
X146764Y181581
X147769Y183292
X147024Y185131
X147047Y187414
X152952
X152743Y184833
X152298Y182899
X154241Y181519
X156225
X158210
X160194
X160091Y176965
X158107
X156123
X154139
X152155
X150170
X147710Y177125
X146202Y176965
X166322Y180645
X166434Y182626
Y184610
X167584Y186227
X169568
X171553
X173537
X174575Y190781
X175093Y198073
X173109
X171125
X167156Y198096
X166974Y203668
X168947Y203449
X170510Y202595
X172494
X174479
X170941Y204760
Y207129
X169141Y208401
X166623Y208222
X164639
X162654
X160670
X158686
X156702
X154717
X152759Y207904
X151089Y206832
X149021Y206504
X148728Y204994
X147333
X147037Y206504
X146447Y213598
X148432
X150416
X152400
X154384
X156515
X158499
X160484
X162468
X164452
X166436
X168421
X170405
X172389
X174373
X174891Y218121
X172907
X170923
X168939
X166955
X162986
X161002
X159018
X157033
X155049
X153065
X151081
X149096
X147112
X145317
X143333
X141348
X139364
X137380
X135396
X133411
X131427
X129443
X127459
X125474
X123490
X121506
X119522
X117537
X115637
X113653
X111669
X109685
X107700
X105716
X103732
X101748
X99697Y217878
X97970Y216902
X96738Y215346
X96214Y213432
X96193Y211448
Y209464
Y207479
X100916Y208118
Y206133
Y210102
Y212086
X102702Y213598
X104686
X106671
X108655
X110639
X112623
X114608
X116592
X118576
X120560
X123489Y211997
X126605Y213598
X128589
X130573
X132558
X134542
X136526
X138510
X140495
X142479
X144463
X176358
X178342
X180326
X182310
X184295
X186190
X188174
X190159
X192143
X194127
X196112
X198096
X200080
X202064
X204049
X206033
X208017
X210001
X211986
X213970
X216235
X218219
X220203
X222188
X224172
X226156
X228140
X230125
X232109
X236077
X238062
X240046
X242188
X246156
X246517Y218121
X248501
X250485
X251971Y218113
X253742Y217762
X255475Y216795
X256823Y215339
X257619Y213522
X257796Y209561
Y203608
Y199640
X261491Y196533
X264203Y196772
X264562Y194368
X264203Y191772
X261801Y192010
X261873Y186533
X261617Y182010
X269203Y181772
Y186772
X281009Y185247
Y183263
Y179294
Y177310
Y175383
X285532Y176893
Y178877
Y180862
Y182846
Y184830
Y186814
Y188799
Y190783
Y192767
Y194751
Y196736
Y198720
X281009Y199137
Y197152
Y195168
Y193184
Y191200
Y189216
X279203Y201791
Y206791
X282810Y206137
X284413Y204967
X269203Y206772
Y201772
X253274Y203976
X252108Y213523
X244532Y218121
X242548
X240564
X238580
X236595
X234510
X232526
X230542
X228558
X226573
X224589
X222605
X220621
X218636
X216652
X210699
X204432
X202448
X200464
X198480
X196495
X192527
X186574
X180621
X176653
X176463Y202595
X178447
X180431
X182416
X184400
X188368
X190353
X194321
X196306
X198290
X200274
X202258
X204242
X206227
X208211
X210195
X212179
X214164
X216148
X216762Y198073
X214778
X206841
X204857
X202873
X194936
X194694Y195749
Y193765
X194586Y191784
X193976Y189895
X192839Y188269
X191266Y187060
X185442Y186227
X183458
X180527Y190781
X178543
X179062Y198073
X181046
X183030
X185014
X186999
X188983
X186480Y190781
X195290Y208503
X197274Y208488
X199258
X201242
X203227
X205211
X207195
X209179
X211164
X213148
X215132
X223055Y202675
X225038Y202595
X227022
X229006
X230991
X230652Y198073
X228668
X226684
X224699
X225926Y191995
X227910
X229623Y193087
Y195456
X233370Y194186
X236466Y200814
X233370Y184264
X237893Y179319
X241985Y176583
X251906Y176596
X254496Y179190
X256399Y184656
X256023Y192982
X254572Y194334
X249203Y186772
Y181772
X221970Y192219
M30
