G04*
G04 #@! TF.GenerationSoftware,Altium Limited,Altium Designer,24.2.2 (26)*
G04*
G04 Layer_Color=2752767*
%FSLAX26Y26*%
%MOIN*%
G70*
G04*
G04 #@! TF.SameCoordinates,1490CFCF-B2EF-406E-B7EC-920D21FDAB99*
G04*
G04*
G04 #@! TF.FilePolarity,Positive*
G04*
G01*
G75*
%ADD109C,0.005000*%
D109*
X1195199Y765992D02*
X1205199D01*
X1215199Y775992D01*
X1225199Y765992D01*
X1235199D01*
Y775992D01*
X1225199Y785992D01*
X1235199Y795992D01*
Y805992D01*
X1225199D01*
X1215199Y795992D01*
X1205199Y805992D01*
X1195199D01*
Y795992D01*
X1205199Y785992D01*
X1195199Y775992D01*
Y765992D01*
Y789677D02*
X1205199D01*
X1215199Y799677D01*
X1225199Y789677D01*
X1235199D01*
Y799677D01*
X1225199Y809677D01*
X1235199Y819677D01*
Y829677D01*
X1225199D01*
X1215199Y819677D01*
X1205199Y829677D01*
X1195199D01*
Y819677D01*
X1205199Y809677D01*
X1195199Y799677D01*
Y789677D01*
X2472028Y1797716D02*
X2482028D01*
X2492028Y1807716D01*
X2502028Y1797716D01*
X2512028D01*
Y1807716D01*
X2502028Y1817716D01*
X2512028Y1827716D01*
Y1837716D01*
X2502028D01*
X2492028Y1827716D01*
X2482028Y1837716D01*
X2472028D01*
Y1827716D01*
X2482028Y1817716D01*
X2472028Y1807716D01*
Y1797716D01*
Y1347716D02*
X2482028D01*
X2492028Y1357716D01*
X2502028Y1347716D01*
X2512028D01*
Y1357716D01*
X2502028Y1367716D01*
X2512028Y1377716D01*
Y1387716D01*
X2502028D01*
X2492028Y1377716D01*
X2482028Y1387716D01*
X2472028D01*
Y1377716D01*
X2482028Y1367716D01*
X2472028Y1357716D01*
Y1347716D01*
X2672028Y1797716D02*
X2682028D01*
X2692028Y1807716D01*
X2702028Y1797716D01*
X2712028D01*
Y1807716D01*
X2702028Y1817716D01*
X2712028Y1827716D01*
Y1837716D01*
X2702028D01*
X2692028Y1827716D01*
X2682028Y1837716D01*
X2672028D01*
Y1827716D01*
X2682028Y1817716D01*
X2672028Y1807716D01*
Y1797716D01*
X1453334Y2029938D02*
X1463334D01*
X1473334Y2039938D01*
X1483334Y2029938D01*
X1493334D01*
Y2039938D01*
X1483334Y2049938D01*
X1493334Y2059938D01*
Y2069938D01*
X1483334D01*
X1473334Y2059938D01*
X1463334Y2069938D01*
X1453334D01*
Y2059938D01*
X1463334Y2049938D01*
X1453334Y2039938D01*
Y2029938D01*
X2672028Y1847716D02*
X2682028D01*
X2692028Y1857716D01*
X2702028Y1847716D01*
X2712028D01*
Y1857716D01*
X2702028Y1867716D01*
X2712028Y1877716D01*
Y1887716D01*
X2702028D01*
X2692028Y1877716D01*
X2682028Y1887716D01*
X2672028D01*
Y1877716D01*
X2682028Y1867716D01*
X2672028Y1857716D01*
Y1847716D01*
X1467284Y2029938D02*
X1477284D01*
X1487284Y2039938D01*
X1497284Y2029938D01*
X1507284D01*
Y2039938D01*
X1497284Y2049938D01*
X1507284Y2059938D01*
Y2069938D01*
X1497284D01*
X1487284Y2059938D01*
X1477284Y2069938D01*
X1467284D01*
Y2059938D01*
X1477284Y2049938D01*
X1467284Y2039938D01*
Y2029938D01*
X1383514Y1795336D02*
X1393514D01*
X1403514Y1805336D01*
X1413514Y1795336D01*
X1423514D01*
Y1805336D01*
X1413514Y1815336D01*
X1423514Y1825336D01*
Y1835336D01*
X1413514D01*
X1403514Y1825336D01*
X1393514Y1835336D01*
X1383514D01*
Y1825336D01*
X1393514Y1815336D01*
X1383514Y1805336D01*
Y1795336D01*
X1403356Y1795186D02*
X1413356D01*
X1423356Y1805186D01*
X1433356Y1795186D01*
X1443356D01*
Y1805186D01*
X1433356Y1815186D01*
X1443356Y1825186D01*
Y1835186D01*
X1433356D01*
X1423356Y1825186D01*
X1413356Y1835186D01*
X1403356D01*
Y1825186D01*
X1413356Y1815186D01*
X1403356Y1805186D01*
Y1795186D01*
X1423199D02*
X1433199D01*
X1443199Y1805186D01*
X1453199Y1795186D01*
X1463199D01*
Y1805186D01*
X1453199Y1815186D01*
X1463199Y1825186D01*
Y1835186D01*
X1453199D01*
X1443199Y1825186D01*
X1433199Y1835186D01*
X1423199D01*
Y1825186D01*
X1433199Y1815186D01*
X1423199Y1805186D01*
Y1795186D01*
X1522411D02*
X1532411D01*
X1542411Y1805186D01*
X1552411Y1795186D01*
X1562411D01*
Y1805186D01*
X1552411Y1815186D01*
X1562411Y1825186D01*
Y1835186D01*
X1552411D01*
X1542411Y1825186D01*
X1532411Y1835186D01*
X1522411D01*
Y1825186D01*
X1532411Y1815186D01*
X1522411Y1805186D01*
Y1795186D01*
X1542254D02*
X1552254D01*
X1562254Y1805186D01*
X1572254Y1795186D01*
X1582254D01*
Y1805186D01*
X1572254Y1815186D01*
X1582254Y1825186D01*
Y1835186D01*
X1572254D01*
X1562254Y1825186D01*
X1552254Y1835186D01*
X1542254D01*
Y1825186D01*
X1552254Y1815186D01*
X1542254Y1805186D01*
Y1795186D01*
X1562096D02*
X1572096D01*
X1582096Y1805186D01*
X1592096Y1795186D01*
X1602096D01*
Y1805186D01*
X1592096Y1815186D01*
X1602096Y1825186D01*
Y1835186D01*
X1592096D01*
X1582096Y1825186D01*
X1572096Y1835186D01*
X1562096D01*
Y1825186D01*
X1572096Y1815186D01*
X1562096Y1805186D01*
Y1795186D01*
X1581939D02*
X1591939D01*
X1601939Y1805186D01*
X1611939Y1795186D01*
X1621939D01*
Y1805186D01*
X1611939Y1815186D01*
X1621939Y1825186D01*
Y1835186D01*
X1611939D01*
X1601939Y1825186D01*
X1591939Y1835186D01*
X1581939D01*
Y1825186D01*
X1591939Y1815186D01*
X1581939Y1805186D01*
Y1795186D01*
X1725746Y1887813D02*
X1735746D01*
X1745746Y1897813D01*
X1755746Y1887813D01*
X1765746D01*
Y1897813D01*
X1755746Y1907813D01*
X1765746Y1917813D01*
Y1927813D01*
X1755746D01*
X1745746Y1917813D01*
X1735746Y1927813D01*
X1725746D01*
Y1917813D01*
X1735746Y1907813D01*
X1725746Y1897813D01*
Y1887813D01*
X1765431D02*
X1775431D01*
X1785431Y1897813D01*
X1795431Y1887813D01*
X1805431D01*
Y1897813D01*
X1795431Y1907813D01*
X1805431Y1917813D01*
Y1927813D01*
X1795431D01*
X1785431Y1917813D01*
X1775431Y1927813D01*
X1765431D01*
Y1917813D01*
X1775431Y1907813D01*
X1765431Y1897813D01*
Y1887813D01*
X1785274D02*
X1795274D01*
X1805274Y1897813D01*
X1815274Y1887813D01*
X1825274D01*
Y1897813D01*
X1815274Y1907813D01*
X1825274Y1917813D01*
Y1927813D01*
X1815274D01*
X1805274Y1917813D01*
X1795274Y1927813D01*
X1785274D01*
Y1917813D01*
X1795274Y1907813D01*
X1785274Y1897813D01*
Y1887813D01*
X1844801D02*
X1854801D01*
X1864801Y1897813D01*
X1874801Y1887813D01*
X1884801D01*
Y1897813D01*
X1874801Y1907813D01*
X1884801Y1917813D01*
Y1927813D01*
X1874801D01*
X1864801Y1917813D01*
X1854801Y1927813D01*
X1844801D01*
Y1917813D01*
X1854801Y1907813D01*
X1844801Y1897813D01*
Y1887813D01*
X1932898Y2065027D02*
X1942898D01*
X1952898Y2075027D01*
X1962898Y2065027D01*
X1972898D01*
Y2075027D01*
X1962898Y2085027D01*
X1972898Y2095027D01*
Y2105027D01*
X1962898D01*
X1952898Y2095027D01*
X1942898Y2105027D01*
X1932898D01*
Y2095027D01*
X1942898Y2085027D01*
X1932898Y2075027D01*
Y2065027D01*
X1952740Y2064877D02*
X1962740D01*
X1972740Y2074877D01*
X1982740Y2064877D01*
X1992740D01*
Y2074877D01*
X1982740Y2084877D01*
X1992740Y2094877D01*
Y2104877D01*
X1982740D01*
X1972740Y2094877D01*
X1962740Y2104877D01*
X1952740D01*
Y2094877D01*
X1962740Y2084877D01*
X1952740Y2074877D01*
Y2064877D01*
X1972583D02*
X1982583D01*
X1992583Y2074877D01*
X2002583Y2064877D01*
X2012583D01*
Y2074877D01*
X2002583Y2084877D01*
X2012583Y2094877D01*
Y2104877D01*
X2002583D01*
X1992583Y2094877D01*
X1982583Y2104877D01*
X1972583D01*
Y2094877D01*
X1982583Y2084877D01*
X1972583Y2074877D01*
Y2064877D01*
X1992425D02*
X2002425D01*
X2012425Y2074877D01*
X2022425Y2064877D01*
X2032425D01*
Y2074877D01*
X2022425Y2084877D01*
X2032425Y2094877D01*
Y2104877D01*
X2022425D01*
X2012425Y2094877D01*
X2002425Y2104877D01*
X1992425D01*
Y2094877D01*
X2002425Y2084877D01*
X1992425Y2074877D01*
Y2064877D01*
X2012268D02*
X2022268D01*
X2032268Y2074877D01*
X2042268Y2064877D01*
X2052268D01*
Y2074877D01*
X2042268Y2084877D01*
X2052268Y2094877D01*
Y2104877D01*
X2042268D01*
X2032268Y2094877D01*
X2022268Y2104877D01*
X2012268D01*
Y2094877D01*
X2022268Y2084877D01*
X2012268Y2074877D01*
Y2064877D01*
X2032110D02*
X2042110D01*
X2052110Y2074877D01*
X2062110Y2064877D01*
X2072110D01*
Y2074877D01*
X2062110Y2084877D01*
X2072110Y2094877D01*
Y2104877D01*
X2062110D01*
X2052110Y2094877D01*
X2042110Y2104877D01*
X2032110D01*
Y2094877D01*
X2042110Y2084877D01*
X2032110Y2074877D01*
Y2064877D01*
X2051953D02*
X2061953D01*
X2071953Y2074877D01*
X2081953Y2064877D01*
X2091953D01*
Y2074877D01*
X2081953Y2084877D01*
X2091953Y2094877D01*
Y2104877D01*
X2081953D01*
X2071953Y2094877D01*
X2061953Y2104877D01*
X2051953D01*
Y2094877D01*
X2061953Y2084877D01*
X2051953Y2074877D01*
Y2064877D01*
X2071795D02*
X2081795D01*
X2091795Y2074877D01*
X2101795Y2064877D01*
X2111795D01*
Y2074877D01*
X2101795Y2084877D01*
X2111795Y2094877D01*
Y2104877D01*
X2101795D01*
X2091795Y2094877D01*
X2081795Y2104877D01*
X2071795D01*
Y2094877D01*
X2081795Y2084877D01*
X2071795Y2074877D01*
Y2064877D01*
X2091638D02*
X2101638D01*
X2111638Y2074877D01*
X2121638Y2064877D01*
X2131638D01*
Y2074877D01*
X2121638Y2084877D01*
X2131638Y2094877D01*
Y2104877D01*
X2121638D01*
X2111638Y2094877D01*
X2101638Y2104877D01*
X2091638D01*
Y2094877D01*
X2101638Y2084877D01*
X2091638Y2074877D01*
Y2064877D01*
X2111480D02*
X2121480D01*
X2131480Y2074877D01*
X2141480Y2064877D01*
X2151480D01*
Y2074877D01*
X2141480Y2084877D01*
X2151480Y2094877D01*
Y2104877D01*
X2141480D01*
X2131480Y2094877D01*
X2121480Y2104877D01*
X2111480D01*
Y2094877D01*
X2121480Y2084877D01*
X2111480Y2074877D01*
Y2064877D01*
X2131323D02*
X2141323D01*
X2151323Y2074877D01*
X2161323Y2064877D01*
X2171323D01*
Y2074877D01*
X2161323Y2084877D01*
X2171323Y2094877D01*
Y2104877D01*
X2161323D01*
X2151323Y2094877D01*
X2141323Y2104877D01*
X2131323D01*
Y2094877D01*
X2141323Y2084877D01*
X2131323Y2074877D01*
Y2064877D01*
X943790Y1544830D02*
X953790D01*
X963790Y1554830D01*
X973790Y1544830D01*
X983790D01*
Y1554830D01*
X973790Y1564830D01*
X983790Y1574830D01*
Y1584830D01*
X973790D01*
X963790Y1574830D01*
X953790Y1584830D01*
X943790D01*
Y1574830D01*
X953790Y1564830D01*
X943790Y1554830D01*
Y1544830D01*
X945568Y1525067D02*
X955568D01*
X965568Y1535067D01*
X975568Y1525067D01*
X985568D01*
Y1535067D01*
X975568Y1545067D01*
X985568Y1555067D01*
Y1565067D01*
X975568D01*
X965568Y1555067D01*
X955568Y1565067D01*
X945568D01*
Y1555067D01*
X955568Y1545067D01*
X945568Y1535067D01*
Y1525067D01*
X954071Y1507139D02*
X964071D01*
X974071Y1517139D01*
X984071Y1507139D01*
X994071D01*
Y1517139D01*
X984071Y1527139D01*
X994071Y1537139D01*
Y1547139D01*
X984071D01*
X974071Y1537139D01*
X964071Y1547139D01*
X954071D01*
Y1537139D01*
X964071Y1527139D01*
X954071Y1517139D01*
Y1507139D01*
X968275Y1493283D02*
X978275D01*
X988275Y1503283D01*
X998275Y1493283D01*
X1008275D01*
Y1503283D01*
X998275Y1513283D01*
X1008275Y1523283D01*
Y1533283D01*
X998275D01*
X988275Y1523283D01*
X978275Y1533283D01*
X968275D01*
Y1523283D01*
X978275Y1513283D01*
X968275Y1503283D01*
Y1493283D01*
X1082238Y1499301D02*
X1092238D01*
X1102238Y1509301D01*
X1112238Y1499301D01*
X1122238D01*
Y1509301D01*
X1112238Y1519301D01*
X1122238Y1529301D01*
Y1539301D01*
X1112238D01*
X1102238Y1529301D01*
X1092238Y1539301D01*
X1082238D01*
Y1529301D01*
X1092238Y1519301D01*
X1082238Y1509301D01*
Y1499301D01*
X1104287Y1552427D02*
X1114287D01*
X1124287Y1562427D01*
X1134287Y1552427D01*
X1144287D01*
Y1562427D01*
X1134287Y1572427D01*
X1144287Y1582427D01*
Y1592427D01*
X1134287D01*
X1124287Y1582427D01*
X1114287Y1592427D01*
X1104287D01*
Y1582427D01*
X1114287Y1572427D01*
X1104287Y1562427D01*
Y1552427D01*
Y1572270D02*
X1114287D01*
X1124287Y1582270D01*
X1134287Y1572270D01*
X1144287D01*
Y1582270D01*
X1134287Y1592270D01*
X1144287Y1602270D01*
Y1612270D01*
X1134287D01*
X1124287Y1602270D01*
X1114287Y1612270D01*
X1104287D01*
Y1602270D01*
X1114287Y1592270D01*
X1104287Y1582270D01*
Y1572270D01*
X1118829Y1585770D02*
X1128829D01*
X1138829Y1595770D01*
X1148829Y1585770D01*
X1158829D01*
Y1595770D01*
X1148829Y1605770D01*
X1158829Y1615770D01*
Y1625770D01*
X1148829D01*
X1138829Y1615770D01*
X1128829Y1625770D01*
X1118829D01*
Y1615770D01*
X1128829Y1605770D01*
X1118829Y1595770D01*
Y1585770D01*
X1138671D02*
X1148671D01*
X1158671Y1595770D01*
X1168671Y1585770D01*
X1178671D01*
Y1595770D01*
X1168671Y1605770D01*
X1178671Y1615770D01*
Y1625770D01*
X1168671D01*
X1158671Y1615770D01*
X1148671Y1625770D01*
X1138671D01*
Y1615770D01*
X1148671Y1605770D01*
X1138671Y1595770D01*
Y1585770D01*
X1158514D02*
X1168514D01*
X1178514Y1595770D01*
X1188514Y1585770D01*
X1198514D01*
Y1595770D01*
X1188514Y1605770D01*
X1198514Y1615770D01*
Y1625770D01*
X1188514D01*
X1178514Y1615770D01*
X1168514Y1625770D01*
X1158514D01*
Y1615770D01*
X1168514Y1605770D01*
X1158514Y1595770D01*
Y1585770D01*
X1267491Y1613700D02*
X1277491D01*
X1287491Y1623700D01*
X1297491Y1613700D01*
X1307491D01*
Y1623700D01*
X1297491Y1633700D01*
X1307491Y1643700D01*
Y1653700D01*
X1297491D01*
X1287491Y1643700D01*
X1277491Y1653700D01*
X1267491D01*
Y1643700D01*
X1277491Y1633700D01*
X1267491Y1623700D01*
Y1613700D01*
X1283282Y1749219D02*
X1293282D01*
X1303282Y1759219D01*
X1313282Y1749219D01*
X1323282D01*
Y1759219D01*
X1313282Y1769219D01*
X1323282Y1779219D01*
Y1789219D01*
X1313282D01*
X1303282Y1779219D01*
X1293282Y1789219D01*
X1283282D01*
Y1779219D01*
X1293282Y1769219D01*
X1283282Y1759219D01*
Y1749219D01*
X1442017Y1749647D02*
X1452017D01*
X1462017Y1759647D01*
X1472017Y1749647D01*
X1482017D01*
Y1759647D01*
X1472017Y1769647D01*
X1482017Y1779647D01*
Y1789647D01*
X1472017D01*
X1462017Y1779647D01*
X1452017Y1789647D01*
X1442017D01*
Y1779647D01*
X1452017Y1769647D01*
X1442017Y1759647D01*
Y1749647D01*
X1481703D02*
X1491703D01*
X1501703Y1759647D01*
X1511703Y1749647D01*
X1521703D01*
Y1759647D01*
X1511703Y1769647D01*
X1521703Y1779647D01*
Y1789647D01*
X1511703D01*
X1501703Y1779647D01*
X1491703Y1789647D01*
X1481703D01*
Y1779647D01*
X1491703Y1769647D01*
X1481703Y1759647D01*
Y1749647D01*
X1501545D02*
X1511545D01*
X1521545Y1759647D01*
X1531545Y1749647D01*
X1541545D01*
Y1759647D01*
X1531545Y1769647D01*
X1541545Y1779647D01*
Y1789647D01*
X1531545D01*
X1521545Y1779647D01*
X1511545Y1789647D01*
X1501545D01*
Y1779647D01*
X1511545Y1769647D01*
X1501545Y1759647D01*
Y1749647D01*
X1521388D02*
X1531388D01*
X1541388Y1759647D01*
X1551388Y1749647D01*
X1561388D01*
Y1759647D01*
X1551388Y1769647D01*
X1561388Y1779647D01*
Y1789647D01*
X1551388D01*
X1541388Y1779647D01*
X1531388Y1789647D01*
X1521388D01*
Y1779647D01*
X1531388Y1769647D01*
X1521388Y1759647D01*
Y1749647D01*
X1541230D02*
X1551230D01*
X1561230Y1759647D01*
X1571230Y1749647D01*
X1581230D01*
Y1759647D01*
X1571230Y1769647D01*
X1581230Y1779647D01*
Y1789647D01*
X1571230D01*
X1561230Y1779647D01*
X1551230Y1789647D01*
X1541230D01*
Y1779647D01*
X1551230Y1769647D01*
X1541230Y1759647D01*
Y1749647D01*
X1561072D02*
X1571072D01*
X1581072Y1759647D01*
X1591072Y1749647D01*
X1601072D01*
Y1759647D01*
X1591072Y1769647D01*
X1601072Y1779647D01*
Y1789647D01*
X1591072D01*
X1581072Y1779647D01*
X1571072Y1789647D01*
X1561072D01*
Y1779647D01*
X1571072Y1769647D01*
X1561072Y1759647D01*
Y1749647D01*
X1580915D02*
X1590915D01*
X1600915Y1759647D01*
X1610915Y1749647D01*
X1620915D01*
Y1759647D01*
X1610915Y1769647D01*
X1620915Y1779647D01*
Y1789647D01*
X1610915D01*
X1600915Y1779647D01*
X1590915Y1789647D01*
X1580915D01*
Y1779647D01*
X1590915Y1769647D01*
X1580915Y1759647D01*
Y1749647D01*
X1643223Y1786451D02*
X1653223D01*
X1663223Y1796451D01*
X1673223Y1786451D01*
X1683223D01*
Y1796451D01*
X1673223Y1806451D01*
X1683223Y1816451D01*
Y1826451D01*
X1673223D01*
X1663223Y1816451D01*
X1653223Y1826451D01*
X1643223D01*
Y1816451D01*
X1653223Y1806451D01*
X1643223Y1796451D01*
Y1786451D01*
X1644339Y1806262D02*
X1654339D01*
X1664339Y1816262D01*
X1674339Y1806262D01*
X1684339D01*
Y1816262D01*
X1674339Y1826262D01*
X1684339Y1836262D01*
Y1846262D01*
X1674339D01*
X1664339Y1836262D01*
X1654339Y1846262D01*
X1644339D01*
Y1836262D01*
X1654339Y1826262D01*
X1644339Y1816262D01*
Y1806262D01*
Y1826104D02*
X1654339D01*
X1664339Y1836104D01*
X1674339Y1826104D01*
X1684339D01*
Y1836104D01*
X1674339Y1846104D01*
X1684339Y1856104D01*
Y1866104D01*
X1674339D01*
X1664339Y1856104D01*
X1654339Y1866104D01*
X1644339D01*
Y1856104D01*
X1654339Y1846104D01*
X1644339Y1836104D01*
Y1826104D01*
X1655841Y1842273D02*
X1665841D01*
X1675841Y1852273D01*
X1685841Y1842273D01*
X1695841D01*
Y1852273D01*
X1685841Y1862273D01*
X1695841Y1872273D01*
Y1882273D01*
X1685841D01*
X1675841Y1872273D01*
X1665841Y1882273D01*
X1655841D01*
Y1872273D01*
X1665841Y1862273D01*
X1655841Y1852273D01*
Y1842273D01*
X1675684D02*
X1685684D01*
X1695684Y1852273D01*
X1705684Y1842273D01*
X1715684D01*
Y1852273D01*
X1705684Y1862273D01*
X1715684Y1872273D01*
Y1882273D01*
X1705684D01*
X1695684Y1872273D01*
X1685684Y1882273D01*
X1675684D01*
Y1872273D01*
X1685684Y1862273D01*
X1675684Y1852273D01*
Y1842273D01*
X1695526D02*
X1705526D01*
X1715526Y1852273D01*
X1725526Y1842273D01*
X1735526D01*
Y1852273D01*
X1725526Y1862273D01*
X1735526Y1872273D01*
Y1882273D01*
X1725526D01*
X1715526Y1872273D01*
X1705526Y1882273D01*
X1695526D01*
Y1872273D01*
X1705526Y1862273D01*
X1695526Y1852273D01*
Y1842273D01*
X1715369D02*
X1725369D01*
X1735369Y1852273D01*
X1745369Y1842273D01*
X1755369D01*
Y1852273D01*
X1745369Y1862273D01*
X1755369Y1872273D01*
Y1882273D01*
X1745369D01*
X1735369Y1872273D01*
X1725369Y1882273D01*
X1715369D01*
Y1872273D01*
X1725369Y1862273D01*
X1715369Y1852273D01*
Y1842273D01*
X1814582D02*
X1824582D01*
X1834582Y1852273D01*
X1844582Y1842273D01*
X1854582D01*
Y1852273D01*
X1844582Y1862273D01*
X1854582Y1872273D01*
Y1882273D01*
X1844582D01*
X1834582Y1872273D01*
X1824582Y1882273D01*
X1814582D01*
Y1872273D01*
X1824582Y1862273D01*
X1814582Y1852273D01*
Y1842273D01*
X1834424D02*
X1844424D01*
X1854424Y1852273D01*
X1864424Y1842273D01*
X1874424D01*
Y1852273D01*
X1864424Y1862273D01*
X1874424Y1872273D01*
Y1882273D01*
X1864424D01*
X1854424Y1872273D01*
X1844424Y1882273D01*
X1834424D01*
Y1872273D01*
X1844424Y1862273D01*
X1834424Y1852273D01*
Y1842273D01*
X1892662Y1850600D02*
X1902662D01*
X1912662Y1860600D01*
X1922662Y1850600D01*
X1932662D01*
Y1860600D01*
X1922662Y1870600D01*
X1932662Y1880600D01*
Y1890600D01*
X1922662D01*
X1912662Y1880600D01*
X1902662Y1890600D01*
X1892662D01*
Y1880600D01*
X1902662Y1870600D01*
X1892662Y1860600D01*
Y1850600D01*
X1908393Y1862694D02*
X1918393D01*
X1928393Y1872694D01*
X1938393Y1862694D01*
X1948393D01*
Y1872694D01*
X1938393Y1882694D01*
X1948393Y1892694D01*
Y1902694D01*
X1938393D01*
X1928393Y1892694D01*
X1918393Y1902694D01*
X1908393D01*
Y1892694D01*
X1918393Y1882694D01*
X1908393Y1872694D01*
Y1862694D01*
X1919764Y1878955D02*
X1929764D01*
X1939764Y1888955D01*
X1949764Y1878955D01*
X1959764D01*
Y1888955D01*
X1949764Y1898955D01*
X1959764Y1908955D01*
Y1918955D01*
X1949764D01*
X1939764Y1908955D01*
X1929764Y1918955D01*
X1919764D01*
Y1908955D01*
X1929764Y1898955D01*
X1919764Y1888955D01*
Y1878955D01*
X1925861Y1897838D02*
X1935861D01*
X1945861Y1907838D01*
X1955861Y1897838D01*
X1965861D01*
Y1907838D01*
X1955861Y1917838D01*
X1965861Y1927838D01*
Y1937838D01*
X1955861D01*
X1945861Y1927838D01*
X1935861Y1937838D01*
X1925861D01*
Y1927838D01*
X1935861Y1917838D01*
X1925861Y1907838D01*
Y1897838D01*
X1926935Y1917651D02*
X1936935D01*
X1946935Y1927651D01*
X1956935Y1917651D01*
X1966935D01*
Y1927651D01*
X1956935Y1937651D01*
X1966935Y1947651D01*
Y1957651D01*
X1956935D01*
X1946935Y1947651D01*
X1936935Y1957651D01*
X1926935D01*
Y1947651D01*
X1936935Y1937651D01*
X1926935Y1927651D01*
Y1917651D01*
Y1937494D02*
X1936935D01*
X1946935Y1947494D01*
X1956935Y1937494D01*
X1966935D01*
Y1947494D01*
X1956935Y1957494D01*
X1966935Y1967494D01*
Y1977494D01*
X1956935D01*
X1946935Y1967494D01*
X1936935Y1977494D01*
X1926935D01*
Y1967494D01*
X1936935Y1957494D01*
X1926935Y1947494D01*
Y1937494D01*
X2199699Y1902187D02*
X2209699D01*
X2219699Y1912187D01*
X2229699Y1902187D01*
X2239699D01*
Y1912187D01*
X2229699Y1922187D01*
X2239699Y1932187D01*
Y1942187D01*
X2229699D01*
X2219699Y1932187D01*
X2209699Y1942187D01*
X2199699D01*
Y1932187D01*
X2209699Y1922187D01*
X2199699Y1912187D01*
Y1902187D01*
X2239257Y1899946D02*
X2249257D01*
X2259257Y1909946D01*
X2269257Y1899946D01*
X2279257D01*
Y1909946D01*
X2269257Y1919946D01*
X2279257Y1929946D01*
Y1939946D01*
X2269257D01*
X2259257Y1929946D01*
X2249257Y1939946D01*
X2239257D01*
Y1929946D01*
X2249257Y1919946D01*
X2239257Y1909946D01*
Y1899946D01*
X2259099D02*
X2269099D01*
X2279099Y1909946D01*
X2289099Y1899946D01*
X2299099D01*
Y1909946D01*
X2289099Y1919946D01*
X2299099Y1929946D01*
Y1939946D01*
X2289099D01*
X2279099Y1929946D01*
X2269099Y1939946D01*
X2259099D01*
Y1929946D01*
X2269099Y1919946D01*
X2259099Y1909946D01*
Y1899946D01*
X2276227Y1910874D02*
X2286227D01*
X2296227Y1920874D01*
X2306227Y1910874D01*
X2316227D01*
Y1920874D01*
X2306227Y1930874D01*
X2316227Y1940874D01*
Y1950874D01*
X2306227D01*
X2296227Y1940874D01*
X2286227Y1950874D01*
X2276227D01*
Y1940874D01*
X2286227Y1930874D01*
X2276227Y1920874D01*
Y1910874D01*
X954717Y1561196D02*
X964717D01*
X974717Y1571196D01*
X984717Y1561196D01*
X994717D01*
Y1571196D01*
X984717Y1581196D01*
X994717Y1591196D01*
Y1601196D01*
X984717D01*
X974717Y1591196D01*
X964717Y1601196D01*
X954717D01*
Y1591196D01*
X964717Y1581196D01*
X954717Y1571196D01*
Y1561196D01*
X2276227Y1934559D02*
X2286227D01*
X2296227Y1944559D01*
X2306227Y1934559D01*
X2316227D01*
Y1944559D01*
X2306227Y1954559D01*
X2316227Y1964559D01*
Y1974559D01*
X2306227D01*
X2296227Y1964559D01*
X2286227Y1974559D01*
X2276227D01*
Y1964559D01*
X2286227Y1954559D01*
X2276227Y1944559D01*
Y1934559D01*
X978402Y1561196D02*
X988402D01*
X998402Y1571196D01*
X1008402Y1561196D01*
X1018402D01*
Y1571196D01*
X1008402Y1581196D01*
X1018402Y1591196D01*
Y1601196D01*
X1008402D01*
X998402Y1591196D01*
X988402Y1601196D01*
X978402D01*
Y1591196D01*
X988402Y1581196D01*
X978402Y1571196D01*
Y1561196D01*
X2549771Y1498707D02*
X2559771D01*
X2569771Y1508707D01*
X2579771Y1498707D01*
X2589771D01*
Y1508707D01*
X2579771Y1518707D01*
X2589771Y1528707D01*
Y1538707D01*
X2579771D01*
X2569771Y1528707D01*
X2559771Y1538707D01*
X2549771D01*
Y1528707D01*
X2559771Y1518707D01*
X2549771Y1508707D01*
Y1498707D01*
X2609298D02*
X2619298D01*
X2629298Y1508707D01*
X2639298Y1498707D01*
X2649298D01*
Y1508707D01*
X2639298Y1518707D01*
X2649298Y1528707D01*
Y1538707D01*
X2639298D01*
X2629298Y1528707D01*
X2619298Y1538707D01*
X2609298D01*
Y1528707D01*
X2619298Y1518707D01*
X2609298Y1508707D01*
Y1498707D01*
X2629140D02*
X2639140D01*
X2649140Y1508707D01*
X2659140Y1498707D01*
X2669140D01*
Y1508707D01*
X2659140Y1518707D01*
X2669140Y1528707D01*
Y1538707D01*
X2659140D01*
X2649140Y1528707D01*
X2639140Y1538707D01*
X2629140D01*
Y1528707D01*
X2639140Y1518707D01*
X2629140Y1508707D01*
Y1498707D01*
X2648983D02*
X2658983D01*
X2668983Y1508707D01*
X2678983Y1498707D01*
X2688983D01*
Y1508707D01*
X2678983Y1518707D01*
X2688983Y1528707D01*
Y1538707D01*
X2678983D01*
X2668983Y1528707D01*
X2658983Y1538707D01*
X2648983D01*
Y1528707D01*
X2658983Y1518707D01*
X2648983Y1508707D01*
Y1498707D01*
X2668825D02*
X2678825D01*
X2688825Y1508707D01*
X2698825Y1498707D01*
X2708825D01*
Y1508707D01*
X2698825Y1518707D01*
X2708825Y1528707D01*
Y1538707D01*
X2698825D01*
X2688825Y1528707D01*
X2678825Y1538707D01*
X2668825D01*
Y1528707D01*
X2678825Y1518707D01*
X2668825Y1508707D01*
Y1498707D01*
X2688668D02*
X2698668D01*
X2708668Y1508707D01*
X2718668Y1498707D01*
X2728668D01*
Y1508707D01*
X2718668Y1518707D01*
X2728668Y1528707D01*
Y1538707D01*
X2718668D01*
X2708668Y1528707D01*
X2698668Y1538707D01*
X2688668D01*
Y1528707D01*
X2698668Y1518707D01*
X2688668Y1508707D01*
Y1498707D01*
X2722553Y1453167D02*
X2732553D01*
X2742553Y1463167D01*
X2752553Y1453167D01*
X2762553D01*
Y1463167D01*
X2752553Y1473167D01*
X2762553Y1483167D01*
Y1493167D01*
X2752553D01*
X2742553Y1483167D01*
X2732553Y1493167D01*
X2722553D01*
Y1483167D01*
X2732553Y1473167D01*
X2722553Y1463167D01*
Y1453167D01*
X2702711D02*
X2712711D01*
X2722711Y1463167D01*
X2732711Y1453167D01*
X2742711D01*
Y1463167D01*
X2732711Y1473167D01*
X2742711Y1483167D01*
Y1493167D01*
X2732711D01*
X2722711Y1483167D01*
X2712711Y1493167D01*
X2702711D01*
Y1483167D01*
X2712711Y1473167D01*
X2702711Y1463167D01*
Y1453167D01*
X2543971D02*
X2553971D01*
X2563971Y1463167D01*
X2573971Y1453167D01*
X2583971D01*
Y1463167D01*
X2573971Y1473167D01*
X2583971Y1483167D01*
Y1493167D01*
X2573971D01*
X2563971Y1483167D01*
X2553971Y1493167D01*
X2543971D01*
Y1483167D01*
X2553971Y1473167D01*
X2543971Y1463167D01*
Y1453167D01*
X2790093Y1575086D02*
X2800093D01*
X2810093Y1585086D01*
X2820093Y1575086D01*
X2830093D01*
Y1585086D01*
X2820093Y1595086D01*
X2830093Y1605086D01*
Y1615086D01*
X2820093D01*
X2810093Y1605086D01*
X2800093Y1615086D01*
X2790093D01*
Y1605086D01*
X2800093Y1595086D01*
X2790093Y1585086D01*
Y1575086D01*
Y1614771D02*
X2800093D01*
X2810093Y1624771D01*
X2820093Y1614771D01*
X2830093D01*
Y1624771D01*
X2820093Y1634771D01*
X2830093Y1644771D01*
Y1654771D01*
X2820093D01*
X2810093Y1644771D01*
X2800093Y1654771D01*
X2790093D01*
Y1644771D01*
X2800093Y1634771D01*
X2790093Y1624771D01*
Y1614771D01*
Y1634614D02*
X2800093D01*
X2810093Y1644614D01*
X2820093Y1634614D01*
X2830093D01*
Y1644614D01*
X2820093Y1654614D01*
X2830093Y1664614D01*
Y1674614D01*
X2820093D01*
X2810093Y1664614D01*
X2800093Y1674614D01*
X2790093D01*
Y1664614D01*
X2800093Y1654614D01*
X2790093Y1644614D01*
Y1634614D01*
Y1674299D02*
X2800093D01*
X2810093Y1684299D01*
X2820093Y1674299D01*
X2830093D01*
Y1684299D01*
X2820093Y1694299D01*
X2830093Y1704299D01*
Y1714299D01*
X2820093D01*
X2810093Y1704299D01*
X2800093Y1714299D01*
X2790093D01*
Y1704299D01*
X2800093Y1694299D01*
X2790093Y1684299D01*
Y1674299D01*
Y1694141D02*
X2800093D01*
X2810093Y1704141D01*
X2820093Y1694141D01*
X2830093D01*
Y1704141D01*
X2820093Y1714141D01*
X2830093Y1724141D01*
Y1734141D01*
X2820093D01*
X2810093Y1724141D01*
X2800093Y1734141D01*
X2790093D01*
Y1724141D01*
X2800093Y1714141D01*
X2790093Y1704141D01*
Y1694141D01*
Y1713984D02*
X2800093D01*
X2810093Y1723984D01*
X2820093Y1713984D01*
X2830093D01*
Y1723984D01*
X2820093Y1733984D01*
X2830093Y1743984D01*
Y1753984D01*
X2820093D01*
X2810093Y1743984D01*
X2800093Y1753984D01*
X2790093D01*
Y1743984D01*
X2800093Y1733984D01*
X2790093Y1723984D01*
Y1713984D01*
Y1733826D02*
X2800093D01*
X2810093Y1743826D01*
X2820093Y1733826D01*
X2830093D01*
Y1743826D01*
X2820093Y1753826D01*
X2830093Y1763826D01*
Y1773826D01*
X2820093D01*
X2810093Y1763826D01*
X2800093Y1773826D01*
X2790093D01*
Y1763826D01*
X2800093Y1753826D01*
X2790093Y1743826D01*
Y1733826D01*
Y1753100D02*
X2800093D01*
X2810093Y1763100D01*
X2820093Y1753100D01*
X2830093D01*
Y1763100D01*
X2820093Y1773100D01*
X2830093Y1783100D01*
Y1793100D01*
X2820093D01*
X2810093Y1783100D01*
X2800093Y1793100D01*
X2790093D01*
Y1783100D01*
X2800093Y1773100D01*
X2790093Y1763100D01*
Y1753100D01*
Y1772943D02*
X2800093D01*
X2810093Y1782943D01*
X2820093Y1772943D01*
X2830093D01*
Y1782943D01*
X2820093Y1792943D01*
X2830093Y1802943D01*
Y1812943D01*
X2820093D01*
X2810093Y1802943D01*
X2800093Y1812943D01*
X2790093D01*
Y1802943D01*
X2800093Y1792943D01*
X2790093Y1782943D01*
Y1772943D01*
Y1812628D02*
X2800093D01*
X2810093Y1822628D01*
X2820093Y1812628D01*
X2830093D01*
Y1822628D01*
X2820093Y1832628D01*
X2830093Y1842628D01*
Y1852628D01*
X2820093D01*
X2810093Y1842628D01*
X2800093Y1852628D01*
X2790093D01*
Y1842628D01*
X2800093Y1832628D01*
X2790093Y1822628D01*
Y1812628D01*
Y1832470D02*
X2800093D01*
X2810093Y1842470D01*
X2820093Y1832470D01*
X2830093D01*
Y1842470D01*
X2820093Y1852470D01*
X2830093Y1862470D01*
Y1872470D01*
X2820093D01*
X2810093Y1862470D01*
X2800093Y1872470D01*
X2790093D01*
Y1862470D01*
X2800093Y1852470D01*
X2790093Y1842470D01*
Y1832470D01*
Y1872155D02*
X2800093D01*
X2810093Y1882155D01*
X2820093Y1872155D01*
X2830093D01*
Y1882155D01*
X2820093Y1892155D01*
X2830093Y1902155D01*
Y1912155D01*
X2820093D01*
X2810093Y1902155D01*
X2800093Y1912155D01*
X2790093D01*
Y1902155D01*
X2800093Y1892155D01*
X2790093Y1882155D01*
Y1872155D01*
Y1891998D02*
X2800093D01*
X2810093Y1901998D01*
X2820093Y1891998D01*
X2830093D01*
Y1901998D01*
X2820093Y1911998D01*
X2830093Y1921998D01*
Y1931998D01*
X2820093D01*
X2810093Y1921998D01*
X2800093Y1931998D01*
X2790093D01*
Y1921998D01*
X2800093Y1911998D01*
X2790093Y1901998D01*
Y1891998D01*
Y1911840D02*
X2800093D01*
X2810093Y1921840D01*
X2820093Y1911840D01*
X2830093D01*
Y1921840D01*
X2820093Y1931840D01*
X2830093Y1941840D01*
Y1951840D01*
X2820093D01*
X2810093Y1941840D01*
X2800093Y1951840D01*
X2790093D01*
Y1941840D01*
X2800093Y1931840D01*
X2790093Y1921840D01*
Y1911840D01*
Y1931683D02*
X2800093D01*
X2810093Y1941683D01*
X2820093Y1931683D01*
X2830093D01*
Y1941683D01*
X2820093Y1951683D01*
X2830093Y1961683D01*
Y1971683D01*
X2820093D01*
X2810093Y1961683D01*
X2800093Y1971683D01*
X2790093D01*
Y1961683D01*
X2800093Y1951683D01*
X2790093Y1941683D01*
Y1931683D01*
Y1951525D02*
X2800093D01*
X2810093Y1961525D01*
X2820093Y1951525D01*
X2830093D01*
Y1961525D01*
X2820093Y1971525D01*
X2830093Y1981525D01*
Y1991525D01*
X2820093D01*
X2810093Y1981525D01*
X2800093Y1991525D01*
X2790093D01*
Y1981525D01*
X2800093Y1971525D01*
X2790093Y1961525D01*
Y1951525D01*
Y1971368D02*
X2800093D01*
X2810093Y1981368D01*
X2820093Y1971368D01*
X2830093D01*
Y1981368D01*
X2820093Y1991368D01*
X2830093Y2001368D01*
Y2011368D01*
X2820093D01*
X2810093Y2001368D01*
X2800093Y2011368D01*
X2790093D01*
Y2001368D01*
X2800093Y1991368D01*
X2790093Y1981368D01*
Y1971368D01*
X2835316Y1551234D02*
X2845316D01*
X2855316Y1561234D01*
X2865316Y1551234D01*
X2875316D01*
Y1561234D01*
X2865316Y1571234D01*
X2875316Y1581234D01*
Y1591234D01*
X2865316D01*
X2855316Y1581234D01*
X2845316Y1591234D01*
X2835316D01*
Y1581234D01*
X2845316Y1571234D01*
X2835316Y1561234D01*
Y1551234D01*
Y1571077D02*
X2845316D01*
X2855316Y1581077D01*
X2865316Y1571077D01*
X2875316D01*
Y1581077D01*
X2865316Y1591077D01*
X2875316Y1601077D01*
Y1611077D01*
X2865316D01*
X2855316Y1601077D01*
X2845316Y1611077D01*
X2835316D01*
Y1601077D01*
X2845316Y1591077D01*
X2835316Y1581077D01*
Y1571077D01*
Y1590919D02*
X2845316D01*
X2855316Y1600919D01*
X2865316Y1590919D01*
X2875316D01*
Y1600919D01*
X2865316Y1610919D01*
X2875316Y1620919D01*
Y1630919D01*
X2865316D01*
X2855316Y1620919D01*
X2845316Y1630919D01*
X2835316D01*
Y1620919D01*
X2845316Y1610919D01*
X2835316Y1600919D01*
Y1590919D01*
Y1610762D02*
X2845316D01*
X2855316Y1620762D01*
X2865316Y1610762D01*
X2875316D01*
Y1620762D01*
X2865316Y1630762D01*
X2875316Y1640762D01*
Y1650762D01*
X2865316D01*
X2855316Y1640762D01*
X2845316Y1650762D01*
X2835316D01*
Y1640762D01*
X2845316Y1630762D01*
X2835316Y1620762D01*
Y1610762D01*
Y1630604D02*
X2845316D01*
X2855316Y1640604D01*
X2865316Y1630604D01*
X2875316D01*
Y1640604D01*
X2865316Y1650604D01*
X2875316Y1660604D01*
Y1670604D01*
X2865316D01*
X2855316Y1660604D01*
X2845316Y1670604D01*
X2835316D01*
Y1660604D01*
X2845316Y1650604D01*
X2835316Y1640604D01*
Y1630604D01*
Y1650447D02*
X2845316D01*
X2855316Y1660447D01*
X2865316Y1650447D01*
X2875316D01*
Y1660447D01*
X2865316Y1670447D01*
X2875316Y1680447D01*
Y1690447D01*
X2865316D01*
X2855316Y1680447D01*
X2845316Y1690447D01*
X2835316D01*
Y1680447D01*
X2845316Y1670447D01*
X2835316Y1660447D01*
Y1650447D01*
Y1670289D02*
X2845316D01*
X2855316Y1680289D01*
X2865316Y1670289D01*
X2875316D01*
Y1680289D01*
X2865316Y1690289D01*
X2875316Y1700289D01*
Y1710289D01*
X2865316D01*
X2855316Y1700289D01*
X2845316Y1710289D01*
X2835316D01*
Y1700289D01*
X2845316Y1690289D01*
X2835316Y1680289D01*
Y1670289D01*
Y1690132D02*
X2845316D01*
X2855316Y1700132D01*
X2865316Y1690132D01*
X2875316D01*
Y1700132D01*
X2865316Y1710132D01*
X2875316Y1720132D01*
Y1730132D01*
X2865316D01*
X2855316Y1720132D01*
X2845316Y1730132D01*
X2835316D01*
Y1720132D01*
X2845316Y1710132D01*
X2835316Y1700132D01*
Y1690132D01*
Y1709974D02*
X2845316D01*
X2855316Y1719974D01*
X2865316Y1709974D01*
X2875316D01*
Y1719974D01*
X2865316Y1729974D01*
X2875316Y1739974D01*
Y1749974D01*
X2865316D01*
X2855316Y1739974D01*
X2845316Y1749974D01*
X2835316D01*
Y1739974D01*
X2845316Y1729974D01*
X2835316Y1719974D01*
Y1709974D01*
Y1729089D02*
X2845316D01*
X2855316Y1739089D01*
X2865316Y1729089D01*
X2875316D01*
Y1739089D01*
X2865316Y1749089D01*
X2875316Y1759089D01*
Y1769089D01*
X2865316D01*
X2855316Y1759089D01*
X2845316Y1769089D01*
X2835316D01*
Y1759089D01*
X2845316Y1749089D01*
X2835316Y1739089D01*
Y1729089D01*
Y1748932D02*
X2845316D01*
X2855316Y1758932D01*
X2865316Y1748932D01*
X2875316D01*
Y1758932D01*
X2865316Y1768932D01*
X2875316Y1778932D01*
Y1788932D01*
X2865316D01*
X2855316Y1778932D01*
X2845316Y1788932D01*
X2835316D01*
Y1778932D01*
X2845316Y1768932D01*
X2835316Y1758932D01*
Y1748932D01*
Y1768774D02*
X2845316D01*
X2855316Y1778774D01*
X2865316Y1768774D01*
X2875316D01*
Y1778774D01*
X2865316Y1788774D01*
X2875316Y1798774D01*
Y1808774D01*
X2865316D01*
X2855316Y1798774D01*
X2845316Y1808774D01*
X2835316D01*
Y1798774D01*
X2845316Y1788774D01*
X2835316Y1778774D01*
Y1768774D01*
Y1788617D02*
X2845316D01*
X2855316Y1798617D01*
X2865316Y1788617D01*
X2875316D01*
Y1798617D01*
X2865316Y1808617D01*
X2875316Y1818617D01*
Y1828617D01*
X2865316D01*
X2855316Y1818617D01*
X2845316Y1828617D01*
X2835316D01*
Y1818617D01*
X2845316Y1808617D01*
X2835316Y1798617D01*
Y1788617D01*
Y1808459D02*
X2845316D01*
X2855316Y1818459D01*
X2865316Y1808459D01*
X2875316D01*
Y1818459D01*
X2865316Y1828459D01*
X2875316Y1838459D01*
Y1848459D01*
X2865316D01*
X2855316Y1838459D01*
X2845316Y1848459D01*
X2835316D01*
Y1838459D01*
X2845316Y1828459D01*
X2835316Y1818459D01*
Y1808459D01*
Y1828302D02*
X2845316D01*
X2855316Y1838302D01*
X2865316Y1828302D01*
X2875316D01*
Y1838302D01*
X2865316Y1848302D01*
X2875316Y1858302D01*
Y1868302D01*
X2865316D01*
X2855316Y1858302D01*
X2845316Y1868302D01*
X2835316D01*
Y1858302D01*
X2845316Y1848302D01*
X2835316Y1838302D01*
Y1828302D01*
Y1848144D02*
X2845316D01*
X2855316Y1858144D01*
X2865316Y1848144D01*
X2875316D01*
Y1858144D01*
X2865316Y1868144D01*
X2875316Y1878144D01*
Y1888144D01*
X2865316D01*
X2855316Y1878144D01*
X2845316Y1888144D01*
X2835316D01*
Y1878144D01*
X2845316Y1868144D01*
X2835316Y1858144D01*
Y1848144D01*
Y1867987D02*
X2845316D01*
X2855316Y1877987D01*
X2865316Y1867987D01*
X2875316D01*
Y1877987D01*
X2865316Y1887987D01*
X2875316Y1897987D01*
Y1907987D01*
X2865316D01*
X2855316Y1897987D01*
X2845316Y1907987D01*
X2835316D01*
Y1897987D01*
X2845316Y1887987D01*
X2835316Y1877987D01*
Y1867987D01*
Y1887829D02*
X2845316D01*
X2855316Y1897829D01*
X2865316Y1887829D01*
X2875316D01*
Y1897829D01*
X2865316Y1907829D01*
X2875316Y1917829D01*
Y1927829D01*
X2865316D01*
X2855316Y1917829D01*
X2845316Y1927829D01*
X2835316D01*
Y1917829D01*
X2845316Y1907829D01*
X2835316Y1897829D01*
Y1887829D01*
Y1907672D02*
X2845316D01*
X2855316Y1917672D01*
X2865316Y1907672D01*
X2875316D01*
Y1917672D01*
X2865316Y1927672D01*
X2875316Y1937672D01*
Y1947672D01*
X2865316D01*
X2855316Y1937672D01*
X2845316Y1947672D01*
X2835316D01*
Y1937672D01*
X2845316Y1927672D01*
X2835316Y1917672D01*
Y1907672D01*
Y1927514D02*
X2845316D01*
X2855316Y1937514D01*
X2865316Y1927514D01*
X2875316D01*
Y1937514D01*
X2865316Y1947514D01*
X2875316Y1957514D01*
Y1967514D01*
X2865316D01*
X2855316Y1957514D01*
X2845316Y1967514D01*
X2835316D01*
Y1957514D01*
X2845316Y1947514D01*
X2835316Y1937514D01*
Y1927514D01*
Y1947357D02*
X2845316D01*
X2855316Y1957357D01*
X2865316Y1947357D01*
X2875316D01*
Y1957357D01*
X2865316Y1967357D01*
X2875316Y1977357D01*
Y1987357D01*
X2865316D01*
X2855316Y1977357D01*
X2845316Y1987357D01*
X2835316D01*
Y1977357D01*
X2845316Y1967357D01*
X2835316Y1957357D01*
Y1947357D01*
Y1967199D02*
X2845316D01*
X2855316Y1977199D01*
X2865316Y1967199D01*
X2875316D01*
Y1977199D01*
X2865316Y1987199D01*
X2875316Y1997199D01*
Y2007199D01*
X2865316D01*
X2855316Y1997199D01*
X2845316Y2007199D01*
X2835316D01*
Y1997199D01*
X2845316Y1987199D01*
X2835316Y1977199D01*
Y1967199D01*
X1422352Y853004D02*
X1432352D01*
X1442352Y863004D01*
X1452352Y853004D01*
X1462352D01*
Y863004D01*
X1452352Y873004D01*
X1462352Y883004D01*
Y893004D01*
X1452352D01*
X1442352Y883004D01*
X1432352Y893004D01*
X1422352D01*
Y883004D01*
X1432352Y873004D01*
X1422352Y863004D01*
Y853004D01*
X1402510D02*
X1412510D01*
X1422510Y863004D01*
X1432510Y853004D01*
X1442510D01*
Y863004D01*
X1432510Y873004D01*
X1442510Y883004D01*
Y893004D01*
X1432510D01*
X1422510Y883004D01*
X1412510Y893004D01*
X1402510D01*
Y883004D01*
X1412510Y873004D01*
X1402510Y863004D01*
Y853004D01*
X1382667D02*
X1392667D01*
X1402667Y863004D01*
X1412667Y853004D01*
X1422667D01*
Y863004D01*
X1412667Y873004D01*
X1422667Y883004D01*
Y893004D01*
X1412667D01*
X1402667Y883004D01*
X1392667Y893004D01*
X1382667D01*
Y883004D01*
X1392667Y873004D01*
X1382667Y863004D01*
Y853004D01*
X1362825D02*
X1372825D01*
X1382825Y863004D01*
X1392825Y853004D01*
X1402825D01*
Y863004D01*
X1392825Y873004D01*
X1402825Y883004D01*
Y893004D01*
X1392825D01*
X1382825Y883004D01*
X1372825Y893004D01*
X1362825D01*
Y883004D01*
X1372825Y873004D01*
X1362825Y863004D01*
Y853004D01*
X1342982D02*
X1352982D01*
X1362982Y863004D01*
X1372982Y853004D01*
X1382982D01*
Y863004D01*
X1372982Y873004D01*
X1382982Y883004D01*
Y893004D01*
X1372982D01*
X1362982Y883004D01*
X1352982Y893004D01*
X1342982D01*
Y883004D01*
X1352982Y873004D01*
X1342982Y863004D01*
Y853004D01*
X1323225Y851167D02*
X1333225D01*
X1343225Y861167D01*
X1353225Y851167D01*
X1363225D01*
Y861167D01*
X1353225Y871167D01*
X1363225Y881167D01*
Y891167D01*
X1353225D01*
X1343225Y881167D01*
X1333225Y891167D01*
X1323225D01*
Y881167D01*
X1333225Y871167D01*
X1323225Y861167D01*
Y851167D01*
X1305728Y841809D02*
X1315728D01*
X1325728Y851809D01*
X1335728Y841809D01*
X1345728D01*
Y851809D01*
X1335728Y861809D01*
X1345728Y871809D01*
Y881809D01*
X1335728D01*
X1325728Y871809D01*
X1315728Y881809D01*
X1305728D01*
Y871809D01*
X1315728Y861809D01*
X1305728Y851809D01*
Y841809D01*
X1293584Y826117D02*
X1303584D01*
X1313584Y836117D01*
X1323584Y826117D01*
X1333584D01*
Y836117D01*
X1323584Y846117D01*
X1333584Y856117D01*
Y866117D01*
X1323584D01*
X1313584Y856117D01*
X1303584Y866117D01*
X1293584D01*
Y856117D01*
X1303584Y846117D01*
X1293584Y836117D01*
Y826117D01*
X1288933Y806827D02*
X1298933D01*
X1308933Y816827D01*
X1318933Y806827D01*
X1328933D01*
Y816827D01*
X1318933Y826827D01*
X1328933Y836827D01*
Y846827D01*
X1318933D01*
X1308933Y836827D01*
X1298933Y846827D01*
X1288933D01*
Y836827D01*
X1298933Y826827D01*
X1288933Y816827D01*
Y806827D01*
X1288900Y786985D02*
X1298900D01*
X1308900Y796985D01*
X1318900Y786985D01*
X1328900D01*
Y796985D01*
X1318900Y806985D01*
X1328900Y816985D01*
Y826985D01*
X1318900D01*
X1308900Y816985D01*
X1298900Y826985D01*
X1288900D01*
Y816985D01*
X1298900Y806985D01*
X1288900Y796985D01*
Y786985D01*
Y767142D02*
X1298900D01*
X1308900Y777142D01*
X1318900Y767142D01*
X1328900D01*
Y777142D01*
X1318900Y787142D01*
X1328900Y797142D01*
Y807142D01*
X1318900D01*
X1308900Y797142D01*
X1298900Y807142D01*
X1288900D01*
Y797142D01*
X1298900Y787142D01*
X1288900Y777142D01*
Y767142D01*
Y747299D02*
X1298900D01*
X1308900Y757299D01*
X1318900Y747299D01*
X1328900D01*
Y757299D01*
X1318900Y767299D01*
X1328900Y777299D01*
Y787299D01*
X1318900D01*
X1308900Y777299D01*
X1298900Y787299D01*
X1288900D01*
Y777299D01*
X1298900Y767299D01*
X1288900Y757299D01*
Y747299D01*
Y727457D02*
X1298900D01*
X1308900Y737457D01*
X1318900Y727457D01*
X1328900D01*
Y737457D01*
X1318900Y747457D01*
X1328900Y757457D01*
Y767457D01*
X1318900D01*
X1308900Y757457D01*
X1298900Y767457D01*
X1288900D01*
Y757457D01*
X1298900Y747457D01*
X1288900Y737457D01*
Y727457D01*
X1290924Y668033D02*
X1300924D01*
X1310924Y678033D01*
X1320924Y668033D01*
X1330924D01*
Y678033D01*
X1320924Y688033D01*
X1330924Y698033D01*
Y708033D01*
X1320924D01*
X1310924Y698033D01*
X1300924Y708033D01*
X1290924D01*
Y698033D01*
X1300924Y688033D01*
X1290924Y678033D01*
Y668033D01*
X1299980Y650378D02*
X1309980D01*
X1319980Y660378D01*
X1329980Y650378D01*
X1339980D01*
Y660378D01*
X1329980Y670378D01*
X1339980Y680378D01*
Y690378D01*
X1329980D01*
X1319980Y680378D01*
X1309980Y690378D01*
X1299980D01*
Y680378D01*
X1309980Y670378D01*
X1299980Y660378D01*
Y650378D01*
X1314659Y637027D02*
X1324659D01*
X1334659Y647027D01*
X1344659Y637027D01*
X1354659D01*
Y647027D01*
X1344659Y657027D01*
X1354659Y667027D01*
Y677027D01*
X1344659D01*
X1334659Y667027D01*
X1324659Y677027D01*
X1314659D01*
Y667027D01*
X1324659Y657027D01*
X1314659Y647027D01*
Y637027D01*
X1333322Y630288D02*
X1343322D01*
X1353322Y640288D01*
X1363322Y630288D01*
X1373322D01*
Y640288D01*
X1363322Y650288D01*
X1373322Y660288D01*
Y670288D01*
X1363322D01*
X1353322Y660288D01*
X1343322Y670288D01*
X1333322D01*
Y660288D01*
X1343322Y650288D01*
X1333322Y640288D01*
Y630288D01*
X1353147Y629440D02*
X1363147D01*
X1373147Y639440D01*
X1383147Y629440D01*
X1393147D01*
Y639440D01*
X1383147Y649440D01*
X1393147Y659440D01*
Y669440D01*
X1383147D01*
X1373147Y659440D01*
X1363147Y669440D01*
X1353147D01*
Y659440D01*
X1363147Y649440D01*
X1353147Y639440D01*
Y629440D01*
X1372989D02*
X1382989D01*
X1392989Y639440D01*
X1402989Y629440D01*
X1412989D01*
Y639440D01*
X1402989Y649440D01*
X1412989Y659440D01*
Y669440D01*
X1402989D01*
X1392989Y659440D01*
X1382989Y669440D01*
X1372989D01*
Y659440D01*
X1382989Y649440D01*
X1372989Y639440D01*
Y629440D01*
X1381403Y611470D02*
X1391403D01*
X1401403Y621470D01*
X1411403Y611470D01*
X1421403D01*
Y621470D01*
X1411403Y631470D01*
X1421403Y641470D01*
Y651470D01*
X1411403D01*
X1401403Y641470D01*
X1391403Y651470D01*
X1381403D01*
Y641470D01*
X1391403Y631470D01*
X1381403Y621470D01*
Y611470D01*
X1361560D02*
X1371560D01*
X1381560Y621470D01*
X1391560Y611470D01*
X1401560D01*
Y621470D01*
X1391560Y631470D01*
X1401560Y641470D01*
Y651470D01*
X1391560D01*
X1381560Y641470D01*
X1371560Y651470D01*
X1361560D01*
Y641470D01*
X1371560Y631470D01*
X1361560Y621470D01*
Y611470D01*
X1341718D02*
X1351718D01*
X1361718Y621470D01*
X1371718Y611470D01*
X1381718D01*
Y621470D01*
X1371718Y631470D01*
X1381718Y641470D01*
Y651470D01*
X1371718D01*
X1361718Y641470D01*
X1351718Y651470D01*
X1341718D01*
Y641470D01*
X1351718Y631470D01*
X1341718Y621470D01*
Y611470D01*
X1321875D02*
X1331875D01*
X1341875Y621470D01*
X1351875Y611470D01*
X1361875D01*
Y621470D01*
X1351875Y631470D01*
X1361875Y641470D01*
Y651470D01*
X1351875D01*
X1341875Y641470D01*
X1331875Y651470D01*
X1321875D01*
Y641470D01*
X1331875Y631470D01*
X1321875Y621470D01*
Y611470D01*
X1302033D02*
X1312033D01*
X1322033Y621470D01*
X1332033Y611470D01*
X1342033D01*
Y621470D01*
X1332033Y631470D01*
X1342033Y641470D01*
Y651470D01*
X1332033D01*
X1322033Y641470D01*
X1312033Y651470D01*
X1302033D01*
Y641470D01*
X1312033Y631470D01*
X1302033Y621470D01*
Y611470D01*
X1282190D02*
X1292190D01*
X1302190Y621470D01*
X1312190Y611470D01*
X1322190D01*
Y621470D01*
X1312190Y631470D01*
X1322190Y641470D01*
Y651470D01*
X1312190D01*
X1302190Y641470D01*
X1292190Y651470D01*
X1282190D01*
Y641470D01*
X1292190Y631470D01*
X1282190Y621470D01*
Y611470D01*
X1262348D02*
X1272348D01*
X1282348Y621470D01*
X1292348Y611470D01*
X1302348D01*
Y621470D01*
X1292348Y631470D01*
X1302348Y641470D01*
Y651470D01*
X1292348D01*
X1282348Y641470D01*
X1272348Y651470D01*
X1262348D01*
Y641470D01*
X1272348Y631470D01*
X1262348Y621470D01*
Y611470D01*
X1242505D02*
X1252505D01*
X1262505Y621470D01*
X1272505Y611470D01*
X1282505D01*
Y621470D01*
X1272505Y631470D01*
X1282505Y641470D01*
Y651470D01*
X1272505D01*
X1262505Y641470D01*
X1252505Y651470D01*
X1242505D01*
Y641470D01*
X1252505Y631470D01*
X1242505Y621470D01*
Y611470D01*
X1222663D02*
X1232663D01*
X1242663Y621470D01*
X1252663Y611470D01*
X1262663D01*
Y621470D01*
X1252663Y631470D01*
X1262663Y641470D01*
Y651470D01*
X1252663D01*
X1242663Y641470D01*
X1232663Y651470D01*
X1222663D01*
Y641470D01*
X1232663Y631470D01*
X1222663Y621470D01*
Y611470D01*
X1214854Y566247D02*
X1224854D01*
X1234854Y576247D01*
X1244854Y566247D01*
X1254854D01*
Y576247D01*
X1244854Y586247D01*
X1254854Y596247D01*
Y606247D01*
X1244854D01*
X1234854Y596247D01*
X1224854Y606247D01*
X1214854D01*
Y596247D01*
X1224854Y586247D01*
X1214854Y576247D01*
Y566247D01*
X1234696D02*
X1244696D01*
X1254696Y576247D01*
X1264696Y566247D01*
X1274696D01*
Y576247D01*
X1264696Y586247D01*
X1274696Y596247D01*
Y606247D01*
X1264696D01*
X1254696Y596247D01*
X1244696Y606247D01*
X1234696D01*
Y596247D01*
X1244696Y586247D01*
X1234696Y576247D01*
Y566247D01*
X1254539D02*
X1264539D01*
X1274539Y576247D01*
X1284539Y566247D01*
X1294539D01*
Y576247D01*
X1284539Y586247D01*
X1294539Y596247D01*
Y606247D01*
X1284539D01*
X1274539Y596247D01*
X1264539Y606247D01*
X1254539D01*
Y596247D01*
X1264539Y586247D01*
X1254539Y576247D01*
Y566247D01*
X1268154Y551813D02*
X1278154D01*
X1288154Y561813D01*
X1298154Y551813D01*
X1308154D01*
Y561813D01*
X1298154Y571813D01*
X1308154Y581813D01*
Y591813D01*
X1298154D01*
X1288154Y581813D01*
X1278154Y591813D01*
X1268154D01*
Y581813D01*
X1278154Y571813D01*
X1268154Y561813D01*
Y551813D01*
X1287940Y553314D02*
X1297940D01*
X1307940Y563314D01*
X1317940Y553314D01*
X1327940D01*
Y563314D01*
X1317940Y573314D01*
X1327940Y583314D01*
Y593314D01*
X1317940D01*
X1307940Y583314D01*
X1297940Y593314D01*
X1287940D01*
Y583314D01*
X1297940Y573314D01*
X1287940Y563314D01*
Y553314D01*
X1302989Y566247D02*
X1312989D01*
X1322989Y576247D01*
X1332989Y566247D01*
X1342989D01*
Y576247D01*
X1332989Y586247D01*
X1342989Y596247D01*
Y606247D01*
X1332989D01*
X1322989Y596247D01*
X1312989Y606247D01*
X1302989D01*
Y596247D01*
X1312989Y586247D01*
X1302989Y576247D01*
Y566247D01*
X1322832D02*
X1332832D01*
X1342832Y576247D01*
X1352832Y566247D01*
X1362832D01*
Y576247D01*
X1352832Y586247D01*
X1362832Y596247D01*
Y606247D01*
X1352832D01*
X1342832Y596247D01*
X1332832Y606247D01*
X1322832D01*
Y596247D01*
X1332832Y586247D01*
X1322832Y576247D01*
Y566247D01*
X1342674D02*
X1352674D01*
X1362674Y576247D01*
X1372674Y566247D01*
X1382674D01*
Y576247D01*
X1372674Y586247D01*
X1382674Y596247D01*
Y606247D01*
X1372674D01*
X1362674Y596247D01*
X1352674Y606247D01*
X1342674D01*
Y596247D01*
X1352674Y586247D01*
X1342674Y576247D01*
Y566247D01*
X1362517D02*
X1372517D01*
X1382517Y576247D01*
X1392517Y566247D01*
X1402517D01*
Y576247D01*
X1392517Y586247D01*
X1402517Y596247D01*
Y606247D01*
X1392517D01*
X1382517Y596247D01*
X1372517Y606247D01*
X1362517D01*
Y596247D01*
X1372517Y586247D01*
X1362517Y576247D01*
Y566247D01*
X1382359D02*
X1392359D01*
X1402359Y576247D01*
X1412359Y566247D01*
X1422359D01*
Y576247D01*
X1412359Y586247D01*
X1422359Y596247D01*
Y606247D01*
X1412359D01*
X1402359Y596247D01*
X1392359Y606247D01*
X1382359D01*
Y596247D01*
X1392359Y586247D01*
X1382359Y576247D01*
Y566247D01*
X1402193Y566849D02*
X1412193D01*
X1422193Y576849D01*
X1432193Y566849D01*
X1442193D01*
Y576849D01*
X1432193Y586849D01*
X1442193Y596849D01*
Y606849D01*
X1432193D01*
X1422193Y596849D01*
X1412193Y606849D01*
X1402193D01*
Y596849D01*
X1412193Y586849D01*
X1402193Y576849D01*
Y566849D01*
X1420904Y573454D02*
X1430904D01*
X1440904Y583454D01*
X1450904Y573454D01*
X1460904D01*
Y583454D01*
X1450904Y593454D01*
X1460904Y603454D01*
Y613454D01*
X1450904D01*
X1440904Y603454D01*
X1430904Y613454D01*
X1420904D01*
Y603454D01*
X1430904Y593454D01*
X1420904Y583454D01*
Y573454D01*
X1435072Y587346D02*
X1445072D01*
X1455072Y597346D01*
X1465072Y587346D01*
X1475072D01*
Y597346D01*
X1465072Y607346D01*
X1475072Y617346D01*
Y627346D01*
X1465072D01*
X1455072Y617346D01*
X1445072Y627346D01*
X1435072D01*
Y617346D01*
X1445072Y607346D01*
X1435072Y597346D01*
Y587346D01*
X1442344Y605807D02*
X1452344D01*
X1462344Y615807D01*
X1472344Y605807D01*
X1482344D01*
Y615807D01*
X1472344Y625807D01*
X1482344Y635807D01*
Y645807D01*
X1472344D01*
X1462344Y635807D01*
X1452344Y645807D01*
X1442344D01*
Y635807D01*
X1452344Y625807D01*
X1442344Y615807D01*
Y605807D01*
X1442090Y625648D02*
X1452090D01*
X1462090Y635648D01*
X1472090Y625648D01*
X1482090D01*
Y635648D01*
X1472090Y645648D01*
X1482090Y655648D01*
Y665648D01*
X1472090D01*
X1462090Y655648D01*
X1452090Y665648D01*
X1442090D01*
Y655648D01*
X1452090Y645648D01*
X1442090Y635648D01*
Y625648D01*
X1435475Y644356D02*
X1445475D01*
X1455475Y654356D01*
X1465475Y644356D01*
X1475475D01*
Y654356D01*
X1465475Y664356D01*
X1475475Y674356D01*
Y684356D01*
X1465475D01*
X1455475Y674356D01*
X1445475Y684356D01*
X1435475D01*
Y674356D01*
X1445475Y664356D01*
X1435475Y654356D01*
Y644356D01*
X1422938Y659736D02*
X1432938D01*
X1442938Y669736D01*
X1452938Y659736D01*
X1462938D01*
Y669736D01*
X1452938Y679736D01*
X1462938Y689736D01*
Y699736D01*
X1452938D01*
X1442938Y689736D01*
X1432938Y699736D01*
X1422938D01*
Y689736D01*
X1432938Y679736D01*
X1422938Y669736D01*
Y659736D01*
X1366845Y674663D02*
X1376845D01*
X1386845Y684663D01*
X1396845Y674663D01*
X1406845D01*
Y684663D01*
X1396845Y694663D01*
X1406845Y704663D01*
Y714663D01*
X1396845D01*
X1386845Y704663D01*
X1376845Y714663D01*
X1366845D01*
Y704663D01*
X1376845Y694663D01*
X1366845Y684663D01*
Y674663D01*
X1347002D02*
X1357002D01*
X1367002Y684663D01*
X1377002Y674663D01*
X1387002D01*
Y684663D01*
X1377002Y694663D01*
X1387002Y704663D01*
Y714663D01*
X1377002D01*
X1367002Y704663D01*
X1357002Y714663D01*
X1347002D01*
Y704663D01*
X1357002Y694663D01*
X1347002Y684663D01*
Y674663D01*
X1334123Y689758D02*
X1344123D01*
X1354123Y699758D01*
X1364123Y689758D01*
X1374123D01*
Y699758D01*
X1364123Y709758D01*
X1374123Y719758D01*
Y729758D01*
X1364123D01*
X1354123Y719758D01*
X1344123Y729758D01*
X1334123D01*
Y719758D01*
X1344123Y709758D01*
X1334123Y699758D01*
Y689758D01*
Y709601D02*
X1344123D01*
X1354123Y719601D01*
X1364123Y709601D01*
X1374123D01*
Y719601D01*
X1364123Y729601D01*
X1374123Y739601D01*
Y749601D01*
X1364123D01*
X1354123Y739601D01*
X1344123Y749601D01*
X1334123D01*
Y739601D01*
X1344123Y729601D01*
X1334123Y719601D01*
Y709601D01*
Y729443D02*
X1344123D01*
X1354123Y739443D01*
X1364123Y729443D01*
X1374123D01*
Y739443D01*
X1364123Y749443D01*
X1374123Y759443D01*
Y769443D01*
X1364123D01*
X1354123Y759443D01*
X1344123Y769443D01*
X1334123D01*
Y759443D01*
X1344123Y749443D01*
X1334123Y739443D01*
Y729443D01*
Y749285D02*
X1344123D01*
X1354123Y759285D01*
X1364123Y749285D01*
X1374123D01*
Y759285D01*
X1364123Y769285D01*
X1374123Y779285D01*
Y789285D01*
X1364123D01*
X1354123Y779285D01*
X1344123Y789285D01*
X1334123D01*
Y779285D01*
X1344123Y769285D01*
X1334123Y759285D01*
Y749285D01*
Y769128D02*
X1344123D01*
X1354123Y779128D01*
X1364123Y769128D01*
X1374123D01*
Y779128D01*
X1364123Y789128D01*
X1374123Y799128D01*
Y809128D01*
X1364123D01*
X1354123Y799128D01*
X1344123Y809128D01*
X1334123D01*
Y799128D01*
X1344123Y789128D01*
X1334123Y779128D01*
Y769128D01*
Y788971D02*
X1344123D01*
X1354123Y798971D01*
X1364123Y788971D01*
X1374123D01*
Y798971D01*
X1364123Y808971D01*
X1374123Y818971D01*
Y828971D01*
X1364123D01*
X1354123Y818971D01*
X1344123Y828971D01*
X1334123D01*
Y818971D01*
X1344123Y808971D01*
X1334123Y798971D01*
Y788971D01*
X1340439Y807781D02*
X1350439D01*
X1360439Y817781D01*
X1370439Y807781D01*
X1380439D01*
Y817781D01*
X1370439Y827781D01*
X1380439Y837781D01*
Y847781D01*
X1370439D01*
X1360439Y837781D01*
X1350439Y847781D01*
X1340439D01*
Y837781D01*
X1350439Y827781D01*
X1340439Y817781D01*
Y807781D01*
X1360282D02*
X1370282D01*
X1380282Y817781D01*
X1390282Y807781D01*
X1400282D01*
Y817781D01*
X1390282Y827781D01*
X1400282Y837781D01*
Y847781D01*
X1390282D01*
X1380282Y837781D01*
X1370282Y847781D01*
X1360282D01*
Y837781D01*
X1370282Y827781D01*
X1360282Y817781D01*
Y807781D01*
X1380124D02*
X1390124D01*
X1400124Y817781D01*
X1410124Y807781D01*
X1420124D01*
Y817781D01*
X1410124Y827781D01*
X1420124Y837781D01*
Y847781D01*
X1410124D01*
X1400124Y837781D01*
X1390124Y847781D01*
X1380124D01*
Y837781D01*
X1390124Y827781D01*
X1380124Y817781D01*
Y807781D01*
X1399967D02*
X1409967D01*
X1419967Y817781D01*
X1429967Y807781D01*
X1439967D01*
Y817781D01*
X1429967Y827781D01*
X1439967Y837781D01*
Y847781D01*
X1429967D01*
X1419967Y837781D01*
X1409967Y847781D01*
X1399967D01*
Y837781D01*
X1409967Y827781D01*
X1399967Y817781D01*
Y807781D01*
X1419809D02*
X1429809D01*
X1439809Y817781D01*
X1449809Y807781D01*
X1459809D01*
Y817781D01*
X1449809Y827781D01*
X1459809Y837781D01*
Y847781D01*
X1449809D01*
X1439809Y837781D01*
X1429809Y847781D01*
X1419809D01*
Y837781D01*
X1429809Y827781D01*
X1419809Y817781D01*
Y807781D01*
X1437697Y799194D02*
X1447697D01*
X1457697Y809194D01*
X1467697Y799194D01*
X1477697D01*
Y809194D01*
X1467697Y819194D01*
X1477697Y829194D01*
Y839194D01*
X1467697D01*
X1457697Y829194D01*
X1447697Y839194D01*
X1437697D01*
Y829194D01*
X1447697Y819194D01*
X1437697Y809194D01*
Y799194D01*
X1435421Y779482D02*
X1445421D01*
X1455421Y789482D01*
X1465421Y779482D01*
X1475421D01*
Y789482D01*
X1465421Y799482D01*
X1475421Y809482D01*
Y819482D01*
X1465421D01*
X1455421Y809482D01*
X1445421Y819482D01*
X1435421D01*
Y809482D01*
X1445421Y799482D01*
X1435421Y789482D01*
Y779482D01*
X1470679Y836711D02*
X1480679D01*
X1490679Y846711D01*
X1500679Y836711D01*
X1510679D01*
Y846711D01*
X1500679Y856711D01*
X1510679Y866711D01*
Y876711D01*
X1500679D01*
X1490679Y866711D01*
X1480679Y876711D01*
X1470679D01*
Y866711D01*
X1480679Y856711D01*
X1470679Y846711D01*
Y836711D01*
X1454689Y848460D02*
X1464689D01*
X1474689Y858460D01*
X1484689Y848460D01*
X1494689D01*
Y858460D01*
X1484689Y868460D01*
X1494689Y878460D01*
Y888460D01*
X1484689D01*
X1474689Y878460D01*
X1464689Y888460D01*
X1454689D01*
Y878460D01*
X1464689Y868460D01*
X1454689Y858460D01*
Y848460D01*
X1436254Y852894D02*
X1446254D01*
X1456254Y862894D01*
X1466254Y852894D01*
X1476254D01*
Y862894D01*
X1466254Y872894D01*
X1476254Y882894D01*
Y892894D01*
X1466254D01*
X1456254Y882894D01*
X1446254Y892894D01*
X1436254D01*
Y882894D01*
X1446254Y872894D01*
X1436254Y862894D01*
Y852894D01*
X2762273Y1518527D02*
X2772273D01*
X2782273Y1528527D01*
X2792273Y1518527D01*
X2802273D01*
Y1528527D01*
X2792273Y1538527D01*
X2802273Y1548527D01*
Y1558527D01*
X2792273D01*
X2782273Y1548527D01*
X2772273Y1558527D01*
X2762273D01*
Y1548527D01*
X2772273Y1538527D01*
X2762273Y1528527D01*
Y1518527D01*
X2745818Y1507439D02*
X2755818D01*
X2765818Y1517439D01*
X2775818Y1507439D01*
X2785818D01*
Y1517439D01*
X2775818Y1527439D01*
X2785818Y1537439D01*
Y1547439D01*
X2775818D01*
X2765818Y1537439D01*
X2755818Y1547439D01*
X2745818D01*
Y1537439D01*
X2755818Y1527439D01*
X2745818Y1517439D01*
Y1507439D01*
X2528044Y1523343D02*
X2538044D01*
X2548044Y1533343D01*
X2558044Y1523343D01*
X2568044D01*
Y1533343D01*
X2558044Y1543343D01*
X2568044Y1553343D01*
Y1563343D01*
X2558044D01*
X2548044Y1553343D01*
X2538044Y1563343D01*
X2528044D01*
Y1553343D01*
X2538044Y1543343D01*
X2528044Y1533343D01*
Y1523343D01*
X2489013Y1564741D02*
X2499013D01*
X2509013Y1574741D01*
X2519013Y1564741D01*
X2529013D01*
Y1574741D01*
X2519013Y1584741D01*
X2529013Y1594741D01*
Y1604741D01*
X2519013D01*
X2509013Y1594741D01*
X2499013Y1604741D01*
X2489013D01*
Y1594741D01*
X2499013Y1584741D01*
X2489013Y1574741D01*
Y1564741D01*
X2449419Y1566647D02*
X2459419D01*
X2469419Y1576647D01*
X2479419Y1566647D01*
X2489419D01*
Y1576647D01*
X2479419Y1586647D01*
X2489419Y1596647D01*
Y1606647D01*
X2479419D01*
X2469419Y1596647D01*
X2459419Y1606647D01*
X2449419D01*
Y1596647D01*
X2459419Y1586647D01*
X2449419Y1576647D01*
Y1566647D01*
X2409734D02*
X2419734D01*
X2429734Y1576647D01*
X2439734Y1566647D01*
X2449734D01*
Y1576647D01*
X2439734Y1586647D01*
X2449734Y1596647D01*
Y1606647D01*
X2439734D01*
X2429734Y1596647D01*
X2419734Y1606647D01*
X2409734D01*
Y1596647D01*
X2419734Y1586647D01*
X2409734Y1576647D01*
Y1566647D01*
X2389892D02*
X2399892D01*
X2409892Y1576647D01*
X2419892Y1566647D01*
X2429892D01*
Y1576647D01*
X2419892Y1586647D01*
X2429892Y1596647D01*
Y1606647D01*
X2419892D01*
X2409892Y1596647D01*
X2399892Y1606647D01*
X2389892D01*
Y1596647D01*
X2399892Y1586647D01*
X2389892Y1576647D01*
Y1566647D01*
X2350207D02*
X2360207D01*
X2370207Y1576647D01*
X2380207Y1566647D01*
X2390207D01*
Y1576647D01*
X2380207Y1586647D01*
X2390207Y1596647D01*
Y1606647D01*
X2380207D01*
X2370207Y1596647D01*
X2360207Y1606647D01*
X2350207D01*
Y1596647D01*
X2360207Y1586647D01*
X2350207Y1576647D01*
Y1566647D01*
X2310522D02*
X2320522D01*
X2330522Y1576647D01*
X2340522Y1566647D01*
X2350522D01*
Y1576647D01*
X2340522Y1586647D01*
X2350522Y1596647D01*
Y1606647D01*
X2340522D01*
X2330522Y1596647D01*
X2320522Y1606647D01*
X2310522D01*
Y1596647D01*
X2320522Y1586647D01*
X2310522Y1576647D01*
Y1566647D01*
X2290679D02*
X2300679D01*
X2310679Y1576647D01*
X2320679Y1566647D01*
X2330679D01*
Y1576647D01*
X2320679Y1586647D01*
X2330679Y1596647D01*
Y1606647D01*
X2320679D01*
X2310679Y1596647D01*
X2300679Y1606647D01*
X2290679D01*
Y1596647D01*
X2300679Y1586647D01*
X2290679Y1576647D01*
Y1566647D01*
X2270837D02*
X2280837D01*
X2290837Y1576647D01*
X2300837Y1566647D01*
X2310837D01*
Y1576647D01*
X2300837Y1586647D01*
X2310837Y1596647D01*
Y1606647D01*
X2300837D01*
X2290837Y1596647D01*
X2280837Y1606647D01*
X2270837D01*
Y1596647D01*
X2280837Y1586647D01*
X2270837Y1576647D01*
Y1566647D01*
X2250994D02*
X2260994D01*
X2270994Y1576647D01*
X2280994Y1566647D01*
X2290994D01*
Y1576647D01*
X2280994Y1586647D01*
X2290994Y1596647D01*
Y1606647D01*
X2280994D01*
X2270994Y1596647D01*
X2260994Y1606647D01*
X2250994D01*
Y1596647D01*
X2260994Y1586647D01*
X2250994Y1576647D01*
Y1566647D01*
X2231152D02*
X2241152D01*
X2251152Y1576647D01*
X2261152Y1566647D01*
X2271152D01*
Y1576647D01*
X2261152Y1586647D01*
X2271152Y1596647D01*
Y1606647D01*
X2261152D01*
X2251152Y1596647D01*
X2241152Y1606647D01*
X2231152D01*
Y1596647D01*
X2241152Y1586647D01*
X2231152Y1576647D01*
Y1566647D01*
X2196012Y1582496D02*
X2206012D01*
X2216012Y1592496D01*
X2226012Y1582496D01*
X2236012D01*
Y1592496D01*
X2226012Y1602496D01*
X2236012Y1612496D01*
Y1622496D01*
X2226012D01*
X2216012Y1612496D01*
X2206012Y1622496D01*
X2196012D01*
Y1612496D01*
X2206012Y1602496D01*
X2196012Y1592496D01*
Y1582496D01*
X2176838Y1577388D02*
X2186838D01*
X2196838Y1587388D01*
X2206838Y1577388D01*
X2216838D01*
Y1587388D01*
X2206838Y1597388D01*
X2216838Y1607388D01*
Y1617388D01*
X2206838D01*
X2196838Y1607388D01*
X2186838Y1617388D01*
X2176838D01*
Y1607388D01*
X2186838Y1597388D01*
X2176838Y1587388D01*
Y1577388D01*
X2160154Y1566647D02*
X2170154D01*
X2180154Y1576647D01*
X2190154Y1566647D01*
X2200154D01*
Y1576647D01*
X2190154Y1586647D01*
X2200154Y1596647D01*
Y1606647D01*
X2190154D01*
X2180154Y1596647D01*
X2170154Y1606647D01*
X2160154D01*
Y1596647D01*
X2170154Y1586647D01*
X2160154Y1576647D01*
Y1566647D01*
X2140311D02*
X2150311D01*
X2160311Y1576647D01*
X2170311Y1566647D01*
X2180311D01*
Y1576647D01*
X2170311Y1586647D01*
X2180311Y1596647D01*
Y1606647D01*
X2170311D01*
X2160311Y1596647D01*
X2150311Y1606647D01*
X2140311D01*
Y1596647D01*
X2150311Y1586647D01*
X2140311Y1576647D01*
Y1566647D01*
X2120469D02*
X2130469D01*
X2140469Y1576647D01*
X2150469Y1566647D01*
X2160469D01*
Y1576647D01*
X2150469Y1586647D01*
X2160469Y1596647D01*
Y1606647D01*
X2150469D01*
X2140469Y1596647D01*
X2130469Y1606647D01*
X2120469D01*
Y1596647D01*
X2130469Y1586647D01*
X2120469Y1576647D01*
Y1566647D01*
X2100626D02*
X2110626D01*
X2120626Y1576647D01*
X2130626Y1566647D01*
X2140626D01*
Y1576647D01*
X2130626Y1586647D01*
X2140626Y1596647D01*
Y1606647D01*
X2130626D01*
X2120626Y1596647D01*
X2110626Y1606647D01*
X2100626D01*
Y1596647D01*
X2110626Y1586647D01*
X2100626Y1576647D01*
Y1566647D01*
X2081129Y1570331D02*
X2091129D01*
X2101129Y1580331D01*
X2111129Y1570331D01*
X2121129D01*
Y1580331D01*
X2111129Y1590331D01*
X2121129Y1600331D01*
Y1610331D01*
X2111129D01*
X2101129Y1600331D01*
X2091129Y1610331D01*
X2081129D01*
Y1600331D01*
X2091129Y1590331D01*
X2081129Y1580331D01*
Y1570331D01*
X2075864Y1589462D02*
X2085864D01*
X2095864Y1599462D01*
X2105864Y1589462D01*
X2115864D01*
Y1599462D01*
X2105864Y1609462D01*
X2115864Y1619462D01*
Y1629462D01*
X2105864D01*
X2095864Y1619462D01*
X2085864Y1629462D01*
X2075864D01*
Y1619462D01*
X2085864Y1609462D01*
X2075864Y1599462D01*
Y1589462D01*
X2068801Y1608005D02*
X2078801D01*
X2088801Y1618005D01*
X2098801Y1608005D01*
X2108801D01*
Y1618005D01*
X2098801Y1628005D01*
X2108801Y1638005D01*
Y1648005D01*
X2098801D01*
X2088801Y1638005D01*
X2078801Y1648005D01*
X2068801D01*
Y1638005D01*
X2078801Y1628005D01*
X2068801Y1618005D01*
Y1608005D01*
X2055191Y1622444D02*
X2065191D01*
X2075191Y1632444D01*
X2085191Y1622444D01*
X2095191D01*
Y1632444D01*
X2085191Y1642444D01*
X2095191Y1652444D01*
Y1662444D01*
X2085191D01*
X2075191Y1652444D01*
X2065191Y1662444D01*
X2055191D01*
Y1652444D01*
X2065191Y1642444D01*
X2055191Y1632444D01*
Y1622444D01*
X2037429Y1631289D02*
X2047429D01*
X2057429Y1641289D01*
X2067429Y1631289D01*
X2077429D01*
Y1641289D01*
X2067429Y1651289D01*
X2077429Y1661289D01*
Y1671289D01*
X2067429D01*
X2057429Y1661289D01*
X2047429Y1671289D01*
X2037429D01*
Y1661289D01*
X2047429Y1651289D01*
X2037429Y1641289D01*
Y1631289D01*
X2017682Y1633241D02*
X2027682D01*
X2037682Y1643241D01*
X2047682Y1633241D01*
X2057682D01*
Y1643241D01*
X2047682Y1653241D01*
X2057682Y1663241D01*
Y1673241D01*
X2047682D01*
X2037682Y1663241D01*
X2027682Y1673241D01*
X2017682D01*
Y1663241D01*
X2027682Y1653241D01*
X2017682Y1643241D01*
Y1633241D01*
X1997840D02*
X2007840D01*
X2017840Y1643241D01*
X2027840Y1633241D01*
X2037840D01*
Y1643241D01*
X2027840Y1653241D01*
X2037840Y1663241D01*
Y1673241D01*
X2027840D01*
X2017840Y1663241D01*
X2007840Y1673241D01*
X1997840D01*
Y1663241D01*
X2007840Y1653241D01*
X1997840Y1643241D01*
Y1633241D01*
X1977997D02*
X1987997D01*
X1997997Y1643241D01*
X2007997Y1633241D01*
X2017997D01*
Y1643241D01*
X2007997Y1653241D01*
X2017997Y1663241D01*
Y1673241D01*
X2007997D01*
X1997997Y1663241D01*
X1987997Y1673241D01*
X1977997D01*
Y1663241D01*
X1987997Y1653241D01*
X1977997Y1643241D01*
Y1633241D01*
X1958155D02*
X1968155D01*
X1978155Y1643241D01*
X1988155Y1633241D01*
X1998155D01*
Y1643241D01*
X1988155Y1653241D01*
X1998155Y1663241D01*
Y1673241D01*
X1988155D01*
X1978155Y1663241D01*
X1968155Y1673241D01*
X1958155D01*
Y1663241D01*
X1968155Y1653241D01*
X1958155Y1643241D01*
Y1633241D01*
X1938312D02*
X1948312D01*
X1958312Y1643241D01*
X1968312Y1633241D01*
X1978312D01*
Y1643241D01*
X1968312Y1653241D01*
X1978312Y1663241D01*
Y1673241D01*
X1968312D01*
X1958312Y1663241D01*
X1948312Y1673241D01*
X1938312D01*
Y1663241D01*
X1948312Y1653241D01*
X1938312Y1643241D01*
Y1633241D01*
X1918531Y1631688D02*
X1928531D01*
X1938531Y1641688D01*
X1948531Y1631688D01*
X1958531D01*
Y1641688D01*
X1948531Y1651688D01*
X1958531Y1661688D01*
Y1671688D01*
X1948531D01*
X1938531Y1661688D01*
X1928531Y1671688D01*
X1918531D01*
Y1661688D01*
X1928531Y1651688D01*
X1918531Y1641688D01*
Y1631688D01*
X1875892Y1571906D02*
X1885892D01*
X1895892Y1581906D01*
X1905892Y1571906D01*
X1915892D01*
Y1581906D01*
X1905892Y1591906D01*
X1915892Y1601906D01*
Y1611906D01*
X1905892D01*
X1895892Y1601906D01*
X1885892Y1611906D01*
X1875892D01*
Y1601906D01*
X1885892Y1591906D01*
X1875892Y1581906D01*
Y1571906D01*
Y1552063D02*
X1885892D01*
X1895892Y1562063D01*
X1905892Y1552063D01*
X1915892D01*
Y1562063D01*
X1905892Y1572063D01*
X1915892Y1582063D01*
Y1592063D01*
X1905892D01*
X1895892Y1582063D01*
X1885892Y1592063D01*
X1875892D01*
Y1582063D01*
X1885892Y1572063D01*
X1875892Y1562063D01*
Y1552063D01*
Y1532220D02*
X1885892D01*
X1895892Y1542220D01*
X1905892Y1532220D01*
X1915892D01*
Y1542220D01*
X1905892Y1552220D01*
X1915892Y1562220D01*
Y1572220D01*
X1905892D01*
X1895892Y1562220D01*
X1885892Y1572220D01*
X1875892D01*
Y1562220D01*
X1885892Y1552220D01*
X1875892Y1542220D01*
Y1532220D01*
Y1512378D02*
X1885892D01*
X1895892Y1522378D01*
X1905892Y1512378D01*
X1915892D01*
Y1522378D01*
X1905892Y1532378D01*
X1915892Y1542378D01*
Y1552378D01*
X1905892D01*
X1895892Y1542378D01*
X1885892Y1552378D01*
X1875892D01*
Y1542378D01*
X1885892Y1532378D01*
X1875892Y1522378D01*
Y1512378D01*
X1875567Y1492538D02*
X1885567D01*
X1895567Y1502538D01*
X1905567Y1492538D01*
X1915567D01*
Y1502538D01*
X1905567Y1512538D01*
X1915567Y1522538D01*
Y1532538D01*
X1905567D01*
X1895567Y1522538D01*
X1885567Y1532538D01*
X1875567D01*
Y1522538D01*
X1885567Y1512538D01*
X1875567Y1502538D01*
Y1492538D01*
X1860687Y1479412D02*
X1870687D01*
X1880687Y1489412D01*
X1890687Y1479412D01*
X1900687D01*
Y1489412D01*
X1890687Y1499412D01*
X1900687Y1509412D01*
Y1519412D01*
X1890687D01*
X1880687Y1509412D01*
X1870687Y1519412D01*
X1860687D01*
Y1509412D01*
X1870687Y1499412D01*
X1860687Y1489412D01*
Y1479412D01*
X1840844Y1479353D02*
X1850844D01*
X1860844Y1489353D01*
X1870844Y1479353D01*
X1880844D01*
Y1489353D01*
X1870844Y1499353D01*
X1880844Y1509353D01*
Y1519353D01*
X1870844D01*
X1860844Y1509353D01*
X1850844Y1519353D01*
X1840844D01*
Y1509353D01*
X1850844Y1499353D01*
X1840844Y1489353D01*
Y1479353D01*
X1821002D02*
X1831002D01*
X1841002Y1489353D01*
X1851002Y1479353D01*
X1861002D01*
Y1489353D01*
X1851002Y1499353D01*
X1861002Y1509353D01*
Y1519353D01*
X1851002D01*
X1841002Y1509353D01*
X1831002Y1519353D01*
X1821002D01*
Y1509353D01*
X1831002Y1499353D01*
X1821002Y1489353D01*
Y1479353D01*
X1801159D02*
X1811159D01*
X1821159Y1489353D01*
X1831159Y1479353D01*
X1841159D01*
Y1489353D01*
X1831159Y1499353D01*
X1841159Y1509353D01*
Y1519353D01*
X1831159D01*
X1821159Y1509353D01*
X1811159Y1519353D01*
X1801159D01*
Y1509353D01*
X1811159Y1499353D01*
X1801159Y1489353D01*
Y1479353D01*
X1781317D02*
X1791317D01*
X1801317Y1489353D01*
X1811317Y1479353D01*
X1821317D01*
Y1489353D01*
X1811317Y1499353D01*
X1821317Y1509353D01*
Y1519353D01*
X1811317D01*
X1801317Y1509353D01*
X1791317Y1519353D01*
X1781317D01*
Y1509353D01*
X1791317Y1499353D01*
X1781317Y1489353D01*
Y1479353D01*
X1761474D02*
X1771474D01*
X1781474Y1489353D01*
X1791474Y1479353D01*
X1801474D01*
Y1489353D01*
X1791474Y1499353D01*
X1801474Y1509353D01*
Y1519353D01*
X1791474D01*
X1781474Y1509353D01*
X1771474Y1519353D01*
X1761474D01*
Y1509353D01*
X1771474Y1499353D01*
X1761474Y1489353D01*
Y1479353D01*
X1741632D02*
X1751632D01*
X1761632Y1489353D01*
X1771632Y1479353D01*
X1781632D01*
Y1489353D01*
X1771632Y1499353D01*
X1781632Y1509353D01*
Y1519353D01*
X1771632D01*
X1761632Y1509353D01*
X1751632Y1519353D01*
X1741632D01*
Y1509353D01*
X1751632Y1499353D01*
X1741632Y1489353D01*
Y1479353D01*
X1721789D02*
X1731789D01*
X1741789Y1489353D01*
X1751789Y1479353D01*
X1761789D01*
Y1489353D01*
X1751789Y1499353D01*
X1761789Y1509353D01*
Y1519353D01*
X1751789D01*
X1741789Y1509353D01*
X1731789Y1519353D01*
X1721789D01*
Y1509353D01*
X1731789Y1499353D01*
X1721789Y1489353D01*
Y1479353D01*
X1701947D02*
X1711947D01*
X1721947Y1489353D01*
X1731947Y1479353D01*
X1741947D01*
Y1489353D01*
X1731947Y1499353D01*
X1741947Y1509353D01*
Y1519353D01*
X1731947D01*
X1721947Y1509353D01*
X1711947Y1519353D01*
X1701947D01*
Y1509353D01*
X1711947Y1499353D01*
X1701947Y1489353D01*
Y1479353D01*
X1682104D02*
X1692104D01*
X1702104Y1489353D01*
X1712104Y1479353D01*
X1722104D01*
Y1489353D01*
X1712104Y1499353D01*
X1722104Y1509353D01*
Y1519353D01*
X1712104D01*
X1702104Y1509353D01*
X1692104Y1519353D01*
X1682104D01*
Y1509353D01*
X1692104Y1499353D01*
X1682104Y1489353D01*
Y1479353D01*
X1662262D02*
X1672262D01*
X1682262Y1489353D01*
X1692262Y1479353D01*
X1702262D01*
Y1489353D01*
X1692262Y1499353D01*
X1702262Y1509353D01*
Y1519353D01*
X1692262D01*
X1682262Y1509353D01*
X1672262Y1519353D01*
X1662262D01*
Y1509353D01*
X1672262Y1499353D01*
X1662262Y1489353D01*
Y1479353D01*
X1642419D02*
X1652419D01*
X1662419Y1489353D01*
X1672419Y1479353D01*
X1682419D01*
Y1489353D01*
X1672419Y1499353D01*
X1682419Y1509353D01*
Y1519353D01*
X1672419D01*
X1662419Y1509353D01*
X1652419Y1519353D01*
X1642419D01*
Y1509353D01*
X1652419Y1499353D01*
X1642419Y1489353D01*
Y1479353D01*
X1602829Y1477418D02*
X1612829D01*
X1622829Y1487418D01*
X1632829Y1477418D01*
X1642829D01*
Y1487418D01*
X1632829Y1497418D01*
X1642829Y1507418D01*
Y1517418D01*
X1632829D01*
X1622829Y1507418D01*
X1612829Y1517418D01*
X1602829D01*
Y1507418D01*
X1612829Y1497418D01*
X1602829Y1487418D01*
Y1477418D01*
X1584231Y1470502D02*
X1594231D01*
X1604231Y1480502D01*
X1614231Y1470502D01*
X1624231D01*
Y1480502D01*
X1614231Y1490502D01*
X1624231Y1500502D01*
Y1510502D01*
X1614231D01*
X1604231Y1500502D01*
X1594231Y1510502D01*
X1584231D01*
Y1500502D01*
X1594231Y1490502D01*
X1584231Y1480502D01*
Y1470502D01*
X1567778Y1459411D02*
X1577778D01*
X1587778Y1469411D01*
X1597778Y1459411D01*
X1607778D01*
Y1469411D01*
X1597778Y1479411D01*
X1607778Y1489411D01*
Y1499411D01*
X1597778D01*
X1587778Y1489411D01*
X1577778Y1499411D01*
X1567778D01*
Y1489411D01*
X1577778Y1479411D01*
X1567778Y1469411D01*
Y1459411D01*
X1554392Y1444763D02*
X1564392D01*
X1574392Y1454763D01*
X1584392Y1444763D01*
X1594392D01*
Y1454763D01*
X1584392Y1464763D01*
X1594392Y1474763D01*
Y1484763D01*
X1584392D01*
X1574392Y1474763D01*
X1564392Y1484763D01*
X1554392D01*
Y1474763D01*
X1564392Y1464763D01*
X1554392Y1454763D01*
Y1444763D01*
X1545287Y1427133D02*
X1555287D01*
X1565287Y1437133D01*
X1575287Y1427133D01*
X1585287D01*
Y1437133D01*
X1575287Y1447133D01*
X1585287Y1457133D01*
Y1467133D01*
X1575287D01*
X1565287Y1457133D01*
X1555287Y1467133D01*
X1545287D01*
Y1457133D01*
X1555287Y1447133D01*
X1545287Y1437133D01*
Y1427133D01*
X1540830Y1407797D02*
X1550830D01*
X1560830Y1417797D01*
X1570830Y1407797D01*
X1580830D01*
Y1417797D01*
X1570830Y1427797D01*
X1580830Y1437797D01*
Y1447797D01*
X1570830D01*
X1560830Y1437797D01*
X1550830Y1447797D01*
X1540830D01*
Y1437797D01*
X1550830Y1427797D01*
X1540830Y1417797D01*
Y1407797D01*
X1533735Y1389266D02*
X1543735D01*
X1553735Y1399266D01*
X1563735Y1389266D01*
X1573735D01*
Y1399266D01*
X1563735Y1409266D01*
X1573735Y1419266D01*
Y1429266D01*
X1563735D01*
X1553735Y1419266D01*
X1543735Y1429266D01*
X1533735D01*
Y1419266D01*
X1543735Y1409266D01*
X1533735Y1399266D01*
Y1389266D01*
X1513925Y1388137D02*
X1523925D01*
X1533925Y1398137D01*
X1543925Y1388137D01*
X1553925D01*
Y1398137D01*
X1543925Y1408137D01*
X1553925Y1418137D01*
Y1428137D01*
X1543925D01*
X1533925Y1418137D01*
X1523925Y1428137D01*
X1513925D01*
Y1418137D01*
X1523925Y1408137D01*
X1513925Y1398137D01*
Y1388137D01*
X1494131Y1386752D02*
X1504131D01*
X1514131Y1396752D01*
X1524131Y1386752D01*
X1534131D01*
Y1396752D01*
X1524131Y1406752D01*
X1534131Y1416752D01*
Y1426752D01*
X1524131D01*
X1514131Y1416752D01*
X1504131Y1426752D01*
X1494131D01*
Y1416752D01*
X1504131Y1406752D01*
X1494131Y1396752D01*
Y1386752D01*
X1475392Y1380225D02*
X1485392D01*
X1495392Y1390225D01*
X1505392Y1380225D01*
X1515392D01*
Y1390225D01*
X1505392Y1400225D01*
X1515392Y1410225D01*
Y1420225D01*
X1505392D01*
X1495392Y1410225D01*
X1485392Y1420225D01*
X1475392D01*
Y1410225D01*
X1485392Y1400225D01*
X1475392Y1390225D01*
Y1380225D01*
X1459231Y1368713D02*
X1469231D01*
X1479231Y1378713D01*
X1489231Y1368713D01*
X1499231D01*
Y1378713D01*
X1489231Y1388713D01*
X1499231Y1398713D01*
Y1408713D01*
X1489231D01*
X1479231Y1398713D01*
X1469231Y1408713D01*
X1459231D01*
Y1398713D01*
X1469231Y1388713D01*
X1459231Y1378713D01*
Y1368713D01*
X1447066Y1353037D02*
X1457066D01*
X1467066Y1363037D01*
X1477066Y1353037D01*
X1487066D01*
Y1363037D01*
X1477066Y1373037D01*
X1487066Y1383037D01*
Y1393037D01*
X1477066D01*
X1467066Y1383037D01*
X1457066Y1393037D01*
X1447066D01*
Y1383037D01*
X1457066Y1373037D01*
X1447066Y1363037D01*
Y1353037D01*
X1439553Y1334671D02*
X1449553D01*
X1459553Y1344671D01*
X1469553Y1334671D01*
X1479553D01*
Y1344671D01*
X1469553Y1354671D01*
X1479553Y1364671D01*
Y1374671D01*
X1469553D01*
X1459553Y1364671D01*
X1449553Y1374671D01*
X1439553D01*
Y1364671D01*
X1449553Y1354671D01*
X1439553Y1344671D01*
Y1334671D01*
X1437697Y1314916D02*
X1447697D01*
X1457697Y1324916D01*
X1467697Y1314916D01*
X1477697D01*
Y1324916D01*
X1467697Y1334916D01*
X1477697Y1344916D01*
Y1354916D01*
X1467697D01*
X1457697Y1344916D01*
X1447697Y1354916D01*
X1437697D01*
Y1344916D01*
X1447697Y1334916D01*
X1437697Y1324916D01*
Y1314916D01*
Y1295073D02*
X1447697D01*
X1457697Y1305073D01*
X1467697Y1295073D01*
X1477697D01*
Y1305073D01*
X1467697Y1315073D01*
X1477697Y1325073D01*
Y1335073D01*
X1467697D01*
X1457697Y1325073D01*
X1447697Y1335073D01*
X1437697D01*
Y1325073D01*
X1447697Y1315073D01*
X1437697Y1305073D01*
Y1295073D01*
Y1235546D02*
X1447697D01*
X1457697Y1245546D01*
X1467697Y1235546D01*
X1477697D01*
Y1245546D01*
X1467697Y1255546D01*
X1477697Y1265546D01*
Y1275546D01*
X1467697D01*
X1457697Y1265546D01*
X1447697Y1275546D01*
X1437697D01*
Y1265546D01*
X1447697Y1255546D01*
X1437697Y1245546D01*
Y1235546D01*
X1482920Y1252203D02*
X1492920D01*
X1502920Y1262203D01*
X1512920Y1252203D01*
X1522920D01*
Y1262203D01*
X1512920Y1272203D01*
X1522920Y1282203D01*
Y1292203D01*
X1512920D01*
X1502920Y1282203D01*
X1492920Y1292203D01*
X1482920D01*
Y1282203D01*
X1492920Y1272203D01*
X1482920Y1262203D01*
Y1252203D01*
Y1272046D02*
X1492920D01*
X1502920Y1282046D01*
X1512920Y1272046D01*
X1522920D01*
Y1282046D01*
X1512920Y1292046D01*
X1522920Y1302046D01*
Y1312046D01*
X1512920D01*
X1502920Y1302046D01*
X1492920Y1312046D01*
X1482920D01*
Y1302046D01*
X1492920Y1292046D01*
X1482920Y1282046D01*
Y1272046D01*
Y1291888D02*
X1492920D01*
X1502920Y1301888D01*
X1512920Y1291888D01*
X1522920D01*
Y1301888D01*
X1512920Y1311888D01*
X1522920Y1321888D01*
Y1331888D01*
X1512920D01*
X1502920Y1321888D01*
X1492920Y1331888D01*
X1482920D01*
Y1321888D01*
X1492920Y1311888D01*
X1482920Y1301888D01*
Y1291888D01*
Y1311731D02*
X1492920D01*
X1502920Y1321731D01*
X1512920Y1311731D01*
X1522920D01*
Y1321731D01*
X1512920Y1331731D01*
X1522920Y1341731D01*
Y1351731D01*
X1512920D01*
X1502920Y1341731D01*
X1492920Y1351731D01*
X1482920D01*
Y1341731D01*
X1492920Y1331731D01*
X1482920Y1321731D01*
Y1311731D01*
X1487080Y1331132D02*
X1497080D01*
X1507080Y1341132D01*
X1517080Y1331132D01*
X1527080D01*
Y1341132D01*
X1517080Y1351132D01*
X1527080Y1361132D01*
Y1371132D01*
X1517080D01*
X1507080Y1361132D01*
X1497080Y1371132D01*
X1487080D01*
Y1361132D01*
X1497080Y1351132D01*
X1487080Y1341132D01*
Y1331132D01*
X1503560Y1342184D02*
X1513560D01*
X1523560Y1352184D01*
X1533560Y1342184D01*
X1543560D01*
Y1352184D01*
X1533560Y1362184D01*
X1543560Y1372184D01*
Y1382184D01*
X1533560D01*
X1523560Y1372184D01*
X1513560Y1382184D01*
X1503560D01*
Y1372184D01*
X1513560Y1362184D01*
X1503560Y1352184D01*
Y1342184D01*
X1523389Y1342914D02*
X1533389D01*
X1543389Y1352914D01*
X1553389Y1342914D01*
X1563389D01*
Y1352914D01*
X1553389Y1362914D01*
X1563389Y1372914D01*
Y1382914D01*
X1553389D01*
X1543389Y1372914D01*
X1533389Y1382914D01*
X1523389D01*
Y1372914D01*
X1533389Y1362914D01*
X1523389Y1352914D01*
Y1342914D01*
X1543160Y1344598D02*
X1553160D01*
X1563160Y1354598D01*
X1573160Y1344598D01*
X1583160D01*
Y1354598D01*
X1573160Y1364598D01*
X1583160Y1374598D01*
Y1384598D01*
X1573160D01*
X1563160Y1374598D01*
X1553160Y1384598D01*
X1543160D01*
Y1374598D01*
X1553160Y1364598D01*
X1543160Y1354598D01*
Y1344598D01*
X1561180Y1352904D02*
X1571180D01*
X1581180Y1362904D01*
X1591180Y1352904D01*
X1601180D01*
Y1362904D01*
X1591180Y1372904D01*
X1601180Y1382904D01*
Y1392904D01*
X1591180D01*
X1581180Y1382904D01*
X1571180Y1392904D01*
X1561180D01*
Y1382904D01*
X1571180Y1372904D01*
X1561180Y1362904D01*
Y1352904D01*
X1575239Y1366906D02*
X1585239D01*
X1595239Y1376906D01*
X1605239Y1366906D01*
X1615239D01*
Y1376906D01*
X1605239Y1386906D01*
X1615239Y1396906D01*
Y1406906D01*
X1605239D01*
X1595239Y1396906D01*
X1585239Y1406906D01*
X1575239D01*
Y1396906D01*
X1585239Y1386906D01*
X1575239Y1376906D01*
Y1366906D01*
X1583636Y1384885D02*
X1593636D01*
X1603636Y1394885D01*
X1613636Y1384885D01*
X1623636D01*
Y1394885D01*
X1613636Y1404885D01*
X1623636Y1414885D01*
Y1424885D01*
X1613636D01*
X1603636Y1414885D01*
X1593636Y1424885D01*
X1583636D01*
Y1414885D01*
X1593636Y1404885D01*
X1583636Y1394885D01*
Y1384885D01*
X1586204Y1404560D02*
X1596204D01*
X1606204Y1414560D01*
X1616204Y1404560D01*
X1626204D01*
Y1414560D01*
X1616204Y1424560D01*
X1626204Y1434560D01*
Y1444560D01*
X1616204D01*
X1606204Y1434560D01*
X1596204Y1444560D01*
X1586204D01*
Y1434560D01*
X1596204Y1424560D01*
X1586204Y1414560D01*
Y1404560D01*
X1594746Y1422470D02*
X1604746D01*
X1614746Y1432470D01*
X1624746Y1422470D01*
X1634746D01*
Y1432470D01*
X1624746Y1442470D01*
X1634746Y1452470D01*
Y1462470D01*
X1624746D01*
X1614746Y1452470D01*
X1604746Y1462470D01*
X1594746D01*
Y1452470D01*
X1604746Y1442470D01*
X1594746Y1432470D01*
Y1422470D01*
X1611626Y1432900D02*
X1621626D01*
X1631626Y1442900D01*
X1641626Y1432900D01*
X1651626D01*
Y1442900D01*
X1641626Y1452900D01*
X1651626Y1462900D01*
Y1472900D01*
X1641626D01*
X1631626Y1462900D01*
X1621626Y1472900D01*
X1611626D01*
Y1462900D01*
X1621626Y1452900D01*
X1611626Y1442900D01*
Y1432900D01*
X1631430Y1434130D02*
X1641430D01*
X1651430Y1444130D01*
X1661430Y1434130D01*
X1671430D01*
Y1444130D01*
X1661430Y1454130D01*
X1671430Y1464130D01*
Y1474130D01*
X1661430D01*
X1651430Y1464130D01*
X1641430Y1474130D01*
X1631430D01*
Y1464130D01*
X1641430Y1454130D01*
X1631430Y1444130D01*
Y1434130D01*
X1651273D02*
X1661273D01*
X1671273Y1444130D01*
X1681273Y1434130D01*
X1691273D01*
Y1444130D01*
X1681273Y1454130D01*
X1691273Y1464130D01*
Y1474130D01*
X1681273D01*
X1671273Y1464130D01*
X1661273Y1474130D01*
X1651273D01*
Y1464130D01*
X1661273Y1454130D01*
X1651273Y1444130D01*
Y1434130D01*
X1671115D02*
X1681115D01*
X1691115Y1444130D01*
X1701115Y1434130D01*
X1711115D01*
Y1444130D01*
X1701115Y1454130D01*
X1711115Y1464130D01*
Y1474130D01*
X1701115D01*
X1691115Y1464130D01*
X1681115Y1474130D01*
X1671115D01*
Y1464130D01*
X1681115Y1454130D01*
X1671115Y1444130D01*
Y1434130D01*
X1690958D02*
X1700958D01*
X1710958Y1444130D01*
X1720958Y1434130D01*
X1730958D01*
Y1444130D01*
X1720958Y1454130D01*
X1730958Y1464130D01*
Y1474130D01*
X1720958D01*
X1710958Y1464130D01*
X1700958Y1474130D01*
X1690958D01*
Y1464130D01*
X1700958Y1454130D01*
X1690958Y1444130D01*
Y1434130D01*
X1710800D02*
X1720800D01*
X1730800Y1444130D01*
X1740800Y1434130D01*
X1750800D01*
Y1444130D01*
X1740800Y1454130D01*
X1750800Y1464130D01*
Y1474130D01*
X1740800D01*
X1730800Y1464130D01*
X1720800Y1474130D01*
X1710800D01*
Y1464130D01*
X1720800Y1454130D01*
X1710800Y1444130D01*
Y1434130D01*
X1730643D02*
X1740643D01*
X1750643Y1444130D01*
X1760643Y1434130D01*
X1770643D01*
Y1444130D01*
X1760643Y1454130D01*
X1770643Y1464130D01*
Y1474130D01*
X1760643D01*
X1750643Y1464130D01*
X1740643Y1474130D01*
X1730643D01*
Y1464130D01*
X1740643Y1454130D01*
X1730643Y1444130D01*
Y1434130D01*
X1750485D02*
X1760485D01*
X1770485Y1444130D01*
X1780485Y1434130D01*
X1790485D01*
Y1444130D01*
X1780485Y1454130D01*
X1790485Y1464130D01*
Y1474130D01*
X1780485D01*
X1770485Y1464130D01*
X1760485Y1474130D01*
X1750485D01*
Y1464130D01*
X1760485Y1454130D01*
X1750485Y1444130D01*
Y1434130D01*
X1770328D02*
X1780328D01*
X1790328Y1444130D01*
X1800328Y1434130D01*
X1810328D01*
Y1444130D01*
X1800328Y1454130D01*
X1810328Y1464130D01*
Y1474130D01*
X1800328D01*
X1790328Y1464130D01*
X1780328Y1474130D01*
X1770328D01*
Y1464130D01*
X1780328Y1454130D01*
X1770328Y1444130D01*
Y1434130D01*
X1790170D02*
X1800170D01*
X1810170Y1444130D01*
X1820170Y1434130D01*
X1830170D01*
Y1444130D01*
X1820170Y1454130D01*
X1830170Y1464130D01*
Y1474130D01*
X1820170D01*
X1810170Y1464130D01*
X1800170Y1474130D01*
X1790170D01*
Y1464130D01*
X1800170Y1454130D01*
X1790170Y1444130D01*
Y1434130D01*
X1810013D02*
X1820013D01*
X1830013Y1444130D01*
X1840013Y1434130D01*
X1850013D01*
Y1444130D01*
X1840013Y1454130D01*
X1850013Y1464130D01*
Y1474130D01*
X1840013D01*
X1830013Y1464130D01*
X1820013Y1474130D01*
X1810013D01*
Y1464130D01*
X1820013Y1454130D01*
X1810013Y1444130D01*
Y1434130D01*
X1829855D02*
X1839855D01*
X1849855Y1444130D01*
X1859855Y1434130D01*
X1869855D01*
Y1444130D01*
X1859855Y1454130D01*
X1869855Y1464130D01*
Y1474130D01*
X1859855D01*
X1849855Y1464130D01*
X1839855Y1474130D01*
X1829855D01*
Y1464130D01*
X1839855Y1454130D01*
X1829855Y1444130D01*
Y1434130D01*
X1849698D02*
X1859698D01*
X1869698Y1444130D01*
X1879698Y1434130D01*
X1889698D01*
Y1444130D01*
X1879698Y1454130D01*
X1889698Y1464130D01*
Y1474130D01*
X1879698D01*
X1869698Y1464130D01*
X1859698Y1474130D01*
X1849698D01*
Y1464130D01*
X1859698Y1454130D01*
X1849698Y1444130D01*
Y1434130D01*
X1869530Y1434766D02*
X1879530D01*
X1889530Y1444766D01*
X1899530Y1434766D01*
X1909530D01*
Y1444766D01*
X1899530Y1454766D01*
X1909530Y1464766D01*
Y1474766D01*
X1899530D01*
X1889530Y1464766D01*
X1879530Y1474766D01*
X1869530D01*
Y1464766D01*
X1879530Y1454766D01*
X1869530Y1444766D01*
Y1434766D01*
X1915615Y1468611D02*
X1925615D01*
X1935615Y1478611D01*
X1945615Y1468611D01*
X1955615D01*
Y1478611D01*
X1945615Y1488611D01*
X1955615Y1498611D01*
Y1508611D01*
X1945615D01*
X1935615Y1498611D01*
X1925615Y1508611D01*
X1915615D01*
Y1498611D01*
X1925615Y1488611D01*
X1915615Y1478611D01*
Y1468611D01*
X1920751Y1487777D02*
X1930751D01*
X1940751Y1497777D01*
X1950751Y1487777D01*
X1960751D01*
Y1497777D01*
X1950751Y1507777D01*
X1960751Y1517777D01*
Y1527777D01*
X1950751D01*
X1940751Y1517777D01*
X1930751Y1527777D01*
X1920751D01*
Y1517777D01*
X1930751Y1507777D01*
X1920751Y1497777D01*
Y1487777D01*
X1921115Y1507617D02*
X1931115D01*
X1941115Y1517617D01*
X1951115Y1507617D01*
X1961115D01*
Y1517617D01*
X1951115Y1527617D01*
X1961115Y1537617D01*
Y1547617D01*
X1951115D01*
X1941115Y1537617D01*
X1931115Y1547617D01*
X1921115D01*
Y1537617D01*
X1931115Y1527617D01*
X1921115Y1517617D01*
Y1507617D01*
Y1527459D02*
X1931115D01*
X1941115Y1537459D01*
X1951115Y1527459D01*
X1961115D01*
Y1537459D01*
X1951115Y1547459D01*
X1961115Y1557459D01*
Y1567459D01*
X1951115D01*
X1941115Y1557459D01*
X1931115Y1567459D01*
X1921115D01*
Y1557459D01*
X1931115Y1547459D01*
X1921115Y1537459D01*
Y1527459D01*
Y1547302D02*
X1931115D01*
X1941115Y1557302D01*
X1951115Y1547302D01*
X1961115D01*
Y1557302D01*
X1951115Y1567302D01*
X1961115Y1577302D01*
Y1587302D01*
X1951115D01*
X1941115Y1577302D01*
X1931115Y1587302D01*
X1921115D01*
Y1577302D01*
X1931115Y1567302D01*
X1921115Y1557302D01*
Y1547302D01*
Y1567144D02*
X1931115D01*
X1941115Y1577144D01*
X1951115Y1567144D01*
X1961115D01*
Y1577144D01*
X1951115Y1587144D01*
X1961115Y1597144D01*
Y1607144D01*
X1951115D01*
X1941115Y1597144D01*
X1931115Y1607144D01*
X1921115D01*
Y1597144D01*
X1931115Y1587144D01*
X1921115Y1577144D01*
Y1567144D01*
X1926573Y1586221D02*
X1936573D01*
X1946573Y1596221D01*
X1956573Y1586221D01*
X1966573D01*
Y1596221D01*
X1956573Y1606221D01*
X1966573Y1616221D01*
Y1626221D01*
X1956573D01*
X1946573Y1616221D01*
X1936573Y1626221D01*
X1926573D01*
Y1616221D01*
X1936573Y1606221D01*
X1926573Y1596221D01*
Y1586221D01*
X1946334Y1588018D02*
X1956334D01*
X1966334Y1598018D01*
X1976334Y1588018D01*
X1986334D01*
Y1598018D01*
X1976334Y1608018D01*
X1986334Y1618018D01*
Y1628018D01*
X1976334D01*
X1966334Y1618018D01*
X1956334Y1628018D01*
X1946334D01*
Y1618018D01*
X1956334Y1608018D01*
X1946334Y1598018D01*
Y1588018D01*
X1966176D02*
X1976176D01*
X1986176Y1598018D01*
X1996176Y1588018D01*
X2006176D01*
Y1598018D01*
X1996176Y1608018D01*
X2006176Y1618018D01*
Y1628018D01*
X1996176D01*
X1986176Y1618018D01*
X1976176Y1628018D01*
X1966176D01*
Y1618018D01*
X1976176Y1608018D01*
X1966176Y1598018D01*
Y1588018D01*
X1986019D02*
X1996019D01*
X2006019Y1598018D01*
X2016019Y1588018D01*
X2026019D01*
Y1598018D01*
X2016019Y1608018D01*
X2026019Y1618018D01*
Y1628018D01*
X2016019D01*
X2006019Y1618018D01*
X1996019Y1628018D01*
X1986019D01*
Y1618018D01*
X1996019Y1608018D01*
X1986019Y1598018D01*
Y1588018D01*
X2005861D02*
X2015861D01*
X2025861Y1598018D01*
X2035861Y1588018D01*
X2045861D01*
Y1598018D01*
X2035861Y1608018D01*
X2045861Y1618018D01*
Y1628018D01*
X2035861D01*
X2025861Y1618018D01*
X2015861Y1628018D01*
X2005861D01*
Y1618018D01*
X2015861Y1608018D01*
X2005861Y1598018D01*
Y1588018D01*
X2025692Y1587321D02*
X2035692D01*
X2045692Y1597321D01*
X2055692Y1587321D01*
X2065692D01*
Y1597321D01*
X2055692Y1607321D01*
X2065692Y1617321D01*
Y1627321D01*
X2055692D01*
X2045692Y1617321D01*
X2035692Y1627321D01*
X2025692D01*
Y1617321D01*
X2035692Y1607321D01*
X2025692Y1597321D01*
Y1587321D01*
X2032709Y1568761D02*
X2042709D01*
X2052709Y1578761D01*
X2062709Y1568761D01*
X2072709D01*
Y1578761D01*
X2062709Y1588761D01*
X2072709Y1598761D01*
Y1608761D01*
X2062709D01*
X2052709Y1598761D01*
X2042709Y1608761D01*
X2032709D01*
Y1598761D01*
X2042709Y1588761D01*
X2032709Y1578761D01*
Y1568761D01*
X2039585Y1550147D02*
X2049585D01*
X2059585Y1560147D01*
X2069585Y1550147D01*
X2079585D01*
Y1560147D01*
X2069585Y1570147D01*
X2079585Y1580147D01*
Y1590147D01*
X2069585D01*
X2059585Y1580147D01*
X2049585Y1590147D01*
X2039585D01*
Y1580147D01*
X2049585Y1570147D01*
X2039585Y1560147D01*
Y1550147D01*
X2052479Y1535066D02*
X2062479D01*
X2072479Y1545066D01*
X2082479Y1535066D01*
X2092479D01*
Y1545066D01*
X2082479Y1555066D01*
X2092479Y1565066D01*
Y1575066D01*
X2082479D01*
X2072479Y1565066D01*
X2062479Y1575066D01*
X2052479D01*
Y1565066D01*
X2062479Y1555066D01*
X2052479Y1545066D01*
Y1535066D01*
X2069648Y1525119D02*
X2079648D01*
X2089648Y1535119D01*
X2099648Y1525119D01*
X2109648D01*
Y1535119D01*
X2099648Y1545119D01*
X2109648Y1555119D01*
Y1565119D01*
X2099648D01*
X2089648Y1555119D01*
X2079648Y1565119D01*
X2069648D01*
Y1555119D01*
X2079648Y1545119D01*
X2069648Y1535119D01*
Y1525119D01*
X2089123Y1521314D02*
X2099123D01*
X2109123Y1531314D01*
X2119123Y1521314D01*
X2129123D01*
Y1531314D01*
X2119123Y1541314D01*
X2129123Y1551314D01*
Y1561314D01*
X2119123D01*
X2109123Y1551314D01*
X2099123Y1561314D01*
X2089123D01*
Y1551314D01*
X2099123Y1541314D01*
X2089123Y1531314D01*
Y1521314D01*
X2108965Y1521424D02*
X2118965D01*
X2128965Y1531424D01*
X2138965Y1521424D01*
X2148965D01*
Y1531424D01*
X2138965Y1541424D01*
X2148965Y1551424D01*
Y1561424D01*
X2138965D01*
X2128965Y1551424D01*
X2118965Y1561424D01*
X2108965D01*
Y1551424D01*
X2118965Y1541424D01*
X2108965Y1531424D01*
Y1521424D01*
X2128807D02*
X2138807D01*
X2148807Y1531424D01*
X2158807Y1521424D01*
X2168807D01*
Y1531424D01*
X2158807Y1541424D01*
X2168807Y1551424D01*
Y1561424D01*
X2158807D01*
X2148807Y1551424D01*
X2138807Y1561424D01*
X2128807D01*
Y1551424D01*
X2138807Y1541424D01*
X2128807Y1531424D01*
Y1521424D01*
X2148650D02*
X2158650D01*
X2168650Y1531424D01*
X2178650Y1521424D01*
X2188650D01*
Y1531424D01*
X2178650Y1541424D01*
X2188650Y1551424D01*
Y1561424D01*
X2178650D01*
X2168650Y1551424D01*
X2158650Y1561424D01*
X2148650D01*
Y1551424D01*
X2158650Y1541424D01*
X2148650Y1531424D01*
Y1521424D01*
X2168492D02*
X2178492D01*
X2188492Y1531424D01*
X2198492Y1521424D01*
X2208492D01*
Y1531424D01*
X2198492Y1541424D01*
X2208492Y1551424D01*
Y1561424D01*
X2198492D01*
X2188492Y1551424D01*
X2178492Y1561424D01*
X2168492D01*
Y1551424D01*
X2178492Y1541424D01*
X2168492Y1531424D01*
Y1521424D01*
X2188335D02*
X2198335D01*
X2208335Y1531424D01*
X2218335Y1521424D01*
X2228335D01*
Y1531424D01*
X2218335Y1541424D01*
X2228335Y1551424D01*
Y1561424D01*
X2218335D01*
X2208335Y1551424D01*
X2198335Y1561424D01*
X2188335D01*
Y1551424D01*
X2198335Y1541424D01*
X2188335Y1531424D01*
Y1521424D01*
X2228020D02*
X2238020D01*
X2248020Y1531424D01*
X2258020Y1521424D01*
X2268020D01*
Y1531424D01*
X2258020Y1541424D01*
X2268020Y1551424D01*
Y1561424D01*
X2258020D01*
X2248020Y1551424D01*
X2238020Y1561424D01*
X2228020D01*
Y1551424D01*
X2238020Y1541424D01*
X2228020Y1531424D01*
Y1521424D01*
X2247862D02*
X2257862D01*
X2267862Y1531424D01*
X2277862Y1521424D01*
X2287862D01*
Y1531424D01*
X2277862Y1541424D01*
X2287862Y1551424D01*
Y1561424D01*
X2277862D01*
X2267862Y1551424D01*
X2257862Y1561424D01*
X2247862D01*
Y1551424D01*
X2257862Y1541424D01*
X2247862Y1531424D01*
Y1521424D01*
X2267705D02*
X2277705D01*
X2287705Y1531424D01*
X2297705Y1521424D01*
X2307705D01*
Y1531424D01*
X2297705Y1541424D01*
X2307705Y1551424D01*
Y1561424D01*
X2297705D01*
X2287705Y1551424D01*
X2277705Y1561424D01*
X2267705D01*
Y1551424D01*
X2277705Y1541424D01*
X2267705Y1531424D01*
Y1521424D01*
X2287547D02*
X2297547D01*
X2307547Y1531424D01*
X2317547Y1521424D01*
X2327547D01*
Y1531424D01*
X2317547Y1541424D01*
X2327547Y1551424D01*
Y1561424D01*
X2317547D01*
X2307547Y1551424D01*
X2297547Y1561424D01*
X2287547D01*
Y1551424D01*
X2297547Y1541424D01*
X2287547Y1531424D01*
Y1521424D01*
X2307390D02*
X2317390D01*
X2327390Y1531424D01*
X2337390Y1521424D01*
X2347390D01*
Y1531424D01*
X2337390Y1541424D01*
X2347390Y1551424D01*
Y1561424D01*
X2337390D01*
X2327390Y1551424D01*
X2317390Y1561424D01*
X2307390D01*
Y1551424D01*
X2317390Y1541424D01*
X2307390Y1531424D01*
Y1521424D01*
X2327232D02*
X2337232D01*
X2347232Y1531424D01*
X2357232Y1521424D01*
X2367232D01*
Y1531424D01*
X2357232Y1541424D01*
X2367232Y1551424D01*
Y1561424D01*
X2357232D01*
X2347232Y1551424D01*
X2337232Y1561424D01*
X2327232D01*
Y1551424D01*
X2337232Y1541424D01*
X2327232Y1531424D01*
Y1521424D01*
X2347075D02*
X2357075D01*
X2367075Y1531424D01*
X2377075Y1521424D01*
X2387075D01*
Y1531424D01*
X2377075Y1541424D01*
X2387075Y1551424D01*
Y1561424D01*
X2377075D01*
X2367075Y1551424D01*
X2357075Y1561424D01*
X2347075D01*
Y1551424D01*
X2357075Y1541424D01*
X2347075Y1531424D01*
Y1521424D01*
X2366917D02*
X2376917D01*
X2386917Y1531424D01*
X2396917Y1521424D01*
X2406917D01*
Y1531424D01*
X2396917Y1541424D01*
X2406917Y1551424D01*
Y1561424D01*
X2396917D01*
X2386917Y1551424D01*
X2376917Y1561424D01*
X2366917D01*
Y1551424D01*
X2376917Y1541424D01*
X2366917Y1531424D01*
Y1521424D01*
X2386760D02*
X2396760D01*
X2406760Y1531424D01*
X2416760Y1521424D01*
X2426760D01*
Y1531424D01*
X2416760Y1541424D01*
X2426760Y1551424D01*
Y1561424D01*
X2416760D01*
X2406760Y1551424D01*
X2396760Y1561424D01*
X2386760D01*
Y1551424D01*
X2396760Y1541424D01*
X2386760Y1531424D01*
Y1521424D01*
X2406602D02*
X2416602D01*
X2426602Y1531424D01*
X2436602Y1521424D01*
X2446602D01*
Y1531424D01*
X2436602Y1541424D01*
X2446602Y1551424D01*
Y1561424D01*
X2436602D01*
X2426602Y1551424D01*
X2416602Y1561424D01*
X2406602D01*
Y1551424D01*
X2416602Y1541424D01*
X2406602Y1531424D01*
Y1521424D01*
X2426445D02*
X2436445D01*
X2446445Y1531424D01*
X2456445Y1521424D01*
X2466445D01*
Y1531424D01*
X2456445Y1541424D01*
X2466445Y1551424D01*
Y1561424D01*
X2456445D01*
X2446445Y1551424D01*
X2436445Y1561424D01*
X2426445D01*
Y1551424D01*
X2436445Y1541424D01*
X2426445Y1531424D01*
Y1521424D01*
X2446287D02*
X2456287D01*
X2466287Y1531424D01*
X2476287Y1521424D01*
X2486287D01*
Y1531424D01*
X2476287Y1541424D01*
X2486287Y1551424D01*
Y1561424D01*
X2476287D01*
X2466287Y1551424D01*
X2456287Y1561424D01*
X2446287D01*
Y1551424D01*
X2456287Y1541424D01*
X2446287Y1531424D01*
Y1521424D01*
X2466130D02*
X2476130D01*
X2486130Y1531424D01*
X2496130Y1521424D01*
X2506130D01*
Y1531424D01*
X2496130Y1541424D01*
X2506130Y1551424D01*
Y1561424D01*
X2496130D01*
X2486130Y1551424D01*
X2476130Y1561424D01*
X2466130D01*
Y1551424D01*
X2476130Y1541424D01*
X2466130Y1531424D01*
Y1521424D01*
X2744483Y1458165D02*
X2754483D01*
X2764483Y1468165D01*
X2774483Y1458165D01*
X2784483D01*
Y1468165D01*
X2774483Y1478165D01*
X2784483Y1488165D01*
Y1498165D01*
X2774483D01*
X2764483Y1488165D01*
X2754483Y1498165D01*
X2744483D01*
Y1488165D01*
X2754483Y1478165D01*
X2744483Y1468165D01*
Y1458165D01*
X2780279Y1475011D02*
X2790279D01*
X2800279Y1485011D01*
X2810279Y1475011D01*
X2820279D01*
Y1485011D01*
X2810279Y1495011D01*
X2820279Y1505011D01*
Y1515011D01*
X2810279D01*
X2800279Y1505011D01*
X2790279Y1515011D01*
X2780279D01*
Y1505011D01*
X2790279Y1495011D01*
X2780279Y1485011D01*
Y1475011D01*
X2795751Y1487434D02*
X2805751D01*
X2815751Y1497434D01*
X2825751Y1487434D01*
X2835751D01*
Y1497434D01*
X2825751Y1507434D01*
X2835751Y1517434D01*
Y1527434D01*
X2825751D01*
X2815751Y1517434D01*
X2805751Y1527434D01*
X2795751D01*
Y1517434D01*
X2805751Y1507434D01*
X2795751Y1497434D01*
Y1487434D01*
X2809079Y1502134D02*
X2819079D01*
X2829079Y1512134D01*
X2839079Y1502134D01*
X2849079D01*
Y1512134D01*
X2839079Y1522134D01*
X2849079Y1532134D01*
Y1542134D01*
X2839079D01*
X2829079Y1532134D01*
X2819079Y1542134D01*
X2809079D01*
Y1532134D01*
X2819079Y1522134D01*
X2809079Y1512134D01*
Y1502134D01*
X2819932Y1518745D02*
X2829932D01*
X2839932Y1528745D01*
X2849932Y1518745D01*
X2859932D01*
Y1528745D01*
X2849932Y1538745D01*
X2859932Y1548745D01*
Y1558745D01*
X2849932D01*
X2839932Y1548745D01*
X2829932Y1558745D01*
X2819932D01*
Y1548745D01*
X2829932Y1538745D01*
X2819932Y1528745D01*
Y1518745D01*
X2828040Y1536855D02*
X2838040D01*
X2848040Y1546855D01*
X2858040Y1536855D01*
X2868040D01*
Y1546855D01*
X2858040Y1556855D01*
X2868040Y1566855D01*
Y1576855D01*
X2858040D01*
X2848040Y1566855D01*
X2838040Y1576855D01*
X2828040D01*
Y1566855D01*
X2838040Y1556855D01*
X2828040Y1546855D01*
Y1536855D01*
X2824126Y2029666D02*
X2834126D01*
X2844126Y2039666D01*
X2854126Y2029666D01*
X2864126D01*
Y2039666D01*
X2854126Y2049666D01*
X2864126Y2059666D01*
Y2069666D01*
X2854126D01*
X2844126Y2059666D01*
X2834126Y2069666D01*
X2824126D01*
Y2059666D01*
X2834126Y2049666D01*
X2824126Y2039666D01*
Y2029666D01*
X2808101Y2041368D02*
X2818101D01*
X2828101Y2051368D01*
X2838101Y2041368D01*
X2848101D01*
Y2051368D01*
X2838101Y2061368D01*
X2848101Y2071368D01*
Y2081368D01*
X2838101D01*
X2828101Y2071368D01*
X2818101Y2081368D01*
X2808101D01*
Y2071368D01*
X2818101Y2061368D01*
X2808101Y2051368D01*
Y2041368D01*
X1450237Y1831312D02*
X1460237D01*
X1470237Y1841312D01*
X1480237Y1831312D01*
X1490237D01*
Y1841312D01*
X1480237Y1851312D01*
X1490237Y1861312D01*
Y1871312D01*
X1480237D01*
X1470237Y1861312D01*
X1460237Y1871312D01*
X1450237D01*
Y1861312D01*
X1460237Y1851312D01*
X1450237Y1841312D01*
Y1831312D01*
X1457686Y1812921D02*
X1467686D01*
X1477686Y1822921D01*
X1487686Y1812921D01*
X1497686D01*
Y1822921D01*
X1487686Y1832921D01*
X1497686Y1842921D01*
Y1852921D01*
X1487686D01*
X1477686Y1842921D01*
X1467686Y1852921D01*
X1457686D01*
Y1842921D01*
X1467686Y1832921D01*
X1457686Y1822921D01*
Y1812921D01*
X1447638Y1795811D02*
X1457638D01*
X1467638Y1805811D01*
X1477638Y1795811D01*
X1487638D01*
Y1805811D01*
X1477638Y1815811D01*
X1487638Y1825811D01*
Y1835811D01*
X1477638D01*
X1467638Y1825811D01*
X1457638Y1835811D01*
X1447638D01*
Y1825811D01*
X1457638Y1815811D01*
X1447638Y1805811D01*
Y1795811D01*
X1381557Y1716368D02*
X1391557D01*
X1401557Y1726368D01*
X1411557Y1716368D01*
X1421557D01*
Y1726368D01*
X1411557Y1736368D01*
X1421557Y1746368D01*
Y1756368D01*
X1411557D01*
X1401557Y1746368D01*
X1391557Y1756368D01*
X1381557D01*
Y1746368D01*
X1391557Y1736368D01*
X1381557Y1726368D01*
Y1716368D01*
X1379196Y1736069D02*
X1389196D01*
X1399196Y1746069D01*
X1409196Y1736069D01*
X1419196D01*
Y1746069D01*
X1409196Y1756069D01*
X1419196Y1766069D01*
Y1776069D01*
X1409196D01*
X1399196Y1766069D01*
X1389196Y1776069D01*
X1379196D01*
Y1766069D01*
X1389196Y1756069D01*
X1379196Y1746069D01*
Y1736069D01*
X1277886Y1794299D02*
X1287886D01*
X1297886Y1804299D01*
X1307886Y1794299D01*
X1317886D01*
Y1804299D01*
X1307886Y1814299D01*
X1317886Y1824299D01*
Y1834299D01*
X1307886D01*
X1297886Y1824299D01*
X1287886Y1834299D01*
X1277886D01*
Y1824299D01*
X1287886Y1814299D01*
X1277886Y1804299D01*
Y1794299D01*
X1259065Y1788015D02*
X1269065D01*
X1279065Y1798015D01*
X1289065Y1788015D01*
X1299065D01*
Y1798015D01*
X1289065Y1808015D01*
X1299065Y1818015D01*
Y1828015D01*
X1289065D01*
X1279065Y1818015D01*
X1269065Y1828015D01*
X1259065D01*
Y1818015D01*
X1269065Y1808015D01*
X1259065Y1798015D01*
Y1788015D01*
X1243629Y1775547D02*
X1253629D01*
X1263629Y1785547D01*
X1273629Y1775547D01*
X1283629D01*
Y1785547D01*
X1273629Y1795547D01*
X1283629Y1805547D01*
Y1815547D01*
X1273629D01*
X1263629Y1805547D01*
X1253629Y1815547D01*
X1243629D01*
Y1805547D01*
X1253629Y1795547D01*
X1243629Y1785547D01*
Y1775547D01*
X1228933Y1739242D02*
X1238933D01*
X1248933Y1749242D01*
X1258933Y1739242D01*
X1268933D01*
Y1749242D01*
X1258933Y1759242D01*
X1268933Y1769242D01*
Y1779242D01*
X1258933D01*
X1248933Y1769242D01*
X1238933Y1779242D01*
X1228933D01*
Y1769242D01*
X1238933Y1759242D01*
X1228933Y1749242D01*
Y1739242D01*
X1217301Y1683514D02*
X1227301D01*
X1237301Y1693514D01*
X1247301Y1683514D01*
X1257301D01*
Y1693514D01*
X1247301Y1703514D01*
X1257301Y1713514D01*
Y1723514D01*
X1247301D01*
X1237301Y1713514D01*
X1227301Y1723514D01*
X1217301D01*
Y1713514D01*
X1227301Y1703514D01*
X1217301Y1693514D01*
Y1683514D01*
X1197559Y1681519D02*
X1207559D01*
X1217559Y1691519D01*
X1227559Y1681519D01*
X1237559D01*
Y1691519D01*
X1227559Y1701519D01*
X1237559Y1711519D01*
Y1721519D01*
X1227559D01*
X1217559Y1711519D01*
X1207559Y1721519D01*
X1197559D01*
Y1711519D01*
X1207559Y1701519D01*
X1197559Y1691519D01*
Y1681519D01*
X1179833Y1672601D02*
X1189833D01*
X1199833Y1682601D01*
X1209833Y1672601D01*
X1219833D01*
Y1682601D01*
X1209833Y1692601D01*
X1219833Y1702601D01*
Y1712601D01*
X1209833D01*
X1199833Y1702601D01*
X1189833Y1712601D01*
X1179833D01*
Y1702601D01*
X1189833Y1692601D01*
X1179833Y1682601D01*
Y1672601D01*
X1159210Y1639586D02*
X1169210D01*
X1179210Y1649586D01*
X1189210Y1639586D01*
X1199210D01*
Y1649586D01*
X1189210Y1659586D01*
X1199210Y1669586D01*
Y1679586D01*
X1189210D01*
X1179210Y1669586D01*
X1169210Y1679586D01*
X1159210D01*
Y1669586D01*
X1169210Y1659586D01*
X1159210Y1649586D01*
Y1639586D01*
X1179777Y1586698D02*
X1189777D01*
X1199777Y1596698D01*
X1209777Y1586698D01*
X1219777D01*
Y1596698D01*
X1209777Y1606698D01*
X1219777Y1616698D01*
Y1626698D01*
X1209777D01*
X1199777Y1616698D01*
X1189777Y1626698D01*
X1179777D01*
Y1616698D01*
X1189777Y1606698D01*
X1179777Y1596698D01*
Y1586698D01*
X1228978Y1559752D02*
X1238978D01*
X1248978Y1569752D01*
X1258978Y1559752D01*
X1268978D01*
Y1569752D01*
X1258978Y1579752D01*
X1268978Y1589752D01*
Y1599752D01*
X1258978D01*
X1248978Y1589752D01*
X1238978Y1599752D01*
X1228978D01*
Y1589752D01*
X1238978Y1579752D01*
X1228978Y1569752D01*
Y1559752D01*
Y1539909D02*
X1238978D01*
X1248978Y1549909D01*
X1258978Y1539909D01*
X1268978D01*
Y1549909D01*
X1258978Y1559909D01*
X1268978Y1569909D01*
Y1579909D01*
X1258978D01*
X1248978Y1569909D01*
X1238978Y1579909D01*
X1228978D01*
Y1569909D01*
X1238978Y1559909D01*
X1228978Y1549909D01*
Y1539909D01*
Y1520067D02*
X1238978D01*
X1248978Y1530067D01*
X1258978Y1520067D01*
X1268978D01*
Y1530067D01*
X1258978Y1540067D01*
X1268978Y1550067D01*
Y1560067D01*
X1258978D01*
X1248978Y1550067D01*
X1238978Y1560067D01*
X1228978D01*
Y1550067D01*
X1238978Y1540067D01*
X1228978Y1530067D01*
Y1520067D01*
Y1500224D02*
X1238978D01*
X1248978Y1510224D01*
X1258978Y1500224D01*
X1268978D01*
Y1510224D01*
X1258978Y1520224D01*
X1268978Y1530224D01*
Y1540224D01*
X1258978D01*
X1248978Y1530224D01*
X1238978Y1540224D01*
X1228978D01*
Y1530224D01*
X1238978Y1520224D01*
X1228978Y1510224D01*
Y1500224D01*
Y1480382D02*
X1238978D01*
X1248978Y1490382D01*
X1258978Y1480382D01*
X1268978D01*
Y1490382D01*
X1258978Y1500382D01*
X1268978Y1510382D01*
Y1520382D01*
X1258978D01*
X1248978Y1510382D01*
X1238978Y1520382D01*
X1228978D01*
Y1510382D01*
X1238978Y1500382D01*
X1228978Y1490382D01*
Y1480382D01*
Y1460539D02*
X1238978D01*
X1248978Y1470539D01*
X1258978Y1460539D01*
X1268978D01*
Y1470539D01*
X1258978Y1480539D01*
X1268978Y1490539D01*
Y1500539D01*
X1258978D01*
X1248978Y1490539D01*
X1238978Y1500539D01*
X1228978D01*
Y1490539D01*
X1238978Y1480539D01*
X1228978Y1470539D01*
Y1460539D01*
Y1440697D02*
X1238978D01*
X1248978Y1450697D01*
X1258978Y1440697D01*
X1268978D01*
Y1450697D01*
X1258978Y1460697D01*
X1268978Y1470697D01*
Y1480697D01*
X1258978D01*
X1248978Y1470697D01*
X1238978Y1480697D01*
X1228978D01*
Y1470697D01*
X1238978Y1460697D01*
X1228978Y1450697D01*
Y1440697D01*
X1229617Y1316791D02*
X1239617D01*
X1249617Y1326791D01*
X1259617Y1316791D01*
X1269617D01*
Y1326791D01*
X1259617Y1336791D01*
X1269617Y1346791D01*
Y1356791D01*
X1259617D01*
X1249617Y1346791D01*
X1239617Y1356791D01*
X1229617D01*
Y1346791D01*
X1239617Y1336791D01*
X1229617Y1326791D01*
Y1316791D01*
X1248477Y1322955D02*
X1258477D01*
X1268477Y1332955D01*
X1278477Y1322955D01*
X1288477D01*
Y1332955D01*
X1278477Y1342955D01*
X1288477Y1352955D01*
Y1362955D01*
X1278477D01*
X1268477Y1352955D01*
X1258477Y1362955D01*
X1248477D01*
Y1352955D01*
X1258477Y1342955D01*
X1248477Y1332955D01*
Y1322955D01*
X1263401Y1336032D02*
X1273401D01*
X1283401Y1346032D01*
X1293401Y1336032D01*
X1303401D01*
Y1346032D01*
X1293401Y1356032D01*
X1303401Y1366032D01*
Y1376032D01*
X1293401D01*
X1283401Y1366032D01*
X1273401Y1376032D01*
X1263401D01*
Y1366032D01*
X1273401Y1356032D01*
X1263401Y1346032D01*
Y1336032D01*
X1272355Y1353740D02*
X1282355D01*
X1292355Y1363740D01*
X1302355Y1353740D01*
X1312355D01*
Y1363740D01*
X1302355Y1373740D01*
X1312355Y1383740D01*
Y1393740D01*
X1302355D01*
X1292355Y1383740D01*
X1282355Y1393740D01*
X1272355D01*
Y1383740D01*
X1282355Y1373740D01*
X1272355Y1363740D01*
Y1353740D01*
X1274201Y1373496D02*
X1284201D01*
X1294201Y1383496D01*
X1304201Y1373496D01*
X1314201D01*
Y1383496D01*
X1304201Y1393496D01*
X1314201Y1403496D01*
Y1413496D01*
X1304201D01*
X1294201Y1403496D01*
X1284201Y1413496D01*
X1274201D01*
Y1403496D01*
X1284201Y1393496D01*
X1274201Y1383496D01*
Y1373496D01*
Y1393339D02*
X1284201D01*
X1294201Y1403339D01*
X1304201Y1393339D01*
X1314201D01*
Y1403339D01*
X1304201Y1413339D01*
X1314201Y1423339D01*
Y1433339D01*
X1304201D01*
X1294201Y1423339D01*
X1284201Y1433339D01*
X1274201D01*
Y1423339D01*
X1284201Y1413339D01*
X1274201Y1403339D01*
Y1393339D01*
Y1413181D02*
X1284201D01*
X1294201Y1423181D01*
X1304201Y1413181D01*
X1314201D01*
Y1423181D01*
X1304201Y1433181D01*
X1314201Y1443181D01*
Y1453181D01*
X1304201D01*
X1294201Y1443181D01*
X1284201Y1453181D01*
X1274201D01*
Y1443181D01*
X1284201Y1433181D01*
X1274201Y1423181D01*
Y1413181D01*
Y1433024D02*
X1284201D01*
X1294201Y1443024D01*
X1304201Y1433024D01*
X1314201D01*
Y1443024D01*
X1304201Y1453024D01*
X1314201Y1463024D01*
Y1473024D01*
X1304201D01*
X1294201Y1463024D01*
X1284201Y1473024D01*
X1274201D01*
Y1463024D01*
X1284201Y1453024D01*
X1274201Y1443024D01*
Y1433024D01*
Y1452866D02*
X1284201D01*
X1294201Y1462866D01*
X1304201Y1452866D01*
X1314201D01*
Y1462866D01*
X1304201Y1472866D01*
X1314201Y1482866D01*
Y1492866D01*
X1304201D01*
X1294201Y1482866D01*
X1284201Y1492866D01*
X1274201D01*
Y1482866D01*
X1284201Y1472866D01*
X1274201Y1462866D01*
Y1452866D01*
Y1472709D02*
X1284201D01*
X1294201Y1482709D01*
X1304201Y1472709D01*
X1314201D01*
Y1482709D01*
X1304201Y1492709D01*
X1314201Y1502709D01*
Y1512709D01*
X1304201D01*
X1294201Y1502709D01*
X1284201Y1512709D01*
X1274201D01*
Y1502709D01*
X1284201Y1492709D01*
X1274201Y1482709D01*
Y1472709D01*
Y1492551D02*
X1284201D01*
X1294201Y1502551D01*
X1304201Y1492551D01*
X1314201D01*
Y1502551D01*
X1304201Y1512551D01*
X1314201Y1522551D01*
Y1532551D01*
X1304201D01*
X1294201Y1522551D01*
X1284201Y1532551D01*
X1274201D01*
Y1522551D01*
X1284201Y1512551D01*
X1274201Y1502551D01*
Y1492551D01*
Y1512394D02*
X1284201D01*
X1294201Y1522394D01*
X1304201Y1512394D01*
X1314201D01*
Y1522394D01*
X1304201Y1532394D01*
X1314201Y1542394D01*
Y1552394D01*
X1304201D01*
X1294201Y1542394D01*
X1284201Y1552394D01*
X1274201D01*
Y1542394D01*
X1284201Y1532394D01*
X1274201Y1522394D01*
Y1512394D01*
Y1532236D02*
X1284201D01*
X1294201Y1542236D01*
X1304201Y1532236D01*
X1314201D01*
Y1542236D01*
X1304201Y1552236D01*
X1314201Y1562236D01*
Y1572236D01*
X1304201D01*
X1294201Y1562236D01*
X1284201Y1572236D01*
X1274201D01*
Y1562236D01*
X1284201Y1552236D01*
X1274201Y1542236D01*
Y1532236D01*
Y1552079D02*
X1284201D01*
X1294201Y1562079D01*
X1304201Y1552079D01*
X1314201D01*
Y1562079D01*
X1304201Y1572079D01*
X1314201Y1582079D01*
Y1592079D01*
X1304201D01*
X1294201Y1582079D01*
X1284201Y1592079D01*
X1274201D01*
Y1582079D01*
X1284201Y1572079D01*
X1274201Y1562079D01*
Y1552079D01*
X1273875Y1571918D02*
X1283875D01*
X1293875Y1581918D01*
X1303875Y1571918D01*
X1313875D01*
Y1581918D01*
X1303875Y1591918D01*
X1313875Y1601918D01*
Y1611918D01*
X1303875D01*
X1293875Y1601918D01*
X1283875Y1611918D01*
X1273875D01*
Y1601918D01*
X1283875Y1591918D01*
X1273875Y1581918D01*
Y1571918D01*
X1268553Y1591034D02*
X1278553D01*
X1288553Y1601034D01*
X1298553Y1591034D01*
X1308553D01*
Y1601034D01*
X1298553Y1611034D01*
X1308553Y1621034D01*
Y1631034D01*
X1298553D01*
X1288553Y1621034D01*
X1278553Y1631034D01*
X1268553D01*
Y1621034D01*
X1278553Y1611034D01*
X1268553Y1601034D01*
Y1591034D01*
X1204441Y1633138D02*
X1214441D01*
X1224441Y1643138D01*
X1234441Y1633138D01*
X1244441D01*
Y1643138D01*
X1234441Y1653138D01*
X1244441Y1663138D01*
Y1673138D01*
X1234441D01*
X1224441Y1663138D01*
X1214441Y1673138D01*
X1204441D01*
Y1663138D01*
X1214441Y1653138D01*
X1204441Y1643138D01*
Y1633138D01*
X1223571Y1638409D02*
X1233571D01*
X1243571Y1648409D01*
X1253571Y1638409D01*
X1263571D01*
Y1648409D01*
X1253571Y1658409D01*
X1263571Y1668409D01*
Y1678409D01*
X1253571D01*
X1243571Y1668409D01*
X1233571Y1678409D01*
X1223571D01*
Y1668409D01*
X1233571Y1658409D01*
X1223571Y1648409D01*
Y1638409D01*
X1274257Y1690692D02*
X1284257D01*
X1294257Y1700692D01*
X1304257Y1690692D01*
X1314257D01*
Y1700692D01*
X1304257Y1710692D01*
X1314257Y1720692D01*
Y1730692D01*
X1304257D01*
X1294257Y1720692D01*
X1284257Y1730692D01*
X1274257D01*
Y1720692D01*
X1284257Y1710692D01*
X1274257Y1700692D01*
Y1690692D01*
X1321793Y1749957D02*
X1331793D01*
X1341793Y1759957D01*
X1351793Y1749957D01*
X1361793D01*
Y1759957D01*
X1351793Y1769957D01*
X1361793Y1779957D01*
Y1789957D01*
X1351793D01*
X1341793Y1779957D01*
X1331793Y1789957D01*
X1321793D01*
Y1779957D01*
X1331793Y1769957D01*
X1321793Y1759957D01*
Y1749957D01*
X1333973Y1734292D02*
X1343973D01*
X1353973Y1744292D01*
X1363973Y1734292D01*
X1373973D01*
Y1744292D01*
X1363973Y1754292D01*
X1373973Y1764292D01*
Y1774292D01*
X1363973D01*
X1353973Y1764292D01*
X1343973Y1774292D01*
X1333973D01*
Y1764292D01*
X1343973Y1754292D01*
X1333973Y1744292D01*
Y1734292D01*
X1334367Y1714454D02*
X1344367D01*
X1354367Y1724454D01*
X1364367Y1714454D01*
X1374367D01*
Y1724454D01*
X1364367Y1734454D01*
X1374367Y1744454D01*
Y1754454D01*
X1364367D01*
X1354367Y1744454D01*
X1344367Y1754454D01*
X1334367D01*
Y1744454D01*
X1344367Y1734454D01*
X1334367Y1724454D01*
Y1714454D01*
X1340304Y1695520D02*
X1350304D01*
X1360304Y1705520D01*
X1370304Y1695520D01*
X1380304D01*
Y1705520D01*
X1370304Y1715520D01*
X1380304Y1725520D01*
Y1735520D01*
X1370304D01*
X1360304Y1725520D01*
X1350304Y1735520D01*
X1340304D01*
Y1725520D01*
X1350304Y1715520D01*
X1340304Y1705520D01*
Y1695520D01*
X1353430Y1680640D02*
X1363430D01*
X1373430Y1690640D01*
X1383430Y1680640D01*
X1393430D01*
Y1690640D01*
X1383430Y1700640D01*
X1393430Y1710640D01*
Y1720640D01*
X1383430D01*
X1373430Y1710640D01*
X1363430Y1720640D01*
X1353430D01*
Y1710640D01*
X1363430Y1700640D01*
X1353430Y1690640D01*
Y1680640D01*
X1371286Y1671987D02*
X1381286D01*
X1391286Y1681987D01*
X1401286Y1671987D01*
X1411286D01*
Y1681987D01*
X1401286Y1691987D01*
X1411286Y1701987D01*
Y1711987D01*
X1401286D01*
X1391286Y1701987D01*
X1381286Y1711987D01*
X1371286D01*
Y1701987D01*
X1381286Y1691987D01*
X1371286Y1681987D01*
Y1671987D01*
X1391121Y1671419D02*
X1401121D01*
X1411121Y1681419D01*
X1421121Y1671419D01*
X1431121D01*
Y1681419D01*
X1421121Y1691419D01*
X1431121Y1701419D01*
Y1711419D01*
X1421121D01*
X1411121Y1701419D01*
X1401121Y1711419D01*
X1391121D01*
Y1701419D01*
X1401121Y1691419D01*
X1391121Y1681419D01*
Y1671419D01*
X1409621Y1678593D02*
X1419621D01*
X1429621Y1688593D01*
X1439621Y1678593D01*
X1449621D01*
Y1688593D01*
X1439621Y1698593D01*
X1449621Y1708593D01*
Y1718593D01*
X1439621D01*
X1429621Y1708593D01*
X1419621Y1718593D01*
X1409621D01*
Y1708593D01*
X1419621Y1698593D01*
X1409621Y1688593D01*
Y1678593D01*
X1431745Y1730909D02*
X1441745D01*
X1451745Y1740909D01*
X1461745Y1730909D01*
X1471745D01*
Y1740909D01*
X1461745Y1750909D01*
X1471745Y1760909D01*
Y1770909D01*
X1461745D01*
X1451745Y1760909D01*
X1441745Y1770909D01*
X1431745D01*
Y1760909D01*
X1441745Y1750909D01*
X1431745Y1740909D01*
Y1730909D01*
X1457104Y1751247D02*
X1467104D01*
X1477104Y1761247D01*
X1487104Y1751247D01*
X1497104D01*
Y1761247D01*
X1487104Y1771247D01*
X1497104Y1781247D01*
Y1791247D01*
X1487104D01*
X1477104Y1781247D01*
X1467104Y1791247D01*
X1457104D01*
Y1781247D01*
X1467104Y1771247D01*
X1457104Y1761247D01*
Y1751247D01*
X1502985Y1808990D02*
X1512985D01*
X1522985Y1818990D01*
X1532985Y1808990D01*
X1542985D01*
Y1818990D01*
X1532985Y1828990D01*
X1542985Y1838990D01*
Y1848990D01*
X1532985D01*
X1522985Y1838990D01*
X1512985Y1848990D01*
X1502985D01*
Y1838990D01*
X1512985Y1828990D01*
X1502985Y1818990D01*
Y1808990D01*
X1507432Y1828328D02*
X1517432D01*
X1527432Y1838328D01*
X1537432Y1828328D01*
X1547432D01*
Y1838328D01*
X1537432Y1848328D01*
X1547432Y1858328D01*
Y1868328D01*
X1537432D01*
X1527432Y1858328D01*
X1517432Y1868328D01*
X1507432D01*
Y1858328D01*
X1517432Y1848328D01*
X1507432Y1838328D01*
Y1828328D01*
X1136374Y2161208D02*
X1146374D01*
X1156374Y2171208D01*
X1166374Y2161208D01*
X1176374D01*
Y2171208D01*
X1166374Y2181208D01*
X1176374Y2191208D01*
Y2201208D01*
X1166374D01*
X1156374Y2191208D01*
X1146374Y2201208D01*
X1136374D01*
Y2191208D01*
X1146374Y2181208D01*
X1136374Y2171208D01*
Y2161208D01*
X1116532D02*
X1126532D01*
X1136532Y2171208D01*
X1146532Y2161208D01*
X1156532D01*
Y2171208D01*
X1146532Y2181208D01*
X1156532Y2191208D01*
Y2201208D01*
X1146532D01*
X1136532Y2191208D01*
X1126532Y2201208D01*
X1116532D01*
Y2191208D01*
X1126532Y2181208D01*
X1116532Y2171208D01*
Y2161208D01*
X1096689D02*
X1106689D01*
X1116689Y2171208D01*
X1126689Y2161208D01*
X1136689D01*
Y2171208D01*
X1126689Y2181208D01*
X1136689Y2191208D01*
Y2201208D01*
X1126689D01*
X1116689Y2191208D01*
X1106689Y2201208D01*
X1096689D01*
Y2191208D01*
X1106689Y2181208D01*
X1096689Y2171208D01*
Y2161208D01*
X1076847D02*
X1086847D01*
X1096847Y2171208D01*
X1106847Y2161208D01*
X1116847D01*
Y2171208D01*
X1106847Y2181208D01*
X1116847Y2191208D01*
Y2201208D01*
X1106847D01*
X1096847Y2191208D01*
X1086847Y2201208D01*
X1076847D01*
Y2191208D01*
X1086847Y2181208D01*
X1076847Y2171208D01*
Y2161208D01*
X1057004D02*
X1067004D01*
X1077004Y2171208D01*
X1087004Y2161208D01*
X1097004D01*
Y2171208D01*
X1087004Y2181208D01*
X1097004Y2191208D01*
Y2201208D01*
X1087004D01*
X1077004Y2191208D01*
X1067004Y2201208D01*
X1057004D01*
Y2191208D01*
X1067004Y2181208D01*
X1057004Y2171208D01*
Y2161208D01*
X1037162D02*
X1047162D01*
X1057162Y2171208D01*
X1067162Y2161208D01*
X1077162D01*
Y2171208D01*
X1067162Y2181208D01*
X1077162Y2191208D01*
Y2201208D01*
X1067162D01*
X1057162Y2191208D01*
X1047162Y2201208D01*
X1037162D01*
Y2191208D01*
X1047162Y2181208D01*
X1037162Y2171208D01*
Y2161208D01*
X1017319D02*
X1027319D01*
X1037319Y2171208D01*
X1047319Y2161208D01*
X1057319D01*
Y2171208D01*
X1047319Y2181208D01*
X1057319Y2191208D01*
Y2201208D01*
X1047319D01*
X1037319Y2191208D01*
X1027319Y2201208D01*
X1017319D01*
Y2191208D01*
X1027319Y2181208D01*
X1017319Y2171208D01*
Y2161208D01*
X997477D02*
X1007477D01*
X1017477Y2171208D01*
X1027477Y2161208D01*
X1037477D01*
Y2171208D01*
X1027477Y2181208D01*
X1037477Y2191208D01*
Y2201208D01*
X1027477D01*
X1017477Y2191208D01*
X1007477Y2201208D01*
X997477D01*
Y2191208D01*
X1007477Y2181208D01*
X997477Y2171208D01*
Y2161208D01*
X1185604Y2115985D02*
X1195604D01*
X1205604Y2125985D01*
X1215604Y2115985D01*
X1225604D01*
Y2125985D01*
X1215604Y2135985D01*
X1225604Y2145985D01*
Y2155985D01*
X1215604D01*
X1205604Y2145985D01*
X1195604Y2155985D01*
X1185604D01*
Y2145985D01*
X1195604Y2135985D01*
X1185604Y2125985D01*
Y2115985D01*
X1165761D02*
X1175761D01*
X1185761Y2125985D01*
X1195761Y2115985D01*
X1205761D01*
Y2125985D01*
X1195761Y2135985D01*
X1205761Y2145985D01*
Y2155985D01*
X1195761D01*
X1185761Y2145985D01*
X1175761Y2155985D01*
X1165761D01*
Y2145985D01*
X1175761Y2135985D01*
X1165761Y2125985D01*
Y2115985D01*
X1145919D02*
X1155919D01*
X1165919Y2125985D01*
X1175919Y2115985D01*
X1185919D01*
Y2125985D01*
X1175919Y2135985D01*
X1185919Y2145985D01*
Y2155985D01*
X1175919D01*
X1165919Y2145985D01*
X1155919Y2155985D01*
X1145919D01*
Y2145985D01*
X1155919Y2135985D01*
X1145919Y2125985D01*
Y2115985D01*
X1126076D02*
X1136076D01*
X1146076Y2125985D01*
X1156076Y2115985D01*
X1166076D01*
Y2125985D01*
X1156076Y2135985D01*
X1166076Y2145985D01*
Y2155985D01*
X1156076D01*
X1146076Y2145985D01*
X1136076Y2155985D01*
X1126076D01*
Y2145985D01*
X1136076Y2135985D01*
X1126076Y2125985D01*
Y2115985D01*
X1106234D02*
X1116234D01*
X1126234Y2125985D01*
X1136234Y2115985D01*
X1146234D01*
Y2125985D01*
X1136234Y2135985D01*
X1146234Y2145985D01*
Y2155985D01*
X1136234D01*
X1126234Y2145985D01*
X1116234Y2155985D01*
X1106234D01*
Y2145985D01*
X1116234Y2135985D01*
X1106234Y2125985D01*
Y2115985D01*
X1086391D02*
X1096391D01*
X1106391Y2125985D01*
X1116391Y2115985D01*
X1126391D01*
Y2125985D01*
X1116391Y2135985D01*
X1126391Y2145985D01*
Y2155985D01*
X1116391D01*
X1106391Y2145985D01*
X1096391Y2155985D01*
X1086391D01*
Y2145985D01*
X1096391Y2135985D01*
X1086391Y2125985D01*
Y2115985D01*
X1066549D02*
X1076549D01*
X1086549Y2125985D01*
X1096549Y2115985D01*
X1106549D01*
Y2125985D01*
X1096549Y2135985D01*
X1106549Y2145985D01*
Y2155985D01*
X1096549D01*
X1086549Y2145985D01*
X1076549Y2155985D01*
X1066549D01*
Y2145985D01*
X1076549Y2135985D01*
X1066549Y2125985D01*
Y2115985D01*
X1046706D02*
X1056706D01*
X1066706Y2125985D01*
X1076706Y2115985D01*
X1086706D01*
Y2125985D01*
X1076706Y2135985D01*
X1086706Y2145985D01*
Y2155985D01*
X1076706D01*
X1066706Y2145985D01*
X1056706Y2155985D01*
X1046706D01*
Y2145985D01*
X1056706Y2135985D01*
X1046706Y2125985D01*
Y2115985D01*
X1026864D02*
X1036864D01*
X1046864Y2125985D01*
X1056864Y2115985D01*
X1066864D01*
Y2125985D01*
X1056864Y2135985D01*
X1066864Y2145985D01*
Y2155985D01*
X1056864D01*
X1046864Y2145985D01*
X1036864Y2155985D01*
X1026864D01*
Y2145985D01*
X1036864Y2135985D01*
X1026864Y2125985D01*
Y2115985D01*
X1007021D02*
X1017021D01*
X1027021Y2125985D01*
X1037021Y2115985D01*
X1047021D01*
Y2125985D01*
X1037021Y2135985D01*
X1047021Y2145985D01*
Y2155985D01*
X1037021D01*
X1027021Y2145985D01*
X1017021Y2155985D01*
X1007021D01*
Y2145985D01*
X1017021Y2135985D01*
X1007021Y2125985D01*
Y2115985D01*
X1155374Y2161208D02*
X1165374D01*
X1175374Y2171208D01*
X1185374Y2161208D01*
X1195374D01*
Y2171208D01*
X1185374Y2181208D01*
X1195374Y2191208D01*
Y2201208D01*
X1185374D01*
X1175374Y2191208D01*
X1165374Y2201208D01*
X1155374D01*
Y2191208D01*
X1165374Y2181208D01*
X1155374Y2171208D01*
Y2161208D01*
X1175217D02*
X1185217D01*
X1195217Y2171208D01*
X1205217Y2161208D01*
X1215217D01*
Y2171208D01*
X1205217Y2181208D01*
X1215217Y2191208D01*
Y2201208D01*
X1205217D01*
X1195217Y2191208D01*
X1185217Y2201208D01*
X1175217D01*
Y2191208D01*
X1185217Y2181208D01*
X1175217Y2171208D01*
Y2161208D01*
X1195059D02*
X1205059D01*
X1215059Y2171208D01*
X1225059Y2161208D01*
X1235059D01*
Y2171208D01*
X1225059Y2181208D01*
X1235059Y2191208D01*
Y2201208D01*
X1225059D01*
X1215059Y2191208D01*
X1205059Y2201208D01*
X1195059D01*
Y2191208D01*
X1205059Y2181208D01*
X1195059Y2171208D01*
Y2161208D01*
X1214902D02*
X1224902D01*
X1234902Y2171208D01*
X1244902Y2161208D01*
X1254902D01*
Y2171208D01*
X1244902Y2181208D01*
X1254902Y2191208D01*
Y2201208D01*
X1244902D01*
X1234902Y2191208D01*
X1224902Y2201208D01*
X1214902D01*
Y2191208D01*
X1224902Y2181208D01*
X1214902Y2171208D01*
Y2161208D01*
X1234744D02*
X1244744D01*
X1254744Y2171208D01*
X1264744Y2161208D01*
X1274744D01*
Y2171208D01*
X1264744Y2181208D01*
X1274744Y2191208D01*
Y2201208D01*
X1264744D01*
X1254744Y2191208D01*
X1244744Y2201208D01*
X1234744D01*
Y2191208D01*
X1244744Y2181208D01*
X1234744Y2171208D01*
Y2161208D01*
X1254587D02*
X1264587D01*
X1274587Y2171208D01*
X1284587Y2161208D01*
X1294587D01*
Y2171208D01*
X1284587Y2181208D01*
X1294587Y2191208D01*
Y2201208D01*
X1284587D01*
X1274587Y2191208D01*
X1264587Y2201208D01*
X1254587D01*
Y2191208D01*
X1264587Y2181208D01*
X1254587Y2171208D01*
Y2161208D01*
X1274429D02*
X1284429D01*
X1294429Y2171208D01*
X1304429Y2161208D01*
X1314429D01*
Y2171208D01*
X1304429Y2181208D01*
X1314429Y2191208D01*
Y2201208D01*
X1304429D01*
X1294429Y2191208D01*
X1284429Y2201208D01*
X1274429D01*
Y2191208D01*
X1284429Y2181208D01*
X1274429Y2171208D01*
Y2161208D01*
X1294272D02*
X1304272D01*
X1314272Y2171208D01*
X1324272Y2161208D01*
X1334272D01*
Y2171208D01*
X1324272Y2181208D01*
X1334272Y2191208D01*
Y2201208D01*
X1324272D01*
X1314272Y2191208D01*
X1304272Y2201208D01*
X1294272D01*
Y2191208D01*
X1304272Y2181208D01*
X1294272Y2171208D01*
Y2161208D01*
X1314114D02*
X1324114D01*
X1334114Y2171208D01*
X1344114Y2161208D01*
X1354114D01*
Y2171208D01*
X1344114Y2181208D01*
X1354114Y2191208D01*
Y2201208D01*
X1344114D01*
X1334114Y2191208D01*
X1324114Y2201208D01*
X1314114D01*
Y2191208D01*
X1324114Y2181208D01*
X1314114Y2171208D01*
Y2161208D01*
X1333957D02*
X1343957D01*
X1353957Y2171208D01*
X1363957Y2161208D01*
X1373957D01*
Y2171208D01*
X1363957Y2181208D01*
X1373957Y2191208D01*
Y2201208D01*
X1363957D01*
X1353957Y2191208D01*
X1343957Y2201208D01*
X1333957D01*
Y2191208D01*
X1343957Y2181208D01*
X1333957Y2171208D01*
Y2161208D01*
X1353799D02*
X1363799D01*
X1373799Y2171208D01*
X1383799Y2161208D01*
X1393799D01*
Y2171208D01*
X1383799Y2181208D01*
X1393799Y2191208D01*
Y2201208D01*
X1383799D01*
X1373799Y2191208D01*
X1363799Y2201208D01*
X1353799D01*
Y2191208D01*
X1363799Y2181208D01*
X1353799Y2171208D01*
Y2161208D01*
X1373642D02*
X1383642D01*
X1393642Y2171208D01*
X1403642Y2161208D01*
X1413642D01*
Y2171208D01*
X1403642Y2181208D01*
X1413642Y2191208D01*
Y2201208D01*
X1403642D01*
X1393642Y2191208D01*
X1383642Y2201208D01*
X1373642D01*
Y2191208D01*
X1383642Y2181208D01*
X1373642Y2171208D01*
Y2161208D01*
X1393484D02*
X1403484D01*
X1413484Y2171208D01*
X1423484Y2161208D01*
X1433484D01*
Y2171208D01*
X1423484Y2181208D01*
X1433484Y2191208D01*
Y2201208D01*
X1423484D01*
X1413484Y2191208D01*
X1403484Y2201208D01*
X1393484D01*
Y2191208D01*
X1403484Y2181208D01*
X1393484Y2171208D01*
Y2161208D01*
X1413327D02*
X1423327D01*
X1433327Y2171208D01*
X1443327Y2161208D01*
X1453327D01*
Y2171208D01*
X1443327Y2181208D01*
X1453327Y2191208D01*
Y2201208D01*
X1443327D01*
X1433327Y2191208D01*
X1423327Y2201208D01*
X1413327D01*
Y2191208D01*
X1423327Y2181208D01*
X1413327Y2171208D01*
Y2161208D01*
X1433169D02*
X1443169D01*
X1453169Y2171208D01*
X1463169Y2161208D01*
X1473169D01*
Y2171208D01*
X1463169Y2181208D01*
X1473169Y2191208D01*
Y2201208D01*
X1463169D01*
X1453169Y2191208D01*
X1443169Y2201208D01*
X1433169D01*
Y2191208D01*
X1443169Y2181208D01*
X1433169Y2171208D01*
Y2161208D01*
X1451120D02*
X1461120D01*
X1471120Y2171208D01*
X1481120Y2161208D01*
X1491120D01*
Y2171208D01*
X1481120Y2181208D01*
X1491120Y2191208D01*
Y2201208D01*
X1481120D01*
X1471120Y2191208D01*
X1461120Y2201208D01*
X1451120D01*
Y2191208D01*
X1461120Y2181208D01*
X1451120Y2171208D01*
Y2161208D01*
X1470962D02*
X1480962D01*
X1490962Y2171208D01*
X1500962Y2161208D01*
X1510962D01*
Y2171208D01*
X1500962Y2181208D01*
X1510962Y2191208D01*
Y2201208D01*
X1500962D01*
X1490962Y2191208D01*
X1480962Y2201208D01*
X1470962D01*
Y2191208D01*
X1480962Y2181208D01*
X1470962Y2171208D01*
Y2161208D01*
X1490805D02*
X1500805D01*
X1510805Y2171208D01*
X1520805Y2161208D01*
X1530805D01*
Y2171208D01*
X1520805Y2181208D01*
X1530805Y2191208D01*
Y2201208D01*
X1520805D01*
X1510805Y2191208D01*
X1500805Y2201208D01*
X1490805D01*
Y2191208D01*
X1500805Y2181208D01*
X1490805Y2171208D01*
Y2161208D01*
X1510647D02*
X1520647D01*
X1530647Y2171208D01*
X1540647Y2161208D01*
X1550647D01*
Y2171208D01*
X1540647Y2181208D01*
X1550647Y2191208D01*
Y2201208D01*
X1540647D01*
X1530647Y2191208D01*
X1520647Y2201208D01*
X1510647D01*
Y2191208D01*
X1520647Y2181208D01*
X1510647Y2171208D01*
Y2161208D01*
X1530490D02*
X1540490D01*
X1550490Y2171208D01*
X1560490Y2161208D01*
X1570490D01*
Y2171208D01*
X1560490Y2181208D01*
X1570490Y2191208D01*
Y2201208D01*
X1560490D01*
X1550490Y2191208D01*
X1540490Y2201208D01*
X1530490D01*
Y2191208D01*
X1540490Y2181208D01*
X1530490Y2171208D01*
Y2161208D01*
X1550332D02*
X1560332D01*
X1570332Y2171208D01*
X1580332Y2161208D01*
X1590332D01*
Y2171208D01*
X1580332Y2181208D01*
X1590332Y2191208D01*
Y2201208D01*
X1580332D01*
X1570332Y2191208D01*
X1560332Y2201208D01*
X1550332D01*
Y2191208D01*
X1560332Y2181208D01*
X1550332Y2171208D01*
Y2161208D01*
X1570175D02*
X1580175D01*
X1590175Y2171208D01*
X1600175Y2161208D01*
X1610175D01*
Y2171208D01*
X1600175Y2181208D01*
X1610175Y2191208D01*
Y2201208D01*
X1600175D01*
X1590175Y2191208D01*
X1580175Y2201208D01*
X1570175D01*
Y2191208D01*
X1580175Y2181208D01*
X1570175Y2171208D01*
Y2161208D01*
X1590017D02*
X1600017D01*
X1610017Y2171208D01*
X1620017Y2161208D01*
X1630017D01*
Y2171208D01*
X1620017Y2181208D01*
X1630017Y2191208D01*
Y2201208D01*
X1620017D01*
X1610017Y2191208D01*
X1600017Y2201208D01*
X1590017D01*
Y2191208D01*
X1600017Y2181208D01*
X1590017Y2171208D01*
Y2161208D01*
X1609860D02*
X1619860D01*
X1629860Y2171208D01*
X1639860Y2161208D01*
X1649860D01*
Y2171208D01*
X1639860Y2181208D01*
X1649860Y2191208D01*
Y2201208D01*
X1639860D01*
X1629860Y2191208D01*
X1619860Y2201208D01*
X1609860D01*
Y2191208D01*
X1619860Y2181208D01*
X1609860Y2171208D01*
Y2161208D01*
X1649545D02*
X1659545D01*
X1669545Y2171208D01*
X1679545Y2161208D01*
X1689545D01*
Y2171208D01*
X1679545Y2181208D01*
X1689545Y2191208D01*
Y2201208D01*
X1679545D01*
X1669545Y2191208D01*
X1659545Y2201208D01*
X1649545D01*
Y2191208D01*
X1659545Y2181208D01*
X1649545Y2171208D01*
Y2161208D01*
X1669387D02*
X1679387D01*
X1689387Y2171208D01*
X1699387Y2161208D01*
X1709387D01*
Y2171208D01*
X1699387Y2181208D01*
X1709387Y2191208D01*
Y2201208D01*
X1699387D01*
X1689387Y2191208D01*
X1679387Y2201208D01*
X1669387D01*
Y2191208D01*
X1679387Y2181208D01*
X1669387Y2171208D01*
Y2161208D01*
X1689230D02*
X1699230D01*
X1709230Y2171208D01*
X1719230Y2161208D01*
X1729230D01*
Y2171208D01*
X1719230Y2181208D01*
X1729230Y2191208D01*
Y2201208D01*
X1719230D01*
X1709230Y2191208D01*
X1699230Y2201208D01*
X1689230D01*
Y2191208D01*
X1699230Y2181208D01*
X1689230Y2171208D01*
Y2161208D01*
X1709072D02*
X1719072D01*
X1729072Y2171208D01*
X1739072Y2161208D01*
X1749072D01*
Y2171208D01*
X1739072Y2181208D01*
X1749072Y2191208D01*
Y2201208D01*
X1739072D01*
X1729072Y2191208D01*
X1719072Y2201208D01*
X1709072D01*
Y2191208D01*
X1719072Y2181208D01*
X1709072Y2171208D01*
Y2161208D01*
X1728915D02*
X1738915D01*
X1748915Y2171208D01*
X1758915Y2161208D01*
X1768915D01*
Y2171208D01*
X1758915Y2181208D01*
X1768915Y2191208D01*
Y2201208D01*
X1758915D01*
X1748915Y2191208D01*
X1738915Y2201208D01*
X1728915D01*
Y2191208D01*
X1738915Y2181208D01*
X1728915Y2171208D01*
Y2161208D01*
X1746529D02*
X1756529D01*
X1766529Y2171208D01*
X1776529Y2161208D01*
X1786529D01*
Y2171208D01*
X1776529Y2181208D01*
X1786529Y2191208D01*
Y2201208D01*
X1776529D01*
X1766529Y2191208D01*
X1756529Y2201208D01*
X1746529D01*
Y2191208D01*
X1756529Y2181208D01*
X1746529Y2171208D01*
Y2161208D01*
X1786214D02*
X1796214D01*
X1806214Y2171208D01*
X1816214Y2161208D01*
X1826214D01*
Y2171208D01*
X1816214Y2181208D01*
X1826214Y2191208D01*
Y2201208D01*
X1816214D01*
X1806214Y2191208D01*
X1796214Y2201208D01*
X1786214D01*
Y2191208D01*
X1796214Y2181208D01*
X1786214Y2171208D01*
Y2161208D01*
X1845741D02*
X1855741D01*
X1865741Y2171208D01*
X1875741Y2161208D01*
X1885741D01*
Y2171208D01*
X1875741Y2181208D01*
X1885741Y2191208D01*
Y2201208D01*
X1875741D01*
X1865741Y2191208D01*
X1855741Y2201208D01*
X1845741D01*
Y2191208D01*
X1855741Y2181208D01*
X1845741Y2171208D01*
Y2161208D01*
X1905269D02*
X1915269D01*
X1925269Y2171208D01*
X1935269Y2161208D01*
X1945269D01*
Y2171208D01*
X1935269Y2181208D01*
X1945269Y2191208D01*
Y2201208D01*
X1935269D01*
X1925269Y2191208D01*
X1915269Y2201208D01*
X1905269D01*
Y2191208D01*
X1915269Y2181208D01*
X1905269Y2171208D01*
Y2161208D01*
X1944954D02*
X1954954D01*
X1964954Y2171208D01*
X1974954Y2161208D01*
X1984954D01*
Y2171208D01*
X1974954Y2181208D01*
X1984954Y2191208D01*
Y2201208D01*
X1974954D01*
X1964954Y2191208D01*
X1954954Y2201208D01*
X1944954D01*
Y2191208D01*
X1954954Y2181208D01*
X1944954Y2171208D01*
Y2161208D01*
X1964796D02*
X1974796D01*
X1984796Y2171208D01*
X1994796Y2161208D01*
X2004796D01*
Y2171208D01*
X1994796Y2181208D01*
X2004796Y2191208D01*
Y2201208D01*
X1994796D01*
X1984796Y2191208D01*
X1974796Y2201208D01*
X1964796D01*
Y2191208D01*
X1974796Y2181208D01*
X1964796Y2171208D01*
Y2161208D01*
X1984639D02*
X1994639D01*
X2004639Y2171208D01*
X2014639Y2161208D01*
X2024639D01*
Y2171208D01*
X2014639Y2181208D01*
X2024639Y2191208D01*
Y2201208D01*
X2014639D01*
X2004639Y2191208D01*
X1994639Y2201208D01*
X1984639D01*
Y2191208D01*
X1994639Y2181208D01*
X1984639Y2171208D01*
Y2161208D01*
X2004481D02*
X2014481D01*
X2024481Y2171208D01*
X2034481Y2161208D01*
X2044481D01*
Y2171208D01*
X2034481Y2181208D01*
X2044481Y2191208D01*
Y2201208D01*
X2034481D01*
X2024481Y2191208D01*
X2014481Y2201208D01*
X2004481D01*
Y2191208D01*
X2014481Y2181208D01*
X2004481Y2171208D01*
Y2161208D01*
X2024324D02*
X2034324D01*
X2044324Y2171208D01*
X2054324Y2161208D01*
X2064324D01*
Y2171208D01*
X2054324Y2181208D01*
X2064324Y2191208D01*
Y2201208D01*
X2054324D01*
X2044324Y2191208D01*
X2034324Y2201208D01*
X2024324D01*
Y2191208D01*
X2034324Y2181208D01*
X2024324Y2171208D01*
Y2161208D01*
X2086994D02*
X2096994D01*
X2106994Y2171208D01*
X2116994Y2161208D01*
X2126994D01*
Y2171208D01*
X2116994Y2181208D01*
X2126994Y2191208D01*
Y2201208D01*
X2116994D01*
X2106994Y2191208D01*
X2096994Y2201208D01*
X2086994D01*
Y2191208D01*
X2096994Y2181208D01*
X2086994Y2171208D01*
Y2161208D01*
X2146521D02*
X2156521D01*
X2166521Y2171208D01*
X2176521Y2161208D01*
X2186521D01*
Y2171208D01*
X2176521Y2181208D01*
X2186521Y2191208D01*
Y2201208D01*
X2176521D01*
X2166521Y2191208D01*
X2156521Y2201208D01*
X2146521D01*
Y2191208D01*
X2156521Y2181208D01*
X2146521Y2171208D01*
Y2161208D01*
X2166364D02*
X2176364D01*
X2186364Y2171208D01*
X2196364Y2161208D01*
X2206364D01*
Y2171208D01*
X2196364Y2181208D01*
X2206364Y2191208D01*
Y2201208D01*
X2196364D01*
X2186364Y2191208D01*
X2176364Y2201208D01*
X2166364D01*
Y2191208D01*
X2176364Y2181208D01*
X2166364Y2171208D01*
Y2161208D01*
X2186206D02*
X2196206D01*
X2206206Y2171208D01*
X2216206Y2161208D01*
X2226206D01*
Y2171208D01*
X2216206Y2181208D01*
X2226206Y2191208D01*
Y2201208D01*
X2216206D01*
X2206206Y2191208D01*
X2196206Y2201208D01*
X2186206D01*
Y2191208D01*
X2196206Y2181208D01*
X2186206Y2171208D01*
Y2161208D01*
X2206049D02*
X2216049D01*
X2226049Y2171208D01*
X2236049Y2161208D01*
X2246049D01*
Y2171208D01*
X2236049Y2181208D01*
X2246049Y2191208D01*
Y2201208D01*
X2236049D01*
X2226049Y2191208D01*
X2216049Y2201208D01*
X2206049D01*
Y2191208D01*
X2216049Y2181208D01*
X2206049Y2171208D01*
Y2161208D01*
X2225892D02*
X2235892D01*
X2245892Y2171208D01*
X2255892Y2161208D01*
X2265892D01*
Y2171208D01*
X2255892Y2181208D01*
X2265892Y2191208D01*
Y2201208D01*
X2255892D01*
X2245892Y2191208D01*
X2235892Y2201208D01*
X2225892D01*
Y2191208D01*
X2235892Y2181208D01*
X2225892Y2171208D01*
Y2161208D01*
X2245734D02*
X2255734D01*
X2265734Y2171208D01*
X2275734Y2161208D01*
X2285734D01*
Y2171208D01*
X2275734Y2181208D01*
X2285734Y2191208D01*
Y2201208D01*
X2275734D01*
X2265734Y2191208D01*
X2255734Y2201208D01*
X2245734D01*
Y2191208D01*
X2255734Y2181208D01*
X2245734Y2171208D01*
Y2161208D01*
X2265577D02*
X2275577D01*
X2285577Y2171208D01*
X2295577Y2161208D01*
X2305577D01*
Y2171208D01*
X2295577Y2181208D01*
X2305577Y2191208D01*
Y2201208D01*
X2295577D01*
X2285577Y2191208D01*
X2275577Y2201208D01*
X2265577D01*
Y2191208D01*
X2275577Y2181208D01*
X2265577Y2171208D01*
Y2161208D01*
X2285419D02*
X2295419D01*
X2305419Y2171208D01*
X2315419Y2161208D01*
X2325419D01*
Y2171208D01*
X2315419Y2181208D01*
X2325419Y2191208D01*
Y2201208D01*
X2315419D01*
X2305419Y2191208D01*
X2295419Y2201208D01*
X2285419D01*
Y2191208D01*
X2295419Y2181208D01*
X2285419Y2171208D01*
Y2161208D01*
X2305262D02*
X2315262D01*
X2325262Y2171208D01*
X2335262Y2161208D01*
X2345262D01*
Y2171208D01*
X2335262Y2181208D01*
X2345262Y2191208D01*
Y2201208D01*
X2335262D01*
X2325262Y2191208D01*
X2315262Y2201208D01*
X2305262D01*
Y2191208D01*
X2315262Y2181208D01*
X2305262Y2171208D01*
Y2161208D01*
X2325104D02*
X2335104D01*
X2345104Y2171208D01*
X2355104Y2161208D01*
X2365104D01*
Y2171208D01*
X2355104Y2181208D01*
X2365104Y2191208D01*
Y2201208D01*
X2355104D01*
X2345104Y2191208D01*
X2335104Y2201208D01*
X2325104D01*
Y2191208D01*
X2335104Y2181208D01*
X2325104Y2171208D01*
Y2161208D01*
X2380459Y2115985D02*
X2390459D01*
X2400459Y2125985D01*
X2410459Y2115985D01*
X2420459D01*
Y2125985D01*
X2410459Y2135985D01*
X2420459Y2145985D01*
Y2155985D01*
X2410459D01*
X2400459Y2145985D01*
X2390459Y2155985D01*
X2380459D01*
Y2145985D01*
X2390459Y2135985D01*
X2380459Y2125985D01*
Y2115985D01*
X2360616D02*
X2370616D01*
X2380616Y2125985D01*
X2390616Y2115985D01*
X2400616D01*
Y2125985D01*
X2390616Y2135985D01*
X2400616Y2145985D01*
Y2155985D01*
X2390616D01*
X2380616Y2145985D01*
X2370616Y2155985D01*
X2360616D01*
Y2145985D01*
X2370616Y2135985D01*
X2360616Y2125985D01*
Y2115985D01*
X2340774D02*
X2350774D01*
X2360774Y2125985D01*
X2370774Y2115985D01*
X2380774D01*
Y2125985D01*
X2370774Y2135985D01*
X2380774Y2145985D01*
Y2155985D01*
X2370774D01*
X2360774Y2145985D01*
X2350774Y2155985D01*
X2340774D01*
Y2145985D01*
X2350774Y2135985D01*
X2340774Y2125985D01*
Y2115985D01*
X2301089D02*
X2311089D01*
X2321089Y2125985D01*
X2331089Y2115985D01*
X2341089D01*
Y2125985D01*
X2331089Y2135985D01*
X2341089Y2145985D01*
Y2155985D01*
X2331089D01*
X2321089Y2145985D01*
X2311089Y2155985D01*
X2301089D01*
Y2145985D01*
X2311089Y2135985D01*
X2301089Y2125985D01*
Y2115985D01*
X2281246D02*
X2291246D01*
X2301246Y2125985D01*
X2311246Y2115985D01*
X2321246D01*
Y2125985D01*
X2311246Y2135985D01*
X2321246Y2145985D01*
Y2155985D01*
X2311246D01*
X2301246Y2145985D01*
X2291246Y2155985D01*
X2281246D01*
Y2145985D01*
X2291246Y2135985D01*
X2281246Y2125985D01*
Y2115985D01*
X2261404D02*
X2271404D01*
X2281404Y2125985D01*
X2291404Y2115985D01*
X2301404D01*
Y2125985D01*
X2291404Y2135985D01*
X2301404Y2145985D01*
Y2155985D01*
X2291404D01*
X2281404Y2145985D01*
X2271404Y2155985D01*
X2261404D01*
Y2145985D01*
X2271404Y2135985D01*
X2261404Y2125985D01*
Y2115985D01*
X2241561D02*
X2251561D01*
X2261561Y2125985D01*
X2271561Y2115985D01*
X2281561D01*
Y2125985D01*
X2271561Y2135985D01*
X2281561Y2145985D01*
Y2155985D01*
X2271561D01*
X2261561Y2145985D01*
X2251561Y2155985D01*
X2241561D01*
Y2145985D01*
X2251561Y2135985D01*
X2241561Y2125985D01*
Y2115985D01*
X2221719D02*
X2231719D01*
X2241719Y2125985D01*
X2251719Y2115985D01*
X2261719D01*
Y2125985D01*
X2251719Y2135985D01*
X2261719Y2145985D01*
Y2155985D01*
X2251719D01*
X2241719Y2145985D01*
X2231719Y2155985D01*
X2221719D01*
Y2145985D01*
X2231719Y2135985D01*
X2221719Y2125985D01*
Y2115985D01*
X2201876D02*
X2211876D01*
X2221876Y2125985D01*
X2231876Y2115985D01*
X2241876D01*
Y2125985D01*
X2231876Y2135985D01*
X2241876Y2145985D01*
Y2155985D01*
X2231876D01*
X2221876Y2145985D01*
X2211876Y2155985D01*
X2201876D01*
Y2145985D01*
X2211876Y2135985D01*
X2201876Y2125985D01*
Y2115985D01*
X2182034D02*
X2192034D01*
X2202034Y2125985D01*
X2212034Y2115985D01*
X2222034D01*
Y2125985D01*
X2212034Y2135985D01*
X2222034Y2145985D01*
Y2155985D01*
X2212034D01*
X2202034Y2145985D01*
X2192034Y2155985D01*
X2182034D01*
Y2145985D01*
X2192034Y2135985D01*
X2182034Y2125985D01*
Y2115985D01*
X2162191D02*
X2172191D01*
X2182191Y2125985D01*
X2192191Y2115985D01*
X2202191D01*
Y2125985D01*
X2192191Y2135985D01*
X2202191Y2145985D01*
Y2155985D01*
X2192191D01*
X2182191Y2145985D01*
X2172191Y2155985D01*
X2162191D01*
Y2145985D01*
X2172191Y2135985D01*
X2162191Y2125985D01*
Y2115985D01*
X2142349D02*
X2152349D01*
X2162349Y2125985D01*
X2172349Y2115985D01*
X2182349D01*
Y2125985D01*
X2172349Y2135985D01*
X2182349Y2145985D01*
Y2155985D01*
X2172349D01*
X2162349Y2145985D01*
X2152349Y2155985D01*
X2142349D01*
Y2145985D01*
X2152349Y2135985D01*
X2142349Y2125985D01*
Y2115985D01*
X2119698D02*
X2129698D01*
X2139698Y2125985D01*
X2149698Y2115985D01*
X2159698D01*
Y2125985D01*
X2149698Y2135985D01*
X2159698Y2145985D01*
Y2155985D01*
X2149698D01*
X2139698Y2145985D01*
X2129698Y2155985D01*
X2119698D01*
Y2145985D01*
X2129698Y2135985D01*
X2119698Y2125985D01*
Y2115985D01*
X2099856D02*
X2109856D01*
X2119856Y2125985D01*
X2129856Y2115985D01*
X2139856D01*
Y2125985D01*
X2129856Y2135985D01*
X2139856Y2145985D01*
Y2155985D01*
X2129856D01*
X2119856Y2145985D01*
X2109856Y2155985D01*
X2099856D01*
Y2145985D01*
X2109856Y2135985D01*
X2099856Y2125985D01*
Y2115985D01*
X2080013D02*
X2090013D01*
X2100013Y2125985D01*
X2110013Y2115985D01*
X2120013D01*
Y2125985D01*
X2110013Y2135985D01*
X2120013Y2145985D01*
Y2155985D01*
X2110013D01*
X2100013Y2145985D01*
X2090013Y2155985D01*
X2080013D01*
Y2145985D01*
X2090013Y2135985D01*
X2080013Y2125985D01*
Y2115985D01*
X2060171D02*
X2070171D01*
X2080171Y2125985D01*
X2090171Y2115985D01*
X2100171D01*
Y2125985D01*
X2090171Y2135985D01*
X2100171Y2145985D01*
Y2155985D01*
X2090171D01*
X2080171Y2145985D01*
X2070171Y2155985D01*
X2060171D01*
Y2145985D01*
X2070171Y2135985D01*
X2060171Y2125985D01*
Y2115985D01*
X2040328D02*
X2050328D01*
X2060328Y2125985D01*
X2070328Y2115985D01*
X2080328D01*
Y2125985D01*
X2070328Y2135985D01*
X2080328Y2145985D01*
Y2155985D01*
X2070328D01*
X2060328Y2145985D01*
X2050328Y2155985D01*
X2040328D01*
Y2145985D01*
X2050328Y2135985D01*
X2040328Y2125985D01*
Y2115985D01*
X2020486D02*
X2030486D01*
X2040486Y2125985D01*
X2050485Y2115985D01*
X2060485D01*
Y2125985D01*
X2050485Y2135985D01*
X2060485Y2145985D01*
Y2155985D01*
X2050485D01*
X2040486Y2145985D01*
X2030486Y2155985D01*
X2020486D01*
Y2145985D01*
X2030486Y2135985D01*
X2020486Y2125985D01*
Y2115985D01*
X2000643D02*
X2010643D01*
X2020643Y2125985D01*
X2030643Y2115985D01*
X2040643D01*
Y2125985D01*
X2030643Y2135985D01*
X2040643Y2145985D01*
Y2155985D01*
X2030643D01*
X2020643Y2145985D01*
X2010643Y2155985D01*
X2000643D01*
Y2145985D01*
X2010643Y2135985D01*
X2000643Y2125985D01*
Y2115985D01*
X1980801D02*
X1990801D01*
X2000801Y2125985D01*
X2010801Y2115985D01*
X2020801D01*
Y2125985D01*
X2010801Y2135985D01*
X2020801Y2145985D01*
Y2155985D01*
X2010801D01*
X2000801Y2145985D01*
X1990801Y2155985D01*
X1980801D01*
Y2145985D01*
X1990801Y2135985D01*
X1980801Y2125985D01*
Y2115985D01*
X1960958D02*
X1970958D01*
X1980958Y2125985D01*
X1990958Y2115985D01*
X2000958D01*
Y2125985D01*
X1990958Y2135985D01*
X2000958Y2145985D01*
Y2155985D01*
X1990958D01*
X1980958Y2145985D01*
X1970958Y2155985D01*
X1960958D01*
Y2145985D01*
X1970958Y2135985D01*
X1960958Y2125985D01*
Y2115985D01*
X1941116D02*
X1951116D01*
X1961116Y2125985D01*
X1971116Y2115985D01*
X1981116D01*
Y2125985D01*
X1971116Y2135985D01*
X1981116Y2145985D01*
Y2155985D01*
X1971116D01*
X1961116Y2145985D01*
X1951116Y2155985D01*
X1941116D01*
Y2145985D01*
X1951116Y2135985D01*
X1941116Y2125985D01*
Y2115985D01*
X1921273D02*
X1931273D01*
X1941273Y2125985D01*
X1951273Y2115985D01*
X1961273D01*
Y2125985D01*
X1951273Y2135985D01*
X1961273Y2145985D01*
Y2155985D01*
X1951273D01*
X1941273Y2145985D01*
X1931273Y2155985D01*
X1921273D01*
Y2145985D01*
X1931273Y2135985D01*
X1921273Y2125985D01*
Y2115985D01*
X1901430D02*
X1911430D01*
X1921430Y2125985D01*
X1931430Y2115985D01*
X1941430D01*
Y2125985D01*
X1931430Y2135985D01*
X1941430Y2145985D01*
Y2155985D01*
X1931430D01*
X1921430Y2145985D01*
X1911430Y2155985D01*
X1901430D01*
Y2145985D01*
X1911430Y2135985D01*
X1901430Y2125985D01*
Y2115985D01*
X1881588D02*
X1891588D01*
X1901588Y2125985D01*
X1911588Y2115985D01*
X1921588D01*
Y2125985D01*
X1911588Y2135985D01*
X1921588Y2145985D01*
Y2155985D01*
X1911588D01*
X1901588Y2145985D01*
X1891588Y2155985D01*
X1881588D01*
Y2145985D01*
X1891588Y2135985D01*
X1881588Y2125985D01*
Y2115985D01*
X1861745D02*
X1871745D01*
X1881745Y2125985D01*
X1891745Y2115985D01*
X1901745D01*
Y2125985D01*
X1891745Y2135985D01*
X1901745Y2145985D01*
Y2155985D01*
X1891745D01*
X1881745Y2145985D01*
X1871745Y2155985D01*
X1861745D01*
Y2145985D01*
X1871745Y2135985D01*
X1861745Y2125985D01*
Y2115985D01*
X1841903D02*
X1851903D01*
X1861903Y2125985D01*
X1871903Y2115985D01*
X1881903D01*
Y2125985D01*
X1871903Y2135985D01*
X1881903Y2145985D01*
Y2155985D01*
X1871903D01*
X1861903Y2145985D01*
X1851903Y2155985D01*
X1841903D01*
Y2145985D01*
X1851903Y2135985D01*
X1841903Y2125985D01*
Y2115985D01*
X1822946D02*
X1832946D01*
X1842946Y2125985D01*
X1852946Y2115985D01*
X1862946D01*
Y2125985D01*
X1852946Y2135985D01*
X1862946Y2145985D01*
Y2155985D01*
X1852946D01*
X1842946Y2145985D01*
X1832946Y2155985D01*
X1822946D01*
Y2145985D01*
X1832946Y2135985D01*
X1822946Y2125985D01*
Y2115985D01*
X1803103D02*
X1813103D01*
X1823103Y2125985D01*
X1833103Y2115985D01*
X1843103D01*
Y2125985D01*
X1833103Y2135985D01*
X1843103Y2145985D01*
Y2155985D01*
X1833103D01*
X1823103Y2145985D01*
X1813103Y2155985D01*
X1803103D01*
Y2145985D01*
X1813103Y2135985D01*
X1803103Y2125985D01*
Y2115985D01*
X1783261D02*
X1793261D01*
X1803261Y2125985D01*
X1813261Y2115985D01*
X1823261D01*
Y2125985D01*
X1813261Y2135985D01*
X1823261Y2145985D01*
Y2155985D01*
X1813261D01*
X1803261Y2145985D01*
X1793261Y2155985D01*
X1783261D01*
Y2145985D01*
X1793261Y2135985D01*
X1783261Y2125985D01*
Y2115985D01*
X1763418D02*
X1773418D01*
X1783418Y2125985D01*
X1793418Y2115985D01*
X1803418D01*
Y2125985D01*
X1793418Y2135985D01*
X1803418Y2145985D01*
Y2155985D01*
X1793418D01*
X1783418Y2145985D01*
X1773418Y2155985D01*
X1763418D01*
Y2145985D01*
X1773418Y2135985D01*
X1763418Y2125985D01*
Y2115985D01*
X1743576D02*
X1753576D01*
X1763576Y2125985D01*
X1773576Y2115985D01*
X1783576D01*
Y2125985D01*
X1773576Y2135985D01*
X1783576Y2145985D01*
Y2155985D01*
X1773576D01*
X1763576Y2145985D01*
X1753576Y2155985D01*
X1743576D01*
Y2145985D01*
X1753576Y2135985D01*
X1743576Y2125985D01*
Y2115985D01*
X1723734D02*
X1733734D01*
X1743734Y2125985D01*
X1753734Y2115985D01*
X1763734D01*
Y2125985D01*
X1753734Y2135985D01*
X1763734Y2145985D01*
Y2155985D01*
X1753734D01*
X1743734Y2145985D01*
X1733734Y2155985D01*
X1723734D01*
Y2145985D01*
X1733734Y2135985D01*
X1723734Y2125985D01*
Y2115985D01*
X1703891D02*
X1713891D01*
X1723891Y2125985D01*
X1733891Y2115985D01*
X1743891D01*
Y2125985D01*
X1733891Y2135985D01*
X1743891Y2145985D01*
Y2155985D01*
X1733891D01*
X1723891Y2145985D01*
X1713891Y2155985D01*
X1703891D01*
Y2145985D01*
X1713891Y2135985D01*
X1703891Y2125985D01*
Y2115985D01*
X1684049D02*
X1694049D01*
X1704049Y2125985D01*
X1714049Y2115985D01*
X1724049D01*
Y2125985D01*
X1714049Y2135985D01*
X1724049Y2145985D01*
Y2155985D01*
X1714049D01*
X1704049Y2145985D01*
X1694049Y2155985D01*
X1684049D01*
Y2145985D01*
X1694049Y2135985D01*
X1684049Y2125985D01*
Y2115985D01*
X1664206D02*
X1674206D01*
X1684206Y2125985D01*
X1694206Y2115985D01*
X1704206D01*
Y2125985D01*
X1694206Y2135985D01*
X1704206Y2145985D01*
Y2155985D01*
X1694206D01*
X1684206Y2145985D01*
X1674206Y2155985D01*
X1664206D01*
Y2145985D01*
X1674206Y2135985D01*
X1664206Y2125985D01*
Y2115985D01*
X1644363D02*
X1654363D01*
X1664363Y2125985D01*
X1674363Y2115985D01*
X1684363D01*
Y2125985D01*
X1674363Y2135985D01*
X1684363Y2145985D01*
Y2155985D01*
X1674363D01*
X1664363Y2145985D01*
X1654363Y2155985D01*
X1644363D01*
Y2145985D01*
X1654363Y2135985D01*
X1644363Y2125985D01*
Y2115985D01*
X1624521D02*
X1634521D01*
X1644521Y2125985D01*
X1654521Y2115985D01*
X1664521D01*
Y2125985D01*
X1654521Y2135985D01*
X1664521Y2145985D01*
Y2155985D01*
X1654521D01*
X1644521Y2145985D01*
X1634521Y2155985D01*
X1624521D01*
Y2145985D01*
X1634521Y2135985D01*
X1624521Y2125985D01*
Y2115985D01*
X1604678D02*
X1614678D01*
X1624678Y2125985D01*
X1634678Y2115985D01*
X1644678D01*
Y2125985D01*
X1634678Y2135985D01*
X1644678Y2145985D01*
Y2155985D01*
X1634678D01*
X1624678Y2145985D01*
X1614678Y2155985D01*
X1604678D01*
Y2145985D01*
X1614678Y2135985D01*
X1604678Y2125985D01*
Y2115985D01*
X1584836D02*
X1594836D01*
X1604836Y2125985D01*
X1614836Y2115985D01*
X1624836D01*
Y2125985D01*
X1614836Y2135985D01*
X1624836Y2145985D01*
Y2155985D01*
X1614836D01*
X1604836Y2145985D01*
X1594836Y2155985D01*
X1584836D01*
Y2145985D01*
X1594836Y2135985D01*
X1584836Y2125985D01*
Y2115985D01*
X1564994D02*
X1574994D01*
X1584994Y2125985D01*
X1594994Y2115985D01*
X1604994D01*
Y2125985D01*
X1594994Y2135985D01*
X1604994Y2145985D01*
Y2155985D01*
X1594994D01*
X1584994Y2145985D01*
X1574994Y2155985D01*
X1564994D01*
Y2145985D01*
X1574994Y2135985D01*
X1564994Y2125985D01*
Y2115985D01*
X1545151D02*
X1555151D01*
X1565151Y2125985D01*
X1575151Y2115985D01*
X1585151D01*
Y2125985D01*
X1575151Y2135985D01*
X1585151Y2145985D01*
Y2155985D01*
X1575151D01*
X1565151Y2145985D01*
X1555151Y2155985D01*
X1545151D01*
Y2145985D01*
X1555151Y2135985D01*
X1545151Y2125985D01*
Y2115985D01*
X1523844D02*
X1533844D01*
X1543844Y2125985D01*
X1553844Y2115985D01*
X1563844D01*
Y2125985D01*
X1553844Y2135985D01*
X1563844Y2145985D01*
Y2155985D01*
X1553844D01*
X1543844Y2145985D01*
X1533844Y2155985D01*
X1523844D01*
Y2145985D01*
X1533844Y2135985D01*
X1523844Y2125985D01*
Y2115985D01*
X1504002D02*
X1514002D01*
X1524002Y2125985D01*
X1534002Y2115985D01*
X1544002D01*
Y2125985D01*
X1534002Y2135985D01*
X1544002Y2145985D01*
Y2155985D01*
X1534002D01*
X1524002Y2145985D01*
X1514002Y2155985D01*
X1504002D01*
Y2145985D01*
X1514002Y2135985D01*
X1504002Y2125985D01*
Y2115985D01*
X1484159D02*
X1494159D01*
X1504159Y2125985D01*
X1514159Y2115985D01*
X1524159D01*
Y2125985D01*
X1514159Y2135985D01*
X1524159Y2145985D01*
Y2155985D01*
X1514159D01*
X1504159Y2145985D01*
X1494159Y2155985D01*
X1484159D01*
Y2145985D01*
X1494159Y2135985D01*
X1484159Y2125985D01*
Y2115985D01*
X1464317D02*
X1474317D01*
X1484317Y2125985D01*
X1494317Y2115985D01*
X1504317D01*
Y2125985D01*
X1494317Y2135985D01*
X1504317Y2145985D01*
Y2155985D01*
X1494317D01*
X1484317Y2145985D01*
X1474317Y2155985D01*
X1464317D01*
Y2145985D01*
X1474317Y2135985D01*
X1464317Y2125985D01*
Y2115985D01*
X1444474D02*
X1454474D01*
X1464474Y2125985D01*
X1474474Y2115985D01*
X1484474D01*
Y2125985D01*
X1474474Y2135985D01*
X1484474Y2145985D01*
Y2155985D01*
X1474474D01*
X1464474Y2145985D01*
X1454474Y2155985D01*
X1444474D01*
Y2145985D01*
X1454474Y2135985D01*
X1444474Y2125985D01*
Y2115985D01*
X1424632D02*
X1434632D01*
X1444632Y2125985D01*
X1454632Y2115985D01*
X1464632D01*
Y2125985D01*
X1454632Y2135985D01*
X1464632Y2145985D01*
Y2155985D01*
X1454632D01*
X1444632Y2145985D01*
X1434632Y2155985D01*
X1424632D01*
Y2145985D01*
X1434632Y2135985D01*
X1424632Y2125985D01*
Y2115985D01*
X1404789D02*
X1414789D01*
X1424789Y2125985D01*
X1434789Y2115985D01*
X1444789D01*
Y2125985D01*
X1434789Y2135985D01*
X1444789Y2145985D01*
Y2155985D01*
X1434789D01*
X1424789Y2145985D01*
X1414789Y2155985D01*
X1404789D01*
Y2145985D01*
X1414789Y2135985D01*
X1404789Y2125985D01*
Y2115985D01*
X1384947D02*
X1394947D01*
X1404947Y2125985D01*
X1414947Y2115985D01*
X1424947D01*
Y2125985D01*
X1414947Y2135985D01*
X1424947Y2145985D01*
Y2155985D01*
X1414947D01*
X1404947Y2145985D01*
X1394947Y2155985D01*
X1384947D01*
Y2145985D01*
X1394947Y2135985D01*
X1384947Y2125985D01*
Y2115985D01*
X1365104D02*
X1375104D01*
X1385104Y2125985D01*
X1395104Y2115985D01*
X1405104D01*
Y2125985D01*
X1395104Y2135985D01*
X1405104Y2145985D01*
Y2155985D01*
X1395104D01*
X1385104Y2145985D01*
X1375104Y2155985D01*
X1365104D01*
Y2145985D01*
X1375104Y2135985D01*
X1365104Y2125985D01*
Y2115985D01*
X1345262D02*
X1355262D01*
X1365262Y2125985D01*
X1375262Y2115985D01*
X1385262D01*
Y2125985D01*
X1375262Y2135985D01*
X1385262Y2145985D01*
Y2155985D01*
X1375262D01*
X1365262Y2145985D01*
X1355262Y2155985D01*
X1345262D01*
Y2145985D01*
X1355262Y2135985D01*
X1345262Y2125985D01*
Y2115985D01*
X1325419D02*
X1335419D01*
X1345419Y2125985D01*
X1355419Y2115985D01*
X1365419D01*
Y2125985D01*
X1355419Y2135985D01*
X1365419Y2145985D01*
Y2155985D01*
X1355419D01*
X1345419Y2145985D01*
X1335419Y2155985D01*
X1325419D01*
Y2145985D01*
X1335419Y2135985D01*
X1325419Y2125985D01*
Y2115985D01*
X1305577D02*
X1315577D01*
X1325577Y2125985D01*
X1335577Y2115985D01*
X1345577D01*
Y2125985D01*
X1335577Y2135985D01*
X1345577Y2145985D01*
Y2155985D01*
X1335577D01*
X1325577Y2145985D01*
X1315577Y2155985D01*
X1305577D01*
Y2145985D01*
X1315577Y2135985D01*
X1305577Y2125985D01*
Y2115985D01*
X1285734D02*
X1295734D01*
X1305734Y2125985D01*
X1315734Y2115985D01*
X1325734D01*
Y2125985D01*
X1315734Y2135985D01*
X1325734Y2145985D01*
Y2155985D01*
X1315734D01*
X1305734Y2145985D01*
X1295734Y2155985D01*
X1285734D01*
Y2145985D01*
X1295734Y2135985D01*
X1285734Y2125985D01*
Y2115985D01*
X1265892D02*
X1275892D01*
X1285892Y2125985D01*
X1295892Y2115985D01*
X1305892D01*
Y2125985D01*
X1295892Y2135985D01*
X1305892Y2145985D01*
Y2155985D01*
X1295892D01*
X1285892Y2145985D01*
X1275892Y2155985D01*
X1265892D01*
Y2145985D01*
X1275892Y2135985D01*
X1265892Y2125985D01*
Y2115985D01*
X1246049D02*
X1256049D01*
X1266049Y2125985D01*
X1276049Y2115985D01*
X1286049D01*
Y2125985D01*
X1276049Y2135985D01*
X1286049Y2145985D01*
Y2155985D01*
X1276049D01*
X1266049Y2145985D01*
X1256049Y2155985D01*
X1246049D01*
Y2145985D01*
X1256049Y2135985D01*
X1246049Y2125985D01*
Y2115985D01*
X1470211Y2045042D02*
X1480211D01*
X1490211Y2055042D01*
X1500211Y2045042D01*
X1510211D01*
Y2055042D01*
X1500211Y2065042D01*
X1510211Y2075042D01*
Y2085042D01*
X1500211D01*
X1490211Y2075042D01*
X1480211Y2085042D01*
X1470211D01*
Y2075042D01*
X1480211Y2065042D01*
X1470211Y2055042D01*
Y2045042D01*
X1450369Y2045035D02*
X1460369D01*
X1470369Y2055035D01*
X1480369Y2045035D01*
X1490369D01*
Y2055035D01*
X1480369Y2065035D01*
X1490369Y2075035D01*
Y2085035D01*
X1480369D01*
X1470369Y2075035D01*
X1460369Y2085035D01*
X1450369D01*
Y2075035D01*
X1460369Y2065035D01*
X1450369Y2055035D01*
Y2045035D01*
X1651564Y1960958D02*
X1661564D01*
X1671564Y1970958D01*
X1681564Y1960958D01*
X1691564D01*
Y1970958D01*
X1681564Y1980958D01*
X1691564Y1990958D01*
Y2000958D01*
X1681564D01*
X1671564Y1990958D01*
X1661564Y2000958D01*
X1651564D01*
Y1990958D01*
X1661564Y1980958D01*
X1651564Y1970958D01*
Y1960958D01*
X1691248Y1960729D02*
X1701248D01*
X1711248Y1970729D01*
X1721248Y1960729D01*
X1731248D01*
Y1970729D01*
X1721248Y1980729D01*
X1731248Y1990729D01*
Y2000729D01*
X1721248D01*
X1711248Y1990729D01*
X1701248Y2000729D01*
X1691248D01*
Y1990729D01*
X1701248Y1980729D01*
X1691248Y1970729D01*
Y1960729D01*
X1711090D02*
X1721090D01*
X1731090Y1970729D01*
X1741090Y1960729D01*
X1751090D01*
Y1970729D01*
X1741090Y1980729D01*
X1751090Y1990729D01*
Y2000729D01*
X1741090D01*
X1731090Y1990729D01*
X1721090Y2000729D01*
X1711090D01*
Y1990729D01*
X1721090Y1980729D01*
X1711090Y1970729D01*
Y1960729D01*
X1730933D02*
X1740933D01*
X1750933Y1970729D01*
X1760933Y1960729D01*
X1770933D01*
Y1970729D01*
X1760933Y1980729D01*
X1770933Y1990729D01*
Y2000729D01*
X1760933D01*
X1750933Y1990729D01*
X1740933Y2000729D01*
X1730933D01*
Y1990729D01*
X1740933Y1980729D01*
X1730933Y1970729D01*
Y1960729D01*
X1770618D02*
X1780618D01*
X1790618Y1970729D01*
X1800618Y1960729D01*
X1810618D01*
Y1970729D01*
X1800618Y1980729D01*
X1810618Y1990729D01*
Y2000729D01*
X1800618D01*
X1790618Y1990729D01*
X1780618Y2000729D01*
X1770618D01*
Y1990729D01*
X1780618Y1980729D01*
X1770618Y1970729D01*
Y1960729D01*
X1790460D02*
X1800460D01*
X1810460Y1970729D01*
X1820460Y1960729D01*
X1830460D01*
Y1970729D01*
X1820460Y1980729D01*
X1830460Y1990729D01*
Y2000729D01*
X1820460D01*
X1810460Y1990729D01*
X1800460Y2000729D01*
X1790460D01*
Y1990729D01*
X1800460Y1980729D01*
X1790460Y1970729D01*
Y1960729D01*
X1810303D02*
X1820303D01*
X1830303Y1970729D01*
X1840303Y1960729D01*
X1850303D01*
Y1970729D01*
X1840303Y1980729D01*
X1850303Y1990729D01*
Y2000729D01*
X1840303D01*
X1830303Y1990729D01*
X1820303Y2000729D01*
X1810303D01*
Y1990729D01*
X1820303Y1980729D01*
X1810303Y1970729D01*
Y1960729D01*
X1830145D02*
X1840145D01*
X1850145Y1970729D01*
X1860145Y1960729D01*
X1870145D01*
Y1970729D01*
X1860145Y1980729D01*
X1870145Y1990729D01*
Y2000729D01*
X1860145D01*
X1850145Y1990729D01*
X1840145Y2000729D01*
X1830145D01*
Y1990729D01*
X1840145Y1980729D01*
X1830145Y1970729D01*
Y1960729D01*
X1849988D02*
X1859988D01*
X1869988Y1970729D01*
X1879988Y1960729D01*
X1889988D01*
Y1970729D01*
X1879988Y1980729D01*
X1889988Y1990729D01*
Y2000729D01*
X1879988D01*
X1869988Y1990729D01*
X1859988Y2000729D01*
X1849988D01*
Y1990729D01*
X1859988Y1980729D01*
X1849988Y1970729D01*
Y1960729D01*
X1869830D02*
X1879830D01*
X1889830Y1970729D01*
X1899830Y1960729D01*
X1909830D01*
Y1970729D01*
X1899830Y1980729D01*
X1909830Y1990729D01*
Y2000729D01*
X1899830D01*
X1889830Y1990729D01*
X1879830Y2000729D01*
X1869830D01*
Y1990729D01*
X1879830Y1980729D01*
X1869830Y1970729D01*
Y1960729D01*
X1929358D02*
X1939358D01*
X1949358Y1970729D01*
X1959358Y1960729D01*
X1969358D01*
Y1970729D01*
X1959358Y1980729D01*
X1969358Y1990729D01*
Y2000729D01*
X1959358D01*
X1949358Y1990729D01*
X1939358Y2000729D01*
X1929358D01*
Y1990729D01*
X1939358Y1980729D01*
X1929358Y1970729D01*
Y1960729D01*
X2008728D02*
X2018728D01*
X2028728Y1970729D01*
X2038728Y1960729D01*
X2048728D01*
Y1970729D01*
X2038728Y1980729D01*
X2048728Y1990729D01*
Y2000729D01*
X2038728D01*
X2028728Y1990729D01*
X2018728Y2000729D01*
X2008728D01*
Y1990729D01*
X2018728Y1980729D01*
X2008728Y1970729D01*
Y1960729D01*
X2028570D02*
X2038570D01*
X2048570Y1970729D01*
X2058570Y1960729D01*
X2068570D01*
Y1970729D01*
X2058570Y1980729D01*
X2068570Y1990729D01*
Y2000729D01*
X2058570D01*
X2048570Y1990729D01*
X2038570Y2000729D01*
X2028570D01*
Y1990729D01*
X2038570Y1980729D01*
X2028570Y1970729D01*
Y1960729D01*
X2048413D02*
X2058413D01*
X2068413Y1970729D01*
X2078413Y1960729D01*
X2088413D01*
Y1970729D01*
X2078413Y1980729D01*
X2088413Y1990729D01*
Y2000729D01*
X2078413D01*
X2068413Y1990729D01*
X2058413Y2000729D01*
X2048413D01*
Y1990729D01*
X2058413Y1980729D01*
X2048413Y1970729D01*
Y1960729D01*
X2127783D02*
X2137783D01*
X2147783Y1970729D01*
X2157783Y1960729D01*
X2167783D01*
Y1970729D01*
X2157783Y1980729D01*
X2167783Y1990729D01*
Y2000729D01*
X2157783D01*
X2147783Y1990729D01*
X2137783Y2000729D01*
X2127783D01*
Y1990729D01*
X2137783Y1980729D01*
X2127783Y1970729D01*
Y1960729D01*
X2147625D02*
X2157625D01*
X2167625Y1970729D01*
X2177625Y1960729D01*
X2187625D01*
Y1970729D01*
X2177625Y1980729D01*
X2187625Y1990729D01*
Y2000729D01*
X2177625D01*
X2167625Y1990729D01*
X2157625Y2000729D01*
X2147625D01*
Y1990729D01*
X2157625Y1980729D01*
X2147625Y1970729D01*
Y1960729D01*
X2226995D02*
X2236995D01*
X2246995Y1970729D01*
X2256995Y1960729D01*
X2266995D01*
Y1970729D01*
X2256995Y1980729D01*
X2266995Y1990729D01*
Y2000729D01*
X2256995D01*
X2246995Y1990729D01*
X2236995Y2000729D01*
X2226995D01*
Y1990729D01*
X2236995Y1980729D01*
X2226995Y1970729D01*
Y1960729D01*
X2246838D02*
X2256838D01*
X2266838Y1970729D01*
X2276838Y1960729D01*
X2286838D01*
Y1970729D01*
X2276838Y1980729D01*
X2286838Y1990729D01*
Y2000729D01*
X2276838D01*
X2266838Y1990729D01*
X2256838Y2000729D01*
X2246838D01*
Y1990729D01*
X2256838Y1980729D01*
X2246838Y1970729D01*
Y1960729D01*
X2266680D02*
X2276680D01*
X2286680Y1970729D01*
X2296680Y1960729D01*
X2306680D01*
Y1970729D01*
X2296680Y1980729D01*
X2306680Y1990729D01*
Y2000729D01*
X2296680D01*
X2286680Y1990729D01*
X2276680Y2000729D01*
X2266680D01*
Y1990729D01*
X2276680Y1980729D01*
X2266680Y1970729D01*
Y1960729D01*
X2286523D02*
X2296523D01*
X2306523Y1970729D01*
X2316523Y1960729D01*
X2326523D01*
Y1970729D01*
X2316523Y1980729D01*
X2326523Y1990729D01*
Y2000729D01*
X2316523D01*
X2306523Y1990729D01*
X2296523Y2000729D01*
X2286523D01*
Y1990729D01*
X2296523Y1980729D01*
X2286523Y1970729D01*
Y1960729D01*
X2313702Y1921856D02*
X2323702D01*
X2333702Y1931856D01*
X2343702Y1921856D01*
X2353702D01*
Y1931856D01*
X2343702Y1941856D01*
X2353702Y1951856D01*
Y1961856D01*
X2343702D01*
X2333702Y1951856D01*
X2323702Y1961856D01*
X2313702D01*
Y1951856D01*
X2323702Y1941856D01*
X2313702Y1931856D01*
Y1921856D01*
Y1822643D02*
X2323702D01*
X2333702Y1832643D01*
X2343702Y1822643D01*
X2353702D01*
Y1832643D01*
X2343702Y1842643D01*
X2353702Y1852643D01*
Y1862643D01*
X2343702D01*
X2333702Y1852643D01*
X2323702Y1862643D01*
X2313702D01*
Y1852643D01*
X2323702Y1842643D01*
X2313702Y1832643D01*
Y1822643D01*
X2325695Y1725887D02*
X2335695D01*
X2345695Y1735887D01*
X2355695Y1725887D01*
X2365695D01*
Y1735887D01*
X2355695Y1745887D01*
X2365695Y1755887D01*
Y1765887D01*
X2355695D01*
X2345695Y1755887D01*
X2335695Y1765887D01*
X2325695D01*
Y1755887D01*
X2335695Y1745887D01*
X2325695Y1735887D01*
Y1725887D01*
X2339824Y1711955D02*
X2349824D01*
X2359824Y1721955D01*
X2369824Y1711955D01*
X2379824D01*
Y1721955D01*
X2369824Y1731955D01*
X2379824Y1741955D01*
Y1751955D01*
X2369824D01*
X2359824Y1741955D01*
X2349824Y1751955D01*
X2339824D01*
Y1741955D01*
X2349824Y1731955D01*
X2339824Y1721955D01*
Y1711955D01*
X2397085Y1700609D02*
X2407085D01*
X2417085Y1710609D01*
X2427085Y1700609D01*
X2437085D01*
Y1710609D01*
X2427085Y1720609D01*
X2437085Y1730609D01*
Y1740609D01*
X2427085D01*
X2417085Y1730609D01*
X2407085Y1740609D01*
X2397085D01*
Y1730609D01*
X2407085Y1720609D01*
X2397085Y1710609D01*
Y1700609D01*
X2496297D02*
X2506297D01*
X2516297Y1710609D01*
X2526297Y1700609D01*
X2536297D01*
Y1710609D01*
X2526297Y1720609D01*
X2536297Y1730609D01*
Y1740609D01*
X2526297D01*
X2516297Y1730609D01*
X2506297Y1740609D01*
X2496297D01*
Y1730609D01*
X2506297Y1720609D01*
X2496297Y1710609D01*
Y1700609D01*
X2550174Y1721969D02*
X2560174D01*
X2570174Y1731969D01*
X2580174Y1721969D01*
X2590174D01*
Y1731969D01*
X2580174Y1741969D01*
X2590174Y1751969D01*
Y1761969D01*
X2580174D01*
X2570174Y1751969D01*
X2560174Y1761969D01*
X2550174D01*
Y1751969D01*
X2560174Y1741969D01*
X2550174Y1731969D01*
Y1721969D01*
X2596166Y1800105D02*
X2606166D01*
X2616166Y1810105D01*
X2626166Y1800105D01*
X2636166D01*
Y1810105D01*
X2626166Y1820105D01*
X2636166Y1830105D01*
Y1840105D01*
X2626166D01*
X2616166Y1830105D01*
X2606166Y1840105D01*
X2596166D01*
Y1830105D01*
X2606166Y1820105D01*
X2596166Y1810105D01*
Y1800105D01*
X2598734Y1845328D02*
X2608734D01*
X2618734Y1855328D01*
X2628734Y1845328D01*
X2638734D01*
Y1855328D01*
X2628734Y1865328D01*
X2638734Y1875328D01*
Y1885328D01*
X2628734D01*
X2618734Y1875328D01*
X2608734Y1885328D01*
X2598734D01*
Y1875328D01*
X2608734Y1865328D01*
X2598734Y1855328D01*
Y1845328D01*
X2543992Y1826564D02*
X2553992D01*
X2563992Y1836564D01*
X2573992Y1826564D01*
X2583992D01*
Y1836564D01*
X2573992Y1846564D01*
X2583992Y1856564D01*
Y1866564D01*
X2573992D01*
X2563992Y1856564D01*
X2553992Y1866564D01*
X2543992D01*
Y1856564D01*
X2553992Y1846564D01*
X2543992Y1836564D01*
Y1826564D01*
X2524957Y1771900D02*
X2534957D01*
X2544957Y1781900D01*
X2554957Y1771900D01*
X2564957D01*
Y1781900D01*
X2554957Y1791900D01*
X2564957Y1801900D01*
Y1811900D01*
X2554957D01*
X2544957Y1801900D01*
X2534957Y1811900D01*
X2524957D01*
Y1801900D01*
X2534957Y1791900D01*
X2524957Y1781900D01*
Y1771900D01*
X2499060Y1745956D02*
X2509060D01*
X2519060Y1755956D01*
X2529060Y1745956D01*
X2539060D01*
Y1755956D01*
X2529060Y1765956D01*
X2539060Y1775956D01*
Y1785956D01*
X2529060D01*
X2519060Y1775956D01*
X2509060Y1785956D01*
X2499060D01*
Y1775956D01*
X2509060Y1765956D01*
X2499060Y1755956D01*
Y1745956D01*
X2399848Y1745832D02*
X2409848D01*
X2419848Y1755832D01*
X2429848Y1745832D01*
X2439848D01*
Y1755832D01*
X2429848Y1765832D01*
X2439848Y1775832D01*
Y1785832D01*
X2429848D01*
X2419848Y1775832D01*
X2409848Y1785832D01*
X2399848D01*
Y1775832D01*
X2409848Y1765832D01*
X2399848Y1755832D01*
Y1745832D01*
X2358925Y1773187D02*
X2368925D01*
X2378925Y1783187D01*
X2388925Y1773187D01*
X2398925D01*
Y1783187D01*
X2388925Y1793187D01*
X2398925Y1803187D01*
Y1813187D01*
X2388925D01*
X2378925Y1803187D01*
X2368925Y1813187D01*
X2358925D01*
Y1803187D01*
X2368925Y1793187D01*
X2358925Y1783187D01*
Y1773187D01*
X2344662Y1988139D02*
X2354662D01*
X2364662Y1998139D01*
X2374662Y1988139D01*
X2384662D01*
Y1998139D01*
X2374662Y2008139D01*
X2384662Y2018139D01*
Y2028139D01*
X2374662D01*
X2364662Y2018139D01*
X2354662Y2028139D01*
X2344662D01*
Y2018139D01*
X2354662Y2008139D01*
X2344662Y1998139D01*
Y1988139D01*
X2289906Y2005952D02*
X2299906D01*
X2309906Y2015952D01*
X2319906Y2005952D01*
X2329906D01*
Y2015952D01*
X2319906Y2025952D01*
X2329906Y2035952D01*
Y2045952D01*
X2319906D01*
X2309906Y2035952D01*
X2299906Y2045952D01*
X2289906D01*
Y2035952D01*
X2299906Y2025952D01*
X2289906Y2015952D01*
Y2005952D01*
X2270064D02*
X2280064D01*
X2290064Y2015952D01*
X2300064Y2005952D01*
X2310064D01*
Y2015952D01*
X2300064Y2025952D01*
X2310064Y2035952D01*
Y2045952D01*
X2300064D01*
X2290064Y2035952D01*
X2280064Y2045952D01*
X2270064D01*
Y2035952D01*
X2280064Y2025952D01*
X2270064Y2015952D01*
Y2005952D01*
X2250221D02*
X2260221D01*
X2270221Y2015952D01*
X2280221Y2005952D01*
X2290221D01*
Y2015952D01*
X2280221Y2025952D01*
X2290221Y2035952D01*
Y2045952D01*
X2280221D01*
X2270221Y2035952D01*
X2260221Y2045952D01*
X2250221D01*
Y2035952D01*
X2260221Y2025952D01*
X2250221Y2015952D01*
Y2005952D01*
X2230379D02*
X2240379D01*
X2250379Y2015952D01*
X2260379Y2005952D01*
X2270379D01*
Y2015952D01*
X2260379Y2025952D01*
X2270379Y2035952D01*
Y2045952D01*
X2260379D01*
X2250379Y2035952D01*
X2240379Y2045952D01*
X2230379D01*
Y2035952D01*
X2240379Y2025952D01*
X2230379Y2015952D01*
Y2005952D01*
X2210552Y2006745D02*
X2220552D01*
X2230552Y2016745D01*
X2240552Y2006745D01*
X2250552D01*
Y2016745D01*
X2240552Y2026745D01*
X2250552Y2036745D01*
Y2046745D01*
X2240552D01*
X2230552Y2036745D01*
X2220552Y2046745D01*
X2210552D01*
Y2036745D01*
X2220552Y2026745D01*
X2210552Y2016745D01*
Y2006745D01*
X2141480Y2005952D02*
X2151480D01*
X2161480Y2015952D01*
X2171480Y2005952D01*
X2181480D01*
Y2015952D01*
X2171480Y2025952D01*
X2181480Y2035952D01*
Y2045952D01*
X2171480D01*
X2161480Y2035952D01*
X2151480Y2045952D01*
X2141480D01*
Y2035952D01*
X2151480Y2025952D01*
X2141480Y2015952D01*
Y2005952D01*
X2121637D02*
X2131637D01*
X2141637Y2015952D01*
X2151637Y2005952D01*
X2161637D01*
Y2015952D01*
X2151637Y2025952D01*
X2161637Y2035952D01*
Y2045952D01*
X2151637D01*
X2141637Y2035952D01*
X2131637Y2045952D01*
X2121637D01*
Y2035952D01*
X2131637Y2025952D01*
X2121637Y2015952D01*
Y2005952D01*
X2101795D02*
X2111795D01*
X2121795Y2015952D01*
X2131795Y2005952D01*
X2141795D01*
Y2015952D01*
X2131795Y2025952D01*
X2141795Y2035952D01*
Y2045952D01*
X2131795D01*
X2121795Y2035952D01*
X2111795Y2045952D01*
X2101795D01*
Y2035952D01*
X2111795Y2025952D01*
X2101795Y2015952D01*
Y2005952D01*
X2081952D02*
X2091952D01*
X2101952Y2015952D01*
X2111952Y2005952D01*
X2121952D01*
Y2015952D01*
X2111952Y2025952D01*
X2121952Y2035952D01*
Y2045952D01*
X2111952D01*
X2101952Y2035952D01*
X2091952Y2045952D01*
X2081952D01*
Y2035952D01*
X2091952Y2025952D01*
X2081952Y2015952D01*
Y2005952D01*
X2062110D02*
X2072110D01*
X2082110Y2015952D01*
X2092110Y2005952D01*
X2102110D01*
Y2015952D01*
X2092110Y2025952D01*
X2102110Y2035952D01*
Y2045952D01*
X2092110D01*
X2082110Y2035952D01*
X2072110Y2045952D01*
X2062110D01*
Y2035952D01*
X2072110Y2025952D01*
X2062110Y2015952D01*
Y2005952D01*
X2042267D02*
X2052267D01*
X2062267Y2015952D01*
X2072267Y2005952D01*
X2082267D01*
Y2015952D01*
X2072267Y2025952D01*
X2082267Y2035952D01*
Y2045952D01*
X2072267D01*
X2062267Y2035952D01*
X2052267Y2045952D01*
X2042267D01*
Y2035952D01*
X2052267Y2025952D01*
X2042267Y2015952D01*
Y2005952D01*
X2022425D02*
X2032425D01*
X2042425Y2015952D01*
X2052425Y2005952D01*
X2062425D01*
Y2015952D01*
X2052425Y2025952D01*
X2062425Y2035952D01*
Y2045952D01*
X2052425D01*
X2042425Y2035952D01*
X2032425Y2045952D01*
X2022425D01*
Y2035952D01*
X2032425Y2025952D01*
X2022425Y2015952D01*
Y2005952D01*
X2002582D02*
X2012582D01*
X2022582Y2015952D01*
X2032582Y2005952D01*
X2042582D01*
Y2015952D01*
X2032582Y2025952D01*
X2042582Y2035952D01*
Y2045952D01*
X2032582D01*
X2022582Y2035952D01*
X2012582Y2045952D01*
X2002582D01*
Y2035952D01*
X2012582Y2025952D01*
X2002582Y2015952D01*
Y2005952D01*
X1982740D02*
X1992740D01*
X2002740Y2015952D01*
X2012740Y2005952D01*
X2022740D01*
Y2015952D01*
X2012740Y2025952D01*
X2022740Y2035952D01*
Y2045952D01*
X2012740D01*
X2002740Y2035952D01*
X1992740Y2045952D01*
X1982740D01*
Y2035952D01*
X1992740Y2025952D01*
X1982740Y2015952D01*
Y2005952D01*
X1962897D02*
X1972897D01*
X1982897Y2015952D01*
X1992897Y2005952D01*
X2002897D01*
Y2015952D01*
X1992897Y2025952D01*
X2002897Y2035952D01*
Y2045952D01*
X1992897D01*
X1982897Y2035952D01*
X1972897Y2045952D01*
X1962897D01*
Y2035952D01*
X1972897Y2025952D01*
X1962897Y2015952D01*
Y2005952D01*
X1943055D02*
X1953055D01*
X1963055Y2015952D01*
X1973055Y2005952D01*
X1983055D01*
Y2015952D01*
X1973055Y2025952D01*
X1983055Y2035952D01*
Y2045952D01*
X1973055D01*
X1963055Y2035952D01*
X1953055Y2045952D01*
X1943055D01*
Y2035952D01*
X1953055Y2025952D01*
X1943055Y2015952D01*
Y2005952D01*
X1923212D02*
X1933212D01*
X1943212Y2015952D01*
X1953212Y2005952D01*
X1963212D01*
Y2015952D01*
X1953212Y2025952D01*
X1963212Y2035952D01*
Y2045952D01*
X1953212D01*
X1943212Y2035952D01*
X1933212Y2045952D01*
X1923212D01*
Y2035952D01*
X1933212Y2025952D01*
X1923212Y2015952D01*
Y2005952D01*
X1883527D02*
X1893527D01*
X1903527Y2015952D01*
X1913527Y2005952D01*
X1923527D01*
Y2015952D01*
X1913527Y2025952D01*
X1923527Y2035952D01*
Y2045952D01*
X1913527D01*
X1903527Y2035952D01*
X1893527Y2045952D01*
X1883527D01*
Y2035952D01*
X1893527Y2025952D01*
X1883527Y2015952D01*
Y2005952D01*
X1863685D02*
X1873685D01*
X1883685Y2015952D01*
X1893685Y2005952D01*
X1903685D01*
Y2015952D01*
X1893685Y2025952D01*
X1903685Y2035952D01*
Y2045952D01*
X1893685D01*
X1883685Y2035952D01*
X1873685Y2045952D01*
X1863685D01*
Y2035952D01*
X1873685Y2025952D01*
X1863685Y2015952D01*
Y2005952D01*
X1824000D02*
X1834000D01*
X1844000Y2015952D01*
X1854000Y2005952D01*
X1864000D01*
Y2015952D01*
X1854000Y2025952D01*
X1864000Y2035952D01*
Y2045952D01*
X1854000D01*
X1844000Y2035952D01*
X1834000Y2045952D01*
X1824000D01*
Y2035952D01*
X1834000Y2025952D01*
X1824000Y2015952D01*
Y2005952D01*
X1804157D02*
X1814157D01*
X1824157Y2015952D01*
X1834157Y2005952D01*
X1844157D01*
Y2015952D01*
X1834157Y2025952D01*
X1844157Y2035952D01*
Y2045952D01*
X1834157D01*
X1824157Y2035952D01*
X1814157Y2045952D01*
X1804157D01*
Y2035952D01*
X1814157Y2025952D01*
X1804157Y2015952D01*
Y2005952D01*
X1784315D02*
X1794315D01*
X1804315Y2015952D01*
X1814315Y2005952D01*
X1824315D01*
Y2015952D01*
X1814315Y2025952D01*
X1824315Y2035952D01*
Y2045952D01*
X1814315D01*
X1804315Y2035952D01*
X1794315Y2045952D01*
X1784315D01*
Y2035952D01*
X1794315Y2025952D01*
X1784315Y2015952D01*
Y2005952D01*
X1764472D02*
X1774472D01*
X1784472Y2015952D01*
X1794472Y2005952D01*
X1804472D01*
Y2015952D01*
X1794472Y2025952D01*
X1804472Y2035952D01*
Y2045952D01*
X1794472D01*
X1784472Y2035952D01*
X1774472Y2045952D01*
X1764472D01*
Y2035952D01*
X1774472Y2025952D01*
X1764472Y2015952D01*
Y2005952D01*
X1744630D02*
X1754630D01*
X1764630Y2015952D01*
X1774630Y2005952D01*
X1784630D01*
Y2015952D01*
X1774630Y2025952D01*
X1784630Y2035952D01*
Y2045952D01*
X1774630D01*
X1764630Y2035952D01*
X1754630Y2045952D01*
X1744630D01*
Y2035952D01*
X1754630Y2025952D01*
X1744630Y2015952D01*
Y2005952D01*
X1724787D02*
X1734787D01*
X1744787Y2015952D01*
X1754787Y2005952D01*
X1764787D01*
Y2015952D01*
X1754787Y2025952D01*
X1764787Y2035952D01*
Y2045952D01*
X1754787D01*
X1744787Y2035952D01*
X1734787Y2045952D01*
X1724787D01*
Y2035952D01*
X1734787Y2025952D01*
X1724787Y2015952D01*
Y2005952D01*
X1704945D02*
X1714945D01*
X1724945Y2015952D01*
X1734945Y2005952D01*
X1744945D01*
Y2015952D01*
X1734945Y2025952D01*
X1744945Y2035952D01*
Y2045952D01*
X1734945D01*
X1724945Y2035952D01*
X1714945Y2045952D01*
X1704945D01*
Y2035952D01*
X1714945Y2025952D01*
X1704945Y2015952D01*
Y2005952D01*
X1685102D02*
X1695102D01*
X1705102Y2015952D01*
X1715102Y2005952D01*
X1725102D01*
Y2015952D01*
X1715102Y2025952D01*
X1725102Y2035952D01*
Y2045952D01*
X1715102D01*
X1705102Y2035952D01*
X1695102Y2045952D01*
X1685102D01*
Y2035952D01*
X1695102Y2025952D01*
X1685102Y2015952D01*
Y2005952D01*
X2484851Y2161208D02*
X2494851D01*
X2504851Y2171208D01*
X2514851Y2161208D01*
X2524851D01*
Y2171208D01*
X2514851Y2181208D01*
X2524851Y2191208D01*
Y2201208D01*
X2514851D01*
X2504851Y2191208D01*
X2494851Y2201208D01*
X2484851D01*
Y2191208D01*
X2494851Y2181208D01*
X2484851Y2171208D01*
Y2161208D01*
X2465008D02*
X2475008D01*
X2485008Y2171208D01*
X2495008Y2161208D01*
X2505008D01*
Y2171208D01*
X2495008Y2181208D01*
X2505008Y2191208D01*
Y2201208D01*
X2495008D01*
X2485008Y2191208D01*
X2475008Y2201208D01*
X2465008D01*
Y2191208D01*
X2475008Y2181208D01*
X2465008Y2171208D01*
Y2161208D01*
X2445166D02*
X2455166D01*
X2465166Y2171208D01*
X2475166Y2161208D01*
X2485166D01*
Y2171208D01*
X2475166Y2181208D01*
X2485166Y2191208D01*
Y2201208D01*
X2475166D01*
X2465166Y2191208D01*
X2455166Y2201208D01*
X2445166D01*
Y2191208D01*
X2455166Y2181208D01*
X2445166Y2171208D01*
Y2161208D01*
X2425323D02*
X2435323D01*
X2445323Y2171208D01*
X2455323Y2161208D01*
X2465323D01*
Y2171208D01*
X2455323Y2181208D01*
X2465323Y2191208D01*
Y2201208D01*
X2455323D01*
X2445323Y2191208D01*
X2435323Y2201208D01*
X2425323D01*
Y2191208D01*
X2435323Y2181208D01*
X2425323Y2171208D01*
Y2161208D01*
X2405481D02*
X2415481D01*
X2425481Y2171208D01*
X2435481Y2161208D01*
X2445481D01*
Y2171208D01*
X2435481Y2181208D01*
X2445481Y2191208D01*
Y2201208D01*
X2435481D01*
X2425481Y2191208D01*
X2415481Y2201208D01*
X2405481D01*
Y2191208D01*
X2415481Y2181208D01*
X2405481Y2171208D01*
Y2161208D01*
X2385639D02*
X2395639D01*
X2405639Y2171208D01*
X2415639Y2161208D01*
X2425639D01*
Y2171208D01*
X2415639Y2181208D01*
X2425639Y2191208D01*
Y2201208D01*
X2415639D01*
X2405639Y2191208D01*
X2395639Y2201208D01*
X2385639D01*
Y2191208D01*
X2395639Y2181208D01*
X2385639Y2171208D01*
Y2161208D01*
X2365796D02*
X2375796D01*
X2385796Y2171208D01*
X2395796Y2161208D01*
X2405796D01*
Y2171208D01*
X2395796Y2181208D01*
X2405796Y2191208D01*
Y2201208D01*
X2395796D01*
X2385796Y2191208D01*
X2375796Y2201208D01*
X2365796D01*
Y2191208D01*
X2375796Y2181208D01*
X2365796Y2171208D01*
Y2161208D01*
X2345954D02*
X2355954D01*
X2365954Y2171208D01*
X2375954Y2161208D01*
X2385954D01*
Y2171208D01*
X2375954Y2181208D01*
X2385954Y2191208D01*
Y2201208D01*
X2375954D01*
X2365954Y2191208D01*
X2355954Y2201208D01*
X2345954D01*
Y2191208D01*
X2355954Y2181208D01*
X2345954Y2171208D01*
Y2161208D01*
X976970Y2158778D02*
X986970D01*
X996970Y2168778D01*
X1006970Y2158778D01*
X1016970D01*
Y2168778D01*
X1006970Y2178778D01*
X1016970Y2188778D01*
Y2198778D01*
X1006970D01*
X996970Y2188778D01*
X986970Y2198778D01*
X976970D01*
Y2188778D01*
X986970Y2178778D01*
X976970Y2168778D01*
Y2158778D01*
X959695Y2149017D02*
X969695D01*
X979695Y2159017D01*
X989695Y2149017D01*
X999695D01*
Y2159017D01*
X989695Y2169017D01*
X999695Y2179017D01*
Y2189017D01*
X989695D01*
X979695Y2179017D01*
X969695Y2189017D01*
X959695D01*
Y2179017D01*
X969695Y2169017D01*
X959695Y2159017D01*
Y2149017D01*
X947381Y2133457D02*
X957381D01*
X967381Y2143457D01*
X977381Y2133457D01*
X987381D01*
Y2143457D01*
X977381Y2153457D01*
X987381Y2163457D01*
Y2173457D01*
X977381D01*
X967381Y2163457D01*
X957381Y2173457D01*
X947381D01*
Y2163457D01*
X957381Y2153457D01*
X947381Y2143457D01*
Y2133457D01*
X942135Y2114321D02*
X952135D01*
X962135Y2124321D01*
X972135Y2114321D01*
X982135D01*
Y2124321D01*
X972135Y2134321D01*
X982135Y2144321D01*
Y2154321D01*
X972135D01*
X962135Y2144321D01*
X952135Y2154321D01*
X942135D01*
Y2144321D01*
X952135Y2134321D01*
X942135Y2124321D01*
Y2114321D01*
X941934Y2094479D02*
X951934D01*
X961934Y2104479D01*
X971934Y2094479D01*
X981934D01*
Y2104479D01*
X971934Y2114479D01*
X981934Y2124479D01*
Y2134479D01*
X971934D01*
X961934Y2124479D01*
X951934Y2134479D01*
X941934D01*
Y2124479D01*
X951934Y2114479D01*
X941934Y2104479D01*
Y2094479D01*
Y2074637D02*
X951934D01*
X961934Y2084637D01*
X971934Y2074637D01*
X981934D01*
Y2084637D01*
X971934Y2094637D01*
X981934Y2104637D01*
Y2114637D01*
X971934D01*
X961934Y2104637D01*
X951934Y2114637D01*
X941934D01*
Y2104637D01*
X951934Y2094637D01*
X941934Y2084637D01*
Y2074637D01*
Y2054794D02*
X951934D01*
X961934Y2064794D01*
X971934Y2054794D01*
X981934D01*
Y2064794D01*
X971934Y2074794D01*
X981934Y2084794D01*
Y2094794D01*
X971934D01*
X961934Y2084794D01*
X951934Y2094794D01*
X941934D01*
Y2084794D01*
X951934Y2074794D01*
X941934Y2064794D01*
Y2054794D01*
X989158Y2041333D02*
X999158D01*
X1009158Y2051333D01*
X1019158Y2041333D01*
X1029158D01*
Y2051333D01*
X1019158Y2061333D01*
X1029158Y2071333D01*
Y2081333D01*
X1019158D01*
X1009158Y2071333D01*
X999158Y2081333D01*
X989158D01*
Y2071333D01*
X999158Y2061333D01*
X989158Y2051333D01*
Y2041333D01*
Y2061176D02*
X999158D01*
X1009158Y2071176D01*
X1019158Y2061176D01*
X1029158D01*
Y2071176D01*
X1019158Y2081176D01*
X1029158Y2091176D01*
Y2101176D01*
X1019158D01*
X1009158Y2091176D01*
X999158Y2101176D01*
X989158D01*
Y2091176D01*
X999158Y2081176D01*
X989158Y2071176D01*
Y2061176D01*
Y2081018D02*
X999158D01*
X1009158Y2091018D01*
X1019158Y2081018D01*
X1029158D01*
Y2091018D01*
X1019158Y2101018D01*
X1029158Y2111018D01*
Y2121018D01*
X1019158D01*
X1009158Y2111018D01*
X999158Y2121018D01*
X989158D01*
Y2111018D01*
X999158Y2101018D01*
X989158Y2091018D01*
Y2081018D01*
Y2100861D02*
X999158D01*
X1009158Y2110861D01*
X1019158Y2100861D01*
X1029158D01*
Y2110861D01*
X1019158Y2120861D01*
X1029158Y2130861D01*
Y2140861D01*
X1019158D01*
X1009158Y2130861D01*
X999158Y2140861D01*
X989158D01*
Y2130861D01*
X999158Y2120861D01*
X989158Y2110861D01*
Y2100861D01*
X1214893Y2099972D02*
X1224893D01*
X1234893Y2109972D01*
X1244893Y2099972D01*
X1254893D01*
Y2109972D01*
X1244893Y2119972D01*
X1254893Y2129972D01*
Y2139972D01*
X1244893D01*
X1234893Y2129972D01*
X1224893Y2139972D01*
X1214893D01*
Y2129972D01*
X1224893Y2119972D01*
X1214893Y2109972D01*
Y2099972D01*
X2401878Y2115985D02*
X2411878D01*
X2421878Y2125985D01*
X2431878Y2115985D01*
X2441878D01*
Y2125985D01*
X2431878Y2135985D01*
X2441878Y2145985D01*
Y2155985D01*
X2431878D01*
X2421878Y2145985D01*
X2411878Y2155985D01*
X2401878D01*
Y2145985D01*
X2411878Y2135985D01*
X2401878Y2125985D01*
Y2115985D01*
X2441563D02*
X2451563D01*
X2461563Y2125985D01*
X2471563Y2115985D01*
X2481563D01*
Y2125985D01*
X2471563Y2135985D01*
X2481563Y2145985D01*
Y2155985D01*
X2471563D01*
X2461563Y2145985D01*
X2451563Y2155985D01*
X2441563D01*
Y2145985D01*
X2451563Y2135985D01*
X2441563Y2125985D01*
Y2115985D01*
X2501076Y2115228D02*
X2511076D01*
X2521076Y2125228D01*
X2531076Y2115228D01*
X2541076D01*
Y2125228D01*
X2531076Y2135228D01*
X2541076Y2145228D01*
Y2155228D01*
X2531076D01*
X2521076Y2145228D01*
X2511076Y2155228D01*
X2501076D01*
Y2145228D01*
X2511076Y2135228D01*
X2501076Y2125228D01*
Y2115228D01*
X2512741Y2019761D02*
X2522741D01*
X2532741Y2029761D01*
X2542741Y2019761D01*
X2552741D01*
Y2029761D01*
X2542741Y2039761D01*
X2552741Y2049761D01*
Y2059761D01*
X2542741D01*
X2532741Y2049761D01*
X2522741Y2059761D01*
X2512741D01*
Y2049761D01*
X2522741Y2039761D01*
X2512741Y2029761D01*
Y2019761D01*
X2525715Y1923345D02*
X2535715D01*
X2545715Y1933345D01*
X2555715Y1923345D01*
X2565715D01*
Y1933345D01*
X2555715Y1943345D01*
X2565715Y1953345D01*
Y1963345D01*
X2555715D01*
X2545715Y1953345D01*
X2535715Y1963345D01*
X2525715D01*
Y1953345D01*
X2535715Y1943345D01*
X2525715Y1933345D01*
Y1923345D01*
X2540231Y1909818D02*
X2550231D01*
X2560231Y1919818D01*
X2570231Y1909818D01*
X2580231D01*
Y1919818D01*
X2570231Y1929818D01*
X2580231Y1939818D01*
Y1949818D01*
X2570231D01*
X2560231Y1939818D01*
X2550231Y1949818D01*
X2540231D01*
Y1939818D01*
X2550231Y1929818D01*
X2540231Y1919818D01*
Y1909818D01*
X2598009Y1900104D02*
X2608009D01*
X2618009Y1910104D01*
X2628009Y1900104D01*
X2638009D01*
Y1910104D01*
X2628009Y1920104D01*
X2638009Y1930104D01*
Y1940104D01*
X2628009D01*
X2618009Y1930104D01*
X2608009Y1940104D01*
X2598009D01*
Y1930104D01*
X2608009Y1920104D01*
X2598009Y1910104D01*
Y1900104D01*
X2625621Y1923680D02*
X2635621D01*
X2645621Y1933680D01*
X2655621Y1923680D01*
X2665621D01*
Y1933680D01*
X2655621Y1943680D01*
X2665621Y1953680D01*
Y1963680D01*
X2655621D01*
X2645621Y1953680D01*
X2635621Y1963680D01*
X2625621D01*
Y1953680D01*
X2635621Y1943680D01*
X2625621Y1933680D01*
Y1923680D01*
X2594912Y1945327D02*
X2604912D01*
X2614912Y1955327D01*
X2624912Y1945327D01*
X2634912D01*
Y1955327D01*
X2624912Y1965327D01*
X2634912Y1975327D01*
Y1985327D01*
X2624912D01*
X2614912Y1975327D01*
X2604912Y1985327D01*
X2594912D01*
Y1975327D01*
X2604912Y1965327D01*
X2594912Y1955327D01*
Y1945327D01*
X2557964Y1976399D02*
X2567964D01*
X2577964Y1986399D01*
X2587964Y1976399D01*
X2597964D01*
Y1986399D01*
X2587964Y1996399D01*
X2597964Y2006399D01*
Y2016399D01*
X2587964D01*
X2577964Y2006399D01*
X2567964Y2016399D01*
X2557964D01*
Y2006399D01*
X2567964Y1996399D01*
X2557964Y1986399D01*
Y1976399D01*
Y2016084D02*
X2567964D01*
X2577964Y2026084D01*
X2587964Y2016084D01*
X2597964D01*
Y2026084D01*
X2587964Y2036084D01*
X2597964Y2046084D01*
Y2056084D01*
X2587964D01*
X2577964Y2046084D01*
X2567964Y2056084D01*
X2557964D01*
Y2046084D01*
X2567964Y2036084D01*
X2557964Y2026084D01*
Y2016084D01*
Y2075611D02*
X2567964D01*
X2577964Y2085611D01*
X2587964Y2075611D01*
X2597964D01*
Y2085611D01*
X2587964Y2095611D01*
X2597964Y2105611D01*
Y2115611D01*
X2587964D01*
X2577964Y2105611D01*
X2567964Y2115611D01*
X2557964D01*
Y2105611D01*
X2567964Y2095611D01*
X2557964Y2085611D01*
Y2075611D01*
X2556191Y2115217D02*
X2566191D01*
X2576191Y2125217D01*
X2586191Y2115217D01*
X2596191D01*
Y2125217D01*
X2586191Y2135217D01*
X2596191Y2145217D01*
Y2155217D01*
X2586191D01*
X2576191Y2145217D01*
X2566191Y2155217D01*
X2556191D01*
Y2145217D01*
X2566191Y2135217D01*
X2556191Y2125217D01*
Y2115217D01*
X2548232Y2133393D02*
X2558232D01*
X2568232Y2143393D01*
X2578232Y2133393D01*
X2588232D01*
Y2143393D01*
X2578232Y2153393D01*
X2588232Y2163393D01*
Y2173393D01*
X2578232D01*
X2568232Y2163393D01*
X2558232Y2173393D01*
X2548232D01*
Y2163393D01*
X2558232Y2153393D01*
X2548232Y2143393D01*
Y2133393D01*
X2534746Y2147948D02*
X2544746D01*
X2554746Y2157948D01*
X2564746Y2147948D01*
X2574746D01*
Y2157948D01*
X2564746Y2167948D01*
X2574746Y2177948D01*
Y2187948D01*
X2564746D01*
X2554746Y2177948D01*
X2544746Y2187948D01*
X2534746D01*
Y2177948D01*
X2544746Y2167948D01*
X2534746Y2157948D01*
Y2147948D01*
X2517419Y2157619D02*
X2527419D01*
X2537419Y2167619D01*
X2547419Y2157619D01*
X2557419D01*
Y2167619D01*
X2547419Y2177619D01*
X2557419Y2187619D01*
Y2197619D01*
X2547419D01*
X2537419Y2187619D01*
X2527419Y2197619D01*
X2517419D01*
Y2187619D01*
X2527419Y2177619D01*
X2517419Y2167619D01*
Y2157619D01*
X2499709Y2161129D02*
X2509709D01*
X2519709Y2171129D01*
X2529709Y2161129D01*
X2539709D01*
Y2171129D01*
X2529709Y2181129D01*
X2539709Y2191129D01*
Y2201129D01*
X2529709D01*
X2519709Y2191129D01*
X2509709Y2201129D01*
X2499709D01*
Y2191129D01*
X2509709Y2181129D01*
X2499709Y2171129D01*
Y2161129D01*
X1457185Y609491D02*
X1467185D01*
X1477185Y619491D01*
X1487185Y609491D01*
X1497185D01*
Y619491D01*
X1487185Y629491D01*
X1497185Y639491D01*
Y649491D01*
X1487185D01*
X1477185Y639491D01*
X1467185Y649491D01*
X1457185D01*
Y639491D01*
X1467185Y629491D01*
X1457185Y619491D01*
Y609491D01*
X1461550Y590134D02*
X1471550D01*
X1481550Y600134D01*
X1491550Y590134D01*
X1501550D01*
Y600134D01*
X1491550Y610134D01*
X1501550Y620134D01*
Y630134D01*
X1491550D01*
X1481550Y620134D01*
X1471550Y630134D01*
X1461550D01*
Y620134D01*
X1471550Y610134D01*
X1461550Y600134D01*
Y590134D01*
X1473662Y574418D02*
X1483662D01*
X1493662Y584418D01*
X1503662Y574418D01*
X1513662D01*
Y584418D01*
X1503662Y594418D01*
X1513662Y604418D01*
Y614418D01*
X1503662D01*
X1493662Y604418D01*
X1483662Y614418D01*
X1473662D01*
Y604418D01*
X1483662Y594418D01*
X1473662Y584418D01*
Y574418D01*
X1491321Y565368D02*
X1501321D01*
X1511321Y575368D01*
X1521321Y565368D01*
X1531321D01*
Y575368D01*
X1521321Y585368D01*
X1531321Y595368D01*
Y605368D01*
X1521321D01*
X1511321Y595368D01*
X1501321Y605368D01*
X1491321D01*
Y595368D01*
X1501321Y585368D01*
X1491321Y575368D01*
Y565368D01*
X1457141Y519630D02*
X1467141D01*
X1477141Y529630D01*
X1487141Y519630D01*
X1497141D01*
Y529630D01*
X1487141Y539630D01*
X1497141Y549630D01*
Y559630D01*
X1487141D01*
X1477141Y549630D01*
X1467141Y559630D01*
X1457141D01*
Y549630D01*
X1467141Y539630D01*
X1457141Y529630D01*
Y519630D01*
X1526355Y449033D02*
X1536355D01*
X1546355Y459033D01*
X1556355Y449033D01*
X1566355D01*
Y459033D01*
X1556355Y469033D01*
X1566355Y479033D01*
Y489033D01*
X1556355D01*
X1546355Y479033D01*
X1536355Y489033D01*
X1526355D01*
Y479033D01*
X1536355Y469033D01*
X1526355Y459033D01*
Y449033D01*
X1544568Y456909D02*
X1554568D01*
X1564568Y466909D01*
X1574568Y456909D01*
X1584568D01*
Y466909D01*
X1574568Y476909D01*
X1584568Y486909D01*
Y496909D01*
X1574568D01*
X1564568Y486909D01*
X1554568Y496909D01*
X1544568D01*
Y486909D01*
X1554568Y476909D01*
X1544568Y466909D01*
Y456909D01*
X1565502Y489639D02*
X1575502D01*
X1585502Y499639D01*
X1595502Y489639D01*
X1605502D01*
Y499639D01*
X1595502Y509639D01*
X1605502Y519639D01*
Y529639D01*
X1595502D01*
X1585502Y519639D01*
X1575502Y529639D01*
X1565502D01*
Y519639D01*
X1575502Y509639D01*
X1565502Y499639D01*
Y489639D01*
X1566359Y509463D02*
X1576359D01*
X1586359Y519463D01*
X1596359Y509463D01*
X1606359D01*
Y519463D01*
X1596359Y529463D01*
X1606359Y539463D01*
Y549463D01*
X1596359D01*
X1586359Y539463D01*
X1576359Y549463D01*
X1566359D01*
Y539463D01*
X1576359Y529463D01*
X1566359Y519463D01*
Y509463D01*
Y529306D02*
X1576359D01*
X1586359Y539306D01*
X1596359Y529306D01*
X1606359D01*
Y539306D01*
X1596359Y549306D01*
X1606359Y559306D01*
Y569306D01*
X1596359D01*
X1586359Y559306D01*
X1576359Y569306D01*
X1566359D01*
Y559306D01*
X1576359Y549306D01*
X1566359Y539306D01*
Y529306D01*
Y549148D02*
X1576359D01*
X1586359Y559148D01*
X1596359Y549148D01*
X1606359D01*
Y559148D01*
X1596359Y569148D01*
X1606359Y579148D01*
Y589148D01*
X1596359D01*
X1586359Y579148D01*
X1576359Y589148D01*
X1566359D01*
Y579148D01*
X1576359Y569148D01*
X1566359Y559148D01*
Y549148D01*
X1563672Y568808D02*
X1573672D01*
X1583672Y578808D01*
X1593672Y568808D01*
X1603672D01*
Y578808D01*
X1593672Y588808D01*
X1603672Y598808D01*
Y608808D01*
X1593672D01*
X1583672Y598808D01*
X1573672Y608808D01*
X1563672D01*
Y598808D01*
X1573672Y588808D01*
X1563672Y578808D01*
Y568808D01*
X1554345Y586322D02*
X1564345D01*
X1574345Y596322D01*
X1584345Y586322D01*
X1594345D01*
Y596322D01*
X1584345Y606322D01*
X1594345Y616322D01*
Y626322D01*
X1584345D01*
X1574345Y616322D01*
X1564345Y626322D01*
X1554345D01*
Y616322D01*
X1564345Y606322D01*
X1554345Y596322D01*
Y586322D01*
X1539932Y599960D02*
X1549932D01*
X1559932Y609960D01*
X1569932Y599960D01*
X1579932D01*
Y609960D01*
X1569932Y619960D01*
X1579932Y629960D01*
Y639960D01*
X1569932D01*
X1559932Y629960D01*
X1549932Y639960D01*
X1539932D01*
Y629960D01*
X1549932Y619960D01*
X1539932Y609960D01*
Y599960D01*
X1521749Y607903D02*
X1531749D01*
X1541749Y617903D01*
X1551749Y607903D01*
X1561749D01*
Y617903D01*
X1551749Y627903D01*
X1561749Y637903D01*
Y647903D01*
X1551749D01*
X1541749Y637903D01*
X1531749Y647903D01*
X1521749D01*
Y637903D01*
X1531749Y627903D01*
X1521749Y617903D01*
Y607903D01*
X1502879Y614039D02*
X1512879D01*
X1522879Y624039D01*
X1532879Y614039D01*
X1542879D01*
Y624039D01*
X1532879Y634039D01*
X1542879Y644039D01*
Y654039D01*
X1532879D01*
X1522879Y644039D01*
X1512879Y654039D01*
X1502879D01*
Y644039D01*
X1512879Y634039D01*
X1502879Y624039D01*
Y614039D01*
X1516189Y628755D02*
X1526189D01*
X1536189Y638755D01*
X1546189Y628755D01*
X1556189D01*
Y638755D01*
X1546189Y648755D01*
X1556189Y658755D01*
Y668755D01*
X1546189D01*
X1536189Y658755D01*
X1526189Y668755D01*
X1516189D01*
Y658755D01*
X1526189Y648755D01*
X1516189Y638755D01*
Y628755D01*
X1525552Y646250D02*
X1535552D01*
X1545552Y656250D01*
X1555552Y646250D01*
X1565552D01*
Y656250D01*
X1555552Y666250D01*
X1565552Y676250D01*
Y686250D01*
X1555552D01*
X1545552Y676250D01*
X1535552Y686250D01*
X1525552D01*
Y676250D01*
X1535552Y666250D01*
X1525552Y656250D01*
Y646250D01*
X1646229Y853193D02*
X1656229D01*
X1666229Y863193D01*
X1676229Y853193D01*
X1686229D01*
Y863193D01*
X1676229Y873193D01*
X1686229Y883193D01*
Y893193D01*
X1676229D01*
X1666229Y883193D01*
X1656229Y893193D01*
X1646229D01*
Y883193D01*
X1656229Y873193D01*
X1646229Y863193D01*
Y853193D01*
X1586702D02*
X1596702D01*
X1606702Y863193D01*
X1616702Y853193D01*
X1626702D01*
Y863193D01*
X1616702Y873193D01*
X1626702Y883193D01*
Y893193D01*
X1616702D01*
X1606702Y883193D01*
X1596702Y893193D01*
X1586702D01*
Y883193D01*
X1596702Y873193D01*
X1586702Y863193D01*
Y853193D01*
X1566859D02*
X1576859D01*
X1586859Y863193D01*
X1596859Y853193D01*
X1606859D01*
Y863193D01*
X1596859Y873193D01*
X1606859Y883193D01*
Y893193D01*
X1596859D01*
X1586859Y883193D01*
X1576859Y893193D01*
X1566859D01*
Y883193D01*
X1576859Y873193D01*
X1566859Y863193D01*
Y853193D01*
X1547017D02*
X1557017D01*
X1567017Y863193D01*
X1577017Y853193D01*
X1587017D01*
Y863193D01*
X1577017Y873193D01*
X1587017Y883193D01*
Y893193D01*
X1577017D01*
X1567017Y883193D01*
X1557017Y893193D01*
X1547017D01*
Y883193D01*
X1557017Y873193D01*
X1547017Y863193D01*
Y853193D01*
X1527174D02*
X1537174D01*
X1547174Y863193D01*
X1557174Y853193D01*
X1567174D01*
Y863193D01*
X1557174Y873193D01*
X1567174Y883193D01*
Y893193D01*
X1557174D01*
X1547174Y883193D01*
X1537174Y893193D01*
X1527174D01*
Y883193D01*
X1537174Y873193D01*
X1527174Y863193D01*
Y853193D01*
X1507588Y850017D02*
X1517588D01*
X1527588Y860017D01*
X1537588Y850017D01*
X1547588D01*
Y860017D01*
X1537588Y870017D01*
X1547588Y880017D01*
Y890017D01*
X1537588D01*
X1527588Y880017D01*
X1517588Y890017D01*
X1507588D01*
Y880017D01*
X1517588Y870017D01*
X1507588Y860017D01*
Y850017D01*
X1490890Y839297D02*
X1500890D01*
X1510890Y849297D01*
X1520890Y839297D01*
X1530890D01*
Y849297D01*
X1520890Y859297D01*
X1530890Y869297D01*
Y879297D01*
X1520890D01*
X1510890Y869297D01*
X1500890Y879297D01*
X1490890D01*
Y869297D01*
X1500890Y859297D01*
X1490890Y849297D01*
Y839297D01*
X1480131Y822625D02*
X1490131D01*
X1500131Y832625D01*
X1510131Y822625D01*
X1520131D01*
Y832625D01*
X1510131Y842625D01*
X1520131Y852625D01*
Y862625D01*
X1510131D01*
X1500131Y852625D01*
X1490131Y862625D01*
X1480131D01*
Y852625D01*
X1490131Y842625D01*
X1480131Y832625D01*
Y822625D01*
X1524422Y777464D02*
X1534422D01*
X1544422Y787464D01*
X1554422Y777464D01*
X1564422D01*
Y787464D01*
X1554422Y797464D01*
X1564422Y807464D01*
Y817464D01*
X1554422D01*
X1544422Y807464D01*
X1534422Y817464D01*
X1524422D01*
Y807464D01*
X1534422Y797464D01*
X1524422Y787464D01*
Y777464D01*
X1522449Y797208D02*
X1532449D01*
X1542449Y807208D01*
X1552449Y797208D01*
X1562449D01*
Y807208D01*
X1552449Y817208D01*
X1562449Y827208D01*
Y837208D01*
X1552449D01*
X1542449Y827208D01*
X1532449Y837208D01*
X1522449D01*
Y827208D01*
X1532449Y817208D01*
X1522449Y807208D01*
Y797208D01*
X1539319Y807654D02*
X1549319D01*
X1559319Y817654D01*
X1569319Y807654D01*
X1579319D01*
Y817654D01*
X1569319Y827654D01*
X1579319Y837654D01*
Y847654D01*
X1569319D01*
X1559319Y837654D01*
X1549319Y847654D01*
X1539319D01*
Y837654D01*
X1549319Y827654D01*
X1539319Y817654D01*
Y807654D01*
X1558894Y804404D02*
X1568894D01*
X1578894Y814404D01*
X1588894Y804404D01*
X1598894D01*
Y814404D01*
X1588894Y824404D01*
X1598894Y834404D01*
Y844404D01*
X1588894D01*
X1578894Y834404D01*
X1568894Y844404D01*
X1558894D01*
Y834404D01*
X1568894Y824404D01*
X1558894Y814404D01*
Y804404D01*
X1574328Y791934D02*
X1584328D01*
X1594328Y801934D01*
X1604328Y791934D01*
X1614328D01*
Y801934D01*
X1604328Y811934D01*
X1614328Y821934D01*
Y831934D01*
X1604328D01*
X1594328Y821934D01*
X1584328Y831934D01*
X1574328D01*
Y821934D01*
X1584328Y811934D01*
X1574328Y801934D01*
Y791934D01*
X1593634Y796519D02*
X1603634D01*
X1613634Y806519D01*
X1623634Y796519D01*
X1633634D01*
Y806519D01*
X1623634Y816519D01*
X1633634Y826519D01*
Y836519D01*
X1623634D01*
X1613634Y826519D01*
X1603634Y836519D01*
X1593634D01*
Y826519D01*
X1603634Y816519D01*
X1593634Y806519D01*
Y796519D01*
X1610058Y807654D02*
X1620058D01*
X1630058Y817654D01*
X1640058Y807654D01*
X1650058D01*
Y817654D01*
X1640058Y827654D01*
X1650058Y837654D01*
Y847654D01*
X1640058D01*
X1630058Y837654D01*
X1620058Y847654D01*
X1610058D01*
Y837654D01*
X1620058Y827654D01*
X1610058Y817654D01*
Y807654D01*
X1629900D02*
X1639900D01*
X1649900Y817654D01*
X1659900Y807654D01*
X1669900D01*
Y817654D01*
X1659900Y827654D01*
X1669900Y837654D01*
Y847654D01*
X1659900D01*
X1649900Y837654D01*
X1639900Y847654D01*
X1629900D01*
Y837654D01*
X1639900Y827654D01*
X1629900Y817654D01*
Y807654D01*
X1649743D02*
X1659743D01*
X1669743Y817654D01*
X1679743Y807654D01*
X1689743D01*
Y817654D01*
X1679743Y827654D01*
X1689743Y837654D01*
Y847654D01*
X1679743D01*
X1669743Y837654D01*
X1659743Y847654D01*
X1649743D01*
Y837654D01*
X1659743Y827654D01*
X1649743Y817654D01*
Y807654D01*
X1669465Y805472D02*
X1679465D01*
X1689465Y815472D01*
X1699465Y805472D01*
X1709465D01*
Y815472D01*
X1699465Y825472D01*
X1709465Y835472D01*
Y845472D01*
X1699465D01*
X1689465Y835472D01*
X1679465Y845472D01*
X1669465D01*
Y835472D01*
X1679465Y825472D01*
X1669465Y815472D01*
Y805472D01*
X1671412Y854988D02*
X1681412D01*
X1691412Y864988D01*
X1701412Y854988D01*
X1711412D01*
Y864988D01*
X1701412Y874988D01*
X1711412Y884988D01*
Y894988D01*
X1701412D01*
X1691412Y884988D01*
X1681412Y894988D01*
X1671412D01*
Y884988D01*
X1681412Y874988D01*
X1671412Y864988D01*
Y854988D01*
X1646229Y2062216D02*
X1656229D01*
X1666229Y2072216D01*
X1676229Y2062216D01*
X1686229D01*
Y2072216D01*
X1676229Y2082216D01*
X1686229Y2092216D01*
Y2102216D01*
X1676229D01*
X1666229Y2092216D01*
X1656229Y2102216D01*
X1646229D01*
Y2092216D01*
X1656229Y2082216D01*
X1646229Y2072216D01*
Y2062216D01*
X1626387D02*
X1636387D01*
X1646387Y2072216D01*
X1656387Y2062216D01*
X1666387D01*
Y2072216D01*
X1656387Y2082216D01*
X1666387Y2092216D01*
Y2102216D01*
X1656387D01*
X1646387Y2092216D01*
X1636387Y2102216D01*
X1626387D01*
Y2092216D01*
X1636387Y2082216D01*
X1626387Y2072216D01*
Y2062216D01*
X1606544D02*
X1616544D01*
X1626544Y2072216D01*
X1636544Y2062216D01*
X1646544D01*
Y2072216D01*
X1636544Y2082216D01*
X1646544Y2092216D01*
Y2102216D01*
X1636544D01*
X1626544Y2092216D01*
X1616544Y2102216D01*
X1606544D01*
Y2092216D01*
X1616544Y2082216D01*
X1606544Y2072216D01*
Y2062216D01*
X1586702D02*
X1596702D01*
X1606702Y2072216D01*
X1616702Y2062216D01*
X1626702D01*
Y2072216D01*
X1616702Y2082216D01*
X1626702Y2092216D01*
Y2102216D01*
X1616702D01*
X1606702Y2092216D01*
X1596702Y2102216D01*
X1586702D01*
Y2092216D01*
X1596702Y2082216D01*
X1586702Y2072216D01*
Y2062216D01*
X1566859D02*
X1576859D01*
X1586859Y2072216D01*
X1596859Y2062216D01*
X1606859D01*
Y2072216D01*
X1596859Y2082216D01*
X1606859Y2092216D01*
Y2102216D01*
X1596859D01*
X1586859Y2092216D01*
X1576859Y2102216D01*
X1566859D01*
Y2092216D01*
X1576859Y2082216D01*
X1566859Y2072216D01*
Y2062216D01*
X1547017D02*
X1557017D01*
X1567017Y2072216D01*
X1577017Y2062216D01*
X1587017D01*
Y2072216D01*
X1577017Y2082216D01*
X1587017Y2092216D01*
Y2102216D01*
X1577017D01*
X1567017Y2092216D01*
X1557017Y2102216D01*
X1547017D01*
Y2092216D01*
X1557017Y2082216D01*
X1547017Y2072216D01*
Y2062216D01*
X1527174D02*
X1537174D01*
X1547174Y2072216D01*
X1557174Y2062216D01*
X1567174D01*
Y2072216D01*
X1557174Y2082216D01*
X1567174Y2092216D01*
Y2102216D01*
X1557174D01*
X1547174Y2092216D01*
X1537174Y2102216D01*
X1527174D01*
Y2092216D01*
X1537174Y2082216D01*
X1527174Y2072216D01*
Y2062216D01*
X1507588Y2059040D02*
X1517588D01*
X1527588Y2069040D01*
X1537588Y2059040D01*
X1547588D01*
Y2069040D01*
X1537588Y2079040D01*
X1547588Y2089040D01*
Y2099040D01*
X1537588D01*
X1527588Y2089040D01*
X1517588Y2099040D01*
X1507588D01*
Y2089040D01*
X1517588Y2079040D01*
X1507588Y2069040D01*
Y2059040D01*
X1490890Y2048319D02*
X1500890D01*
X1510890Y2058319D01*
X1520890Y2048319D01*
X1530890D01*
Y2058319D01*
X1520890Y2068319D01*
X1530890Y2078319D01*
Y2088319D01*
X1520890D01*
X1510890Y2078319D01*
X1500890Y2088319D01*
X1490890D01*
Y2078319D01*
X1500890Y2068319D01*
X1490890Y2058319D01*
Y2048319D01*
X1649743Y2016676D02*
X1659743D01*
X1669743Y2026676D01*
X1679743Y2016676D01*
X1689743D01*
Y2026676D01*
X1679743Y2036676D01*
X1689743Y2046676D01*
Y2056676D01*
X1679743D01*
X1669743Y2046676D01*
X1659743Y2056676D01*
X1649743D01*
Y2046676D01*
X1659743Y2036676D01*
X1649743Y2026676D01*
Y2016676D01*
X1669465Y2014494D02*
X1679465D01*
X1689465Y2024494D01*
X1699465Y2014494D01*
X1709465D01*
Y2024494D01*
X1699465Y2034494D01*
X1709465Y2044494D01*
Y2054494D01*
X1699465D01*
X1689465Y2044494D01*
X1679465Y2054494D01*
X1669465D01*
Y2044494D01*
X1679465Y2034494D01*
X1669465Y2024494D01*
Y2014494D01*
X1671412Y2064011D02*
X1681412D01*
X1691412Y2074011D01*
X1701412Y2064011D01*
X1711412D01*
Y2074011D01*
X1701412Y2084011D01*
X1711412Y2094011D01*
Y2104011D01*
X1701412D01*
X1691412Y2094011D01*
X1681412Y2104011D01*
X1671412D01*
Y2094011D01*
X1681412Y2084011D01*
X1671412Y2074011D01*
Y2064011D01*
X1527174Y1256201D02*
X1537174D01*
X1547174Y1266201D01*
X1557174Y1256201D01*
X1567174D01*
Y1266201D01*
X1557174Y1276201D01*
X1567174Y1286201D01*
Y1296201D01*
X1557174D01*
X1547174Y1286201D01*
X1537174Y1296201D01*
X1527174D01*
Y1286201D01*
X1537174Y1276201D01*
X1527174Y1266201D01*
Y1256201D01*
X1507588Y1253024D02*
X1517588D01*
X1527588Y1263024D01*
X1537588Y1253024D01*
X1547588D01*
Y1263024D01*
X1537588Y1273024D01*
X1547588Y1283024D01*
Y1293024D01*
X1537588D01*
X1527588Y1283024D01*
X1517588Y1293024D01*
X1507588D01*
Y1283024D01*
X1517588Y1273024D01*
X1507588Y1263024D01*
Y1253024D01*
X1524422Y1180471D02*
X1534422D01*
X1544422Y1190471D01*
X1554422Y1180471D01*
X1564422D01*
Y1190471D01*
X1554422Y1200471D01*
X1564422Y1210471D01*
Y1220471D01*
X1554422D01*
X1544422Y1210471D01*
X1534422Y1220471D01*
X1524422D01*
Y1210471D01*
X1534422Y1200471D01*
X1524422Y1190471D01*
Y1180471D01*
X1593634Y1199526D02*
X1603634D01*
X1613634Y1209526D01*
X1623634Y1199526D01*
X1633634D01*
Y1209526D01*
X1623634Y1219526D01*
X1633634Y1229526D01*
Y1239526D01*
X1623634D01*
X1613634Y1229526D01*
X1603634Y1239526D01*
X1593634D01*
Y1229526D01*
X1603634Y1219526D01*
X1593634Y1209526D01*
Y1199526D01*
X1649743Y1210661D02*
X1659743D01*
X1669743Y1220661D01*
X1679743Y1210661D01*
X1689743D01*
Y1220661D01*
X1679743Y1230661D01*
X1689743Y1240661D01*
Y1250661D01*
X1679743D01*
X1669743Y1240661D01*
X1659743Y1250661D01*
X1649743D01*
Y1240661D01*
X1659743Y1230661D01*
X1649743Y1220661D01*
Y1210661D01*
X1669465Y1208479D02*
X1679465D01*
X1689465Y1218479D01*
X1699465Y1208479D01*
X1709465D01*
Y1218479D01*
X1699465Y1228479D01*
X1709465Y1238479D01*
Y1248479D01*
X1699465D01*
X1689465Y1238479D01*
X1679465Y1248479D01*
X1669465D01*
Y1238479D01*
X1679465Y1228479D01*
X1669465Y1218479D01*
Y1208479D01*
X1646229Y1659208D02*
X1656229D01*
X1666229Y1669208D01*
X1676229Y1659208D01*
X1686229D01*
Y1669208D01*
X1676229Y1679208D01*
X1686229Y1689208D01*
Y1699208D01*
X1676229D01*
X1666229Y1689208D01*
X1656229Y1699208D01*
X1646229D01*
Y1689208D01*
X1656229Y1679208D01*
X1646229Y1669208D01*
Y1659208D01*
X1586702D02*
X1596702D01*
X1606702Y1669208D01*
X1616702Y1659208D01*
X1626702D01*
Y1669208D01*
X1616702Y1679208D01*
X1626702Y1689208D01*
Y1699208D01*
X1616702D01*
X1606702Y1689208D01*
X1596702Y1699208D01*
X1586702D01*
Y1689208D01*
X1596702Y1679208D01*
X1586702Y1669208D01*
Y1659208D01*
X1566859D02*
X1576859D01*
X1586859Y1669208D01*
X1596859Y1659208D01*
X1606859D01*
Y1669208D01*
X1596859Y1679208D01*
X1606859Y1689208D01*
Y1699208D01*
X1596859D01*
X1586859Y1689208D01*
X1576859Y1699208D01*
X1566859D01*
Y1689208D01*
X1576859Y1679208D01*
X1566859Y1669208D01*
Y1659208D01*
X1547017D02*
X1557017D01*
X1567017Y1669208D01*
X1577017Y1659208D01*
X1587017D01*
Y1669208D01*
X1577017Y1679208D01*
X1587017Y1689208D01*
Y1699208D01*
X1577017D01*
X1567017Y1689208D01*
X1557017Y1699208D01*
X1547017D01*
Y1689208D01*
X1557017Y1679208D01*
X1547017Y1669208D01*
Y1659208D01*
X1524422Y1583479D02*
X1534422D01*
X1544422Y1593479D01*
X1554422Y1583479D01*
X1564422D01*
Y1593479D01*
X1554422Y1603479D01*
X1564422Y1613479D01*
Y1623479D01*
X1554422D01*
X1544422Y1613479D01*
X1534422Y1623479D01*
X1524422D01*
Y1613479D01*
X1534422Y1603479D01*
X1524422Y1593479D01*
Y1583479D01*
X1522449Y1603223D02*
X1532449D01*
X1542449Y1613223D01*
X1552449Y1603223D01*
X1562449D01*
Y1613223D01*
X1552449Y1623223D01*
X1562449Y1633223D01*
Y1643223D01*
X1552449D01*
X1542449Y1633223D01*
X1532449Y1643223D01*
X1522449D01*
Y1633223D01*
X1532449Y1623223D01*
X1522449Y1613223D01*
Y1603223D01*
X1539319Y1613669D02*
X1549319D01*
X1559319Y1623669D01*
X1569319Y1613669D01*
X1579319D01*
Y1623669D01*
X1569319Y1633669D01*
X1579319Y1643669D01*
Y1653669D01*
X1569319D01*
X1559319Y1643669D01*
X1549319Y1653669D01*
X1539319D01*
Y1643669D01*
X1549319Y1633669D01*
X1539319Y1623669D01*
Y1613669D01*
X1593634Y1602534D02*
X1603634D01*
X1613634Y1612534D01*
X1623634Y1602534D01*
X1633634D01*
Y1612534D01*
X1623634Y1622534D01*
X1633634Y1632534D01*
Y1642534D01*
X1623634D01*
X1613634Y1632534D01*
X1603634Y1642534D01*
X1593634D01*
Y1632534D01*
X1603634Y1622534D01*
X1593634Y1612534D01*
Y1602534D01*
X1610058Y1613669D02*
X1620058D01*
X1630058Y1623669D01*
X1640058Y1613669D01*
X1650058D01*
Y1623669D01*
X1640058Y1633669D01*
X1650058Y1643669D01*
Y1653669D01*
X1640058D01*
X1630058Y1643669D01*
X1620058Y1653669D01*
X1610058D01*
Y1643669D01*
X1620058Y1633669D01*
X1610058Y1623669D01*
Y1613669D01*
X1669465Y1611487D02*
X1679465D01*
X1689465Y1621487D01*
X1699465Y1611487D01*
X1709465D01*
Y1621487D01*
X1699465Y1631487D01*
X1709465Y1641487D01*
Y1651487D01*
X1699465D01*
X1689465Y1641487D01*
X1679465Y1651487D01*
X1669465D01*
Y1641487D01*
X1679465Y1631487D01*
X1669465Y1621487D01*
Y1611487D01*
X1671412Y1661003D02*
X1681412D01*
X1691412Y1671003D01*
X1701412Y1661003D01*
X1711412D01*
Y1671003D01*
X1701412Y1681003D01*
X1711412Y1691003D01*
Y1701003D01*
X1701412D01*
X1691412Y1691003D01*
X1681412Y1701003D01*
X1671412D01*
Y1691003D01*
X1681412Y1681003D01*
X1671412Y1671003D01*
Y1661003D01*
X2672028Y2047716D02*
X2682028D01*
X2692028Y2057716D01*
X2702028Y2047716D01*
X2712028D01*
Y2057716D01*
X2702028Y2067716D01*
X2712028Y2077716D01*
Y2087716D01*
X2702028D01*
X2692028Y2077716D01*
X2682028Y2087716D01*
X2672028D01*
Y2077716D01*
X2682028Y2067716D01*
X2672028Y2057716D01*
Y2047716D01*
X1494210Y1423543D02*
X1504210D01*
X1514210Y1433543D01*
X1524210Y1423543D01*
X1534210D01*
Y1433543D01*
X1524210Y1443543D01*
X1534210Y1453543D01*
Y1463543D01*
X1524210D01*
X1514210Y1453543D01*
X1504210Y1463543D01*
X1494210D01*
Y1453543D01*
X1504210Y1443543D01*
X1494210Y1433543D01*
Y1423543D01*
X2672028Y1997716D02*
X2682028D01*
X2692028Y2007716D01*
X2702028Y1997716D01*
X2712028D01*
Y2007716D01*
X2702028Y2017716D01*
X2712028Y2027716D01*
Y2037716D01*
X2702028D01*
X2692028Y2027716D01*
X2682028Y2037716D01*
X2672028D01*
Y2027716D01*
X2682028Y2017716D01*
X2672028Y2007716D01*
Y1997716D01*
X1465778Y1423543D02*
X1475778D01*
X1485778Y1433543D01*
X1495778Y1423543D01*
X1505778D01*
Y1433543D01*
X1495778Y1443543D01*
X1505778Y1453543D01*
Y1463543D01*
X1495778D01*
X1485778Y1453543D01*
X1475778Y1463543D01*
X1465778D01*
Y1453543D01*
X1475778Y1443543D01*
X1465778Y1433543D01*
Y1423543D01*
X1199376Y604606D02*
X1209376D01*
X1219376Y614606D01*
X1229376Y604606D01*
X1239376D01*
Y614606D01*
X1229376Y624606D01*
X1239376Y634606D01*
Y644606D01*
X1229376D01*
X1219376Y634606D01*
X1209376Y644606D01*
X1199376D01*
Y634606D01*
X1209376Y624606D01*
X1199376Y614606D01*
Y604606D01*
X1467284Y1223922D02*
X1477284D01*
X1487284Y1233922D01*
X1497284Y1223922D01*
X1507284D01*
Y1233922D01*
X1497284Y1243922D01*
X1507284Y1253922D01*
Y1263922D01*
X1497284D01*
X1487284Y1253922D01*
X1477284Y1263922D01*
X1467284D01*
Y1253922D01*
X1477284Y1243922D01*
X1467284Y1233922D01*
Y1223922D01*
X1453334D02*
X1463334D01*
X1473334Y1233922D01*
X1483334Y1223922D01*
X1493334D01*
Y1233922D01*
X1483334Y1243922D01*
X1493334Y1253922D01*
Y1263922D01*
X1483334D01*
X1473334Y1253922D01*
X1463334Y1263922D01*
X1453334D01*
Y1253922D01*
X1463334Y1243922D01*
X1453334Y1233922D01*
Y1223922D01*
X2622028Y1947716D02*
X2632028D01*
X2642028Y1957716D01*
X2652028Y1947716D01*
X2662028D01*
Y1957716D01*
X2652028Y1967716D01*
X2662028Y1977716D01*
Y1987716D01*
X2652028D01*
X2642028Y1977716D01*
X2632028Y1987716D01*
X2622028D01*
Y1977716D01*
X2632028Y1967716D01*
X2622028Y1957716D01*
Y1947716D01*
X2622028Y1897716D02*
X2632028D01*
X2642028Y1907716D01*
X2652028Y1897716D01*
X2662028D01*
Y1907716D01*
X2652028Y1917716D01*
X2662028Y1927716D01*
Y1937716D01*
X2652028D01*
X2642028Y1927716D01*
X2632028Y1937716D01*
X2622028D01*
Y1927716D01*
X2632028Y1917716D01*
X2622028Y1907716D01*
Y1897716D01*
X1347618Y366637D02*
X1357618D01*
X1367618Y376637D01*
X1377618Y366637D01*
X1387618D01*
Y376637D01*
X1377618Y386637D01*
X1387618Y396637D01*
Y406637D01*
X1377618D01*
X1367618Y396637D01*
X1357618Y406637D01*
X1347618D01*
Y396637D01*
X1357618Y386637D01*
X1347618Y376637D01*
Y366637D01*
X2472028Y1847716D02*
X2482028D01*
X2492028Y1857716D01*
X2502028Y1847716D01*
X2512028D01*
Y1857716D01*
X2502028Y1867716D01*
X2512028Y1877716D01*
Y1887716D01*
X2502028D01*
X2492028Y1877716D01*
X2482028Y1887716D01*
X2472028D01*
Y1877716D01*
X2482028Y1867716D01*
X2472028Y1857716D01*
Y1847716D01*
X1689406Y2051289D02*
X1699406D01*
X1709406Y2061289D01*
X1719406Y2051289D01*
X1729406D01*
Y2061289D01*
X1719406Y2071289D01*
X1729406Y2081289D01*
Y2091289D01*
X1719406D01*
X1709406Y2081289D01*
X1699406Y2091289D01*
X1689406D01*
Y2081289D01*
X1699406Y2071289D01*
X1689406Y2061289D01*
Y2051289D01*
Y2027604D02*
X1699406D01*
X1709406Y2037604D01*
X1719406Y2027604D01*
X1729406D01*
Y2037604D01*
X1719406Y2047604D01*
X1729406Y2057604D01*
Y2067604D01*
X1719406D01*
X1709406Y2057604D01*
X1699406Y2067604D01*
X1689406D01*
Y2057604D01*
X1699406Y2047604D01*
X1689406Y2037604D01*
Y2027604D01*
X1491753Y539692D02*
X1501753D01*
X1511753Y549692D01*
X1521753Y539692D01*
X1531753D01*
Y549692D01*
X1521753Y559692D01*
X1531753Y569692D01*
Y579692D01*
X1521753D01*
X1511753Y569692D01*
X1501753Y579692D01*
X1491753D01*
Y569692D01*
X1501753Y559692D01*
X1491753Y549692D01*
Y539692D01*
X1468068D02*
X1478068D01*
X1488068Y549692D01*
X1498068Y539692D01*
X1508068D01*
Y549692D01*
X1498068Y559692D01*
X1508068Y569692D01*
Y579692D01*
X1498068D01*
X1488068Y569692D01*
X1478068Y579692D01*
X1468068D01*
Y569692D01*
X1478068Y559692D01*
X1468068Y549692D01*
Y539692D01*
X1450466Y782707D02*
X1460466D01*
X1470466Y792707D01*
X1480466Y782707D01*
X1490466D01*
Y792707D01*
X1480466Y802707D01*
X1490466Y812707D01*
Y822707D01*
X1480466D01*
X1470466Y812707D01*
X1460466Y822707D01*
X1450466D01*
Y812707D01*
X1460466Y802707D01*
X1450466Y792707D01*
Y782707D01*
X1199376Y573110D02*
X1209376D01*
X1219376Y583110D01*
X1229376Y573110D01*
X1239376D01*
Y583110D01*
X1229376Y593110D01*
X1239376Y603110D01*
Y613110D01*
X1229376D01*
X1219376Y603110D01*
X1209376Y613110D01*
X1199376D01*
Y603110D01*
X1209376Y593110D01*
X1199376Y583110D01*
Y573110D01*
X1470151Y782707D02*
X1480151D01*
X1490151Y792707D01*
X1500151Y782707D01*
X1510151D01*
Y792707D01*
X1500151Y802707D01*
X1510151Y812707D01*
Y822707D01*
X1500151D01*
X1490151Y812707D01*
X1480151Y822707D01*
X1470151D01*
Y812707D01*
X1480151Y802707D01*
X1470151Y792707D01*
Y782707D01*
X1450108Y1048190D02*
X1460108D01*
X1470108Y1058190D01*
X1480108Y1048190D01*
X1490108D01*
Y1058190D01*
X1480108Y1068190D01*
X1490108Y1078190D01*
Y1088190D01*
X1480108D01*
X1470108Y1078190D01*
X1460108Y1088190D01*
X1450108D01*
Y1078190D01*
X1460108Y1068190D01*
X1450108Y1058190D01*
Y1048190D01*
X1509163D02*
X1519163D01*
X1529163Y1058190D01*
X1539163Y1048190D01*
X1549163D01*
Y1058190D01*
X1539163Y1068190D01*
X1549163Y1078190D01*
Y1088190D01*
X1539163D01*
X1529163Y1078190D01*
X1519163Y1088190D01*
X1509163D01*
Y1078190D01*
X1519163Y1068190D01*
X1509163Y1058190D01*
Y1048190D01*
X2772028Y1047716D02*
X2782028D01*
X2792028Y1057716D01*
X2802028Y1047716D01*
X2812028D01*
Y1057716D01*
X2802028Y1067716D01*
X2812028Y1077716D01*
Y1087716D01*
X2802028D01*
X2792028Y1077716D01*
X2782028Y1087716D01*
X2772028D01*
Y1077716D01*
X2782028Y1067716D01*
X2772028Y1057716D01*
Y1047716D01*
Y997716D02*
X2782028D01*
X2792028Y1007716D01*
X2802028Y997716D01*
X2812028D01*
Y1007716D01*
X2802028Y1017716D01*
X2812028Y1027716D01*
Y1037716D01*
X2802028D01*
X2792028Y1027716D01*
X2782028Y1037716D01*
X2772028D01*
Y1027716D01*
X2782028Y1017716D01*
X2772028Y1007716D01*
Y997716D01*
Y2047911D02*
X2782028D01*
X2792028Y2057911D01*
X2802028Y2047911D01*
X2812028D01*
Y2057911D01*
X2802028Y2067911D01*
X2812028Y2077911D01*
Y2087911D01*
X2802028D01*
X2792028Y2077911D01*
X2782028Y2087911D01*
X2772028D01*
Y2077911D01*
X2782028Y2067911D01*
X2772028Y2057911D01*
Y2047911D01*
Y1997911D02*
X2782028D01*
X2792028Y2007911D01*
X2802028Y1997911D01*
X2812028D01*
Y2007911D01*
X2802028Y2017911D01*
X2812028Y2027911D01*
Y2037911D01*
X2802028D01*
X2792028Y2027911D01*
X2782028Y2037911D01*
X2772028D01*
Y2027911D01*
X2782028Y2017911D01*
X2772028Y2007911D01*
Y1997911D01*
X1195199Y1161724D02*
X1205199D01*
X1215199Y1171724D01*
X1225199Y1161724D01*
X1235199D01*
Y1171724D01*
X1225199Y1181724D01*
X1235199Y1191724D01*
Y1201724D01*
X1225199D01*
X1215199Y1191724D01*
X1205199Y1201724D01*
X1195199D01*
Y1191724D01*
X1205199Y1181724D01*
X1195199Y1171724D01*
Y1161724D01*
Y1138039D02*
X1205199D01*
X1215199Y1148039D01*
X1225199Y1138039D01*
X1235199D01*
Y1148039D01*
X1225199Y1158039D01*
X1235199Y1168039D01*
Y1178039D01*
X1225199D01*
X1215199Y1168039D01*
X1205199Y1178039D01*
X1195199D01*
Y1168039D01*
X1205199Y1158039D01*
X1195199Y1148039D01*
Y1138039D01*
X1448466Y1602416D02*
X1458466D01*
X1468466Y1612416D01*
X1478466Y1602416D01*
X1488466D01*
Y1612416D01*
X1478466Y1622416D01*
X1488466Y1632416D01*
Y1642416D01*
X1478466D01*
X1468466Y1632416D01*
X1458466Y1642416D01*
X1448466D01*
Y1632416D01*
X1458466Y1622416D01*
X1448466Y1612416D01*
Y1602416D01*
X1472151D02*
X1482151D01*
X1492151Y1612416D01*
X1502151Y1602416D01*
X1512151D01*
Y1612416D01*
X1502151Y1622416D01*
X1512151Y1632416D01*
Y1642416D01*
X1502151D01*
X1492151Y1632416D01*
X1482151Y1642416D01*
X1472151D01*
Y1632416D01*
X1482151Y1622416D01*
X1472151Y1612416D01*
Y1602416D01*
X1689406Y1648281D02*
X1699406D01*
X1709406Y1658281D01*
X1719406Y1648281D01*
X1729406D01*
Y1658281D01*
X1719406Y1668281D01*
X1729406Y1678281D01*
Y1688281D01*
X1719406D01*
X1709406Y1678281D01*
X1699406Y1688281D01*
X1689406D01*
Y1678281D01*
X1699406Y1668281D01*
X1689406Y1658281D01*
Y1648281D01*
Y1624596D02*
X1699406D01*
X1709406Y1634596D01*
X1719406Y1624596D01*
X1729406D01*
Y1634596D01*
X1719406Y1644596D01*
X1729406Y1654596D01*
Y1664596D01*
X1719406D01*
X1709406Y1654596D01*
X1699406Y1664596D01*
X1689406D01*
Y1654596D01*
X1699406Y1644596D01*
X1689406Y1634596D01*
Y1624596D01*
Y1245274D02*
X1699406D01*
X1709406Y1255274D01*
X1719406Y1245274D01*
X1729406D01*
Y1255274D01*
X1719406Y1265274D01*
X1729406Y1275274D01*
Y1285274D01*
X1719406D01*
X1709406Y1275274D01*
X1699406Y1285274D01*
X1689406D01*
Y1275274D01*
X1699406Y1265274D01*
X1689406Y1255274D01*
Y1245274D01*
Y1221589D02*
X1699406D01*
X1709406Y1231589D01*
X1719406Y1221589D01*
X1729406D01*
Y1231589D01*
X1719406Y1241589D01*
X1729406Y1251589D01*
Y1261589D01*
X1719406D01*
X1709406Y1251589D01*
X1699406Y1261589D01*
X1689406D01*
Y1251589D01*
X1699406Y1241589D01*
X1689406Y1231589D01*
Y1221589D01*
Y842266D02*
X1699406D01*
X1709406Y852266D01*
X1719406Y842266D01*
X1729406D01*
Y852266D01*
X1719406Y862266D01*
X1729406Y872266D01*
Y882266D01*
X1719406D01*
X1709406Y872266D01*
X1699406Y882266D01*
X1689406D01*
Y872266D01*
X1699406Y862266D01*
X1689406Y852266D01*
Y842266D01*
Y818581D02*
X1699406D01*
X1709406Y828581D01*
X1719406Y818581D01*
X1729406D01*
Y828581D01*
X1719406Y838581D01*
X1729406Y848581D01*
Y858581D01*
X1719406D01*
X1709406Y848581D01*
X1699406Y858581D01*
X1689406D01*
Y848581D01*
X1699406Y838581D01*
X1689406Y828581D01*
Y818581D01*
X1450466Y1854140D02*
X1460466D01*
X1470466Y1864140D01*
X1480466Y1854140D01*
X1490466D01*
Y1864140D01*
X1480466Y1874140D01*
X1490466Y1884140D01*
Y1894140D01*
X1480466D01*
X1470466Y1884140D01*
X1460466Y1894140D01*
X1450466D01*
Y1884140D01*
X1460466Y1874140D01*
X1450466Y1864140D01*
Y1854140D01*
X1199376Y1354606D02*
X1209376D01*
X1219376Y1364606D01*
X1229376Y1354606D01*
X1239376D01*
Y1364606D01*
X1229376Y1374606D01*
X1239376Y1384606D01*
Y1394606D01*
X1229376D01*
X1219376Y1384606D01*
X1209376Y1394606D01*
X1199376D01*
Y1384606D01*
X1209376Y1374606D01*
X1199376Y1364606D01*
Y1354606D01*
X1509522Y1854140D02*
X1519522D01*
X1529522Y1864140D01*
X1539522Y1854140D01*
X1549522D01*
Y1864140D01*
X1539522Y1874140D01*
X1549522Y1884140D01*
Y1894140D01*
X1539522D01*
X1529522Y1884140D01*
X1519522Y1894140D01*
X1509522D01*
Y1884140D01*
X1519522Y1874140D01*
X1509522Y1864140D01*
Y1854140D01*
X1199376Y1323110D02*
X1209376D01*
X1219376Y1333110D01*
X1229376Y1323110D01*
X1239376D01*
Y1333110D01*
X1229376Y1343110D01*
X1239376Y1353110D01*
Y1363110D01*
X1229376D01*
X1219376Y1353110D01*
X1209376Y1363110D01*
X1199376D01*
Y1353110D01*
X1209376Y1343110D01*
X1199376Y1333110D01*
Y1323110D01*
M02*
