G04*
G04 #@! TF.GenerationSoftware,Altium Limited,Altium Designer,24.2.2 (26)*
G04*
G04 Layer_Color=128*
%FSLAX26Y26*%
%MOIN*%
G70*
G04*
G04 #@! TF.SameCoordinates,1490CFCF-B2EF-406E-B7EC-920D21FDAB99*
G04*
G04*
G04 #@! TF.FilePolarity,Positive*
G04*
G01*
G75*
%ADD109C,0.005000*%
D109*
X993475Y2043238D02*
X1003318D01*
X998396Y2038317D02*
Y2048160D01*
X969790Y2043238D02*
X979633D01*
X974712Y2038317D02*
Y2048160D01*
X1210278Y809677D02*
X1220120D01*
X1215199Y804756D02*
Y814598D01*
X1637648Y2195010D02*
X1647491D01*
X1642570Y2190089D02*
Y2199932D01*
X2291305Y1930874D02*
X2301148D01*
X2296227Y1925953D02*
Y1935795D01*
X969796Y1581196D02*
X979638D01*
X974717Y1576275D02*
Y1586118D01*
X2291305Y1954559D02*
X2301148D01*
X2296227Y1949638D02*
Y1959480D01*
X993481Y1581196D02*
X1003323D01*
X998402Y1576275D02*
Y1586118D01*
X2182486Y871043D02*
X2192329D01*
X2187407Y866122D02*
Y875964D01*
X2392836Y1279812D02*
X2402679D01*
X2397758Y1274890D02*
Y1284733D01*
X1834125Y1825574D02*
X1843967D01*
X1839046Y1820652D02*
Y1830495D01*
X2139912Y1273969D02*
X2149754D01*
X2144833Y1269048D02*
Y1278890D01*
X1960068Y1699631D02*
X1969910D01*
X1964989Y1694710D02*
Y1704552D01*
X1756812Y1180997D02*
X1766655D01*
X1761734Y1176076D02*
Y1185918D01*
X1388983Y1412152D02*
X1398825D01*
X1393904Y1407231D02*
Y1417074D01*
X1574786Y1630838D02*
X1584628D01*
X1579707Y1625917D02*
Y1635760D01*
X2137038Y1330493D02*
X2146880D01*
X2141959Y1325572D02*
Y1335415D01*
X1233474Y1844040D02*
X1243317D01*
X1238396Y1839118D02*
Y1848961D01*
X1462313Y1224236D02*
X1472155D01*
X1467234Y1219314D02*
Y1229157D01*
X1885598Y-154934D02*
X1895440D01*
X1890519Y-159855D02*
Y-150013D01*
X1503204Y1722375D02*
X1513046D01*
X1508125Y1717454D02*
Y1727296D01*
X1320747Y1848944D02*
X1330590D01*
X1325668Y1844023D02*
Y1853865D01*
X2142293Y2195010D02*
X2152136D01*
X2147215Y2190089D02*
Y2199932D01*
X1939077Y1720621D02*
X1948920D01*
X1943998Y1715700D02*
Y1725543D01*
X1904813Y2195010D02*
X1914656D01*
X1909735Y2190089D02*
Y2199932D01*
X2082923Y2195010D02*
X2092766D01*
X2087845Y2190089D02*
Y2199932D01*
X1412984Y1299605D02*
X1422826D01*
X1417905Y1294684D02*
Y1304527D01*
X1234361Y1992451D02*
X1244203D01*
X1239282Y1987530D02*
Y1997372D01*
X1687191Y1972507D02*
X1697034D01*
X1692113Y1967586D02*
Y1977428D01*
X1264223Y1886911D02*
X1274065D01*
X1269144Y1881990D02*
Y1891832D01*
X2327385Y1331664D02*
X2337227D01*
X2332306Y1326743D02*
Y1336585D01*
X1264223Y1857226D02*
X1274065D01*
X1269144Y1852305D02*
Y1862148D01*
X2118590Y1168579D02*
X2128432D01*
X2123511Y1163658D02*
Y1173500D01*
X2019051Y1720585D02*
X2028893D01*
X2023972Y1715664D02*
Y1725506D01*
X2355484Y1171205D02*
X2365327D01*
X2360406Y1166283D02*
Y1176126D01*
X1097475Y1546001D02*
X1107317D01*
X1102396Y1541080D02*
Y1550922D01*
X2181639Y1818617D02*
X2191481D01*
X2186560Y1813696D02*
Y1823539D01*
X1702751Y1155121D02*
X1712594D01*
X1707672Y1150199D02*
Y1160042D01*
X2238164Y665074D02*
X2248006D01*
X2243085Y660152D02*
Y669995D01*
X2166863Y1733501D02*
X2176706D01*
X2171784Y1728580D02*
Y1738422D01*
X1732245Y1571601D02*
X1742087D01*
X1737166Y1566680D02*
Y1576522D01*
X1177836Y1912478D02*
X1187679D01*
X1182758Y1907557D02*
Y1917399D01*
X2237126Y1725109D02*
X2246968D01*
X2242047Y1720188D02*
Y1730031D01*
X1457028Y1987972D02*
X1466871D01*
X1461950Y1983051D02*
Y1992893D01*
X2123058Y-156036D02*
X2132900D01*
X2127979Y-160957D02*
Y-151114D01*
X2181639Y639379D02*
X2191481D01*
X2186560Y634457D02*
Y644300D01*
X1723742Y1134130D02*
X1733584D01*
X1728663Y1129209D02*
Y1139051D01*
X1177836Y2031218D02*
X1187679D01*
X1182758Y2026297D02*
Y2036139D01*
X2238164Y605704D02*
X2248006D01*
X2243085Y600782D02*
Y610625D01*
X1761930Y1571601D02*
X1771772D01*
X1766851Y1566680D02*
Y1576522D01*
X1672424Y1264524D02*
X1682266D01*
X1677345Y1259603D02*
Y1269445D01*
X2177326Y1162478D02*
X2187169D01*
X2182247Y1157557D02*
Y1167399D01*
X1849685Y1008187D02*
X1859527D01*
X1854606Y1003266D02*
Y1013109D01*
X1179241Y1437638D02*
X1189083D01*
X1184162Y1432717D02*
Y1442559D01*
X2238164Y1903201D02*
X2248006D01*
X2243085Y1898280D02*
Y1908122D01*
X1320747Y1819259D02*
X1330590D01*
X1325668Y1814338D02*
Y1824180D01*
X1177836Y1942163D02*
X1187679D01*
X1182758Y1937242D02*
Y1947084D01*
X2233851Y1352922D02*
X2243693D01*
X2238772Y1348001D02*
Y1357844D01*
X1219568Y1817813D02*
X1229410D01*
X1224489Y1812892D02*
Y1822735D01*
X2238164Y1784461D02*
X2248006D01*
X2243085Y1779540D02*
Y1789382D01*
X1389722Y1352792D02*
X1399564D01*
X1394643Y1347870D02*
Y1357713D01*
X1873263Y-38878D02*
X1883106D01*
X1878184Y-43800D02*
Y-33957D01*
X2177326Y1447275D02*
X2187169D01*
X2182247Y1442354D02*
Y1452196D01*
X1791615Y1571601D02*
X1801457D01*
X1796536Y1566680D02*
Y1576522D01*
X1872118Y1867519D02*
X1881960D01*
X1877039Y1862597D02*
Y1872440D01*
X1395651Y1323705D02*
X1405494D01*
X1400572Y1318784D02*
Y1328626D01*
X1320747Y1967684D02*
X1330590D01*
X1325668Y1962763D02*
Y1972605D01*
X1845443Y2195010D02*
X1855286D01*
X1850364Y2190089D02*
Y2199932D01*
X2413205Y1347310D02*
X2423048D01*
X2418126Y1342389D02*
Y1352231D01*
X1821300Y1571601D02*
X1831142D01*
X1826221Y1566680D02*
Y1576522D01*
X2148143Y1225103D02*
X2157985D01*
X2153064Y1220182D02*
Y1230025D01*
X1320747Y1908314D02*
X1330590D01*
X1325668Y1903393D02*
Y1913235D01*
X1954637Y903235D02*
X1964479D01*
X1959558Y898314D02*
Y908156D01*
X2224948Y489627D02*
X2234790D01*
X2229869Y484705D02*
Y494548D01*
X2238164Y1814146D02*
X2248006D01*
X2243085Y1809225D02*
Y1819068D01*
X1815758Y2195010D02*
X1825601D01*
X1820679Y2190089D02*
Y2199932D01*
X1209812Y1781430D02*
X1219654D01*
X1214733Y1776509D02*
Y1786351D01*
X2352238Y-164442D02*
X2362081D01*
X2357160Y-169364D02*
Y-159521D01*
X2166723Y1330493D02*
X2176565D01*
X2171644Y1325572D02*
Y1335415D01*
X1473519Y1722375D02*
X1483361D01*
X1478440Y1717454D02*
Y1727296D01*
X1643432Y1575384D02*
X1653274D01*
X1648353Y1570463D02*
Y1580305D01*
X2063688Y-156036D02*
X2073530D01*
X2068609Y-160957D02*
Y-151114D01*
X2101570Y756302D02*
X2111412D01*
X2106491Y751381D02*
Y761223D01*
X1194019Y1494163D02*
X1203861D01*
X1198940Y1489241D02*
Y1499084D01*
X2442890Y1347310D02*
X2452733D01*
X2447811Y1342389D02*
Y1352231D01*
X2082022Y1657614D02*
X2091865D01*
X2086943Y1652693D02*
Y1662535D01*
X1149556Y1437792D02*
X1159399D01*
X1154478Y1432870D02*
Y1442713D01*
X1856200Y16289D02*
X1866042D01*
X1861121Y11368D02*
Y21210D01*
X2122561Y735311D02*
X2132403D01*
X2127482Y730390D02*
Y740232D01*
X2233851Y1081518D02*
X2243693D01*
X2238772Y1076597D02*
Y1086439D01*
X2181639Y1788932D02*
X2191481D01*
X2186560Y1784011D02*
Y1793854D01*
X1126442Y1539512D02*
X1136284D01*
X1131363Y1534591D02*
Y1544433D01*
X2233851Y1140888D02*
X2243693D01*
X2238772Y1135966D02*
Y1145809D01*
X2355484Y1260259D02*
X2365327D01*
X2360406Y1255338D02*
Y1265181D01*
X1121555Y1447648D02*
X1131398D01*
X1126477Y1442726D02*
Y1452569D01*
X2176622Y761188D02*
X2186464D01*
X2181543Y756267D02*
Y766109D01*
X1164334Y1494163D02*
X1174176D01*
X1169255Y1489241D02*
Y1499084D01*
X1581053Y1224236D02*
X1590895D01*
X1585974Y1219314D02*
Y1229157D01*
X2082978Y473144D02*
X2092820D01*
X2087899Y468223D02*
Y478065D01*
X2177326Y1132793D02*
X2187169D01*
X2182247Y1127872D02*
Y1137715D01*
X1987707Y950102D02*
X1997550D01*
X1992629Y945181D02*
Y955023D01*
X2355484Y-45880D02*
X2365327D01*
X2360406Y-50802D02*
Y-40959D01*
X1977070Y1762566D02*
X1986912D01*
X1981991Y1757645D02*
Y1767487D01*
X1960786Y1374424D02*
X1970629D01*
X1965708Y1369503D02*
Y1379345D01*
X1639780Y1218092D02*
X1649622D01*
X1644701Y1213171D02*
Y1223013D01*
X2559535Y1239992D02*
X2569378D01*
X2564457Y1235071D02*
Y1244914D01*
X1389722Y1382477D02*
X1399564D01*
X1394643Y1377555D02*
Y1387398D01*
X2181639Y1848302D02*
X2191481D01*
X2186560Y1843381D02*
Y1853224D01*
X2298960Y1162062D02*
X2308802D01*
X2303881Y1157141D02*
Y1166983D01*
X1013582Y1537788D02*
X1023425D01*
X1018504Y1532867D02*
Y1542709D01*
X1708182Y1951516D02*
X1718024D01*
X1713103Y1946595D02*
Y1956438D01*
X2112608Y2195010D02*
X2122451D01*
X2117530Y2190089D02*
Y2199932D01*
X1875128Y2195010D02*
X1884971D01*
X1880050Y2190089D02*
Y2199932D01*
X1966717Y971093D02*
X1976560D01*
X1971638Y966171D02*
Y976014D01*
X2137178Y1733501D02*
X2147021D01*
X2142099Y1728580D02*
Y1738422D01*
X2165431Y927486D02*
X2175273D01*
X2170352Y922565D02*
Y932407D01*
X2177326Y984368D02*
X2187169D01*
X2182247Y979447D02*
Y989289D01*
X1326386Y1713673D02*
X1336228D01*
X1331307Y1708752D02*
Y1718595D01*
X2212113Y-156036D02*
X2221955D01*
X2217034Y-160957D02*
Y-151114D01*
X2152743Y-156036D02*
X2162585D01*
X2157664Y-160957D02*
Y-151114D01*
X1855115Y1804583D02*
X1864958D01*
X1860036Y1799662D02*
Y1809504D01*
X2233851Y1022148D02*
X2243693D01*
X2238772Y1017226D02*
Y1027069D01*
X2235226Y694613D02*
X2245068D01*
X2240147Y689692D02*
Y699534D01*
X1223704Y1494163D02*
X1233546D01*
X1228625Y1489241D02*
Y1499084D01*
X1208926Y1437638D02*
X1218768D01*
X1213847Y1432717D02*
Y1442559D01*
X1843655Y1401371D02*
X1853498D01*
X1848577Y1396450D02*
Y1406293D01*
X1767165Y1972471D02*
X1777008D01*
X1772086Y1967550D02*
Y1977392D01*
X1532887Y1722065D02*
X1542729D01*
X1537808Y1717144D02*
Y1726987D01*
X2355484Y1230574D02*
X2365327D01*
X2360406Y1225653D02*
Y1235496D01*
X2238164Y576019D02*
X2248006D01*
X2243085Y571097D02*
Y580940D01*
X2229281Y903762D02*
X2239123D01*
X2234202Y898840D02*
Y908683D01*
X2470214Y1290785D02*
X2480056D01*
X2475135Y1285864D02*
Y1295706D01*
X1681761Y1176111D02*
X1691603D01*
X1686682Y1171190D02*
Y1181032D01*
X1944948Y-156036D02*
X1954790D01*
X1949869Y-160957D02*
Y-151114D01*
X1296943Y1663781D02*
X1306785D01*
X1301864Y1658860D02*
Y1668702D01*
X1297886Y1736798D02*
X1307729D01*
X1302808Y1731877D02*
Y1741719D01*
X2298652Y-144077D02*
X2308494D01*
X2303573Y-148998D02*
Y-139155D01*
X2443257Y1278354D02*
X2453099D01*
X2448178Y1273432D02*
Y1283275D01*
X2051517Y1730322D02*
X2061359D01*
X2056438Y1725401D02*
Y1735243D01*
X2298960Y1251117D02*
X2308802D01*
X2303881Y1246196D02*
Y1256038D01*
X1816739Y-53287D02*
X1826581D01*
X1821660Y-58208D02*
Y-48366D01*
X2298960Y390252D02*
X2308802D01*
X2303881Y385331D02*
Y395173D01*
X1777803Y1160007D02*
X1787645D01*
X1782724Y1155086D02*
Y1164928D01*
X1320747Y1937999D02*
X1330590D01*
X1325668Y1933078D02*
Y1942920D01*
X2103013Y1636623D02*
X2112855D01*
X2107934Y1631702D02*
Y1641545D01*
X1234361Y1903396D02*
X1244203D01*
X1239282Y1898475D02*
Y1908318D01*
X2383520Y1347310D02*
X2393363D01*
X2388441Y1342389D02*
Y1352231D01*
X2177326Y1043738D02*
X2187169D01*
X2182247Y1038817D02*
Y1048659D01*
X2199045Y1277708D02*
X2208888D01*
X2203966Y1272787D02*
Y1282629D01*
X1238579Y1436246D02*
X1248421D01*
X1243500Y1431325D02*
Y1441168D01*
X2123116Y870961D02*
X2132959D01*
X2128038Y866040D02*
Y875882D01*
X2177326Y1387905D02*
X2187169D01*
X2182247Y1382984D02*
Y1392826D01*
X2355484Y-75566D02*
X2365327D01*
X2360406Y-80487D02*
Y-70644D01*
X1438626Y1284650D02*
X1448469D01*
X1443547Y1279729D02*
Y1289572D01*
X2181639Y580009D02*
X2191481D01*
X2186560Y575087D02*
Y584930D01*
X2093469Y872446D02*
X2103311D01*
X2098390Y867525D02*
Y877367D01*
X1234361Y1873711D02*
X1244203D01*
X1239282Y1868790D02*
Y1878632D01*
X2233851Y933093D02*
X2243693D01*
X2238772Y928172D02*
Y938014D01*
X2298960Y1102692D02*
X2308802D01*
X2303881Y1097771D02*
Y1107613D01*
X2233493Y1323240D02*
X2243336D01*
X2238415Y1318318D02*
Y1328161D01*
X2238164Y1932886D02*
X2248006D01*
X2243085Y1927965D02*
Y1937807D01*
X1404737Y1237188D02*
X1414579D01*
X1409658Y1232266D02*
Y1242109D01*
X1981058Y1678640D02*
X1990900D01*
X1985979Y1673719D02*
Y1683562D01*
X2562366Y1298143D02*
X2572209D01*
X2567287Y1293222D02*
Y1303064D01*
X2298960Y1132377D02*
X2308802D01*
X2303881Y1127456D02*
Y1137298D01*
X2059220Y1168579D02*
X2069062D01*
X2064141Y1163657D02*
Y1173500D01*
X1829692Y29652D02*
X1839535D01*
X1834613Y24730D02*
Y34573D01*
X2177828Y1225103D02*
X2187670D01*
X2182749Y1220182D02*
Y1230025D01*
X1264757Y2035332D02*
X1274600D01*
X1269679Y2030410D02*
Y2040253D01*
X1443834Y1722375D02*
X1453676D01*
X1448755Y1717454D02*
Y1727296D01*
X1320747Y1878629D02*
X1330590D01*
X1325668Y1873708D02*
Y1883550D01*
X2169597Y1273969D02*
X2179439D01*
X2174518Y1269048D02*
Y1278890D01*
X2233851Y1501347D02*
X2243693D01*
X2238772Y1496426D02*
Y1506269D01*
X1239496Y1781430D02*
X1249339D01*
X1244418Y1776509D02*
Y1786351D01*
X2233851Y1111203D02*
X2243693D01*
X2238772Y1106282D02*
Y1116124D01*
X1432813Y1227547D02*
X1442655D01*
X1437734Y1222626D02*
Y1232468D01*
X1975627Y882245D02*
X1985470D01*
X1980549Y877323D02*
Y887166D01*
X1970078Y1226734D02*
X1979920D01*
X1974999Y1221813D02*
Y1231655D01*
X2181639Y1937357D02*
X2191481D01*
X2186560Y1932436D02*
Y1942279D01*
X1234361Y1933081D02*
X1244203D01*
X1239282Y1928160D02*
Y1938003D01*
X2218603Y719207D02*
X2228445D01*
X2223524Y714286D02*
Y724128D01*
X2233851Y1170573D02*
X2243693D01*
X2238772Y1165651D02*
Y1175494D01*
X2135746Y927486D02*
X2145588D01*
X2140667Y922565D02*
Y932407D01*
X1177836Y1971848D02*
X1187679D01*
X1182758Y1966927D02*
Y1976769D01*
X2053238Y2195010D02*
X2063081D01*
X2058160Y2190089D02*
Y2199932D01*
X2118458Y1225103D02*
X2128300D01*
X2123379Y1220182D02*
Y1230025D01*
X2177326Y1417590D02*
X2187169D01*
X2182247Y1412669D02*
Y1422511D01*
X1177836Y1882793D02*
X1187679D01*
X1182758Y1877872D02*
Y1887714D01*
X2353929Y1344953D02*
X2363771D01*
X2358850Y1340032D02*
Y1349874D01*
X1193078Y1804415D02*
X1202921D01*
X1198000Y1799494D02*
Y1809336D01*
X1649576Y1635986D02*
X1659419D01*
X1654498Y1631064D02*
Y1640907D01*
X2298960Y1221432D02*
X2308802D01*
X2303881Y1216511D02*
Y1226353D01*
X2417594Y1263433D02*
X2427437D01*
X2422515Y1258512D02*
Y1268354D01*
X2181639Y1967042D02*
X2191481D01*
X2186560Y1962121D02*
Y1971964D01*
X2238164Y1873516D02*
X2248006D01*
X2243085Y1868595D02*
Y1878438D01*
X1934498Y2195010D02*
X1944341D01*
X1939419Y2190089D02*
Y2199932D01*
X2034003Y-156036D02*
X2043845D01*
X2038924Y-160957D02*
Y-151114D01*
X1870675Y987197D02*
X1880517D01*
X1875596Y982276D02*
Y992118D01*
X2152801Y870961D02*
X2162644D01*
X2157723Y866040D02*
Y875882D01*
X1240736Y1724906D02*
X1250578D01*
X1245657Y1719984D02*
Y1729827D01*
X1786073Y2195010D02*
X1795916D01*
X1790995Y2190089D02*
Y2199932D01*
X2238164Y546334D02*
X2248006D01*
X2243085Y541412D02*
Y551255D01*
X1102807Y1470663D02*
X1112649D01*
X1107728Y1465741D02*
Y1475584D01*
X1289679Y1692563D02*
X1299521D01*
X1294600Y1687642D02*
Y1697485D01*
X1276114Y2062758D02*
X1285957D01*
X1281036Y2057837D02*
Y2067679D01*
X2088905Y1168579D02*
X2098747D01*
X2093826Y1163657D02*
Y1173500D01*
X1264223Y1946281D02*
X1274065D01*
X1269144Y1941360D02*
Y1951203D01*
X1816811Y-142342D02*
X1826654D01*
X1821733Y-147263D02*
Y-137421D01*
X2566760Y1268785D02*
X2576603D01*
X2571682Y1263863D02*
Y1273706D01*
X1918087Y1741612D02*
X1927929D01*
X1923008Y1736691D02*
Y1746533D01*
X2197612Y740197D02*
X2207454D01*
X2202533Y735276D02*
Y745119D01*
X2052975Y912809D02*
X2062817D01*
X2057896Y907888D02*
Y917730D01*
X1234361Y1962766D02*
X1244203D01*
X1239282Y1957845D02*
Y1967688D01*
X2233851Y962778D02*
X2243693D01*
X2238772Y957856D02*
Y967699D01*
X2148275Y1168579D02*
X2158117D01*
X2153196Y1163658D02*
Y1173500D01*
X2233851Y1412292D02*
X2243693D01*
X2238772Y1407371D02*
Y1417214D01*
X1079845Y1489477D02*
X1089688D01*
X1084767Y1484555D02*
Y1494398D01*
X2298960Y1191747D02*
X2308802D01*
X2303881Y1186826D02*
Y1196668D01*
X1264223Y1827541D02*
X1274065D01*
X1269144Y1822620D02*
Y1832463D01*
X1316074Y1760259D02*
X1325916D01*
X1320995Y1755338D02*
Y1765180D01*
X1264223Y1975966D02*
X1274065D01*
X1269144Y1971045D02*
Y1980888D01*
X2182428Y-156036D02*
X2192270D01*
X2187349Y-160957D02*
Y-151114D01*
X2233851Y1051833D02*
X2243693D01*
X2238772Y1046911D02*
Y1056754D01*
X1941802Y1177560D02*
X1951644D01*
X1946723Y1172639D02*
Y1182481D01*
X1729172Y1930526D02*
X1739015D01*
X1734094Y1925605D02*
Y1935447D01*
X2470364Y1249740D02*
X2480207D01*
X2475285Y1244819D02*
Y1254661D01*
X1264223Y1916596D02*
X1274065D01*
X1269144Y1911675D02*
Y1921517D01*
X1933646Y924226D02*
X1943489D01*
X1938568Y919304D02*
Y929147D01*
X1965731Y1256099D02*
X1975573D01*
X1970652Y1251178D02*
Y1261020D01*
X2493958Y1347359D02*
X2503800D01*
X2498879Y1342438D02*
Y1352281D01*
X2060438Y492461D02*
X2070280D01*
X2065359Y487540D02*
Y497382D01*
X2233851Y1441977D02*
X2243693D01*
X2238772Y1437056D02*
Y1446899D01*
X1882755Y1055054D02*
X1892598D01*
X1887676Y1050133D02*
Y1059976D01*
X2228490Y1199770D02*
X2238332D01*
X2233411Y1194848D02*
Y1204691D01*
X1211051Y1724906D02*
X1220893D01*
X1215972Y1719984D02*
Y1729827D01*
X2233851Y1471662D02*
X2243693D01*
X2238772Y1466741D02*
Y1476584D01*
X1893108Y1846528D02*
X1902950D01*
X1898029Y1841607D02*
Y1851449D01*
X2355484Y43175D02*
X2365327D01*
X2360406Y38253D02*
Y48096D01*
X2355484Y72859D02*
X2365327D01*
X2360406Y67938D02*
Y77781D01*
X2355484Y-134935D02*
X2365327D01*
X2360406Y-139857D02*
Y-130014D01*
X1873263Y-127933D02*
X1883106D01*
X1878184Y-132855D02*
Y-123012D01*
X1320747Y1997369D02*
X1330590D01*
X1325668Y1992448D02*
Y2002290D01*
X2238164Y1962571D02*
X2248006D01*
X2243085Y1957650D02*
Y1967493D01*
X1234361Y2051821D02*
X1244203D01*
X1239282Y2046900D02*
Y2056742D01*
X1702560Y1571601D02*
X1712402D01*
X1707481Y1566680D02*
Y1576522D01*
X2233851Y1382607D02*
X2243693D01*
X2238772Y1377686D02*
Y1387529D01*
X1897870Y1435212D02*
X1907712D01*
X1902791Y1430291D02*
Y1440133D01*
X2299425Y1280798D02*
X2309268D01*
X2304346Y1275877D02*
Y1285719D01*
X2181639Y609694D02*
X2191481D01*
X2186560Y604773D02*
Y614615D01*
X1660770Y1197102D02*
X1670613D01*
X1665691Y1192180D02*
Y1202023D01*
X1672875Y1571601D02*
X1682717D01*
X1677796Y1566680D02*
Y1576522D01*
X2207137Y1220391D02*
X2216979D01*
X2212058Y1215470D02*
Y1225312D01*
X2355484Y-105251D02*
X2365327D01*
X2360406Y-110172D02*
Y-100329D01*
X2224600Y1698197D02*
X2234442D01*
X2229521Y1693275D02*
Y1703118D01*
X1553795Y1651829D02*
X1563638D01*
X1558717Y1646908D02*
Y1656750D01*
X1915263Y-156036D02*
X1925105D01*
X1920184Y-160957D02*
Y-151114D01*
X2210544Y880737D02*
X2220386D01*
X2215465Y875816D02*
Y885659D01*
X2067575Y886963D02*
X2077418D01*
X2072496Y882041D02*
Y891884D01*
X1956080Y1783557D02*
X1965922D01*
X1961001Y1778636D02*
Y1788478D01*
X2687107Y2067716D02*
X2696950D01*
X2692028Y2062795D02*
Y2072637D01*
X1509289Y1443543D02*
X1519131D01*
X1514210Y1438621D02*
Y1448464D01*
X2687107Y2017716D02*
X2696950D01*
X2692028Y2012795D02*
Y2022637D01*
X1480857Y1443543D02*
X1490699D01*
X1485778Y1438621D02*
Y1448464D01*
X1704485Y2071289D02*
X1714327D01*
X1709406Y2066367D02*
Y2076210D01*
X1704485Y2047604D02*
X1714327D01*
X1709406Y2042682D02*
Y2052525D01*
X1746044Y275779D02*
X1755886D01*
X1750965Y270858D02*
Y280701D01*
X1506832Y559692D02*
X1516674D01*
X1511753Y554771D02*
Y564613D01*
X1483147Y559692D02*
X1492989D01*
X1488068Y554771D02*
Y564613D01*
X1465187Y1068190D02*
X1475029D01*
X1470108Y1063269D02*
Y1073112D01*
X1210278Y785992D02*
X1220120D01*
X1215199Y781071D02*
Y790913D01*
X1524242Y1068190D02*
X1534084D01*
X1529163Y1063269D02*
Y1073112D01*
X1691945Y-7558D02*
X1701787D01*
X1696866Y-12479D02*
Y-2637D01*
X2787107Y1067716D02*
X2796950D01*
X2792028Y1062795D02*
Y1072637D01*
X2787107Y1017716D02*
X2796950D01*
X2792028Y1012795D02*
Y1022637D01*
X1210278Y1181724D02*
X1220120D01*
X1215199Y1176803D02*
Y1186646D01*
X1210278Y1158039D02*
X1220120D01*
X1215199Y1153118D02*
Y1162960D01*
X1704485Y1668281D02*
X1714327D01*
X1709406Y1663360D02*
Y1673202D01*
X1704485Y1644596D02*
X1714327D01*
X1709406Y1639675D02*
Y1649517D01*
X1704485Y1265274D02*
X1714327D01*
X1709406Y1260352D02*
Y1270195D01*
X1704485Y1241589D02*
X1714327D01*
X1709406Y1236667D02*
Y1246510D01*
X1704485Y862266D02*
X1714327D01*
X1709406Y857345D02*
Y867187D01*
X1704485Y838581D02*
X1714327D01*
X1709406Y833660D02*
Y843502D01*
X1487230Y1622416D02*
X1497073D01*
X1492151Y1617495D02*
Y1627337D01*
X1463545Y1622416D02*
X1473388D01*
X1468466Y1617495D02*
Y1627337D01*
X2487107Y1817716D02*
X2496950D01*
X2492028Y1812795D02*
Y1822637D01*
X2487107Y1867716D02*
X2496950D01*
X2492028Y1862795D02*
Y1872637D01*
M02*
