G04*
G04 #@! TF.GenerationSoftware,Altium Limited,Altium Designer,24.2.2 (26)*
G04*
G04 Layer_Color=128*
%FSLAX26Y26*%
%MOIN*%
G70*
G04*
G04 #@! TF.SameCoordinates,1490CFCF-B2EF-406E-B7EC-920D21FDAB99*
G04*
G04*
G04 #@! TF.FilePolarity,Positive*
G04*
G01*
G75*
%ADD23R,0.011811X0.010800*%
%ADD24R,0.015748X0.025591*%
%ADD30R,0.024409X0.022835*%
%ADD43R,0.029528X0.011811*%
%ADD44R,0.011811X0.029528*%
%ADD58R,0.019685X0.005906*%
%ADD59R,0.005906X0.009842*%
%ADD62R,0.005906X0.019685*%
%ADD63R,0.009842X0.005906*%
%ADD65R,0.035433X0.039370*%
%ADD66R,0.010800X0.011811*%
%ADD69R,0.004921X0.023622*%
%ADD70R,0.047244X0.011811*%
%ADD71R,0.011811X0.047244*%
%ADD72R,0.023622X0.004921*%
%ADD73R,0.039370X0.037402*%
%ADD74R,0.037402X0.039370*%
%ADD75R,0.024409X0.024409*%
%ADD76R,0.024409X0.024409*%
%ADD149R,0.078740X0.019685*%
%ADD150R,0.059055X0.015748*%
%ADD151R,0.097638X0.068898*%
%ADD152R,0.011811X0.031496*%
%ADD153R,0.001000X0.001000*%
%ADD154P,0.001414X4X90.0*%
%ADD155R,0.072835X0.072835*%
%ADD157R,0.011811X0.006890*%
G04:AMPARAMS|DCode=159|XSize=10.8mil|YSize=11.811mil|CornerRadius=0mil|HoleSize=0mil|Usage=FLASHONLY|Rotation=225.000|XOffset=0mil|YOffset=0mil|HoleType=Round|Shape=Rectangle|*
%AMROTATEDRECTD159*
4,1,4,-0.000357,0.007994,0.007994,-0.000357,0.000357,-0.007994,-0.007994,0.000357,-0.000357,0.007994,0.0*
%
%ADD159ROTATEDRECTD159*%

G04:AMPARAMS|DCode=160|XSize=10.8mil|YSize=11.811mil|CornerRadius=0mil|HoleSize=0mil|Usage=FLASHONLY|Rotation=135.000|XOffset=0mil|YOffset=0mil|HoleType=Round|Shape=Rectangle|*
%AMROTATEDRECTD160*
4,1,4,0.007994,0.000357,-0.000357,-0.007994,-0.007994,-0.000357,0.000357,0.007994,0.007994,0.000357,0.0*
%
%ADD160ROTATEDRECTD160*%

%ADD167R,0.017716X0.015748*%
%ADD168R,0.015748X0.017716*%
%ADD169C,0.035039*%
G36*
X1381216Y410491D02*
Y393491D01*
X1379216D01*
X1372213Y400495D01*
Y410495D01*
X1381216Y410491D01*
D02*
G37*
G36*
X1363024Y400495D02*
X1356020Y393491D01*
X1354020D01*
Y410491D01*
X1363024Y410495D01*
Y400495D01*
D02*
G37*
G36*
X1374578Y386637D02*
X1367618Y379677D01*
X1360658Y386637D01*
X1367618Y393596D01*
X1374578Y386637D01*
D02*
G37*
G36*
X1381213Y362778D02*
X1372213D01*
Y372778D01*
X1379216Y379782D01*
X1381216D01*
X1381213Y362778D01*
D02*
G37*
G36*
X1363024Y372778D02*
Y362778D01*
X1354020Y362782D01*
Y379782D01*
X1356020D01*
X1363024Y372778D01*
D02*
G37*
D23*
X1237304Y63416D02*
D03*
X1258957D02*
D03*
X1237304Y90155D02*
D03*
X1258957D02*
D03*
X1720587Y87858D02*
D03*
X1698933D02*
D03*
X1720587Y67199D02*
D03*
X1698933D02*
D03*
X175020Y1673967D02*
D03*
X153367D02*
D03*
X33731Y1746621D02*
D03*
X12078D02*
D03*
X146631Y2311932D02*
D03*
X124978D02*
D03*
Y2282010D02*
D03*
X103325D02*
D03*
X34526Y2006344D02*
D03*
X12873D02*
D03*
X1687752Y1646941D02*
D03*
X1709406D02*
D03*
X1687752Y1243933D02*
D03*
X1709406D02*
D03*
X1687752Y840926D02*
D03*
X1709406D02*
D03*
X1687752Y2049948D02*
D03*
X1709406D02*
D03*
X1687752Y1665936D02*
D03*
X1709406D02*
D03*
X1687752Y1262929D02*
D03*
X1709406D02*
D03*
X1687752Y859921D02*
D03*
X1709406D02*
D03*
X1687752Y2068944D02*
D03*
X1709406D02*
D03*
D24*
X1443227Y445697D02*
D03*
X1409763D02*
D03*
X-20631Y1778677D02*
D03*
X12834D02*
D03*
X96818Y2340682D02*
D03*
X130282D02*
D03*
D30*
X1556461Y306743D02*
D03*
Y343751D02*
D03*
X1509096Y269736D02*
D03*
Y306743D02*
D03*
X1354007Y103703D02*
D03*
Y140711D02*
D03*
D43*
X1440939Y704385D02*
D03*
Y724070D02*
D03*
Y743755D02*
D03*
Y763440D02*
D03*
X1559049D02*
D03*
Y743755D02*
D03*
Y724070D02*
D03*
Y704385D02*
D03*
X1440939Y1913408D02*
D03*
Y1933093D02*
D03*
Y1952778D02*
D03*
Y1972463D02*
D03*
X1559049D02*
D03*
Y1952778D02*
D03*
Y1933093D02*
D03*
Y1913408D02*
D03*
X1440939Y1510400D02*
D03*
Y1530085D02*
D03*
Y1549770D02*
D03*
Y1569455D02*
D03*
X1559049D02*
D03*
Y1549770D02*
D03*
Y1530085D02*
D03*
Y1510400D02*
D03*
X1440939Y1107392D02*
D03*
Y1127078D02*
D03*
Y1146763D02*
D03*
Y1166448D02*
D03*
X1559049D02*
D03*
Y1146763D02*
D03*
Y1127078D02*
D03*
Y1107392D02*
D03*
D44*
X1529522Y674858D02*
D03*
X1509836D02*
D03*
X1490151D02*
D03*
X1470466D02*
D03*
Y792968D02*
D03*
X1490151D02*
D03*
X1509836D02*
D03*
X1529522D02*
D03*
Y1883880D02*
D03*
X1509836D02*
D03*
X1490151D02*
D03*
X1470466D02*
D03*
Y2001990D02*
D03*
X1490151D02*
D03*
X1509836D02*
D03*
X1529522D02*
D03*
Y1480873D02*
D03*
X1509836D02*
D03*
X1490151D02*
D03*
X1470466D02*
D03*
Y1598983D02*
D03*
X1490151D02*
D03*
X1509836D02*
D03*
X1529522D02*
D03*
Y1077865D02*
D03*
X1509836D02*
D03*
X1490151D02*
D03*
X1470466D02*
D03*
Y1195975D02*
D03*
X1490151D02*
D03*
X1509836D02*
D03*
X1529522D02*
D03*
D58*
X-17242Y1960795D02*
D03*
D59*
X-24132Y1945047D02*
D03*
X-10352D02*
D03*
D62*
X53299Y1746618D02*
D03*
X170527Y2311932D02*
D03*
D63*
X69047Y1739728D02*
D03*
Y1753507D02*
D03*
X186275Y2305043D02*
D03*
Y2318822D02*
D03*
D65*
X1509096Y350657D02*
D03*
X1446104D02*
D03*
D66*
X7747Y1716699D02*
D03*
Y1695045D02*
D03*
X1372903Y-41089D02*
D03*
Y-62742D02*
D03*
X1397932Y-41089D02*
D03*
Y-62742D02*
D03*
X217210Y2299277D02*
D03*
Y2320931D02*
D03*
X-10352Y1892458D02*
D03*
Y1914112D02*
D03*
X-17242Y1980360D02*
D03*
Y2002013D02*
D03*
X-47164Y2006344D02*
D03*
Y2027997D02*
D03*
X1402209Y380369D02*
D03*
Y402022D02*
D03*
X2032813Y173512D02*
D03*
Y151858D02*
D03*
X2070247Y173512D02*
D03*
Y151858D02*
D03*
X1776982Y212243D02*
D03*
Y233897D02*
D03*
X2032813Y22344D02*
D03*
Y690D02*
D03*
X2070247Y22344D02*
D03*
Y690D02*
D03*
X2032813Y-132621D02*
D03*
Y-154274D02*
D03*
X2070247Y-132621D02*
D03*
Y-154274D02*
D03*
X1470466Y1243922D02*
D03*
Y1222269D02*
D03*
X1490151Y1243922D02*
D03*
Y1222269D02*
D03*
X1470466Y2049938D02*
D03*
Y2028284D02*
D03*
X1490151Y2049938D02*
D03*
Y2028284D02*
D03*
D69*
X1852565Y355458D02*
D03*
X1862487D02*
D03*
X1417933Y258584D02*
D03*
X1427855D02*
D03*
X2031923Y1437764D02*
D03*
X2041845D02*
D03*
X2031923Y1034770D02*
D03*
X2041845D02*
D03*
X2031923Y631934D02*
D03*
X2041845D02*
D03*
X2031923Y1840916D02*
D03*
X2041845D02*
D03*
D70*
X1831130Y379506D02*
D03*
Y399191D02*
D03*
X1864979Y466387D02*
D03*
Y446702D02*
D03*
X2164026Y1476002D02*
D03*
Y1456317D02*
D03*
Y1073643D02*
D03*
Y1053958D02*
D03*
X2164002Y670385D02*
D03*
Y650700D02*
D03*
X2164026Y1879361D02*
D03*
Y1859676D02*
D03*
X2084606Y1377907D02*
D03*
Y1397592D02*
D03*
X2084430Y974634D02*
D03*
Y994319D02*
D03*
X2084606Y571826D02*
D03*
Y591511D02*
D03*
X2084539Y1780544D02*
D03*
Y1800229D02*
D03*
X1605376Y1557972D02*
D03*
Y1538287D02*
D03*
X1394572Y759222D02*
D03*
Y739537D02*
D03*
X1605376Y1154630D02*
D03*
Y1134945D02*
D03*
X1605376Y1960592D02*
D03*
Y1940907D02*
D03*
X1394572Y1557566D02*
D03*
Y1537881D02*
D03*
X1605376Y759525D02*
D03*
Y739841D02*
D03*
X1394571Y1154776D02*
D03*
Y1135091D02*
D03*
X1394572Y1960596D02*
D03*
Y1940911D02*
D03*
D71*
X1969326Y454856D02*
D03*
X1989011D02*
D03*
X1466186Y445023D02*
D03*
X1485871D02*
D03*
D72*
X2094449Y1498621D02*
D03*
Y1488699D02*
D03*
Y1095614D02*
D03*
Y1085692D02*
D03*
Y692606D02*
D03*
Y682684D02*
D03*
Y1901629D02*
D03*
Y1891707D02*
D03*
X2064921Y1505618D02*
D03*
Y1495696D02*
D03*
Y1101627D02*
D03*
Y1091705D02*
D03*
Y699736D02*
D03*
Y689814D02*
D03*
Y1908324D02*
D03*
Y1898402D02*
D03*
X2124292Y1487636D02*
D03*
Y1477714D02*
D03*
Y1084649D02*
D03*
Y1074727D02*
D03*
X2124268Y681201D02*
D03*
Y671279D02*
D03*
X2124293Y1890170D02*
D03*
Y1880248D02*
D03*
X1584780Y1588226D02*
D03*
Y1598148D02*
D03*
X1416930Y781914D02*
D03*
Y791836D02*
D03*
X1584780Y1184947D02*
D03*
Y1194869D02*
D03*
X1584780Y1991298D02*
D03*
Y2001220D02*
D03*
X1416930Y1588270D02*
D03*
Y1598192D02*
D03*
X1584780Y782224D02*
D03*
Y792146D02*
D03*
X1416929Y1185382D02*
D03*
Y1195304D02*
D03*
X1416930Y1991255D02*
D03*
Y2001177D02*
D03*
D73*
X1346579Y225572D02*
D03*
Y288565D02*
D03*
X1577840Y174091D02*
D03*
Y237083D02*
D03*
X1527781Y148634D02*
D03*
Y85642D02*
D03*
D74*
X1742899Y1933414D02*
D03*
X1679907D02*
D03*
X1742899Y725498D02*
D03*
X1679907D02*
D03*
X1742899Y1531473D02*
D03*
X1679907D02*
D03*
X1742899Y1127924D02*
D03*
X1679907D02*
D03*
D75*
X1099098Y1694107D02*
D03*
Y1658674D02*
D03*
X917656Y1930328D02*
D03*
Y1965761D02*
D03*
X1016082Y1694107D02*
D03*
Y1658674D02*
D03*
X957027Y1694107D02*
D03*
Y1658674D02*
D03*
X1011151Y1912068D02*
D03*
Y1947501D02*
D03*
X858601Y1930328D02*
D03*
Y1965761D02*
D03*
X1069458Y1882636D02*
D03*
Y1918069D02*
D03*
X1064971Y1694107D02*
D03*
Y1658674D02*
D03*
D76*
X1045609Y1802375D02*
D03*
X1081042D02*
D03*
X1045609Y1723635D02*
D03*
X1081042D02*
D03*
X1044876Y1953141D02*
D03*
X1080309D02*
D03*
D149*
X872878Y577362D02*
D03*
Y860827D02*
D03*
X1195712Y845079D02*
D03*
Y750591D02*
D03*
Y656102D02*
D03*
Y561614D02*
D03*
X872878Y1138386D02*
D03*
Y1421850D02*
D03*
X1195712Y1406102D02*
D03*
Y1311614D02*
D03*
Y1217126D02*
D03*
Y1122638D02*
D03*
X872878Y577362D02*
D03*
Y608858D02*
D03*
Y640354D02*
D03*
Y671850D02*
D03*
Y703346D02*
D03*
Y734842D02*
D03*
Y766338D02*
D03*
Y797835D02*
D03*
Y829331D02*
D03*
Y860827D02*
D03*
X1195712Y845079D02*
D03*
Y750591D02*
D03*
Y719094D02*
D03*
Y687598D02*
D03*
Y656102D02*
D03*
Y561614D02*
D03*
X872878Y1138386D02*
D03*
Y1169882D02*
D03*
Y1201378D02*
D03*
Y1232874D02*
D03*
Y1264370D02*
D03*
Y1295866D02*
D03*
Y1327362D02*
D03*
Y1358858D02*
D03*
Y1390354D02*
D03*
Y1421850D02*
D03*
X1195712Y1406102D02*
D03*
Y1311614D02*
D03*
Y1280118D02*
D03*
Y1248622D02*
D03*
Y1217126D02*
D03*
Y1122638D02*
D03*
D150*
Y813583D02*
D03*
Y782087D02*
D03*
Y624606D02*
D03*
Y593110D02*
D03*
Y1374606D02*
D03*
Y1343110D02*
D03*
Y1185630D02*
D03*
Y1154134D02*
D03*
D151*
X1434564Y162759D02*
D03*
D152*
X1473934Y221814D02*
D03*
X1454249D02*
D03*
X1434564D02*
D03*
X1414879D02*
D03*
X1395194D02*
D03*
Y103704D02*
D03*
X1414879D02*
D03*
X1434564D02*
D03*
X1454249D02*
D03*
X1473934D02*
D03*
D153*
X1377067Y371137D02*
D03*
X1358169D02*
D03*
Y402137D02*
D03*
X1377067D02*
D03*
D154*
X1367618Y386637D02*
D03*
D155*
X1499994Y733913D02*
D03*
Y1942935D02*
D03*
Y1539928D02*
D03*
Y1136920D02*
D03*
D157*
X1270881Y-22540D02*
D03*
Y-6792D02*
D03*
Y8956D02*
D03*
Y24704D02*
D03*
X1249228D02*
D03*
Y8956D02*
D03*
Y-6792D02*
D03*
Y-22540D02*
D03*
X1087319Y80651D02*
D03*
Y96399D02*
D03*
Y112147D02*
D03*
Y127895D02*
D03*
X1065665D02*
D03*
Y112147D02*
D03*
Y96399D02*
D03*
Y80651D02*
D03*
X1065841Y54214D02*
D03*
Y38466D02*
D03*
Y22718D02*
D03*
Y6970D02*
D03*
X1087494D02*
D03*
Y22718D02*
D03*
Y38466D02*
D03*
Y54214D02*
D03*
D159*
X1470466Y1458854D02*
D03*
X1485778Y1443543D02*
D03*
D160*
X1529522Y1458854D02*
D03*
X1514210Y1443543D02*
D03*
D167*
X1428264Y288832D02*
D03*
X1402280D02*
D03*
D168*
X1512136Y216062D02*
D03*
Y188503D02*
D03*
D169*
X2342028Y167716D02*
D03*
Y217716D02*
D03*
Y267716D02*
D03*
Y317716D02*
D03*
Y367716D02*
D03*
Y417716D02*
D03*
Y467716D02*
D03*
Y517716D02*
D03*
Y567716D02*
D03*
Y617716D02*
D03*
Y667716D02*
D03*
Y717716D02*
D03*
Y767716D02*
D03*
Y817716D02*
D03*
Y867716D02*
D03*
Y917716D02*
D03*
Y967716D02*
D03*
Y1017716D02*
D03*
Y1067716D02*
D03*
Y1117716D02*
D03*
Y1167716D02*
D03*
Y1217716D02*
D03*
Y1267716D02*
D03*
Y1317716D02*
D03*
Y1367716D02*
D03*
Y1417716D02*
D03*
Y1467716D02*
D03*
Y1517716D02*
D03*
Y1567716D02*
D03*
Y1617716D02*
D03*
Y1667716D02*
D03*
Y1717716D02*
D03*
Y1767716D02*
D03*
Y1817716D02*
D03*
Y1867716D02*
D03*
Y1917716D02*
D03*
Y1967716D02*
D03*
Y2017716D02*
D03*
Y2067716D02*
D03*
Y2117716D02*
D03*
X2392028Y167716D02*
D03*
Y217716D02*
D03*
Y267716D02*
D03*
Y317716D02*
D03*
Y367716D02*
D03*
Y417716D02*
D03*
Y467716D02*
D03*
Y517716D02*
D03*
Y567716D02*
D03*
Y617716D02*
D03*
Y667716D02*
D03*
Y717716D02*
D03*
Y767716D02*
D03*
Y817716D02*
D03*
Y867716D02*
D03*
Y917716D02*
D03*
Y967716D02*
D03*
Y1017716D02*
D03*
Y1067716D02*
D03*
Y1117716D02*
D03*
Y1167716D02*
D03*
Y1217716D02*
D03*
Y1267716D02*
D03*
Y1317716D02*
D03*
Y1367716D02*
D03*
Y1417716D02*
D03*
Y1467716D02*
D03*
Y1517716D02*
D03*
Y1567716D02*
D03*
Y1617716D02*
D03*
Y1667716D02*
D03*
Y1717716D02*
D03*
Y1767716D02*
D03*
Y1817716D02*
D03*
Y1867716D02*
D03*
Y1917716D02*
D03*
Y1967716D02*
D03*
Y2017716D02*
D03*
Y2067716D02*
D03*
Y2117716D02*
D03*
X2442028Y167716D02*
D03*
Y217716D02*
D03*
Y267716D02*
D03*
Y317716D02*
D03*
Y367716D02*
D03*
Y417716D02*
D03*
Y467716D02*
D03*
Y517716D02*
D03*
Y567716D02*
D03*
Y617716D02*
D03*
Y667716D02*
D03*
Y717716D02*
D03*
Y767716D02*
D03*
Y817716D02*
D03*
Y867716D02*
D03*
Y917716D02*
D03*
Y967716D02*
D03*
Y1017716D02*
D03*
Y1067716D02*
D03*
Y1117716D02*
D03*
Y1167716D02*
D03*
Y1217716D02*
D03*
Y1267716D02*
D03*
Y1317716D02*
D03*
Y1367716D02*
D03*
Y1417716D02*
D03*
Y1467716D02*
D03*
Y1517716D02*
D03*
Y1567716D02*
D03*
Y1617716D02*
D03*
Y1667716D02*
D03*
Y1717716D02*
D03*
Y1767716D02*
D03*
Y1817716D02*
D03*
Y1867716D02*
D03*
Y1917716D02*
D03*
Y1967716D02*
D03*
Y2017716D02*
D03*
Y2067716D02*
D03*
Y2117716D02*
D03*
X2492028Y167716D02*
D03*
Y217716D02*
D03*
Y267716D02*
D03*
Y317716D02*
D03*
Y367716D02*
D03*
Y417716D02*
D03*
Y467716D02*
D03*
Y517716D02*
D03*
Y567716D02*
D03*
Y617716D02*
D03*
Y667716D02*
D03*
Y717716D02*
D03*
Y767716D02*
D03*
Y817716D02*
D03*
Y867716D02*
D03*
Y917716D02*
D03*
Y967716D02*
D03*
Y1017716D02*
D03*
Y1067716D02*
D03*
Y1117716D02*
D03*
Y1167716D02*
D03*
Y1217716D02*
D03*
Y1267716D02*
D03*
Y1317716D02*
D03*
Y1367716D02*
D03*
Y1417716D02*
D03*
Y1467716D02*
D03*
Y1517716D02*
D03*
Y1567716D02*
D03*
Y1617716D02*
D03*
Y1667716D02*
D03*
Y1717716D02*
D03*
Y1767716D02*
D03*
Y1817716D02*
D03*
Y1867716D02*
D03*
Y1917716D02*
D03*
Y1967716D02*
D03*
Y2017716D02*
D03*
Y2067716D02*
D03*
Y2117716D02*
D03*
X2542028Y167716D02*
D03*
Y217716D02*
D03*
Y267716D02*
D03*
Y317716D02*
D03*
Y367716D02*
D03*
Y417716D02*
D03*
Y467716D02*
D03*
Y517716D02*
D03*
Y567716D02*
D03*
Y617716D02*
D03*
Y667716D02*
D03*
Y717716D02*
D03*
Y767716D02*
D03*
Y817716D02*
D03*
Y867716D02*
D03*
Y917716D02*
D03*
Y967716D02*
D03*
Y1017716D02*
D03*
Y1067716D02*
D03*
Y1117716D02*
D03*
Y1167716D02*
D03*
Y1217716D02*
D03*
Y1267716D02*
D03*
Y1317716D02*
D03*
Y1367716D02*
D03*
Y1417716D02*
D03*
Y1467716D02*
D03*
Y1517716D02*
D03*
Y1567716D02*
D03*
Y1617716D02*
D03*
Y1667716D02*
D03*
Y1717716D02*
D03*
Y1767716D02*
D03*
Y1817716D02*
D03*
Y1867716D02*
D03*
Y1917716D02*
D03*
Y1967716D02*
D03*
Y2017716D02*
D03*
Y2067716D02*
D03*
Y2117716D02*
D03*
X2592028Y167716D02*
D03*
Y217716D02*
D03*
Y267716D02*
D03*
Y317716D02*
D03*
Y367716D02*
D03*
Y417716D02*
D03*
Y467716D02*
D03*
Y517716D02*
D03*
Y567716D02*
D03*
Y617716D02*
D03*
Y667716D02*
D03*
Y717716D02*
D03*
Y767716D02*
D03*
Y817716D02*
D03*
Y867716D02*
D03*
Y917716D02*
D03*
Y967716D02*
D03*
Y1017716D02*
D03*
Y1067716D02*
D03*
Y1117716D02*
D03*
Y1167716D02*
D03*
Y1217716D02*
D03*
Y1267716D02*
D03*
Y1317716D02*
D03*
Y1367716D02*
D03*
Y1417716D02*
D03*
Y1467716D02*
D03*
Y1517716D02*
D03*
Y1567716D02*
D03*
Y1617716D02*
D03*
Y1667716D02*
D03*
Y1717716D02*
D03*
Y1767716D02*
D03*
Y1817716D02*
D03*
Y1867716D02*
D03*
Y1917716D02*
D03*
Y1967716D02*
D03*
Y2017716D02*
D03*
Y2067716D02*
D03*
Y2117716D02*
D03*
X2642028Y167716D02*
D03*
Y217716D02*
D03*
Y267716D02*
D03*
Y317716D02*
D03*
Y367716D02*
D03*
Y417716D02*
D03*
Y467716D02*
D03*
Y517716D02*
D03*
Y567716D02*
D03*
Y617716D02*
D03*
Y667716D02*
D03*
Y717716D02*
D03*
Y767716D02*
D03*
Y817716D02*
D03*
Y867716D02*
D03*
Y917716D02*
D03*
Y967716D02*
D03*
Y1017716D02*
D03*
Y1067716D02*
D03*
Y1117716D02*
D03*
Y1167716D02*
D03*
Y1217716D02*
D03*
Y1267716D02*
D03*
Y1317716D02*
D03*
Y1367716D02*
D03*
Y1417716D02*
D03*
Y1467716D02*
D03*
Y1517716D02*
D03*
Y1567716D02*
D03*
Y1617716D02*
D03*
Y1667716D02*
D03*
Y1717716D02*
D03*
Y1767716D02*
D03*
Y1817716D02*
D03*
Y1867716D02*
D03*
Y1917716D02*
D03*
Y1967716D02*
D03*
Y2017716D02*
D03*
Y2067716D02*
D03*
Y2117716D02*
D03*
X2692028Y167716D02*
D03*
Y217716D02*
D03*
Y267716D02*
D03*
Y317716D02*
D03*
Y367716D02*
D03*
Y417716D02*
D03*
Y467716D02*
D03*
Y517716D02*
D03*
Y567716D02*
D03*
Y617716D02*
D03*
Y667716D02*
D03*
Y717716D02*
D03*
Y767716D02*
D03*
Y817716D02*
D03*
Y867716D02*
D03*
Y917716D02*
D03*
Y967716D02*
D03*
Y1017716D02*
D03*
Y1067716D02*
D03*
Y1117716D02*
D03*
Y1167716D02*
D03*
Y1217716D02*
D03*
Y1267716D02*
D03*
Y1317716D02*
D03*
Y1367716D02*
D03*
Y1417716D02*
D03*
Y1467716D02*
D03*
Y1517716D02*
D03*
Y1567716D02*
D03*
Y1617716D02*
D03*
Y1667716D02*
D03*
Y1717716D02*
D03*
Y1767716D02*
D03*
Y1817716D02*
D03*
Y1867716D02*
D03*
Y1917716D02*
D03*
Y1967716D02*
D03*
Y2017716D02*
D03*
Y2067716D02*
D03*
Y2117716D02*
D03*
X2742028Y167716D02*
D03*
Y217716D02*
D03*
Y267716D02*
D03*
Y317716D02*
D03*
Y367716D02*
D03*
Y417716D02*
D03*
Y467716D02*
D03*
Y517716D02*
D03*
Y567716D02*
D03*
Y617716D02*
D03*
Y667716D02*
D03*
Y717716D02*
D03*
Y767716D02*
D03*
Y817716D02*
D03*
Y867716D02*
D03*
Y917716D02*
D03*
Y967716D02*
D03*
Y1017716D02*
D03*
Y1067716D02*
D03*
Y1117716D02*
D03*
Y1167716D02*
D03*
Y1217716D02*
D03*
Y1267716D02*
D03*
Y1317716D02*
D03*
Y1367716D02*
D03*
Y1417716D02*
D03*
Y1467716D02*
D03*
Y1517716D02*
D03*
Y1567716D02*
D03*
Y1617716D02*
D03*
Y1667716D02*
D03*
Y1717716D02*
D03*
Y1767716D02*
D03*
Y1817716D02*
D03*
Y1867716D02*
D03*
Y1917716D02*
D03*
Y1967716D02*
D03*
Y2017716D02*
D03*
Y2067716D02*
D03*
Y2117716D02*
D03*
X2792028Y167716D02*
D03*
Y217716D02*
D03*
Y267716D02*
D03*
Y317716D02*
D03*
Y367716D02*
D03*
Y417716D02*
D03*
Y467716D02*
D03*
Y517716D02*
D03*
Y567716D02*
D03*
Y617716D02*
D03*
Y667716D02*
D03*
Y717716D02*
D03*
Y767716D02*
D03*
Y817716D02*
D03*
Y867716D02*
D03*
Y917716D02*
D03*
Y967716D02*
D03*
Y1017716D02*
D03*
Y1067716D02*
D03*
Y1117716D02*
D03*
Y1167716D02*
D03*
Y1217716D02*
D03*
Y1267716D02*
D03*
Y1317716D02*
D03*
Y1367716D02*
D03*
Y1417716D02*
D03*
Y1467716D02*
D03*
Y1517716D02*
D03*
Y1567716D02*
D03*
Y1617716D02*
D03*
Y1667716D02*
D03*
Y1717716D02*
D03*
Y1767716D02*
D03*
Y1817716D02*
D03*
Y1867716D02*
D03*
Y1917716D02*
D03*
Y1967716D02*
D03*
Y2017716D02*
D03*
Y2067716D02*
D03*
Y2117716D02*
D03*
M02*
