G04*
G04 #@! TF.GenerationSoftware,Altium Limited,Altium Designer,24.2.2 (26)*
G04*
G04 Layer_Color=32768*
%FSLAX26Y26*%
%MOIN*%
G70*
G04*
G04 #@! TF.SameCoordinates,1490CFCF-B2EF-406E-B7EC-920D21FDAB99*
G04*
G04*
G04 #@! TF.FilePolarity,Positive*
G04*
G01*
G75*
%ADD15C,0.003937*%
%ADD16C,0.006000*%
%ADD170C,0.001968*%
G36*
X1887180Y2008472D02*
X1911783D01*
Y1983869D01*
X1923783D01*
Y1816074D01*
X1911783D01*
Y1791472D01*
X1887180D01*
Y1779472D01*
X1719385D01*
Y1791472D01*
X1694783D01*
Y1816074D01*
X1682783D01*
Y1983869D01*
X1694783D01*
Y2008472D01*
X1719385D01*
Y2020472D01*
X1887180D01*
Y2008472D01*
D02*
G37*
G36*
X1518188Y1807529D02*
X1522188D01*
Y1724529D01*
X1518188D01*
Y1710529D01*
X1474188D01*
Y1724529D01*
X1470188D01*
Y1807529D01*
X1474188D01*
Y1821529D01*
X1518188D01*
Y1807529D01*
D02*
G37*
G36*
X1887180Y1605464D02*
X1911783D01*
Y1580861D01*
X1923783D01*
Y1413066D01*
X1911783D01*
Y1388464D01*
X1887180D01*
Y1376464D01*
X1719385D01*
Y1388464D01*
X1694783D01*
Y1413066D01*
X1682783D01*
Y1580861D01*
X1694783D01*
Y1605464D01*
X1719385D01*
Y1617464D01*
X1887180D01*
Y1605464D01*
D02*
G37*
G36*
X1518188Y1404378D02*
X1522188D01*
Y1321378D01*
X1518188D01*
Y1307378D01*
X1474188D01*
Y1321378D01*
X1470188D01*
Y1404378D01*
X1474188D01*
Y1418378D01*
X1518188D01*
Y1404378D01*
D02*
G37*
G36*
X287349Y1305870D02*
X291349D01*
Y1222870D01*
X287349D01*
Y1208870D01*
X243349D01*
Y1222870D01*
X239349D01*
Y1305870D01*
X243349D01*
Y1319870D01*
X287349D01*
Y1305870D01*
D02*
G37*
G36*
X119127D02*
X123127D01*
Y1222870D01*
X119127D01*
Y1208870D01*
X75127D01*
Y1222870D01*
X71127D01*
Y1305870D01*
X75127D01*
Y1319870D01*
X119127D01*
Y1305870D01*
D02*
G37*
G36*
X1887180Y1202456D02*
X1911783D01*
Y1177854D01*
X1923783D01*
Y1010059D01*
X1911783D01*
Y985456D01*
X1887180D01*
Y973456D01*
X1719385D01*
Y985456D01*
X1694783D01*
Y1010059D01*
X1682783D01*
Y1177854D01*
X1694783D01*
Y1202456D01*
X1719385D01*
Y1214456D01*
X1887180D01*
Y1202456D01*
D02*
G37*
G36*
X1518056Y1001370D02*
X1522056D01*
Y918370D01*
X1518056D01*
Y904370D01*
X1474056D01*
Y918370D01*
X1470056D01*
Y1001370D01*
X1474056D01*
Y1015370D01*
X1518056D01*
Y1001370D01*
D02*
G37*
G36*
X287349Y744846D02*
X291349D01*
Y661846D01*
X287349D01*
Y647846D01*
X243349D01*
Y661846D01*
X239349D01*
Y744846D01*
X243349D01*
Y758846D01*
X287349D01*
Y744846D01*
D02*
G37*
G36*
X119127D02*
X123127D01*
Y661846D01*
X119127D01*
Y647846D01*
X75127D01*
Y661846D01*
X71127D01*
Y744846D01*
X75127D01*
Y758846D01*
X119127D01*
Y744846D01*
D02*
G37*
G36*
X1887180Y799449D02*
X1911783D01*
Y774846D01*
X1923783D01*
Y607051D01*
X1911783D01*
Y582449D01*
X1887180D01*
Y570449D01*
X1719385D01*
Y582449D01*
X1694783D01*
Y607051D01*
X1682783D01*
Y774846D01*
X1694783D01*
Y799449D01*
X1719385D01*
Y811449D01*
X1887180D01*
Y799449D01*
D02*
G37*
G36*
X1655868Y499784D02*
X1659868D01*
Y416784D01*
X1655868D01*
Y402784D01*
X1611868D01*
Y416784D01*
X1607868D01*
Y499784D01*
X1611868D01*
Y513784D01*
X1655868D01*
Y499784D01*
D02*
G37*
G36*
X1388516Y412637D02*
X1393618D01*
Y360637D01*
X1388516D01*
Y348637D01*
X1346720D01*
Y360637D01*
X1341618D01*
Y412637D01*
X1346720D01*
Y424637D01*
X1388516D01*
Y412637D01*
D02*
G37*
G36*
X1977179Y453173D02*
X2001466D01*
Y428886D01*
X2009466D01*
Y312461D01*
X2001466D01*
Y288173D01*
X1977179D01*
Y280173D01*
X1860754D01*
Y288173D01*
X1836466D01*
Y312461D01*
X1828466D01*
Y428886D01*
X1836466D01*
Y453173D01*
X1860754D01*
Y461173D01*
X1977179D01*
Y453173D01*
D02*
G37*
G36*
X1789622Y215718D02*
X1692622D01*
Y272718D01*
X1789622D01*
Y215718D01*
D02*
G37*
G36*
X2064677Y238630D02*
X2096173D01*
Y232725D01*
X2100110D01*
Y141858D01*
X2096173D01*
Y135953D01*
X2064677D01*
Y133984D01*
X2036803D01*
Y135953D01*
X2005306D01*
Y141858D01*
X2001369D01*
Y232725D01*
X2005306D01*
Y238630D01*
X2036803D01*
Y240599D01*
X2064677D01*
Y238630D01*
D02*
G37*
G36*
Y87462D02*
X2096173D01*
Y81557D01*
X2100110D01*
Y-9309D01*
X2096173D01*
Y-15215D01*
X2064677D01*
Y-17183D01*
X2036803D01*
Y-15215D01*
X2005306D01*
Y-9309D01*
X2001369D01*
Y81557D01*
X2005306D01*
Y87462D01*
X2036803D01*
Y89431D01*
X2064677D01*
Y87462D01*
D02*
G37*
G36*
X838434Y17676D02*
X858434D01*
Y-50704D01*
X838434D01*
Y-60014D01*
X767434D01*
Y-50704D01*
X747434D01*
Y17676D01*
X767434D01*
Y26986D01*
X838434D01*
Y17676D01*
D02*
G37*
G36*
X2064677Y-67502D02*
X2096173D01*
Y-73408D01*
X2100110D01*
Y-164274D01*
X2096173D01*
Y-170180D01*
X2064677D01*
Y-172148D01*
X2036803D01*
Y-170180D01*
X2005306D01*
Y-164274D01*
X2001369D01*
Y-73408D01*
X2005306D01*
Y-67502D01*
X2036803D01*
Y-65534D01*
X2064677D01*
Y-67502D01*
D02*
G37*
D15*
X1346854Y351968D02*
Y1631496D01*
X-674366D02*
X1346854D01*
X-674366Y351968D02*
Y1631496D01*
Y351968D02*
X1346854D01*
X824649Y484842D02*
X1245909D01*
Y937599D01*
X824649Y484842D02*
Y937599D01*
X1245909D01*
X824649Y1045866D02*
X1245909D01*
Y1498622D01*
X824649Y1045866D02*
Y1498622D01*
X1245909D01*
X1673440Y-57715D02*
X1773440D01*
X1673440D02*
Y62285D01*
X1773440D01*
Y-57715D02*
Y62285D01*
X1519721Y1327903D02*
Y1348494D01*
Y1288494D02*
Y1309084D01*
Y1327903D01*
Y1348494D02*
X1589721D01*
Y1288494D02*
Y1348494D01*
X1519721Y1288494D02*
X1589721D01*
X1519721Y924895D02*
Y945486D01*
Y885486D02*
Y906076D01*
Y924895D01*
Y945486D02*
X1589721D01*
Y885486D02*
Y945486D01*
X1519721Y885486D02*
X1589721D01*
X1657533Y423280D02*
Y443870D01*
Y383870D02*
Y404461D01*
Y423280D01*
Y443870D02*
X1727533D01*
Y383870D02*
Y443870D01*
X1657533Y383870D02*
X1727533D01*
X1519721Y1730910D02*
Y1751501D01*
Y1691501D02*
Y1712092D01*
Y1730910D01*
Y1751501D02*
X1589721D01*
Y1691501D02*
Y1751501D01*
X1519721Y1691501D02*
X1589721D01*
X2087953Y1493660D02*
X2100945D01*
X2094449Y1487164D02*
Y1500156D01*
X2087953Y1090653D02*
X2100945D01*
X2094449Y1084157D02*
Y1097149D01*
X2087953Y687645D02*
X2100945D01*
X2094449Y681149D02*
Y694141D01*
X2087953Y1896668D02*
X2100945D01*
X2094449Y1890172D02*
Y1903164D01*
X1864762Y1362783D02*
Y1375775D01*
X1858266Y1369279D02*
X1871258D01*
X1864762Y960427D02*
Y973419D01*
X1858266Y966923D02*
X1871258D01*
X1864762Y558176D02*
Y571168D01*
X1858266Y564672D02*
X1871258D01*
X1864762Y1768183D02*
Y1781175D01*
X1858266Y1774679D02*
X1871258D01*
X1879691Y1336746D02*
X1902132D01*
X1890911Y1325526D02*
Y1347967D01*
X1879691Y933505D02*
X1902132D01*
X1890911Y922284D02*
Y944725D01*
X1879691Y530971D02*
X1902132D01*
X1890911Y519750D02*
Y542191D01*
X1879691Y1739817D02*
X1902132D01*
X1890911Y1728597D02*
Y1751038D01*
X1746568Y1361459D02*
Y1374451D01*
X1740072Y1367955D02*
X1753064D01*
X1746568Y959779D02*
Y972771D01*
X1740072Y966275D02*
X1753064D01*
X1746568Y557943D02*
Y570935D01*
X1740072Y564439D02*
X1753064D01*
X1746568Y1766794D02*
Y1779786D01*
X1740072Y1773290D02*
X1753064D01*
X1745197Y1313812D02*
Y1336253D01*
X1733976Y1325033D02*
X1756417D01*
X1745197Y911148D02*
Y933589D01*
X1733976Y922369D02*
X1756417D01*
X1745197Y507839D02*
Y530279D01*
X1733976Y519059D02*
X1756417D01*
X1745197Y1717035D02*
Y1739476D01*
X1733976Y1728255D02*
X1756417D01*
X1876364Y1621197D02*
Y1634189D01*
X1869868Y1627693D02*
X1882860D01*
X1876364Y1218189D02*
Y1231181D01*
X1869868Y1224685D02*
X1882860D01*
X1876364Y815182D02*
Y828174D01*
X1869868Y821678D02*
X1882860D01*
X1876364Y2025849D02*
Y2038841D01*
X1869868Y2032345D02*
X1882860D01*
X1874664Y1660882D02*
Y1683323D01*
X1863444Y1672102D02*
X1885885D01*
X1874664Y1257439D02*
Y1279880D01*
X1863444Y1268659D02*
X1885885D01*
X1874664Y854545D02*
Y876986D01*
X1863444Y865765D02*
X1885885D01*
X1874664Y2063370D02*
Y2085811D01*
X1863444Y2074590D02*
X1885885D01*
X1978053Y469841D02*
Y482833D01*
X1971557Y476337D02*
X1984550D01*
X1979169Y443636D02*
Y466077D01*
X1967948Y454856D02*
X1990389D01*
X1413952Y455426D02*
X1426944D01*
X1420448Y448930D02*
Y461923D01*
X1476028Y433802D02*
Y456243D01*
X1464808Y445023D02*
X1487249D01*
X1857526Y348962D02*
Y361954D01*
X1851030Y355458D02*
X1864022D01*
X1819910Y389348D02*
X1842351D01*
X1831130Y378128D02*
Y400569D01*
X1876537Y258400D02*
Y271392D01*
X1870042Y264896D02*
X1883034D01*
X1839591Y233667D02*
X1862032D01*
X1850812Y222446D02*
Y244887D01*
X1876928Y465707D02*
Y478699D01*
X1870431Y472203D02*
X1883424D01*
X1853759Y456545D02*
X1876199D01*
X1864979Y445325D02*
Y467765D01*
X1422894Y252088D02*
Y265080D01*
X1416398Y258584D02*
X1429390D01*
X197847Y1787280D02*
Y1809721D01*
X186627Y1798501D02*
X209068D01*
X350008Y2299624D02*
Y2322065D01*
X338788Y2310845D02*
X361229D01*
X73669Y2036406D02*
Y2058847D01*
X62449Y2047627D02*
X84890D01*
X1661428Y1499497D02*
X1674420D01*
X1667924Y1493001D02*
Y1505993D01*
X1661428Y1096560D02*
X1674420D01*
X1667924Y1090064D02*
Y1103056D01*
X1661428Y693344D02*
X1674420D01*
X1667924Y686848D02*
Y699840D01*
X1661428Y1902567D02*
X1674420D01*
X1667924Y1896071D02*
Y1909063D01*
X1650135Y1554942D02*
X1672576D01*
X1661355Y1543722D02*
Y1566162D01*
X1650135Y1151871D02*
X1672576D01*
X1661355Y1140651D02*
Y1163092D01*
X1650135Y748906D02*
X1672576D01*
X1661355Y737685D02*
Y760126D01*
X1650135Y1957810D02*
X1672576D01*
X1661355Y1946589D02*
Y1969030D01*
X2036884Y1431267D02*
Y1444260D01*
X2030388Y1437764D02*
X2043380D01*
X2036884Y1028274D02*
Y1041266D01*
X2030388Y1034770D02*
X2043380D01*
X2036884Y625438D02*
Y638430D01*
X2030388Y631934D02*
X2043380D01*
X2036884Y1834420D02*
Y1847412D01*
X2030388Y1840916D02*
X2043380D01*
X1927251Y1538786D02*
X1940243D01*
X1933747Y1532290D02*
Y1545282D01*
X1927251Y1136147D02*
X1940243D01*
X1933747Y1129650D02*
Y1142642D01*
X1927251Y733014D02*
X1940243D01*
X1933747Y726518D02*
Y739510D01*
X1927251Y1942397D02*
X1940243D01*
X1933747Y1935901D02*
Y1948893D01*
X1970920Y1537710D02*
X1993361D01*
X1982140Y1526489D02*
Y1548930D01*
X1970920Y1134852D02*
X1993361D01*
X1982140Y1123631D02*
Y1146072D01*
X1970920Y731667D02*
X1993361D01*
X1982140Y720446D02*
Y742887D01*
X1970920Y1940465D02*
X1993361D01*
X1982140Y1929244D02*
Y1951685D01*
X1493498Y1492516D02*
X1506490D01*
X1499994Y1486020D02*
Y1499012D01*
X1493139Y1089532D02*
X1506132D01*
X1499636Y1083036D02*
Y1096028D01*
X1493498Y686497D02*
X1506490D01*
X1499994Y680001D02*
Y692993D01*
X1493498Y1895482D02*
X1506490D01*
X1499994Y1888986D02*
Y1901978D01*
X2058425Y1500657D02*
X2071417D01*
X2064921Y1494161D02*
Y1507153D01*
X2058425Y1096666D02*
X2071417D01*
X2064921Y1090170D02*
Y1103162D01*
X2058425Y694775D02*
X2071417D01*
X2064921Y688279D02*
Y701271D01*
X2058425Y1903363D02*
X2071417D01*
X2064921Y1896867D02*
Y1909859D01*
X2152805Y1466160D02*
X2175246D01*
X2164026Y1454939D02*
Y1477380D01*
X2152805Y1063801D02*
X2175246D01*
X2164026Y1052580D02*
Y1075021D01*
X2152781Y660542D02*
X2175222D01*
X2164002Y649322D02*
Y671763D01*
X2152805Y1869518D02*
X2175246D01*
X2164026Y1858298D02*
Y1880739D01*
X2162883Y1386015D02*
X2175876D01*
X2169380Y1379519D02*
Y1392511D01*
X2162883Y982429D02*
X2175876D01*
X2169380Y975933D02*
Y988925D01*
X2162883Y579105D02*
X2175876D01*
X2169380Y572609D02*
Y585601D01*
X2162883Y1788168D02*
X2175876D01*
X2169380Y1781672D02*
Y1794665D01*
X2117796Y1482675D02*
X2130788D01*
X2124292Y1476179D02*
Y1489171D01*
X2117796Y1079688D02*
X2130788D01*
X2124292Y1073192D02*
Y1086184D01*
X2117772Y676240D02*
X2130764D01*
X2124268Y669743D02*
Y682736D01*
X2117796Y1885209D02*
X2130789D01*
X2124293Y1878713D02*
Y1891706D01*
X2073386Y1387749D02*
X2095827D01*
X2084606Y1376529D02*
Y1398970D01*
X2073209Y984477D02*
X2095650D01*
X2084430Y973256D02*
Y995697D01*
X2073386Y581668D02*
X2095827D01*
X2084606Y570448D02*
Y592889D01*
X2073319Y1790387D02*
X2095760D01*
X2084539Y1779166D02*
Y1801607D01*
X1578284Y1593187D02*
X1591276D01*
X1584780Y1586691D02*
Y1599683D01*
X1410434Y786875D02*
X1423426D01*
X1416930Y780379D02*
Y793371D01*
X1578284Y1189908D02*
X1591276D01*
X1584780Y1183412D02*
Y1196404D01*
X1578284Y1996259D02*
X1591276D01*
X1584780Y1989763D02*
Y2002755D01*
X1594156Y1548130D02*
X1616596D01*
X1605376Y1536909D02*
Y1559350D01*
X1383351Y749380D02*
X1405792D01*
X1394572Y738159D02*
Y760600D01*
X1594155Y1144788D02*
X1616596D01*
X1605376Y1133567D02*
Y1156008D01*
X1594156Y1950749D02*
X1616596D01*
X1605376Y1939529D02*
Y1961970D01*
X1410434Y1593231D02*
X1423426D01*
X1416930Y1586735D02*
Y1599727D01*
X1578284Y787185D02*
X1591276D01*
X1584780Y780689D02*
Y793681D01*
X1410433Y1190343D02*
X1423426D01*
X1416929Y1183847D02*
Y1196839D01*
X1410434Y1996216D02*
X1423426D01*
X1416930Y1989720D02*
Y2002712D01*
X1383351Y1547723D02*
X1405792D01*
X1394572Y1536503D02*
Y1558944D01*
X1594156Y749683D02*
X1616596D01*
X1605376Y738462D02*
Y760904D01*
X1383351Y1144934D02*
X1405792D01*
X1394571Y1133713D02*
Y1156154D01*
X1383351Y1950753D02*
X1405792D01*
X1394572Y1939533D02*
Y1961974D01*
D16*
X1694783Y799449D02*
X1719385D01*
Y811449D01*
X1887180D01*
Y799449D02*
Y811449D01*
Y799449D02*
X1911783D01*
Y774846D02*
Y799449D01*
Y774846D02*
X1923783D01*
Y607051D02*
Y774846D01*
X1911783Y607051D02*
X1923783D01*
X1911783Y582449D02*
Y607051D01*
X1887180Y582449D02*
X1911783D01*
X1887180Y570449D02*
Y582449D01*
X1719385Y570449D02*
X1887180D01*
X1719385D02*
Y582449D01*
X1694783D02*
X1719385D01*
X1694783D02*
Y607051D01*
X1682783D02*
X1694783D01*
X1682783D02*
Y774846D01*
X1694783D01*
Y799449D01*
Y1202456D02*
X1719385D01*
Y1214456D01*
X1887180D01*
Y1202456D02*
Y1214456D01*
Y1202456D02*
X1911783D01*
Y1177854D02*
Y1202456D01*
Y1177854D02*
X1923783D01*
Y1010059D02*
Y1177854D01*
X1911783Y1010059D02*
X1923783D01*
X1911783Y985456D02*
Y1010059D01*
X1887180Y985456D02*
X1911783D01*
X1887180Y973456D02*
Y985456D01*
X1719385Y973456D02*
X1887180D01*
X1719385D02*
Y985456D01*
X1694783D02*
X1719385D01*
X1694783D02*
Y1010059D01*
X1682783D02*
X1694783D01*
X1682783D02*
Y1177854D01*
X1694783D01*
Y1202456D01*
Y1605464D02*
X1719385D01*
Y1617464D01*
X1887180D01*
Y1605464D02*
Y1617464D01*
Y1605464D02*
X1911783D01*
Y1580861D02*
Y1605464D01*
Y1580861D02*
X1923783D01*
Y1413066D02*
Y1580861D01*
X1911783Y1413066D02*
X1923783D01*
X1911783Y1388464D02*
Y1413066D01*
X1887180Y1388464D02*
X1911783D01*
X1887180Y1376464D02*
Y1388464D01*
X1719385Y1376464D02*
X1887180D01*
X1719385D02*
Y1388464D01*
X1694783D02*
X1719385D01*
X1694783D02*
Y1413066D01*
X1682783D02*
X1694783D01*
X1682783D02*
Y1580861D01*
X1694783D01*
Y1605464D01*
Y2008472D02*
X1719385D01*
Y2020472D01*
X1887180D01*
Y2008472D02*
Y2020472D01*
Y2008472D02*
X1911783D01*
Y1983869D02*
Y2008472D01*
Y1983869D02*
X1923783D01*
Y1816074D02*
Y1983869D01*
X1911783Y1816074D02*
X1923783D01*
X1911783Y1791472D02*
Y1816074D01*
X1887180Y1791472D02*
X1911783D01*
X1887180Y1779472D02*
Y1791472D01*
X1719385Y1779472D02*
X1887180D01*
X1719385D02*
Y1791472D01*
X1694783D02*
X1719385D01*
X1694783D02*
Y1816074D01*
X1682783D02*
X1694783D01*
X1682783D02*
Y1983869D01*
X1694783D01*
Y2008472D01*
X1474188Y1307378D02*
X1518188D01*
X1474188D02*
Y1321378D01*
Y1404378D02*
Y1418378D01*
X1518188D01*
Y1404378D02*
Y1418378D01*
Y1307378D02*
Y1321378D01*
X1522188D01*
X1470188D02*
X1474188D01*
X1470188D02*
Y1404378D01*
X1474188D01*
X1518188D02*
X1522188D01*
Y1321378D02*
Y1404378D01*
X1474056Y904370D02*
X1518056D01*
X1474056D02*
Y918370D01*
Y1001370D02*
Y1015370D01*
X1518056D01*
Y1001370D02*
Y1015370D01*
Y904370D02*
Y918370D01*
X1522056D01*
X1470056D02*
X1474056D01*
X1470056D02*
Y1001370D01*
X1474056D01*
X1518056D02*
X1522056D01*
Y918370D02*
Y1001370D01*
X1611868Y402784D02*
X1655868D01*
X1611868D02*
Y416784D01*
Y499784D02*
Y513784D01*
X1655868D01*
Y499784D02*
Y513784D01*
Y402784D02*
Y416784D01*
X1659868D01*
X1607868D02*
X1611868D01*
X1607868D02*
Y499784D01*
X1611868D01*
X1655868D02*
X1659868D01*
Y416784D02*
Y499784D01*
X1474188Y1710529D02*
X1518188D01*
X1474188D02*
Y1724529D01*
Y1807529D02*
Y1821529D01*
X1518188D01*
Y1807529D02*
Y1821529D01*
Y1710529D02*
Y1724529D01*
X1522188D01*
X1470188D02*
X1474188D01*
X1470188D02*
Y1807529D01*
X1474188D01*
X1518188D02*
X1522188D01*
Y1724529D02*
Y1807529D01*
X75127Y1208870D02*
X119127D01*
X75127D02*
Y1222870D01*
Y1305870D02*
Y1319870D01*
X119127D01*
Y1305870D02*
Y1319870D01*
Y1208870D02*
Y1222870D01*
X123127D01*
X71127D02*
X75127D01*
X71127D02*
Y1305870D01*
X75127D01*
X119127D02*
X123127D01*
Y1222870D02*
Y1305870D01*
X243349Y1208870D02*
X287349D01*
X243349D02*
Y1222870D01*
Y1305870D02*
Y1319870D01*
X287349D01*
Y1305870D02*
Y1319870D01*
Y1208870D02*
Y1222870D01*
X291349D01*
X239349D02*
X243349D01*
X239349D02*
Y1305870D01*
X243349D01*
X287349D02*
X291349D01*
Y1222870D02*
Y1305870D01*
X75127Y647846D02*
X119127D01*
X75127D02*
Y661846D01*
Y744846D02*
Y758846D01*
X119127D01*
Y744846D02*
Y758846D01*
Y647846D02*
Y661846D01*
X123127D01*
X71127D02*
X75127D01*
X71127D02*
Y744846D01*
X75127D01*
X119127D02*
X123127D01*
Y661846D02*
Y744846D01*
X243349Y647846D02*
X287349D01*
X243349D02*
Y661846D01*
Y744846D02*
Y758846D01*
X287349D01*
Y744846D02*
Y758846D01*
Y647846D02*
Y661846D01*
X291349D01*
X239349D02*
X243349D01*
X239349D02*
Y744846D01*
X243349D01*
X287349D02*
X291349D01*
Y661846D02*
Y744846D01*
X1346720Y348637D02*
X1388516D01*
Y360637D01*
Y412637D02*
Y424637D01*
X1346720D02*
X1388516D01*
X1346720Y412637D02*
Y424637D01*
Y348637D02*
Y360637D01*
X1341618D02*
X1346720D01*
X1388516D02*
X1393618D01*
Y412637D01*
X1388516D02*
X1393618D01*
X1341618D02*
X1346720D01*
X1341618Y360637D02*
Y412637D01*
X2001466Y428886D02*
Y453173D01*
Y428886D02*
X2009466D01*
Y312461D02*
Y428886D01*
X2001466Y312461D02*
X2009466D01*
X2001466Y288173D02*
Y312461D01*
X1977179Y288173D02*
X2001466D01*
X1977179Y280173D02*
Y288173D01*
X1860754Y280173D02*
X1977179D01*
X1860754D02*
Y288173D01*
X1836466D02*
X1860754D01*
X1836466D02*
Y312461D01*
X1828466D02*
X1836466D01*
X1828466D02*
Y428886D01*
X1836466D01*
Y453173D01*
X1860754D01*
Y461173D01*
X1977179D01*
Y453173D02*
Y461173D01*
Y453173D02*
X2001466D01*
X2096173Y-73408D02*
Y-67502D01*
Y-73408D02*
X2100110D01*
Y-164274D02*
Y-73408D01*
X2096173Y-164274D02*
X2100110D01*
X2096173Y-170180D02*
Y-164274D01*
X2064677Y-170180D02*
X2096173D01*
X2064677Y-172148D02*
Y-170180D01*
X2036803Y-172148D02*
X2064677D01*
X2036803D02*
Y-170180D01*
X2005306D02*
X2036803D01*
X2005306D02*
Y-164274D01*
X2001369D02*
X2005306D01*
X2001369D02*
Y-73408D01*
X2005306D01*
Y-67502D01*
X2036803D01*
Y-65534D01*
X2064677D01*
Y-67502D02*
Y-65534D01*
Y-67502D02*
X2096173D01*
Y81557D02*
Y87462D01*
Y81557D02*
X2100110D01*
Y-9309D02*
Y81557D01*
X2096173Y-9309D02*
X2100110D01*
X2096173Y-15215D02*
Y-9309D01*
X2064677Y-15215D02*
X2096173D01*
X2064677Y-17183D02*
Y-15215D01*
X2036803Y-17183D02*
X2064677D01*
X2036803D02*
Y-15215D01*
X2005306D02*
X2036803D01*
X2005306D02*
Y-9309D01*
X2001369D02*
X2005306D01*
X2001369D02*
Y81557D01*
X2005306D01*
Y87462D01*
X2036803D01*
Y89431D01*
X2064677D01*
Y87462D02*
Y89431D01*
Y87462D02*
X2096173D01*
Y232725D02*
Y238630D01*
Y232725D02*
X2100110D01*
Y141858D02*
Y232725D01*
X2096173Y141858D02*
X2100110D01*
X2096173Y135953D02*
Y141858D01*
X2064677Y135953D02*
X2096173D01*
X2064677Y133984D02*
Y135953D01*
X2036803Y133984D02*
X2064677D01*
X2036803D02*
Y135953D01*
X2005306D02*
X2036803D01*
X2005306D02*
Y141858D01*
X2001369D02*
X2005306D01*
X2001369D02*
Y232725D01*
X2005306D01*
Y238630D01*
X2036803D01*
Y240599D01*
X2064677D01*
Y238630D02*
Y240599D01*
Y238630D02*
X2096173D01*
X858434Y-50704D02*
Y17676D01*
X838434Y-50704D02*
X858434D01*
X747434D02*
X767434D01*
X747434D02*
Y17676D01*
X767434D01*
X838434D02*
X858434D01*
X838434D02*
Y26986D01*
Y-60014D02*
Y-50704D01*
X767434Y-60014D02*
X838434D01*
X767434D02*
Y-50704D01*
Y17676D02*
Y26986D01*
X838434D01*
D170*
X94716Y887470D02*
G03*
X94716Y887470I-13780J0D01*
G01*
X1847896Y148515D02*
G03*
X1847896Y148515I-13780J0D01*
G01*
X1642709Y19445D02*
G03*
X1642709Y19445I-13780J0D01*
G01*
X1448343Y162759D02*
G03*
X1448343Y162759I-13780J0D01*
G01*
X1570241Y325247D02*
G03*
X1570241Y325247I-13780J0D01*
G01*
X1491379Y350657D02*
G03*
X1491379Y350657I-13780J0D01*
G01*
X151471Y887470D02*
G03*
X151471Y887470I-13780J0D01*
G01*
X727244Y-130946D02*
G03*
X727244Y-130946I-13780J0D01*
G01*
X699652Y28966D02*
G03*
X699652Y28966I-13780J0D01*
G01*
X528779Y930000D02*
G03*
X528779Y930000I-13780J0D01*
G01*
X271562Y1648400D02*
G03*
X271562Y1648400I-13780J0D01*
G01*
X297633Y1331475D02*
G03*
X297633Y1331475I-13780J0D01*
G01*
X290743Y1153048D02*
G03*
X290743Y1153048I-13780J0D01*
G01*
X129410Y1331475D02*
G03*
X129410Y1331475I-13780J0D01*
G01*
X122520Y1153048D02*
G03*
X122520Y1153048I-13780J0D01*
G01*
X1591824Y178549D02*
G03*
X1591824Y178549I-13780J0D01*
G01*
X1406173Y15041D02*
G03*
X1406173Y15041I-13780J0D01*
G01*
X1522875Y288240D02*
G03*
X1522875Y288240I-13780J0D01*
G01*
X638170Y1478376D02*
G03*
X638170Y1478376I-13780J0D01*
G01*
X675158Y1626437D02*
G03*
X675158Y1626437I-13780J0D01*
G01*
X512387Y1530816D02*
G03*
X512387Y1530816I-13780J0D01*
G01*
Y1601685D02*
G03*
X512387Y1601685I-13780J0D01*
G01*
X1429051Y288832D02*
G03*
X1429051Y288832I-13780J0D01*
G01*
X1552279Y-3241D02*
G03*
X1552279Y-3241I-13780J0D01*
G01*
X1367786Y122207D02*
G03*
X1367786Y122207I-13780J0D01*
G01*
X-29570Y1834195D02*
G03*
X-29570Y1834195I-13780J0D01*
G01*
X122520Y592024D02*
G03*
X122520Y592024I-13780J0D01*
G01*
X290743D02*
G03*
X290743Y592024I-13780J0D01*
G01*
X129410Y770452D02*
G03*
X129410Y770452I-13780J0D01*
G01*
X297633D02*
G03*
X297633Y770452I-13780J0D01*
G01*
X2126732Y1957181D02*
G03*
X2126732Y1957181I-13780J0D01*
G01*
X357253Y1529100D02*
G03*
X357253Y1529100I-13780J0D01*
G01*
X727244Y-71863D02*
G03*
X727244Y-71863I-13780J0D01*
G01*
X121240Y2348120D02*
G03*
X121240Y2348120I-13780J0D01*
G01*
X167277Y2329713D02*
G03*
X167277Y2329713I-13780J0D01*
G01*
X423803Y2160935D02*
G03*
X423803Y2160935I-13780J0D01*
G01*
X-155937Y2093711D02*
G03*
X-155937Y2093711I-13780J0D01*
G01*
X-109496Y2075223D02*
G03*
X-109496Y2075223I-13780J0D01*
G01*
X146939Y1906526D02*
G03*
X146939Y1906526I-13780J0D01*
G01*
X1554853Y1376903D02*
G03*
X1554853Y1376903I-13780J0D01*
G01*
X1554721Y973895D02*
G03*
X1554721Y973895I-13780J0D01*
G01*
X1692533Y472280D02*
G03*
X1692533Y472280I-13780J0D01*
G01*
X1554853Y1779910D02*
G03*
X1554853Y1779910I-13780J0D01*
G01*
X1656918Y1415295D02*
G03*
X1656918Y1415295I-13780J0D01*
G01*
Y1012287D02*
G03*
X1656918Y1012287I-13780J0D01*
G01*
Y609280D02*
G03*
X1656918Y609280I-13780J0D01*
G01*
Y1818303D02*
G03*
X1656918Y1818303I-13780J0D01*
G01*
X741687Y966732D02*
Y1016732D01*
X651687D02*
X741687D01*
X651687Y966732D02*
Y1016732D01*
Y966732D02*
X741687D01*
X1539718Y646942D02*
X1589718D01*
Y736942D01*
X1539718D02*
X1589718D01*
X1539718Y646942D02*
Y736942D01*
X1620891Y823422D02*
Y873422D01*
X1530891D02*
X1620891D01*
X1530891Y823422D02*
Y873422D01*
Y823422D02*
X1620891D01*
Y1226430D02*
Y1276430D01*
X1530891D02*
X1620891D01*
X1530891Y1226430D02*
Y1276430D01*
Y1226430D02*
X1620891D01*
X1621022Y1629438D02*
Y1679438D01*
X1531022D02*
X1621022D01*
X1531022Y1629438D02*
Y1679438D01*
Y1629438D02*
X1621022D01*
X599046Y1442898D02*
Y1492898D01*
X509046D02*
X599046D01*
X509046Y1442898D02*
Y1492898D01*
Y1442898D02*
X599046D01*
X80936Y867785D02*
Y907155D01*
X61252Y887470D02*
X100621D01*
X51409Y828415D02*
X110464D01*
X51409Y946525D02*
X110464D01*
X51409Y828415D02*
Y946525D01*
X110464Y828415D02*
Y946525D01*
X1232220Y627447D02*
Y677447D01*
X1142220D02*
X1232220D01*
X1142220Y627447D02*
Y677447D01*
Y627447D02*
X1232220D01*
X1142220Y526971D02*
Y576971D01*
Y526971D02*
X1232220D01*
Y576971D01*
X1142220D02*
X1232220D01*
X1142220Y426495D02*
Y476495D01*
Y426495D02*
X1232220D01*
Y476495D01*
X1142220D02*
X1232220D01*
Y727923D02*
Y777923D01*
X1142220D02*
X1232220D01*
X1142220Y727923D02*
Y777923D01*
Y727923D02*
X1232220D01*
X2737028Y292716D02*
Y342716D01*
X2647028D02*
X2737028D01*
X2647028Y292716D02*
Y342716D01*
Y292716D02*
X2737028D01*
X2647028Y192716D02*
Y242716D01*
Y192716D02*
X2737028D01*
Y242716D01*
X2647028D02*
X2737028D01*
X2598158Y242499D02*
Y292499D01*
X2508158D02*
X2598158D01*
X2508158Y242499D02*
Y292499D01*
Y242499D02*
X2598158D01*
X2167063Y-55532D02*
Y-5532D01*
Y-55532D02*
X2257063D01*
Y-5532D01*
X2167063D02*
X2257063D01*
Y44944D02*
Y94944D01*
X2167063D02*
X2257063D01*
X2167063Y44944D02*
Y94944D01*
Y44944D02*
X2257063D01*
X2167063Y145420D02*
Y195420D01*
Y145420D02*
X2257063D01*
Y195420D01*
X2167063D02*
X2257063D01*
X2167063Y245896D02*
Y295896D01*
Y245896D02*
X2257063D01*
Y295896D01*
X2167063D02*
X2257063D01*
X1414116Y2323039D02*
Y2373039D01*
X1324116D02*
X1414116D01*
X1324116Y2323039D02*
Y2373039D01*
Y2323039D02*
X1414116D01*
X1622840Y212083D02*
Y262083D01*
X1532840D02*
X1622840D01*
X1532840Y212083D02*
Y262083D01*
Y212083D02*
X1622840D01*
X98555Y1958885D02*
X148555D01*
Y2048885D01*
X98555D02*
X148555D01*
X98555Y1958885D02*
Y2048885D01*
X172555Y1059534D02*
Y1109534D01*
X82555D02*
X172555D01*
X82555Y1059534D02*
Y1109534D01*
Y1059534D02*
X172555D01*
X-196230Y946723D02*
X-146230D01*
Y1036724D01*
X-196230D02*
X-146230D01*
X-196230Y946723D02*
Y1036724D01*
X1814431Y148515D02*
X1853802D01*
X1834117Y128830D02*
Y168200D01*
X1798290Y130405D02*
Y166626D01*
X1869943D01*
Y130405D02*
Y166626D01*
X1798290Y130405D02*
X1869943D01*
X1046877Y-52085D02*
Y211694D01*
Y-52085D02*
X1296877D01*
Y211694D01*
X1046877D02*
X1296877D01*
X1610820Y-16382D02*
Y55271D01*
Y-16382D02*
X1647040D01*
Y55271D01*
X1610820D02*
X1647040D01*
X1609245Y19445D02*
X1648615D01*
X1628930Y-240D02*
Y39130D01*
X1434564Y143074D02*
Y182444D01*
X1414879Y162759D02*
X1454249D01*
X1363698Y78113D02*
X1505430D01*
Y247404D01*
X1363698D02*
X1505430D01*
X1363698Y78113D02*
Y247404D01*
X1583655Y650251D02*
Y817574D01*
X1416333D02*
X1583655D01*
X1416333Y650251D02*
Y817574D01*
Y650251D02*
X1583655D01*
Y1859274D02*
Y2026597D01*
X1416333D02*
X1583655D01*
X1416333Y1859274D02*
Y2026597D01*
Y1859274D02*
X1583655D01*
Y1456266D02*
Y1623589D01*
X1416333D02*
X1583655D01*
X1416333Y1456266D02*
Y1623589D01*
Y1456266D02*
X1583655D01*
Y1053259D02*
Y1220582D01*
X1416333D02*
X1583655D01*
X1416333Y1053259D02*
Y1220582D01*
Y1053259D02*
X1583655D01*
X2527265Y2285630D02*
X2606792D01*
X2527265Y2250590D02*
Y2285630D01*
X2606792Y2250590D02*
Y2285630D01*
X2268209Y34842D02*
Y2250590D01*
X2527265D01*
X2606792D02*
X2865847D01*
Y34842D02*
Y2250590D01*
X2268209Y34842D02*
X2865847D01*
X2000945Y715555D02*
X2168267D01*
Y548232D02*
Y715555D01*
X2000945Y548232D02*
X2168267D01*
X2000945D02*
Y715555D01*
Y1118563D02*
X2168267D01*
Y951240D02*
Y1118563D01*
X2000945Y951240D02*
X2168267D01*
X2000945D02*
Y1118563D01*
Y1924578D02*
X2168267D01*
Y1757255D02*
Y1924578D01*
X2000945Y1757255D02*
X2168267D01*
X2000945D02*
Y1924578D01*
Y1521570D02*
X2168267D01*
Y1354247D02*
Y1521570D01*
X2000945Y1354247D02*
X2168267D01*
X2000945D02*
Y1521570D01*
X2325419Y388292D02*
Y604828D01*
Y388292D02*
X2618727D01*
Y604828D01*
X2325419D02*
X2618727D01*
X725727Y1610446D02*
Y2013989D01*
Y1610446D02*
X1129271D01*
Y2013989D01*
X725727D02*
X1129271D01*
X671099Y1749225D02*
Y1879147D01*
X513619Y1749225D02*
X671099D01*
X513619D02*
Y1879147D01*
X671099D01*
X12158Y1678359D02*
X179480D01*
X12158D02*
Y1820091D01*
X179480D01*
Y1678359D02*
Y1820091D01*
X-112465Y1936485D02*
X54857D01*
X-112465D02*
Y2078217D01*
X54857D01*
Y1936485D02*
Y2078217D01*
X164399Y2190894D02*
X331722D01*
X164399D02*
Y2332627D01*
X331722D01*
Y2190894D02*
Y2332627D01*
X307028Y80591D02*
Y396733D01*
X623170Y80591D02*
Y396733D01*
X307028Y80591D02*
X623170D01*
X307028Y396733D02*
X623170D01*
X-176240Y80591D02*
Y396733D01*
X139902Y80591D02*
Y396733D01*
X-176240Y80591D02*
X139902D01*
X-176240Y396733D02*
X139902D01*
X1452938Y2176153D02*
Y2492295D01*
X1769080Y2176153D02*
Y2492295D01*
X1452938Y2176153D02*
X1769080D01*
X1452938Y2492295D02*
X1769080D01*
X969670Y2176153D02*
Y2492295D01*
X1285812Y2176153D02*
Y2492295D01*
X969670Y2176153D02*
X1285812D01*
X969670Y2492295D02*
X1285812D01*
X486402Y2176153D02*
Y2492295D01*
X802544Y2176153D02*
Y2492295D01*
X486402Y2176153D02*
X802544D01*
X486402Y2492295D02*
X802544D01*
X1936206Y2176153D02*
Y2492295D01*
X2252348Y2176153D02*
Y2492295D01*
X1936206Y2176153D02*
X2252348D01*
X1936206Y2492295D02*
X2252348D01*
X145779Y1868337D02*
X228456D01*
X145779D02*
Y1907707D01*
X228456D01*
Y1868337D02*
Y1907707D01*
X422644Y2122747D02*
X505321D01*
X422644D02*
Y2162117D01*
X505321D01*
Y2122747D02*
Y2162117D01*
X324580Y1524423D02*
Y1607100D01*
X285210Y1524423D02*
X324580D01*
X285210D02*
Y1607100D01*
X324580D01*
X1424352Y16242D02*
X1507029D01*
Y-23128D02*
Y16242D01*
X1424352Y-23128D02*
X1507029D01*
X1424352D02*
Y16242D01*
X632247Y1478514D02*
Y1598514D01*
X692247D01*
Y1478514D02*
Y1598514D01*
X632247Y1478514D02*
X692247D01*
X1556461Y305562D02*
Y344932D01*
X1536776Y325247D02*
X1576147D01*
X1538351Y361074D02*
X1574572D01*
X1538351Y289421D02*
Y361074D01*
Y289421D02*
X1574572D01*
Y361074D01*
X1418545Y380185D02*
X1536655D01*
X1418545Y321130D02*
X1536655D01*
Y380185D01*
X1418545Y321130D02*
Y380185D01*
X1477600Y330972D02*
Y370342D01*
X1457915Y350657D02*
X1497285D01*
X137691Y867785D02*
Y907155D01*
X118006Y887470D02*
X157376D01*
X108163Y828415D02*
X167219D01*
X108163Y946525D02*
X167219D01*
X108163Y828415D02*
Y946525D01*
X167219Y828415D02*
Y946525D01*
X693779Y-130946D02*
X733149D01*
X713464Y-150631D02*
Y-111261D01*
X772519Y-160474D02*
Y-101418D01*
X654409Y-160474D02*
Y-101418D01*
Y-160474D02*
X772519D01*
X654409Y-101418D02*
X772519D01*
X715400Y-30089D02*
Y88021D01*
X656345Y-30089D02*
Y88021D01*
X715400D01*
X656345Y-30089D02*
X715400D01*
X666187Y28966D02*
X705557D01*
X685872Y9281D02*
Y48651D01*
X455945Y900472D02*
X574055D01*
X455945Y959528D02*
X574055D01*
Y900472D02*
Y959528D01*
X455945Y900472D02*
Y959528D01*
X515000Y910315D02*
Y949685D01*
X495315Y930000D02*
X534685D01*
X239672Y1612573D02*
Y1684227D01*
Y1612573D02*
X275892D01*
Y1684227D01*
X239672D02*
X275892D01*
X238097Y1648400D02*
X277467D01*
X257782Y1628715D02*
Y1668085D01*
X264168Y1331475D02*
X303538D01*
X283853Y1311790D02*
Y1351160D01*
X248026Y1313365D02*
Y1349585D01*
X319680D01*
Y1313365D02*
Y1349585D01*
X248026Y1313365D02*
X319680D01*
X257278Y1153048D02*
X296648D01*
X276963Y1133363D02*
Y1172733D01*
X312790Y1134938D02*
Y1171158D01*
X241137Y1134938D02*
X312790D01*
X241137D02*
Y1171158D01*
X312790D01*
X95946Y1331475D02*
X135316D01*
X115631Y1311790D02*
Y1351160D01*
X79804Y1313365D02*
Y1349585D01*
X151458D01*
Y1313365D02*
Y1349585D01*
X79804Y1313365D02*
X151458D01*
X89056Y1153048D02*
X128426D01*
X108741Y1133363D02*
Y1172733D01*
X144568Y1134938D02*
Y1171158D01*
X72914Y1134938D02*
X144568D01*
X72914D02*
Y1171158D01*
X144568D01*
X531664Y1273307D02*
X691664D01*
X531664D02*
Y1403268D01*
X691664D01*
Y1273307D02*
Y1403268D01*
X531664Y1125512D02*
X691664D01*
X531664D02*
Y1255472D01*
X691664D01*
Y1125512D02*
Y1255472D01*
X531664Y712197D02*
X691664D01*
X531664D02*
Y842158D01*
X691664D01*
Y712197D02*
Y842158D01*
X531664Y564661D02*
X691664D01*
X531664D02*
Y694622D01*
X691664D01*
Y564661D02*
Y694622D01*
X856058Y11316D02*
Y171316D01*
X986019D01*
Y11316D02*
Y171316D01*
X856058Y11316D02*
X986019D01*
X1235054Y-33918D02*
X1285054D01*
X1235054D02*
Y36082D01*
X1285054D01*
Y-33918D02*
Y36082D01*
X1051492Y69273D02*
X1101492D01*
X1051492D02*
Y139273D01*
X1101492D01*
Y69273D02*
Y139273D01*
X1051668Y65592D02*
X1101668D01*
Y-4408D02*
Y65592D01*
X1051668Y-4408D02*
X1101668D01*
X1051668D02*
Y65592D01*
X1558359Y178549D02*
X1597729D01*
X1578044Y158864D02*
Y198234D01*
X1542218Y160439D02*
Y196660D01*
X1613871D01*
Y160439D02*
Y196660D01*
X1542218Y160439D02*
X1613871D01*
X1392394Y-4644D02*
Y34726D01*
X1372709Y15041D02*
X1412079D01*
X1374284Y50867D02*
X1410504D01*
Y-20786D02*
Y50867D01*
X1374284Y-20786D02*
X1410504D01*
X1374284D02*
Y50867D01*
X1509096Y268555D02*
Y307925D01*
X1489411Y288240D02*
X1528781D01*
X1490986Y324066D02*
X1527206D01*
X1490986Y252413D02*
Y324066D01*
Y252413D02*
X1527206D01*
Y324066D01*
X624390Y1458691D02*
Y1498061D01*
X604705Y1478376D02*
X644075D01*
X606280Y1514202D02*
X642501D01*
Y1442549D02*
Y1514202D01*
X606280Y1442549D02*
X642501D01*
X606280D02*
Y1514202D01*
X661379Y1606752D02*
Y1646122D01*
X641694Y1626437D02*
X681064D01*
X643269Y1590611D02*
X679489D01*
X643269D02*
Y1662264D01*
X679489D01*
Y1590611D02*
Y1662264D01*
X498608Y1511131D02*
Y1550501D01*
X478923Y1530816D02*
X518293D01*
X480498Y1494990D02*
X516718D01*
X480498D02*
Y1566643D01*
X516718D01*
Y1494990D02*
Y1566643D01*
X498608Y1582000D02*
Y1621370D01*
X478923Y1601685D02*
X518293D01*
X480498Y1637512D02*
X516718D01*
Y1565858D02*
Y1637512D01*
X480498Y1565858D02*
X516718D01*
X480498D02*
Y1637512D01*
X1382594Y270131D02*
X1447949D01*
X1382594D02*
Y307533D01*
X1447949D01*
Y270131D02*
Y307533D01*
X1395587Y288832D02*
X1434957D01*
X1518815Y-3241D02*
X1558185D01*
X1538500Y-22927D02*
Y16444D01*
X1502673Y-21352D02*
Y14869D01*
X1574326D01*
Y-21352D02*
Y14869D01*
X1502673Y-21352D02*
X1574326D01*
X1354007Y102522D02*
Y141892D01*
X1334322Y122207D02*
X1373692D01*
X1335897Y158034D02*
X1372117D01*
X1335897Y86380D02*
Y158034D01*
Y86380D02*
X1372117D01*
Y158034D01*
X-63035Y1834195D02*
X-23665D01*
X-43350Y1814510D02*
Y1853880D01*
X-79177Y1816085D02*
Y1852305D01*
X-7523D01*
Y1816085D02*
Y1852305D01*
X-79177Y1816085D02*
X-7523D01*
X89056Y592024D02*
X128426D01*
X108741Y572339D02*
Y611709D01*
X144568Y573914D02*
Y610134D01*
X72914Y573914D02*
X144568D01*
X72914D02*
Y610134D01*
X144568D01*
X257278Y592024D02*
X296648D01*
X276963Y572339D02*
Y611709D01*
X312790Y573914D02*
Y610134D01*
X241137Y573914D02*
X312790D01*
X241137D02*
Y610134D01*
X312790D01*
X95946Y770452D02*
X135316D01*
X115631Y750767D02*
Y790137D01*
X79804Y752341D02*
Y788562D01*
X151458D01*
Y752341D02*
Y788562D01*
X79804Y752341D02*
X151458D01*
X264168Y770452D02*
X303538D01*
X283853Y750767D02*
Y790137D01*
X248026Y752341D02*
Y788562D01*
X319680D01*
Y752341D02*
Y788562D01*
X248026Y752341D02*
X319680D01*
X2093267Y1957181D02*
X2132637D01*
X2112952Y1937496D02*
Y1976866D01*
X2077126Y1939071D02*
Y1975292D01*
X2148779D01*
Y1939071D02*
Y1975292D01*
X2077126Y1939071D02*
X2148779D01*
X343474Y1509415D02*
Y1548785D01*
X323789Y1529100D02*
X363159D01*
X325364Y1564927D02*
X361584D01*
Y1493273D02*
Y1564927D01*
X325364Y1493273D02*
X361584D01*
X325364D02*
Y1564927D01*
X654409Y-42335D02*
X772519D01*
X654409Y-101391D02*
X772519D01*
X654409D02*
Y-42335D01*
X772519Y-101391D02*
Y-42335D01*
X713464Y-91548D02*
Y-52178D01*
X693779Y-71863D02*
X733149D01*
X87775Y2348120D02*
X127145D01*
X107460Y2328435D02*
Y2367805D01*
X71634Y2330010D02*
Y2366231D01*
X143287D01*
Y2330010D02*
Y2366231D01*
X71634Y2330010D02*
X143287D01*
X153498Y2310028D02*
Y2349398D01*
X133813Y2329713D02*
X173183D01*
X135388Y2365540D02*
X171608D01*
Y2293887D02*
Y2365540D01*
X135388Y2293887D02*
X171608D01*
X135388D02*
Y2365540D01*
X410024Y2141250D02*
Y2180620D01*
X390339Y2160935D02*
X429709D01*
X391913Y2125109D02*
X428134D01*
X391913D02*
Y2196762D01*
X428134D01*
Y2125109D02*
Y2196762D01*
X-189401Y2093711D02*
X-150031D01*
X-169716Y2074026D02*
Y2113396D01*
X-205543Y2075601D02*
Y2111821D01*
X-133890D01*
Y2075601D02*
Y2111821D01*
X-205543Y2075601D02*
X-133890D01*
X-123275Y2055538D02*
Y2094908D01*
X-142960Y2075223D02*
X-103590D01*
X-141386Y2111050D02*
X-105165D01*
Y2039396D02*
Y2111050D01*
X-141386Y2039396D02*
X-105165D01*
X-141386D02*
Y2111050D01*
X133159Y1886841D02*
Y1926211D01*
X113474Y1906526D02*
X152844D01*
X115049Y1870699D02*
X151269D01*
X115049D02*
Y1942353D01*
X151269D01*
Y1870699D02*
Y1942353D01*
X1541073Y1357218D02*
Y1396588D01*
X1521388Y1376903D02*
X1560758D01*
X1522963Y1412729D02*
X1559183D01*
Y1341076D02*
Y1412729D01*
X1522963Y1341076D02*
X1559183D01*
X1522963D02*
Y1412729D01*
X1540942Y954210D02*
Y993580D01*
X1521257Y973895D02*
X1560627D01*
X1522832Y1009722D02*
X1559052D01*
Y938068D02*
Y1009722D01*
X1522832Y938068D02*
X1559052D01*
X1522832D02*
Y1009722D01*
X1678753Y452595D02*
Y491965D01*
X1659068Y472280D02*
X1698438D01*
X1660643Y508106D02*
X1696863D01*
Y436453D02*
Y508106D01*
X1660643Y436453D02*
X1696863D01*
X1660643D02*
Y508106D01*
X1541073Y1760225D02*
Y1799595D01*
X1521388Y1779910D02*
X1560758D01*
X1522963Y1815737D02*
X1559183D01*
Y1744083D02*
Y1815737D01*
X1522963Y1744083D02*
X1559183D01*
X1522963D02*
Y1815737D01*
X2076732Y1475944D02*
Y1511377D01*
X2112165Y1475944D02*
Y1511377D01*
X2076732D02*
X2112165D01*
X2076732Y1475944D02*
X2112165D01*
X2076732Y1072936D02*
Y1108369D01*
X2112165Y1072936D02*
Y1108369D01*
X2076732D02*
X2112165D01*
X2076732Y1072936D02*
X2112165D01*
X2076732Y669928D02*
Y705362D01*
X2112165Y669928D02*
Y705362D01*
X2076732D02*
X2112165D01*
X2076732Y669928D02*
X2112165D01*
X2076732Y1878951D02*
Y1914384D01*
X2112165Y1878951D02*
Y1914384D01*
X2076732D02*
X2112165D01*
X2076732Y1878951D02*
X2112165D01*
X1099098Y1656706D02*
Y1696075D01*
X1079413Y1676390D02*
X1118783D01*
X1080988Y1712217D02*
X1117208D01*
X1080988Y1640564D02*
Y1712217D01*
Y1640564D02*
X1117208D01*
Y1712217D01*
X1043641Y1802375D02*
X1083011D01*
X1063326Y1782690D02*
Y1822060D01*
X1027499Y1784265D02*
Y1820485D01*
Y1784265D02*
X1099152D01*
Y1820485D01*
X1027499D02*
X1099152D01*
X1847045Y1351562D02*
X1882478D01*
X1847045Y1386995D02*
X1882478D01*
Y1351562D02*
Y1386995D01*
X1847045Y1351562D02*
Y1386995D01*
Y949206D02*
X1882478D01*
X1847045Y984639D02*
X1882478D01*
Y949206D02*
Y984639D01*
X1847045Y949206D02*
Y984639D01*
Y546956D02*
X1882478D01*
X1847045Y582389D02*
X1882478D01*
Y546956D02*
Y582389D01*
X1847045Y546956D02*
Y582389D01*
Y1756962D02*
X1882478D01*
X1847045Y1792395D02*
X1882478D01*
Y1756962D02*
Y1792395D01*
X1847045Y1756962D02*
Y1792395D01*
X1922407Y1305250D02*
Y1368242D01*
X1859415Y1305250D02*
Y1368242D01*
X1922407D01*
X1859415Y1305250D02*
X1922407D01*
Y902009D02*
Y965001D01*
X1859415Y902009D02*
Y965001D01*
X1922407D01*
X1859415Y902009D02*
X1922407D01*
Y499475D02*
Y562467D01*
X1859415Y499475D02*
Y562467D01*
X1922407D01*
X1859415Y499475D02*
X1922407D01*
Y1708321D02*
Y1771313D01*
X1859415Y1708321D02*
Y1771313D01*
X1922407D01*
X1859415Y1708321D02*
X1922407D01*
X1728851Y1350238D02*
X1764284D01*
X1728851Y1385672D02*
X1764284D01*
Y1350238D02*
Y1385672D01*
X1728851Y1350238D02*
Y1385672D01*
Y948558D02*
X1764284D01*
X1728851Y983991D02*
X1764284D01*
Y948558D02*
Y983991D01*
X1728851Y948558D02*
Y983991D01*
Y546722D02*
X1764284D01*
X1728851Y582155D02*
X1764284D01*
Y546722D02*
Y582155D01*
X1728851Y546722D02*
Y582155D01*
Y1755574D02*
X1764284D01*
X1728851Y1791007D02*
X1764284D01*
Y1755574D02*
Y1791007D01*
X1728851Y1755574D02*
Y1791007D01*
X1713701Y1293537D02*
X1776693D01*
X1713701Y1356529D02*
X1776693D01*
Y1293537D02*
Y1356529D01*
X1713701Y1293537D02*
Y1356529D01*
Y890873D02*
X1776693D01*
X1713701Y953865D02*
X1776693D01*
Y890873D02*
Y953865D01*
X1713701Y890873D02*
Y953865D01*
Y487563D02*
X1776693D01*
X1713701Y550555D02*
X1776693D01*
Y487563D02*
Y550555D01*
X1713701Y487563D02*
Y550555D01*
Y1696759D02*
X1776693D01*
X1713701Y1759752D02*
X1776693D01*
Y1696759D02*
Y1759752D01*
X1713701Y1696759D02*
Y1759752D01*
X1858648Y1645409D02*
X1894081D01*
X1858648Y1609976D02*
X1894081D01*
X1858648D02*
Y1645409D01*
X1894081Y1609976D02*
Y1645409D01*
X1858648Y1242402D02*
X1894081D01*
X1858648Y1206969D02*
X1894081D01*
X1858648D02*
Y1242402D01*
X1894081Y1206969D02*
Y1242402D01*
X1858648Y839394D02*
X1894081D01*
X1858648Y803961D02*
X1894081D01*
X1858648D02*
Y839394D01*
X1894081Y803961D02*
Y839394D01*
X1858648Y2050061D02*
X1894081D01*
X1858648Y2014628D02*
X1894081D01*
X1858648D02*
Y2050061D01*
X1894081Y2014628D02*
Y2050061D01*
X1843168Y1703598D02*
X1906160D01*
X1843168Y1640606D02*
X1906160D01*
X1843168D02*
Y1703598D01*
X1906160Y1640606D02*
Y1703598D01*
X1843168Y1300156D02*
X1906160D01*
X1843168Y1237164D02*
X1906160D01*
X1843168D02*
Y1300156D01*
X1906160Y1237164D02*
Y1300156D01*
X1843168Y897261D02*
X1906160D01*
X1843168Y834269D02*
X1906160D01*
X1843168D02*
Y897261D01*
X1906160Y834269D02*
Y897261D01*
X1843168Y2106086D02*
X1906160D01*
X1843168Y2043094D02*
X1906160D01*
X1843168D02*
Y2106086D01*
X1906160Y2043094D02*
Y2106086D01*
X1960337Y494054D02*
X1995770D01*
X1960337Y458621D02*
X1995770D01*
X1960337D02*
Y494054D01*
X1995770Y458621D02*
Y494054D01*
X1947673Y423360D02*
X2010665D01*
X1947673Y486352D02*
X2010665D01*
X1947673Y423360D02*
Y486352D01*
X2010665Y423360D02*
Y486352D01*
X1043641Y1723635D02*
X1083011D01*
X1063326Y1703950D02*
Y1743320D01*
X1027499Y1705524D02*
Y1741745D01*
Y1705524D02*
X1099152D01*
Y1741745D01*
X1027499D02*
X1099152D01*
X1402732Y437710D02*
Y473143D01*
X1438165Y437710D02*
Y473143D01*
X1402732Y437710D02*
X1438165D01*
X1402732Y473143D02*
X1438165D01*
X1444532Y413527D02*
X1507524D01*
X1444532Y476519D02*
X1507524D01*
X1444532Y413527D02*
Y476519D01*
X1507524Y413527D02*
Y476519D01*
X1839809Y337741D02*
X1875243D01*
X1839809Y373175D02*
X1875243D01*
X1839809Y337741D02*
Y373175D01*
X1875243Y337741D02*
Y373175D01*
X1862626Y357852D02*
Y420844D01*
X1799634Y357852D02*
Y420844D01*
Y357852D02*
X1862626D01*
X1799634Y420844D02*
X1862626D01*
X1858821Y282613D02*
X1894254D01*
X1858821Y247179D02*
X1894254D01*
X1858821D02*
Y282613D01*
X1894254Y247179D02*
Y282613D01*
X1882308Y202171D02*
Y265163D01*
X1819316Y202171D02*
Y265163D01*
X1882308D01*
X1819316Y202171D02*
X1882308D01*
X1859211Y489920D02*
X1894644D01*
X1859211Y454486D02*
X1894644D01*
X1859211D02*
Y489920D01*
X1894644Y454486D02*
Y489920D01*
X1833483Y425049D02*
Y488041D01*
X1896475Y425049D02*
Y488041D01*
X1833483D02*
X1896475D01*
X1833483Y425049D02*
X1896475D01*
X1334768Y257069D02*
X1358390D01*
X1346579Y245258D02*
Y268880D01*
X1317051Y196045D02*
Y318092D01*
X1376107Y196045D02*
Y318092D01*
X1317051D02*
X1376107D01*
X1317051Y196045D02*
X1376107D01*
X1405178Y240868D02*
X1440611D01*
X1405178Y276301D02*
X1440611D01*
X1405178Y240868D02*
Y276301D01*
X1440611Y240868D02*
Y276301D01*
X1566029Y205587D02*
X1589651D01*
X1577840Y193776D02*
Y217398D01*
X1548312Y144564D02*
Y266611D01*
X1607367Y144564D02*
Y266611D01*
X1548312D02*
X1607367D01*
X1548312Y144564D02*
X1607367D01*
X1500325Y202282D02*
X1523947D01*
X1512136Y190471D02*
Y214093D01*
X1493435Y168818D02*
Y235747D01*
X1530837Y168818D02*
Y235747D01*
X1493435D02*
X1530837D01*
X1493435Y168818D02*
X1530837D01*
X1418826Y1358699D02*
X1442448D01*
X1430638Y1346888D02*
Y1370510D01*
X1460165Y1297675D02*
Y1419723D01*
X1401110Y1297675D02*
Y1419723D01*
X1460165D01*
X1401110Y1297675D02*
X1460165D01*
X1141060Y2048211D02*
Y2071832D01*
X1129248Y2060021D02*
X1152870D01*
X1080036Y2089549D02*
X1202083D01*
X1080036Y2030494D02*
X1202083D01*
X1080036D02*
Y2089549D01*
X1202083Y2030494D02*
Y2089549D01*
X917656Y1928359D02*
Y1967729D01*
X897971Y1948044D02*
X937341D01*
X899546Y1912217D02*
X935767D01*
Y1983871D01*
X899546D02*
X935767D01*
X899546Y1912217D02*
Y1983871D01*
X1042907Y1953141D02*
X1082277D01*
X1062592Y1933456D02*
Y1972826D01*
X1026765Y1935031D02*
Y1971251D01*
Y1935031D02*
X1098419D01*
Y1971251D01*
X1026765D02*
X1098419D01*
X1016082Y1656706D02*
Y1696075D01*
X996397Y1676390D02*
X1035767D01*
X997971Y1712217D02*
X1034192D01*
X997971Y1640564D02*
Y1712217D01*
Y1640564D02*
X1034192D01*
Y1712217D01*
X957027Y1656706D02*
Y1696075D01*
X937341Y1676390D02*
X976712D01*
X938916Y1712217D02*
X975137D01*
X938916Y1640564D02*
Y1712217D01*
Y1640564D02*
X975137D01*
Y1712217D01*
X1011151Y1910099D02*
Y1949469D01*
X991466Y1929784D02*
X1030836D01*
X993041Y1893958D02*
X1029261D01*
Y1965611D01*
X993041D02*
X1029261D01*
X993041Y1893958D02*
Y1965611D01*
X858601Y1928359D02*
Y1967729D01*
X838916Y1948044D02*
X878286D01*
X840491Y1912217D02*
X876712D01*
Y1983871D01*
X840491D02*
X876712D01*
X840491Y1912217D02*
Y1983871D01*
X1069458Y1880668D02*
Y1920038D01*
X1049773Y1900353D02*
X1089143D01*
X1051348Y1864526D02*
X1087569D01*
Y1936180D01*
X1051348D02*
X1087569D01*
X1051348Y1864526D02*
Y1936180D01*
X1064971Y1656706D02*
Y1696075D01*
X1045286Y1676390D02*
X1084656D01*
X1046861Y1712217D02*
X1083082D01*
X1046861Y1640564D02*
Y1712217D01*
Y1640564D02*
X1083082D01*
Y1712217D01*
X709949Y1652768D02*
Y1692139D01*
X690264Y1672454D02*
X729635D01*
X691839Y1636627D02*
X728060D01*
X691839D02*
Y1708280D01*
X728060D01*
Y1636627D02*
Y1708280D01*
X1515970Y117138D02*
X1539592D01*
X1527781Y105327D02*
Y128949D01*
X1557309Y56115D02*
Y178162D01*
X1498254Y56115D02*
Y178162D01*
Y56115D02*
X1557309D01*
X1498254Y178162D02*
X1557309D01*
X-35440Y1754119D02*
X3930D01*
X-15755Y1734434D02*
Y1773804D01*
X-51582Y1736009D02*
Y1772229D01*
X20072D01*
Y1736009D02*
Y1772229D01*
X-51582Y1736009D02*
X20072D01*
X166351Y1829997D02*
X229343D01*
X166351Y1767005D02*
X229343D01*
X166351D02*
Y1829997D01*
X229343Y1767005D02*
Y1829997D01*
X-63055Y1800658D02*
X-23685D01*
X-43370Y1780973D02*
Y1820343D01*
X-79197Y1782548D02*
Y1818768D01*
X-7543D01*
Y1782548D02*
Y1818768D01*
X-79197Y1782548D02*
X-7543D01*
X190908Y1665328D02*
X214530D01*
X202719Y1653517D02*
Y1677139D01*
X232246Y1604304D02*
Y1726351D01*
X173191Y1604304D02*
Y1726351D01*
X232246D01*
X173191Y1604304D02*
X232246D01*
X54578Y1647235D02*
Y1670857D01*
X42767Y1659046D02*
X66389D01*
X-6445Y1688573D02*
X115602D01*
X-6445Y1629518D02*
X115602D01*
X-6445D02*
Y1688573D01*
X115602Y1629518D02*
Y1688573D01*
X116802Y2266655D02*
X156172D01*
X136487Y2246970D02*
Y2286340D01*
X100660Y2248544D02*
Y2284765D01*
X172313D01*
Y2248544D02*
Y2284765D01*
X100660Y2248544D02*
X172313D01*
X318512Y2342341D02*
X381504D01*
X318512Y2279349D02*
X381504D01*
X318512D02*
Y2342341D01*
X381504Y2279349D02*
Y2342341D01*
X87743Y2311085D02*
X127113D01*
X107428Y2291400D02*
Y2330770D01*
X71601Y2292974D02*
Y2329195D01*
X143255D01*
Y2292974D02*
Y2329195D01*
X71601Y2292974D02*
X143255D01*
X343149Y2177863D02*
X366771D01*
X354960Y2166052D02*
Y2189674D01*
X384488Y2116839D02*
Y2238887D01*
X325433Y2116839D02*
Y2238887D01*
X384488D01*
X325433Y2116839D02*
X384488D01*
X207873Y2160151D02*
Y2183773D01*
X196061Y2171961D02*
X219684D01*
X146849Y2201489D02*
X268896D01*
X146849Y2142434D02*
X268896D01*
X146849D02*
Y2201489D01*
X268896Y2142434D02*
Y2201489D01*
X834754Y-136514D02*
Y-112892D01*
X822943Y-124703D02*
X846565D01*
X773731Y-154231D02*
X895778D01*
X773731Y-95175D02*
X895778D01*
Y-154231D02*
Y-95175D01*
X773731Y-154231D02*
Y-95175D01*
X-160063Y2012245D02*
X-120693D01*
X-140378Y1992560D02*
Y2031930D01*
X-176205Y1994135D02*
Y2030355D01*
X-104551D01*
Y1994135D02*
Y2030355D01*
X-176205Y1994135D02*
X-104551D01*
X42173Y2079123D02*
X105165D01*
X42173Y2016131D02*
X105165D01*
X42173D02*
Y2079123D01*
X105165Y2016131D02*
Y2079123D01*
X-189403Y2056764D02*
X-150033D01*
X-169718Y2037079D02*
Y2076448D01*
X-205545Y2038653D02*
Y2074874D01*
X-133891D01*
Y2038653D02*
Y2074874D01*
X-205545Y2038653D02*
X-133891D01*
X66285Y1923454D02*
X89907D01*
X78096Y1911643D02*
Y1935265D01*
X107624Y1862430D02*
Y1984477D01*
X48568Y1862430D02*
Y1984477D01*
X107624D01*
X48568Y1862430D02*
X107624D01*
X-70044Y1905361D02*
Y1928983D01*
X-81856Y1917172D02*
X-58233D01*
X-131068Y1946700D02*
X-9021D01*
X-131068Y1887644D02*
X-9021D01*
X-131068D02*
Y1946700D01*
X-9021Y1887644D02*
Y1946700D01*
X1643139Y1395610D02*
Y1434980D01*
X1623454Y1415295D02*
X1662824D01*
X1603769Y1482224D02*
X1682509D01*
Y1348366D02*
Y1482224D01*
X1603769Y1348366D02*
X1682509D01*
X1603769D02*
Y1482224D01*
X1643139Y992602D02*
Y1031972D01*
X1623454Y1012287D02*
X1662824D01*
X1603769Y1079216D02*
X1682509D01*
Y945358D02*
Y1079216D01*
X1603769Y945358D02*
X1682509D01*
X1603769D02*
Y1079216D01*
X1643139Y589595D02*
Y628965D01*
X1623454Y609280D02*
X1662824D01*
X1603769Y676209D02*
X1682509D01*
Y542351D02*
Y676209D01*
X1603769Y542351D02*
X1682509D01*
X1603769D02*
Y676209D01*
X1643139Y1798618D02*
Y1837988D01*
X1623454Y1818303D02*
X1662824D01*
X1603769Y1885232D02*
X1682509D01*
Y1751373D02*
Y1885232D01*
X1603769Y1751373D02*
X1682509D01*
X1603769D02*
Y1885232D01*
X1685641Y1481781D02*
Y1517214D01*
X1650208Y1481781D02*
Y1517214D01*
X1685641D01*
X1650208Y1481781D02*
X1685641D01*
Y1078843D02*
Y1114277D01*
X1650208Y1078843D02*
Y1114277D01*
X1685641D01*
X1650208Y1078843D02*
X1685641D01*
Y675628D02*
Y711061D01*
X1650208Y675628D02*
Y711061D01*
X1685641D01*
X1650208Y675628D02*
X1685641D01*
Y1884851D02*
Y1920284D01*
X1650208Y1884851D02*
Y1920284D01*
X1685641D01*
X1650208Y1884851D02*
X1685641D01*
X1629859Y1523446D02*
Y1586438D01*
X1692851Y1523446D02*
Y1586438D01*
X1629859Y1523446D02*
X1692851D01*
X1629859Y1586438D02*
X1692851D01*
X1629859Y1120375D02*
Y1183367D01*
X1692851Y1120375D02*
Y1183367D01*
X1629859Y1120375D02*
X1692851D01*
X1629859Y1183367D02*
X1692851D01*
X1629859Y717409D02*
Y780402D01*
X1692851Y717409D02*
Y780402D01*
X1629859Y717409D02*
X1692851D01*
X1629859Y780402D02*
X1692851D01*
X1629859Y1926313D02*
Y1989306D01*
X1692851Y1926313D02*
Y1989306D01*
X1629859Y1926313D02*
X1692851D01*
X1629859Y1989306D02*
X1692851D01*
X2019167Y1420047D02*
X2054601D01*
X2019167Y1455480D02*
X2054601D01*
X2019167Y1420047D02*
Y1455480D01*
X2054601Y1420047D02*
Y1455480D01*
X2019167Y1017053D02*
X2054601D01*
X2019167Y1052486D02*
X2054601D01*
X2019167Y1017053D02*
Y1052486D01*
X2054601Y1017053D02*
Y1052486D01*
X2019167Y614218D02*
X2054601D01*
X2019167Y649651D02*
X2054601D01*
X2019167Y614218D02*
Y649651D01*
X2054601Y614218D02*
Y649651D01*
X2019167Y1823200D02*
X2054601D01*
X2019167Y1858633D02*
X2054601D01*
X2019167Y1823200D02*
Y1858633D01*
X2054601Y1823200D02*
Y1858633D01*
X1951464Y1521070D02*
Y1556503D01*
X1916031Y1521070D02*
Y1556503D01*
X1951464D01*
X1916031Y1521070D02*
X1951464D01*
Y1118430D02*
Y1153863D01*
X1916031Y1118430D02*
Y1153863D01*
X1951464D01*
X1916031Y1118430D02*
X1951464D01*
Y715297D02*
Y750730D01*
X1916031Y715297D02*
Y750730D01*
X1951464D01*
X1916031Y715297D02*
X1951464D01*
Y1924681D02*
Y1960114D01*
X1916031Y1924681D02*
Y1960114D01*
X1951464D01*
X1916031Y1924681D02*
X1951464D01*
X2013636Y1506214D02*
Y1569206D01*
X1950644Y1506214D02*
Y1569206D01*
X2013636D01*
X1950644Y1506214D02*
X2013636D01*
Y1103356D02*
Y1166348D01*
X1950644Y1103356D02*
Y1166348D01*
X2013636D01*
X1950644Y1103356D02*
X2013636D01*
Y700171D02*
Y763163D01*
X1950644Y700171D02*
Y763163D01*
X2013636D01*
X1950644Y700171D02*
X2013636D01*
Y1908969D02*
Y1971961D01*
X1950644Y1908969D02*
Y1971961D01*
X2013636D01*
X1950644Y1908969D02*
X2013636D01*
X1711403Y1921603D02*
Y1945225D01*
X1699592Y1933414D02*
X1723214D01*
X1650379Y1903886D02*
X1772426D01*
X1650379Y1962941D02*
X1772426D01*
X1650379Y1903886D02*
Y1962941D01*
X1772426Y1903886D02*
Y1962941D01*
X1711403Y713687D02*
Y737309D01*
X1699592Y725498D02*
X1723214D01*
X1650379Y695971D02*
X1772426D01*
X1650379Y755026D02*
X1772426D01*
X1650379Y695971D02*
Y755026D01*
X1772426Y695971D02*
Y755026D01*
X1711403Y1519662D02*
Y1543284D01*
X1699592Y1531473D02*
X1723214D01*
X1650379Y1501946D02*
X1772426D01*
X1650379Y1561001D02*
X1772426D01*
X1650379Y1501946D02*
Y1561001D01*
X1772426Y1501946D02*
Y1561001D01*
X1711403Y1116112D02*
Y1139735D01*
X1699592Y1127924D02*
X1723214D01*
X1650379Y1098396D02*
X1772426D01*
X1650379Y1157451D02*
X1772426D01*
X1650379Y1098396D02*
Y1157451D01*
X1772426Y1098396D02*
Y1157451D01*
X1482277Y1474799D02*
Y1510233D01*
X1517710Y1474799D02*
Y1510233D01*
X1482277Y1474799D02*
X1517710D01*
X1482277Y1510233D02*
X1517710D01*
X1481919Y1071815D02*
Y1107248D01*
X1517352Y1071815D02*
Y1107248D01*
X1481919Y1071815D02*
X1517352D01*
X1481919Y1107248D02*
X1517352D01*
X1482277Y668781D02*
Y704214D01*
X1517710Y668781D02*
Y704214D01*
X1482277Y668781D02*
X1517710D01*
X1482277Y704214D02*
X1517710D01*
X1482277Y1877765D02*
Y1913198D01*
X1517710Y1877765D02*
Y1913198D01*
X1482277Y1877765D02*
X1517710D01*
X1482277Y1913198D02*
X1517710D01*
X2047204Y1482940D02*
Y1518374D01*
X2082637Y1482940D02*
Y1518374D01*
X2047204D02*
X2082637D01*
X2047204Y1482940D02*
X2082637D01*
X2047204Y1078949D02*
Y1114383D01*
X2082637Y1078949D02*
Y1114383D01*
X2047204D02*
X2082637D01*
X2047204Y1078949D02*
X2082637D01*
X2047204Y677059D02*
Y712492D01*
X2082637Y677059D02*
Y712492D01*
X2047204D02*
X2082637D01*
X2047204Y677059D02*
X2082637D01*
X2047204Y1885646D02*
Y1921079D01*
X2082637Y1885646D02*
Y1921079D01*
X2047204D02*
X2082637D01*
X2047204Y1885646D02*
X2082637D01*
X2132530Y1434664D02*
Y1497656D01*
X2195522Y1434664D02*
Y1497656D01*
X2132530D02*
X2195522D01*
X2132530Y1434664D02*
X2195522D01*
X2132530Y1032304D02*
Y1095297D01*
X2195522Y1032304D02*
Y1095297D01*
X2132530D02*
X2195522D01*
X2132530Y1032304D02*
X2195522D01*
X2132506Y629046D02*
Y692038D01*
X2195498Y629046D02*
Y692038D01*
X2132506D02*
X2195498D01*
X2132506Y629046D02*
X2195498D01*
X2132530Y1838022D02*
Y1901014D01*
X2195522Y1838022D02*
Y1901014D01*
X2132530D02*
X2195522D01*
X2132530Y1838022D02*
X2195522D01*
X1409993Y897303D02*
Y920925D01*
X1398182Y909114D02*
X1421804D01*
X1348970Y938641D02*
X1471017D01*
X1348970Y879586D02*
X1471017D01*
X1348970D02*
Y938641D01*
X1471017Y879586D02*
Y938641D01*
X2147379Y379385D02*
Y403007D01*
X2135568Y391195D02*
X2159190D01*
X2086355Y420723D02*
X2208402D01*
X2086355Y361668D02*
X2208402D01*
X2086355D02*
Y420723D01*
X2208402Y361668D02*
Y420723D01*
X2116856Y1239615D02*
Y1263237D01*
X2105045Y1251426D02*
X2128667D01*
X2055832Y1280954D02*
X2177879D01*
X2055832Y1221899D02*
X2177879D01*
X2055832D02*
Y1280954D01*
X2177879Y1221899D02*
Y1280954D01*
X2211281Y1631536D02*
Y1655158D01*
X2199470Y1643347D02*
X2223092D01*
X2150257Y1672874D02*
X2272305D01*
X2150257Y1613819D02*
X2272305D01*
X2150257D02*
Y1672874D01*
X2272305Y1613819D02*
Y1672874D01*
X2151663Y1368299D02*
Y1403732D01*
X2187096Y1368299D02*
Y1403732D01*
X2151663Y1368299D02*
X2187096D01*
X2151663Y1403732D02*
X2187096D01*
X2151663Y964713D02*
Y1000146D01*
X2187096Y964713D02*
Y1000146D01*
X2151663Y964713D02*
X2187096D01*
X2151663Y1000146D02*
X2187096D01*
X2151663Y561388D02*
Y596821D01*
X2187096Y561388D02*
Y596821D01*
X2151663Y561388D02*
X2187096D01*
X2151663Y596821D02*
X2187096D01*
X2151663Y1770452D02*
Y1805885D01*
X2187096Y1770452D02*
Y1805885D01*
X2151663Y1770452D02*
X2187096D01*
X2151663Y1805885D02*
X2187096D01*
X2106575Y1464958D02*
Y1500391D01*
X2142008Y1464958D02*
Y1500391D01*
X2106575D02*
X2142008D01*
X2106575Y1464958D02*
X2142008D01*
X2106575Y1061972D02*
Y1097405D01*
X2142008Y1061972D02*
Y1097405D01*
X2106575D02*
X2142008D01*
X2106575Y1061972D02*
X2142008D01*
X2106551Y658523D02*
Y693956D01*
X2141985Y658523D02*
Y693956D01*
X2106551D02*
X2141985D01*
X2106551Y658523D02*
X2141985D01*
X2106576Y1867493D02*
Y1902926D01*
X2142009Y1867493D02*
Y1902926D01*
X2106576D02*
X2142009D01*
X2106576Y1867493D02*
X2142009D01*
X2116102Y1356253D02*
Y1419245D01*
X2053110Y1356253D02*
Y1419245D01*
Y1356253D02*
X2116102D01*
X2053110Y1419245D02*
X2116102D01*
X2115926Y952981D02*
Y1015973D01*
X2052934Y952981D02*
Y1015973D01*
Y952981D02*
X2115926D01*
X2052934Y1015973D02*
X2115926D01*
X2116102Y550172D02*
Y613164D01*
X2053110Y550172D02*
Y613164D01*
Y550172D02*
X2116102D01*
X2053110Y613164D02*
X2116102D01*
X2116036Y1758890D02*
Y1821882D01*
X2053044Y1758890D02*
Y1821882D01*
Y1758890D02*
X2116036D01*
X2053044Y1821882D02*
X2116036D01*
X1602497Y1575471D02*
Y1610904D01*
X1567063Y1575471D02*
Y1610904D01*
Y1575471D02*
X1602497D01*
X1567063Y1610904D02*
X1602497D01*
X1434646Y769159D02*
Y804592D01*
X1399213Y769159D02*
Y804592D01*
Y769159D02*
X1434646D01*
X1399213Y804592D02*
X1434646D01*
X1602496Y1172191D02*
Y1207624D01*
X1567063Y1172191D02*
Y1207624D01*
Y1172191D02*
X1602496D01*
X1567063Y1207624D02*
X1602496D01*
X1602497Y1978543D02*
Y2013976D01*
X1567063Y1978543D02*
Y2013976D01*
Y1978543D02*
X1602497D01*
X1567063Y2013976D02*
X1602497D01*
X1573880Y1516634D02*
Y1579626D01*
X1636872Y1516634D02*
Y1579626D01*
X1573880D02*
X1636872D01*
X1573880Y1516634D02*
X1636872D01*
X1363075Y717884D02*
Y780876D01*
X1426068Y717884D02*
Y780876D01*
X1363075D02*
X1426068D01*
X1363075Y717884D02*
X1426068D01*
X1573880Y1113292D02*
Y1176284D01*
X1636872Y1113292D02*
Y1176284D01*
X1573880D02*
X1636872D01*
X1573880Y1113292D02*
X1636872D01*
X1573880Y1919253D02*
Y1982245D01*
X1636872Y1919253D02*
Y1982245D01*
X1573880D02*
X1636872D01*
X1573880Y1919253D02*
X1636872D01*
X1434646Y1575514D02*
Y1610947D01*
X1399213Y1575514D02*
Y1610947D01*
Y1575514D02*
X1434646D01*
X1399213Y1610947D02*
X1434646D01*
X1602497Y769468D02*
Y804901D01*
X1567063Y769468D02*
Y804901D01*
Y769468D02*
X1602497D01*
X1567063Y804901D02*
X1602497D01*
X1434646Y1172626D02*
Y1208059D01*
X1399213Y1172626D02*
Y1208059D01*
Y1172626D02*
X1434646D01*
X1399213Y1208059D02*
X1434646D01*
X1434646Y1978500D02*
Y2013933D01*
X1399213Y1978500D02*
Y2013933D01*
Y1978500D02*
X1434646D01*
X1399213Y2013933D02*
X1434646D01*
X1363075Y1516227D02*
Y1579219D01*
X1426068Y1516227D02*
Y1579219D01*
X1363075D02*
X1426068D01*
X1363075Y1516227D02*
X1426068D01*
X1573880Y718187D02*
Y781179D01*
X1636872Y718187D02*
Y781179D01*
X1573880D02*
X1636872D01*
X1573880Y718187D02*
X1636872D01*
X1363075Y1113438D02*
Y1176430D01*
X1426067Y1113438D02*
Y1176430D01*
X1363075D02*
X1426067D01*
X1363075Y1113438D02*
X1426067D01*
X1363075Y1919257D02*
Y1982249D01*
X1426068Y1919257D02*
Y1982249D01*
X1363075D02*
X1426068D01*
X1363075Y1919257D02*
X1426068D01*
M02*
