G04*
G04 #@! TF.GenerationSoftware,Altium Limited,Altium Designer,24.2.2 (26)*
G04*
G04 Layer_Color=32896*
%FSLAX26Y26*%
%MOIN*%
G70*
G04*
G04 #@! TF.SameCoordinates,1490CFCF-B2EF-406E-B7EC-920D21FDAB99*
G04*
G04*
G04 #@! TF.FilePolarity,Positive*
G04*
G01*
G75*
%ADD15C,0.003937*%
%ADD170C,0.001968*%
D15*
X1064807Y522244D02*
G03*
X1064807Y522244I-30512J0D01*
G01*
Y900197D02*
G03*
X1064807Y900197I-30512J0D01*
G01*
Y1083268D02*
G03*
X1064807Y1083268I-30512J0D01*
G01*
Y1461220D02*
G03*
X1064807Y1461220I-30512J0D01*
G01*
X1034295Y522244D02*
X1053980D01*
X1034295D02*
Y541929D01*
X1014610Y522244D02*
X1034295D01*
Y502559D02*
Y522244D01*
Y900197D02*
X1053980D01*
X1034295D02*
Y919882D01*
X1014610Y900197D02*
X1034295D01*
Y880512D02*
Y900197D01*
X872878Y577362D02*
X892562D01*
X853192D02*
X872878D01*
Y557677D02*
Y880512D01*
Y608858D02*
X892562D01*
X853192D02*
X872878D01*
Y640354D02*
X892562D01*
X853192D02*
X872878D01*
Y671850D02*
X892562D01*
X853192D02*
X872878D01*
Y734842D02*
X892562D01*
X853192D02*
X872878D01*
Y703346D02*
X892562D01*
X853192D02*
X872878D01*
Y766339D02*
X892562D01*
X853192D02*
X872878D01*
Y797835D02*
X892562D01*
X853192D02*
X872878D01*
Y829331D02*
X892562D01*
X853192D02*
X872878D01*
Y860827D02*
X892562D01*
X853192D02*
X872878D01*
X1195712Y845079D02*
X1215397D01*
X1176027D02*
X1195712D01*
Y813583D02*
X1215397D01*
X1176027D02*
X1195712D01*
Y782087D02*
X1215397D01*
X1176027D02*
X1195712D01*
Y750591D02*
X1215397D01*
X1176027D02*
X1195712D01*
Y719095D02*
X1215397D01*
X1176027D02*
X1195712D01*
Y687598D02*
X1215397D01*
X1176027D02*
X1195712D01*
Y656102D02*
X1215397D01*
X1176027D02*
X1195712D01*
Y624606D02*
X1215397D01*
X1176027D02*
X1195712D01*
Y593110D02*
X1215397D01*
X1176027D02*
X1195712D01*
Y561614D02*
X1215397D01*
X1176027D02*
X1195712D01*
Y541929D02*
Y864764D01*
X1034295Y711024D02*
Y730709D01*
X1014610Y711024D02*
X1034295D01*
Y691338D02*
Y711024D01*
X1053980D01*
X1034295Y1083268D02*
X1053980D01*
X1034295D02*
Y1102953D01*
X1014610Y1083268D02*
X1034295D01*
Y1063582D02*
Y1083268D01*
Y1461220D02*
X1053980D01*
X1034295D02*
Y1480906D01*
X1014610Y1461220D02*
X1034295D01*
Y1441535D02*
Y1461220D01*
X872878Y1138386D02*
X892562D01*
X853192D02*
X872878D01*
Y1118701D02*
Y1441535D01*
Y1169882D02*
X892562D01*
X853192D02*
X872878D01*
Y1201378D02*
X892562D01*
X853192D02*
X872878D01*
Y1232874D02*
X892562D01*
X853192D02*
X872878D01*
Y1295866D02*
X892562D01*
X853192D02*
X872878D01*
Y1264370D02*
X892562D01*
X853192D02*
X872878D01*
Y1327362D02*
X892562D01*
X853192D02*
X872878D01*
Y1358858D02*
X892562D01*
X853192D02*
X872878D01*
Y1390354D02*
X892562D01*
X853192D02*
X872878D01*
Y1421850D02*
X892562D01*
X853192D02*
X872878D01*
X1195712Y1406102D02*
X1215397D01*
X1176027D02*
X1195712D01*
Y1374606D02*
X1215397D01*
X1176027D02*
X1195712D01*
Y1343110D02*
X1215397D01*
X1176027D02*
X1195712D01*
Y1311614D02*
X1215397D01*
X1176027D02*
X1195712D01*
Y1280118D02*
X1215397D01*
X1176027D02*
X1195712D01*
Y1248622D02*
X1215397D01*
X1176027D02*
X1195712D01*
Y1217126D02*
X1215397D01*
X1176027D02*
X1195712D01*
Y1185630D02*
X1215397D01*
X1176027D02*
X1195712D01*
Y1154134D02*
X1215397D01*
X1176027D02*
X1195712D01*
Y1122638D02*
X1215397D01*
X1176027D02*
X1195712D01*
Y1102953D02*
Y1425787D01*
X1034295Y1272047D02*
Y1291732D01*
X1014610Y1272047D02*
X1034295D01*
Y1252362D02*
Y1272047D01*
X1053980D01*
X1010521Y315250D02*
X1030206D01*
Y334935D01*
Y315250D02*
X1049891D01*
X1030206Y295564D02*
Y315250D01*
X1110521D02*
X1130206D01*
Y334935D01*
Y315250D02*
X1149891D01*
X1130206Y295564D02*
Y315250D01*
X446452Y-35113D02*
Y-15428D01*
X466137D01*
X446452D02*
Y4257D01*
X426767Y-15428D02*
X446452D01*
X346452Y-35113D02*
Y-15428D01*
X366137D01*
X346452D02*
Y4257D01*
X326767Y-15428D02*
X346452D01*
X546452Y-35113D02*
Y-15428D01*
X566137D01*
X546452D02*
Y4257D01*
X526767Y-15428D02*
X546452D01*
X246452Y-35113D02*
Y-15428D01*
X266137D01*
X246452D02*
Y4257D01*
X226766Y-15428D02*
X246452D01*
X386137Y1687254D02*
Y1706939D01*
X366452Y1687254D02*
X386137D01*
Y1667569D02*
Y1687254D01*
X405822D01*
X386137Y1808080D02*
X405822D01*
X386137Y1788394D02*
Y1808080D01*
X366452D02*
X386137D01*
Y1827765D01*
X286137Y1808080D02*
X305822D01*
X286137Y1788394D02*
Y1808080D01*
X266452D02*
X286137D01*
Y1827765D01*
X386137Y1928905D02*
X405822D01*
X386137Y1909220D02*
Y1928905D01*
X366452D02*
X386137D01*
Y1948590D01*
X286137Y1928905D02*
X305822D01*
X286137Y1909220D02*
Y1928905D01*
X266452D02*
X286137D01*
Y1948590D01*
X486137Y2049731D02*
X505822D01*
X486137Y2030046D02*
Y2049731D01*
X466452D02*
X486137D01*
Y2069416D01*
X286137Y2049731D02*
X305822D01*
X286137Y2030046D02*
Y2049731D01*
X266451D02*
X286137D01*
Y2069416D01*
X386137Y2049731D02*
X405822D01*
X386137Y2030046D02*
Y2049731D01*
X366452D02*
X386137D01*
Y2069416D01*
X893867Y295564D02*
Y315250D01*
X913552D01*
X893867D02*
Y334935D01*
X874182Y315250D02*
X893867D01*
X793867Y295564D02*
Y315250D01*
X813552D01*
X793867D02*
Y334935D01*
X774182Y315250D02*
X793867D01*
D170*
X599548Y133740D02*
G03*
X599548Y133740I-29528J0D01*
G01*
X613328D02*
G03*
X613328Y133740I-43307J0D01*
G01*
X599548Y343583D02*
G03*
X599548Y343583I-29528J0D01*
G01*
X613328D02*
G03*
X613328Y343583I-43307J0D01*
G01*
X389706D02*
G03*
X389706Y343583I-29528J0D01*
G01*
X403485D02*
G03*
X403485Y343583I-43307J0D01*
G01*
X389706Y133740D02*
G03*
X389706Y133740I-29528J0D01*
G01*
X403485D02*
G03*
X403485Y133740I-43307J0D01*
G01*
X499548Y238662D02*
G03*
X499548Y238662I-34449J0D01*
G01*
X116280Y133740D02*
G03*
X116280Y133740I-29528J0D01*
G01*
X130060D02*
G03*
X130060Y133740I-43307J0D01*
G01*
X116280Y343583D02*
G03*
X116280Y343583I-29528J0D01*
G01*
X130060D02*
G03*
X130060Y343583I-43307J0D01*
G01*
X-93562D02*
G03*
X-93562Y343583I-29528J0D01*
G01*
X-79783D02*
G03*
X-79783Y343583I-43307J0D01*
G01*
X-93562Y133740D02*
G03*
X-93562Y133740I-29528J0D01*
G01*
X-79783D02*
G03*
X-79783Y133740I-43307J0D01*
G01*
X16280Y238662D02*
G03*
X16280Y238662I-34449J0D01*
G01*
X1745458Y2229303D02*
G03*
X1745458Y2229303I-29528J0D01*
G01*
X1759237D02*
G03*
X1759237Y2229303I-43307J0D01*
G01*
X1745458Y2439145D02*
G03*
X1745458Y2439145I-29528J0D01*
G01*
X1759237D02*
G03*
X1759237Y2439145I-43307J0D01*
G01*
X1535615D02*
G03*
X1535615Y2439145I-29528J0D01*
G01*
X1549395D02*
G03*
X1549395Y2439145I-43307J0D01*
G01*
X1535615Y2229303D02*
G03*
X1535615Y2229303I-29528J0D01*
G01*
X1549395D02*
G03*
X1549395Y2229303I-43307J0D01*
G01*
X1645458Y2334224D02*
G03*
X1645458Y2334224I-34449J0D01*
G01*
X1262190Y2229303D02*
G03*
X1262190Y2229303I-29528J0D01*
G01*
X1275969D02*
G03*
X1275969Y2229303I-43307J0D01*
G01*
X1262190Y2439145D02*
G03*
X1262190Y2439145I-29528J0D01*
G01*
X1275969D02*
G03*
X1275969Y2439145I-43307J0D01*
G01*
X1052347D02*
G03*
X1052347Y2439145I-29528J0D01*
G01*
X1066127D02*
G03*
X1066127Y2439145I-43307J0D01*
G01*
X1052347Y2229303D02*
G03*
X1052347Y2229303I-29528J0D01*
G01*
X1066127D02*
G03*
X1066127Y2229303I-43307J0D01*
G01*
X1162190Y2334224D02*
G03*
X1162190Y2334224I-34449J0D01*
G01*
X778922Y2229303D02*
G03*
X778922Y2229303I-29528J0D01*
G01*
X792702D02*
G03*
X792702Y2229303I-43307J0D01*
G01*
X778922Y2439145D02*
G03*
X778922Y2439145I-29528J0D01*
G01*
X792702D02*
G03*
X792702Y2439145I-43307J0D01*
G01*
X569079D02*
G03*
X569079Y2439145I-29528J0D01*
G01*
X582859D02*
G03*
X582859Y2439145I-43307J0D01*
G01*
X569079Y2229303D02*
G03*
X569079Y2229303I-29528J0D01*
G01*
X582859D02*
G03*
X582859Y2229303I-43307J0D01*
G01*
X678922Y2334224D02*
G03*
X678922Y2334224I-34449J0D01*
G01*
X2228726Y2229303D02*
G03*
X2228726Y2229303I-29528J0D01*
G01*
X2242506D02*
G03*
X2242506Y2229303I-43307J0D01*
G01*
X2228726Y2439145D02*
G03*
X2228726Y2439145I-29528J0D01*
G01*
X2242506D02*
G03*
X2242506Y2439145I-43307J0D01*
G01*
X2018883D02*
G03*
X2018883Y2439145I-29528J0D01*
G01*
X2032663D02*
G03*
X2032663Y2439145I-43307J0D01*
G01*
X2018883Y2229303D02*
G03*
X2018883Y2229303I-29528J0D01*
G01*
X2032663D02*
G03*
X2032663Y2229303I-43307J0D01*
G01*
X2128726Y2334224D02*
G03*
X2128726Y2334224I-34449J0D01*
G01*
X1080204Y315250D02*
X1099889D01*
X1080204Y295565D02*
Y315250D01*
Y334935D01*
X1060519Y315250D02*
X1080204D01*
X396452Y-15428D02*
X416137D01*
X396452Y-35113D02*
Y-15428D01*
Y4257D01*
X376767Y-15428D02*
X396452D01*
X316454Y1808080D02*
X336139D01*
Y1827764D01*
Y1788395D02*
Y1808080D01*
X355824D01*
X316454Y1928905D02*
X336139D01*
Y1948590D01*
Y1909220D02*
Y1928905D01*
X355824D01*
X610076Y1827965D02*
X661257D01*
X610076D02*
Y1869304D01*
X661257D01*
Y1827965D02*
Y1869304D01*
X635666Y1848635D02*
X655351D01*
X615981D02*
X635666D01*
Y1828950D02*
Y1848635D01*
Y1868320D01*
X610076Y1796469D02*
X661257D01*
X610076Y1755131D02*
Y1796469D01*
Y1755131D02*
X661257D01*
Y1796469D01*
X635666Y1775800D02*
X655351D01*
X615981D02*
X635666D01*
Y1795485D01*
Y1756115D02*
Y1775800D01*
X519524Y1827965D02*
X570706D01*
Y1869304D01*
X519524D02*
X570706D01*
X519524Y1827965D02*
Y1869304D01*
X525430Y1848635D02*
X545115D01*
X564800D01*
X545115Y1828950D02*
Y1848635D01*
Y1868320D01*
X519524Y1796469D02*
X570706D01*
Y1755131D02*
Y1796469D01*
X519524Y1755131D02*
X570706D01*
X519524D02*
Y1796469D01*
X525430Y1775800D02*
X545115D01*
X564800D01*
X545115D02*
Y1795485D01*
Y1756115D02*
Y1775800D01*
X570705Y1812217D02*
X590390D01*
X610076D01*
X590390D02*
Y1831902D01*
Y1792532D02*
Y1812217D01*
X445414Y238662D02*
X465099D01*
Y258347D01*
Y218977D02*
Y238662D01*
X484784D01*
X562146Y133740D02*
X570021D01*
Y125867D02*
Y133740D01*
X577895D01*
X570021D02*
Y141615D01*
X562146Y343583D02*
X570021D01*
Y335709D02*
Y343583D01*
X577895D01*
X570021D02*
Y351457D01*
X352304Y343583D02*
X360178D01*
Y335709D02*
Y343583D01*
X368052D01*
X360178D02*
Y351457D01*
X352304Y133740D02*
X360178D01*
Y125867D02*
Y133740D01*
X368052D01*
X360178D02*
Y141615D01*
X-37854Y238662D02*
X-18169D01*
Y258347D01*
Y218977D02*
Y238662D01*
X1516D01*
X78879Y133740D02*
X86753D01*
Y125867D02*
Y133740D01*
X94627D01*
X86753D02*
Y141615D01*
X78879Y343583D02*
X86753D01*
Y335709D02*
Y343583D01*
X94627D01*
X86753D02*
Y351457D01*
X-130964Y343583D02*
X-123090D01*
Y335709D02*
Y343583D01*
X-115216D01*
X-123090D02*
Y351457D01*
X-130964Y133740D02*
X-123090D01*
Y125867D02*
Y133740D01*
X-115216D01*
X-123090D02*
Y141615D01*
X1591324Y2334224D02*
X1611009D01*
Y2353909D01*
Y2314539D02*
Y2334224D01*
X1630694D01*
X1708056Y2229303D02*
X1715930D01*
Y2221429D02*
Y2229303D01*
X1723804D01*
X1715930D02*
Y2237177D01*
X1708056Y2439145D02*
X1715930D01*
Y2431271D02*
Y2439145D01*
X1723804D01*
X1715930D02*
Y2447019D01*
X1498214Y2439145D02*
X1506088D01*
Y2431271D02*
Y2439145D01*
X1513962D01*
X1506088D02*
Y2447019D01*
X1498214Y2229303D02*
X1506088D01*
Y2221429D02*
Y2229303D01*
X1513962D01*
X1506088D02*
Y2237177D01*
X1108056Y2334224D02*
X1127741D01*
Y2353909D01*
Y2314539D02*
Y2334224D01*
X1147426D01*
X1224788Y2229303D02*
X1232662D01*
Y2221429D02*
Y2229303D01*
X1240536D01*
X1232662D02*
Y2237177D01*
X1224788Y2439145D02*
X1232662D01*
Y2431271D02*
Y2439145D01*
X1240536D01*
X1232662D02*
Y2447019D01*
X1014946Y2439145D02*
X1022820D01*
Y2431271D02*
Y2439145D01*
X1030694D01*
X1022820D02*
Y2447019D01*
X1014946Y2229303D02*
X1022820D01*
Y2221429D02*
Y2229303D01*
X1030694D01*
X1022820D02*
Y2237177D01*
X624788Y2334224D02*
X644473D01*
Y2353909D01*
Y2314539D02*
Y2334224D01*
X664158D01*
X741520Y2229303D02*
X749394D01*
Y2221429D02*
Y2229303D01*
X757268D01*
X749394D02*
Y2237177D01*
X741520Y2439145D02*
X749394D01*
Y2431271D02*
Y2439145D01*
X757268D01*
X749394D02*
Y2447019D01*
X531678Y2439145D02*
X539552D01*
Y2431271D02*
Y2439145D01*
X547426D01*
X539552D02*
Y2447019D01*
X531678Y2229303D02*
X539552D01*
Y2221429D02*
Y2229303D01*
X547426D01*
X539552D02*
Y2237177D01*
X2074592Y2334224D02*
X2094277D01*
Y2353909D01*
Y2314539D02*
Y2334224D01*
X2113962D01*
X2191324Y2229303D02*
X2199198D01*
Y2221429D02*
Y2229303D01*
X2207072D01*
X2199198D02*
Y2237177D01*
X2191324Y2439145D02*
X2199198D01*
Y2431271D02*
Y2439145D01*
X2207072D01*
X2199198D02*
Y2447019D01*
X1981482Y2439145D02*
X1989356D01*
Y2431271D02*
Y2439145D01*
X1997230D01*
X1989356D02*
Y2447019D01*
X1981482Y2229303D02*
X1989356D01*
Y2221429D02*
Y2229303D01*
X1997230D01*
X1989356D02*
Y2237177D01*
X824180Y315250D02*
X843865D01*
Y334935D01*
Y295565D02*
Y315250D01*
X863550D01*
M02*
