G04*
G04 #@! TF.GenerationSoftware,Altium Limited,Altium Designer,24.2.2 (26)*
G04*
G04 Layer_Physical_Order=11*
G04 Layer_Color=128*
%FSLAX26Y26*%
%MOIN*%
G70*
G04*
G04 #@! TF.SameCoordinates,1490CFCF-B2EF-406E-B7EC-920D21FDAB99*
G04*
G04*
G04 #@! TF.FilePolarity,Negative*
G04*
G01*
G75*
%ADD13C,0.010000*%
%ADD90C,0.015937*%
%ADD128C,0.000100*%
G04:AMPARAMS|DCode=130|XSize=95.339mil|YSize=95.339mil|CornerRadius=0mil|HoleSize=0mil|Usage=FLASHONLY|Rotation=0.000|XOffset=0mil|YOffset=0mil|HoleType=Round|Shape=Relief|Width=12mil|Gap=7mil|Entries=4|*
%AMTHD130*
7,0,0,0.095339,0.081339,0.012000,45*
%
%ADD130THD130*%
G04:AMPARAMS|DCode=131|XSize=83.528mil|YSize=83.528mil|CornerRadius=0mil|HoleSize=0mil|Usage=FLASHONLY|Rotation=0.000|XOffset=0mil|YOffset=0mil|HoleType=Round|Shape=Relief|Width=12mil|Gap=7mil|Entries=4|*
%AMTHD131*
7,0,0,0.083528,0.069528,0.012000,45*
%
%ADD131THD131*%
G04:AMPARAMS|DCode=132|XSize=91.402mil|YSize=91.402mil|CornerRadius=0mil|HoleSize=0mil|Usage=FLASHONLY|Rotation=0.000|XOffset=0mil|YOffset=0mil|HoleType=Round|Shape=Relief|Width=12mil|Gap=7mil|Entries=4|*
%AMTHD132*
7,0,0,0.091402,0.077402,0.012000,45*
%
%ADD132THD132*%
%ADD133C,0.073024*%
G04:AMPARAMS|DCode=134|XSize=93.37mil|YSize=93.37mil|CornerRadius=0mil|HoleSize=0mil|Usage=FLASHONLY|Rotation=0.000|XOffset=0mil|YOffset=0mil|HoleType=Round|Shape=Relief|Width=12mil|Gap=7mil|Entries=4|*
%AMTHD134*
7,0,0,0.093370,0.079370,0.012000,45*
%
%ADD134THD134*%
%ADD135C,0.051370*%
%ADD136C,0.062000*%
G04:AMPARAMS|DCode=137|XSize=113.055mil|YSize=113.055mil|CornerRadius=0mil|HoleSize=0mil|Usage=FLASHONLY|Rotation=0.000|XOffset=0mil|YOffset=0mil|HoleType=Round|Shape=Relief|Width=12mil|Gap=7mil|Entries=4|*
%AMTHD137*
7,0,0,0.113055,0.099055,0.012000,45*
%
%ADD137THD137*%
G04:AMPARAMS|DCode=138|XSize=160.299mil|YSize=160.299mil|CornerRadius=0mil|HoleSize=0mil|Usage=FLASHONLY|Rotation=0.000|XOffset=0mil|YOffset=0mil|HoleType=Round|Shape=Relief|Width=12mil|Gap=7mil|Entries=4|*
%AMTHD138*
7,0,0,0.160299,0.146299,0.012000,45*
%
%ADD138THD138*%
%ADD139C,0.029716*%
%ADD140C,0.021843*%
%ADD141C,0.031000*%
G36*
X799442Y1857710D02*
X730573Y1926579D01*
X496998D01*
X459950Y1889531D01*
Y1729750D01*
X515799Y1673901D01*
X712598D01*
X799442Y1760745D01*
Y1857710D01*
D02*
G37*
D13*
X515799Y1673901D02*
X712598D01*
X730573Y1926579D02*
X799442Y1857710D01*
X712598Y1673901D02*
X799442Y1760745D01*
X459950Y1729750D02*
Y1889531D01*
Y1729750D02*
X515799Y1673901D01*
X459950Y1889531D02*
X496998Y1926579D01*
X730573D01*
X799442Y1760745D02*
Y1857710D01*
D90*
X1215199Y785992D02*
D03*
Y809677D02*
D03*
X2492028Y1817716D02*
D03*
Y1367716D02*
D03*
X2692028Y1817716D02*
D03*
X1473334Y2049938D02*
D03*
X2692028Y1867716D02*
D03*
X1487284Y2049938D02*
D03*
X2296227Y1930874D02*
D03*
X974717Y1581196D02*
D03*
X2296227Y1954559D02*
D03*
X998402Y1581196D02*
D03*
X2692028Y2067716D02*
D03*
X1514210Y1443543D02*
D03*
X2692028Y2017716D02*
D03*
X1485778Y1443543D02*
D03*
X1219376Y624606D02*
D03*
X1487284Y1243922D02*
D03*
X1473334D02*
D03*
X2642028Y1967716D02*
D03*
X2642028Y1917716D02*
D03*
X2492028Y1867716D02*
D03*
X1709406Y2071289D02*
D03*
Y2047604D02*
D03*
X1511753Y559692D02*
D03*
X1488068D02*
D03*
X1470466Y802707D02*
D03*
X1219376Y593110D02*
D03*
X1490151Y802707D02*
D03*
X1470108Y1068190D02*
D03*
X1529163D02*
D03*
X2792028Y1067716D02*
D03*
Y1017716D02*
D03*
Y2067911D02*
D03*
Y2017911D02*
D03*
X1215199Y1181724D02*
D03*
Y1158039D02*
D03*
X1468466Y1622416D02*
D03*
X1492151D02*
D03*
X1709406Y1668281D02*
D03*
Y1644596D02*
D03*
Y1265274D02*
D03*
Y1241589D02*
D03*
Y862266D02*
D03*
Y838581D02*
D03*
X1470466Y1874140D02*
D03*
X1219376Y1374606D02*
D03*
X1529522Y1874140D02*
D03*
X1219376Y1343110D02*
D03*
D128*
X633858Y-106299D02*
G03*
X614173Y-86614I-19684J0D01*
G01*
X633858Y-196850D02*
G03*
X653543Y-216535I19685J0D01*
G01*
X2854331Y-216535D02*
G03*
X2874016Y-196850I0J19685D01*
G01*
X2874015Y2480315D02*
G03*
X2854331Y2500000I-19684J0D01*
G01*
X464567Y2500000D02*
G03*
X444882Y2480315I0J-19685D01*
G01*
X425197Y2397638D02*
G03*
X444881Y2417323I0J19684D01*
G01*
X39370Y2397638D02*
G03*
X19685Y2377953I0J-19685D01*
G01*
X-0Y2314961D02*
G03*
X19684Y2334645I1J19684D01*
G01*
X-208662Y2314960D02*
G03*
X-228346Y2295276I-0J-19685D01*
G01*
Y-66929D02*
G03*
X-208662Y-86614I19685J-0D01*
G01*
X-208662D02*
X578740Y-86614D01*
X614173D01*
X633858Y-196850D02*
Y-106299D01*
X653543Y-216535D02*
X2854331Y-216535D01*
X2874016Y2480315D02*
X2874016Y-196850D01*
X464567Y2500000D02*
X2854331Y2500000D01*
X444882Y2417323D02*
X444882Y2480315D01*
X409449Y2397638D02*
X425197Y2397638D01*
X314961Y2397638D02*
X409449Y2397638D01*
X39370Y2397638D02*
X314961Y2397638D01*
X19684Y2334645D02*
X19685Y2377953D01*
X-19685Y2314961D02*
X-0D01*
X-78740Y2314961D02*
X-19685Y2314961D01*
X-208662Y2314960D02*
X-78740Y2314961D01*
X-228346Y-66929D02*
Y2295276D01*
D130*
X-182240Y430709D02*
D03*
Y768307D02*
D03*
Y1329331D02*
D03*
X14610Y1552756D02*
D03*
X211460Y430709D02*
D03*
X408311Y654134D02*
D03*
Y866732D02*
D03*
Y1215157D02*
D03*
Y1329331D02*
D03*
Y1552756D02*
D03*
X605161Y430709D02*
D03*
X802011Y1552756D02*
D03*
X1195712D02*
D03*
D131*
X17760Y991732D02*
D03*
D132*
X408311D02*
D03*
X900437Y430709D02*
D03*
X1097287D02*
D03*
X802011Y991732D02*
D03*
X1195712D02*
D03*
X715397Y430709D02*
D03*
Y1552756D02*
D03*
X1278389Y522244D02*
D03*
Y711220D02*
D03*
Y1083268D02*
D03*
Y1272244D02*
D03*
D133*
X1034295Y522244D02*
D03*
Y900197D02*
D03*
Y1083268D02*
D03*
Y1461220D02*
D03*
D134*
X1130204Y315250D02*
D03*
X386139Y1687254D02*
D03*
X286139Y2049731D02*
D03*
X893865Y315250D02*
D03*
D135*
X1030204D02*
D03*
X546452Y-15428D02*
D03*
X246452D02*
D03*
X346452D02*
D03*
X446452D02*
D03*
X286139Y1808080D02*
D03*
X386139D02*
D03*
X286139Y1928905D02*
D03*
X386139D02*
D03*
X486139Y2049731D02*
D03*
X386139D02*
D03*
X793865Y315250D02*
D03*
D136*
X2567028Y2213189D02*
D03*
X2446950Y72244D02*
D03*
D137*
X570021Y133740D02*
D03*
Y343583D02*
D03*
X360178Y133740D02*
D03*
Y343583D02*
D03*
X86753Y133740D02*
D03*
Y343583D02*
D03*
X-123090Y133740D02*
D03*
Y343583D02*
D03*
X1715930Y2229303D02*
D03*
Y2439145D02*
D03*
X1506088Y2229303D02*
D03*
Y2439145D02*
D03*
X1232662Y2229303D02*
D03*
Y2439145D02*
D03*
X1022820Y2229303D02*
D03*
Y2439145D02*
D03*
X749394Y2229303D02*
D03*
Y2439145D02*
D03*
X539552Y2229303D02*
D03*
Y2439145D02*
D03*
X2199198Y2229303D02*
D03*
Y2439145D02*
D03*
X1989356Y2229303D02*
D03*
Y2439145D02*
D03*
D138*
X-597Y-1D02*
D03*
X-597Y2226419D02*
D03*
X2489194Y-98397D02*
D03*
X2489273Y2381862D02*
D03*
D139*
X1800928Y-9420D02*
D03*
Y14265D02*
D03*
X2096675Y947058D02*
D03*
X2072537D02*
D03*
X2096675Y1350066D02*
D03*
X2072537D02*
D03*
X1178205Y1765010D02*
D03*
Y1741325D02*
D03*
Y1705955D02*
D03*
Y1682270D02*
D03*
Y1843750D02*
D03*
X2072537Y1753073D02*
D03*
X1178205Y1820065D02*
D03*
X2096675Y1753073D02*
D03*
X2072537Y544051D02*
D03*
X2096675D02*
D03*
X235349Y285906D02*
D03*
X211582D02*
D03*
X1033772Y1561511D02*
D03*
X1057457D02*
D03*
D140*
X388536Y2210700D02*
D03*
X412158D02*
D03*
X435780D02*
D03*
X388536Y2257944D02*
D03*
X412158D02*
D03*
X435780Y2234322D02*
D03*
X412158D02*
D03*
X388536D02*
D03*
X435780Y2257944D02*
D03*
X137211Y2191350D02*
D03*
X113589D02*
D03*
X89967D02*
D03*
X137211Y2144106D02*
D03*
X113589D02*
D03*
X89967Y2167728D02*
D03*
X113589D02*
D03*
X137211D02*
D03*
X89967Y2144106D02*
D03*
X229700Y2324422D02*
D03*
X76575Y2282010D02*
D03*
X305147Y2316733D02*
D03*
X1863149Y249415D02*
D03*
X1852844Y271374D02*
D03*
X499524Y1751859D02*
D03*
Y1775480D02*
D03*
Y1799102D02*
D03*
Y1822725D02*
D03*
Y1846347D02*
D03*
Y1869968D02*
D03*
X567243Y1716540D02*
D03*
X590865D02*
D03*
X614487D02*
D03*
X638109D02*
D03*
X713752Y1855072D02*
D03*
X696715Y1872109D02*
D03*
X514323Y1889147D02*
D03*
X537945D02*
D03*
X561567D02*
D03*
X585189D02*
D03*
X608811D02*
D03*
X632433D02*
D03*
X656055D02*
D03*
X716472Y1713176D02*
D03*
X1769189Y530426D02*
D03*
X1386220Y900097D02*
D03*
X1370774Y918131D02*
D03*
X1381430Y1980493D02*
D03*
X1405888Y1980515D02*
D03*
X1594100Y1980819D02*
D03*
X1618558Y1980796D02*
D03*
X1381430Y1577485D02*
D03*
X1405888Y1577507D02*
D03*
X1594100Y1577811D02*
D03*
X1618558Y1577788D02*
D03*
X1381430Y1174477D02*
D03*
X1405888Y1174500D02*
D03*
X1594100Y1174803D02*
D03*
X1618558Y1174781D02*
D03*
Y771773D02*
D03*
X1594100Y771796D02*
D03*
X1405888Y771492D02*
D03*
X2160153Y1914127D02*
D03*
X2146082Y1892916D02*
D03*
X2170412Y1892153D02*
D03*
X2160153Y1511120D02*
D03*
X2146082Y1489908D02*
D03*
X2170412Y1489146D02*
D03*
X2160153Y1108112D02*
D03*
X2146082Y1086901D02*
D03*
X2170412Y1086138D02*
D03*
Y683130D02*
D03*
X2146082Y683893D02*
D03*
X1904023Y554612D02*
D03*
X1903098Y956821D02*
D03*
X1878627Y956555D02*
D03*
Y1359796D02*
D03*
X1903098Y1360062D02*
D03*
X1994995Y766203D02*
D03*
X1647444Y708051D02*
D03*
X1994995Y1169210D02*
D03*
X1647444Y1111058D02*
D03*
X1769189Y933433D02*
D03*
X1994917Y452856D02*
D03*
X1769189Y1336441D02*
D03*
Y1739664D02*
D03*
X1647444Y1514066D02*
D03*
X1994995Y1572218D02*
D03*
Y1975288D02*
D03*
X1903098Y1763134D02*
D03*
X1878627Y1762868D02*
D03*
X1647444Y1917136D02*
D03*
X1661355Y1936845D02*
D03*
X1096161Y719094D02*
D03*
X1119783D02*
D03*
X1143405D02*
D03*
X1096161Y742716D02*
D03*
X1119783D02*
D03*
Y663976D02*
D03*
X1096161D02*
D03*
X1143405Y687598D02*
D03*
X1119783D02*
D03*
X1096161D02*
D03*
Y1248622D02*
D03*
X1119783D02*
D03*
X1143405D02*
D03*
X1096161Y1225000D02*
D03*
X1119783D02*
D03*
Y1303740D02*
D03*
X1096161D02*
D03*
X1143405Y1280118D02*
D03*
X1119783D02*
D03*
X282140Y868159D02*
D03*
X305762D02*
D03*
X329384Y844537D02*
D03*
Y820915D02*
D03*
X305762Y844537D02*
D03*
Y820915D02*
D03*
X258518D02*
D03*
Y844537D02*
D03*
X282140Y820915D02*
D03*
Y844537D02*
D03*
X817005Y772041D02*
D03*
X793383D02*
D03*
Y748419D02*
D03*
X817005D02*
D03*
X793383Y724797D02*
D03*
X817005D02*
D03*
X817086Y682069D02*
D03*
X793464D02*
D03*
X817086Y658447D02*
D03*
X793464D02*
D03*
Y634825D02*
D03*
X817086D02*
D03*
X817097Y1195762D02*
D03*
X793475D02*
D03*
Y1219384D02*
D03*
X817097D02*
D03*
X793475Y1243006D02*
D03*
X817097D02*
D03*
X817016Y1285734D02*
D03*
X793394D02*
D03*
X817016Y1309356D02*
D03*
X793394D02*
D03*
Y1332978D02*
D03*
X817016D02*
D03*
X479093Y829605D02*
D03*
X502715D02*
D03*
X479093Y805983D02*
D03*
X502715D02*
D03*
X502906Y748182D02*
D03*
Y724560D02*
D03*
X479284Y748182D02*
D03*
Y724560D02*
D03*
X502715Y658188D02*
D03*
X479093D02*
D03*
X502715Y681810D02*
D03*
X479093D02*
D03*
X502906Y600386D02*
D03*
Y576764D02*
D03*
X479284Y600386D02*
D03*
Y576764D02*
D03*
Y1137788D02*
D03*
Y1161410D02*
D03*
X502906Y1137788D02*
D03*
Y1161410D02*
D03*
X479093Y1242833D02*
D03*
X502715D02*
D03*
X479093Y1219211D02*
D03*
X502715D02*
D03*
X479284Y1285584D02*
D03*
Y1309206D02*
D03*
X502906Y1285584D02*
D03*
Y1309206D02*
D03*
X502715Y1367007D02*
D03*
X479093D02*
D03*
X502715Y1390629D02*
D03*
X2187508Y1634330D02*
D03*
X2172062Y1652364D02*
D03*
X2123606Y382179D02*
D03*
X2108160Y400212D02*
D03*
X2077637Y1260443D02*
D03*
X2093082Y1242409D02*
D03*
X1117286Y2051005D02*
D03*
X1101840Y2069038D02*
D03*
X1421621Y1382472D02*
D03*
X1439654Y1397918D02*
D03*
X111672Y1956291D02*
D03*
X135294D02*
D03*
X158916D02*
D03*
X111672Y2003535D02*
D03*
X135294D02*
D03*
X158916Y1979913D02*
D03*
X135294D02*
D03*
X111672D02*
D03*
X158916Y2003535D02*
D03*
X-140706Y1936561D02*
D03*
X-164328D02*
D03*
X-187950D02*
D03*
X-140706Y1889317D02*
D03*
X-164328D02*
D03*
X-187950Y1912939D02*
D03*
X-164328D02*
D03*
X-140706D02*
D03*
X-187950Y1889317D02*
D03*
X236295Y1698165D02*
D03*
X259917D02*
D03*
X283539D02*
D03*
X236295Y1745409D02*
D03*
X259917D02*
D03*
X283539Y1721787D02*
D03*
X259917D02*
D03*
X236295D02*
D03*
X283539Y1745409D02*
D03*
X-16083Y1678435D02*
D03*
X-39705D02*
D03*
X-63327D02*
D03*
X-16083Y1631191D02*
D03*
X-39705D02*
D03*
X-63327Y1654813D02*
D03*
X-39705D02*
D03*
X-16083D02*
D03*
X-63327Y1631191D02*
D03*
X1369116Y2348039D02*
D03*
X1392738D02*
D03*
X1345494D02*
D03*
X-171230Y1015346D02*
D03*
Y968101D02*
D03*
X95968Y1120834D02*
D03*
X143212Y1097212D02*
D03*
X119590D02*
D03*
X95968D02*
D03*
X119590Y1120834D02*
D03*
X143212D02*
D03*
X95968Y1073590D02*
D03*
X119590D02*
D03*
X143212D02*
D03*
X894014Y191520D02*
D03*
X870392D02*
D03*
X917636D02*
D03*
X941258D02*
D03*
X964880D02*
D03*
X846770Y215143D02*
D03*
Y238764D02*
D03*
X894014D02*
D03*
X870392D02*
D03*
X917636D02*
D03*
X941258D02*
D03*
X964880Y215143D02*
D03*
X941258D02*
D03*
X917636D02*
D03*
X870392D02*
D03*
X894014D02*
D03*
X882317Y-172295D02*
D03*
X905939D02*
D03*
X949746Y-159399D02*
D03*
X926124D02*
D03*
X949746Y-112155D02*
D03*
X926124D02*
D03*
X949746Y-135777D02*
D03*
X926124D02*
D03*
Y-88533D02*
D03*
X949746D02*
D03*
X926124Y-64911D02*
D03*
X949746D02*
D03*
X902502D02*
D03*
Y-88533D02*
D03*
X949746Y-41289D02*
D03*
X926124D02*
D03*
X902502D02*
D03*
X739700Y-155144D02*
D03*
X744960Y-130946D02*
D03*
X1527781Y85642D02*
D03*
X1504159D02*
D03*
X1551403D02*
D03*
X1504159Y48020D02*
D03*
X1527781D02*
D03*
X1551403D02*
D03*
X1554218Y274705D02*
D03*
X1577840D02*
D03*
X1601462D02*
D03*
X1554218Y237083D02*
D03*
X1601462D02*
D03*
X1577840D02*
D03*
X1769189Y1715465D02*
D03*
Y1312457D02*
D03*
Y909450D02*
D03*
X709949Y1690170D02*
D03*
X1661355Y1131355D02*
D03*
Y728930D02*
D03*
Y1534905D02*
D03*
X2160153Y705104D02*
D03*
X1381430Y771470D02*
D03*
X1096161Y1280118D02*
D03*
X1215732Y90155D02*
D03*
Y63416D02*
D03*
X1325613Y-1462D02*
D03*
X1755707Y105420D02*
D03*
X1592844Y634254D02*
D03*
X1678753Y453776D02*
D03*
X2442028Y1817716D02*
D03*
Y1767716D02*
D03*
Y1517716D02*
D03*
Y1467716D02*
D03*
Y1217716D02*
D03*
Y1167716D02*
D03*
Y917716D02*
D03*
Y867716D02*
D03*
X-171230Y991723D02*
D03*
X1843555Y96391D02*
D03*
X1270750Y-52119D02*
D03*
X1731948Y159968D02*
D03*
X1852620Y148515D02*
D03*
X546496Y889412D02*
D03*
X1120740Y30592D02*
D03*
X1481815Y306743D02*
D03*
X2442028Y1917716D02*
D03*
Y1967716D02*
D03*
X2094449Y1957181D02*
D03*
X2131456D02*
D03*
X1340003Y-66307D02*
D03*
X1373278Y-29044D02*
D03*
X1397954Y-28795D02*
D03*
X153367Y1649903D02*
D03*
X28744Y1908029D02*
D03*
X2741499Y1118703D02*
D03*
Y1168703D02*
D03*
X2642028Y567716D02*
D03*
X2442028Y167716D02*
D03*
X2492028Y217716D02*
D03*
X2542028Y167716D02*
D03*
X2592028Y217716D02*
D03*
X1909124Y499619D02*
D03*
X1208988Y148702D02*
D03*
X924059Y1201378D02*
D03*
Y1295866D02*
D03*
Y1358858D02*
D03*
Y1264370D02*
D03*
Y1232874D02*
D03*
Y1169882D02*
D03*
Y640354D02*
D03*
Y734842D02*
D03*
Y797835D02*
D03*
Y703346D02*
D03*
Y671850D02*
D03*
Y608858D02*
D03*
Y734842D02*
D03*
Y1295866D02*
D03*
X1953810Y1870727D02*
D03*
X1382229Y230595D02*
D03*
X2003822Y-158274D02*
D03*
X2095960Y-154274D02*
D03*
X2003822Y147859D02*
D03*
X2095960Y151858D02*
D03*
Y690D02*
D03*
X2003822Y-3309D02*
D03*
X552759Y1549320D02*
D03*
X479033Y1512312D02*
D03*
Y1620189D02*
D03*
X555069Y1607000D02*
D03*
X553214Y1583388D02*
D03*
X555159Y1525502D02*
D03*
X343875Y1384733D02*
D03*
X295467Y1172619D02*
D03*
X127245Y1172622D02*
D03*
X302357Y1288304D02*
D03*
X134135Y1311901D02*
D03*
X720819Y62060D02*
D03*
X2298122Y-4216D02*
D03*
X1720587Y-90312D02*
D03*
X1419481Y1913408D02*
D03*
X2172145Y450333D02*
D03*
X2201552D02*
D03*
X2230959D02*
D03*
X2094449Y707031D02*
D03*
X2064921Y707200D02*
D03*
X2022748Y672755D02*
D03*
X2170249Y553060D02*
D03*
X2043425Y568066D02*
D03*
X2022748Y591370D02*
D03*
X2094449Y1110039D02*
D03*
X2064921Y1110208D02*
D03*
X2022748Y1075763D02*
D03*
X2170249Y956068D02*
D03*
X2043425Y971073D02*
D03*
X2022748Y994378D02*
D03*
X2094449Y1513046D02*
D03*
X2064921Y1513215D02*
D03*
X2022748Y1478770D02*
D03*
X2170249Y1359075D02*
D03*
X2043425Y1374081D02*
D03*
X2022748Y1397385D02*
D03*
X1081042Y1920485D02*
D03*
X1016082Y1658674D02*
D03*
X957027D02*
D03*
X858601Y1965761D02*
D03*
X1126485Y1940170D02*
D03*
X1013601Y1958905D02*
D03*
X1072121Y1961978D02*
D03*
X1069121Y1665456D02*
D03*
X1093705Y1664516D02*
D03*
X1081042Y1802375D02*
D03*
Y1723635D02*
D03*
X917656Y1965761D02*
D03*
X661379Y1644941D02*
D03*
X661731Y1716540D02*
D03*
X549203Y1735131D02*
D03*
X516939D02*
D03*
X679677Y1889147D02*
D03*
X1419481Y704385D02*
D03*
X1776856Y198296D02*
D03*
X1688266Y221181D02*
D03*
X2492028Y1217716D02*
D03*
Y1267716D02*
D03*
X1631836Y878597D02*
D03*
X1678753Y391827D02*
D03*
X1631836Y1281605D02*
D03*
Y1684613D02*
D03*
X1077783Y611088D02*
D03*
X1965756Y79208D02*
D03*
X2003986Y20376D02*
D03*
X2029329Y79208D02*
D03*
X1998648D02*
D03*
X1967966Y-75757D02*
D03*
X2003986Y-134589D02*
D03*
X1998648Y-75757D02*
D03*
X2029329D02*
D03*
X1686114Y136794D02*
D03*
X1557004Y-3241D02*
D03*
X1392394Y-3463D02*
D03*
X1414879Y81606D02*
D03*
X1610122Y137914D02*
D03*
X1584091Y136900D02*
D03*
X1544312Y190754D02*
D03*
X1620705Y186454D02*
D03*
X1682675D02*
D03*
X1731280Y213222D02*
D03*
X1718552Y275779D02*
D03*
X2097038Y116483D02*
D03*
X2212166Y-77006D02*
D03*
X2070950Y90395D02*
D03*
X2175516Y-76590D02*
D03*
X2138866Y-76173D02*
D03*
X2102217Y-75757D02*
D03*
X2116778Y-25572D02*
D03*
X2153428Y-25988D02*
D03*
X2116932Y171543D02*
D03*
X2098343Y187292D02*
D03*
X2116932Y203040D02*
D03*
X2098343Y218788D02*
D03*
X2692028Y1067716D02*
D03*
Y1017716D02*
D03*
X2492028Y917716D02*
D03*
Y967716D02*
D03*
Y1067716D02*
D03*
Y1117716D02*
D03*
X2692028Y1217716D02*
D03*
Y1267716D02*
D03*
X2642028D02*
D03*
Y1317716D02*
D03*
X2692028Y1417716D02*
D03*
Y1467716D02*
D03*
X1499994Y662598D02*
D03*
X1500352Y1871555D02*
D03*
X1813125Y1767104D02*
D03*
X1832810Y1784014D02*
D03*
X1793440D02*
D03*
X1702625Y1821499D02*
D03*
X1953810Y1811106D02*
D03*
X2022748Y1800393D02*
D03*
X2043425Y1777088D02*
D03*
X2170249Y1762083D02*
D03*
X1972678Y1965774D02*
D03*
X2022748Y1881778D02*
D03*
X2064921Y1916223D02*
D03*
X2094449Y1916054D02*
D03*
X1858697Y2038946D02*
D03*
X1448339Y422179D02*
D03*
X1433382Y402408D02*
D03*
X1439633Y553300D02*
D03*
X1416218Y542943D02*
D03*
X1396463Y528539D02*
D03*
X1379824Y509950D02*
D03*
X1367373Y487998D02*
D03*
X1223013Y168387D02*
D03*
X1036621Y67271D02*
D03*
X1223013Y30592D02*
D03*
X1205052Y10907D02*
D03*
X1223013Y-8778D02*
D03*
X1205052Y-28463D02*
D03*
X1138701Y89647D02*
D03*
X1120740Y109332D02*
D03*
X1138701Y129017D02*
D03*
X1120740Y148702D02*
D03*
Y69962D02*
D03*
X1138701Y50277D02*
D03*
Y10907D02*
D03*
X1120740Y-8778D02*
D03*
X1499994Y1065605D02*
D03*
X1500352Y1468589D02*
D03*
X1845378Y371136D02*
D03*
X1864979Y473397D02*
D03*
X1993333Y476510D02*
D03*
X1966711Y464526D02*
D03*
X479093Y1390629D02*
D03*
X964880Y238764D02*
D03*
X-47164Y2070013D02*
D03*
X28283Y2062324D02*
D03*
X1972678Y756751D02*
D03*
X1858697Y829923D02*
D03*
X1769189Y506442D02*
D03*
X1832810Y574991D02*
D03*
X1702625Y612476D02*
D03*
X1879552Y554346D02*
D03*
X1793440Y574991D02*
D03*
X1953810Y602083D02*
D03*
X1813125Y558082D02*
D03*
X1953810Y661704D02*
D03*
X1972678Y1562766D02*
D03*
X1858697Y1635938D02*
D03*
X1832810Y1381006D02*
D03*
X1953810Y1408099D02*
D03*
Y1467719D02*
D03*
X1702625Y1418492D02*
D03*
X1813125Y1364097D02*
D03*
X1793440Y1381006D02*
D03*
X1972678Y1159758D02*
D03*
X1793440Y977999D02*
D03*
X1832810D02*
D03*
X1813125Y961089D02*
D03*
X1702625Y1015484D02*
D03*
X1858697Y1232931D02*
D03*
X1953810Y1064711D02*
D03*
Y1005091D02*
D03*
X960389Y-1324D02*
D03*
X2642028Y967716D02*
D03*
X2492028Y1717716D02*
D03*
Y1667716D02*
D03*
X1419482Y1107473D02*
D03*
X1269264Y415164D02*
D03*
X925906Y991191D02*
D03*
X1227967Y415326D02*
D03*
X1050526Y611691D02*
D03*
X302357Y727280D02*
D03*
X2442028Y1667716D02*
D03*
Y1617716D02*
D03*
X1419481Y1510400D02*
D03*
X2642028Y417716D02*
D03*
X774286Y1920485D02*
D03*
X604816Y1496880D02*
D03*
X744047Y1653753D02*
D03*
X799546Y1618969D02*
D03*
X774286Y1861430D02*
D03*
X2642028Y1717716D02*
D03*
Y1767716D02*
D03*
Y867716D02*
D03*
Y1017716D02*
D03*
X2692028Y467716D02*
D03*
Y617716D02*
D03*
Y667716D02*
D03*
X2642028Y1567716D02*
D03*
Y1617716D02*
D03*
X295467Y611596D02*
D03*
X134135Y750877D02*
D03*
X127245Y611599D02*
D03*
X152905Y1804198D02*
D03*
D141*
X2642028Y367716D02*
D03*
Y267716D02*
D03*
Y167716D02*
D03*
X2692028Y217716D02*
D03*
Y317716D02*
D03*
Y417716D02*
D03*
M02*
