G04*
G04 #@! TF.GenerationSoftware,Altium Limited,Altium Designer,24.2.2 (26)*
G04*
G04 Layer_Color=255*
%FSLAX26Y26*%
%MOIN*%
G70*
G04*
G04 #@! TF.SameCoordinates,1490CFCF-B2EF-406E-B7EC-920D21FDAB99*
G04*
G04*
G04 #@! TF.FilePolarity,Positive*
G04*
G01*
G75*
%ADD18R,0.010000X0.032000*%
%ADD19R,0.032000X0.010000*%
%ADD20R,0.031496X0.031496*%
%ADD23R,0.011811X0.010800*%
%ADD24R,0.015748X0.025591*%
%ADD25R,0.072835X0.039370*%
%ADD26R,0.039370X0.072835*%
%ADD27R,0.039370X0.035433*%
%ADD28R,0.022835X0.024409*%
%ADD29R,0.056102X0.011811*%
%ADD30R,0.024409X0.022835*%
%ADD31R,0.064961X0.021654*%
%ADD32R,0.026000X0.010000*%
%ADD33R,0.010000X0.026000*%
%ADD34R,0.023622X0.007874*%
%ADD35R,0.007874X0.023622*%
%ADD36R,0.015748X0.003937*%
%ADD37R,0.015748X0.007874*%
%ADD38R,0.003937X0.015748*%
%ADD39R,0.021654X0.009842*%
%ADD40R,0.021654X0.007874*%
%ADD41R,0.011811X0.023622*%
%ADD42C,0.012000*%
%ADD43R,0.029528X0.011811*%
%ADD44R,0.011811X0.029528*%
%ADD45R,0.072835X0.072835*%
%ADD46R,0.060039X0.025591*%
%ADD47R,0.028000X0.009000*%
%ADD48R,0.009842X0.027559*%
%ADD49C,0.017716*%
%ADD50R,0.027559X0.009842*%
%ADD51R,0.208661X0.208661*%
%ADD52R,0.011811X0.033465*%
%ADD53R,0.033465X0.011811*%
%ADD54R,0.051181X0.041339*%
%ADD55R,0.031496X0.011811*%
%ADD56R,0.068504X0.097638*%
%ADD57C,0.068898*%
%ADD58R,0.019685X0.005906*%
%ADD59R,0.005906X0.009842*%
%ADD60R,0.027559X0.019685*%
%ADD61R,0.019685X0.027559*%
%ADD62R,0.005906X0.019685*%
%ADD63R,0.009842X0.005906*%
%ADD64R,0.039370X0.035433*%
%ADD65R,0.035433X0.039370*%
%ADD66R,0.010800X0.011811*%
%ADD67R,0.037402X0.110236*%
%ADD68R,0.110236X0.037402*%
%ADD69R,0.004921X0.023622*%
%ADD70R,0.047244X0.011811*%
%ADD71R,0.011811X0.047244*%
%ADD72R,0.023622X0.004921*%
%ADD73R,0.039370X0.037402*%
%ADD74R,0.037402X0.039370*%
%ADD75R,0.024409X0.024409*%
%ADD76R,0.024409X0.024409*%
%ADD77R,0.025591X0.015748*%
%ADD78R,0.057087X0.043307*%
%ADD81R,0.144000X0.144000*%
%ADD84R,0.108000X0.108000*%
%ADD91R,0.062992X0.070866*%
%ADD95R,0.078740X0.078740*%
%ADD96C,0.058189*%
%ADD98C,0.066929*%
%ADD99R,0.066929X0.066929*%
%ADD100C,0.050000*%
%ADD101C,0.086614*%
%ADD102C,0.137795*%
%ADD103C,0.157480*%
%ADD114C,0.009390*%
%ADD115C,0.010098*%
%ADD116C,0.039370*%
%ADD125C,0.019685*%
D18*
X1872180Y785449D02*
D03*
X1852495D02*
D03*
X1832810D02*
D03*
X1813125D02*
D03*
X1793440D02*
D03*
X1773755D02*
D03*
X1754070D02*
D03*
X1734385D02*
D03*
Y596449D02*
D03*
X1754070D02*
D03*
X1773755D02*
D03*
X1793440D02*
D03*
X1813125D02*
D03*
X1832810D02*
D03*
X1852495D02*
D03*
X1872180D02*
D03*
Y1188456D02*
D03*
X1852495D02*
D03*
X1832810D02*
D03*
X1813125D02*
D03*
X1793440D02*
D03*
X1773755D02*
D03*
X1754070D02*
D03*
X1734385D02*
D03*
Y999456D02*
D03*
X1754070D02*
D03*
X1773755D02*
D03*
X1793440D02*
D03*
X1813125D02*
D03*
X1832810D02*
D03*
X1852495D02*
D03*
X1872180D02*
D03*
Y1591464D02*
D03*
X1852495D02*
D03*
X1832810D02*
D03*
X1813125D02*
D03*
X1793440D02*
D03*
X1773755D02*
D03*
X1754070D02*
D03*
X1734385D02*
D03*
Y1402464D02*
D03*
X1754070D02*
D03*
X1773755D02*
D03*
X1793440D02*
D03*
X1813125D02*
D03*
X1832810D02*
D03*
X1852495D02*
D03*
X1872180D02*
D03*
Y1994472D02*
D03*
X1852495D02*
D03*
X1832810D02*
D03*
X1813125D02*
D03*
X1793440D02*
D03*
X1773755D02*
D03*
X1754070D02*
D03*
X1734385D02*
D03*
Y1805472D02*
D03*
X1754070D02*
D03*
X1773755D02*
D03*
X1793440D02*
D03*
X1813125D02*
D03*
X1832810D02*
D03*
X1852495D02*
D03*
X1872180D02*
D03*
D19*
X1708783Y759846D02*
D03*
Y740161D02*
D03*
Y720476D02*
D03*
Y700791D02*
D03*
Y681106D02*
D03*
Y661421D02*
D03*
Y641736D02*
D03*
Y622051D02*
D03*
X1897783D02*
D03*
Y641736D02*
D03*
Y661421D02*
D03*
Y681106D02*
D03*
Y700791D02*
D03*
Y720476D02*
D03*
Y740161D02*
D03*
Y759846D02*
D03*
X1708783Y1162854D02*
D03*
Y1143169D02*
D03*
Y1123484D02*
D03*
Y1103799D02*
D03*
Y1084114D02*
D03*
Y1064429D02*
D03*
Y1044744D02*
D03*
Y1025059D02*
D03*
X1897783D02*
D03*
Y1044744D02*
D03*
Y1064429D02*
D03*
Y1084114D02*
D03*
Y1103799D02*
D03*
Y1123484D02*
D03*
Y1143169D02*
D03*
Y1162854D02*
D03*
X1708783Y1565861D02*
D03*
Y1546177D02*
D03*
Y1526492D02*
D03*
Y1506806D02*
D03*
Y1487121D02*
D03*
Y1467436D02*
D03*
Y1447751D02*
D03*
Y1428066D02*
D03*
X1897783D02*
D03*
Y1447751D02*
D03*
Y1467436D02*
D03*
Y1487121D02*
D03*
Y1506806D02*
D03*
Y1526492D02*
D03*
Y1546177D02*
D03*
Y1565861D02*
D03*
X1708783Y1968869D02*
D03*
Y1949184D02*
D03*
Y1929499D02*
D03*
Y1909814D02*
D03*
Y1890129D02*
D03*
Y1870444D02*
D03*
Y1850759D02*
D03*
Y1831074D02*
D03*
X1897783D02*
D03*
Y1850759D02*
D03*
Y1870444D02*
D03*
Y1890129D02*
D03*
Y1909814D02*
D03*
Y1929499D02*
D03*
Y1949184D02*
D03*
Y1968869D02*
D03*
D20*
X1496188Y1330378D02*
D03*
Y1395378D02*
D03*
X1496056Y927370D02*
D03*
Y992370D02*
D03*
X1633868Y425784D02*
D03*
Y490784D02*
D03*
X1496188Y1733529D02*
D03*
Y1798529D02*
D03*
X97127Y1231870D02*
D03*
Y1296870D02*
D03*
X265349Y1231870D02*
D03*
Y1296870D02*
D03*
X97127Y670846D02*
D03*
Y735846D02*
D03*
X265349Y670846D02*
D03*
Y735846D02*
D03*
D23*
X1628930Y91011D02*
D03*
X1650583D02*
D03*
X2077347Y1957181D02*
D03*
X2055694D02*
D03*
X2529341Y367393D02*
D03*
X2507688D02*
D03*
X2692786Y534046D02*
D03*
X2671133D02*
D03*
X1727226Y137385D02*
D03*
X1705573D02*
D03*
X1920488Y14659D02*
D03*
X1942141D02*
D03*
X778877Y2016230D02*
D03*
X800530D02*
D03*
X839900Y2058147D02*
D03*
X818247D02*
D03*
X862375Y796729D02*
D03*
X840722D02*
D03*
X862375Y837973D02*
D03*
X840722D02*
D03*
X863281Y609760D02*
D03*
X841627D02*
D03*
X862375Y573540D02*
D03*
X840722D02*
D03*
X862375Y1357753D02*
D03*
X840722D02*
D03*
X862375Y1398997D02*
D03*
X840722D02*
D03*
X862375Y1170784D02*
D03*
X840722D02*
D03*
X862375Y1134563D02*
D03*
X840722D02*
D03*
X1669756Y1598623D02*
D03*
X1691410D02*
D03*
X1669756Y1195616D02*
D03*
X1691410D02*
D03*
X1670248Y792116D02*
D03*
X1691902D02*
D03*
X1669756Y2001631D02*
D03*
X1691410D02*
D03*
X1948063Y1605371D02*
D03*
X1969716D02*
D03*
X1948063Y1202363D02*
D03*
X1969716D02*
D03*
X1948063Y799356D02*
D03*
X1969716D02*
D03*
X1948063Y2008378D02*
D03*
X1969716D02*
D03*
X1948063Y1582186D02*
D03*
X1969716D02*
D03*
X1948063Y1179179D02*
D03*
X1969716D02*
D03*
X1948063Y776171D02*
D03*
X1969716D02*
D03*
X1948063Y1985194D02*
D03*
X1969716D02*
D03*
X1742572Y-56960D02*
D03*
X1720918D02*
D03*
X1816089Y341146D02*
D03*
X1794436D02*
D03*
X1816089Y321461D02*
D03*
X1794436D02*
D03*
X2689999Y579105D02*
D03*
X2668346D02*
D03*
X2026636Y341146D02*
D03*
X2048289D02*
D03*
X2026636Y321461D02*
D03*
X2048289D02*
D03*
X1136866Y1684278D02*
D03*
X1158520D02*
D03*
X1136866Y1703947D02*
D03*
X1158520D02*
D03*
X1136866Y1743333D02*
D03*
X1158520D02*
D03*
X1136866Y1763002D02*
D03*
X1158520D02*
D03*
X1136866Y1822073D02*
D03*
X1158520D02*
D03*
X1136866Y1841742D02*
D03*
X1158520D02*
D03*
X457799Y629535D02*
D03*
X479452D02*
D03*
X457799Y777158D02*
D03*
X479452D02*
D03*
X457799Y1190472D02*
D03*
X479452D02*
D03*
X457799Y1338268D02*
D03*
X479452D02*
D03*
X1966483Y1430250D02*
D03*
X1988137D02*
D03*
X1966483Y1027243D02*
D03*
X1988137D02*
D03*
X1966483Y624235D02*
D03*
X1988137D02*
D03*
X1966483Y1833258D02*
D03*
X1988137D02*
D03*
X1966483Y1445568D02*
D03*
X1988137D02*
D03*
X1966483Y1042560D02*
D03*
X1988137D02*
D03*
X1966483Y639552D02*
D03*
X1988137D02*
D03*
X1966483Y1848575D02*
D03*
X1988137D02*
D03*
D24*
X24532Y2095469D02*
D03*
X57996D02*
D03*
X187046Y1085166D02*
D03*
X220510D02*
D03*
X187046Y1117760D02*
D03*
X220510D02*
D03*
X260640Y872507D02*
D03*
X227175D02*
D03*
X186500Y1837750D02*
D03*
X153035D02*
D03*
X730196Y-174102D02*
D03*
X696732D02*
D03*
X334256Y2349867D02*
D03*
X300791D02*
D03*
X842903Y165236D02*
D03*
X809438D02*
D03*
X842903Y131619D02*
D03*
X809438D02*
D03*
Y98002D02*
D03*
X842903D02*
D03*
X802559Y-75597D02*
D03*
X836024D02*
D03*
X2217752Y1420656D02*
D03*
X2251216D02*
D03*
X2217752Y1017648D02*
D03*
X2251216D02*
D03*
X2217752Y614640D02*
D03*
X2251216D02*
D03*
X2217752Y1823663D02*
D03*
X2251216D02*
D03*
X2217752Y1455162D02*
D03*
X2251216D02*
D03*
X2217752Y1052154D02*
D03*
X2251216D02*
D03*
X2217752Y649147D02*
D03*
X2251216D02*
D03*
X2217752Y1858170D02*
D03*
X2251216D02*
D03*
D25*
X696687Y991732D02*
D03*
X1575891Y848422D02*
D03*
Y1251430D02*
D03*
X1576022Y1654438D02*
D03*
X554046Y1467898D02*
D03*
X1187220Y652447D02*
D03*
Y551971D02*
D03*
Y451495D02*
D03*
Y752923D02*
D03*
X2692028Y317716D02*
D03*
Y217716D02*
D03*
X2553158Y267499D02*
D03*
X2212063Y-30532D02*
D03*
Y69944D02*
D03*
Y170420D02*
D03*
Y270896D02*
D03*
X1369116Y2348039D02*
D03*
X1577840Y237083D02*
D03*
X127555Y1084534D02*
D03*
D26*
X1564718Y691942D02*
D03*
X123555Y2003885D02*
D03*
X-171230Y991723D02*
D03*
D27*
X80936Y855974D02*
D03*
Y918966D02*
D03*
X137691Y855974D02*
D03*
Y918966D02*
D03*
X685872Y60462D02*
D03*
Y-2530D02*
D03*
D28*
X1852620Y148515D02*
D03*
X1815613D02*
D03*
X302357Y1331475D02*
D03*
X265349D02*
D03*
X258459Y1153048D02*
D03*
X295467D02*
D03*
X134135Y1331475D02*
D03*
X97127D02*
D03*
X90237Y1153048D02*
D03*
X127245D02*
D03*
X1596548Y178549D02*
D03*
X1559541D02*
D03*
X1557004Y-3241D02*
D03*
X1519996D02*
D03*
X-24846Y1834195D02*
D03*
X-61854D02*
D03*
X90237Y592024D02*
D03*
X127245D02*
D03*
X258459D02*
D03*
X295467D02*
D03*
X134135Y770452D02*
D03*
X97127D02*
D03*
X302357D02*
D03*
X265349D02*
D03*
X2131456Y1957181D02*
D03*
X2094449D02*
D03*
X125964Y2348120D02*
D03*
X88957D02*
D03*
X-151213Y2093711D02*
D03*
X-188220D02*
D03*
D29*
X1258963Y188072D02*
D03*
Y168387D02*
D03*
Y148702D02*
D03*
Y129017D02*
D03*
Y109332D02*
D03*
Y89647D02*
D03*
Y69962D02*
D03*
Y50277D02*
D03*
Y30592D02*
D03*
Y10907D02*
D03*
Y-8778D02*
D03*
Y-28463D02*
D03*
X1084790D02*
D03*
Y-8778D02*
D03*
Y10907D02*
D03*
Y30592D02*
D03*
Y50277D02*
D03*
Y69962D02*
D03*
Y89647D02*
D03*
Y109332D02*
D03*
Y129017D02*
D03*
Y148702D02*
D03*
Y168387D02*
D03*
Y188072D02*
D03*
D30*
X1628930Y37948D02*
D03*
Y941D02*
D03*
X257782Y1666904D02*
D03*
Y1629896D02*
D03*
X1392394Y-3463D02*
D03*
Y33544D02*
D03*
X624390Y1459872D02*
D03*
Y1496880D02*
D03*
X661379Y1644941D02*
D03*
Y1607933D02*
D03*
X498608Y1549320D02*
D03*
Y1512312D02*
D03*
Y1583181D02*
D03*
Y1620189D02*
D03*
X343474Y1510596D02*
D03*
Y1547604D02*
D03*
X153498Y2311209D02*
D03*
Y2348217D02*
D03*
X410024Y2179439D02*
D03*
Y2142432D02*
D03*
X-123275Y2056719D02*
D03*
Y2093727D02*
D03*
X133159Y1925030D02*
D03*
Y1888022D02*
D03*
X1541073Y1358399D02*
D03*
Y1395407D02*
D03*
X1540942Y955391D02*
D03*
Y992399D02*
D03*
X1678753Y453776D02*
D03*
Y490784D02*
D03*
X1541073Y1761406D02*
D03*
Y1798414D02*
D03*
D31*
X140399Y-48444D02*
D03*
Y57855D02*
D03*
D32*
X1992466Y321461D02*
D03*
Y341146D02*
D03*
Y360831D02*
D03*
Y380516D02*
D03*
Y400201D02*
D03*
Y419886D02*
D03*
X1845466D02*
D03*
Y400201D02*
D03*
Y380516D02*
D03*
Y360831D02*
D03*
Y341146D02*
D03*
Y321461D02*
D03*
D33*
X1968179Y444173D02*
D03*
X1948494D02*
D03*
X1928809D02*
D03*
X1909124D02*
D03*
X1889439D02*
D03*
X1869754D02*
D03*
Y297173D02*
D03*
X1889439D02*
D03*
X1909124D02*
D03*
X1928809D02*
D03*
X1948494D02*
D03*
X1968179D02*
D03*
D34*
X2078299Y-150337D02*
D03*
Y-134589D02*
D03*
Y-118841D02*
D03*
Y-103093D02*
D03*
Y-87345D02*
D03*
X2023180D02*
D03*
Y-103093D02*
D03*
Y-118841D02*
D03*
Y-134589D02*
D03*
Y-150337D02*
D03*
X2078299Y4628D02*
D03*
Y20376D02*
D03*
Y36124D02*
D03*
Y51872D02*
D03*
Y67620D02*
D03*
X2023180D02*
D03*
Y51872D02*
D03*
Y36124D02*
D03*
Y20376D02*
D03*
Y4628D02*
D03*
X2078299Y155795D02*
D03*
Y171543D02*
D03*
Y187292D02*
D03*
Y203040D02*
D03*
Y218788D02*
D03*
X2023180D02*
D03*
Y203040D02*
D03*
Y187292D02*
D03*
Y171543D02*
D03*
Y155795D02*
D03*
D35*
X2050740Y-87345D02*
D03*
Y-150337D02*
D03*
Y67620D02*
D03*
Y4628D02*
D03*
Y218788D02*
D03*
Y155795D02*
D03*
D36*
X1463339Y524336D02*
D03*
Y451400D02*
D03*
Y460021D02*
D03*
Y468641D02*
D03*
Y477262D02*
D03*
Y485883D02*
D03*
Y494504D02*
D03*
Y503125D02*
D03*
D37*
Y513730D02*
D03*
D38*
X1483111Y531774D02*
D03*
X1491731D02*
D03*
X1500352D02*
D03*
X1508973D02*
D03*
X1517594D02*
D03*
X1509621Y423507D02*
D03*
X1501001D02*
D03*
X1492380D02*
D03*
X1483759D02*
D03*
X1475138D02*
D03*
D39*
X1750015Y-27243D02*
D03*
Y31812D02*
D03*
X1696866D02*
D03*
Y-27243D02*
D03*
D40*
X1750015Y-7558D02*
D03*
Y12127D02*
D03*
X1696866D02*
D03*
Y-7558D02*
D03*
D41*
X1723440Y37718D02*
D03*
Y-33148D02*
D03*
D42*
X1770650Y254061D02*
D03*
Y234376D02*
D03*
X1750965Y254061D02*
D03*
Y234376D02*
D03*
X1731280Y254061D02*
D03*
Y234376D02*
D03*
X1711595Y254061D02*
D03*
Y234376D02*
D03*
D43*
X2025551Y661421D02*
D03*
Y641736D02*
D03*
Y622051D02*
D03*
Y602366D02*
D03*
X2143661D02*
D03*
Y622051D02*
D03*
Y641736D02*
D03*
Y661421D02*
D03*
X2025551Y1064429D02*
D03*
Y1044744D02*
D03*
Y1025059D02*
D03*
Y1005374D02*
D03*
X2143661D02*
D03*
Y1025059D02*
D03*
Y1044744D02*
D03*
Y1064429D02*
D03*
X2025551Y1870444D02*
D03*
Y1850759D02*
D03*
Y1831074D02*
D03*
Y1811389D02*
D03*
X2143661D02*
D03*
Y1831074D02*
D03*
Y1850759D02*
D03*
Y1870444D02*
D03*
X2025551Y1467436D02*
D03*
Y1447751D02*
D03*
Y1428066D02*
D03*
Y1408381D02*
D03*
X2143661D02*
D03*
Y1428066D02*
D03*
Y1447751D02*
D03*
Y1467436D02*
D03*
D44*
X2055079Y572838D02*
D03*
X2074764D02*
D03*
X2094449D02*
D03*
X2114134D02*
D03*
Y690949D02*
D03*
X2094449D02*
D03*
X2074764D02*
D03*
X2055079D02*
D03*
Y975846D02*
D03*
X2074764D02*
D03*
X2094449D02*
D03*
X2114134D02*
D03*
Y1093956D02*
D03*
X2094449D02*
D03*
X2074764D02*
D03*
X2055079D02*
D03*
Y1781861D02*
D03*
X2074764D02*
D03*
X2094449D02*
D03*
X2114134D02*
D03*
Y1899972D02*
D03*
X2094449D02*
D03*
X2074764D02*
D03*
X2055079D02*
D03*
Y1378854D02*
D03*
X2074764D02*
D03*
X2094449D02*
D03*
X2114134D02*
D03*
Y1496964D02*
D03*
X2094449D02*
D03*
X2074764D02*
D03*
X2055079D02*
D03*
D45*
X2084606Y631894D02*
D03*
Y1034901D02*
D03*
Y1840916D02*
D03*
Y1437909D02*
D03*
D46*
X2578845Y571560D02*
D03*
Y521560D02*
D03*
Y471560D02*
D03*
Y421560D02*
D03*
X2365301D02*
D03*
Y471560D02*
D03*
Y521560D02*
D03*
Y571560D02*
D03*
D47*
X834434Y-36204D02*
D03*
Y-16514D02*
D03*
Y3176D02*
D03*
X771434D02*
D03*
Y-16514D02*
D03*
Y-36204D02*
D03*
D48*
X272507Y908071D02*
D03*
X252821D02*
D03*
X233137D02*
D03*
X213451D02*
D03*
Y1051772D02*
D03*
X233137D02*
D03*
X252821D02*
D03*
X272507D02*
D03*
D49*
X188845Y915945D02*
D03*
Y1043898D02*
D03*
X297113D02*
D03*
Y915945D02*
D03*
D50*
X180971Y940551D02*
D03*
Y960236D02*
D03*
Y979921D02*
D03*
Y999606D02*
D03*
Y1019291D02*
D03*
X304987D02*
D03*
Y999606D02*
D03*
Y979921D02*
D03*
Y960236D02*
D03*
Y940551D02*
D03*
D51*
X927499Y1812217D02*
D03*
D52*
X779861Y1987414D02*
D03*
X799546D02*
D03*
X819231D02*
D03*
X838916D02*
D03*
X858601D02*
D03*
X878286D02*
D03*
X897971D02*
D03*
X917656D02*
D03*
X937341D02*
D03*
X957027D02*
D03*
X976712D02*
D03*
X996396D02*
D03*
X1016082D02*
D03*
X1035767D02*
D03*
X1055452D02*
D03*
X1075137D02*
D03*
Y1637020D02*
D03*
X1055452D02*
D03*
X1035767D02*
D03*
X1016082D02*
D03*
X996396D02*
D03*
X976712D02*
D03*
X957027D02*
D03*
X937341D02*
D03*
X917656D02*
D03*
X897971D02*
D03*
X878286D02*
D03*
X858601D02*
D03*
X838916D02*
D03*
X819231D02*
D03*
X799546D02*
D03*
X779861D02*
D03*
D53*
X1102696Y1959855D02*
D03*
Y1940170D02*
D03*
Y1920485D02*
D03*
Y1900800D02*
D03*
Y1881115D02*
D03*
Y1861430D02*
D03*
Y1841745D02*
D03*
Y1822060D02*
D03*
Y1802375D02*
D03*
Y1782690D02*
D03*
Y1763005D02*
D03*
Y1743320D02*
D03*
Y1723635D02*
D03*
Y1703950D02*
D03*
Y1684264D02*
D03*
Y1664580D02*
D03*
X752302D02*
D03*
Y1684264D02*
D03*
Y1703950D02*
D03*
Y1723635D02*
D03*
Y1743320D02*
D03*
Y1763005D02*
D03*
Y1782690D02*
D03*
Y1802375D02*
D03*
Y1822060D02*
D03*
Y1841745D02*
D03*
Y1861430D02*
D03*
Y1881115D02*
D03*
Y1900800D02*
D03*
Y1920485D02*
D03*
Y1940170D02*
D03*
Y1959855D02*
D03*
D54*
X635666Y1775800D02*
D03*
X545115D02*
D03*
Y1848635D02*
D03*
X635666D02*
D03*
D55*
X152905Y1709855D02*
D03*
Y1729540D02*
D03*
Y1749225D02*
D03*
Y1768910D02*
D03*
Y1788595D02*
D03*
X38732D02*
D03*
Y1768910D02*
D03*
Y1749225D02*
D03*
Y1729540D02*
D03*
Y1709855D02*
D03*
X28283Y1967981D02*
D03*
Y1987666D02*
D03*
Y2007351D02*
D03*
Y2027036D02*
D03*
Y2046721D02*
D03*
X-85891D02*
D03*
Y2027036D02*
D03*
Y2007351D02*
D03*
Y1987666D02*
D03*
Y1967981D02*
D03*
X305147Y2222390D02*
D03*
Y2242075D02*
D03*
Y2261760D02*
D03*
Y2281445D02*
D03*
Y2301131D02*
D03*
X190974D02*
D03*
Y2281445D02*
D03*
Y2261760D02*
D03*
Y2242075D02*
D03*
Y2222390D02*
D03*
D56*
X95819Y1749225D02*
D03*
X-28804Y2007351D02*
D03*
X248060Y2261760D02*
D03*
D57*
X465099Y238662D02*
D03*
X-18169D02*
D03*
X1611009Y2334224D02*
D03*
X1127741D02*
D03*
X644473D02*
D03*
X2094277D02*
D03*
D58*
X97127Y1202621D02*
D03*
X265349D02*
D03*
X97127Y641597D02*
D03*
X265349D02*
D03*
X662247Y1475620D02*
D03*
X1568501Y1304714D02*
D03*
Y1318494D02*
D03*
Y1332273D02*
D03*
X1540942D02*
D03*
Y1318494D02*
D03*
Y1304714D02*
D03*
X1568501Y901706D02*
D03*
Y915486D02*
D03*
Y929265D02*
D03*
X1540942D02*
D03*
Y915486D02*
D03*
Y901706D02*
D03*
X1706312Y400091D02*
D03*
Y413870D02*
D03*
Y427650D02*
D03*
X1678753D02*
D03*
Y413870D02*
D03*
Y400091D02*
D03*
X1568501Y1707722D02*
D03*
Y1721501D02*
D03*
Y1735281D02*
D03*
X1540942D02*
D03*
Y1721501D02*
D03*
Y1707722D02*
D03*
D59*
X104017Y1186873D02*
D03*
X90237D02*
D03*
X272239D02*
D03*
X258459D02*
D03*
X104017Y625849D02*
D03*
X90237D02*
D03*
X272239D02*
D03*
X258459D02*
D03*
X669137Y1459872D02*
D03*
X655358D02*
D03*
D60*
X169401Y1888022D02*
D03*
X204834D02*
D03*
X446266Y2142432D02*
D03*
X481699D02*
D03*
X1483407Y-3443D02*
D03*
X1447974D02*
D03*
D61*
X304895Y1548045D02*
D03*
Y1583478D02*
D03*
D62*
Y1625736D02*
D03*
X1435092Y27006D02*
D03*
X1785163Y148476D02*
D03*
D63*
X289147Y1618846D02*
D03*
Y1632625D02*
D03*
X1419344Y20116D02*
D03*
Y33896D02*
D03*
X1769415Y141586D02*
D03*
Y155365D02*
D03*
D64*
X662247Y1507018D02*
D03*
Y1570011D02*
D03*
D65*
X744960Y-130946D02*
D03*
X681968D02*
D03*
X546496Y930000D02*
D03*
X483504D02*
D03*
X681968Y-71863D02*
D03*
X744960D02*
D03*
D66*
X1909124Y465769D02*
D03*
Y487423D02*
D03*
X1055449Y1581196D02*
D03*
X1688266Y254937D02*
D03*
Y233283D02*
D03*
X1661764Y208108D02*
D03*
Y186454D02*
D03*
X1640207Y208108D02*
D03*
Y186454D02*
D03*
X1775065Y13249D02*
D03*
Y-8404D02*
D03*
X2620154Y597701D02*
D03*
Y576047D02*
D03*
X541989Y1547155D02*
D03*
Y1525502D02*
D03*
X542045Y1585346D02*
D03*
Y1607000D02*
D03*
X719250Y1939186D02*
D03*
Y1960839D02*
D03*
X3553Y1827922D02*
D03*
Y1806269D02*
D03*
X1941999Y1429752D02*
D03*
Y1408099D02*
D03*
Y1026745D02*
D03*
Y1005091D02*
D03*
Y623737D02*
D03*
Y602083D02*
D03*
Y1832760D02*
D03*
Y1811106D02*
D03*
Y1446065D02*
D03*
Y1467719D02*
D03*
Y1043058D02*
D03*
Y1064711D02*
D03*
Y640050D02*
D03*
Y661704D02*
D03*
Y1849073D02*
D03*
Y1870727D02*
D03*
X1686434Y124227D02*
D03*
Y102573D02*
D03*
X1750890Y159940D02*
D03*
Y138287D02*
D03*
X1035780Y1602850D02*
D03*
Y1581196D02*
D03*
X212638Y260315D02*
D03*
Y238662D02*
D03*
X234292Y260315D02*
D03*
Y238662D02*
D03*
X1302881Y-20557D02*
D03*
Y1096D02*
D03*
X1055449Y1602850D02*
D03*
X976725D02*
D03*
Y1581196D02*
D03*
X996394Y1602850D02*
D03*
Y1581196D02*
D03*
X757003Y2067896D02*
D03*
Y2089549D02*
D03*
X776672Y2067896D02*
D03*
Y2089549D02*
D03*
X1863470Y2312570D02*
D03*
Y2334224D02*
D03*
X878294Y2043238D02*
D03*
Y2021585D02*
D03*
X875280Y2312570D02*
D03*
Y2334224D02*
D03*
X1841816Y2312570D02*
D03*
Y2334224D02*
D03*
X897963Y2043238D02*
D03*
Y2021585D02*
D03*
X896934Y2312570D02*
D03*
Y2334224D02*
D03*
X996389Y2021585D02*
D03*
Y2043238D02*
D03*
X976720Y2021585D02*
D03*
Y2043238D02*
D03*
X747709Y588197D02*
D03*
Y609850D02*
D03*
Y818496D02*
D03*
Y796843D02*
D03*
Y1140275D02*
D03*
Y1161929D02*
D03*
Y1379410D02*
D03*
Y1357756D02*
D03*
X1832724Y1640072D02*
D03*
Y1618419D02*
D03*
X1832638Y1237151D02*
D03*
Y1215497D02*
D03*
X1832724Y834057D02*
D03*
Y812404D02*
D03*
X1832638Y2043166D02*
D03*
Y2021513D02*
D03*
D67*
X665798Y1338268D02*
D03*
X557530D02*
D03*
X665798Y1190472D02*
D03*
X557530D02*
D03*
X665798Y777158D02*
D03*
X557530D02*
D03*
X665798Y629622D02*
D03*
X557530D02*
D03*
D68*
X921019Y37182D02*
D03*
Y145450D02*
D03*
D69*
X1869723Y1369279D02*
D03*
X1859801D02*
D03*
X1869723Y966923D02*
D03*
X1859801D02*
D03*
X1869723Y564672D02*
D03*
X1859801D02*
D03*
X1869723Y1774679D02*
D03*
X1859801D02*
D03*
X1751529Y1367955D02*
D03*
X1741607D02*
D03*
X1751529Y966275D02*
D03*
X1741607D02*
D03*
X1751529Y564439D02*
D03*
X1741607D02*
D03*
X1751529Y1773290D02*
D03*
X1741607D02*
D03*
X1871403Y1627693D02*
D03*
X1881325D02*
D03*
X1871403Y1224685D02*
D03*
X1881325D02*
D03*
X1871403Y821678D02*
D03*
X1881325D02*
D03*
X1871403Y2032345D02*
D03*
X1881325D02*
D03*
X1973092Y476337D02*
D03*
X1983014D02*
D03*
X1871576Y264896D02*
D03*
X1881498D02*
D03*
X1871966Y472203D02*
D03*
X1881889D02*
D03*
D70*
X1890911Y1346589D02*
D03*
Y1326904D02*
D03*
Y943347D02*
D03*
Y923662D02*
D03*
Y540813D02*
D03*
Y521128D02*
D03*
Y1749660D02*
D03*
Y1729975D02*
D03*
X1850812Y243509D02*
D03*
Y223824D02*
D03*
X1661355Y1545100D02*
D03*
Y1564784D02*
D03*
Y1142029D02*
D03*
Y1161714D02*
D03*
Y739063D02*
D03*
Y758748D02*
D03*
Y1947967D02*
D03*
Y1967652D02*
D03*
X1982140Y1547552D02*
D03*
Y1527867D02*
D03*
Y1144694D02*
D03*
Y1125009D02*
D03*
Y741509D02*
D03*
Y721824D02*
D03*
Y1950307D02*
D03*
Y1930622D02*
D03*
D71*
X1755039Y1325033D02*
D03*
X1735354D02*
D03*
X1755039Y922369D02*
D03*
X1735354D02*
D03*
X1755039Y519059D02*
D03*
X1735354D02*
D03*
X1755039Y1728255D02*
D03*
X1735354D02*
D03*
X1864822Y1672102D02*
D03*
X1884507D02*
D03*
X1864822Y1268659D02*
D03*
X1884507D02*
D03*
X1864822Y865765D02*
D03*
X1884507D02*
D03*
X1864822Y2074590D02*
D03*
X1884507D02*
D03*
X188005Y1798501D02*
D03*
X207690D02*
D03*
X340166Y2310845D02*
D03*
X359851D02*
D03*
X63827Y2047627D02*
D03*
X83512D02*
D03*
D72*
X1420448Y450466D02*
D03*
Y460387D02*
D03*
X1667924Y1504458D02*
D03*
Y1494536D02*
D03*
Y1101521D02*
D03*
Y1091599D02*
D03*
Y698305D02*
D03*
Y688383D02*
D03*
Y1907528D02*
D03*
Y1897606D02*
D03*
X1933747Y1543747D02*
D03*
Y1533825D02*
D03*
Y1141108D02*
D03*
Y1131186D02*
D03*
Y737975D02*
D03*
Y728053D02*
D03*
Y1947358D02*
D03*
Y1937436D02*
D03*
X1499994Y1487555D02*
D03*
Y1497477D02*
D03*
X1499636Y1084571D02*
D03*
Y1094493D02*
D03*
X1499994Y681536D02*
D03*
Y691458D02*
D03*
X1499994Y1890521D02*
D03*
Y1900443D02*
D03*
X2169380Y1381054D02*
D03*
Y1390976D02*
D03*
Y977468D02*
D03*
Y987390D02*
D03*
Y574144D02*
D03*
Y584066D02*
D03*
Y1783207D02*
D03*
Y1793130D02*
D03*
D73*
X1430638Y1327203D02*
D03*
Y1390195D02*
D03*
X202719Y1633832D02*
D03*
Y1696824D02*
D03*
X354960Y2146367D02*
D03*
Y2209359D02*
D03*
X78096Y1891958D02*
D03*
Y1954950D02*
D03*
D74*
X1172556Y2060021D02*
D03*
X1109563D02*
D03*
X86075Y1659046D02*
D03*
X23082D02*
D03*
X239369Y2171961D02*
D03*
X176376D02*
D03*
X803258Y-124703D02*
D03*
X866250D02*
D03*
X-38548Y1917172D02*
D03*
X-101541D02*
D03*
X1441489Y909114D02*
D03*
X1378497D02*
D03*
X2178875Y391195D02*
D03*
X2115883D02*
D03*
X2148352Y1251426D02*
D03*
X2085360D02*
D03*
X2242777Y1643347D02*
D03*
X2179785D02*
D03*
D75*
X709949Y1654737D02*
D03*
Y1690170D02*
D03*
D76*
X-33471Y1754119D02*
D03*
X1962D02*
D03*
X-61087Y1800658D02*
D03*
X-25654D02*
D03*
X118770Y2266655D02*
D03*
X154203D02*
D03*
X89712Y2311085D02*
D03*
X125145D02*
D03*
X-158094Y2012245D02*
D03*
X-122661D02*
D03*
X-187434Y2056764D02*
D03*
X-152001D02*
D03*
D77*
X786712Y609850D02*
D03*
Y576385D02*
D03*
Y796843D02*
D03*
Y830307D02*
D03*
Y1170787D02*
D03*
Y1137322D02*
D03*
Y1357756D02*
D03*
Y1391221D02*
D03*
X728605Y6502D02*
D03*
Y39966D02*
D03*
D78*
X1643139Y1379862D02*
D03*
Y1450728D02*
D03*
Y976854D02*
D03*
Y1047720D02*
D03*
Y573847D02*
D03*
Y644713D02*
D03*
Y1782870D02*
D03*
Y1853736D02*
D03*
D81*
X1803283Y690949D02*
D03*
Y1093956D02*
D03*
Y1496964D02*
D03*
Y1899972D02*
D03*
D84*
X1918966Y370673D02*
D03*
D91*
X242979Y991732D02*
D03*
D95*
X-182240Y430709D02*
D03*
Y768307D02*
D03*
Y1329331D02*
D03*
X14610Y1552756D02*
D03*
X17760Y991732D02*
D03*
X211460Y430709D02*
D03*
X408311Y654134D02*
D03*
Y866732D02*
D03*
Y991732D02*
D03*
Y1215157D02*
D03*
Y1329331D02*
D03*
Y1552756D02*
D03*
X605161Y430709D02*
D03*
X900437D02*
D03*
X1097287D02*
D03*
X802011Y991732D02*
D03*
X1195712D02*
D03*
X802011Y1552756D02*
D03*
X1195712D02*
D03*
D96*
X715397Y430709D02*
D03*
Y1552756D02*
D03*
X1278389Y522244D02*
D03*
Y711220D02*
D03*
Y1083268D02*
D03*
Y1272244D02*
D03*
D98*
X1130204Y315250D02*
D03*
X546452Y-15428D02*
D03*
X346452D02*
D03*
X446452D02*
D03*
X386139Y1687254D02*
D03*
X286139Y1808080D02*
D03*
Y1928905D02*
D03*
X386139Y2049731D02*
D03*
X286139D02*
D03*
X893865Y315250D02*
D03*
D99*
X1030204D02*
D03*
X246452Y-15428D02*
D03*
X386139Y1808080D02*
D03*
Y1928905D02*
D03*
X486139Y2049731D02*
D03*
X793865Y315250D02*
D03*
D100*
X2567028Y2213189D02*
D03*
X2446950Y72244D02*
D03*
D101*
X570021Y133740D02*
D03*
Y343583D02*
D03*
X360178Y133740D02*
D03*
Y343583D02*
D03*
X86753Y133740D02*
D03*
Y343583D02*
D03*
X-123090Y133740D02*
D03*
Y343583D02*
D03*
X1715930Y2229303D02*
D03*
Y2439145D02*
D03*
X1506088Y2229303D02*
D03*
Y2439145D02*
D03*
X1232662Y2229303D02*
D03*
Y2439145D02*
D03*
X1022820Y2229303D02*
D03*
Y2439145D02*
D03*
X749394Y2229303D02*
D03*
Y2439145D02*
D03*
X539552Y2229303D02*
D03*
Y2439145D02*
D03*
X2199198Y2229303D02*
D03*
Y2439145D02*
D03*
X1989356Y2229303D02*
D03*
Y2439145D02*
D03*
D102*
X-597Y-1D02*
D03*
X-597Y2226419D02*
D03*
D103*
X2489194Y-98397D02*
D03*
X2489273Y2381862D02*
D03*
D114*
X1655561Y117699D02*
D03*
X1656041Y137384D02*
D03*
X1655561Y157069D02*
D03*
X1624853D02*
D03*
X1624372Y137384D02*
D03*
X1624853Y117699D02*
D03*
D115*
X1640207Y148014D02*
D03*
Y126754D02*
D03*
D116*
X-155901Y-1D02*
D03*
Y2226419D02*
D03*
X1034295Y991732D02*
D03*
X2644577Y2381862D02*
D03*
D125*
X1034295Y522244D02*
D03*
Y900197D02*
D03*
Y1083268D02*
D03*
Y1461220D02*
D03*
M02*
