G04*
G04 #@! TF.GenerationSoftware,Altium Limited,Altium Designer,24.2.2 (26)*
G04*
G04 Layer_Color=8388736*
%FSLAX26Y26*%
%MOIN*%
G70*
G04*
G04 #@! TF.SameCoordinates,1490CFCF-B2EF-406E-B7EC-920D21FDAB99*
G04*
G04*
G04 #@! TF.FilePolarity,Positive*
G04*
G01*
G75*
%ADD14C,0.011811*%
%ADD15C,0.003937*%
D14*
X1012487Y390053D02*
G03*
X1012487Y390053I-5906J0D01*
G01*
X232357Y54572D02*
G03*
X232357Y54572I-5906J0D01*
G01*
X415666Y1733276D02*
G03*
X415666Y1733276I-5906J0D01*
G01*
Y1854102D02*
G03*
X415666Y1854102I-5906J0D01*
G01*
X512044Y1979731D02*
G03*
X512044Y1979731I-5906J0D01*
G01*
X776149Y390053D02*
G03*
X776149Y390053I-5906J0D01*
G01*
D15*
X844137Y541024D02*
G03*
X844137Y541024I-4921J0D01*
G01*
Y1102047D02*
G03*
X844137Y1102047I-4921J0D01*
G01*
X529367Y1780721D02*
G03*
X545115Y1764973I15748J0D01*
G01*
Y1859461D02*
G03*
X529367Y1843713I0J-15748D01*
G01*
X651414D02*
G03*
X635666Y1859461I-15748J0D01*
G01*
Y1764973D02*
G03*
X651414Y1780721I0J15748D01*
G01*
X525430Y1855524D02*
G03*
X533304Y1863399I0J7874D01*
G01*
Y1761036D02*
G03*
X525430Y1768910I-7874J0D01*
G01*
X655351D02*
G03*
X647477Y1761036I0J-7874D01*
G01*
Y1863399D02*
G03*
X655351Y1855524I7874J0D01*
G01*
X442462Y238662D02*
G03*
X487737Y238662I22638J7228D01*
G01*
D02*
G03*
X442462Y238662I-22638J-7228D01*
G01*
X440493D02*
G03*
X489706Y238662I24606J7109D01*
G01*
D02*
G03*
X440493Y238662I-24606J-7109D01*
G01*
X490099D02*
G03*
X490099Y238662I-25000J0D01*
G01*
X545808D02*
G03*
X545808Y238662I-80709J0D01*
G01*
X556241D02*
G03*
X556241Y238662I-91142J0D01*
G01*
X565690D02*
G03*
X565690Y238662I-100591J0D01*
G01*
X570414D02*
G03*
X570414Y238662I-105315J0D01*
G01*
X573149D02*
G03*
X573149Y238662I-108050J0D01*
G01*
X590099D02*
G03*
X590099Y238662I-125000J0D01*
G01*
X-40806D02*
G03*
X4469Y238662I22638J7228D01*
G01*
D02*
G03*
X-40806Y238662I-22638J-7228D01*
G01*
X-42775D02*
G03*
X6438Y238662I24606J7109D01*
G01*
D02*
G03*
X-42775Y238662I-24606J-7109D01*
G01*
X6831D02*
G03*
X6831Y238662I-25000J0D01*
G01*
X62540D02*
G03*
X62540Y238662I-80709J0D01*
G01*
X72973D02*
G03*
X72973Y238662I-91142J0D01*
G01*
X82422D02*
G03*
X82422Y238662I-100591J0D01*
G01*
X87146D02*
G03*
X87146Y238662I-105315J0D01*
G01*
X89881D02*
G03*
X89881Y238662I-108050J0D01*
G01*
X106831D02*
G03*
X106831Y238662I-125000J0D01*
G01*
X1588371Y2334224D02*
G03*
X1633647Y2334224I22638J7228D01*
G01*
D02*
G03*
X1588371Y2334224I-22638J-7228D01*
G01*
X1586403D02*
G03*
X1635615Y2334224I24606J7109D01*
G01*
D02*
G03*
X1586403Y2334224I-24606J-7109D01*
G01*
X1636009D02*
G03*
X1636009Y2334224I-25000J0D01*
G01*
X1691718D02*
G03*
X1691718Y2334224I-80709J0D01*
G01*
X1702151D02*
G03*
X1702151Y2334224I-91142J0D01*
G01*
X1711600D02*
G03*
X1711600Y2334224I-100591J0D01*
G01*
X1716324D02*
G03*
X1716324Y2334224I-105315J0D01*
G01*
X1719059D02*
G03*
X1719059Y2334224I-108050J0D01*
G01*
X1736009D02*
G03*
X1736009Y2334224I-125000J0D01*
G01*
X1105103D02*
G03*
X1150379Y2334224I22638J7228D01*
G01*
D02*
G03*
X1105103Y2334224I-22638J-7228D01*
G01*
X1103135D02*
G03*
X1152347Y2334224I24606J7109D01*
G01*
D02*
G03*
X1103135Y2334224I-24606J-7109D01*
G01*
X1152741D02*
G03*
X1152741Y2334224I-25000J0D01*
G01*
X1208450D02*
G03*
X1208450Y2334224I-80709J0D01*
G01*
X1218883D02*
G03*
X1218883Y2334224I-91142J0D01*
G01*
X1228332D02*
G03*
X1228332Y2334224I-100591J0D01*
G01*
X1233056D02*
G03*
X1233056Y2334224I-105315J0D01*
G01*
X1235791D02*
G03*
X1235791Y2334224I-108050J0D01*
G01*
X1252741D02*
G03*
X1252741Y2334224I-125000J0D01*
G01*
X621835D02*
G03*
X667111Y2334224I22638J7228D01*
G01*
D02*
G03*
X621835Y2334224I-22638J-7228D01*
G01*
X619867D02*
G03*
X669079Y2334224I24606J7109D01*
G01*
D02*
G03*
X619867Y2334224I-24606J-7109D01*
G01*
X669473D02*
G03*
X669473Y2334224I-25000J0D01*
G01*
X725182D02*
G03*
X725182Y2334224I-80709J0D01*
G01*
X735615D02*
G03*
X735615Y2334224I-91142J0D01*
G01*
X745064D02*
G03*
X745064Y2334224I-100591J0D01*
G01*
X749788D02*
G03*
X749788Y2334224I-105315J0D01*
G01*
X752523D02*
G03*
X752523Y2334224I-108050J0D01*
G01*
X769473D02*
G03*
X769473Y2334224I-125000J0D01*
G01*
X2071639D02*
G03*
X2116915Y2334224I22638J7228D01*
G01*
D02*
G03*
X2071639Y2334224I-22638J-7228D01*
G01*
X2069671D02*
G03*
X2118883Y2334224I24606J7109D01*
G01*
D02*
G03*
X2069671Y2334224I-24606J-7109D01*
G01*
X2119277D02*
G03*
X2119277Y2334224I-25000J0D01*
G01*
X2174986D02*
G03*
X2174986Y2334224I-80709J0D01*
G01*
X2185419D02*
G03*
X2185419Y2334224I-91142J0D01*
G01*
X2194868D02*
G03*
X2194868Y2334224I-100591J0D01*
G01*
X2199592D02*
G03*
X2199592Y2334224I-105315J0D01*
G01*
X2202327D02*
G03*
X2202327Y2334224I-108050J0D01*
G01*
X2219277D02*
G03*
X2219277Y2334224I-125000J0D01*
G01*
X96881Y855974D02*
Y918966D01*
X64992D02*
X96881D01*
X64992Y855974D02*
Y918966D01*
Y855974D02*
X96881D01*
X1179964Y551772D02*
X1235082D01*
Y571457D01*
X1179964D02*
X1235082D01*
X1179964Y583268D02*
X1225240D01*
Y602953D01*
X1179964D02*
X1225240D01*
X1179964Y614764D02*
X1225240D01*
Y634449D01*
X1179964D02*
X1225240D01*
X1179964Y646260D02*
X1235082D01*
Y665945D01*
X1179964D02*
X1235082D01*
X1179964Y677756D02*
X1235082D01*
Y697441D01*
X1179964D02*
X1235082D01*
X1179964Y709252D02*
X1235082D01*
Y728937D01*
X1179964D02*
X1235082D01*
X1179964Y740748D02*
X1235082D01*
Y760433D01*
X1179964D02*
X1235082D01*
X1179964Y772244D02*
X1225240D01*
Y791929D01*
X1179964D02*
X1225240D01*
X1179964Y803740D02*
X1225240D01*
Y823425D01*
X1179964D02*
X1225240D01*
X833507Y567520D02*
X888625D01*
X833507Y587205D02*
X888625D01*
X833507Y567520D02*
Y587205D01*
Y599016D02*
X888625D01*
X833507Y618701D02*
X888625D01*
X833507Y599016D02*
Y618701D01*
Y630512D02*
X888625D01*
X833507Y650197D02*
X888625D01*
X833507Y630512D02*
Y650197D01*
Y662008D02*
X888625D01*
X833507Y681693D02*
X888625D01*
X833507Y662008D02*
Y681693D01*
Y693504D02*
X888625D01*
X833507Y713189D02*
X888625D01*
X833507Y693504D02*
Y713189D01*
Y725000D02*
X888625D01*
X833507Y744685D02*
X888625D01*
X833507Y725000D02*
Y744685D01*
Y756496D02*
X888625D01*
X833507Y776181D02*
X888625D01*
X833507Y756496D02*
Y776181D01*
Y787992D02*
X888625D01*
X833507Y807677D02*
X888625D01*
X833507Y787992D02*
Y807677D01*
Y819488D02*
X888625D01*
X833507Y839173D02*
X888625D01*
X833507Y819488D02*
Y839173D01*
X1179964Y835236D02*
X1235082D01*
Y854921D01*
X1179964D02*
X1235082D01*
X833507Y850984D02*
X888625D01*
X833507Y870669D02*
X888625D01*
X833507Y850984D02*
Y870669D01*
X907393Y534893D02*
Y887548D01*
X888625Y872638D02*
Y927756D01*
Y919882D02*
X916972Y896260D01*
Y888386D02*
Y896260D01*
Y526181D02*
Y534055D01*
X916777Y526181D02*
X916972D01*
X888625Y502559D02*
X916777Y526181D01*
X888625Y494685D02*
Y549803D01*
Y536535D02*
X916972Y534055D01*
X888625Y885906D02*
X916972Y888386D01*
Y534055D02*
Y888386D01*
X876814Y494685D02*
Y549803D01*
X888625D01*
Y872638D01*
X876814D02*
X888625D01*
X876814D02*
Y927756D01*
X1148468D01*
X1179964Y896260D01*
Y494685D02*
Y896260D01*
X876814Y494685D02*
X1179964D01*
Y1112795D02*
X1235082D01*
Y1132480D01*
X1179964D02*
X1235082D01*
X1179964Y1144291D02*
X1225240D01*
Y1163976D01*
X1179964D02*
X1225240D01*
X1179964Y1175787D02*
X1225240D01*
Y1195472D01*
X1179964D02*
X1225240D01*
X1179964Y1207283D02*
X1235082D01*
Y1226968D01*
X1179964D02*
X1235082D01*
X1179964Y1238780D02*
X1235082D01*
Y1258465D01*
X1179964D02*
X1235082D01*
X1179964Y1270276D02*
X1235082D01*
Y1289961D01*
X1179964D02*
X1235082D01*
X1179964Y1301772D02*
X1235082D01*
Y1321457D01*
X1179964D02*
X1235082D01*
X1179964Y1333268D02*
X1225240D01*
Y1352953D01*
X1179964D02*
X1225240D01*
X1179964Y1364764D02*
X1225240D01*
Y1384449D01*
X1179964D02*
X1225240D01*
X833507Y1128543D02*
X888625D01*
X833507Y1148228D02*
X888625D01*
X833507Y1128543D02*
Y1148228D01*
Y1160039D02*
X888625D01*
X833507Y1179724D02*
X888625D01*
X833507Y1160039D02*
Y1179724D01*
Y1191535D02*
X888625D01*
X833507Y1211220D02*
X888625D01*
X833507Y1191535D02*
Y1211220D01*
Y1223032D02*
X888625D01*
X833507Y1242716D02*
X888625D01*
X833507Y1223032D02*
Y1242716D01*
Y1254528D02*
X888625D01*
X833507Y1274213D02*
X888625D01*
X833507Y1254528D02*
Y1274213D01*
Y1286024D02*
X888625D01*
X833507Y1305709D02*
X888625D01*
X833507Y1286024D02*
Y1305709D01*
Y1317520D02*
X888625D01*
X833507Y1337205D02*
X888625D01*
X833507Y1317520D02*
Y1337205D01*
Y1349016D02*
X888625D01*
X833507Y1368701D02*
X888625D01*
X833507Y1349016D02*
Y1368701D01*
Y1380512D02*
X888625D01*
X833507Y1400197D02*
X888625D01*
X833507Y1380512D02*
Y1400197D01*
X1179964Y1396260D02*
X1235082D01*
Y1415945D01*
X1179964D02*
X1235082D01*
X833507Y1412008D02*
X888625D01*
X833507Y1431693D02*
X888625D01*
X833507Y1412008D02*
Y1431693D01*
X907393Y1095917D02*
Y1448572D01*
X888625Y1433661D02*
Y1488780D01*
Y1480906D02*
X916972Y1457284D01*
Y1449409D02*
Y1457284D01*
Y1087205D02*
Y1095079D01*
X916777Y1087205D02*
X916972D01*
X888625Y1063583D02*
X916777Y1087205D01*
X888625Y1055708D02*
Y1110827D01*
Y1097559D02*
X916972Y1095079D01*
X888625Y1446930D02*
X916972Y1449409D01*
Y1095079D02*
Y1449409D01*
X876814Y1055708D02*
Y1110827D01*
X888625D01*
Y1433661D01*
X876814D02*
X888625D01*
X876814D02*
Y1488780D01*
X1148468D01*
X1179964Y1457284D01*
Y1055708D02*
Y1457284D01*
X876814Y1055708D02*
X1179964D01*
X1814431Y138673D02*
Y158358D01*
X1853802D01*
Y138673D02*
Y158358D01*
X1814431Y138673D02*
X1853802D01*
X980206Y365250D02*
X1069847D01*
Y265250D02*
Y365250D01*
X980206Y265250D02*
X1069847D01*
X980206D02*
Y365250D01*
X1090565D02*
X1180206D01*
Y265250D02*
Y365250D01*
X1090565Y265250D02*
X1180206D01*
X1090565D02*
Y365250D01*
X1117706Y327748D02*
X1142708D01*
Y302748D02*
Y327748D01*
X1117708Y302748D02*
X1142708D01*
X1117708D02*
Y327748D01*
X1069847Y345250D02*
X1090565D01*
X1069847Y285250D02*
X1090565D01*
X1017708Y302748D02*
X1042708D01*
X1017706Y327748D02*
X1017708Y302748D01*
X1017706Y327748D02*
X1042703D01*
X1042706Y302751D01*
X1619087Y-240D02*
Y39130D01*
Y-240D02*
X1638772D01*
Y39130D01*
X1619087D02*
X1638772D01*
X1375509Y103704D02*
Y221814D01*
X1493619D01*
Y103704D02*
Y221814D01*
X1375509Y103704D02*
X1493619D01*
X1454249D02*
X1493619Y143074D01*
X1458186Y103704D02*
X1493619Y139137D01*
X1462123Y103704D02*
X1493619Y135200D01*
X1466060Y103704D02*
X1493619Y131262D01*
X1469997Y103704D02*
X1493619Y127326D01*
X1473934Y103704D02*
X1493619Y123388D01*
X1477871Y103704D02*
X1493619Y119451D01*
X1481808Y103704D02*
X1493619Y115514D01*
X1485745Y103704D02*
X1493619Y111578D01*
X1489682Y103704D02*
X1493619Y107641D01*
X406811Y-65428D02*
Y34572D01*
Y-65428D02*
X486093D01*
Y34572D01*
X406811D02*
X486093D01*
X306810D02*
X386093D01*
Y-65428D02*
Y34572D01*
X306810Y-65428D02*
X386093D01*
X306810D02*
Y34572D01*
X458949Y-2929D02*
X458952Y-27927D01*
X433952Y-2929D02*
X458949D01*
X433952D02*
X433954Y-27929D01*
X458954D01*
X358949Y-2929D02*
X358952Y-27927D01*
X333952Y-2929D02*
X358949D01*
X333952D02*
X333954Y-27929D01*
X358954D01*
X386093Y-45428D02*
X406811D01*
X386093Y14572D02*
X406811D01*
X486093Y-45428D02*
X506811D01*
X486093Y14572D02*
X506811D01*
X258949Y-2929D02*
X258952Y-27927D01*
X233952Y-2929D02*
X258949D01*
X233952D02*
X233954Y-27929D01*
X258954D01*
X286092Y-45428D02*
X306810D01*
X286092Y14572D02*
X306810D01*
X533954Y-27929D02*
Y-2929D01*
Y-27929D02*
X558954D01*
Y-2929D01*
X533952D02*
X558954D01*
X506811Y-65428D02*
Y34572D01*
Y-65428D02*
X596452D01*
Y34572D01*
X506811D02*
X596452D01*
X196452Y-65428D02*
Y34572D01*
Y-65428D02*
X286092D01*
Y34572D01*
X196452D02*
X286092D01*
X336137Y1657254D02*
Y1717254D01*
X373637Y1699753D02*
X373639Y1674755D01*
X398637D01*
X398634Y1699755D02*
X398637Y1674755D01*
X373634Y1699755D02*
X398634D01*
X336137Y1717254D02*
X346496D01*
X336137Y1657254D02*
X346496D01*
X436137Y1637254D02*
Y1737254D01*
X346496D02*
X436137D01*
X346496Y1637254D02*
X436137D01*
X346496D02*
Y1737254D01*
X346496Y1758080D02*
X436137D01*
X346496D02*
Y1858080D01*
X436137D01*
Y1758080D02*
Y1858080D01*
X236137Y1758080D02*
X325778D01*
X236137D02*
Y1858080D01*
X325778D01*
Y1758080D02*
Y1858080D01*
X273634Y1795581D02*
X298637D01*
X273634D02*
Y1820581D01*
X298634D01*
Y1795581D02*
Y1820581D01*
X325778Y1778080D02*
X346496D01*
X325778Y1838080D02*
X346496D01*
X373634Y1820581D02*
X398634D01*
X398637Y1795581D01*
X373639D02*
X398637D01*
X373637Y1820578D02*
X373639Y1795581D01*
X346496Y1878905D02*
X436137D01*
X346496D02*
Y1978905D01*
X436137D01*
Y1878905D02*
Y1978905D01*
X236137Y1878905D02*
X325778D01*
X236137D02*
Y1978905D01*
X325778D01*
Y1878905D02*
Y1978905D01*
X273634Y1916406D02*
X298637D01*
X273634D02*
Y1941406D01*
X298634D01*
Y1916406D02*
Y1941406D01*
X325778Y1898905D02*
X346496D01*
X325778Y1958905D02*
X346496D01*
X373634Y1941406D02*
X398634D01*
X398637Y1916406D01*
X373639D02*
X398637D01*
X373637Y1941404D02*
X373639Y1916406D01*
X446496Y1999731D02*
X536137D01*
X446496D02*
Y2099731D01*
X536137D01*
Y1999731D02*
Y2099731D01*
X236137Y1999731D02*
X325777D01*
X236137D02*
Y2099731D01*
X325777D01*
Y1999731D02*
Y2099731D01*
X273634Y2037232D02*
X298637D01*
X273634D02*
Y2062232D01*
X298634D01*
Y2037232D02*
Y2062232D01*
X425778Y2019731D02*
X446496D01*
X425778Y2079731D02*
X446496D01*
X473634Y2062232D02*
X498634D01*
X498637Y2037232D01*
X473639D02*
X498637D01*
X473637Y2062229D02*
X473639Y2037232D01*
X325777Y2019731D02*
X346495D01*
X325777Y2079731D02*
X346495D01*
X373634Y2062232D02*
X398634D01*
X398637Y2037232D01*
X373639D02*
X398637D01*
X373637Y2062229D02*
X373639Y2037232D01*
X425778Y1999731D02*
Y2099731D01*
X346495D02*
X425778D01*
X346495Y1999731D02*
Y2099731D01*
Y1999731D02*
X425778D01*
X545115Y1764973D02*
X635666D01*
X529367Y1780721D02*
Y1843713D01*
X651414Y1780721D02*
Y1843713D01*
X545115Y1859461D02*
X635666D01*
X533304Y1761036D02*
X647477D01*
X655351Y1768910D02*
Y1855524D01*
X533304Y1863398D02*
X647477D01*
X525430Y1768910D02*
Y1855524D01*
X340099Y113662D02*
Y363662D01*
X590099Y113662D02*
Y363662D01*
X340099D02*
X590099D01*
X340099Y113662D02*
X590099D01*
X-143169D02*
Y363662D01*
X106831Y113662D02*
Y363662D01*
X-143169D02*
X106831D01*
X-143169Y113662D02*
X106831D01*
X1486009Y2209224D02*
Y2459224D01*
X1736009Y2209224D02*
Y2459224D01*
X1486009D02*
X1736009D01*
X1486009Y2209224D02*
X1736009D01*
X1002741D02*
Y2459224D01*
X1252741Y2209224D02*
Y2459224D01*
X1002741D02*
X1252741D01*
X1002741Y2209224D02*
X1252741D01*
X519473D02*
Y2459224D01*
X769473Y2209224D02*
Y2459224D01*
X519473D02*
X769473D01*
X519473Y2209224D02*
X769473D01*
X1969277D02*
Y2459224D01*
X2219277Y2209224D02*
Y2459224D01*
X1969277D02*
X2219277D01*
X1969277Y2209224D02*
X2219277D01*
X1546619Y344932D02*
X1566304D01*
X1546619Y305562D02*
Y344932D01*
Y305562D02*
X1566304D01*
Y344932D01*
X1446104Y334712D02*
Y366602D01*
Y334712D02*
X1509096D01*
Y366602D01*
X1446104D02*
X1509096D01*
X153636Y855974D02*
Y918966D01*
X121746D02*
X153636D01*
X121746Y855974D02*
Y918966D01*
Y855974D02*
X153636D01*
X681968Y-115001D02*
X744960D01*
X681968Y-146891D02*
Y-115001D01*
Y-146891D02*
X744960D01*
Y-115001D01*
X669927Y-2530D02*
X701817D01*
X669927D02*
Y60462D01*
X701817D01*
Y-2530D02*
Y60462D01*
X483504Y914055D02*
Y945945D01*
X546496D01*
Y914055D02*
Y945945D01*
X483504Y914055D02*
X546496D01*
X247940Y1628715D02*
Y1668085D01*
Y1628715D02*
X267625D01*
Y1668085D01*
X247940D02*
X267625D01*
X264168Y1321633D02*
Y1341318D01*
X303538D01*
Y1321633D02*
Y1341318D01*
X264168Y1321633D02*
X303538D01*
X296648Y1143205D02*
Y1162890D01*
X257278Y1143205D02*
X296648D01*
X257278D02*
Y1162890D01*
X296648D01*
X95946Y1321633D02*
Y1341318D01*
X135316D01*
Y1321633D02*
Y1341318D01*
X95946Y1321633D02*
X135316D01*
X128426Y1143205D02*
Y1162890D01*
X89056Y1143205D02*
X128426D01*
X89056D02*
Y1162890D01*
X128426D01*
X806365Y327748D02*
X806367Y302751D01*
X781367Y327748D02*
X806365D01*
X781367D02*
X781370Y302748D01*
X806370D01*
X833508Y285250D02*
X854226D01*
X833508Y345250D02*
X854226D01*
X881370Y302748D02*
Y327748D01*
Y302748D02*
X906370D01*
Y327748D01*
X881367D02*
X906370D01*
X854226Y265250D02*
Y365250D01*
Y265250D02*
X943867D01*
Y365250D01*
X854226D02*
X943867D01*
X743867Y265250D02*
Y365250D01*
Y265250D02*
X833508D01*
Y365250D01*
X743867D02*
X833508D01*
X1558359Y168707D02*
Y188392D01*
X1597729D01*
Y168707D02*
Y188392D01*
X1558359Y168707D02*
X1597729D01*
X1382551Y34726D02*
X1402236D01*
Y-4644D02*
Y34726D01*
X1382551Y-4644D02*
X1402236D01*
X1382551D02*
Y34726D01*
X1499253Y307925D02*
X1518938D01*
X1499253Y268555D02*
Y307925D01*
Y268555D02*
X1518938D01*
Y307925D01*
X614548Y1498061D02*
X634233D01*
Y1458691D02*
Y1498061D01*
X614548Y1458691D02*
X634233D01*
X614548D02*
Y1498061D01*
X651536Y1606752D02*
X671221D01*
X651536D02*
Y1646122D01*
X671221D01*
Y1606752D02*
Y1646122D01*
X488765Y1511131D02*
X508450D01*
X488765D02*
Y1550501D01*
X508450D01*
Y1511131D02*
Y1550501D01*
X488765Y1621370D02*
X508450D01*
Y1582000D02*
Y1621370D01*
X488765Y1582000D02*
X508450D01*
X488765D02*
Y1621370D01*
X1403461Y282926D02*
X1427083D01*
X1403461D02*
Y294737D01*
X1427083D01*
Y282926D02*
Y294737D01*
X1518815Y-13084D02*
Y6601D01*
X1558185D01*
Y-13084D02*
Y6601D01*
X1518815Y-13084D02*
X1558185D01*
X1344165Y141892D02*
X1363850D01*
X1344165Y102522D02*
Y141892D01*
Y102522D02*
X1363850D01*
Y141892D01*
X-63035Y1824352D02*
Y1844037D01*
X-23665D01*
Y1824352D02*
Y1844037D01*
X-63035Y1824352D02*
X-23665D01*
X128426Y582182D02*
Y601867D01*
X89056Y582182D02*
X128426D01*
X89056D02*
Y601867D01*
X128426D01*
X296648Y582182D02*
Y601867D01*
X257278Y582182D02*
X296648D01*
X257278D02*
Y601867D01*
X296648D01*
X95946Y760609D02*
Y780294D01*
X135316D01*
Y760609D02*
Y780294D01*
X95946Y760609D02*
X135316D01*
X264168D02*
Y780294D01*
X303538D01*
Y760609D02*
Y780294D01*
X264168Y760609D02*
X303538D01*
X2093267Y1947339D02*
Y1967024D01*
X2132637D01*
Y1947339D02*
Y1967024D01*
X2093267Y1947339D02*
X2132637D01*
X333631Y1548785D02*
X353316D01*
Y1509415D02*
Y1548785D01*
X333631Y1509415D02*
X353316D01*
X333631D02*
Y1548785D01*
X744960Y-87808D02*
Y-55918D01*
X681968Y-87808D02*
X744960D01*
X681968D02*
Y-55918D01*
X744960D01*
X87775Y2338278D02*
Y2357963D01*
X127145D01*
Y2338278D02*
Y2357963D01*
X87775Y2338278D02*
X127145D01*
X143655Y2349398D02*
X163340D01*
Y2310028D02*
Y2349398D01*
X143655Y2310028D02*
X163340D01*
X143655D02*
Y2349398D01*
X400181Y2141250D02*
X419866D01*
X400181D02*
Y2180620D01*
X419866D01*
Y2141250D02*
Y2180620D01*
X-189401Y2083869D02*
Y2103553D01*
X-150031D01*
Y2083869D02*
Y2103553D01*
X-189401Y2083869D02*
X-150031D01*
X-133118Y2094908D02*
X-113433D01*
Y2055538D02*
Y2094908D01*
X-133118Y2055538D02*
X-113433D01*
X-133118D02*
Y2094908D01*
X123317Y1886841D02*
X143002D01*
X123317D02*
Y1926211D01*
X143002D01*
Y1886841D02*
Y1926211D01*
X1531231Y1396588D02*
X1550916D01*
Y1357218D02*
Y1396588D01*
X1531231Y1357218D02*
X1550916D01*
X1531231D02*
Y1396588D01*
X1531099Y993580D02*
X1550784D01*
Y954210D02*
Y993580D01*
X1531099Y954210D02*
X1550784D01*
X1531099D02*
Y993580D01*
X1668911Y491965D02*
X1688596D01*
Y452595D02*
Y491965D01*
X1668911Y452595D02*
X1688596D01*
X1668911D02*
Y491965D01*
X1531231Y1799595D02*
X1550916D01*
Y1760225D02*
Y1799595D01*
X1531231Y1760225D02*
X1550916D01*
X1531231D02*
Y1799595D01*
X1088268Y1697058D02*
X1109922D01*
Y1655719D02*
Y1697058D01*
X1088268Y1655719D02*
X1109922D01*
X1088268D02*
Y1697058D01*
X1042658Y1791545D02*
Y1813199D01*
X1083997D01*
Y1791545D02*
Y1813199D01*
X1042658Y1791545D02*
X1083997D01*
X1042658Y1712805D02*
Y1734459D01*
X1083997D01*
Y1712805D02*
Y1734459D01*
X1042658Y1712805D02*
X1083997D01*
X1327881Y222621D02*
X1365283D01*
X1327881D02*
Y291519D01*
X1365283D01*
Y222621D02*
Y291519D01*
X1559142Y171140D02*
X1596544D01*
X1559142D02*
Y240038D01*
X1596544D01*
Y171140D02*
Y240038D01*
X1521978Y176692D02*
Y227873D01*
X1502293D02*
X1521978D01*
X1502293Y176692D02*
Y227873D01*
Y176692D02*
X1521978D01*
X1411934Y1324252D02*
X1449335D01*
Y1393149D01*
X1411934D02*
X1449335D01*
X1411934Y1324252D02*
Y1393149D01*
X1175507Y2041318D02*
Y2078719D01*
X1106609D02*
X1175507D01*
X1106609Y2041318D02*
Y2078719D01*
Y2041318D02*
X1175507D01*
X906832Y1927377D02*
X928486D01*
X906832D02*
Y1968715D01*
X928486D01*
Y1927377D02*
Y1968715D01*
X1041925Y1942311D02*
Y1963965D01*
X1083263D01*
Y1942311D02*
Y1963965D01*
X1041925Y1942311D02*
X1083263D01*
X1005252Y1697058D02*
X1026906D01*
Y1655719D02*
Y1697058D01*
X1005252Y1655719D02*
X1026906D01*
X1005252D02*
Y1697058D01*
X946197D02*
X967851D01*
Y1655719D02*
Y1697058D01*
X946197Y1655719D02*
X967851D01*
X946197D02*
Y1697058D01*
X1000327Y1909117D02*
X1021980D01*
X1000327D02*
Y1950456D01*
X1021980D01*
Y1909117D02*
Y1950456D01*
X847777Y1927377D02*
X869431D01*
X847777D02*
Y1968715D01*
X869431D01*
Y1927377D02*
Y1968715D01*
X1058634Y1879686D02*
X1080288D01*
X1058634D02*
Y1921024D01*
X1080288D01*
Y1879686D02*
Y1921024D01*
X1054142Y1697058D02*
X1075795D01*
Y1655719D02*
Y1697058D01*
X1054142Y1655719D02*
X1075795D01*
X1054142D02*
Y1697058D01*
X699120Y1651786D02*
X720774D01*
Y1693125D01*
X699120D02*
X720774D01*
X699120Y1651786D02*
Y1693125D01*
X1509077Y151585D02*
X1546479D01*
Y82688D02*
Y151585D01*
X1509077Y82688D02*
X1546479D01*
X1509077D02*
Y151585D01*
X-36422Y1743295D02*
Y1764949D01*
Y1743295D02*
X4916D01*
Y1764949D01*
X-36422D02*
X4916D01*
X-64037Y1789834D02*
Y1811488D01*
Y1789834D02*
X-22699D01*
Y1811488D01*
X-64037D02*
X-22699D01*
X184015Y1630880D02*
X221417D01*
Y1699778D01*
X184015D02*
X221417D01*
X184015Y1630880D02*
Y1699778D01*
X89025Y1640342D02*
Y1677744D01*
X20128D02*
X89025D01*
X20128Y1640342D02*
Y1677744D01*
Y1640342D02*
X89025D01*
X115819Y2255830D02*
Y2277484D01*
Y2255830D02*
X157158D01*
Y2277484D01*
X115819D02*
X157158D01*
X86761Y2300261D02*
Y2321914D01*
Y2300261D02*
X128100D01*
Y2321914D01*
X86761D02*
X128100D01*
X336256Y2143416D02*
X373658D01*
Y2212314D01*
X336256D02*
X373658D01*
X336256Y2143416D02*
Y2212314D01*
X242320Y2153258D02*
Y2190659D01*
X173422D02*
X242320D01*
X173422Y2153258D02*
Y2190659D01*
Y2153258D02*
X242320D01*
X800307Y-143401D02*
Y-105999D01*
Y-143401D02*
X869205D01*
Y-105999D01*
X800307D02*
X869205D01*
X-161045Y2001421D02*
Y2023075D01*
Y2001421D02*
X-119707D01*
Y2023075D01*
X-161045D02*
X-119707D01*
X-190385Y2045939D02*
Y2067593D01*
Y2045939D02*
X-149047D01*
Y2067593D01*
X-190385D02*
X-149047D01*
X59392Y1889007D02*
X96794D01*
Y1957904D01*
X59392D02*
X96794D01*
X59392Y1889007D02*
Y1957904D01*
X-35597Y1898468D02*
Y1935870D01*
X-104495D02*
X-35597D01*
X-104495Y1898468D02*
Y1935870D01*
Y1898468D02*
X-35597D01*
X1618533Y1454665D02*
X1667745D01*
Y1375925D02*
Y1454665D01*
X1618533Y1375925D02*
X1667745D01*
X1618533D02*
Y1454665D01*
Y1051658D02*
X1667745D01*
Y972917D02*
Y1051658D01*
X1618533Y972917D02*
X1667745D01*
X1618533D02*
Y1051658D01*
Y648650D02*
X1667745D01*
Y569910D02*
Y648650D01*
X1618533Y569910D02*
X1667745D01*
X1618533D02*
Y648650D01*
Y1857673D02*
X1667745D01*
Y1778932D02*
Y1857673D01*
X1618533Y1778932D02*
X1667745D01*
X1618533D02*
Y1857673D01*
X1745850Y1914716D02*
Y1952118D01*
X1676952Y1914716D02*
X1745850D01*
X1676952D02*
Y1952118D01*
X1745850D01*
Y706801D02*
Y744202D01*
X1676952Y706801D02*
X1745850D01*
X1676952D02*
Y744202D01*
X1745850D01*
Y1512775D02*
Y1550177D01*
X1676952Y1512775D02*
X1745850D01*
X1676952D02*
Y1550177D01*
X1745850D01*
Y1109226D02*
Y1146628D01*
X1676952Y1109226D02*
X1745850D01*
X1676952D02*
Y1146628D01*
X1745850D01*
X1444440Y890410D02*
Y927811D01*
X1375543D02*
X1444440D01*
X1375543Y890410D02*
Y927811D01*
Y890410D02*
X1444440D01*
X2181826Y372491D02*
Y409893D01*
X2112928D02*
X2181826D01*
X2112928Y372491D02*
Y409893D01*
Y372491D02*
X2181826D01*
X2151303Y1232722D02*
Y1270124D01*
X2082405D02*
X2151303D01*
X2082405Y1232722D02*
Y1270124D01*
Y1232722D02*
X2151303D01*
X2245728Y1624643D02*
Y1662044D01*
X2176831D02*
X2245728D01*
X2176831Y1624643D02*
Y1662044D01*
Y1624643D02*
X2245728D01*
M02*
