M48
;Layer_Color=9474304
;FILE_FORMAT=2:5
INCH,TZ
;TYPE=PLATED
T02F00S00C0.00984
T03F00S00C0.01900
T04F00S00C0.02953
T05F00S00C0.03740
T06F00S00C0.03937
T07F00S00C0.04134
T08F00S00C0.05906
T09F00S00C0.10630
;TYPE=NON_PLATED
T10F00S00C0.05000
T11F00S00C0.06102
%
T02
X73970Y-15514
X74496Y-13095
X77597Y-15449
X76432Y-17546
X79087
X80623Y-15691
X81098Y-13372
X79554Y-11569
X77898Y-8728
X77860Y-6225
X80296Y-4832
Y-2470
Y-108
X79695Y2241
Y4603
X77333
Y6965
Y9327
X74970
Y11689
X77333
X74970Y6965
X72082Y6206
X79695Y6965
X82057
X84419
Y4603
X82057
Y2241
X84419
X90250Y-4129
Y-6491
X92612
Y-8853
Y-11215
X94975
Y-13578
Y-15940
X92612
Y-13578
X90594Y-17230
X88232
X90250Y-8853
X94975
Y-6491
Y-4129
X92612
X96039Y-132
X103662Y6727
X112074Y6996
X113870Y8965
X112074Y10933
X113870Y12902
X112074Y14870
X120899
X122301Y16839
X121573Y9015
Y6342
X122301Y3059
X120505Y1091
X122301Y-878
X120505Y-2846
X127075Y-5212
X134000Y-6631
X137328Y-2904
X139795Y-2880
X139239Y-346
X132561Y-146
X141488Y8161
X141094Y13914
X138732
Y16276
Y18638
X141094
Y16276
X143456
Y13914
X145819
X148181
Y16276
Y18638
X145819
Y16276
X143456Y18638
X154431Y19075
X162071Y18645
X161012Y13791
X158409Y13690
X155140Y8564
X152778
X150416
Y4802
X152778
X155140
X155700Y-324
X172059Y-9031
X168611Y13679
X168268Y18645
X171157Y18784
X173195Y15997
X113870Y5028
X112074Y3059
X113870Y1091
X112074Y-878
X73724Y-6285
X75268Y-8088
X180093Y-942
Y1426
X184355Y9639
X185262Y14852
X175571Y10542
X196576Y7921
X199865
X202933
X205074Y4794
X207095Y9040
X209704Y11648
X209596Y15186
X209834Y18729
X211693Y17154
X200382Y14786
X200399Y2038
X200382Y-331
X199865Y-7576
X196797
X202933
X205074Y-10703
X200399Y-13459
X200382Y-15827
X209596Y-15427
X210222Y-7576
X213887Y-7617
X217552Y-7659
X221217Y-7701
X215343Y-2599
X211678Y-2557
X209596Y69
X229812Y-422
X244203Y16772
X249203
X254203
X259203
X269203
X259203Y21772
X254203
X249203
X254203Y36772
X264203Y41772
X274203
X279203Y36772
Y51772
Y56772
X274203Y61772
Y66772
X269203
Y61772
X269279Y55739
X264203Y56772
X269203Y46772
X264203Y86772
X259203
X244203
Y91772
X249203
Y96772
Y106772
Y111772
Y116772
X244203
Y121772
X249203
Y126772
X264203
X269203
Y121772
Y116772
X274150Y116870
Y111870
X279203Y111772
Y116772
Y136772
X269203Y141772
Y146772
X259203
X249203
X244203
Y151772
X239203Y146772
X244203Y141772
X254203
X264203Y131772
X259203Y116772
X239203
X216015Y110811
X217041Y108614
X214608Y108690
X210823Y105852
X208461
X206098
Y103490
Y101128
X208461
Y103490
X210823
Y101128
X209667Y94706
X207254
X204343Y97107
X202275Y99438
X195381Y100509
Y106471
X202275Y107576
X206492Y111021
X209445Y111004
X209308Y124241
X207764Y126044
X214853Y125002
X217025Y135907
X209667Y135007
X207254
X204343Y137408
X202275Y139739
X206098Y141429
Y143791
Y146153
X208461
X210823
Y143791
X208461
Y141429
X210823
X209445Y151305
X206492Y151321
X202275Y147877
X195381Y146772
Y140810
X190310Y136006
X187863Y135980
X183281Y138101
X181313Y136410
X179344Y138101
X179590Y134063
X176919Y133644
Y131246
X181152Y132071
X185870Y123293
X185053Y114120
Y111758
Y109396
X182691Y111758
Y114120
X180328
X175601Y109392
Y107030
X177963
Y104668
X175601
X180325
X179344Y97800
X181313Y96109
X183281Y97800
X187863Y95656
X190310Y95682
X176919Y93343
Y90945
X185870Y82992
X185053Y73819
Y71457
X195381Y66170
Y60208
X202275Y59137
X204343Y56807
X207254Y54405
X209667
X210823Y60827
Y63189
Y65552
X208461
X206098
Y63189
Y60827
X208461
Y63189
X209445Y70703
X206492Y70720
X202275Y67276
X199499Y76620
X197268Y75675
X216015Y70510
X217041Y68313
X214608Y68389
X217025Y55306
X217214Y45033
X220155
X223096
X218789Y39892
X216986Y38347
X212361Y38218
X210816Y40021
X199492Y45286
X199333Y47651
X196671Y46453
X190912Y49962
X190402Y55461
X187955Y55435
X183281Y57499
X181313Y55808
X179344Y57499
X176919Y53043
Y50644
X186498Y47340
X184538Y37114
X185284Y27137
X186315Y24941
X177686Y19830
X205074Y19910
X209834Y21879
X211693Y20304
X217025Y95607
X239203Y86772
X264203Y96772
Y101772
X269203
Y106772
X279203Y96772
Y91772
Y156772
Y171772
X264203
Y161772
Y156772
X249203Y166772
Y171772
X244203Y166772
Y161772
X234203Y171772
X223505Y165236
X225050Y163433
X218751
X217206Y165236
X216015Y151112
X217041Y148915
X214608Y148991
X199499Y157222
X197268Y156277
X185053Y154421
Y152059
X182691
Y154421
X180328
X177966
Y152059
X175604
Y154421
X180328Y152059
X185870Y163594
X180894Y171750
X179893Y173988
X176919Y173966
Y171546
X207254Y175307
X209667
X199499Y116921
X197268Y115976
X175605Y64896
X175104Y71457
Y73819
X166136Y72893
X164744Y70805
X161856Y77177
X159410Y77180
X152362Y75753
X149999
X147637
Y73391
Y71029
X149999
Y73391
X152362
Y71029
X149999Y66260
X159284Y63425
X170263Y61248
X170384Y43674
X167875Y45378
Y39183
X174241Y45236
X171855Y27578
X170852Y25417
X168827Y22118
X173128Y21322
X160146Y23708
X157784
X155422
Y27470
X157784
X160146
X148181Y30674
X143338Y40241
X144834Y42218
X143963Y55330
X141622Y54294
X139646Y52854
X137982Y50995
X136737Y48800
X126926Y41516
X122797Y41533
X138223Y23059
X96488Y23876
X94126
X91764
X89401
X87039
X84677
Y21514
X87039
Y19152
X89401
X91764
X94126
X96488
Y21514
X94126
X91764
X89401
X92406Y60886
Y64035
Y67185
Y70335
Y73484
Y79783
X81700Y77204
X79338
Y74842
X81700
Y72480
X79338
X79346Y68207
X81709
Y65845
X79346
Y63482
X81709
X105053Y61169
X107778Y61109
X109616Y66398
X111978
Y68760
X114340
Y71909
X111978
X109616
Y74272
X111978
X109616Y68760
X141948Y70438
X140589Y77149
X138143Y77147
X138622Y90010
X137077Y91813
X143377
X144921Y90010
X163184Y87860
X166614Y91237
X170263Y101548
X164744Y111106
X166136Y113136
X161856Y117478
X159410Y117480
X158051Y110739
X152362Y111330
Y113692
Y116054
X149999
X147637
Y113692
Y111330
X149999
Y113692
X149999Y106561
X141948Y110747
X140589Y117450
X138143Y117448
X143836Y131819
X142291Y133622
X142162Y138247
X143965Y139792
X150035Y146859
X149999Y151631
X147637
Y153993
Y156355
X149999
X152362
Y153993
X149999
X152362Y151631
X141948Y151040
X140589Y157751
X138143Y157748
X159410Y157781
X161856Y157779
X166136Y153490
X164744Y151407
X170263Y141849
X167270Y132192
X163184Y128161
Y168461
X166614Y171839
X117821Y170596
Y168227
Y174133
X108104Y172363
X104561
X101564Y172404
X101608Y169411
X98685Y169377
Y171739
X95703Y171773
X93340
X90978
Y169411
X95703
Y165867
X101608
X106912Y166546
X109371Y166452
X106497Y169411
X99836Y174135
X97474
X95112
X92750
X90388
X86186Y172493
X83838Y170144
X83834Y174844
X71647Y171318
X70995Y169017
X74405Y165375
X79955Y161897
X66138Y164494
X66173Y171654
X63811
X61449
X59087
X56724
X54920Y173513
X51694
X49952Y175186
X47903Y162019
X55507Y160700
X55321Y158339
X55276Y154932
X55516Y152550
X60482Y149688
X47903Y151231
X47909Y139063
Y136701
X50271
Y139063
X50291Y130921
X47928
Y128558
X50291
X50271Y124283
X47909
Y121921
X50271
X50291Y116141
X47928
Y113779
X50291
X29547Y117262
X26370Y110471
X26908Y102161
X24298Y101732
X21688Y102161
X22130Y99177
X21688Y96185
X24298Y96614
X26908Y96185
X26460Y99173
X28214Y86816
X30576
Y84454
X32938
Y82091
X30576
X28214
X25852
Y84454
X28214
X30236Y72728
X29547Y61160
X47928Y60039
X50291
Y57676
X47928
X47909Y65819
X50271
Y68181
X47909
X47928Y72456
X50291
Y74818
X47928
X47909Y80598
Y82960
X50271
Y80598
X54650Y88941
X92591Y99119
X92406Y116988
Y120138
Y123287
Y126437
Y129587
Y135886
X81702Y133298
Y130936
Y128573
X79339
Y130936
Y133298
X79347Y124301
Y121938
Y119576
X81710
Y121938
Y124301
X109616Y124862
X111978
X114340
Y128012
X111978
Y130374
X109616
Y128012
Y122500
X111978
X105746Y156151
X103377
X34387Y138473
X30236Y128830
X28354Y169817
X25992
X23629
Y172179
Y174541
X25992
Y172179
X28354
Y174541
X20272Y163383
X21158Y28591
X23535
X25745Y26138
X28714
X31682
X34651
X37619
X40588
X18948
X15980
X13011
X10042
X7074
X4106
X3586Y21594
X6554
X9523
X12491
X15460
X18428
X12724Y61160
X13413Y75088
X14321Y107359
Y109721
X11959
X9597
Y112083
X11959
X14321
X12724Y117262
X11959Y107359
X9597
X13413Y131190
X14322Y159822
Y162184
X11960
Y159822
X9598
Y162184
X7236
Y159822
X8608Y165905
X11960Y166909
Y164546
X15337Y164990
X11960Y169271
Y171633
X9598
X7236
Y169271
X9598
X-1608Y167843
X-3971
X-6333
Y165481
X-3971
Y163119
X-1608
Y165481
X-6333Y163119
X-17123Y101535
Y99172
Y96810
X-16433Y188932
X-14071
Y191294
Y193656
X-16433
X-18795
Y191294
X-16433
X-18795Y188932
X-3939Y188518
X-3876Y191717
X-5026Y196875
X-531Y202249
X-1399Y204578
X-611Y208652
X-3170Y208957
X-4716Y207001
X2828Y206232
X11167Y200354
X13529
Y197991
Y195629
X11167
Y197991
X15892
Y195629
Y200354
X17638Y210897
X13721Y214411
X11359
Y216773
Y219135
X13721
Y216773
X8997
Y219135
Y214411
X7658Y228201
X7788Y189196
X2874Y190803
X785Y188518
X7220Y182167
Y179804
Y177442
X9582
Y179804
X11944
Y177442
Y182167
X9582
X15291Y180420
X49952Y179910
Y177548
Y182273
Y184635
Y186997
X51432Y188915
X53794
X56157
X58519
X60881
X63243
X65605
X67968
X69671Y187211
X71375Y185507
X77429Y186143
Y192049
X85860Y193033
Y196576
X91766
Y193033
X88524Y191291
X90388Y188308
Y185946
X92750
X95112
Y188308
X97474
Y185946
X99836
X102199
X104561
Y183584
X102199
X99836
Y181222
Y178859
Y176497
X102199
X104561
X104561Y180237
X108104
X106946Y188264
X102199Y188308
X99836
X101115Y191207
X104108Y191249
X108104Y192049
X107212Y196198
X101360Y195890
X97923Y191285
X95561
X92750Y188308
Y183584
X90388
Y181222
Y178859
Y176497
X92750
X95112
X97474
Y178859
Y181222
Y183584
X95112
Y181222
X92750
Y178859
X95112
X86183Y177193
X83831Y179544
X86180Y181893
X83828Y184244
X86177Y186593
X83825Y188944
X69343Y197769
X68444Y203137
X66993Y205727
Y208695
X61474Y209824
X61467Y206855
Y203887
X61555Y197951
X62624Y195182
X66196Y216904
X69075Y217628
X72044Y217657
X75012
X80949
X83913Y217823
X85792Y220121
X85848Y223089
Y226058
X85840Y228707
X85233Y231141
X82126Y231150
X79157
X76188
X73220
X70252
X69732Y235695
X72700
X75669
X78637
X81606
X84574
X89679Y235692
X92647Y235695
X95616
X98584
X101553
X104521
X107490
X106970Y231150
X104001
X101033
X98064
X95096
X91688Y230876
X91374Y227925
Y224956
Y221988
X90216Y216241
X110184Y206904
X111729Y205100
X116354Y205230
X118157Y206774
X112648Y194017
X117821Y184375
Y182007
Y176501
X141948Y191341
X147648Y191921
X150010
X152372
Y194283
X150010
X147648
Y196645
X150010
X152372
X159410Y198082
X161856Y198080
X166136Y193684
X164744Y191714
X158051Y191333
X150035Y187155
X140589Y198052
X138143Y198049
X139274Y234804
X136912
X134549
X167023Y235695
X169992
X172960
X172440Y231150
X169472
X166503
X170263Y182150
X43578Y221070
X41216
X38854
Y223432
Y225794
X41216
Y223432
X43578
Y225794
X27168Y226176
Y228538
Y230901
Y233263
X24806Y230901
Y228538
Y226176
Y223814
Y221452
X22444
Y223814
Y226176
X22970Y232442
X30515Y231673
X27168Y223814
Y221452
Y219089
Y216727
Y214365
X29530
X31893
Y212003
X29530
X27168
X23137Y213492
X24709Y216295
X23165Y218098
X35496Y215484
X175409Y231150
X178377
X181346
X181866Y235695
X184602Y235611
X188663Y235695
X191631
X194600
X197568
X200537
X203505
X204025Y231150
X201057
X198088
X195120
X192151
X189183
X178897Y235695
X175929
X185870Y203895
X185053Y194722
Y192359
X182691
Y194722
X180328
Y185273
X177966
X175604
X179344Y178401
X181313Y176710
X183281Y178401
X187863Y176287
X190310Y176313
X195381Y181111
Y187073
X202275Y188178
X206098Y186454
X208461
X210823
Y184092
X208461
X206098
Y181729
X208461
X210823
X202275Y180039
X204343Y177709
X217025Y176208
X217041Y189215
X214608Y189292
X216015Y191413
X209445Y191605
X206492Y191622
X209445Y195718
X213146
X199499Y197529
X197268Y196577
X239203Y196772
X244203
Y191772
Y186772
Y181772
Y176772
X239203Y191772
X249203
Y196772
X244203Y201772
X264203
X269203Y196772
Y191772
X264203Y186772
Y181772
Y176772
X279203Y191772
Y196772
Y211772
T03
X264203Y16772
Y26772
Y36772
X269203Y31772
Y21772
Y41772
T04
X1776Y99173
T05
X71540Y43071
X90044
X109729
X127839Y52224
Y71122
X119571Y99173
X127839Y108327
Y127224
X80201Y99173
X40831
X71540Y155276
T06
X24645Y-1543
X34645
X44645
X54645
X79387Y31525
X89386
X103020
X113020
X38614Y168725
Y180808
X28614
Y192891
X38614
Y204973
X48614
X28614
T07
X21146Y43071
X60516
X40831Y65413
Y86673
Y121516
Y132933
Y155276
X80201
X119571
X1461
X-18224Y132933
Y76831
Y43071
T08
X-12309Y13374
X8675
X36018
X57002
Y34358
X36018
X8675
X-12309
X53955Y222930
X74939
Y243915
X53955
X102282
X123266
Y222930
X102282
X150609
X171593
Y243915
X150609
X198936
X219920
Y222930
X198936
T09
X-60Y-0
X248919Y-9840
X-60Y222642
X248927Y238186
T10
X244695Y7224
X256703Y221319
T11
X103429Y52224
Y90020
Y108327
Y146122
M30
