M48
;Layer_Color=9474304
;FILE_FORMAT=2:5
INCH,TZ
;TYPE=PLATED
T02F00S00C0.00984
;TYPE=NON_PLATED
%
T02
X169687Y-756
X182166Y-5329
X187818Y-3888
X186112Y1629
X183461Y2965
X182173Y-14234
X187818Y-12793
X189052Y-15493
X192018Y-15604
X194987
X203892
X206861
X212798
X215766
X218735
X221703
X230357Y-14408
X236041Y-13494
Y-10525
Y-7557
Y-4588
Y4318
Y7286
X235716Y-16444
X230388Y39025
X222987Y48963
X224308Y54633
Y57602
Y60570
Y66507
X224015Y69461
X222352Y71921
X220253Y74020
X218154Y76119
X210649Y75630
X212748Y73531
X212804Y87096
X215772
X218741Y87104
X221547Y88074
X223420Y90376
X223877Y93309
Y96278
Y102215
Y105183
Y108152
Y111120
Y114089
Y117057
X223341Y119977
X221206Y122039
X218275Y122510
X215306
X212338
X212351Y116858
X215320
X218225Y116248
Y113279
Y104374
Y98437
X217035Y92749
X214067
X209839Y87245
X207250Y88696
X205790Y91281
X199263Y95010
X197164Y97109
X195956Y90324
X193857Y92423
X198055Y88225
X187560Y98720
X185461Y100819
X188768Y105505
X194672Y117756
X197500Y122673
X197065Y125610
X196571Y137442
X190279Y143521
X184858Y140137
X182622Y157160
X179654
X176685
X196499Y169963
X194400Y172062
X192301Y174161
X202397Y172058
X205644Y173032
X214210Y173350
X217178
X224205Y172511
X222952Y169820
X208694Y165761
X210793Y163662
X198598Y167864
X218225Y144728
Y141759
Y138791
X223877Y138261
Y135292
X223842Y132324
X217164Y133049
X214196
X214483Y127397
X217452
X220397Y127771
X230435Y128080
X230388Y125112
Y122143
Y119175
Y116206
Y113238
Y110269
X236041Y117121
Y123057
Y126026
X239776Y127981
X242251Y126343
X244818Y127835
X247514Y129078
X247529Y124974
X256446Y123999
X257168Y126878
X256729Y129814
X249888Y134736
X244781Y134731
X241813
X238844
X235885Y134495
X233231Y133166
X223877Y141229
Y144198
Y147166
Y150135
X209383Y116858
X206414
X178272Y116001
X176173Y118100
X218656Y63938
Y60969
Y58001
X208790Y47314
X206536Y49246
X279203Y101772
Y106772
X172866Y113413
X170767Y115512
X168668Y117611
X166569Y119710
X164470Y121809
X158597Y122424
X146723
X143773Y122755
X140966Y123719
X141790Y129961
X144355Y128465
X140057Y132370
X139464Y135279
Y138248
X139390Y141215
X148578Y144354
X151421
X149215Y162242
X146847
X147844Y172238
X150812
X153781Y172206
X144876Y172238
X133131Y171367
X130281Y173680
X129460Y169256
X130186Y166378
X124566Y172491
X121597
X122863Y149416
X119894
X116926
X115448Y143779
X118416Y143764
X121385
X124350Y143625
X112648Y144765
X110773Y147066
X108477Y148948
X110240Y154600
X113136Y153951
X101850Y153779
X99840Y158120
X97472
X121520Y118172
Y115804
X147011Y106819
X152916
X167735Y126452
X170941Y126527
Y124159
X170748Y157160
X173717
X167780
X164835Y157538
X165450Y163599
X170941Y164460
Y166828
X155872Y165183
X157971Y163084
X170941Y86227
Y83858
X151175Y55969
X148807
X121520Y78599
Y80968
X175096Y27578
X173409Y193053
X171310Y195152
X169211Y197251
X170941Y204760
Y207129
X164257Y219501
X146195Y198797
X132567Y199737
Y196768
Y193800
Y190831
Y187863
Y184894
Y181926
X132099Y176026
X124442Y178143
X121473
X119800Y180441
X122449Y181781
X123840Y184404
X123928Y187371
Y190340
Y193308
Y196277
Y199245
X126914Y197597
Y194628
Y191660
Y188691
Y185723
Y182754
X118276Y188279
Y191248
Y194216
Y197185
Y203122
X123928Y205182
X126968Y203533
X128104Y206276
X99840Y204324
X97471
X177209Y197247
X187704Y186752
X189803Y184653
X183905Y182557
X186004Y180458
X196100Y178356
X198199Y176257
X218656Y178893
Y181862
Y184830
X224308Y187352
Y190320
Y193289
Y196257
X218656Y196704
Y193736
X229623Y193087
Y195456
X224308Y181415
Y178446
X249203Y181772
Y186772
X269203Y201772
Y206772
X214721Y219501
X211753
X208785
X205816
X193942
X190973
X188005
X185036
X182068
X179100
M30
