M48
;Layer_Color=9474304
;FILE_FORMAT=2:5
INCH,TZ
;TYPE=PLATED
T01F00S00C0.00394
;TYPE=NON_PLATED
%
T01
X169687Y-756
X167388Y7351
X164021Y12675
X199568Y17154
Y18729
X221206Y17042
Y6994
Y-3053
Y27090
X221383Y30869
X219398
X217414
X215430
X213446
X211461
X209477
X207493
X204829Y32146
Y34115
X207655Y35391
X209639
X211624
X213608
X215592
X217576
X219561
X221545
X223529
X225513
X227498
X229482
X231466
X233450
X235435
X237419
X239403Y35441
X241287Y36062
X242683Y37473
X243267Y39369
X243307Y41352
Y43337
Y45321
Y47305
Y49290
Y53258
Y55242
Y59211
Y61195
Y63179
Y65163
Y67148
X243396Y69130
X243929Y71042
X244970Y72731
X246391Y74116
X248119Y75091
X250050Y75549
X252033Y75612
X253899Y76288
X254945Y77974
X256921Y78157
X258277Y76708
X259931Y75612
X261915
X263899Y75612
X265884
X267868
X269852
X271836
X273820Y75649
X275775Y75993
X277599Y76773
X279198Y77949
X280467Y79474
X281320Y81266
X281743Y83204
X281820Y85187
Y87171
Y89156
Y91140
Y93124
Y95108
Y97093
Y99077
Y101061
X282816Y106208
X284527Y105204
X278369Y104675
X274999Y114796
X272244Y112098
X270260Y112109
X268276
X266292Y112072
X264365Y111599
X262748Y110449
X261669Y108783
X261284Y106837
X261134Y104858
X260432Y103002
X259204Y101444
X257548Y100350
X255643Y99795
X253660Y99722
X251676
X249692
X247708
X245723
X243740Y99655
X241799Y99245
X240004Y98399
X238482Y97125
X237317Y95519
X236555Y93687
X236356Y91021
X238278Y91514
X240262Y91549
X242246
X245157Y89839
X241024Y86995
X237172Y85454
X237131Y83470
Y81486
Y79502
Y77517
Y75533
Y73549
Y71565
Y69580
Y67596
X236889Y65627
X236043Y63832
X234697Y62374
X232981Y61377
X231048Y60931
X229064Y60913
X228875Y65467
X230859Y65518
X232416Y66747
X232577Y68725
Y70710
Y72694
Y74678
Y76662
Y78646
Y80631
X230803Y79840
X228973Y79075
X227028Y78677
X225046Y78606
X223061
X221077
X219093
X217109
X215124
X213140
X211156
X209172
X207187
X205203
X203219
X201550
X201334Y83128
X203318
X205303
X207287
X209271
X211255
X213240
X215224
X217208
X219192
X221177
X223161
X225145
X227125Y83261
X228964Y84007
X230437Y85336
X231375Y87085
X231693Y89043
Y91027
X231790Y93009
X232184Y94954
X232874Y96815
X233843Y98546
X235069Y100106
X236521Y101458
X238165Y102569
X239962Y103411
X241867Y103966
X243835Y104218
X245819Y104245
X247804
X249788
X251772
X253756
X255723Y104510
X256732Y106218
X256854Y108199
X257330Y110125
X258182Y111917
X259378Y113501
X260866Y114813
X262588Y115799
X264472Y116420
X266443Y116650
X245157Y119839
X241024Y121549
X239040
X237070Y121310
X235287Y120438
X233858Y119061
X232916Y117315
X232564Y115362
X232577Y113378
Y111394
Y109409
X232519Y107426
X231243Y105906
X229263Y105768
X228686Y101214
X230670Y101199
X232626Y101531
X234390Y102439
X235808Y103827
X236753Y105572
X237142Y107517
X237131Y109502
Y111486
Y113470
X237172Y115454
X241024Y116995
X236970Y143251
X237882Y145014
X235422Y142010
X233501Y141514
X231516Y141515
X229532
X230374Y146069
X232358
X233668Y147559
X234523Y149350
X235956Y150723
X237803Y151446
X239785Y151549
X241769
X242300Y154426
X240315
X238331
X236347
X234363
X232378
X230394
X228410
X226426
X224441
X222457
X220473
X218489
X216504
X214520
X212540Y154555
X210683Y155253
X209136Y156496
X207733Y157899
X206329Y159302
X204778Y160538
X202795Y160621
X203142Y165143
X201158
X199174
X197189
X195205Y165139
X193272Y164691
X191578Y163659
X190324Y162121
X189564Y158267
X181313Y160211
X179344
X177873Y163051
X176140Y162084
X175394Y167905
X177379Y167908
X179316Y167477
X180979Y166396
X180328Y149696
X177966
X175604
X175605Y145497
Y143135
X177968
X180330
Y145497
X182692
X185054
Y143135
X182692
X182691Y149696
X185053
X193370Y148789
X193980Y150678
X192571Y146068
X192619Y141514
X199804
Y146068
X177968Y145497
X177379Y127607
X175394Y127604
X179316Y127177
X180979Y126095
X177873Y122750
X176140Y121783
X179344Y119910
X181313
X177966Y114120
X175604
Y111758
X177966
X180325Y111755
Y109392
X177966Y109396
X180325Y107030
X182687
Y104668
X185049
Y107030
X182687Y109392
X192571Y105767
X192619Y101213
X199804
Y105767
X199350Y83128
X197366
X195381
X193399Y83038
X191512Y82426
X189944Y81209
X193307Y78170
X192801Y70292
X192571Y65466
X192619Y60912
X199804
Y65466
X185054Y64896
Y62534
X182692
X180330
X177968
Y64896
X180330
X182692
X182691Y71457
Y73819
X180328
X177966
Y71457
X180328
X179344Y79609
X181313
X177873Y82449
X176140Y81482
X175394Y87304
X177379Y87306
X179316Y86876
X180979Y85794
X180894Y91149
X179893Y93386
X175605Y62534
X176526Y35391
X179444Y34115
Y32146
X178859Y30707
X176882Y30869
X187194Y32364
X189545
X191897
X194248
Y34716
X196600
Y37067
Y39419
Y41770
X194248
X191897
X189545
X187194
Y39419
X189545
X191897
X194248
Y37067
X191897
X189545
X187194
Y34716
X189545
X191897
X199568Y21879
Y20304
X223367Y30869
X225351
X227335
X229320
X231304
X233288
X235272
X237257
X239241Y30864
X241204Y31153
X243055Y31867
X244704Y32971
X246069Y34411
X247830Y57847
Y59831
Y61816
Y63800
Y65784
Y67768
X248355Y69682
X249924Y70897
X251899Y71090
X253883
X255867
X257851
X259836
X261820
X263804Y71090
X265788
X267773
X269757
X271741
X273725Y71092
X275699Y71292
X277620Y71792
X279441Y72578
X281122Y73633
X282619Y74936
X283896Y76455
X257680Y156442
X256052Y155307
X254197Y154604
X252221Y154426
X250237
X248252
X246268
X244284
X243533Y158949
X245517
X247502
X249486
X251470
X253448Y159110
X255035Y160301
X255581Y162209
Y164193
Y166177
Y168161
Y170146
Y172130
Y174114
X260103Y173639
Y171655
Y169671
Y167686
Y165702
Y163718
X260099Y161734
X259758Y159779
X258950Y157967
X241549Y158949
X239565
X237580
X235596
X233612
X231628
X229643
X227659
X225675
X223691
X222305Y160369
X220321Y160335
X218902Y158949
X216917
X214933
X212982Y159308
X211454Y160573
X210050Y161976
X208661Y163393
X207030Y164523
X205125Y165079
X228390Y146069
X241769Y146995
X245157Y149839
X163351Y149680
X161381Y149442
X159544Y148690
X157967Y147485
X156793Y145886
X156064Y144041
X155805Y142073
X152388Y141692
X151975Y136583
X157732Y137382
X159167Y138753
X160099Y140504
X160412Y142464
X147738Y142620
X135525Y142982
Y140998
Y139014
Y137029
Y135045
Y133061
Y131077
Y129092
Y127108
Y125124
Y123140
X135552Y121155
X135231Y119197
X134328Y117430
X132938Y116014
X131189Y115077
X129235Y114730
X127832Y113327
X125848Y113379
X124393Y114727
X123636Y119249
X125621
X127605
X129587Y119331
X130937Y120786
X131003Y122769
Y124753
Y130706
Y132690
Y134674
Y136659
Y138643
Y140627
Y142611
Y144596
Y146580
Y148564
Y150548
Y152532
Y154517
Y156501
Y158485
Y160470
X131017Y162454
X131440Y164392
X132397Y166131
X133808Y167526
X135557Y168462
X138016Y168866
X140000
X141984
X143968
X145953Y168843
X147855Y168279
X149344Y166967
X150184Y165170
X145060Y164344
X143076
X141092
X139108
X137129Y164197
X135704Y162817
X135525Y160840
Y158856
Y156872
Y154887
Y152903
Y150919
Y148935
Y146950
Y144966
X136554Y102504
X138389Y101751
X140193Y100923
X142177
X144161
X146145
X147700Y102156
X147379Y104114
X152707Y104238
X152263Y102304
X147675Y96530
X145694Y96401
X143710
X141726
X139742
X137758
X135773
X133789
X132545Y94854
Y92870
Y90886
Y88902
Y86918
Y84933
X132466Y82951
X131891Y81051
X130755Y79425
X129165Y78238
X127278Y77623
X125297Y77522
X123312
X124692Y82045
X126674Y82124
X127974Y83624
X128023Y85607
Y87591
Y89576
Y91560
Y93544
X128014Y95529
X128418Y97471
X129454Y99164
X131044Y100350
X132954Y100887
X134841Y101502
X173410Y87304
X172796Y82781
X174161Y81342
X163935Y68152
X162383Y60581
Y52644
X160627Y49509
X158643Y49484
X156659
X154675
X152690
X150706
X148722
X150751Y44962
X152735
X154719
X156703
X158688
X160672Y44951
X162625Y45301
X164373Y46240
X166909Y51403
X166906Y53387
X166605Y35391
X168589
X170574
X172558
X174542
X174897Y30869
X172913
X170929
X168945
X166960
X164976
X162992
X161008
X159023
X157039
X155055
X153076Y31019
X151200Y31663
X148241Y34258
X147379Y36045
X147000Y37993
X148376Y40969
X150100
X151622Y40732
X151499Y38752
X151987Y36828
X153542Y35596
X155515Y35391
X157500
X159185Y36439
X161100Y36959
X162668Y35743
X164621Y35391
X175096Y27578
X138089Y37008
X136509Y35808
X134711Y34969
X132775Y34532
X130792Y34454
X128808
X126824
X124840
X122855
X120871
X118887
X116903
X114918
X110950
X108966
X103102Y38977
X101118
X99134
X95165
X95076Y34454
X93092
X85155
X85244Y38977
X83260
X81276
X79291
X77307
X75323
X73339
X71354
X69370
X67393Y38814
X65581Y38004
X64152Y36628
X63236Y34867
X63003Y32897
Y30913
Y28928
X62886Y26948
X61701Y25355
X59774Y24883
X57790
X55806
X53821
X51837
X51611Y20360
X49627
X53595
X55579
X57564
X59548
X61528Y20481
X63408Y21117
X65056Y22222
X66359Y23718
X67180Y25525
X67523Y27479
X67525Y29463
Y31448
X67581Y33431
X69281Y34454
X71265
X73249
X75115
X115008Y38977
X116992
X118976
X120961
X122945
X124929
X126913
X128898
X130882
X132858Y39154
X134631Y40045
X135880Y41587
X136386Y43505
X136623Y45476
X139365Y38527
X148807Y55969
X151175
X174161Y121642
X172796Y123082
X173410Y127604
X174161Y161943
X172796Y163383
X173410Y167905
X99840Y158120
X97472
X43674Y20360
X41690
X39705
X37721
X35737
X33753
X31768
X29784
X27800
X25816
X23849Y20626
X22113Y21587
X71925Y193919
Y196084
X76078Y200456
X75016Y202132
X74492Y204046
X74119Y207988
X74164Y209972
X75721Y208946
X77667Y208955
X77952Y210799
X75968Y210799
X79454Y209503
X92208Y202757
X94192
X96177
X97471Y204324
X99840
X102295Y205177
Y207161
Y209145
Y211129
X102434Y213109
X103170Y214951
X104473Y216448
X106178Y217462
X108561Y217907
X110546
X112530
X114514
X116498
X118482
X120467
X121123Y213385
X119139
X117155
X115170
X113186
X111202
X109218
X107297Y212886
X106817Y210961
Y208977
Y206992
Y205008
X106751Y203025
X102078Y203204
X123107Y213385
X125092
X127076
X129060
X131044
X133028
X135013
X136997
X138981
X140965
X142950
X144934
X146918
X148902
X150887
X152871
X154855
X156840
X158824
X160808
X162792
X164777
X166761
X168745
X170729
X172713
X174698
X174041Y217907
X170073
X168089
X166104
X162136
X160152
X158168
X156183
X154199
X152215
X148246
X146262
X144278
X142294
X140309
X138325
X136341
X134356
X132372
X130388
X128404
X126419
X89693Y231257
X87528
X173410Y208206
X172796Y203683
X174161Y202244
X176140Y202384
X177873Y203352
X179344Y200512
X181313
X180979Y206696
X179316Y207778
X177379Y208209
X175394Y208206
X176682Y213385
X178666
X180650
X182635
X184619
X186603
X188587
X190572
X192556
X194540
X196525
X198509
X200493
X202477
X204462
X206446
X208430
X210414
X212399
X214383
X216367
X218351
X220336
X222320
X224304
X226288
X228273
X230257Y213368
X232163Y212819
X233561Y211410
X234082Y209496
X234091Y207511
Y205527
Y203543
Y201559
Y199574
X233647Y196549
X231663
X229623Y195456
Y193087
X232543Y191995
X234527
X234091Y189653
X234122Y187669
X234744Y186133
X232774Y186370
X230790
X228805Y186370
X229706Y181816
X231690Y181816
X233437Y180875
X234211Y179047
X235653Y177685
X237532Y177047
X239516Y176995
X241500
X242106Y181549
X240122
X238138Y181575
X238783Y187542
X238614Y189519
X240492Y186533
X246444
X247391Y188277
X249178Y189139
X250981Y188311
X251528Y186403
X250421Y184756
X251244Y182951
X251411Y180974
X250011Y179568
X248033Y179724
X246889Y181345
X244878Y179072
X255581Y178083
Y180067
Y182051
Y184035
Y186020
Y188004
Y189988
Y191972
Y193957
Y195941
X255571Y197925
X255795Y199897
X256475Y201760
X257559Y203423
X258988Y204799
X260691Y205818
X262586Y206404
X264567Y206533
X266551
X267297Y201999
X270052Y204698
X261549Y201031
X260403Y199411
X260103Y197450
Y195466
Y193482
Y191497
Y189513
Y187529
Y185545
Y183560
Y181576
Y179592
Y177608
Y175623
X255581Y176098
X245157Y194839
X241584Y196549
X238614Y199441
Y201425
Y203409
Y205393
Y207378
X238618Y209362
X238403Y211334
X237720Y213197
X236632Y214857
X235196Y216227
X233485Y217231
X231581Y217791
X229601Y217907
X227616
X225632
X223648
X221663
X217695
X215711
X213726
X207774
X203805
X201821
X195868
X189916
X187541Y223240
Y225224
Y227208
Y229193
X182987Y228472
Y226488
Y224504
Y222520
X181116Y217880
X178010Y217907
X176026
X175604Y194722
X177966
Y192359
X175604
Y189997
Y187635
X177966
X180328
X182691
Y185273
X185053
Y187635
Y189997
X182691
X180325Y189994
X177966Y189997
X180328Y192359
X192571Y186369
X192619Y181815
X199804
Y186369
M30
