G04*
G04 #@! TF.GenerationSoftware,Altium Limited,Altium Designer,24.2.2 (26)*
G04*
G04 Layer_Color=2752767*
%FSLAX26Y26*%
%MOIN*%
G70*
G04*
G04 #@! TF.SameCoordinates,1490CFCF-B2EF-406E-B7EC-920D21FDAB99*
G04*
G04*
G04 #@! TF.FilePolarity,Positive*
G04*
G01*
G75*
%ADD109C,0.005000*%
D109*
X978396Y2023238D02*
Y2063238D01*
X1018396D01*
Y2023238D01*
X978396D01*
X986396Y2031238D02*
Y2055238D01*
X1010396D01*
Y2031238D01*
X986396D01*
X954712Y2023238D02*
Y2063238D01*
X994712D01*
Y2023238D01*
X954712D01*
X962712Y2031238D02*
Y2055238D01*
X986712D01*
Y2031238D01*
X962712D01*
X1195199Y789677D02*
Y829677D01*
X1235199D01*
Y789677D01*
X1195199D01*
X1203199Y797677D02*
Y821677D01*
X1227199D01*
Y797677D01*
X1203199D01*
X1622570Y2175010D02*
Y2215010D01*
X1662570D01*
Y2175010D01*
X1622570D01*
X1630570Y2183010D02*
Y2207010D01*
X1654570D01*
Y2183010D01*
X1630570D01*
X2276227Y1910874D02*
Y1950874D01*
X2316227D01*
Y1910874D01*
X2276227D01*
X2284227Y1918874D02*
Y1942874D01*
X2308227D01*
Y1918874D01*
X2284227D01*
X954717Y1561196D02*
Y1601196D01*
X994717D01*
Y1561196D01*
X954717D01*
X962717Y1569196D02*
Y1593196D01*
X986717D01*
Y1569196D01*
X962717D01*
X2276227Y1934559D02*
Y1974559D01*
X2316227D01*
Y1934559D01*
X2276227D01*
X2284227Y1942559D02*
Y1966559D01*
X2308227D01*
Y1942559D01*
X2284227D01*
X978402Y1561196D02*
Y1601196D01*
X1018402D01*
Y1561196D01*
X978402D01*
X986402Y1569196D02*
Y1593196D01*
X1010402D01*
Y1569196D01*
X986402D01*
X2167407Y851043D02*
Y891043D01*
X2207407D01*
Y851043D01*
X2167407D01*
X2175407Y859043D02*
Y883043D01*
X2199407D01*
Y859043D01*
X2175407D01*
X2377758Y1259812D02*
Y1299812D01*
X2417758D01*
Y1259812D01*
X2377758D01*
X2385758Y1267812D02*
Y1291812D01*
X2409758D01*
Y1267812D01*
X2385758D01*
X1819046Y1805574D02*
Y1845574D01*
X1859046D01*
Y1805574D01*
X1819046D01*
X1827046Y1813574D02*
Y1837574D01*
X1851046D01*
Y1813574D01*
X1827046D01*
X2124833Y1253969D02*
Y1293969D01*
X2164833D01*
Y1253969D01*
X2124833D01*
X2132833Y1261969D02*
Y1285969D01*
X2156833D01*
Y1261969D01*
X2132833D01*
X1944989Y1679631D02*
Y1719631D01*
X1984989D01*
Y1679631D01*
X1944989D01*
X1952989Y1687631D02*
Y1711631D01*
X1976989D01*
Y1687631D01*
X1952989D01*
X1741734Y1160997D02*
Y1200997D01*
X1781734D01*
Y1160997D01*
X1741734D01*
X1749734Y1168997D02*
Y1192997D01*
X1773734D01*
Y1168997D01*
X1749734D01*
X1373904Y1392152D02*
Y1432152D01*
X1413904D01*
Y1392152D01*
X1373904D01*
X1381904Y1400152D02*
Y1424152D01*
X1405904D01*
Y1400152D01*
X1381904D01*
X1559707Y1610838D02*
Y1650838D01*
X1599707D01*
Y1610838D01*
X1559707D01*
X1567707Y1618838D02*
Y1642838D01*
X1591707D01*
Y1618838D01*
X1567707D01*
X2121959Y1310493D02*
Y1350493D01*
X2161959D01*
Y1310493D01*
X2121959D01*
X2129959Y1318493D02*
Y1342493D01*
X2153959D01*
Y1318493D01*
X2129959D01*
X1218396Y1824040D02*
Y1864040D01*
X1258396D01*
Y1824040D01*
X1218396D01*
X1226396Y1832040D02*
Y1856040D01*
X1250396D01*
Y1832040D01*
X1226396D01*
X1447234Y1204236D02*
Y1244236D01*
X1487234D01*
Y1204236D01*
X1447234D01*
X1455234Y1212236D02*
Y1236236D01*
X1479234D01*
Y1212236D01*
X1455234D01*
X1870519Y-174934D02*
Y-134934D01*
X1910519D01*
Y-174934D01*
X1870519D01*
X1878519Y-166934D02*
Y-142934D01*
X1902519D01*
Y-166934D01*
X1878519D01*
X1488125Y1702375D02*
Y1742375D01*
X1528125D01*
Y1702375D01*
X1488125D01*
X1496125Y1710375D02*
Y1734375D01*
X1520125D01*
Y1710375D01*
X1496125D01*
X1305668Y1828944D02*
Y1868944D01*
X1345668D01*
Y1828944D01*
X1305668D01*
X1313668Y1836944D02*
Y1860944D01*
X1337668D01*
Y1836944D01*
X1313668D01*
X2127215Y2175010D02*
Y2215010D01*
X2167215D01*
Y2175010D01*
X2127215D01*
X2135215Y2183010D02*
Y2207010D01*
X2159215D01*
Y2183010D01*
X2135215D01*
X1923998Y1700621D02*
Y1740621D01*
X1963998D01*
Y1700621D01*
X1923998D01*
X1931998Y1708621D02*
Y1732621D01*
X1955998D01*
Y1708621D01*
X1931998D01*
X1889735Y2175010D02*
Y2215010D01*
X1929735D01*
Y2175010D01*
X1889735D01*
X1897735Y2183010D02*
Y2207010D01*
X1921735D01*
Y2183010D01*
X1897735D01*
X2067845Y2175010D02*
Y2215010D01*
X2107845D01*
Y2175010D01*
X2067845D01*
X2075845Y2183010D02*
Y2207010D01*
X2099845D01*
Y2183010D01*
X2075845D01*
X1397905Y1279605D02*
Y1319605D01*
X1437905D01*
Y1279605D01*
X1397905D01*
X1405905Y1287605D02*
Y1311605D01*
X1429905D01*
Y1287605D01*
X1405905D01*
X1219282Y1972451D02*
Y2012451D01*
X1259282D01*
Y1972451D01*
X1219282D01*
X1227282Y1980451D02*
Y2004451D01*
X1251282D01*
Y1980451D01*
X1227282D01*
X1672113Y1952507D02*
Y1992507D01*
X1712113D01*
Y1952507D01*
X1672113D01*
X1680113Y1960507D02*
Y1984507D01*
X1704113D01*
Y1960507D01*
X1680113D01*
X1249144Y1866911D02*
Y1906911D01*
X1289144D01*
Y1866911D01*
X1249144D01*
X1257144Y1874911D02*
Y1898911D01*
X1281144D01*
Y1874911D01*
X1257144D01*
X2312306Y1311664D02*
Y1351664D01*
X2352306D01*
Y1311664D01*
X2312306D01*
X2320306Y1319664D02*
Y1343664D01*
X2344306D01*
Y1319664D01*
X2320306D01*
X1249144Y1837226D02*
Y1877226D01*
X1289144D01*
Y1837226D01*
X1249144D01*
X1257144Y1845226D02*
Y1869226D01*
X1281144D01*
Y1845226D01*
X1257144D01*
X2103511Y1148579D02*
Y1188579D01*
X2143511D01*
Y1148579D01*
X2103511D01*
X2111511Y1156579D02*
Y1180579D01*
X2135511D01*
Y1156579D01*
X2111511D01*
X2003972Y1700585D02*
Y1740585D01*
X2043972D01*
Y1700585D01*
X2003972D01*
X2011972Y1708585D02*
Y1732585D01*
X2035972D01*
Y1708585D01*
X2011972D01*
X2340406Y1151205D02*
Y1191205D01*
X2380406D01*
Y1151205D01*
X2340406D01*
X2348406Y1159205D02*
Y1183205D01*
X2372406D01*
Y1159205D01*
X2348406D01*
X1082396Y1526001D02*
Y1566001D01*
X1122396D01*
Y1526001D01*
X1082396D01*
X1090396Y1534001D02*
Y1558001D01*
X1114396D01*
Y1534001D01*
X1090396D01*
X2166560Y1798617D02*
Y1838617D01*
X2206560D01*
Y1798617D01*
X2166560D01*
X2174560Y1806617D02*
Y1830617D01*
X2198560D01*
Y1806617D01*
X2174560D01*
X1687672Y1135121D02*
Y1175121D01*
X1727672D01*
Y1135121D01*
X1687672D01*
X1695672Y1143121D02*
Y1167121D01*
X1719672D01*
Y1143121D01*
X1695672D01*
X2223085Y645074D02*
Y685074D01*
X2263085D01*
Y645074D01*
X2223085D01*
X2231085Y653074D02*
Y677074D01*
X2255085D01*
Y653074D01*
X2231085D01*
X2151784Y1713501D02*
Y1753501D01*
X2191784D01*
Y1713501D01*
X2151784D01*
X2159784Y1721501D02*
Y1745501D01*
X2183784D01*
Y1721501D01*
X2159784D01*
X1717166Y1551601D02*
Y1591601D01*
X1757166D01*
Y1551601D01*
X1717166D01*
X1725166Y1559601D02*
Y1583601D01*
X1749166D01*
Y1559601D01*
X1725166D01*
X1162758Y1892478D02*
Y1932478D01*
X1202758D01*
Y1892478D01*
X1162758D01*
X1170758Y1900478D02*
Y1924478D01*
X1194758D01*
Y1900478D01*
X1170758D01*
X2222047Y1705109D02*
Y1745109D01*
X2262047D01*
Y1705109D01*
X2222047D01*
X2230047Y1713109D02*
Y1737109D01*
X2254047D01*
Y1713109D01*
X2230047D01*
X1441950Y1967972D02*
Y2007972D01*
X1481950D01*
Y1967972D01*
X1441950D01*
X1449950Y1975972D02*
Y1999972D01*
X1473950D01*
Y1975972D01*
X1449950D01*
X2107979Y-176036D02*
Y-136036D01*
X2147979D01*
Y-176036D01*
X2107979D01*
X2115979Y-168036D02*
Y-144036D01*
X2139979D01*
Y-168036D01*
X2115979D01*
X2166560Y619379D02*
Y659379D01*
X2206560D01*
Y619379D01*
X2166560D01*
X2174560Y627379D02*
Y651379D01*
X2198560D01*
Y627379D01*
X2174560D01*
X1708663Y1114130D02*
Y1154130D01*
X1748663D01*
Y1114130D01*
X1708663D01*
X1716663Y1122130D02*
Y1146130D01*
X1740663D01*
Y1122130D01*
X1716663D01*
X1162758Y2011218D02*
Y2051218D01*
X1202758D01*
Y2011218D01*
X1162758D01*
X1170758Y2019218D02*
Y2043218D01*
X1194758D01*
Y2019218D01*
X1170758D01*
X2223085Y585704D02*
Y625704D01*
X2263085D01*
Y585704D01*
X2223085D01*
X2231085Y593704D02*
Y617704D01*
X2255085D01*
Y593704D01*
X2231085D01*
X1746851Y1551601D02*
Y1591601D01*
X1786851D01*
Y1551601D01*
X1746851D01*
X1754851Y1559601D02*
Y1583601D01*
X1778851D01*
Y1559601D01*
X1754851D01*
X1657345Y1244524D02*
Y1284524D01*
X1697345D01*
Y1244524D01*
X1657345D01*
X1665345Y1252524D02*
Y1276524D01*
X1689345D01*
Y1252524D01*
X1665345D01*
X2162247Y1142478D02*
Y1182478D01*
X2202247D01*
Y1142478D01*
X2162247D01*
X2170247Y1150478D02*
Y1174478D01*
X2194247D01*
Y1150478D01*
X2170247D01*
X1834606Y988187D02*
Y1028187D01*
X1874606D01*
Y988187D01*
X1834606D01*
X1842606Y996187D02*
Y1020187D01*
X1866606D01*
Y996187D01*
X1842606D01*
X1164162Y1417638D02*
Y1457638D01*
X1204162D01*
Y1417638D01*
X1164162D01*
X1172162Y1425638D02*
Y1449638D01*
X1196162D01*
Y1425638D01*
X1172162D01*
X2223085Y1883201D02*
Y1923201D01*
X2263085D01*
Y1883201D01*
X2223085D01*
X2231085Y1891201D02*
Y1915201D01*
X2255085D01*
Y1891201D01*
X2231085D01*
X1305668Y1799259D02*
Y1839259D01*
X1345668D01*
Y1799259D01*
X1305668D01*
X1313668Y1807259D02*
Y1831259D01*
X1337668D01*
Y1807259D01*
X1313668D01*
X1162758Y1922163D02*
Y1962163D01*
X1202758D01*
Y1922163D01*
X1162758D01*
X1170758Y1930163D02*
Y1954163D01*
X1194758D01*
Y1930163D01*
X1170758D01*
X2218772Y1332922D02*
Y1372922D01*
X2258772D01*
Y1332922D01*
X2218772D01*
X2226772Y1340922D02*
Y1364922D01*
X2250772D01*
Y1340922D01*
X2226772D01*
X1204489Y1797813D02*
Y1837813D01*
X1244489D01*
Y1797813D01*
X1204489D01*
X1212489Y1805813D02*
Y1829813D01*
X1236489D01*
Y1805813D01*
X1212489D01*
X2223085Y1764461D02*
Y1804461D01*
X2263085D01*
Y1764461D01*
X2223085D01*
X2231085Y1772461D02*
Y1796461D01*
X2255085D01*
Y1772461D01*
X2231085D01*
X1374643Y1332792D02*
Y1372792D01*
X1414643D01*
Y1332792D01*
X1374643D01*
X1382643Y1340792D02*
Y1364792D01*
X1406643D01*
Y1340792D01*
X1382643D01*
X1858184Y-58878D02*
Y-18878D01*
X1898184D01*
Y-58878D01*
X1858184D01*
X1866184Y-50878D02*
Y-26878D01*
X1890184D01*
Y-50878D01*
X1866184D01*
X2162247Y1427275D02*
Y1467275D01*
X2202247D01*
Y1427275D01*
X2162247D01*
X2170247Y1435275D02*
Y1459275D01*
X2194247D01*
Y1435275D01*
X2170247D01*
X1776536Y1551601D02*
Y1591601D01*
X1816536D01*
Y1551601D01*
X1776536D01*
X1784536Y1559601D02*
Y1583601D01*
X1808536D01*
Y1559601D01*
X1784536D01*
X1857039Y1847519D02*
Y1887519D01*
X1897039D01*
Y1847519D01*
X1857039D01*
X1865039Y1855519D02*
Y1879519D01*
X1889039D01*
Y1855519D01*
X1865039D01*
X1380572Y1303705D02*
Y1343705D01*
X1420572D01*
Y1303705D01*
X1380572D01*
X1388572Y1311705D02*
Y1335705D01*
X1412572D01*
Y1311705D01*
X1388572D01*
X1305668Y1947684D02*
Y1987684D01*
X1345668D01*
Y1947684D01*
X1305668D01*
X1313668Y1955684D02*
Y1979684D01*
X1337668D01*
Y1955684D01*
X1313668D01*
X1830364Y2175010D02*
Y2215010D01*
X1870364D01*
Y2175010D01*
X1830364D01*
X1838364Y2183010D02*
Y2207010D01*
X1862364D01*
Y2183010D01*
X1838364D01*
X2398126Y1327310D02*
Y1367310D01*
X2438126D01*
Y1327310D01*
X2398126D01*
X2406126Y1335310D02*
Y1359310D01*
X2430126D01*
Y1335310D01*
X2406126D01*
X1806221Y1551601D02*
Y1591601D01*
X1846221D01*
Y1551601D01*
X1806221D01*
X1814221Y1559601D02*
Y1583601D01*
X1838221D01*
Y1559601D01*
X1814221D01*
X2133064Y1205103D02*
Y1245103D01*
X2173064D01*
Y1205103D01*
X2133064D01*
X2141064Y1213103D02*
Y1237103D01*
X2165064D01*
Y1213103D01*
X2141064D01*
X1305668Y1888314D02*
Y1928314D01*
X1345668D01*
Y1888314D01*
X1305668D01*
X1313668Y1896314D02*
Y1920314D01*
X1337668D01*
Y1896314D01*
X1313668D01*
X1939558Y883235D02*
Y923235D01*
X1979558D01*
Y883235D01*
X1939558D01*
X1947558Y891235D02*
Y915235D01*
X1971558D01*
Y891235D01*
X1947558D01*
X2209869Y469627D02*
Y509627D01*
X2249869D01*
Y469627D01*
X2209869D01*
X2217869Y477627D02*
Y501627D01*
X2241869D01*
Y477627D01*
X2217869D01*
X2223085Y1794146D02*
Y1834146D01*
X2263085D01*
Y1794146D01*
X2223085D01*
X2231085Y1802146D02*
Y1826146D01*
X2255085D01*
Y1802146D01*
X2231085D01*
X1800679Y2175010D02*
Y2215010D01*
X1840679D01*
Y2175010D01*
X1800679D01*
X1808679Y2183010D02*
Y2207010D01*
X1832679D01*
Y2183010D01*
X1808679D01*
X1194733Y1761430D02*
Y1801430D01*
X1234733D01*
Y1761430D01*
X1194733D01*
X1202733Y1769430D02*
Y1793430D01*
X1226733D01*
Y1769430D01*
X1202733D01*
X2337160Y-184442D02*
Y-144442D01*
X2377160D01*
Y-184442D01*
X2337160D01*
X2345160Y-176442D02*
Y-152442D01*
X2369160D01*
Y-176442D01*
X2345160D01*
X2151644Y1310493D02*
Y1350493D01*
X2191644D01*
Y1310493D01*
X2151644D01*
X2159644Y1318493D02*
Y1342493D01*
X2183644D01*
Y1318493D01*
X2159644D01*
X1458440Y1702375D02*
Y1742375D01*
X1498440D01*
Y1702375D01*
X1458440D01*
X1466440Y1710375D02*
Y1734375D01*
X1490440D01*
Y1710375D01*
X1466440D01*
X1628353Y1555384D02*
Y1595384D01*
X1668353D01*
Y1555384D01*
X1628353D01*
X1636353Y1563384D02*
Y1587384D01*
X1660353D01*
Y1563384D01*
X1636353D01*
X2048609Y-176036D02*
Y-136036D01*
X2088609D01*
Y-176036D01*
X2048609D01*
X2056609Y-168036D02*
Y-144036D01*
X2080609D01*
Y-168036D01*
X2056609D01*
X2086491Y736302D02*
Y776302D01*
X2126491D01*
Y736302D01*
X2086491D01*
X2094491Y744302D02*
Y768302D01*
X2118491D01*
Y744302D01*
X2094491D01*
X1178940Y1474163D02*
Y1514163D01*
X1218940D01*
Y1474163D01*
X1178940D01*
X1186940Y1482163D02*
Y1506163D01*
X1210940D01*
Y1482163D01*
X1186940D01*
X2427811Y1327310D02*
Y1367310D01*
X2467811D01*
Y1327310D01*
X2427811D01*
X2435811Y1335310D02*
Y1359310D01*
X2459811D01*
Y1335310D01*
X2435811D01*
X2066943Y1637614D02*
Y1677614D01*
X2106943D01*
Y1637614D01*
X2066943D01*
X2074943Y1645614D02*
Y1669614D01*
X2098943D01*
Y1645614D01*
X2074943D01*
X1134478Y1417792D02*
Y1457792D01*
X1174478D01*
Y1417792D01*
X1134478D01*
X1142478Y1425792D02*
Y1449792D01*
X1166478D01*
Y1425792D01*
X1142478D01*
X1841121Y-3711D02*
Y36289D01*
X1881121D01*
Y-3711D01*
X1841121D01*
X1849121Y4289D02*
Y28289D01*
X1873121D01*
Y4289D01*
X1849121D01*
X2107482Y715311D02*
Y755311D01*
X2147482D01*
Y715311D01*
X2107482D01*
X2115482Y723311D02*
Y747311D01*
X2139482D01*
Y723311D01*
X2115482D01*
X2218772Y1061518D02*
Y1101518D01*
X2258772D01*
Y1061518D01*
X2218772D01*
X2226772Y1069518D02*
Y1093518D01*
X2250772D01*
Y1069518D01*
X2226772D01*
X2166560Y1768932D02*
Y1808932D01*
X2206560D01*
Y1768932D01*
X2166560D01*
X2174560Y1776932D02*
Y1800932D01*
X2198560D01*
Y1776932D01*
X2174560D01*
X1111363Y1519512D02*
Y1559512D01*
X1151363D01*
Y1519512D01*
X1111363D01*
X1119363Y1527512D02*
Y1551512D01*
X1143363D01*
Y1527512D01*
X1119363D01*
X2218772Y1120888D02*
Y1160888D01*
X2258772D01*
Y1120888D01*
X2218772D01*
X2226772Y1128888D02*
Y1152888D01*
X2250772D01*
Y1128888D01*
X2226772D01*
X2340406Y1240259D02*
Y1280259D01*
X2380406D01*
Y1240259D01*
X2340406D01*
X2348406Y1248259D02*
Y1272259D01*
X2372406D01*
Y1248259D01*
X2348406D01*
X1106477Y1427648D02*
Y1467648D01*
X1146477D01*
Y1427648D01*
X1106477D01*
X1114477Y1435648D02*
Y1459648D01*
X1138477D01*
Y1435648D01*
X1114477D01*
X2161543Y741188D02*
Y781188D01*
X2201543D01*
Y741188D01*
X2161543D01*
X2169543Y749188D02*
Y773188D01*
X2193543D01*
Y749188D01*
X2169543D01*
X1149255Y1474163D02*
Y1514163D01*
X1189255D01*
Y1474163D01*
X1149255D01*
X1157255Y1482163D02*
Y1506163D01*
X1181255D01*
Y1482163D01*
X1157255D01*
X1565974Y1204236D02*
Y1244236D01*
X1605974D01*
Y1204236D01*
X1565974D01*
X1573974Y1212236D02*
Y1236236D01*
X1597974D01*
Y1212236D01*
X1573974D01*
X2067899Y453144D02*
Y493144D01*
X2107899D01*
Y453144D01*
X2067899D01*
X2075899Y461144D02*
Y485144D01*
X2099899D01*
Y461144D01*
X2075899D01*
X2162247Y1112793D02*
Y1152793D01*
X2202247D01*
Y1112793D01*
X2162247D01*
X2170247Y1120793D02*
Y1144793D01*
X2194247D01*
Y1120793D01*
X2170247D01*
X1972629Y930102D02*
Y970102D01*
X2012629D01*
Y930102D01*
X1972629D01*
X1980629Y938102D02*
Y962102D01*
X2004629D01*
Y938102D01*
X1980629D01*
X2340406Y-65880D02*
Y-25881D01*
X2380406D01*
Y-65880D01*
X2340406D01*
X2348406Y-57880D02*
Y-33880D01*
X2372406D01*
Y-57880D01*
X2348406D01*
X1961991Y1742566D02*
Y1782566D01*
X2001991D01*
Y1742566D01*
X1961991D01*
X1969991Y1750566D02*
Y1774566D01*
X1993991D01*
Y1750566D01*
X1969991D01*
X1945708Y1354424D02*
Y1394424D01*
X1985708D01*
Y1354424D01*
X1945708D01*
X1953708Y1362424D02*
Y1386424D01*
X1977708D01*
Y1362424D01*
X1953708D01*
X1624701Y1198092D02*
Y1238092D01*
X1664701D01*
Y1198092D01*
X1624701D01*
X1632701Y1206092D02*
Y1230092D01*
X1656701D01*
Y1206092D01*
X1632701D01*
X2544457Y1219992D02*
Y1259992D01*
X2584457D01*
Y1219992D01*
X2544457D01*
X2552457Y1227992D02*
Y1251992D01*
X2576457D01*
Y1227992D01*
X2552457D01*
X1374643Y1362477D02*
Y1402477D01*
X1414643D01*
Y1362477D01*
X1374643D01*
X1382643Y1370477D02*
Y1394477D01*
X1406643D01*
Y1370477D01*
X1382643D01*
X2166560Y1828302D02*
Y1868302D01*
X2206560D01*
Y1828302D01*
X2166560D01*
X2174560Y1836302D02*
Y1860302D01*
X2198560D01*
Y1836302D01*
X2174560D01*
X2283881Y1142062D02*
Y1182062D01*
X2323881D01*
Y1142062D01*
X2283881D01*
X2291881Y1150062D02*
Y1174062D01*
X2315881D01*
Y1150062D01*
X2291881D01*
X998504Y1517788D02*
Y1557788D01*
X1038504D01*
Y1517788D01*
X998504D01*
X1006504Y1525788D02*
Y1549788D01*
X1030504D01*
Y1525788D01*
X1006504D01*
X1693103Y1931516D02*
Y1971516D01*
X1733103D01*
Y1931516D01*
X1693103D01*
X1701103Y1939516D02*
Y1963516D01*
X1725103D01*
Y1939516D01*
X1701103D01*
X2097530Y2175010D02*
Y2215010D01*
X2137530D01*
Y2175010D01*
X2097530D01*
X2105530Y2183010D02*
Y2207010D01*
X2129530D01*
Y2183010D01*
X2105530D01*
X1860050Y2175010D02*
Y2215010D01*
X1900050D01*
Y2175010D01*
X1860050D01*
X1868050Y2183010D02*
Y2207010D01*
X1892050D01*
Y2183010D01*
X1868050D01*
X1951638Y951093D02*
Y991093D01*
X1991638D01*
Y951093D01*
X1951638D01*
X1959638Y959093D02*
Y983093D01*
X1983638D01*
Y959093D01*
X1959638D01*
X2122099Y1713501D02*
Y1753501D01*
X2162099D01*
Y1713501D01*
X2122099D01*
X2130099Y1721501D02*
Y1745501D01*
X2154099D01*
Y1721501D01*
X2130099D01*
X2150352Y907486D02*
Y947486D01*
X2190352D01*
Y907486D01*
X2150352D01*
X2158352Y915486D02*
Y939486D01*
X2182352D01*
Y915486D01*
X2158352D01*
X2162247Y964368D02*
Y1004368D01*
X2202247D01*
Y964368D01*
X2162247D01*
X2170247Y972368D02*
Y996368D01*
X2194247D01*
Y972368D01*
X2170247D01*
X1311307Y1693673D02*
Y1733673D01*
X1351307D01*
Y1693673D01*
X1311307D01*
X1319307Y1701673D02*
Y1725673D01*
X1343307D01*
Y1701673D01*
X1319307D01*
X2197034Y-176036D02*
Y-136036D01*
X2237034D01*
Y-176036D01*
X2197034D01*
X2205034Y-168036D02*
Y-144036D01*
X2229034D01*
Y-168036D01*
X2205034D01*
X2137664Y-176036D02*
Y-136036D01*
X2177664D01*
Y-176036D01*
X2137664D01*
X2145664Y-168036D02*
Y-144036D01*
X2169664D01*
Y-168036D01*
X2145664D01*
X1840036Y1784583D02*
Y1824583D01*
X1880036D01*
Y1784583D01*
X1840036D01*
X1848036Y1792583D02*
Y1816583D01*
X1872036D01*
Y1792583D01*
X1848036D01*
X2218772Y1002148D02*
Y1042148D01*
X2258772D01*
Y1002148D01*
X2218772D01*
X2226772Y1010148D02*
Y1034148D01*
X2250772D01*
Y1010148D01*
X2226772D01*
X2220147Y674613D02*
Y714613D01*
X2260147D01*
Y674613D01*
X2220147D01*
X2228147Y682613D02*
Y706613D01*
X2252147D01*
Y682613D01*
X2228147D01*
X1208625Y1474163D02*
Y1514163D01*
X1248625D01*
Y1474163D01*
X1208625D01*
X1216625Y1482163D02*
Y1506163D01*
X1240625D01*
Y1482163D01*
X1216625D01*
X1193847Y1417638D02*
Y1457638D01*
X1233847D01*
Y1417638D01*
X1193847D01*
X1201847Y1425638D02*
Y1449638D01*
X1225847D01*
Y1425638D01*
X1201847D01*
X1828577Y1381371D02*
Y1421371D01*
X1868577D01*
Y1381371D01*
X1828577D01*
X1836577Y1389371D02*
Y1413371D01*
X1860577D01*
Y1389371D01*
X1836577D01*
X1752086Y1952471D02*
Y1992471D01*
X1792086D01*
Y1952471D01*
X1752086D01*
X1760086Y1960471D02*
Y1984471D01*
X1784086D01*
Y1960471D01*
X1760086D01*
X1517808Y1702065D02*
Y1742065D01*
X1557808D01*
Y1702065D01*
X1517808D01*
X1525808Y1710065D02*
Y1734065D01*
X1549808D01*
Y1710065D01*
X1525808D01*
X2340406Y1210574D02*
Y1250574D01*
X2380406D01*
Y1210574D01*
X2340406D01*
X2348406Y1218574D02*
Y1242574D01*
X2372406D01*
Y1218574D01*
X2348406D01*
X2223085Y556019D02*
Y596019D01*
X2263085D01*
Y556019D01*
X2223085D01*
X2231085Y564019D02*
Y588019D01*
X2255085D01*
Y564019D01*
X2231085D01*
X2214202Y883762D02*
Y923762D01*
X2254202D01*
Y883762D01*
X2214202D01*
X2222202Y891762D02*
Y915762D01*
X2246202D01*
Y891762D01*
X2222202D01*
X2455135Y1270785D02*
Y1310785D01*
X2495135D01*
Y1270785D01*
X2455135D01*
X2463135Y1278785D02*
Y1302785D01*
X2487135D01*
Y1278785D01*
X2463135D01*
X1666682Y1156111D02*
Y1196111D01*
X1706682D01*
Y1156111D01*
X1666682D01*
X1674682Y1164111D02*
Y1188111D01*
X1698682D01*
Y1164111D01*
X1674682D01*
X1929869Y-176036D02*
Y-136036D01*
X1969869D01*
Y-176036D01*
X1929869D01*
X1937869Y-168036D02*
Y-144036D01*
X1961869D01*
Y-168036D01*
X1937869D01*
X1281864Y1643781D02*
Y1683781D01*
X1321864D01*
Y1643781D01*
X1281864D01*
X1289864Y1651781D02*
Y1675781D01*
X1313864D01*
Y1651781D01*
X1289864D01*
X1282808Y1716798D02*
Y1756798D01*
X1322808D01*
Y1716798D01*
X1282808D01*
X1290808Y1724798D02*
Y1748798D01*
X1314808D01*
Y1724798D01*
X1290808D01*
X2283573Y-164077D02*
Y-124077D01*
X2323573D01*
Y-164077D01*
X2283573D01*
X2291573Y-156077D02*
Y-132077D01*
X2315573D01*
Y-156077D01*
X2291573D01*
X2428178Y1258354D02*
Y1298354D01*
X2468178D01*
Y1258354D01*
X2428178D01*
X2436178Y1266354D02*
Y1290354D01*
X2460178D01*
Y1266354D01*
X2436178D01*
X2036438Y1710322D02*
Y1750322D01*
X2076438D01*
Y1710322D01*
X2036438D01*
X2044438Y1718322D02*
Y1742322D01*
X2068438D01*
Y1718322D01*
X2044438D01*
X2283881Y1231117D02*
Y1271117D01*
X2323881D01*
Y1231117D01*
X2283881D01*
X2291881Y1239117D02*
Y1263117D01*
X2315881D01*
Y1239117D01*
X2291881D01*
X1801660Y-73287D02*
Y-33287D01*
X1841660D01*
Y-73287D01*
X1801660D01*
X1809660Y-65287D02*
Y-41287D01*
X1833660D01*
Y-65287D01*
X1809660D01*
X2283881Y370252D02*
Y410252D01*
X2323881D01*
Y370252D01*
X2283881D01*
X2291881Y378252D02*
Y402252D01*
X2315881D01*
Y378252D01*
X2291881D01*
X1762724Y1140007D02*
Y1180007D01*
X1802724D01*
Y1140007D01*
X1762724D01*
X1770724Y1148007D02*
Y1172007D01*
X1794724D01*
Y1148007D01*
X1770724D01*
X1305668Y1917999D02*
Y1957999D01*
X1345668D01*
Y1917999D01*
X1305668D01*
X1313668Y1925999D02*
Y1949999D01*
X1337668D01*
Y1925999D01*
X1313668D01*
X2087934Y1616623D02*
Y1656623D01*
X2127934D01*
Y1616623D01*
X2087934D01*
X2095934Y1624623D02*
Y1648623D01*
X2119934D01*
Y1624623D01*
X2095934D01*
X1219282Y1883396D02*
Y1923396D01*
X1259282D01*
Y1883396D01*
X1219282D01*
X1227282Y1891396D02*
Y1915396D01*
X1251282D01*
Y1891396D01*
X1227282D01*
X2368441Y1327310D02*
Y1367310D01*
X2408441D01*
Y1327310D01*
X2368441D01*
X2376441Y1335310D02*
Y1359310D01*
X2400441D01*
Y1335310D01*
X2376441D01*
X2162247Y1023738D02*
Y1063738D01*
X2202247D01*
Y1023738D01*
X2162247D01*
X2170247Y1031738D02*
Y1055738D01*
X2194247D01*
Y1031738D01*
X2170247D01*
X2183966Y1257708D02*
Y1297708D01*
X2223966D01*
Y1257708D01*
X2183966D01*
X2191966Y1265708D02*
Y1289708D01*
X2215966D01*
Y1265708D01*
X2191966D01*
X1223500Y1416246D02*
Y1456246D01*
X1263500D01*
Y1416246D01*
X1223500D01*
X1231500Y1424246D02*
Y1448246D01*
X1255500D01*
Y1424246D01*
X1231500D01*
X2108038Y850961D02*
Y890961D01*
X2148038D01*
Y850961D01*
X2108038D01*
X2116038Y858961D02*
Y882961D01*
X2140038D01*
Y858961D01*
X2116038D01*
X2162247Y1367905D02*
Y1407905D01*
X2202247D01*
Y1367905D01*
X2162247D01*
X2170247Y1375905D02*
Y1399905D01*
X2194247D01*
Y1375905D01*
X2170247D01*
X2340406Y-95566D02*
Y-55566D01*
X2380406D01*
Y-95566D01*
X2340406D01*
X2348406Y-87566D02*
Y-63566D01*
X2372406D01*
Y-87566D01*
X2348406D01*
X1423547Y1264650D02*
Y1304650D01*
X1463547D01*
Y1264650D01*
X1423547D01*
X1431547Y1272650D02*
Y1296650D01*
X1455547D01*
Y1272650D01*
X1431547D01*
X2166560Y560009D02*
Y600009D01*
X2206560D01*
Y560009D01*
X2166560D01*
X2174560Y568009D02*
Y592009D01*
X2198560D01*
Y568009D01*
X2174560D01*
X2078390Y852446D02*
Y892446D01*
X2118390D01*
Y852446D01*
X2078390D01*
X2086390Y860446D02*
Y884446D01*
X2110390D01*
Y860446D01*
X2086390D01*
X1219282Y1853711D02*
Y1893711D01*
X1259282D01*
Y1853711D01*
X1219282D01*
X1227282Y1861711D02*
Y1885711D01*
X1251282D01*
Y1861711D01*
X1227282D01*
X2218772Y913093D02*
Y953093D01*
X2258772D01*
Y913093D01*
X2218772D01*
X2226772Y921093D02*
Y945093D01*
X2250772D01*
Y921093D01*
X2226772D01*
X2283881Y1082692D02*
Y1122692D01*
X2323881D01*
Y1082692D01*
X2283881D01*
X2291881Y1090692D02*
Y1114692D01*
X2315881D01*
Y1090692D01*
X2291881D01*
X2218415Y1303240D02*
Y1343240D01*
X2258415D01*
Y1303240D01*
X2218415D01*
X2226415Y1311240D02*
Y1335240D01*
X2250415D01*
Y1311240D01*
X2226415D01*
X2223085Y1912886D02*
Y1952886D01*
X2263085D01*
Y1912886D01*
X2223085D01*
X2231085Y1920886D02*
Y1944886D01*
X2255085D01*
Y1920886D01*
X2231085D01*
X1389658Y1217188D02*
Y1257188D01*
X1429658D01*
Y1217188D01*
X1389658D01*
X1397658Y1225188D02*
Y1249188D01*
X1421658D01*
Y1225188D01*
X1397658D01*
X1965979Y1658640D02*
Y1698640D01*
X2005979D01*
Y1658640D01*
X1965979D01*
X1973979Y1666640D02*
Y1690640D01*
X1997979D01*
Y1666640D01*
X1973979D01*
X2547287Y1278143D02*
Y1318143D01*
X2587287D01*
Y1278143D01*
X2547287D01*
X2555287Y1286143D02*
Y1310143D01*
X2579287D01*
Y1286143D01*
X2555287D01*
X2283881Y1112377D02*
Y1152377D01*
X2323881D01*
Y1112377D01*
X2283881D01*
X2291881Y1120377D02*
Y1144377D01*
X2315881D01*
Y1120377D01*
X2291881D01*
X2044141Y1148579D02*
Y1188579D01*
X2084141D01*
Y1148579D01*
X2044141D01*
X2052141Y1156579D02*
Y1180579D01*
X2076141D01*
Y1156579D01*
X2052141D01*
X1814613Y9652D02*
Y49652D01*
X1854613D01*
Y9652D01*
X1814613D01*
X1822613Y17652D02*
Y41652D01*
X1846613D01*
Y17652D01*
X1822613D01*
X2162749Y1205103D02*
Y1245103D01*
X2202749D01*
Y1205103D01*
X2162749D01*
X2170749Y1213103D02*
Y1237103D01*
X2194749D01*
Y1213103D01*
X2170749D01*
X1249679Y2015332D02*
Y2055331D01*
X1289679D01*
Y2015332D01*
X1249679D01*
X1257679Y2023332D02*
Y2047332D01*
X1281679D01*
Y2023332D01*
X1257679D01*
X1428755Y1702375D02*
Y1742375D01*
X1468755D01*
Y1702375D01*
X1428755D01*
X1436755Y1710375D02*
Y1734375D01*
X1460755D01*
Y1710375D01*
X1436755D01*
X1305668Y1858629D02*
Y1898629D01*
X1345668D01*
Y1858629D01*
X1305668D01*
X1313668Y1866629D02*
Y1890629D01*
X1337668D01*
Y1866629D01*
X1313668D01*
X2154518Y1253969D02*
Y1293969D01*
X2194518D01*
Y1253969D01*
X2154518D01*
X2162518Y1261969D02*
Y1285969D01*
X2186518D01*
Y1261969D01*
X2162518D01*
X2218772Y1481347D02*
Y1521347D01*
X2258772D01*
Y1481347D01*
X2218772D01*
X2226772Y1489347D02*
Y1513347D01*
X2250772D01*
Y1489347D01*
X2226772D01*
X1224418Y1761430D02*
Y1801430D01*
X1264418D01*
Y1761430D01*
X1224418D01*
X1232418Y1769430D02*
Y1793430D01*
X1256418D01*
Y1769430D01*
X1232418D01*
X2218772Y1091203D02*
Y1131203D01*
X2258772D01*
Y1091203D01*
X2218772D01*
X2226772Y1099203D02*
Y1123203D01*
X2250772D01*
Y1099203D01*
X2226772D01*
X1417734Y1207547D02*
Y1247547D01*
X1457734D01*
Y1207547D01*
X1417734D01*
X1425734Y1215547D02*
Y1239547D01*
X1449734D01*
Y1215547D01*
X1425734D01*
X1960549Y862245D02*
Y902245D01*
X2000549D01*
Y862245D01*
X1960549D01*
X1968549Y870245D02*
Y894245D01*
X1992549D01*
Y870245D01*
X1968549D01*
X1954999Y1206734D02*
Y1246734D01*
X1994999D01*
Y1206734D01*
X1954999D01*
X1962999Y1214734D02*
Y1238734D01*
X1986999D01*
Y1214734D01*
X1962999D01*
X2166560Y1917357D02*
Y1957357D01*
X2206560D01*
Y1917357D01*
X2166560D01*
X2174560Y1925357D02*
Y1949357D01*
X2198560D01*
Y1925357D01*
X2174560D01*
X1219282Y1913081D02*
Y1953081D01*
X1259282D01*
Y1913081D01*
X1219282D01*
X1227282Y1921081D02*
Y1945081D01*
X1251282D01*
Y1921081D01*
X1227282D01*
X2203524Y699207D02*
Y739207D01*
X2243524D01*
Y699207D01*
X2203524D01*
X2211524Y707207D02*
Y731207D01*
X2235524D01*
Y707207D01*
X2211524D01*
X2218772Y1150573D02*
Y1190573D01*
X2258772D01*
Y1150573D01*
X2218772D01*
X2226772Y1158573D02*
Y1182573D01*
X2250772D01*
Y1158573D01*
X2226772D01*
X2120667Y907486D02*
Y947486D01*
X2160667D01*
Y907486D01*
X2120667D01*
X2128667Y915486D02*
Y939486D01*
X2152667D01*
Y915486D01*
X2128667D01*
X1162758Y1951848D02*
Y1991848D01*
X1202758D01*
Y1951848D01*
X1162758D01*
X1170758Y1959848D02*
Y1983848D01*
X1194758D01*
Y1959848D01*
X1170758D01*
X2038159Y2175010D02*
Y2215010D01*
X2078160D01*
Y2175010D01*
X2038159D01*
X2046159Y2183010D02*
Y2207010D01*
X2070160D01*
Y2183010D01*
X2046159D01*
X2103379Y1205103D02*
Y1245103D01*
X2143379D01*
Y1205103D01*
X2103379D01*
X2111379Y1213103D02*
Y1237103D01*
X2135379D01*
Y1213103D01*
X2111379D01*
X2162247Y1397590D02*
Y1437590D01*
X2202247D01*
Y1397590D01*
X2162247D01*
X2170247Y1405590D02*
Y1429590D01*
X2194247D01*
Y1405590D01*
X2170247D01*
X1162758Y1862793D02*
Y1902793D01*
X1202758D01*
Y1862793D01*
X1162758D01*
X1170758Y1870793D02*
Y1894793D01*
X1194758D01*
Y1870793D01*
X1170758D01*
X2338850Y1324953D02*
Y1364953D01*
X2378850D01*
Y1324953D01*
X2338850D01*
X2346850Y1332953D02*
Y1356953D01*
X2370850D01*
Y1332953D01*
X2346850D01*
X1178000Y1784415D02*
Y1824415D01*
X1218000D01*
Y1784415D01*
X1178000D01*
X1186000Y1792415D02*
Y1816415D01*
X1210000D01*
Y1792415D01*
X1186000D01*
X1634498Y1615986D02*
Y1655986D01*
X1674498D01*
Y1615986D01*
X1634498D01*
X1642498Y1623986D02*
Y1647986D01*
X1666498D01*
Y1623986D01*
X1642498D01*
X2283881Y1201432D02*
Y1241432D01*
X2323881D01*
Y1201432D01*
X2283881D01*
X2291881Y1209432D02*
Y1233432D01*
X2315881D01*
Y1209432D01*
X2291881D01*
X2402515Y1243433D02*
Y1283433D01*
X2442515D01*
Y1243433D01*
X2402515D01*
X2410515Y1251433D02*
Y1275433D01*
X2434515D01*
Y1251433D01*
X2410515D01*
X2166560Y1947042D02*
Y1987042D01*
X2206560D01*
Y1947042D01*
X2166560D01*
X2174560Y1955042D02*
Y1979042D01*
X2198560D01*
Y1955042D01*
X2174560D01*
X2223085Y1853516D02*
Y1893516D01*
X2263085D01*
Y1853516D01*
X2223085D01*
X2231085Y1861516D02*
Y1885516D01*
X2255085D01*
Y1861516D01*
X2231085D01*
X1919419Y2175010D02*
Y2215010D01*
X1959419D01*
Y2175010D01*
X1919419D01*
X1927419Y2183010D02*
Y2207010D01*
X1951419D01*
Y2183010D01*
X1927419D01*
X2018924Y-176036D02*
Y-136036D01*
X2058924D01*
Y-176036D01*
X2018924D01*
X2026924Y-168036D02*
Y-144036D01*
X2050924D01*
Y-168036D01*
X2026924D01*
X1855596Y967197D02*
Y1007197D01*
X1895596D01*
Y967197D01*
X1855596D01*
X1863596Y975197D02*
Y999197D01*
X1887596D01*
Y975197D01*
X1863596D01*
X2137723Y850961D02*
Y890961D01*
X2177723D01*
Y850961D01*
X2137723D01*
X2145723Y858961D02*
Y882961D01*
X2169723D01*
Y858961D01*
X2145723D01*
X1225657Y1704906D02*
Y1744906D01*
X1265657D01*
Y1704906D01*
X1225657D01*
X1233657Y1712906D02*
Y1736906D01*
X1257657D01*
Y1712906D01*
X1233657D01*
X1770995Y2175010D02*
Y2215010D01*
X1810995D01*
Y2175010D01*
X1770995D01*
X1778995Y2183010D02*
Y2207010D01*
X1802995D01*
Y2183010D01*
X1778995D01*
X2223085Y526334D02*
Y566334D01*
X2263085D01*
Y526334D01*
X2223085D01*
X2231085Y534334D02*
Y558334D01*
X2255085D01*
Y534334D01*
X2231085D01*
X1087728Y1450663D02*
Y1490663D01*
X1127728D01*
Y1450663D01*
X1087728D01*
X1095728Y1458663D02*
Y1482663D01*
X1119728D01*
Y1458663D01*
X1095728D01*
X1274600Y1672563D02*
Y1712563D01*
X1314600D01*
Y1672563D01*
X1274600D01*
X1282600Y1680563D02*
Y1704563D01*
X1306600D01*
Y1680563D01*
X1282600D01*
X1261036Y2042758D02*
Y2082758D01*
X1301036D01*
Y2042758D01*
X1261036D01*
X1269036Y2050758D02*
Y2074758D01*
X1293036D01*
Y2050758D01*
X1269036D01*
X2073826Y1148579D02*
Y1188579D01*
X2113826D01*
Y1148579D01*
X2073826D01*
X2081826Y1156579D02*
Y1180579D01*
X2105826D01*
Y1156579D01*
X2081826D01*
X1249144Y1926281D02*
Y1966281D01*
X1289144D01*
Y1926281D01*
X1249144D01*
X1257144Y1934281D02*
Y1958281D01*
X1281144D01*
Y1934281D01*
X1257144D01*
X1801733Y-162342D02*
Y-122342D01*
X1841733D01*
Y-162342D01*
X1801733D01*
X1809733Y-154342D02*
Y-130342D01*
X1833733D01*
Y-154342D01*
X1809733D01*
X2551682Y1248785D02*
Y1288785D01*
X2591682D01*
Y1248785D01*
X2551682D01*
X2559682Y1256785D02*
Y1280785D01*
X2583682D01*
Y1256785D01*
X2559682D01*
X1903008Y1721612D02*
Y1761612D01*
X1943008D01*
Y1721612D01*
X1903008D01*
X1911008Y1729612D02*
Y1753612D01*
X1935008D01*
Y1729612D01*
X1911008D01*
X2182533Y720197D02*
Y760197D01*
X2222533D01*
Y720197D01*
X2182533D01*
X2190533Y728197D02*
Y752197D01*
X2214533D01*
Y728197D01*
X2190533D01*
X2037896Y892809D02*
Y932809D01*
X2077896D01*
Y892809D01*
X2037896D01*
X2045896Y900809D02*
Y924809D01*
X2069896D01*
Y900809D01*
X2045896D01*
X1219282Y1942766D02*
Y1982766D01*
X1259282D01*
Y1942766D01*
X1219282D01*
X1227282Y1950766D02*
Y1974766D01*
X1251282D01*
Y1950766D01*
X1227282D01*
X2218772Y942778D02*
Y982778D01*
X2258772D01*
Y942778D01*
X2218772D01*
X2226772Y950778D02*
Y974778D01*
X2250772D01*
Y950778D01*
X2226772D01*
X2133196Y1148579D02*
Y1188579D01*
X2173196D01*
Y1148579D01*
X2133196D01*
X2141196Y1156579D02*
Y1180579D01*
X2165196D01*
Y1156579D01*
X2141196D01*
X2218772Y1392292D02*
Y1432292D01*
X2258772D01*
Y1392292D01*
X2218772D01*
X2226772Y1400292D02*
Y1424292D01*
X2250772D01*
Y1400292D01*
X2226772D01*
X1064767Y1469477D02*
Y1509477D01*
X1104767D01*
Y1469477D01*
X1064767D01*
X1072767Y1477477D02*
Y1501477D01*
X1096767D01*
Y1477477D01*
X1072767D01*
X2283881Y1171747D02*
Y1211747D01*
X2323881D01*
Y1171747D01*
X2283881D01*
X2291881Y1179747D02*
Y1203747D01*
X2315881D01*
Y1179747D01*
X2291881D01*
X1249144Y1807541D02*
Y1847541D01*
X1289144D01*
Y1807541D01*
X1249144D01*
X1257144Y1815541D02*
Y1839541D01*
X1281144D01*
Y1815541D01*
X1257144D01*
X1300995Y1740259D02*
Y1780259D01*
X1340995D01*
Y1740259D01*
X1300995D01*
X1308995Y1748259D02*
Y1772259D01*
X1332995D01*
Y1748259D01*
X1308995D01*
X1249144Y1955966D02*
Y1995966D01*
X1289144D01*
Y1955966D01*
X1249144D01*
X1257144Y1963966D02*
Y1987966D01*
X1281144D01*
Y1963966D01*
X1257144D01*
X2167349Y-176036D02*
Y-136036D01*
X2207349D01*
Y-176036D01*
X2167349D01*
X2175349Y-168036D02*
Y-144036D01*
X2199349D01*
Y-168036D01*
X2175349D01*
X2218772Y1031833D02*
Y1071833D01*
X2258772D01*
Y1031833D01*
X2218772D01*
X2226772Y1039833D02*
Y1063833D01*
X2250772D01*
Y1039833D01*
X2226772D01*
X1926723Y1157560D02*
Y1197560D01*
X1966723D01*
Y1157560D01*
X1926723D01*
X1934723Y1165560D02*
Y1189560D01*
X1958723D01*
Y1165560D01*
X1934723D01*
X1714094Y1910526D02*
Y1950526D01*
X1754094D01*
Y1910526D01*
X1714094D01*
X1722094Y1918526D02*
Y1942526D01*
X1746094D01*
Y1918526D01*
X1722094D01*
X2455285Y1229740D02*
Y1269740D01*
X2495285D01*
Y1229740D01*
X2455285D01*
X2463285Y1237740D02*
Y1261740D01*
X2487285D01*
Y1237740D01*
X2463285D01*
X1249144Y1896596D02*
Y1936596D01*
X1289144D01*
Y1896596D01*
X1249144D01*
X1257144Y1904596D02*
Y1928596D01*
X1281144D01*
Y1904596D01*
X1257144D01*
X1918568Y904226D02*
Y944226D01*
X1958568D01*
Y904226D01*
X1918568D01*
X1926568Y912226D02*
Y936226D01*
X1950568D01*
Y912226D01*
X1926568D01*
X1950652Y1236099D02*
Y1276099D01*
X1990652D01*
Y1236099D01*
X1950652D01*
X1958652Y1244099D02*
Y1268099D01*
X1982652D01*
Y1244099D01*
X1958652D01*
X2478879Y1327359D02*
Y1367359D01*
X2518879D01*
Y1327359D01*
X2478879D01*
X2486879Y1335359D02*
Y1359359D01*
X2510879D01*
Y1335359D01*
X2486879D01*
X2045359Y472461D02*
Y512461D01*
X2085359D01*
Y472461D01*
X2045359D01*
X2053359Y480461D02*
Y504461D01*
X2077359D01*
Y480461D01*
X2053359D01*
X2218772Y1421977D02*
Y1461977D01*
X2258772D01*
Y1421977D01*
X2218772D01*
X2226772Y1429977D02*
Y1453977D01*
X2250772D01*
Y1429977D01*
X2226772D01*
X1867676Y1035054D02*
Y1075054D01*
X1907676D01*
Y1035054D01*
X1867676D01*
X1875676Y1043054D02*
Y1067054D01*
X1899676D01*
Y1043054D01*
X1875676D01*
X2213411Y1179770D02*
Y1219770D01*
X2253411D01*
Y1179770D01*
X2213411D01*
X2221411Y1187770D02*
Y1211770D01*
X2245411D01*
Y1187770D01*
X2221411D01*
X1195972Y1704906D02*
Y1744906D01*
X1235972D01*
Y1704906D01*
X1195972D01*
X1203972Y1712906D02*
Y1736906D01*
X1227972D01*
Y1712906D01*
X1203972D01*
X2218772Y1451662D02*
Y1491662D01*
X2258772D01*
Y1451662D01*
X2218772D01*
X2226772Y1459662D02*
Y1483662D01*
X2250772D01*
Y1459662D01*
X2226772D01*
X1878029Y1826528D02*
Y1866528D01*
X1918029D01*
Y1826528D01*
X1878029D01*
X1886029Y1834528D02*
Y1858528D01*
X1910029D01*
Y1834528D01*
X1886029D01*
X2340406Y23174D02*
Y63175D01*
X2380406D01*
Y23174D01*
X2340406D01*
X2348406Y31174D02*
Y55175D01*
X2372406D01*
Y31174D01*
X2348406D01*
X2340406Y52859D02*
Y92859D01*
X2380406D01*
Y52859D01*
X2340406D01*
X2348406Y60859D02*
Y84859D01*
X2372406D01*
Y60859D01*
X2348406D01*
X2340406Y-154935D02*
Y-114936D01*
X2380406D01*
Y-154935D01*
X2340406D01*
X2348406Y-146935D02*
Y-122936D01*
X2372406D01*
Y-146935D01*
X2348406D01*
X1858184Y-147933D02*
Y-107933D01*
X1898184D01*
Y-147933D01*
X1858184D01*
X1866184Y-139933D02*
Y-115933D01*
X1890184D01*
Y-139933D01*
X1866184D01*
X1305668Y1977369D02*
Y2017369D01*
X1345668D01*
Y1977369D01*
X1305668D01*
X1313668Y1985369D02*
Y2009369D01*
X1337668D01*
Y1985369D01*
X1313668D01*
X2223085Y1942571D02*
Y1982571D01*
X2263085D01*
Y1942571D01*
X2223085D01*
X2231085Y1950571D02*
Y1974571D01*
X2255085D01*
Y1950571D01*
X2231085D01*
X1219282Y2031821D02*
Y2071821D01*
X1259282D01*
Y2031821D01*
X1219282D01*
X1227282Y2039821D02*
Y2063821D01*
X1251282D01*
Y2039821D01*
X1227282D01*
X1687481Y1551601D02*
Y1591601D01*
X1727481D01*
Y1551601D01*
X1687481D01*
X1695481Y1559601D02*
Y1583601D01*
X1719481D01*
Y1559601D01*
X1695481D01*
X2218772Y1362607D02*
Y1402607D01*
X2258772D01*
Y1362607D01*
X2218772D01*
X2226772Y1370607D02*
Y1394607D01*
X2250772D01*
Y1370607D01*
X2226772D01*
X1882791Y1415212D02*
Y1455212D01*
X1922791D01*
Y1415212D01*
X1882791D01*
X1890791Y1423212D02*
Y1447212D01*
X1914791D01*
Y1423212D01*
X1890791D01*
X2284346Y1260798D02*
Y1300798D01*
X2324346D01*
Y1260798D01*
X2284346D01*
X2292346Y1268798D02*
Y1292798D01*
X2316346D01*
Y1268798D01*
X2292346D01*
X2166560Y589694D02*
Y629694D01*
X2206560D01*
Y589694D01*
X2166560D01*
X2174560Y597694D02*
Y621694D01*
X2198560D01*
Y597694D01*
X2174560D01*
X1645691Y1177102D02*
Y1217102D01*
X1685691D01*
Y1177102D01*
X1645691D01*
X1653691Y1185102D02*
Y1209102D01*
X1677691D01*
Y1185102D01*
X1653691D01*
X1657796Y1551601D02*
Y1591601D01*
X1697796D01*
Y1551601D01*
X1657796D01*
X1665796Y1559601D02*
Y1583601D01*
X1689796D01*
Y1559601D01*
X1665796D01*
X2192058Y1200391D02*
Y1240391D01*
X2232058D01*
Y1200391D01*
X2192058D01*
X2200058Y1208391D02*
Y1232391D01*
X2224058D01*
Y1208391D01*
X2200058D01*
X2340406Y-125251D02*
Y-85251D01*
X2380406D01*
Y-125251D01*
X2340406D01*
X2348406Y-117251D02*
Y-93251D01*
X2372406D01*
Y-117251D01*
X2348406D01*
X2209521Y1678197D02*
Y1718197D01*
X2249521D01*
Y1678197D01*
X2209521D01*
X2217521Y1686197D02*
Y1710197D01*
X2241521D01*
Y1686197D01*
X2217521D01*
X1538717Y1631829D02*
Y1671829D01*
X1578717D01*
Y1631829D01*
X1538717D01*
X1546717Y1639829D02*
Y1663829D01*
X1570717D01*
Y1639829D01*
X1546717D01*
X1900184Y-176036D02*
Y-136036D01*
X1940184D01*
Y-176036D01*
X1900184D01*
X1908184Y-168036D02*
Y-144036D01*
X1932184D01*
Y-168036D01*
X1908184D01*
X2195465Y860737D02*
Y900737D01*
X2235465D01*
Y860737D01*
X2195465D01*
X2203465Y868737D02*
Y892737D01*
X2227465D01*
Y868737D01*
X2203465D01*
X2052496Y866963D02*
Y906963D01*
X2092496D01*
Y866963D01*
X2052496D01*
X2060496Y874963D02*
Y898963D01*
X2084496D01*
Y874963D01*
X2060496D01*
X1941001Y1763557D02*
Y1803557D01*
X1981001D01*
Y1763557D01*
X1941001D01*
X1949001Y1771557D02*
Y1795557D01*
X1973001D01*
Y1771557D01*
X1949001D01*
X2672028Y2047716D02*
Y2087716D01*
X2712028D01*
Y2047716D01*
X2672028D01*
X2680028Y2055716D02*
Y2079716D01*
X2704028D01*
Y2055716D01*
X2680028D01*
X1494210Y1423543D02*
Y1463543D01*
X1534210D01*
Y1423543D01*
X1494210D01*
X1502210Y1431543D02*
Y1455543D01*
X1526210D01*
Y1431543D01*
X1502210D01*
X2672028Y1997716D02*
Y2037716D01*
X2712028D01*
Y1997716D01*
X2672028D01*
X2680028Y2005716D02*
Y2029716D01*
X2704028D01*
Y2005716D01*
X2680028D01*
X1465778Y1423543D02*
Y1463543D01*
X1505778D01*
Y1423543D01*
X1465778D01*
X1473778Y1431543D02*
Y1455543D01*
X1497778D01*
Y1431543D01*
X1473778D01*
X1689406Y2051289D02*
Y2091289D01*
X1729406D01*
Y2051289D01*
X1689406D01*
X1697406Y2059289D02*
Y2083289D01*
X1721406D01*
Y2059289D01*
X1697406D01*
X1689406Y2027604D02*
Y2067604D01*
X1729406D01*
Y2027604D01*
X1689406D01*
X1697406Y2035604D02*
Y2059604D01*
X1721406D01*
Y2035604D01*
X1697406D01*
X1730965Y255780D02*
Y295779D01*
X1770965D01*
Y255780D01*
X1730965D01*
X1738965Y263779D02*
Y287779D01*
X1762965D01*
Y263779D01*
X1738965D01*
X1491753Y539692D02*
Y579692D01*
X1531753D01*
Y539692D01*
X1491753D01*
X1499753Y547692D02*
Y571692D01*
X1523753D01*
Y547692D01*
X1499753D01*
X1468068Y539692D02*
Y579692D01*
X1508068D01*
Y539692D01*
X1468068D01*
X1476068Y547692D02*
Y571692D01*
X1500068D01*
Y547692D01*
X1476068D01*
X1450108Y1048190D02*
Y1088190D01*
X1490108D01*
Y1048190D01*
X1450108D01*
X1458108Y1056190D02*
Y1080190D01*
X1482108D01*
Y1056190D01*
X1458108D01*
X1195199Y765992D02*
Y805992D01*
X1235199D01*
Y765992D01*
X1195199D01*
X1203199Y773992D02*
Y797992D01*
X1227199D01*
Y773992D01*
X1203199D01*
X1509163Y1048190D02*
Y1088190D01*
X1549163D01*
Y1048190D01*
X1509163D01*
X1517163Y1056190D02*
Y1080190D01*
X1541163D01*
Y1056190D01*
X1517163D01*
X1676866Y-27558D02*
Y12442D01*
X1716866D01*
Y-27558D01*
X1676866D01*
X1684866Y-19558D02*
Y4442D01*
X1708866D01*
Y-19558D01*
X1684866D01*
X2772028Y1047716D02*
Y1087716D01*
X2812028D01*
Y1047716D01*
X2772028D01*
X2780028Y1055716D02*
Y1079716D01*
X2804028D01*
Y1055716D01*
X2780028D01*
X2772028Y997716D02*
Y1037716D01*
X2812028D01*
Y997716D01*
X2772028D01*
X2780028Y1005716D02*
Y1029716D01*
X2804028D01*
Y1005716D01*
X2780028D01*
X1195199Y1161724D02*
Y1201724D01*
X1235199D01*
Y1161724D01*
X1195199D01*
X1203199Y1169724D02*
Y1193724D01*
X1227199D01*
Y1169724D01*
X1203199D01*
X1195199Y1138039D02*
Y1178039D01*
X1235199D01*
Y1138039D01*
X1195199D01*
X1203199Y1146039D02*
Y1170039D01*
X1227199D01*
Y1146039D01*
X1203199D01*
X1689406Y1648281D02*
Y1688281D01*
X1729406D01*
Y1648281D01*
X1689406D01*
X1697406Y1656281D02*
Y1680281D01*
X1721406D01*
Y1656281D01*
X1697406D01*
X1689406Y1624596D02*
Y1664596D01*
X1729406D01*
Y1624596D01*
X1689406D01*
X1697406Y1632596D02*
Y1656596D01*
X1721406D01*
Y1632596D01*
X1697406D01*
X1689406Y1245274D02*
Y1285274D01*
X1729406D01*
Y1245274D01*
X1689406D01*
X1697406Y1253274D02*
Y1277274D01*
X1721406D01*
Y1253274D01*
X1697406D01*
X1689406Y1221589D02*
Y1261589D01*
X1729406D01*
Y1221589D01*
X1689406D01*
X1697406Y1229589D02*
Y1253589D01*
X1721406D01*
Y1229589D01*
X1697406D01*
X1689406Y842266D02*
Y882266D01*
X1729406D01*
Y842266D01*
X1689406D01*
X1697406Y850266D02*
Y874266D01*
X1721406D01*
Y850266D01*
X1697406D01*
X1689406Y818581D02*
Y858581D01*
X1729406D01*
Y818581D01*
X1689406D01*
X1697406Y826581D02*
Y850581D01*
X1721406D01*
Y826581D01*
X1697406D01*
X1472151Y1602416D02*
Y1642416D01*
X1512151D01*
Y1602416D01*
X1472151D01*
X1480151Y1610416D02*
Y1634416D01*
X1504151D01*
Y1610416D01*
X1480151D01*
X1448466Y1602416D02*
Y1642416D01*
X1488466D01*
Y1602416D01*
X1448466D01*
X1456466Y1610416D02*
Y1634416D01*
X1480466D01*
Y1610416D01*
X1456466D01*
X2472028Y1797716D02*
Y1837716D01*
X2512028D01*
Y1797716D01*
X2472028D01*
X2480028Y1805716D02*
Y1829716D01*
X2504028D01*
Y1805716D01*
X2480028D01*
X2472028Y1847716D02*
Y1887716D01*
X2512028D01*
Y1847716D01*
X2472028D01*
X2480028Y1855716D02*
Y1879716D01*
X2504028D01*
Y1855716D01*
X2480028D01*
M02*
