G04*
G04 #@! TF.GenerationSoftware,Altium Limited,Altium Designer,24.2.2 (26)*
G04*
G04 Layer_Color=2752767*
%FSLAX26Y26*%
%MOIN*%
G70*
G04*
G04 #@! TF.SameCoordinates,1490CFCF-B2EF-406E-B7EC-920D21FDAB99*
G04*
G04*
G04 #@! TF.FilePolarity,Positive*
G04*
G01*
G75*
%ADD109C,0.005000*%
D109*
X1800928Y-29420D02*
X1780928Y10580D01*
X1820928D01*
X1800928Y-29420D01*
Y-21420D02*
X1788928Y2580D01*
X1812928D01*
X1800928Y-21420D01*
Y-5735D02*
X1780928Y34265D01*
X1820928D01*
X1800928Y-5735D01*
Y2265D02*
X1788928Y26265D01*
X1812928D01*
X1800928Y2265D01*
X2096675Y927058D02*
X2076675Y967058D01*
X2116675D01*
X2096675Y927058D01*
Y935058D02*
X2084675Y959058D01*
X2108675D01*
X2096675Y935058D01*
X2072537Y927058D02*
X2052537Y967058D01*
X2092537D01*
X2072537Y927058D01*
Y935058D02*
X2060537Y959058D01*
X2084537D01*
X2072537Y935058D01*
X2096675Y1330066D02*
X2076675Y1370066D01*
X2116675D01*
X2096675Y1330066D01*
Y1338066D02*
X2084675Y1362066D01*
X2108675D01*
X2096675Y1338066D01*
X2072537Y1330066D02*
X2052537Y1370066D01*
X2092537D01*
X2072537Y1330066D01*
Y1338066D02*
X2060537Y1362066D01*
X2084537D01*
X2072537Y1338066D01*
X1178205Y1745010D02*
X1158205Y1785010D01*
X1198205D01*
X1178205Y1745010D01*
Y1753010D02*
X1166205Y1777010D01*
X1190205D01*
X1178205Y1753010D01*
Y1721325D02*
X1158205Y1761325D01*
X1198205D01*
X1178205Y1721325D01*
Y1729325D02*
X1166205Y1753325D01*
X1190205D01*
X1178205Y1729325D01*
Y1685955D02*
X1158205Y1725955D01*
X1198205D01*
X1178205Y1685955D01*
Y1693955D02*
X1166205Y1717955D01*
X1190205D01*
X1178205Y1693955D01*
Y1662270D02*
X1158205Y1702270D01*
X1198205D01*
X1178205Y1662270D01*
Y1670270D02*
X1166205Y1694270D01*
X1190205D01*
X1178205Y1670270D01*
Y1823750D02*
X1158205Y1863750D01*
X1198205D01*
X1178205Y1823750D01*
Y1831750D02*
X1166205Y1855750D01*
X1190205D01*
X1178205Y1831750D01*
X2072537Y1733073D02*
X2052537Y1773073D01*
X2092537D01*
X2072537Y1733073D01*
Y1741073D02*
X2060537Y1765073D01*
X2084537D01*
X2072537Y1741073D01*
X1178205Y1800065D02*
X1158205Y1840065D01*
X1198205D01*
X1178205Y1800065D01*
Y1808065D02*
X1166205Y1832065D01*
X1190205D01*
X1178205Y1808065D01*
X2096675Y1733073D02*
X2076675Y1773073D01*
X2116675D01*
X2096675Y1733073D01*
Y1741073D02*
X2084675Y1765073D01*
X2108675D01*
X2096675Y1741073D01*
X2072537Y524051D02*
X2052537Y564051D01*
X2092537D01*
X2072537Y524051D01*
Y532051D02*
X2060537Y556051D01*
X2084537D01*
X2072537Y532051D01*
X2096675Y524051D02*
X2076675Y564051D01*
X2116675D01*
X2096675Y524051D01*
Y532051D02*
X2084675Y556051D01*
X2108675D01*
X2096675Y532051D01*
X235349Y265906D02*
X215349Y305906D01*
X255349D01*
X235349Y265906D01*
Y273906D02*
X223349Y297906D01*
X247349D01*
X235349Y273906D01*
X211582Y265906D02*
X191582Y305906D01*
X231582D01*
X211582Y265906D01*
Y273906D02*
X199582Y297906D01*
X223582D01*
X211582Y273906D01*
X1033772Y1541511D02*
X1013772Y1581511D01*
X1053772D01*
X1033772Y1541511D01*
Y1549511D02*
X1021772Y1573511D01*
X1045772D01*
X1033772Y1549511D01*
X1057457Y1541511D02*
X1037457Y1581511D01*
X1077457D01*
X1057457Y1541511D01*
Y1549511D02*
X1045457Y1573511D01*
X1069457D01*
X1057457Y1549511D01*
M02*
