G04*
G04 #@! TF.GenerationSoftware,Altium Limited,Altium Designer,24.2.2 (26)*
G04*
G04 Layer_Physical_Order=7*
G04 Layer_Color=128*
%FSLAX26Y26*%
%MOIN*%
G70*
G04*
G04 #@! TF.SameCoordinates,1490CFCF-B2EF-406E-B7EC-920D21FDAB99*
G04*
G04*
G04 #@! TF.FilePolarity,Negative*
G04*
G01*
G75*
%ADD13C,0.010000*%
%ADD128C,0.000100*%
%ADD133C,0.073024*%
G04:AMPARAMS|DCode=134|XSize=93.37mil|YSize=93.37mil|CornerRadius=0mil|HoleSize=0mil|Usage=FLASHONLY|Rotation=0.000|XOffset=0mil|YOffset=0mil|HoleType=Round|Shape=Relief|Width=12mil|Gap=7mil|Entries=4|*
%AMTHD134*
7,0,0,0.093370,0.079370,0.012000,45*
%
%ADD134THD134*%
%ADD135C,0.051370*%
%ADD136C,0.062000*%
%ADD139C,0.029716*%
%ADD140C,0.021843*%
%ADD143C,0.010000*%
%ADD144C,0.053339*%
%ADD145C,0.041528*%
%ADD146C,0.049402*%
%ADD147C,0.071055*%
%ADD148C,0.118299*%
G36*
X459551Y1680043D02*
X672340D01*
X724350Y1732053D01*
X799043Y1732708D01*
Y1922526D01*
X459551D01*
Y1680043D01*
D02*
G37*
D13*
X-228346Y-66929D02*
G03*
X-208662Y-86614I19685J0D01*
G01*
X633858Y-106299D02*
G03*
X614173Y-86615I-19684J0D01*
G01*
X633858Y-196850D02*
G03*
X653543Y-216535I19685J0D01*
G01*
X2854331Y-216536D02*
G03*
X2874016Y-196851I0J19685D01*
G01*
X2874016Y2480315D02*
G03*
X2854331Y2500000I-19685J0D01*
G01*
X2854331D02*
G03*
X2854330Y2500000I0J0D01*
G01*
X464567Y2500000D02*
G03*
X444882Y2480315I0J-19685D01*
G01*
X425195Y2397636D02*
G03*
X444882Y2417323I0J19687D01*
G01*
X375480Y2397637D02*
G03*
X375482Y2397636I2J2D01*
G01*
X375480Y2397637D02*
G03*
X375480Y2397638I0J1D01*
G01*
X37411Y2397638D02*
G03*
X19684Y2379910I0J-17727D01*
G01*
X-0Y2314961D02*
G03*
X19684Y2334645I0J19685D01*
G01*
X-208662Y2314960D02*
G03*
X-228347Y2295276I0J-19685D01*
G01*
X2007897Y555718D02*
Y577643D01*
X1701170Y90243D02*
Y119757D01*
X811346Y2013257D02*
X846039D01*
Y1960017D02*
Y2013257D01*
Y1960017D02*
X874802Y1931254D01*
X102830Y2013257D02*
X811346D01*
X874802Y1624703D02*
Y1931254D01*
X1323802Y-104797D02*
Y-89405D01*
X142939Y2123143D02*
Y2397638D01*
X82092Y2123143D02*
X142939D01*
X-76206Y1998224D02*
X82092Y2123143D01*
X-77107Y1479191D02*
X45254Y1375976D01*
X-77107Y1479191D02*
Y1732760D01*
X186458Y262967D02*
Y1045352D01*
X45092D02*
Y1376113D01*
X61567Y1732708D02*
X291349Y1404746D01*
Y1045352D02*
Y1404746D01*
X522145D01*
X45092Y1045352D02*
X185203D01*
X291349D01*
X2602195Y142185D02*
Y242716D01*
X1187066Y621998D02*
X1416903Y433539D01*
X773465Y621998D02*
X1187066D01*
X522145Y1016570D02*
X773465Y784695D01*
X1187066D01*
X773465Y621998D02*
Y784695D01*
X1187066Y621998D02*
Y784695D01*
X773136Y1345719D02*
X773465Y1264370D01*
X1187066D01*
X773465Y1183021D02*
Y1264370D01*
X1187066Y1183021D02*
Y1345719D01*
X773136D02*
X1187066D01*
X522145Y1016570D02*
Y1404746D01*
X1828318Y276901D02*
Y390680D01*
X1623916Y676209D02*
X1828318Y390680D01*
X1623916Y676209D02*
X1623916Y2190230D01*
X375480D02*
X1623916D01*
X1858026Y247193D02*
X1869815D01*
X1828318Y276901D02*
X1858026Y247193D01*
X-77107Y1732760D02*
X-77024Y1998224D01*
X653543Y-216535D02*
X836015Y-216536D01*
X633858Y-196850D02*
X633858Y-106299D01*
X633858Y-106300D02*
Y-106299D01*
X653543Y-216535D02*
X653543D01*
X-208662Y-86615D02*
X614173D01*
X2874016Y-196851D02*
Y-196850D01*
X836015Y-216536D02*
X2854331D01*
X2874016Y-196851D02*
Y286392D01*
X2874016Y286392D02*
Y2480315D01*
X2854331Y2500000D02*
X2854331D01*
X2007897Y2500000D02*
X2854330D01*
X464567Y2500000D02*
X2007897D01*
X444882Y2417323D02*
Y2480315D01*
X375482Y2397636D02*
X425195D01*
X142939Y2397638D02*
X375480D01*
X19684Y2334645D02*
Y2377953D01*
X-0Y2314961D02*
X-0D01*
X39370Y2397638D02*
X142939Y2397638D01*
X-208662Y2314960D02*
X-0Y2314961D01*
X-228347Y2295276D02*
X-228346Y-66929D01*
X773465Y703346D02*
X1187066D01*
X773465Y1183021D02*
X1187066D01*
X1620705Y167652D02*
X1701170D01*
Y119757D02*
Y167652D01*
X1725095Y90243D02*
X1837609D01*
X1620705Y167652D02*
Y288132D01*
Y90243D02*
X2072261D01*
X1610602D02*
X1620705D01*
X1416903Y283942D02*
X1610602Y90243D01*
X2007897Y1901958D02*
X2083162D01*
X2107401Y1881137D02*
Y1972288D01*
X2083162Y1901958D02*
Y1972288D01*
X2107401D01*
X2049620Y1502173D02*
Y1881137D01*
X2107401D01*
X-77107Y1732708D02*
X61567D01*
X2007897Y385275D02*
Y493936D01*
X1869815Y247193D02*
X2007897Y385275D01*
Y486062D02*
Y2492126D01*
X1571312Y288132D02*
X1620705D01*
X1461436Y398008D02*
X1571312Y288132D01*
X1461436Y398008D02*
Y433539D01*
X1416903D02*
X1461436D01*
X1416903Y283942D02*
Y433539D01*
X836015Y16201D02*
X976359D01*
X1097357Y-104797D01*
X975660Y16201D02*
Y262967D01*
X102830Y1922526D02*
X799043D01*
X2049620Y1099315D02*
X2083162D01*
X2107401Y1076445D02*
Y1125265D01*
X2083162Y1099315D02*
Y1125265D01*
X2107401D01*
X2049620Y1479303D02*
X2107401D01*
X2083162Y1526756D02*
X2107401Y1527431D01*
X2049620Y1502173D02*
X2083162D01*
Y1526756D01*
X2107401Y1479303D02*
Y1527431D01*
X799043Y1732053D02*
Y1922526D01*
X724350Y1732053D02*
X799043D01*
X672340Y1680043D02*
X724350Y1732053D01*
X459551Y1680043D02*
Y1922526D01*
Y1680043D02*
X649165D01*
X375480Y2190230D02*
Y2397638D01*
X836015Y-216536D02*
Y16201D01*
X1343399Y-46024D02*
X1374178Y-76802D01*
X2049620Y1099315D02*
Y1479303D01*
X2007897Y555718D02*
X2049620D01*
X2675242Y438428D02*
X2721980D01*
X2374734Y392716D02*
X2667028D01*
X2675242Y300901D02*
Y438428D01*
X2721980D02*
X2874016Y286392D01*
X186458Y262967D02*
X975660D01*
X2692028Y517716D02*
Y617716D01*
X2592028Y517716D02*
Y617716D01*
Y517716D02*
X2692028D01*
X2072261Y90243D02*
X2294654Y312636D01*
X2374734Y392716D01*
X2182328Y-76802D02*
X2501847Y242716D01*
X1374178Y-76802D02*
X2182328D01*
X1323802Y-46024D02*
X1343399D01*
X1323802Y-89405D02*
Y-46024D01*
X2234299Y-104797D02*
X2433593Y94497D01*
X1097357Y-104797D02*
X2234299D01*
X2717028Y142185D02*
Y300901D01*
X2675242D02*
X2717028D01*
X2501847Y242716D02*
X2602195D01*
X2481281Y142185D02*
X2717028D01*
X2433593Y94497D02*
X2481281Y142185D01*
X2107401Y673587D02*
Y720360D01*
X2049620Y695774D02*
X2083162D01*
X2049620Y673587D02*
X2107401D01*
X2049620Y555718D02*
Y673587D01*
Y1076445D02*
X2107401D01*
X2049620Y695774D02*
Y1076445D01*
X2083162Y720360D02*
X2107401D01*
X2083162Y695774D02*
Y720360D01*
X2592028Y617716D02*
X2692028D01*
X102830Y1922526D02*
Y2013257D01*
X649165Y1624703D02*
X874802D01*
X649165Y1680043D02*
X672340D01*
X649165Y1624703D02*
Y1680043D01*
X799043Y1758264D02*
Y1855229D01*
X496599Y1924098D02*
X730174D01*
X459551Y1727269D02*
Y1887050D01*
D128*
X633858Y-106299D02*
G03*
X614173Y-86614I-19684J0D01*
G01*
X633858Y-196850D02*
G03*
X653543Y-216535I19685J0D01*
G01*
X2854331Y-216535D02*
G03*
X2874016Y-196850I0J19685D01*
G01*
X2874015Y2480315D02*
G03*
X2854331Y2500000I-19684J0D01*
G01*
X464567Y2500000D02*
G03*
X444882Y2480315I0J-19685D01*
G01*
X425197Y2397638D02*
G03*
X444881Y2417323I0J19684D01*
G01*
X39370Y2397638D02*
G03*
X19685Y2377953I0J-19685D01*
G01*
X-0Y2314961D02*
G03*
X19684Y2334645I1J19684D01*
G01*
X-208662Y2314960D02*
G03*
X-228346Y2295276I-0J-19685D01*
G01*
Y-66929D02*
G03*
X-208662Y-86614I19685J-0D01*
G01*
X-208662D02*
X578740Y-86614D01*
X614173D01*
X633858Y-196850D02*
Y-106299D01*
X653543Y-216535D02*
X2854331Y-216535D01*
X2874016Y2480315D02*
X2874016Y-196850D01*
X464567Y2500000D02*
X2854331Y2500000D01*
X444882Y2417323D02*
X444882Y2480315D01*
X409449Y2397638D02*
X425197Y2397638D01*
X314961Y2397638D02*
X409449Y2397638D01*
X39370Y2397638D02*
X314961Y2397638D01*
X19684Y2334645D02*
X19685Y2377953D01*
X-19685Y2314961D02*
X-0D01*
X-78740Y2314961D02*
X-19685Y2314961D01*
X-208662Y2314960D02*
X-78740Y2314961D01*
X-228346Y-66929D02*
Y2295276D01*
D133*
X1034295Y522244D02*
D03*
Y900197D02*
D03*
Y1083268D02*
D03*
Y1461220D02*
D03*
D134*
X486139Y2049731D02*
D03*
D135*
X1130204Y315250D02*
D03*
X1030204D02*
D03*
X546452Y-15428D02*
D03*
X246452D02*
D03*
X346452D02*
D03*
X446452D02*
D03*
X386139Y1687254D02*
D03*
X286139Y1808080D02*
D03*
X386139D02*
D03*
X286139Y1928905D02*
D03*
X386139D02*
D03*
Y2049731D02*
D03*
X286139D02*
D03*
X793865Y315250D02*
D03*
X893865D02*
D03*
D136*
X2567028Y2213189D02*
D03*
X2446950Y72244D02*
D03*
D139*
X1800928Y-9420D02*
D03*
Y14265D02*
D03*
X2096675Y947058D02*
D03*
X2072537D02*
D03*
X2096675Y1350066D02*
D03*
X2072537D02*
D03*
X1178205Y1765010D02*
D03*
Y1741325D02*
D03*
Y1705955D02*
D03*
Y1682270D02*
D03*
Y1843750D02*
D03*
X2072537Y1753073D02*
D03*
X1178205Y1820065D02*
D03*
X2096675Y1753073D02*
D03*
X2072537Y544051D02*
D03*
X2096675D02*
D03*
X235349Y285906D02*
D03*
X211582D02*
D03*
X1033772Y1561511D02*
D03*
X1057457D02*
D03*
D140*
X231646Y2180978D02*
D03*
X247092Y2162945D02*
D03*
X295304Y2143651D02*
D03*
X318926D02*
D03*
Y2120028D02*
D03*
X295304D02*
D03*
X271682D02*
D03*
Y2143651D02*
D03*
Y2190894D02*
D03*
Y2167273D02*
D03*
X224438Y2214517D02*
D03*
X248060D02*
D03*
X271682D02*
D03*
Y2332626D02*
D03*
X248060Y2309005D02*
D03*
X271682D02*
D03*
Y2285383D02*
D03*
X248060D02*
D03*
X271682Y2238139D02*
D03*
X248060D02*
D03*
X224438Y2261760D02*
D03*
X248060D02*
D03*
X271682D02*
D03*
X224438Y2238139D02*
D03*
X137211Y2191350D02*
D03*
Y2144106D02*
D03*
Y2167728D02*
D03*
X229700Y2324422D02*
D03*
X354960Y2154840D02*
D03*
X231375Y2134922D02*
D03*
X176376Y2108969D02*
D03*
X305147Y2316733D02*
D03*
X1711570Y187838D02*
D03*
X1863149Y249415D02*
D03*
X499524Y1751859D02*
D03*
Y1775480D02*
D03*
Y1799102D02*
D03*
Y1822725D02*
D03*
Y1846347D02*
D03*
Y1869968D02*
D03*
X567243Y1716540D02*
D03*
X590865D02*
D03*
X614487D02*
D03*
X638109D02*
D03*
X713752Y1855072D02*
D03*
X696715Y1872109D02*
D03*
X514323Y1889147D02*
D03*
X537945D02*
D03*
X561567D02*
D03*
X585189D02*
D03*
X608811D02*
D03*
X632433D02*
D03*
X656055D02*
D03*
X998396Y2043238D02*
D03*
X974712D02*
D03*
X1215199Y809677D02*
D03*
X1642570Y2195010D02*
D03*
X1449213Y900097D02*
D03*
X1433766Y918131D02*
D03*
X1618558Y1980796D02*
D03*
Y1577788D02*
D03*
Y1174781D02*
D03*
Y771773D02*
D03*
X2148533Y1250022D02*
D03*
X2187892Y398918D02*
D03*
X2169858Y383473D02*
D03*
X909783Y1694107D02*
D03*
Y1717729D02*
D03*
X933404D02*
D03*
X957027D02*
D03*
X1015642Y1724042D02*
D03*
X986854Y1717392D02*
D03*
X1045609Y1764973D02*
D03*
X1021987D02*
D03*
X1045609Y1859461D02*
D03*
Y1835839D02*
D03*
X1021987Y1883083D02*
D03*
Y1835839D02*
D03*
Y1859461D02*
D03*
X955613Y1912848D02*
D03*
X927499Y1741351D02*
D03*
X951121D02*
D03*
X927499Y1764973D02*
D03*
X951121D02*
D03*
X903877D02*
D03*
Y1741351D02*
D03*
X998365Y1764973D02*
D03*
X974743D02*
D03*
X998365Y1741351D02*
D03*
X974743D02*
D03*
Y1883083D02*
D03*
X951121D02*
D03*
X974743Y1859461D02*
D03*
X951121D02*
D03*
X998365D02*
D03*
Y1883083D02*
D03*
X903877Y1859461D02*
D03*
X927499D02*
D03*
X903877Y1883083D02*
D03*
X927499D02*
D03*
X974743Y1788595D02*
D03*
X998365D02*
D03*
X974743Y1812217D02*
D03*
X998365D02*
D03*
Y1835839D02*
D03*
X974743D02*
D03*
X903877D02*
D03*
X927499D02*
D03*
X951121D02*
D03*
X903877Y1788595D02*
D03*
Y1812217D02*
D03*
X951121D02*
D03*
X927499D02*
D03*
X951121Y1788595D02*
D03*
X927499D02*
D03*
X2250500Y1634330D02*
D03*
X2235054Y1652364D02*
D03*
X1422915Y1336220D02*
D03*
X1438361Y1318186D02*
D03*
X1181572Y2067744D02*
D03*
X1163539Y2052298D02*
D03*
X7851Y1885176D02*
D03*
X-39393D02*
D03*
X-5311Y2022486D02*
D03*
X-50256Y1968752D02*
D03*
X143221Y1621841D02*
D03*
Y1598219D02*
D03*
X119599D02*
D03*
X95977D02*
D03*
X72355Y1621841D02*
D03*
X95977D02*
D03*
X119599D02*
D03*
X72355Y1598219D02*
D03*
X119599Y1645463D02*
D03*
Y1669085D02*
D03*
X72355Y1716329D02*
D03*
X95977D02*
D03*
X119599D02*
D03*
Y1692707D02*
D03*
X95977D02*
D03*
X72355D02*
D03*
X72197Y1774422D02*
D03*
X119441Y1798044D02*
D03*
X95819D02*
D03*
X72197D02*
D03*
X95819Y1774422D02*
D03*
X119441D02*
D03*
X72197Y1821666D02*
D03*
X95819D02*
D03*
X119441D02*
D03*
X216880Y961853D02*
D03*
X269078Y1021612D02*
D03*
Y961853D02*
D03*
X216880Y1021612D02*
D03*
X737237Y-62846D02*
D03*
X752683Y-80880D02*
D03*
X1458186Y139137D02*
D03*
X1387320D02*
D03*
Y162759D02*
D03*
Y186381D02*
D03*
X1481808D02*
D03*
Y162759D02*
D03*
Y139137D02*
D03*
X1434564D02*
D03*
Y162759D02*
D03*
X1458186D02*
D03*
X1410942D02*
D03*
Y139137D02*
D03*
X1458186Y186381D02*
D03*
X1434564D02*
D03*
X1410942D02*
D03*
X773326Y93273D02*
D03*
X749704D02*
D03*
X773326Y116895D02*
D03*
X749704D02*
D03*
X773326Y46029D02*
D03*
Y69651D02*
D03*
X749704D02*
D03*
X775971Y-154487D02*
D03*
X806225Y-156913D02*
D03*
X802965Y-24701D02*
D03*
Y-48323D02*
D03*
Y-1079D02*
D03*
X796948Y69651D02*
D03*
X820570D02*
D03*
X844192D02*
D03*
X796948Y22407D02*
D03*
Y46029D02*
D03*
X844192D02*
D03*
X820570D02*
D03*
X844192Y22407D02*
D03*
X820570D02*
D03*
X1476372Y1563550D02*
D03*
X1499994D02*
D03*
X1523616D02*
D03*
X1476372Y1516306D02*
D03*
Y1539928D02*
D03*
X1523616D02*
D03*
X1499994D02*
D03*
X1523616Y1516306D02*
D03*
X1499994D02*
D03*
X1476372Y1160542D02*
D03*
X1499994D02*
D03*
X1523616D02*
D03*
X1476372Y1113298D02*
D03*
Y1136920D02*
D03*
X1523616D02*
D03*
X1499994D02*
D03*
X1523616Y1113298D02*
D03*
X1499994D02*
D03*
X1476372Y757535D02*
D03*
X1499994D02*
D03*
X1523616D02*
D03*
X1476372Y710291D02*
D03*
Y733913D02*
D03*
X1523616D02*
D03*
X1499994D02*
D03*
X1523616Y710291D02*
D03*
X1499994D02*
D03*
X2060984Y655516D02*
D03*
X2084606D02*
D03*
X2108228D02*
D03*
X2060984Y608272D02*
D03*
Y631894D02*
D03*
X2108228D02*
D03*
X2084606D02*
D03*
X2108228Y608272D02*
D03*
X2084606D02*
D03*
X2060984Y1058523D02*
D03*
X2084606D02*
D03*
X2108228D02*
D03*
X2060984Y1011279D02*
D03*
Y1034901D02*
D03*
X2108228D02*
D03*
X2084606D02*
D03*
X2108228Y1011279D02*
D03*
X2084606D02*
D03*
X2060984Y1461531D02*
D03*
X2084606D02*
D03*
X2108228D02*
D03*
X2060984Y1414287D02*
D03*
Y1437909D02*
D03*
X2108228D02*
D03*
X2084606D02*
D03*
X2108228Y1414287D02*
D03*
X2084606D02*
D03*
X2060984Y1864538D02*
D03*
X2084606D02*
D03*
X2108228D02*
D03*
X2060984Y1817294D02*
D03*
Y1840916D02*
D03*
X2108228D02*
D03*
X2084606D02*
D03*
X2108228Y1817294D02*
D03*
X2084606D02*
D03*
X1850526Y714571D02*
D03*
Y738193D02*
D03*
X1756054Y648959D02*
D03*
X1751039Y714571D02*
D03*
Y738193D02*
D03*
X1756007Y1093925D02*
D03*
Y1070303D02*
D03*
X1779629D02*
D03*
X1756007Y1046681D02*
D03*
X1779629D02*
D03*
X1803251D02*
D03*
X1850526Y1093956D02*
D03*
X1826905Y1117578D02*
D03*
X1850526D02*
D03*
Y1141200D02*
D03*
X1826905D02*
D03*
X1803283D02*
D03*
X1756039Y1852727D02*
D03*
X1779660D02*
D03*
X1803283D02*
D03*
X1850526Y1923593D02*
D03*
X1826905D02*
D03*
X1850526Y1947216D02*
D03*
X1826905D02*
D03*
X1803283D02*
D03*
X1826905Y1520586D02*
D03*
X1850526D02*
D03*
X1779660D02*
D03*
X1756039D02*
D03*
X1779660Y1544208D02*
D03*
X1756039D02*
D03*
X1850526D02*
D03*
X1826905D02*
D03*
X1803283D02*
D03*
Y1520586D02*
D03*
X1500100Y1919207D02*
D03*
X1523722D02*
D03*
X1500100Y1942829D02*
D03*
X1523722D02*
D03*
X1476478D02*
D03*
Y1919207D02*
D03*
X1523722Y1966451D02*
D03*
X1500100D02*
D03*
X1742409Y452360D02*
D03*
X1666143Y912371D02*
D03*
X1795904Y1340631D02*
D03*
X1811521Y1320706D02*
D03*
X1672704Y1321915D02*
D03*
X1666143Y1718387D02*
D03*
X1808936Y1717504D02*
D03*
X1798926Y1739879D02*
D03*
X1215732Y90155D02*
D03*
Y63416D02*
D03*
X1325613Y-1462D02*
D03*
X1592844Y634254D02*
D03*
X1678753Y453776D02*
D03*
X2442028Y1817716D02*
D03*
Y1767716D02*
D03*
Y1517716D02*
D03*
Y1467716D02*
D03*
Y1217716D02*
D03*
Y1167716D02*
D03*
Y917716D02*
D03*
Y867716D02*
D03*
X1843555Y96391D02*
D03*
X1731948Y159968D02*
D03*
X1852620Y148515D02*
D03*
X1120740Y30592D02*
D03*
X264595Y991732D02*
D03*
X221302Y991774D02*
D03*
X242979Y1017323D02*
D03*
Y966142D02*
D03*
X257451Y261382D02*
D03*
X287136D02*
D03*
X316821D02*
D03*
X346506D02*
D03*
X376191D02*
D03*
X405876D02*
D03*
X184281Y215941D02*
D03*
X154596D02*
D03*
X124911D02*
D03*
X95226D02*
D03*
X65541D02*
D03*
X35856D02*
D03*
X41055Y261382D02*
D03*
X70740D02*
D03*
X100425D02*
D03*
X130110D02*
D03*
X159795D02*
D03*
X189480D02*
D03*
X1891827Y2311503D02*
D03*
X1921512D02*
D03*
X1951197D02*
D03*
X1980882D02*
D03*
X2010567D02*
D03*
X2040252D02*
D03*
X2035053Y2356945D02*
D03*
X2005368D02*
D03*
X1975683D02*
D03*
X1945998D02*
D03*
X1916313D02*
D03*
X1886628D02*
D03*
X852331Y2311414D02*
D03*
X702515Y2311503D02*
D03*
X732201D02*
D03*
X761885D02*
D03*
X791571D02*
D03*
X821255D02*
D03*
X845742Y2356945D02*
D03*
X816057D02*
D03*
X786372D02*
D03*
X756687D02*
D03*
X727002D02*
D03*
X697317D02*
D03*
X1074897D02*
D03*
X1045212D02*
D03*
X1015527D02*
D03*
X985842D02*
D03*
X956157D02*
D03*
X926472D02*
D03*
X896787Y2356916D02*
D03*
X950959Y2311503D02*
D03*
X980644D02*
D03*
X1010329D02*
D03*
X1040014D02*
D03*
X1069699D02*
D03*
X1818658Y2356945D02*
D03*
X1788973D02*
D03*
X1759288D02*
D03*
X1729603D02*
D03*
X1699918D02*
D03*
X1670233D02*
D03*
X1665034Y2311503D02*
D03*
X1694719D02*
D03*
X1724404D02*
D03*
X1754089D02*
D03*
X1783774D02*
D03*
X1813459D02*
D03*
X1846019Y2356109D02*
D03*
X1481815Y306743D02*
D03*
X838251Y1889442D02*
D03*
X1045609Y1802375D02*
D03*
X858601Y1930328D02*
D03*
X917656D02*
D03*
X1011151Y1912068D02*
D03*
X1041079Y1912486D02*
D03*
X1069458Y1882636D02*
D03*
X957027Y1694107D02*
D03*
X986854Y1693770D02*
D03*
X1016082Y1694107D02*
D03*
X1064971D02*
D03*
X1045609Y1723635D02*
D03*
X-38765Y1917172D02*
D03*
X2296227Y1930874D02*
D03*
X2442028Y1917716D02*
D03*
X974717Y1581196D02*
D03*
X2442028Y1967716D02*
D03*
X2296227Y1954559D02*
D03*
X998402Y1581196D02*
D03*
X2187407Y871043D02*
D03*
X2397758Y1279812D02*
D03*
X1839046Y1825574D02*
D03*
X2144833Y1273969D02*
D03*
X1964989Y1699631D02*
D03*
X1761734Y1180997D02*
D03*
X1393904Y1412152D02*
D03*
X1579707Y1630838D02*
D03*
X2141959Y1330493D02*
D03*
X1238396Y1844040D02*
D03*
X1467234Y1224236D02*
D03*
X1890519Y-154934D02*
D03*
X1508125Y1722375D02*
D03*
X1325668Y1848944D02*
D03*
X2147215Y2195010D02*
D03*
X1943998Y1720621D02*
D03*
X1909735Y2195010D02*
D03*
X2087845D02*
D03*
X1417905Y1299605D02*
D03*
X1239282Y1992451D02*
D03*
X1692113Y1972507D02*
D03*
X1269144Y1886911D02*
D03*
X2332306Y1331664D02*
D03*
X1269144Y1857226D02*
D03*
X2123511Y1168579D02*
D03*
X2023972Y1720585D02*
D03*
X2360406Y1171205D02*
D03*
X1102396Y1546001D02*
D03*
X2186560Y1818617D02*
D03*
X1707672Y1155121D02*
D03*
X2243085Y665074D02*
D03*
X2171784Y1733501D02*
D03*
X1737166Y1571601D02*
D03*
X1182758Y1912478D02*
D03*
X2242047Y1725109D02*
D03*
X1461950Y1987972D02*
D03*
X2127979Y-156036D02*
D03*
X2186560Y639379D02*
D03*
X1728663Y1134130D02*
D03*
X1182758Y2031218D02*
D03*
X2243085Y605704D02*
D03*
X1766851Y1571601D02*
D03*
X1677345Y1264524D02*
D03*
X2182247Y1162478D02*
D03*
X1854606Y1008187D02*
D03*
X1184162Y1437638D02*
D03*
X2243085Y1903201D02*
D03*
X1325668Y1819259D02*
D03*
X1182758Y1942163D02*
D03*
X2238772Y1352922D02*
D03*
X1224489Y1817813D02*
D03*
X2243085Y1784461D02*
D03*
X1394643Y1352792D02*
D03*
X1878184Y-38878D02*
D03*
X2182247Y1447275D02*
D03*
X1796536Y1571601D02*
D03*
X1877039Y1867519D02*
D03*
X1400572Y1323705D02*
D03*
X1325668Y1967684D02*
D03*
X1850364Y2195010D02*
D03*
X2418126Y1347310D02*
D03*
X1826221Y1571601D02*
D03*
X2153064Y1225103D02*
D03*
X1325668Y1908314D02*
D03*
X1959558Y903235D02*
D03*
X2229869Y489627D02*
D03*
X2243085Y1814146D02*
D03*
X1820679Y2195010D02*
D03*
X1214733Y1781430D02*
D03*
X2357160Y-164442D02*
D03*
X2171644Y1330493D02*
D03*
X1478440Y1722375D02*
D03*
X1648353Y1575384D02*
D03*
X2068609Y-156036D02*
D03*
X2106491Y756302D02*
D03*
X1198940Y1494163D02*
D03*
X2447811Y1347310D02*
D03*
X2086943Y1657614D02*
D03*
X1154478Y1437792D02*
D03*
X1861121Y16289D02*
D03*
X2127482Y735311D02*
D03*
X2238772Y1081518D02*
D03*
X2186560Y1788932D02*
D03*
X1131363Y1539512D02*
D03*
X2238772Y1140888D02*
D03*
X2360406Y1260259D02*
D03*
X1126477Y1447648D02*
D03*
X2181543Y761188D02*
D03*
X1169255Y1494163D02*
D03*
X1585974Y1224236D02*
D03*
X2087899Y473144D02*
D03*
X2182247Y1132793D02*
D03*
X1992629Y950102D02*
D03*
X2360406Y-45880D02*
D03*
X1981991Y1762566D02*
D03*
X1965708Y1374424D02*
D03*
X1644701Y1218092D02*
D03*
X2564457Y1239992D02*
D03*
X1394643Y1382477D02*
D03*
X2186560Y1848302D02*
D03*
X2303881Y1162062D02*
D03*
X1018504Y1537788D02*
D03*
X1713103Y1951516D02*
D03*
X2117530Y2195010D02*
D03*
X1880050D02*
D03*
X1971638Y971093D02*
D03*
X2142099Y1733501D02*
D03*
X2170352Y927486D02*
D03*
X2182247Y984368D02*
D03*
X1331307Y1713673D02*
D03*
X2217034Y-156036D02*
D03*
X2157664D02*
D03*
X1860036Y1804583D02*
D03*
X2238772Y1022148D02*
D03*
X2240147Y694613D02*
D03*
X1228625Y1494163D02*
D03*
X1213847Y1437638D02*
D03*
X1848577Y1401371D02*
D03*
X1772086Y1972471D02*
D03*
X1537808Y1722065D02*
D03*
X2360406Y1230574D02*
D03*
X2243085Y576019D02*
D03*
X2234202Y903762D02*
D03*
X2475135Y1290785D02*
D03*
X1686682Y1176111D02*
D03*
X1949869Y-156036D02*
D03*
X1301864Y1663781D02*
D03*
X1302808Y1736798D02*
D03*
X2303573Y-144077D02*
D03*
X2448178Y1278354D02*
D03*
X2056438Y1730322D02*
D03*
X2303881Y1251117D02*
D03*
X1821660Y-53287D02*
D03*
X2303881Y390252D02*
D03*
X1782724Y1160007D02*
D03*
X1325668Y1937999D02*
D03*
X2107934Y1636623D02*
D03*
X1239282Y1903396D02*
D03*
X2388441Y1347310D02*
D03*
X2182247Y1043738D02*
D03*
X2203966Y1277708D02*
D03*
X1243500Y1436246D02*
D03*
X2128038Y870961D02*
D03*
X2182247Y1387905D02*
D03*
X2360406Y-75566D02*
D03*
X1443547Y1284650D02*
D03*
X2186560Y580009D02*
D03*
X2098390Y872446D02*
D03*
X1239282Y1873711D02*
D03*
X2238772Y933093D02*
D03*
X2303881Y1102692D02*
D03*
X2238415Y1323240D02*
D03*
X2243085Y1932886D02*
D03*
X1409658Y1237188D02*
D03*
X1985979Y1678640D02*
D03*
X2567287Y1298143D02*
D03*
X2303881Y1132377D02*
D03*
X2064141Y1168579D02*
D03*
X1834613Y29652D02*
D03*
X2182749Y1225103D02*
D03*
X1269679Y2035332D02*
D03*
X1448755Y1722375D02*
D03*
X1325668Y1878629D02*
D03*
X2174518Y1273969D02*
D03*
X2238772Y1501347D02*
D03*
X1244418Y1781430D02*
D03*
X2238772Y1111203D02*
D03*
X1437734Y1227547D02*
D03*
X1980549Y882245D02*
D03*
X1974999Y1226734D02*
D03*
X2186560Y1937357D02*
D03*
X1239282Y1933081D02*
D03*
X2223524Y719207D02*
D03*
X2238772Y1170573D02*
D03*
X2140667Y927486D02*
D03*
X1182758Y1971848D02*
D03*
X2058160Y2195010D02*
D03*
X2123379Y1225103D02*
D03*
X2182247Y1417590D02*
D03*
X1182758Y1882793D02*
D03*
X2358850Y1344953D02*
D03*
X1198000Y1804415D02*
D03*
X1654498Y1635986D02*
D03*
X2303881Y1221432D02*
D03*
X2422515Y1263433D02*
D03*
X2186560Y1967042D02*
D03*
X2243085Y1873516D02*
D03*
X1939419Y2195010D02*
D03*
X2038924Y-156036D02*
D03*
X1875596Y987197D02*
D03*
X2157723Y870961D02*
D03*
X1245657Y1724906D02*
D03*
X1790995Y2195010D02*
D03*
X2243085Y546334D02*
D03*
X1107728Y1470663D02*
D03*
X1294600Y1692563D02*
D03*
X1281036Y2062758D02*
D03*
X2093826Y1168579D02*
D03*
X1269144Y1946281D02*
D03*
X1821733Y-142342D02*
D03*
X2571682Y1268785D02*
D03*
X1923008Y1741612D02*
D03*
X2202533Y740197D02*
D03*
X2057896Y912809D02*
D03*
X1239282Y1962766D02*
D03*
X2238772Y962778D02*
D03*
X2153196Y1168579D02*
D03*
X2238772Y1412292D02*
D03*
X1084767Y1489477D02*
D03*
X2303881Y1191747D02*
D03*
X1269144Y1827541D02*
D03*
X1320995Y1760259D02*
D03*
X1269144Y1975966D02*
D03*
X2187349Y-156036D02*
D03*
X2238772Y1051833D02*
D03*
X1946723Y1177560D02*
D03*
X1734094Y1930526D02*
D03*
X2475285Y1249740D02*
D03*
X1269144Y1916596D02*
D03*
X1938568Y924226D02*
D03*
X1970652Y1256099D02*
D03*
X2498879Y1347359D02*
D03*
X2065359Y492461D02*
D03*
X2238772Y1441977D02*
D03*
X1887676Y1055054D02*
D03*
X2233411Y1199770D02*
D03*
X1215972Y1724906D02*
D03*
X2238772Y1471662D02*
D03*
X1898029Y1846528D02*
D03*
X2360406Y43175D02*
D03*
Y72859D02*
D03*
Y-134935D02*
D03*
X1878184Y-127933D02*
D03*
X1325668Y1997369D02*
D03*
X2243085Y1962571D02*
D03*
X1239282Y2051821D02*
D03*
X1707481Y1571601D02*
D03*
X2238772Y1382607D02*
D03*
X1902791Y1435212D02*
D03*
X2304346Y1280798D02*
D03*
X2186560Y609694D02*
D03*
X1665691Y1197102D02*
D03*
X1677796Y1571601D02*
D03*
X2212058Y1220391D02*
D03*
X2360406Y-105251D02*
D03*
X2229521Y1698197D02*
D03*
X1558717Y1651829D02*
D03*
X1920184Y-156036D02*
D03*
X2215465Y880737D02*
D03*
X2072496Y886963D02*
D03*
X1961001Y1783557D02*
D03*
X858403Y2287069D02*
D03*
X858478Y2260575D02*
D03*
Y2230890D02*
D03*
X857922Y2201211D02*
D03*
X839128Y2178233D02*
D03*
X809490Y2176567D02*
D03*
X750120D02*
D03*
X720435D02*
D03*
X690751Y2176280D02*
D03*
X661962Y2169044D02*
D03*
X614740Y2098238D02*
D03*
X614674Y2068553D02*
D03*
Y2038868D02*
D03*
X615551Y1979511D02*
D03*
X626235Y1951815D02*
D03*
X693433Y1977692D02*
D03*
X684439Y2031369D02*
D03*
X669933Y2057268D02*
D03*
Y2086953D02*
D03*
X902163Y2162413D02*
D03*
X913736Y2219877D02*
D03*
Y2249562D02*
D03*
Y2279247D02*
D03*
X916881Y2308765D02*
D03*
X778605Y-62255D02*
D03*
X778982Y-87281D02*
D03*
X764323Y-175458D02*
D03*
X790871D02*
D03*
X263695Y1104714D02*
D03*
X202719Y1633832D02*
D03*
X86075Y1659046D02*
D03*
X-13989Y2045778D02*
D03*
X-31703Y2089565D02*
D03*
X-6106Y2086517D02*
D03*
X77880Y1891958D02*
D03*
X1476478Y1966451D02*
D03*
X838282Y1842442D02*
D03*
X838314Y1795442D02*
D03*
X838376Y1701442D02*
D03*
X838345Y1748442D02*
D03*
X885235Y1912910D02*
D03*
X861767Y1865926D02*
D03*
X861829Y1771926D02*
D03*
X861798Y1818926D02*
D03*
X861861Y1724926D02*
D03*
X979235Y1912848D02*
D03*
X2692028Y2067716D02*
D03*
X1514210Y1443543D02*
D03*
X2692028Y2017716D02*
D03*
X1485778Y1443543D02*
D03*
X1703836Y436745D02*
D03*
X2692786Y557389D02*
D03*
X810981Y-133720D02*
D03*
X795535Y-115686D02*
D03*
X1373278Y-29044D02*
D03*
X1397954Y-28795D02*
D03*
X153367Y1649903D02*
D03*
X28744Y1908029D02*
D03*
X2741499Y1118703D02*
D03*
Y1168703D02*
D03*
X2692028Y167716D02*
D03*
X2492028Y1467716D02*
D03*
X2342028Y1717716D02*
D03*
X2642028Y1817716D02*
D03*
Y1867716D02*
D03*
X2442028D02*
D03*
X2392028Y1917716D02*
D03*
Y1967716D02*
D03*
X2792028Y2117716D02*
D03*
X2642028Y2017716D02*
D03*
X2442028D02*
D03*
X2492028Y1967716D02*
D03*
Y1917716D02*
D03*
X2692028D02*
D03*
Y1967716D02*
D03*
X2792028D02*
D03*
Y1917716D02*
D03*
Y1717716D02*
D03*
Y1367716D02*
D03*
Y1567716D02*
D03*
X2592028Y1467716D02*
D03*
X2542028Y1417716D02*
D03*
X2392028Y1467716D02*
D03*
X2442028Y1417716D02*
D03*
X2492028Y1167716D02*
D03*
X2392028D02*
D03*
X2692028D02*
D03*
X2592028D02*
D03*
X2792028D02*
D03*
Y1117716D02*
D03*
Y967716D02*
D03*
Y917716D02*
D03*
X2592028Y867716D02*
D03*
X2392028D02*
D03*
X2742028Y667716D02*
D03*
Y617716D02*
D03*
X2792028Y567716D02*
D03*
Y517716D02*
D03*
Y367716D02*
D03*
X2742028Y417716D02*
D03*
X2592028Y167716D02*
D03*
X2542028Y217716D02*
D03*
X2492028Y167716D02*
D03*
X1208988Y148702D02*
D03*
X924059Y1201378D02*
D03*
Y1295866D02*
D03*
Y1358858D02*
D03*
Y1264370D02*
D03*
Y1232874D02*
D03*
Y1169882D02*
D03*
Y640354D02*
D03*
Y734842D02*
D03*
Y797835D02*
D03*
Y703346D02*
D03*
Y671850D02*
D03*
Y608858D02*
D03*
Y734842D02*
D03*
Y1295866D02*
D03*
X1382229Y230595D02*
D03*
X2050740Y47935D02*
D03*
X2003822Y-158274D02*
D03*
X2095960Y-154274D02*
D03*
X2003822Y147859D02*
D03*
X2095960Y151858D02*
D03*
Y690D02*
D03*
X552759Y1549320D02*
D03*
X479033Y1512312D02*
D03*
Y1620189D02*
D03*
X553214Y1583388D02*
D03*
X295467Y1172619D02*
D03*
X127245Y1172622D02*
D03*
X302357Y1288304D02*
D03*
X134135Y1311901D02*
D03*
X720819Y62060D02*
D03*
X1419481Y1913408D02*
D03*
X1709406Y2071289D02*
D03*
Y2047604D02*
D03*
X2172145Y450333D02*
D03*
X2201552D02*
D03*
X2230959D02*
D03*
X2170249Y553060D02*
D03*
Y956068D02*
D03*
Y1359075D02*
D03*
X1126485Y1940170D02*
D03*
X1750965Y275779D02*
D03*
X1511753Y559692D02*
D03*
X1488068D02*
D03*
X661731Y1716540D02*
D03*
X549203Y1735131D02*
D03*
X516939D02*
D03*
X679677Y1889147D02*
D03*
X1470108Y1068190D02*
D03*
X1215199Y785992D02*
D03*
X1529163Y1068190D02*
D03*
X1419481Y704385D02*
D03*
X1776856Y198296D02*
D03*
X1708523Y254173D02*
D03*
X2050740Y-107030D02*
D03*
Y199103D02*
D03*
X1688266Y221181D02*
D03*
X2492028Y1217716D02*
D03*
Y1267716D02*
D03*
X1678753Y391827D02*
D03*
X1077783Y611088D02*
D03*
X1965756Y79208D02*
D03*
X2003986Y20376D02*
D03*
X2029329Y79208D02*
D03*
X1998648D02*
D03*
X1967966Y-75757D02*
D03*
X2003986Y-134589D02*
D03*
X1998648Y-75757D02*
D03*
X2029329D02*
D03*
X1414879Y81606D02*
D03*
X1610122Y137914D02*
D03*
X1584091Y136900D02*
D03*
X1544312Y190754D02*
D03*
X1620705Y186454D02*
D03*
X1682675D02*
D03*
X1696866Y-7558D02*
D03*
X1731280Y213222D02*
D03*
X1718552Y275779D02*
D03*
X2097038Y116483D02*
D03*
X2212166Y-77006D02*
D03*
X2070950Y90395D02*
D03*
X2175516Y-76590D02*
D03*
X2138866Y-76173D02*
D03*
X2102217Y-75757D02*
D03*
X2116778Y-25572D02*
D03*
X2153428Y-25988D02*
D03*
X2116932Y171543D02*
D03*
X2098343Y187292D02*
D03*
X2116932Y203040D02*
D03*
X2098343Y218788D02*
D03*
X2692028Y1067716D02*
D03*
Y1017716D02*
D03*
X2492028Y917716D02*
D03*
Y967716D02*
D03*
Y1067716D02*
D03*
Y1117716D02*
D03*
X2692028Y1217716D02*
D03*
Y1267716D02*
D03*
X2642028D02*
D03*
Y1317716D02*
D03*
X2692028Y1417716D02*
D03*
Y1467716D02*
D03*
X2792028Y1067716D02*
D03*
Y1017716D02*
D03*
X1499994Y662598D02*
D03*
X1215199Y1181724D02*
D03*
Y1158039D02*
D03*
X1709406Y1668281D02*
D03*
Y1644596D02*
D03*
Y1265274D02*
D03*
Y1241589D02*
D03*
Y862266D02*
D03*
Y838581D02*
D03*
X1492151Y1622416D02*
D03*
X1468466D02*
D03*
X1500352Y1871555D02*
D03*
X2492028Y1817716D02*
D03*
Y1867716D02*
D03*
X1813125Y1767104D02*
D03*
X1832810Y1784014D02*
D03*
X1793440D02*
D03*
X1702625Y1821499D02*
D03*
X2170249Y1762083D02*
D03*
X1439633Y553300D02*
D03*
X1416218Y542943D02*
D03*
X1396463Y528539D02*
D03*
X1379824Y509950D02*
D03*
X1367373Y487998D02*
D03*
X1223013Y168387D02*
D03*
Y30592D02*
D03*
X1205052Y10907D02*
D03*
X1223013Y-8778D02*
D03*
X1205052Y-28463D02*
D03*
X1138701Y89647D02*
D03*
X1120740Y109332D02*
D03*
X1138701Y129017D02*
D03*
X1120740Y148702D02*
D03*
Y69962D02*
D03*
X1138701Y50277D02*
D03*
Y10907D02*
D03*
X1120740Y-8778D02*
D03*
X1499994Y1065605D02*
D03*
X1500352Y1468589D02*
D03*
X1966711Y464526D02*
D03*
X28283Y2062324D02*
D03*
X1832810Y574991D02*
D03*
X1702625Y612476D02*
D03*
X1793440Y574991D02*
D03*
X1813125Y558082D02*
D03*
X1832810Y1381006D02*
D03*
X1702625Y1418492D02*
D03*
X1813125Y1364097D02*
D03*
X1793440Y1381006D02*
D03*
Y977999D02*
D03*
X1832810D02*
D03*
X1813125Y961089D02*
D03*
X1702625Y1015484D02*
D03*
X960389Y-1324D02*
D03*
X2642028Y967716D02*
D03*
X2492028Y1717716D02*
D03*
Y1667716D02*
D03*
X1419482Y1107473D02*
D03*
X1269264Y415164D02*
D03*
X925906Y991191D02*
D03*
X1227967Y415326D02*
D03*
X1050526Y611691D02*
D03*
X302357Y727280D02*
D03*
X2442028Y1667716D02*
D03*
Y1617716D02*
D03*
X1419481Y1510400D02*
D03*
X1580506Y1107393D02*
D03*
Y1913328D02*
D03*
X2642028Y417716D02*
D03*
X2542028Y367716D02*
D03*
X774286Y1920485D02*
D03*
X604816Y1496880D02*
D03*
X744047Y1653753D02*
D03*
X799546Y1618969D02*
D03*
X774286Y1861430D02*
D03*
X2642028Y1717716D02*
D03*
Y1767716D02*
D03*
Y867716D02*
D03*
Y1017716D02*
D03*
X2692028Y467716D02*
D03*
Y617716D02*
D03*
Y667716D02*
D03*
X2642028Y1567716D02*
D03*
Y1617716D02*
D03*
X295467Y611596D02*
D03*
X134135Y750877D02*
D03*
X127245Y611599D02*
D03*
X152905Y1804198D02*
D03*
D143*
X633858Y-106300D02*
D03*
X2874016Y286392D02*
D03*
X2007897Y2500000D02*
D03*
X444882Y2480315D02*
D03*
D144*
X-182240Y430709D02*
D03*
Y768307D02*
D03*
Y1329331D02*
D03*
X14610Y1552756D02*
D03*
X211460Y430709D02*
D03*
X408311Y654134D02*
D03*
Y866732D02*
D03*
Y1215157D02*
D03*
Y1329331D02*
D03*
Y1552756D02*
D03*
X605161Y430709D02*
D03*
X802011Y1552756D02*
D03*
X1195712D02*
D03*
D145*
X17760Y991732D02*
D03*
D146*
X408311D02*
D03*
X900437Y430709D02*
D03*
X1097287D02*
D03*
X802011Y991732D02*
D03*
X1195712D02*
D03*
X715397Y430709D02*
D03*
Y1552756D02*
D03*
X1278389Y522244D02*
D03*
Y711220D02*
D03*
Y1083268D02*
D03*
Y1272244D02*
D03*
D147*
X570021Y133740D02*
D03*
Y343583D02*
D03*
X360178Y133740D02*
D03*
Y343583D02*
D03*
X86753Y133740D02*
D03*
Y343583D02*
D03*
X-123090Y133740D02*
D03*
Y343583D02*
D03*
X1715930Y2229303D02*
D03*
Y2439145D02*
D03*
X1506088Y2229303D02*
D03*
Y2439145D02*
D03*
X1232662Y2229303D02*
D03*
Y2439145D02*
D03*
X1022820Y2229303D02*
D03*
Y2439145D02*
D03*
X749394Y2229303D02*
D03*
Y2439145D02*
D03*
X539552Y2229303D02*
D03*
Y2439145D02*
D03*
X2199198Y2229303D02*
D03*
Y2439145D02*
D03*
X1989356Y2229303D02*
D03*
Y2439145D02*
D03*
D148*
X-597Y-1D02*
D03*
X-597Y2226419D02*
D03*
X2489194Y-98397D02*
D03*
X2489273Y2381862D02*
D03*
M02*
