G04*
G04 #@! TF.GenerationSoftware,Altium Limited,Altium Designer,24.2.2 (26)*
G04*
G04 Layer_Color=16711935*
%FSLAX26Y26*%
%MOIN*%
G70*
G04*
G04 #@! TF.SameCoordinates,1490CFCF-B2EF-406E-B7EC-920D21FDAB99*
G04*
G04*
G04 #@! TF.FilePolarity,Positive*
G04*
G01*
G75*
%ADD11C,0.007874*%
%ADD15C,0.003937*%
%ADD109C,0.005000*%
%ADD171C,0.000000*%
%ADD172C,0.001000*%
%ADD173C,0.005906*%
%ADD174C,0.003000*%
D11*
X2794863Y2292480D02*
G03*
X2794863Y2292480I-3937J0D01*
G01*
X213118Y1908022D02*
G03*
X213118Y1908022I-1000J0D01*
G01*
X489982Y2162432D02*
G03*
X489982Y2162432I-1000J0D01*
G01*
X285895Y1590761D02*
G03*
X285895Y1590761I-1000J0D01*
G01*
X1441690Y-23443D02*
G03*
X1441690Y-23443I-1000J0D01*
G01*
X1693913Y-37085D02*
X1752968D01*
X1693913D02*
Y41655D01*
X1752968D01*
Y-37085D02*
Y41655D01*
X1248244Y-26477D02*
X1271866D01*
X1248244D02*
Y28641D01*
X1271866D01*
Y-26477D02*
Y28641D01*
X1064681Y76714D02*
X1088303D01*
X1064681D02*
Y131832D01*
X1088303D01*
Y76714D02*
Y131832D01*
X1064857Y58151D02*
X1088478D01*
Y3033D02*
Y58151D01*
X1064857Y3033D02*
X1088478D01*
X1064857D02*
Y58151D01*
X1535036Y1298809D02*
Y1338178D01*
X1574406D01*
Y1298809D02*
Y1338178D01*
X1535036Y1298809D02*
X1574406D01*
X1535036Y895801D02*
Y935171D01*
X1574406D01*
Y895801D02*
Y935171D01*
X1535036Y895801D02*
X1574406D01*
X1672848Y394185D02*
Y433555D01*
X1712218D01*
Y394185D02*
Y433555D01*
X1672848Y394185D02*
X1712218D01*
X1535036Y1701816D02*
Y1741186D01*
X1574406D01*
Y1701816D02*
Y1741186D01*
X1535036Y1701816D02*
X1574406D01*
D15*
X1305948Y391339D02*
Y1592126D01*
X-634996D02*
X1305948D01*
X-634996Y391339D02*
Y1592126D01*
Y391339D02*
X1305948D01*
X1112821Y180198D02*
X1132506Y199883D01*
X1112821Y-40274D02*
Y199883D01*
Y-40274D02*
X1230932D01*
Y199883D01*
X1112821D02*
X1230932D01*
X1559049Y674858D02*
Y792968D01*
X1440939D02*
X1559049D01*
X1440939Y674858D02*
Y792968D01*
Y674858D02*
X1559049D01*
X1539364D02*
X1559049Y694543D01*
Y1883880D02*
Y2001990D01*
X1440939D02*
X1559049D01*
X1440939Y1883880D02*
Y2001990D01*
Y1883880D02*
X1559049D01*
X1539364D02*
X1559049Y1903565D01*
Y1480873D02*
Y1598983D01*
X1440939D02*
X1559049D01*
X1440939Y1480873D02*
Y1598983D01*
Y1480873D02*
X1559049D01*
X1539364D02*
X1559049Y1500558D01*
Y1077865D02*
Y1195975D01*
X1440939D02*
X1559049D01*
X1440939Y1077865D02*
Y1195975D01*
Y1077865D02*
X1559049D01*
X1539364D02*
X1559049Y1097550D01*
X2537107Y2275787D02*
X2596950D01*
X2537107Y2240748D02*
Y2275787D01*
X2596950Y2240748D02*
Y2275787D01*
X2278052Y44685D02*
Y2240748D01*
X2537107D01*
X2596950D02*
X2856005D01*
Y44685D02*
Y2240748D01*
X2278052Y44685D02*
X2856005D01*
X2025551Y690949D02*
X2143661D01*
Y572838D02*
Y690949D01*
X2025551Y572838D02*
X2143661D01*
X2025551D02*
Y690949D01*
Y671264D02*
X2045236Y690949D01*
X2025551Y1093956D02*
X2143661D01*
Y975846D02*
Y1093956D01*
X2025551Y975846D02*
X2143661D01*
X2025551D02*
Y1093956D01*
Y1074271D02*
X2045236Y1093956D01*
X2025551Y1899972D02*
X2143661D01*
Y1781861D02*
Y1899972D01*
X2025551Y1781861D02*
X2143661D01*
X2025551D02*
Y1899972D01*
Y1880286D02*
X2045236Y1899972D01*
X2025551Y1496964D02*
X2143661D01*
Y1378854D02*
Y1496964D01*
X2025551Y1378854D02*
X2143661D01*
X2025551D02*
Y1496964D01*
Y1477279D02*
X2045236Y1496964D01*
X2395301Y543017D02*
X2445301Y593017D01*
X2395301Y400103D02*
Y593017D01*
Y400103D02*
X2548845D01*
Y593017D01*
X2395301D02*
X2548845D01*
X750333Y1969698D02*
X770019Y1989383D01*
X750333Y1635052D02*
Y1989383D01*
Y1635052D02*
X1104664D01*
Y1989383D01*
X750333D02*
X1104664D01*
X36764Y1690170D02*
X154874D01*
X36764D02*
Y1808280D01*
X154874D01*
Y1690170D02*
Y1808280D01*
X125347Y1690170D02*
X154874Y1719697D01*
X-87859Y1948296D02*
X30251D01*
X-87859D02*
Y2066406D01*
X30251D01*
Y1948296D02*
Y2066406D01*
X724Y1948296D02*
X30251Y1977824D01*
X189005Y2202705D02*
X307115D01*
X189005D02*
Y2320816D01*
X307115D01*
Y2202705D02*
Y2320816D01*
X277588Y2202705D02*
X307115Y2232233D01*
X74756Y1734807D02*
Y1758429D01*
X47590Y1734807D02*
X74756D01*
X47590D02*
Y1758429D01*
X74756D01*
X191983Y2300121D02*
Y2323743D01*
X164818Y2300121D02*
X191983D01*
X164818D02*
Y2323743D01*
X191983D01*
X-29053Y1939339D02*
X-5431D01*
X-29053D02*
Y1966504D01*
X-5431D01*
Y1939339D02*
Y1966504D01*
X85316Y1181164D02*
X108938D01*
Y1208330D01*
X85316D02*
X108938D01*
X85316Y1181164D02*
Y1208330D01*
X253538Y1181164D02*
X277160D01*
Y1208330D01*
X253538D02*
X277160D01*
X253538Y1181164D02*
Y1208330D01*
X85316Y620140D02*
X108938D01*
Y647306D01*
X85316D02*
X108938D01*
X85316Y620140D02*
Y647306D01*
X253538Y620140D02*
X277160D01*
Y647306D01*
X253538D02*
X277160D01*
X253538Y620140D02*
Y647306D01*
X283438Y1613925D02*
Y1637546D01*
Y1613925D02*
X310604D01*
Y1637546D01*
X283438D02*
X310604D01*
X1413635Y15195D02*
Y38817D01*
Y15195D02*
X1440801D01*
Y38817D01*
X1413635D02*
X1440801D01*
X646499Y1507018D02*
Y1570011D01*
X677995D01*
Y1507018D02*
Y1570011D01*
X646499Y1507018D02*
X677995D01*
X646499Y1517530D02*
X657011Y1507018D01*
X650436Y1454163D02*
X674058D01*
Y1481328D01*
X650436D02*
X674058D01*
X650436Y1454163D02*
Y1481328D01*
X548672Y1289055D02*
X674656D01*
X548672D02*
Y1387480D01*
X674656D01*
Y1289055D02*
Y1387480D01*
X548672Y1141260D02*
X674656D01*
X548672D02*
Y1239685D01*
X674656D01*
Y1141260D02*
Y1239685D01*
X548672Y727945D02*
X674656D01*
X548672D02*
Y826370D01*
X674656D01*
Y727945D02*
Y826370D01*
X548672Y580409D02*
X674656D01*
X548672D02*
Y678834D01*
X674656D01*
Y580409D02*
Y678834D01*
X871806Y28324D02*
Y154309D01*
X970231D01*
Y28324D02*
Y154309D01*
X871806Y28324D02*
X970231D01*
X1763706Y136665D02*
Y160287D01*
Y136665D02*
X1790872D01*
Y160287D01*
X1763706D02*
X1790872D01*
X2082047Y1487164D02*
Y1500156D01*
X2106850Y1487164D02*
Y1500156D01*
X2082047D02*
X2106850D01*
X2082047Y1487164D02*
X2106850D01*
X2082047Y1084157D02*
Y1097149D01*
X2106850Y1084157D02*
Y1097149D01*
X2082047D02*
X2106850D01*
X2082047Y1084157D02*
X2106850D01*
X2082047Y681149D02*
Y694141D01*
X2106850Y681149D02*
Y694141D01*
X2082047D02*
X2106850D01*
X2082047Y681149D02*
X2106850D01*
X2082047Y1890172D02*
Y1903164D01*
X2106850Y1890172D02*
Y1903164D01*
X2082047D02*
X2106850D01*
X2082047Y1890172D02*
X2106850D01*
X1858266Y1356877D02*
X1871258D01*
X1858266Y1381680D02*
X1871258D01*
Y1356877D02*
Y1381680D01*
X1858266Y1356877D02*
Y1381680D01*
Y954521D02*
X1871258D01*
X1858266Y979324D02*
X1871258D01*
Y954521D02*
Y979324D01*
X1858266Y954521D02*
Y979324D01*
Y552271D02*
X1871258D01*
X1858266Y577074D02*
X1871258D01*
Y552271D02*
Y577074D01*
X1858266Y552271D02*
Y577074D01*
Y1762277D02*
X1871258D01*
X1858266Y1787080D02*
X1871258D01*
Y1762277D02*
Y1787080D01*
X1858266Y1762277D02*
Y1787080D01*
X1911581Y1325526D02*
Y1347967D01*
X1870242Y1325526D02*
Y1347967D01*
X1911581D01*
X1870242Y1325526D02*
X1911581D01*
Y922284D02*
Y944725D01*
X1870242Y922284D02*
Y944725D01*
X1911581D01*
X1870242Y922284D02*
X1911581D01*
Y519750D02*
Y542191D01*
X1870242Y519750D02*
Y542191D01*
X1911581D01*
X1870242Y519750D02*
X1911581D01*
Y1728597D02*
Y1751038D01*
X1870242Y1728597D02*
Y1751038D01*
X1911581D01*
X1870242Y1728597D02*
X1911581D01*
X1740072Y1355553D02*
X1753064D01*
X1740072Y1380357D02*
X1753064D01*
Y1355553D02*
Y1380357D01*
X1740072Y1355553D02*
Y1380357D01*
Y953873D02*
X1753064D01*
X1740072Y978676D02*
X1753064D01*
Y953873D02*
Y978676D01*
X1740072Y953873D02*
Y978676D01*
Y552037D02*
X1753064D01*
X1740072Y576840D02*
X1753064D01*
Y552037D02*
Y576840D01*
X1740072Y552037D02*
Y576840D01*
Y1760889D02*
X1753064D01*
X1740072Y1785692D02*
X1753064D01*
Y1760889D02*
Y1785692D01*
X1740072Y1760889D02*
Y1785692D01*
X1733976Y1304363D02*
X1756417D01*
X1733976Y1345702D02*
X1756417D01*
Y1304363D02*
Y1345702D01*
X1733976Y1304363D02*
Y1345702D01*
Y901699D02*
X1756417D01*
X1733976Y943038D02*
X1756417D01*
Y901699D02*
Y943038D01*
X1733976Y901699D02*
Y943038D01*
Y498390D02*
X1756417D01*
X1733976Y539728D02*
X1756417D01*
Y498390D02*
Y539728D01*
X1733976Y498390D02*
Y539728D01*
Y1707586D02*
X1756417D01*
X1733976Y1748925D02*
X1756417D01*
Y1707586D02*
Y1748925D01*
X1733976Y1707586D02*
Y1748925D01*
X1869868Y1640094D02*
X1882860D01*
X1869868Y1615291D02*
X1882860D01*
X1869868D02*
Y1640094D01*
X1882860Y1615291D02*
Y1640094D01*
X1869868Y1237087D02*
X1882860D01*
X1869868Y1212284D02*
X1882860D01*
X1869868D02*
Y1237087D01*
X1882860Y1212284D02*
Y1237087D01*
X1869868Y834079D02*
X1882860D01*
X1869868Y809276D02*
X1882860D01*
X1869868D02*
Y834079D01*
X1882860Y809276D02*
Y834079D01*
X1869868Y2044746D02*
X1882860D01*
X1869868Y2019943D02*
X1882860D01*
X1869868D02*
Y2044746D01*
X1882860Y2019943D02*
Y2044746D01*
X1863444Y1692772D02*
X1885885D01*
X1863444Y1651433D02*
X1885885D01*
X1863444D02*
Y1692772D01*
X1885885Y1651433D02*
Y1692772D01*
X1863444Y1289329D02*
X1885885D01*
X1863444Y1247990D02*
X1885885D01*
X1863444D02*
Y1289329D01*
X1885885Y1247990D02*
Y1289329D01*
X1863444Y886434D02*
X1885885D01*
X1863444Y845096D02*
X1885885D01*
X1863444D02*
Y886434D01*
X1885885Y845096D02*
Y886434D01*
X1863444Y2095260D02*
X1885885D01*
X1863444Y2053921D02*
X1885885D01*
X1863444D02*
Y2095260D01*
X1885885Y2053921D02*
Y2095260D01*
X1971557Y488739D02*
X1984550D01*
X1971557Y463936D02*
X1984550D01*
X1971557D02*
Y488739D01*
X1984550Y463936D02*
Y488739D01*
X1967948Y434187D02*
X1990389D01*
X1967948Y475526D02*
X1990389D01*
X1967948Y434187D02*
Y475526D01*
X1990389Y434187D02*
Y475526D01*
X1408046Y448930D02*
Y461923D01*
X1432850Y448930D02*
Y461923D01*
X1408046Y448930D02*
X1432850D01*
X1408046Y461923D02*
X1432850D01*
X1464808Y424354D02*
X1487249D01*
X1464808Y465692D02*
X1487249D01*
X1464808Y424354D02*
Y465692D01*
X1487249Y424354D02*
Y465692D01*
X1851030Y343057D02*
X1864022D01*
X1851030Y367860D02*
X1864022D01*
X1851030Y343057D02*
Y367860D01*
X1864022Y343057D02*
Y367860D01*
X1851799Y378128D02*
Y400569D01*
X1810461Y378128D02*
Y400569D01*
Y378128D02*
X1851799D01*
X1810461Y400569D02*
X1851799D01*
X1870042Y277298D02*
X1883034D01*
X1870042Y252494D02*
X1883034D01*
X1870042D02*
Y277298D01*
X1883034Y252494D02*
Y277298D01*
X1871481Y222446D02*
Y244887D01*
X1830143Y222446D02*
Y244887D01*
X1871481D01*
X1830143Y222446D02*
X1871481D01*
X1870431Y484604D02*
X1883424D01*
X1870431Y459801D02*
X1883424D01*
X1870431D02*
Y484604D01*
X1883424Y459801D02*
Y484604D01*
X1844310Y445325D02*
Y467765D01*
X1885648Y445325D02*
Y467765D01*
X1844310D02*
X1885648D01*
X1844310Y445325D02*
X1885648D01*
X1416398Y246183D02*
X1429390D01*
X1416398Y270986D02*
X1429390D01*
X1416398Y246183D02*
Y270986D01*
X1429390Y246183D02*
Y270986D01*
X186627Y1819170D02*
X209068D01*
X186627Y1777831D02*
X209068D01*
X186627D02*
Y1819170D01*
X209068Y1777831D02*
Y1819170D01*
X338788Y2331514D02*
X361229D01*
X338788Y2290175D02*
X361229D01*
X338788D02*
Y2331514D01*
X361229Y2290175D02*
Y2331514D01*
X62449Y2068296D02*
X84890D01*
X62449Y2026957D02*
X84890D01*
X62449D02*
Y2068296D01*
X84890Y2026957D02*
Y2068296D01*
X1680326Y1493001D02*
Y1505993D01*
X1655523Y1493001D02*
Y1505993D01*
X1680326D01*
X1655523Y1493001D02*
X1680326D01*
Y1090064D02*
Y1103056D01*
X1655523Y1090064D02*
Y1103056D01*
X1680326D01*
X1655523Y1090064D02*
X1680326D01*
Y686848D02*
Y699840D01*
X1655523Y686848D02*
Y699840D01*
X1680326D01*
X1655523Y686848D02*
X1680326D01*
Y1896071D02*
Y1909063D01*
X1655523Y1896071D02*
Y1909063D01*
X1680326D01*
X1655523Y1896071D02*
X1680326D01*
X1640686Y1543722D02*
Y1566162D01*
X1682025Y1543722D02*
Y1566162D01*
X1640686Y1543722D02*
X1682025D01*
X1640686Y1566162D02*
X1682025D01*
X1640686Y1140651D02*
Y1163092D01*
X1682025Y1140651D02*
Y1163092D01*
X1640686Y1140651D02*
X1682025D01*
X1640686Y1163092D02*
X1682025D01*
X1640686Y737685D02*
Y760126D01*
X1682025Y737685D02*
Y760126D01*
X1640686Y737685D02*
X1682025D01*
X1640686Y760126D02*
X1682025D01*
X1640686Y1946589D02*
Y1969030D01*
X1682025Y1946589D02*
Y1969030D01*
X1640686Y1946589D02*
X1682025D01*
X1640686Y1969030D02*
X1682025D01*
X2030388Y1425362D02*
X2043380D01*
X2030388Y1450165D02*
X2043380D01*
X2030388Y1425362D02*
Y1450165D01*
X2043380Y1425362D02*
Y1450165D01*
X2030388Y1022368D02*
X2043380D01*
X2030388Y1047171D02*
X2043380D01*
X2030388Y1022368D02*
Y1047171D01*
X2043380Y1022368D02*
Y1047171D01*
X2030388Y619533D02*
X2043380D01*
X2030388Y644336D02*
X2043380D01*
X2030388Y619533D02*
Y644336D01*
X2043380Y619533D02*
Y644336D01*
X2030388Y1828515D02*
X2043380D01*
X2030388Y1853318D02*
X2043380D01*
X2030388Y1828515D02*
Y1853318D01*
X2043380Y1828515D02*
Y1853318D01*
X1946149Y1532290D02*
Y1545282D01*
X1921346Y1532290D02*
Y1545282D01*
X1946149D01*
X1921346Y1532290D02*
X1946149D01*
Y1129650D02*
Y1142642D01*
X1921346Y1129650D02*
Y1142642D01*
X1946149D01*
X1921346Y1129650D02*
X1946149D01*
Y726518D02*
Y739510D01*
X1921346Y726518D02*
Y739510D01*
X1946149D01*
X1921346Y726518D02*
X1946149D01*
Y1935901D02*
Y1948893D01*
X1921346Y1935901D02*
Y1948893D01*
X1946149D01*
X1921346Y1935901D02*
X1946149D01*
X2002809Y1526489D02*
Y1548930D01*
X1961471Y1526489D02*
Y1548930D01*
X2002809D01*
X1961471Y1526489D02*
X2002809D01*
Y1123631D02*
Y1146072D01*
X1961471Y1123631D02*
Y1146072D01*
X2002809D01*
X1961471Y1123631D02*
X2002809D01*
Y720446D02*
Y742887D01*
X1961471Y720446D02*
Y742887D01*
X2002809D01*
X1961471Y720446D02*
X2002809D01*
Y1929244D02*
Y1951685D01*
X1961471Y1929244D02*
Y1951685D01*
X2002809D01*
X1961471Y1929244D02*
X2002809D01*
X1487592Y1486020D02*
Y1499012D01*
X1512396Y1486020D02*
Y1499012D01*
X1487592Y1486020D02*
X1512396D01*
X1487592Y1499012D02*
X1512396D01*
X1487234Y1083036D02*
Y1096028D01*
X1512037Y1083036D02*
Y1096028D01*
X1487234Y1083036D02*
X1512037D01*
X1487234Y1096028D02*
X1512037D01*
X1487592Y680001D02*
Y692993D01*
X1512395Y680001D02*
Y692993D01*
X1487592Y680001D02*
X1512395D01*
X1487592Y692993D02*
X1512395D01*
X1487592Y1888986D02*
Y1901978D01*
X1512396Y1888986D02*
Y1901978D01*
X1487592Y1888986D02*
X1512396D01*
X1487592Y1901978D02*
X1512396D01*
X2052519Y1494161D02*
Y1507153D01*
X2077323Y1494161D02*
Y1507153D01*
X2052519D02*
X2077323D01*
X2052519Y1494161D02*
X2077323D01*
X2052519Y1090170D02*
Y1103162D01*
X2077323Y1090170D02*
Y1103162D01*
X2052519D02*
X2077323D01*
X2052519Y1090170D02*
X2077323D01*
X2052519Y688279D02*
Y701271D01*
X2077323Y688279D02*
Y701271D01*
X2052519D02*
X2077323D01*
X2052519Y688279D02*
X2077323D01*
X2052519Y1896867D02*
Y1909859D01*
X2077323Y1896867D02*
Y1909859D01*
X2052519D02*
X2077323D01*
X2052519Y1896867D02*
X2077323D01*
X2143356Y1454939D02*
Y1477380D01*
X2184695Y1454939D02*
Y1477380D01*
X2143356D02*
X2184695D01*
X2143356Y1454939D02*
X2184695D01*
X2143356Y1052580D02*
Y1075021D01*
X2184695Y1052580D02*
Y1075021D01*
X2143356D02*
X2184695D01*
X2143356Y1052580D02*
X2184695D01*
X2143332Y649322D02*
Y671763D01*
X2184671Y649322D02*
Y671763D01*
X2143332D02*
X2184671D01*
X2143332Y649322D02*
X2184671D01*
X2143356Y1858298D02*
Y1880739D01*
X2184695Y1858298D02*
Y1880739D01*
X2143356D02*
X2184695D01*
X2143356Y1858298D02*
X2184695D01*
X2156978Y1379519D02*
Y1392511D01*
X2181781Y1379519D02*
Y1392511D01*
X2156978Y1379519D02*
X2181781D01*
X2156978Y1392511D02*
X2181781D01*
X2156978Y975933D02*
Y988925D01*
X2181781Y975933D02*
Y988925D01*
X2156978Y975933D02*
X2181781D01*
X2156978Y988925D02*
X2181781D01*
X2156978Y572609D02*
Y585601D01*
X2181781Y572609D02*
Y585601D01*
X2156978Y572609D02*
X2181781D01*
X2156978Y585601D02*
X2181781D01*
X2156978Y1781672D02*
Y1794665D01*
X2181781Y1781672D02*
Y1794665D01*
X2156978Y1781672D02*
X2181781D01*
X2156978Y1794665D02*
X2181781D01*
X2111890Y1476179D02*
Y1489171D01*
X2136694Y1476179D02*
Y1489171D01*
X2111890D02*
X2136694D01*
X2111890Y1476179D02*
X2136694D01*
X2111890Y1073192D02*
Y1086184D01*
X2136694Y1073192D02*
Y1086184D01*
X2111890D02*
X2136694D01*
X2111890Y1073192D02*
X2136694D01*
X2111866Y669743D02*
Y682736D01*
X2136670Y669743D02*
Y682736D01*
X2111866D02*
X2136670D01*
X2111866Y669743D02*
X2136670D01*
X2111891Y1878713D02*
Y1891706D01*
X2136694Y1878713D02*
Y1891706D01*
X2111891D02*
X2136694D01*
X2111891Y1878713D02*
X2136694D01*
X2105275Y1376529D02*
Y1398970D01*
X2063937Y1376529D02*
Y1398970D01*
Y1376529D02*
X2105275D01*
X2063937Y1398970D02*
X2105275D01*
X2105099Y973256D02*
Y995697D01*
X2063761Y973256D02*
Y995697D01*
Y973256D02*
X2105099D01*
X2063761Y995697D02*
X2105099D01*
X2105275Y570448D02*
Y592889D01*
X2063937Y570448D02*
Y592889D01*
Y570448D02*
X2105275D01*
X2063937Y592889D02*
X2105275D01*
X2105209Y1779166D02*
Y1801607D01*
X2063870Y1779166D02*
Y1801607D01*
Y1779166D02*
X2105209D01*
X2063870Y1801607D02*
X2105209D01*
X1597182Y1586691D02*
Y1599683D01*
X1572378Y1586691D02*
Y1599683D01*
Y1586691D02*
X1597182D01*
X1572378Y1599683D02*
X1597182D01*
X1429331Y780379D02*
Y793371D01*
X1404528Y780379D02*
Y793371D01*
Y780379D02*
X1429331D01*
X1404528Y793371D02*
X1429331D01*
X1597181Y1183412D02*
Y1196404D01*
X1572378Y1183412D02*
Y1196404D01*
Y1183412D02*
X1597181D01*
X1572378Y1196404D02*
X1597181D01*
X1597182Y1989763D02*
Y2002755D01*
X1572378Y1989763D02*
Y2002755D01*
Y1989763D02*
X1597182D01*
X1572378Y2002755D02*
X1597182D01*
X1584707Y1536909D02*
Y1559350D01*
X1626045Y1536909D02*
Y1559350D01*
X1584707D02*
X1626045D01*
X1584707Y1536909D02*
X1626045D01*
X1373902Y738159D02*
Y760600D01*
X1415241Y738159D02*
Y760600D01*
X1373902D02*
X1415241D01*
X1373902Y738159D02*
X1415241D01*
X1584707Y1133567D02*
Y1156008D01*
X1626045Y1133567D02*
Y1156008D01*
X1584707D02*
X1626045D01*
X1584707Y1133567D02*
X1626045D01*
X1584707Y1939529D02*
Y1961970D01*
X1626045Y1939529D02*
Y1961970D01*
X1584707D02*
X1626045D01*
X1584707Y1939529D02*
X1626045D01*
X1429331Y1586735D02*
Y1599727D01*
X1404528Y1586735D02*
Y1599727D01*
Y1586735D02*
X1429331D01*
X1404528Y1599727D02*
X1429331D01*
X1597182Y780689D02*
Y793681D01*
X1572378Y780689D02*
Y793681D01*
Y780689D02*
X1597182D01*
X1572378Y793681D02*
X1597182D01*
X1429331Y1183847D02*
Y1196839D01*
X1404528Y1183847D02*
Y1196839D01*
Y1183847D02*
X1429331D01*
X1404528Y1196839D02*
X1429331D01*
X1429331Y1989720D02*
Y2002712D01*
X1404528Y1989720D02*
Y2002712D01*
Y1989720D02*
X1429331D01*
X1404528Y2002712D02*
X1429331D01*
X1373902Y1536503D02*
Y1558944D01*
X1415241Y1536503D02*
Y1558944D01*
X1373902D02*
X1415241D01*
X1373902Y1536503D02*
X1415241D01*
X1584707Y738462D02*
Y760904D01*
X1626045Y738462D02*
Y760904D01*
X1584707D02*
X1626045D01*
X1584707Y738462D02*
X1626045D01*
X1373902Y1133713D02*
Y1156154D01*
X1415241Y1133713D02*
Y1156154D01*
X1373902D02*
X1415241D01*
X1373902Y1133713D02*
X1415241D01*
X1373902Y1939533D02*
Y1961974D01*
X1415241Y1939533D02*
Y1961974D01*
X1373902D02*
X1415241D01*
X1373902Y1939533D02*
X1415241D01*
D109*
X728183Y975984D02*
Y1007480D01*
X665191D02*
X728183D01*
X665191Y975984D02*
Y1007480D01*
Y975984D02*
X728183D01*
X1548970Y660446D02*
X1580466D01*
Y723439D01*
X1548970D02*
X1580466D01*
X1548970Y660446D02*
Y723439D01*
X1607387Y832674D02*
Y864170D01*
X1544395D02*
X1607387D01*
X1544395Y832674D02*
Y864170D01*
Y832674D02*
X1607387D01*
Y1235682D02*
Y1267178D01*
X1544395D02*
X1607387D01*
X1544395Y1235682D02*
Y1267178D01*
Y1235682D02*
X1607387D01*
X1607518Y1638689D02*
Y1670186D01*
X1544526D02*
X1607518D01*
X1544526Y1638689D02*
Y1670186D01*
Y1638689D02*
X1607518D01*
X585542Y1452150D02*
Y1483646D01*
X522550D02*
X585542D01*
X522550Y1452150D02*
Y1483646D01*
Y1452150D02*
X585542D01*
X1218716Y636699D02*
Y668195D01*
X1155724D02*
X1218716D01*
X1155724Y636699D02*
Y668195D01*
Y636699D02*
X1218716D01*
X1155724Y536223D02*
Y567719D01*
Y536223D02*
X1218716D01*
Y567719D01*
X1155724D02*
X1218716D01*
X1155724Y435748D02*
Y467243D01*
Y435748D02*
X1218716D01*
Y467243D01*
X1155724D02*
X1218716D01*
Y737175D02*
Y768671D01*
X1155724D02*
X1218716D01*
X1155724Y737175D02*
Y768671D01*
Y737175D02*
X1218716D01*
X2723524Y301968D02*
Y333464D01*
X2660532D02*
X2723524D01*
X2660532Y301968D02*
Y333464D01*
Y301968D02*
X2723524D01*
X2660532Y201968D02*
Y233464D01*
Y201968D02*
X2723524D01*
Y233464D01*
X2660532D02*
X2723524D01*
X2584654Y251751D02*
Y283247D01*
X2521662D02*
X2584654D01*
X2521662Y251751D02*
Y283247D01*
Y251751D02*
X2584654D01*
X2180567Y-46280D02*
Y-14784D01*
Y-46280D02*
X2243559D01*
Y-14784D01*
X2180567D02*
X2243559D01*
Y54196D02*
Y85692D01*
X2180567D02*
X2243559D01*
X2180567Y54196D02*
Y85692D01*
Y54196D02*
X2243559D01*
X2180567Y154672D02*
Y186168D01*
Y154672D02*
X2243559D01*
Y186168D01*
X2180567D02*
X2243559D01*
X2180567Y255148D02*
Y286644D01*
Y255148D02*
X2243559D01*
Y286644D01*
X2180567D02*
X2243559D01*
X1400612Y2332291D02*
Y2363787D01*
X1337620D02*
X1400612D01*
X1337620Y2332291D02*
Y2363787D01*
Y2332291D02*
X1400612D01*
X1609336Y221335D02*
Y252831D01*
X1546344D02*
X1609336D01*
X1546344Y221335D02*
Y252831D01*
Y221335D02*
X1609336D01*
X107807Y1972389D02*
X139303D01*
Y2035381D01*
X107807D02*
X139303D01*
X107807Y1972389D02*
Y2035381D01*
X159051Y1068785D02*
Y1100282D01*
X96059D02*
X159051D01*
X96059Y1068785D02*
Y1100282D01*
Y1068785D02*
X159051D01*
X-186978Y960227D02*
X-155482D01*
Y1023220D01*
X-186978D02*
X-155482D01*
X-186978Y960227D02*
Y1023220D01*
X206803Y1878180D02*
Y1897865D01*
X167433D02*
X206803D01*
X167433Y1878180D02*
Y1897865D01*
Y1878180D02*
X206803D01*
X483667Y2132589D02*
Y2152274D01*
X444297D02*
X483667D01*
X444297Y2132589D02*
Y2152274D01*
Y2132589D02*
X483667D01*
X295053Y1585446D02*
X314738D01*
X295053Y1546076D02*
Y1585446D01*
Y1546076D02*
X314738D01*
Y1585446D01*
X1446005Y-13285D02*
Y6400D01*
Y-13285D02*
X1485375D01*
Y6400D01*
X1446005D02*
X1485375D01*
D171*
X1380067Y378637D02*
G03*
X1380067Y378637I-3000J0D01*
G01*
X823434Y-36204D02*
G03*
X823434Y-36204I-3000J0D01*
G01*
X814934Y-50014D02*
G03*
X790934Y-50014I-12000J0D01*
G01*
D172*
X1851783Y789449D02*
X1901783Y739449D01*
Y616051D02*
Y628051D01*
Y616051D02*
Y628051D01*
Y635736D02*
Y647736D01*
Y635736D02*
Y647736D01*
Y655421D02*
Y667421D01*
Y655421D02*
Y667421D01*
Y675106D02*
Y687106D01*
Y675106D02*
Y687106D01*
Y694791D02*
Y706791D01*
Y694791D02*
Y706791D01*
Y714476D02*
Y726476D01*
Y714476D02*
Y726476D01*
Y734161D02*
Y746161D01*
Y734161D02*
Y746161D01*
Y753846D02*
Y765846D01*
Y753846D02*
Y765846D01*
X1866180Y789449D02*
X1878180D01*
X1866180D02*
X1878180D01*
X1846495D02*
X1858495D01*
X1846495D02*
X1858495D01*
X1826810D02*
X1838810D01*
X1826810D02*
X1838810D01*
X1807125D02*
X1819125D01*
X1807125D02*
X1819125D01*
X1787440D02*
X1799440D01*
X1787440D02*
X1799440D01*
X1767755D02*
X1779755D01*
X1767755D02*
X1779755D01*
X1748070D02*
X1760070D01*
X1748070D02*
X1760070D01*
X1728385D02*
X1740385D01*
X1728385D02*
X1740385D01*
X1704783Y753846D02*
Y765846D01*
Y753846D02*
Y765846D01*
Y734161D02*
Y746161D01*
Y734161D02*
Y746161D01*
Y714476D02*
Y726476D01*
Y714476D02*
Y726476D01*
Y694791D02*
Y706791D01*
Y694791D02*
Y706791D01*
Y675106D02*
Y687106D01*
Y675106D02*
Y687106D01*
Y655421D02*
Y667421D01*
Y655421D02*
Y667421D01*
Y635736D02*
Y647736D01*
Y635736D02*
Y647736D01*
Y616051D02*
Y628051D01*
Y616051D02*
Y628051D01*
X1728385Y592449D02*
X1740385D01*
X1728385D02*
X1740385D01*
X1748070D02*
X1760070D01*
X1748070D02*
X1760070D01*
X1767755D02*
X1779755D01*
X1767755D02*
X1779755D01*
X1787440D02*
X1799440D01*
X1787440D02*
X1799440D01*
X1807125D02*
X1819125D01*
X1807125D02*
X1819125D01*
X1826810D02*
X1838810D01*
X1826810D02*
X1838810D01*
X1846495D02*
X1858495D01*
X1846495D02*
X1858495D01*
X1866180D02*
X1878180D01*
X1866180D02*
X1878180D01*
X1704783D02*
Y789449D01*
Y592449D02*
X1901783D01*
Y789449D01*
X1704783D02*
X1901783D01*
X1851783Y1192456D02*
X1901783Y1142456D01*
Y1019059D02*
Y1031059D01*
Y1019059D02*
Y1031059D01*
Y1038744D02*
Y1050744D01*
Y1038744D02*
Y1050744D01*
Y1058429D02*
Y1070429D01*
Y1058429D02*
Y1070429D01*
Y1078114D02*
Y1090114D01*
Y1078114D02*
Y1090114D01*
Y1097799D02*
Y1109799D01*
Y1097799D02*
Y1109799D01*
Y1117484D02*
Y1129484D01*
Y1117484D02*
Y1129484D01*
Y1137169D02*
Y1149169D01*
Y1137169D02*
Y1149169D01*
Y1156854D02*
Y1168854D01*
Y1156854D02*
Y1168854D01*
X1866180Y1192456D02*
X1878180D01*
X1866180D02*
X1878180D01*
X1846495D02*
X1858495D01*
X1846495D02*
X1858495D01*
X1826810D02*
X1838810D01*
X1826810D02*
X1838810D01*
X1807125D02*
X1819125D01*
X1807125D02*
X1819125D01*
X1787440D02*
X1799440D01*
X1787440D02*
X1799440D01*
X1767755D02*
X1779755D01*
X1767755D02*
X1779755D01*
X1748070D02*
X1760070D01*
X1748070D02*
X1760070D01*
X1728385D02*
X1740385D01*
X1728385D02*
X1740385D01*
X1704783Y1156854D02*
Y1168854D01*
Y1156854D02*
Y1168854D01*
Y1137169D02*
Y1149169D01*
Y1137169D02*
Y1149169D01*
Y1117484D02*
Y1129484D01*
Y1117484D02*
Y1129484D01*
Y1097799D02*
Y1109799D01*
Y1097799D02*
Y1109799D01*
Y1078114D02*
Y1090114D01*
Y1078114D02*
Y1090114D01*
Y1058429D02*
Y1070429D01*
Y1058429D02*
Y1070429D01*
Y1038744D02*
Y1050744D01*
Y1038744D02*
Y1050744D01*
Y1019059D02*
Y1031059D01*
Y1019059D02*
Y1031059D01*
X1728385Y995456D02*
X1740385D01*
X1728385D02*
X1740385D01*
X1748070D02*
X1760070D01*
X1748070D02*
X1760070D01*
X1767755D02*
X1779755D01*
X1767755D02*
X1779755D01*
X1787440D02*
X1799440D01*
X1787440D02*
X1799440D01*
X1807125D02*
X1819125D01*
X1807125D02*
X1819125D01*
X1826810D02*
X1838810D01*
X1826810D02*
X1838810D01*
X1846495D02*
X1858495D01*
X1846495D02*
X1858495D01*
X1866180D02*
X1878180D01*
X1866180D02*
X1878180D01*
X1704783D02*
Y1192456D01*
Y995456D02*
X1901783D01*
Y1192456D01*
X1704783D02*
X1901783D01*
X1851783Y1595464D02*
X1901783Y1545464D01*
Y1422066D02*
Y1434066D01*
Y1422066D02*
Y1434066D01*
Y1441751D02*
Y1453751D01*
Y1441751D02*
Y1453751D01*
Y1461436D02*
Y1473436D01*
Y1461436D02*
Y1473436D01*
Y1481121D02*
Y1493121D01*
Y1481121D02*
Y1493121D01*
Y1500806D02*
Y1512806D01*
Y1500806D02*
Y1512806D01*
Y1520492D02*
Y1532492D01*
Y1520492D02*
Y1532492D01*
Y1540177D02*
Y1552177D01*
Y1540177D02*
Y1552177D01*
Y1559861D02*
Y1571861D01*
Y1559861D02*
Y1571861D01*
X1866180Y1595464D02*
X1878180D01*
X1866180D02*
X1878180D01*
X1846495D02*
X1858495D01*
X1846495D02*
X1858495D01*
X1826810D02*
X1838810D01*
X1826810D02*
X1838810D01*
X1807125D02*
X1819125D01*
X1807125D02*
X1819125D01*
X1787440D02*
X1799440D01*
X1787440D02*
X1799440D01*
X1767755D02*
X1779755D01*
X1767755D02*
X1779755D01*
X1748070D02*
X1760070D01*
X1748070D02*
X1760070D01*
X1728385D02*
X1740385D01*
X1728385D02*
X1740385D01*
X1704783Y1559861D02*
Y1571861D01*
Y1559861D02*
Y1571861D01*
Y1540177D02*
Y1552177D01*
Y1540177D02*
Y1552177D01*
Y1520492D02*
Y1532492D01*
Y1520492D02*
Y1532492D01*
Y1500806D02*
Y1512806D01*
Y1500806D02*
Y1512806D01*
Y1481121D02*
Y1493121D01*
Y1481121D02*
Y1493121D01*
Y1461436D02*
Y1473436D01*
Y1461436D02*
Y1473436D01*
Y1441751D02*
Y1453751D01*
Y1441751D02*
Y1453751D01*
Y1422066D02*
Y1434066D01*
Y1422066D02*
Y1434066D01*
X1728385Y1398464D02*
X1740385D01*
X1728385D02*
X1740385D01*
X1748070D02*
X1760070D01*
X1748070D02*
X1760070D01*
X1767755D02*
X1779755D01*
X1767755D02*
X1779755D01*
X1787440D02*
X1799440D01*
X1787440D02*
X1799440D01*
X1807125D02*
X1819125D01*
X1807125D02*
X1819125D01*
X1826810D02*
X1838810D01*
X1826810D02*
X1838810D01*
X1846495D02*
X1858495D01*
X1846495D02*
X1858495D01*
X1866180D02*
X1878180D01*
X1866180D02*
X1878180D01*
X1704783D02*
Y1595464D01*
Y1398464D02*
X1901783D01*
Y1595464D01*
X1704783D02*
X1901783D01*
X1851783Y1998472D02*
X1901783Y1948472D01*
Y1825074D02*
Y1837074D01*
Y1825074D02*
Y1837074D01*
Y1844759D02*
Y1856759D01*
Y1844759D02*
Y1856759D01*
Y1864444D02*
Y1876444D01*
Y1864444D02*
Y1876444D01*
Y1884129D02*
Y1896129D01*
Y1884129D02*
Y1896129D01*
Y1903814D02*
Y1915814D01*
Y1903814D02*
Y1915814D01*
Y1923499D02*
Y1935499D01*
Y1923499D02*
Y1935499D01*
Y1943184D02*
Y1955184D01*
Y1943184D02*
Y1955184D01*
Y1962869D02*
Y1974869D01*
Y1962869D02*
Y1974869D01*
X1866180Y1998472D02*
X1878180D01*
X1866180D02*
X1878180D01*
X1846495D02*
X1858495D01*
X1846495D02*
X1858495D01*
X1826810D02*
X1838810D01*
X1826810D02*
X1838810D01*
X1807125D02*
X1819125D01*
X1807125D02*
X1819125D01*
X1787440D02*
X1799440D01*
X1787440D02*
X1799440D01*
X1767755D02*
X1779755D01*
X1767755D02*
X1779755D01*
X1748070D02*
X1760070D01*
X1748070D02*
X1760070D01*
X1728385D02*
X1740385D01*
X1728385D02*
X1740385D01*
X1704783Y1962869D02*
Y1974869D01*
Y1962869D02*
Y1974869D01*
Y1943184D02*
Y1955184D01*
Y1943184D02*
Y1955184D01*
Y1923499D02*
Y1935499D01*
Y1923499D02*
Y1935499D01*
Y1903814D02*
Y1915814D01*
Y1903814D02*
Y1915814D01*
Y1884129D02*
Y1896129D01*
Y1884129D02*
Y1896129D01*
Y1864444D02*
Y1876444D01*
Y1864444D02*
Y1876444D01*
Y1844759D02*
Y1856759D01*
Y1844759D02*
Y1856759D01*
Y1825074D02*
Y1837074D01*
Y1825074D02*
Y1837074D01*
X1728385Y1801472D02*
X1740385D01*
X1728385D02*
X1740385D01*
X1748070D02*
X1760070D01*
X1748070D02*
X1760070D01*
X1767755D02*
X1779755D01*
X1767755D02*
X1779755D01*
X1787440D02*
X1799440D01*
X1787440D02*
X1799440D01*
X1807125D02*
X1819125D01*
X1807125D02*
X1819125D01*
X1826810D02*
X1838810D01*
X1826810D02*
X1838810D01*
X1846495D02*
X1858495D01*
X1846495D02*
X1858495D01*
X1866180D02*
X1878180D01*
X1866180D02*
X1878180D01*
X1704783D02*
Y1998472D01*
Y1801472D02*
X1901783D01*
Y1998472D01*
X1704783D02*
X1901783D01*
X1484188Y1331378D02*
X1508188D01*
X1484188D02*
X1508188D01*
X1484188Y1394378D02*
X1508188D01*
X1484188D02*
X1508188D01*
X1512188Y1331378D02*
Y1394378D01*
X1480188D02*
X1512188D01*
X1480188Y1331378D02*
Y1394378D01*
Y1331378D02*
X1512188D01*
X1484056Y928370D02*
X1508056D01*
X1484056D02*
X1508056D01*
X1484056Y991370D02*
X1508056D01*
X1484056D02*
X1508056D01*
X1512056Y928370D02*
Y991370D01*
X1480056D02*
X1512056D01*
X1480056Y928370D02*
Y991370D01*
Y928370D02*
X1512056D01*
X1621868Y426784D02*
X1645868D01*
X1621868D02*
X1645868D01*
X1621868Y489784D02*
X1645868D01*
X1621868D02*
X1645868D01*
X1649868Y426784D02*
Y489784D01*
X1617868D02*
X1649868D01*
X1617868Y426784D02*
Y489784D01*
Y426784D02*
X1649868D01*
X1484188Y1734529D02*
X1508188D01*
X1484188D02*
X1508188D01*
X1484188Y1797529D02*
X1508188D01*
X1484188D02*
X1508188D01*
X1512188Y1734529D02*
Y1797529D01*
X1480188D02*
X1512188D01*
X1480188Y1734529D02*
Y1797529D01*
Y1734529D02*
X1512188D01*
X85127Y1232870D02*
X109127D01*
X85127D02*
X109127D01*
X85127Y1295870D02*
X109127D01*
X85127D02*
X109127D01*
X113127Y1232870D02*
Y1295870D01*
X81127D02*
X113127D01*
X81127Y1232870D02*
Y1295870D01*
Y1232870D02*
X113127D01*
X253349D02*
X277349D01*
X253349D02*
X277349D01*
X253349Y1295870D02*
X277349D01*
X253349D02*
X277349D01*
X281349Y1232870D02*
Y1295870D01*
X249349D02*
X281349D01*
X249349Y1232870D02*
Y1295870D01*
Y1232870D02*
X281349D01*
X85127Y671846D02*
X109127D01*
X85127D02*
X109127D01*
X85127Y734846D02*
X109127D01*
X85127D02*
X109127D01*
X113127Y671846D02*
Y734846D01*
X81127D02*
X113127D01*
X81127Y671846D02*
Y734846D01*
Y671846D02*
X113127D01*
X253349D02*
X277349D01*
X253349D02*
X277349D01*
X253349Y734846D02*
X277349D01*
X253349D02*
X277349D01*
X281349Y671846D02*
Y734846D01*
X249349D02*
X281349D01*
X249349Y671846D02*
Y734846D01*
Y671846D02*
X281349D01*
X1351618Y370637D02*
Y402637D01*
X1383618D01*
Y370637D02*
Y402637D01*
X1351618Y370637D02*
X1383618D01*
X1947466Y292173D02*
X1997466Y342173D01*
X1863754Y292173D02*
X1875754D01*
X1863754D02*
X1875754D01*
X1883439D02*
X1895439D01*
X1883439D02*
X1895439D01*
X1903124D02*
X1915124D01*
X1903124D02*
X1915124D01*
X1922809D02*
X1934809D01*
X1922809D02*
X1934809D01*
X1942494D02*
X1954494D01*
X1942494D02*
X1954494D01*
X1962179D02*
X1974179D01*
X1962179D02*
X1974179D01*
X1997466Y315461D02*
Y327461D01*
Y315461D02*
Y327461D01*
Y335146D02*
Y347146D01*
Y335146D02*
Y347146D01*
Y354831D02*
Y366831D01*
Y354831D02*
Y366831D01*
Y374516D02*
Y386516D01*
Y374516D02*
Y386516D01*
Y394201D02*
Y406201D01*
Y394201D02*
Y406201D01*
Y413886D02*
Y425886D01*
Y413886D02*
Y425886D01*
X1962179Y449173D02*
X1974179D01*
X1962179D02*
X1974179D01*
X1942494D02*
X1954494D01*
X1942494D02*
X1954494D01*
X1922809D02*
X1934809D01*
X1922809D02*
X1934809D01*
X1903124D02*
X1915124D01*
X1903124D02*
X1915124D01*
X1883439D02*
X1895439D01*
X1883439D02*
X1895439D01*
X1863754D02*
X1875754D01*
X1863754D02*
X1875754D01*
X1840466Y413886D02*
Y425886D01*
Y413886D02*
Y425886D01*
Y394201D02*
Y406201D01*
Y394201D02*
Y406201D01*
Y374516D02*
Y386516D01*
Y374516D02*
Y386516D01*
Y354831D02*
Y366831D01*
Y354831D02*
Y366831D01*
Y335146D02*
Y347146D01*
Y335146D02*
Y347146D01*
Y315461D02*
Y327461D01*
Y315461D02*
Y327461D01*
Y449173D02*
X1997466D01*
X1840466Y292173D02*
Y449173D01*
Y292173D02*
X1997466D01*
Y449173D01*
X2036173Y-160180D02*
X2086173Y-110180D01*
X2015306Y-77502D02*
X2086173D01*
X2015306Y-160180D02*
Y-77502D01*
Y-160180D02*
X2086173D01*
Y-77502D01*
X2036173Y-5215D02*
X2086173Y44785D01*
X2015306Y77462D02*
X2086173D01*
X2015306Y-5215D02*
Y77462D01*
Y-5215D02*
X2086173D01*
Y77462D01*
X2036173Y145953D02*
X2086173Y195953D01*
X2015306Y228630D02*
X2086173D01*
X2015306Y145953D02*
Y228630D01*
Y145953D02*
X2086173D01*
Y228630D01*
X1702622Y235561D02*
X1712465Y225718D01*
X1702622D02*
Y262718D01*
Y225718D02*
X1779622D01*
Y262718D01*
X1702622D02*
X1779622D01*
X777434Y16986D02*
X828434D01*
X777434Y-50014D02*
Y16986D01*
Y-50014D02*
X828434D01*
Y16986D01*
D173*
X1656939Y109825D02*
Y164944D01*
X1623475D02*
X1656939D01*
X1623475Y109825D02*
Y164944D01*
Y109825D02*
X1656939D01*
X172113Y899213D02*
X313845D01*
X172113D02*
Y1060630D01*
X313845D01*
Y899213D02*
Y1060630D01*
D174*
X1898676Y781949D02*
X1865353Y748626D01*
Y781949D02*
X1898676Y748626D01*
X1882015Y781949D02*
Y748626D01*
X1865353Y765287D02*
X1898676D01*
Y1184956D02*
X1865353Y1151634D01*
Y1184956D02*
X1898676Y1151634D01*
X1882015Y1184956D02*
Y1151634D01*
X1865353Y1168295D02*
X1898676D01*
Y1587964D02*
X1865353Y1554641D01*
Y1587964D02*
X1898676Y1554641D01*
X1882015Y1587964D02*
Y1554641D01*
X1865353Y1571303D02*
X1898676D01*
Y1990972D02*
X1865353Y1957649D01*
Y1990972D02*
X1898676Y1957649D01*
X1882015Y1990972D02*
Y1957649D01*
X1865353Y1974310D02*
X1898676D01*
X1991966Y294965D02*
X1958644Y328287D01*
X1991966D02*
X1958644Y294965D01*
X1991966Y311626D02*
X1958644D01*
X1975305Y328287D02*
Y294965D01*
M02*
