G04*
G04 #@! TF.GenerationSoftware,Altium Limited,Altium Designer,24.2.2 (26)*
G04*
G04 Layer_Color=128*
%FSLAX26Y26*%
%MOIN*%
G70*
G04*
G04 #@! TF.SameCoordinates,1490CFCF-B2EF-406E-B7EC-920D21FDAB99*
G04*
G04*
G04 #@! TF.FilePolarity,Positive*
G04*
G01*
G75*
%ADD109C,0.005000*%
D109*
X1213230Y785992D02*
X1217167D01*
X1215199Y784024D02*
Y787961D01*
X1213230Y809677D02*
X1217167D01*
X1215199Y807709D02*
Y811646D01*
X2490060Y1817716D02*
X2493997D01*
X2492028Y1815748D02*
Y1819685D01*
X2490060Y1367716D02*
X2493997D01*
X2492028Y1365748D02*
Y1369685D01*
X2690060Y1817716D02*
X2693997D01*
X2692028Y1815748D02*
Y1819685D01*
X1471366Y2049938D02*
X1475303D01*
X1473334Y2047969D02*
Y2051906D01*
X2690060Y1867716D02*
X2693997D01*
X2692028Y1865748D02*
Y1869685D01*
X1485315Y2049938D02*
X1489253D01*
X1487284Y2047969D02*
Y2051906D01*
X1401546Y1815336D02*
X1405483D01*
X1403514Y1813368D02*
Y1817305D01*
X1421388Y1815186D02*
X1425325D01*
X1423356Y1813218D02*
Y1817155D01*
X1441230Y1815186D02*
X1445167D01*
X1443199Y1813218D02*
Y1817155D01*
X1540443Y1815186D02*
X1544380D01*
X1542411Y1813218D02*
Y1817155D01*
X1560285Y1815186D02*
X1564222D01*
X1562254Y1813218D02*
Y1817155D01*
X1580128Y1815186D02*
X1584065D01*
X1582096Y1813218D02*
Y1817155D01*
X1599970Y1815186D02*
X1603907D01*
X1601939Y1813218D02*
Y1817155D01*
X1743778Y1907813D02*
X1747715D01*
X1745746Y1905844D02*
Y1909781D01*
X1783463Y1907813D02*
X1787400D01*
X1785431Y1905844D02*
Y1909781D01*
X1803305Y1907813D02*
X1807242D01*
X1805274Y1905844D02*
Y1909781D01*
X1862833Y1907813D02*
X1866770D01*
X1864801Y1905844D02*
Y1909781D01*
X1950930Y2085027D02*
X1954867D01*
X1952898Y2083059D02*
Y2086996D01*
X1970772Y2084877D02*
X1974709D01*
X1972740Y2082909D02*
Y2086846D01*
X1990614Y2084877D02*
X1994551D01*
X1992583Y2082909D02*
Y2086846D01*
X2010457Y2084877D02*
X2014394D01*
X2012425Y2082909D02*
Y2086846D01*
X2030299Y2084877D02*
X2034236D01*
X2032268Y2082909D02*
Y2086846D01*
X2050142Y2084877D02*
X2054079D01*
X2052110Y2082909D02*
Y2086846D01*
X2069984Y2084877D02*
X2073921D01*
X2071953Y2082909D02*
Y2086846D01*
X2089827Y2084877D02*
X2093764D01*
X2091795Y2082909D02*
Y2086846D01*
X2109669Y2084877D02*
X2113606D01*
X2111638Y2082909D02*
Y2086846D01*
X2129512Y2084877D02*
X2133449D01*
X2131480Y2082909D02*
Y2086846D01*
X2149354Y2084877D02*
X2153291D01*
X2151323Y2082909D02*
Y2086846D01*
X961821Y1564830D02*
X965758D01*
X963790Y1562861D02*
Y1566798D01*
X963599Y1545067D02*
X967536D01*
X965568Y1543098D02*
Y1547035D01*
X972103Y1527139D02*
X976040D01*
X974071Y1525170D02*
Y1529107D01*
X986306Y1513283D02*
X990243D01*
X988275Y1511314D02*
Y1515251D01*
X1100270Y1519301D02*
X1104207D01*
X1102238Y1517333D02*
Y1521270D01*
X1122318Y1572427D02*
X1126255D01*
X1124287Y1570459D02*
Y1574396D01*
X1122318Y1592270D02*
X1126255D01*
X1124287Y1590301D02*
Y1594238D01*
X1136860Y1605770D02*
X1140797D01*
X1138829Y1603802D02*
Y1607739D01*
X1156703Y1605770D02*
X1160640D01*
X1158671Y1603802D02*
Y1607739D01*
X1176545Y1605770D02*
X1180482D01*
X1178514Y1603802D02*
Y1607739D01*
X1285522Y1633700D02*
X1289459D01*
X1287491Y1631731D02*
Y1635668D01*
X1301314Y1769219D02*
X1305251D01*
X1303282Y1767251D02*
Y1771188D01*
X1460049Y1769647D02*
X1463986D01*
X1462017Y1767678D02*
Y1771615D01*
X1499734Y1769647D02*
X1503671D01*
X1501703Y1767678D02*
Y1771615D01*
X1519576Y1769647D02*
X1523514D01*
X1521545Y1767678D02*
Y1771615D01*
X1539419Y1769647D02*
X1543356D01*
X1541388Y1767678D02*
Y1771615D01*
X1559262Y1769647D02*
X1563198D01*
X1561230Y1767678D02*
Y1771615D01*
X1579104Y1769647D02*
X1583041D01*
X1581072Y1767678D02*
Y1771615D01*
X1598947Y1769647D02*
X1602883D01*
X1600915Y1767678D02*
Y1771615D01*
X1661254Y1806451D02*
X1665191D01*
X1663223Y1804482D02*
Y1808419D01*
X1662371Y1826262D02*
X1666308D01*
X1664339Y1824293D02*
Y1828230D01*
X1662371Y1846104D02*
X1666308D01*
X1664339Y1844136D02*
Y1848073D01*
X1673873Y1862273D02*
X1677810D01*
X1675841Y1860305D02*
Y1864242D01*
X1693716Y1862273D02*
X1697652D01*
X1695684Y1860305D02*
Y1864242D01*
X1713558Y1862273D02*
X1717495D01*
X1715526Y1860305D02*
Y1864242D01*
X1733400Y1862273D02*
X1737338D01*
X1735369Y1860305D02*
Y1864242D01*
X1832613Y1862273D02*
X1836550D01*
X1834582Y1860305D02*
Y1864242D01*
X1852456Y1862273D02*
X1856392D01*
X1854424Y1860305D02*
Y1864242D01*
X1910694Y1870600D02*
X1914631D01*
X1912662Y1868631D02*
Y1872568D01*
X1926424Y1882694D02*
X1930361D01*
X1928393Y1880726D02*
Y1884663D01*
X1937796Y1898955D02*
X1941733D01*
X1939764Y1896986D02*
Y1900924D01*
X1943892Y1917838D02*
X1947829D01*
X1945861Y1915869D02*
Y1919806D01*
X1944966Y1937651D02*
X1948903D01*
X1946935Y1935683D02*
Y1939620D01*
X1944966Y1957494D02*
X1948903D01*
X1946935Y1955525D02*
Y1959462D01*
X2217730Y1922187D02*
X2221667D01*
X2219699Y1920219D02*
Y1924156D01*
X2257288Y1919946D02*
X2261225D01*
X2259257Y1917978D02*
Y1921915D01*
X2277131Y1919946D02*
X2281068D01*
X2279099Y1917978D02*
Y1921915D01*
X2294258Y1930874D02*
X2298195D01*
X2296227Y1928905D02*
Y1932842D01*
X972749Y1581196D02*
X976686D01*
X974717Y1579228D02*
Y1583165D01*
X2294258Y1954559D02*
X2298195D01*
X2296227Y1952590D02*
Y1956527D01*
X996434Y1581196D02*
X1000371D01*
X998402Y1579228D02*
Y1583165D01*
X2567802Y1518707D02*
X2571739D01*
X2569771Y1516738D02*
Y1520675D01*
X2627329Y1518707D02*
X2631267D01*
X2629298Y1516738D02*
Y1520675D01*
X2647172Y1518707D02*
X2651109D01*
X2649140Y1516738D02*
Y1520675D01*
X2667015Y1518707D02*
X2670952D01*
X2668983Y1516738D02*
Y1520675D01*
X2686857Y1518707D02*
X2690794D01*
X2688825Y1516738D02*
Y1520675D01*
X2706700Y1518707D02*
X2710637D01*
X2708668Y1516738D02*
Y1520675D01*
X2740585Y1473167D02*
X2744522D01*
X2742553Y1471199D02*
Y1475136D01*
X2720742Y1473167D02*
X2724679D01*
X2722711Y1471199D02*
Y1475136D01*
X2562002Y1473167D02*
X2565939D01*
X2563971Y1471199D02*
Y1475136D01*
X2808124Y1595086D02*
X2812061D01*
X2810093Y1593118D02*
Y1597055D01*
X2808124Y1634771D02*
X2812061D01*
X2810093Y1632803D02*
Y1636740D01*
X2808124Y1654614D02*
X2812061D01*
X2810093Y1652645D02*
Y1656582D01*
X2808124Y1694299D02*
X2812061D01*
X2810093Y1692330D02*
Y1696267D01*
X2808124Y1714141D02*
X2812061D01*
X2810093Y1712173D02*
Y1716110D01*
X2808124Y1733984D02*
X2812061D01*
X2810093Y1732015D02*
Y1735952D01*
X2808124Y1753826D02*
X2812061D01*
X2810093Y1751858D02*
Y1755795D01*
X2808124Y1773100D02*
X2812061D01*
X2810093Y1771132D02*
Y1775069D01*
X2808124Y1792943D02*
X2812061D01*
X2810093Y1790974D02*
Y1794911D01*
X2808124Y1832628D02*
X2812061D01*
X2810093Y1830659D02*
Y1834596D01*
X2808124Y1852470D02*
X2812061D01*
X2810093Y1850502D02*
Y1854439D01*
X2808124Y1892155D02*
X2812061D01*
X2810093Y1890187D02*
Y1894124D01*
X2808124Y1911998D02*
X2812061D01*
X2810093Y1910029D02*
Y1913966D01*
X2808124Y1931840D02*
X2812061D01*
X2810093Y1929872D02*
Y1933809D01*
X2808124Y1951683D02*
X2812061D01*
X2810093Y1949714D02*
Y1953651D01*
X2808124Y1971525D02*
X2812061D01*
X2810093Y1969557D02*
Y1973494D01*
X2808124Y1991368D02*
X2812061D01*
X2810093Y1989399D02*
Y1993336D01*
X2853347Y1571234D02*
X2857285D01*
X2855316Y1569266D02*
Y1573203D01*
X2853347Y1591077D02*
X2857285D01*
X2855316Y1589108D02*
Y1593045D01*
X2853347Y1610919D02*
X2857285D01*
X2855316Y1608951D02*
Y1612888D01*
X2853347Y1630762D02*
X2857285D01*
X2855316Y1628793D02*
Y1632730D01*
X2853347Y1650604D02*
X2857285D01*
X2855316Y1648636D02*
Y1652573D01*
X2853347Y1670447D02*
X2857285D01*
X2855316Y1668478D02*
Y1672415D01*
X2853347Y1690289D02*
X2857285D01*
X2855316Y1688321D02*
Y1692258D01*
X2853347Y1710132D02*
X2857285D01*
X2855316Y1708163D02*
Y1712100D01*
X2853347Y1729974D02*
X2857285D01*
X2855316Y1728006D02*
Y1731943D01*
X2853347Y1749089D02*
X2857285D01*
X2855316Y1747121D02*
Y1751058D01*
X2853347Y1768932D02*
X2857285D01*
X2855316Y1766963D02*
Y1770900D01*
X2853347Y1788774D02*
X2857285D01*
X2855316Y1786806D02*
Y1790743D01*
X2853347Y1808617D02*
X2857285D01*
X2855316Y1806648D02*
Y1810585D01*
X2853347Y1828459D02*
X2857285D01*
X2855316Y1826491D02*
Y1830428D01*
X2853347Y1848302D02*
X2857285D01*
X2855316Y1846333D02*
Y1850270D01*
X2853347Y1868144D02*
X2857285D01*
X2855316Y1866176D02*
Y1870113D01*
X2853347Y1887987D02*
X2857285D01*
X2855316Y1886018D02*
Y1889955D01*
X2853347Y1907829D02*
X2857285D01*
X2855316Y1905861D02*
Y1909798D01*
X2853347Y1927672D02*
X2857285D01*
X2855316Y1925703D02*
Y1929640D01*
X2853347Y1947514D02*
X2857285D01*
X2855316Y1945546D02*
Y1949483D01*
X2853347Y1967357D02*
X2857285D01*
X2855316Y1965388D02*
Y1969325D01*
X2853347Y1987199D02*
X2857285D01*
X2855316Y1985231D02*
Y1989168D01*
X1440384Y873004D02*
X1444321D01*
X1442352Y871035D02*
Y874972D01*
X1420541Y873004D02*
X1424478D01*
X1422510Y871035D02*
Y874972D01*
X1400699Y873004D02*
X1404636D01*
X1402667Y871035D02*
Y874972D01*
X1380856Y873004D02*
X1384793D01*
X1382825Y871035D02*
Y874972D01*
X1361014Y873004D02*
X1364951D01*
X1362982Y871035D02*
Y874972D01*
X1341257Y871167D02*
X1345194D01*
X1343225Y869199D02*
Y873136D01*
X1323759Y861809D02*
X1327696D01*
X1325728Y859841D02*
Y863778D01*
X1311616Y846117D02*
X1315553D01*
X1313584Y844148D02*
Y848085D01*
X1306965Y826827D02*
X1310902D01*
X1308933Y824859D02*
Y828795D01*
X1306932Y806985D02*
X1310869D01*
X1308900Y805016D02*
Y808953D01*
X1306932Y787142D02*
X1310869D01*
X1308900Y785173D02*
Y789111D01*
X1306932Y767299D02*
X1310869D01*
X1308900Y765331D02*
Y769268D01*
X1306932Y747457D02*
X1310869D01*
X1308900Y745489D02*
Y749426D01*
X1308955Y688033D02*
X1312892D01*
X1310924Y686064D02*
Y690001D01*
X1318012Y670378D02*
X1321949D01*
X1319980Y668409D02*
Y672346D01*
X1332690Y657027D02*
X1336628D01*
X1334659Y655058D02*
Y658995D01*
X1351354Y650288D02*
X1355291D01*
X1353322Y648319D02*
Y652256D01*
X1371178Y649440D02*
X1375115D01*
X1373147Y647471D02*
Y651409D01*
X1391021Y649440D02*
X1394957D01*
X1392989Y647471D02*
Y651409D01*
X1399434Y631470D02*
X1403371D01*
X1401403Y629501D02*
Y633438D01*
X1379592Y631470D02*
X1383529D01*
X1381560Y629501D02*
Y633438D01*
X1359749Y631470D02*
X1363686D01*
X1361718Y629501D02*
Y633438D01*
X1339907Y631470D02*
X1343844D01*
X1341875Y629501D02*
Y633438D01*
X1320064Y631470D02*
X1324001D01*
X1322033Y629501D02*
Y633438D01*
X1300222Y631470D02*
X1304159D01*
X1302190Y629501D02*
Y633438D01*
X1280379Y631470D02*
X1284316D01*
X1282348Y629501D02*
Y633438D01*
X1260537Y631470D02*
X1264474D01*
X1262505Y629501D02*
Y633438D01*
X1240694Y631470D02*
X1244631D01*
X1242663Y629501D02*
Y633438D01*
X1232885Y586247D02*
X1236822D01*
X1234854Y584278D02*
Y588215D01*
X1252728Y586247D02*
X1256665D01*
X1254696Y584278D02*
Y588215D01*
X1272570Y586247D02*
X1276507D01*
X1274539Y584278D02*
Y588215D01*
X1286186Y571813D02*
X1290123D01*
X1288154Y569844D02*
Y573781D01*
X1305971Y573314D02*
X1309908D01*
X1307940Y571346D02*
Y575283D01*
X1321021Y586247D02*
X1324958D01*
X1322989Y584278D02*
Y588215D01*
X1340863Y586247D02*
X1344800D01*
X1342832Y584278D02*
Y588215D01*
X1360706Y586247D02*
X1364643D01*
X1362674Y584278D02*
Y588215D01*
X1380548Y586247D02*
X1384485D01*
X1382517Y584278D02*
Y588215D01*
X1400391Y586247D02*
X1404328D01*
X1402359Y584278D02*
Y588215D01*
X1420224Y586849D02*
X1424161D01*
X1422193Y584881D02*
Y588818D01*
X1438935Y593454D02*
X1442872D01*
X1440904Y591485D02*
Y595422D01*
X1453104Y607346D02*
X1457041D01*
X1455072Y605377D02*
Y609314D01*
X1460376Y625807D02*
X1464313D01*
X1462344Y623839D02*
Y627776D01*
X1460122Y645648D02*
X1464059D01*
X1462090Y643680D02*
Y647617D01*
X1453507Y664356D02*
X1457444D01*
X1455475Y662387D02*
Y666324D01*
X1440970Y679736D02*
X1444907D01*
X1442938Y677767D02*
Y681704D01*
X1384876Y694663D02*
X1388813D01*
X1386845Y692694D02*
Y696631D01*
X1365034Y694663D02*
X1368971D01*
X1367002Y692694D02*
Y696631D01*
X1352155Y709758D02*
X1356092D01*
X1354123Y707789D02*
Y711726D01*
X1352155Y729601D02*
X1356092D01*
X1354123Y727632D02*
Y731569D01*
X1352155Y749443D02*
X1356092D01*
X1354123Y747475D02*
Y751412D01*
X1352155Y769285D02*
X1356092D01*
X1354123Y767317D02*
Y771254D01*
X1352155Y789128D02*
X1356092D01*
X1354123Y787159D02*
Y791096D01*
X1352155Y808971D02*
X1356092D01*
X1354123Y807002D02*
Y810939D01*
X1358471Y827781D02*
X1362408D01*
X1360439Y825812D02*
Y829750D01*
X1378313Y827781D02*
X1382250D01*
X1380282Y825812D02*
Y829750D01*
X1398156Y827781D02*
X1402093D01*
X1400124Y825812D02*
Y829750D01*
X1417998Y827781D02*
X1421935D01*
X1419967Y825812D02*
Y829750D01*
X1437841Y827781D02*
X1441778D01*
X1439809Y825812D02*
Y829750D01*
X1455729Y819194D02*
X1459666D01*
X1457697Y817225D02*
Y821162D01*
X1453453Y799482D02*
X1457390D01*
X1455421Y797514D02*
Y801451D01*
X1488710Y856711D02*
X1492647D01*
X1490679Y854742D02*
Y858679D01*
X1472720Y868460D02*
X1476657D01*
X1474689Y866491D02*
Y870428D01*
X1454286Y872894D02*
X1458223D01*
X1456254Y870925D02*
Y874862D01*
X2780305Y1538527D02*
X2784242D01*
X2782273Y1536559D02*
Y1540496D01*
X2763850Y1527439D02*
X2767787D01*
X2765818Y1525470D02*
Y1529408D01*
X2546076Y1543343D02*
X2550013D01*
X2548044Y1541374D02*
Y1545311D01*
X2507044Y1584741D02*
X2510981D01*
X2509013Y1582773D02*
Y1586709D01*
X2467451Y1586647D02*
X2471388D01*
X2469419Y1584679D02*
Y1588616D01*
X2427766Y1586647D02*
X2431703D01*
X2429734Y1584679D02*
Y1588616D01*
X2407923Y1586647D02*
X2411860D01*
X2409892Y1584679D02*
Y1588616D01*
X2368238Y1586647D02*
X2372175D01*
X2370207Y1584679D02*
Y1588616D01*
X2328553Y1586647D02*
X2332490D01*
X2330522Y1584679D02*
Y1588616D01*
X2308711Y1586647D02*
X2312648D01*
X2310679Y1584679D02*
Y1588616D01*
X2288868Y1586647D02*
X2292805D01*
X2290837Y1584679D02*
Y1588616D01*
X2269026Y1586647D02*
X2272963D01*
X2270994Y1584679D02*
Y1588616D01*
X2249183Y1586647D02*
X2253120D01*
X2251152Y1584679D02*
Y1588616D01*
X2214043Y1602496D02*
X2217980D01*
X2216012Y1600527D02*
Y1604465D01*
X2194869Y1597388D02*
X2198806D01*
X2196838Y1595420D02*
Y1599357D01*
X2178185Y1586647D02*
X2182122D01*
X2180154Y1584679D02*
Y1588616D01*
X2158343Y1586647D02*
X2162280D01*
X2160311Y1584679D02*
Y1588616D01*
X2138500Y1586647D02*
X2142437D01*
X2140469Y1584679D02*
Y1588616D01*
X2118658Y1586647D02*
X2122595D01*
X2120626Y1584679D02*
Y1588616D01*
X2099160Y1590331D02*
X2103097D01*
X2101129Y1588362D02*
Y1592299D01*
X2093895Y1609462D02*
X2097832D01*
X2095864Y1607493D02*
Y1611430D01*
X2086832Y1628005D02*
X2090769D01*
X2088801Y1626036D02*
Y1629973D01*
X2073222Y1642444D02*
X2077159D01*
X2075191Y1640475D02*
Y1644412D01*
X2055460Y1651289D02*
X2059397D01*
X2057429Y1649321D02*
Y1653258D01*
X2035714Y1653241D02*
X2039651D01*
X2037682Y1651273D02*
Y1655210D01*
X2015871Y1653241D02*
X2019809D01*
X2017840Y1651273D02*
Y1655210D01*
X1996029Y1653241D02*
X1999966D01*
X1997997Y1651273D02*
Y1655210D01*
X1976187Y1653241D02*
X1980123D01*
X1978155Y1651273D02*
Y1655210D01*
X1956344Y1653241D02*
X1960281D01*
X1958312Y1651273D02*
Y1655210D01*
X1936562Y1651688D02*
X1940499D01*
X1938531Y1649720D02*
Y1653657D01*
X1893924Y1591906D02*
X1897861D01*
X1895892Y1589937D02*
Y1593874D01*
X1893924Y1572063D02*
X1897861D01*
X1895892Y1570094D02*
Y1574032D01*
X1893924Y1552220D02*
X1897861D01*
X1895892Y1550252D02*
Y1554189D01*
X1893924Y1532378D02*
X1897861D01*
X1895892Y1530409D02*
Y1534347D01*
X1893599Y1512538D02*
X1897536D01*
X1895567Y1510570D02*
Y1514507D01*
X1878718Y1499412D02*
X1882655D01*
X1880687Y1497444D02*
Y1501381D01*
X1858876Y1499353D02*
X1862813D01*
X1860844Y1497385D02*
Y1501322D01*
X1839033Y1499353D02*
X1842970D01*
X1841002Y1497385D02*
Y1501322D01*
X1819191Y1499353D02*
X1823128D01*
X1821159Y1497385D02*
Y1501322D01*
X1799348Y1499353D02*
X1803285D01*
X1801317Y1497385D02*
Y1501322D01*
X1779506Y1499353D02*
X1783443D01*
X1781474Y1497385D02*
Y1501322D01*
X1759663Y1499353D02*
X1763600D01*
X1761632Y1497385D02*
Y1501322D01*
X1739821Y1499353D02*
X1743758D01*
X1741789Y1497385D02*
Y1501322D01*
X1719978Y1499353D02*
X1723915D01*
X1721947Y1497385D02*
Y1501322D01*
X1700136Y1499353D02*
X1704073D01*
X1702104Y1497385D02*
Y1501322D01*
X1680293Y1499353D02*
X1684230D01*
X1682262Y1497385D02*
Y1501322D01*
X1660451Y1499353D02*
X1664388D01*
X1662419Y1497385D02*
Y1501322D01*
X1620861Y1497418D02*
X1624797D01*
X1622829Y1495450D02*
Y1499387D01*
X1602263Y1490502D02*
X1606199D01*
X1604231Y1488533D02*
Y1492470D01*
X1585809Y1479411D02*
X1589746D01*
X1587778Y1477442D02*
Y1481379D01*
X1572424Y1464763D02*
X1576361D01*
X1574392Y1462794D02*
Y1466731D01*
X1563319Y1447133D02*
X1567256D01*
X1565287Y1445164D02*
Y1449101D01*
X1558861Y1427797D02*
X1562798D01*
X1560830Y1425829D02*
Y1429766D01*
X1551767Y1409266D02*
X1555704D01*
X1553735Y1407298D02*
Y1411235D01*
X1531956Y1408137D02*
X1535893D01*
X1533925Y1406169D02*
Y1410106D01*
X1512162Y1406752D02*
X1516099D01*
X1514131Y1404784D02*
Y1408720D01*
X1493424Y1400225D02*
X1497361D01*
X1495392Y1398257D02*
Y1402194D01*
X1477263Y1388713D02*
X1481200D01*
X1479231Y1386744D02*
Y1390681D01*
X1465098Y1373037D02*
X1469035D01*
X1467066Y1371068D02*
Y1375005D01*
X1457585Y1354671D02*
X1461522D01*
X1459553Y1352703D02*
Y1356640D01*
X1455729Y1334916D02*
X1459666D01*
X1457697Y1332947D02*
Y1336884D01*
X1455729Y1315073D02*
X1459666D01*
X1457697Y1313105D02*
Y1317042D01*
X1455729Y1255546D02*
X1459666D01*
X1457697Y1253577D02*
Y1257514D01*
X1500952Y1272203D02*
X1504889D01*
X1502920Y1270235D02*
Y1274172D01*
X1500952Y1292046D02*
X1504889D01*
X1502920Y1290077D02*
Y1294014D01*
X1500952Y1311888D02*
X1504889D01*
X1502920Y1309920D02*
Y1313857D01*
X1500952Y1331731D02*
X1504889D01*
X1502920Y1329762D02*
Y1333699D01*
X1505111Y1351132D02*
X1509049D01*
X1507080Y1349164D02*
Y1353101D01*
X1521592Y1362184D02*
X1525529D01*
X1523560Y1360215D02*
Y1364152D01*
X1541421Y1362914D02*
X1545358D01*
X1543389Y1360946D02*
Y1364883D01*
X1561192Y1364598D02*
X1565129D01*
X1563160Y1362629D02*
Y1366566D01*
X1579212Y1372904D02*
X1583149D01*
X1581180Y1370935D02*
Y1374872D01*
X1593271Y1386906D02*
X1597208D01*
X1595239Y1384938D02*
Y1388875D01*
X1601667Y1404885D02*
X1605604D01*
X1603636Y1402916D02*
Y1406853D01*
X1604235Y1424560D02*
X1608172D01*
X1606204Y1422592D02*
Y1426529D01*
X1612777Y1442470D02*
X1616715D01*
X1614746Y1440501D02*
Y1444438D01*
X1629657Y1452900D02*
X1633594D01*
X1631626Y1450932D02*
Y1454869D01*
X1649462Y1454130D02*
X1653399D01*
X1651430Y1452162D02*
Y1456099D01*
X1669304Y1454130D02*
X1673241D01*
X1671273Y1452162D02*
Y1456099D01*
X1689147Y1454130D02*
X1693084D01*
X1691115Y1452162D02*
Y1456099D01*
X1708989Y1454130D02*
X1712926D01*
X1710958Y1452162D02*
Y1456099D01*
X1728832Y1454130D02*
X1732769D01*
X1730800Y1452162D02*
Y1456099D01*
X1748674Y1454130D02*
X1752611D01*
X1750643Y1452162D02*
Y1456099D01*
X1768517Y1454130D02*
X1772454D01*
X1770485Y1452162D02*
Y1456099D01*
X1788359Y1454130D02*
X1792296D01*
X1790328Y1452162D02*
Y1456099D01*
X1808202Y1454130D02*
X1812139D01*
X1810170Y1452162D02*
Y1456099D01*
X1828044Y1454130D02*
X1831981D01*
X1830013Y1452162D02*
Y1456099D01*
X1847887Y1454130D02*
X1851824D01*
X1849855Y1452162D02*
Y1456099D01*
X1867729Y1454130D02*
X1871666D01*
X1869698Y1452162D02*
Y1456099D01*
X1887562Y1454766D02*
X1891498D01*
X1889530Y1452798D02*
Y1456735D01*
X1933646Y1488611D02*
X1937583D01*
X1935615Y1486643D02*
Y1490580D01*
X1938782Y1507777D02*
X1942719D01*
X1940751Y1505809D02*
Y1509746D01*
X1939147Y1527617D02*
X1943084D01*
X1941115Y1525648D02*
Y1529585D01*
X1939147Y1547459D02*
X1943084D01*
X1941115Y1545491D02*
Y1549428D01*
X1939147Y1567302D02*
X1943084D01*
X1941115Y1565333D02*
Y1569270D01*
X1939147Y1587144D02*
X1943084D01*
X1941115Y1585176D02*
Y1589112D01*
X1944604Y1606221D02*
X1948542D01*
X1946573Y1604253D02*
Y1608190D01*
X1964365Y1608018D02*
X1968302D01*
X1966334Y1606050D02*
Y1609987D01*
X1984208Y1608018D02*
X1988145D01*
X1986176Y1606050D02*
Y1609987D01*
X2004050Y1608018D02*
X2007987D01*
X2006019Y1606050D02*
Y1609987D01*
X2023893Y1608018D02*
X2027830D01*
X2025861Y1606050D02*
Y1609987D01*
X2043723Y1607321D02*
X2047660D01*
X2045692Y1605352D02*
Y1609289D01*
X2050740Y1588761D02*
X2054677D01*
X2052709Y1586792D02*
Y1590729D01*
X2057616Y1570147D02*
X2061553D01*
X2059585Y1568179D02*
Y1572116D01*
X2070510Y1555066D02*
X2074448D01*
X2072479Y1553097D02*
Y1557034D01*
X2087680Y1545119D02*
X2091617D01*
X2089648Y1543150D02*
Y1547087D01*
X2107154Y1541314D02*
X2111091D01*
X2109123Y1539346D02*
Y1543283D01*
X2126996Y1541424D02*
X2130933D01*
X2128965Y1539456D02*
Y1543393D01*
X2146839Y1541424D02*
X2150776D01*
X2148807Y1539456D02*
Y1543393D01*
X2166681Y1541424D02*
X2170618D01*
X2168650Y1539456D02*
Y1543393D01*
X2186524Y1541424D02*
X2190461D01*
X2188492Y1539456D02*
Y1543393D01*
X2206366Y1541424D02*
X2210303D01*
X2208335Y1539456D02*
Y1543393D01*
X2246051Y1541424D02*
X2249988D01*
X2248020Y1539456D02*
Y1543393D01*
X2265894Y1541424D02*
X2269831D01*
X2267862Y1539456D02*
Y1543393D01*
X2285736Y1541424D02*
X2289673D01*
X2287705Y1539456D02*
Y1543393D01*
X2305579Y1541424D02*
X2309516D01*
X2307547Y1539456D02*
Y1543393D01*
X2325421Y1541424D02*
X2329358D01*
X2327390Y1539456D02*
Y1543393D01*
X2345264Y1541424D02*
X2349201D01*
X2347232Y1539456D02*
Y1543393D01*
X2365106Y1541424D02*
X2369043D01*
X2367075Y1539456D02*
Y1543393D01*
X2384949Y1541424D02*
X2388886D01*
X2386917Y1539456D02*
Y1543393D01*
X2404791Y1541424D02*
X2408728D01*
X2406760Y1539456D02*
Y1543393D01*
X2424634Y1541424D02*
X2428571D01*
X2426602Y1539456D02*
Y1543393D01*
X2444476Y1541424D02*
X2448413D01*
X2446445Y1539456D02*
Y1543393D01*
X2464319Y1541424D02*
X2468256D01*
X2466287Y1539456D02*
Y1543393D01*
X2484161Y1541424D02*
X2488098D01*
X2486130Y1539456D02*
Y1543393D01*
X2762515Y1478165D02*
X2766452D01*
X2764483Y1476196D02*
Y1480133D01*
X2798311Y1495011D02*
X2802247D01*
X2800279Y1493042D02*
Y1496979D01*
X2813783Y1507434D02*
X2817720D01*
X2815751Y1505466D02*
Y1509402D01*
X2827111Y1522134D02*
X2831048D01*
X2829079Y1520165D02*
Y1524102D01*
X2837964Y1538745D02*
X2841901D01*
X2839932Y1536777D02*
Y1540714D01*
X2846072Y1556855D02*
X2850009D01*
X2848040Y1554887D02*
Y1558824D01*
X2842158Y2049666D02*
X2846095D01*
X2844126Y2047698D02*
Y2051635D01*
X2826133Y2061368D02*
X2830070D01*
X2828101Y2059400D02*
Y2063337D01*
X1468269Y1851312D02*
X1472206D01*
X1470237Y1849343D02*
Y1853280D01*
X1475718Y1832921D02*
X1479655D01*
X1477686Y1830952D02*
Y1834889D01*
X1465669Y1815811D02*
X1469606D01*
X1467638Y1813842D02*
Y1817779D01*
X1399589Y1736368D02*
X1403526D01*
X1401557Y1734399D02*
Y1738336D01*
X1397227Y1756069D02*
X1401164D01*
X1399196Y1754101D02*
Y1758038D01*
X1295918Y1814299D02*
X1299855D01*
X1297886Y1812331D02*
Y1816268D01*
X1277097Y1808015D02*
X1281034D01*
X1279065Y1806047D02*
Y1809984D01*
X1261661Y1795547D02*
X1265598D01*
X1263629Y1793578D02*
Y1797515D01*
X1246965Y1759242D02*
X1250902D01*
X1248933Y1757274D02*
Y1761211D01*
X1235332Y1703514D02*
X1239269D01*
X1237301Y1701546D02*
Y1705483D01*
X1215590Y1701519D02*
X1219527D01*
X1217559Y1699551D02*
Y1703488D01*
X1197864Y1692601D02*
X1201802D01*
X1199833Y1690633D02*
Y1694570D01*
X1177241Y1659586D02*
X1181178D01*
X1179210Y1657618D02*
Y1661555D01*
X1197808Y1606698D02*
X1201745D01*
X1199777Y1604729D02*
Y1608666D01*
X1247009Y1579752D02*
X1250946D01*
X1248978Y1577783D02*
Y1581720D01*
X1247009Y1559909D02*
X1250946D01*
X1248978Y1557941D02*
Y1561878D01*
X1247009Y1540067D02*
X1250946D01*
X1248978Y1538098D02*
Y1542035D01*
X1247009Y1520224D02*
X1250946D01*
X1248978Y1518256D02*
Y1522193D01*
X1247009Y1500382D02*
X1250946D01*
X1248978Y1498413D02*
Y1502350D01*
X1247009Y1480539D02*
X1250946D01*
X1248978Y1478571D02*
Y1482508D01*
X1247009Y1460697D02*
X1250946D01*
X1248978Y1458728D02*
Y1462665D01*
X1247648Y1336791D02*
X1251585D01*
X1249617Y1334822D02*
Y1338759D01*
X1266509Y1342955D02*
X1270446D01*
X1268477Y1340987D02*
Y1344924D01*
X1281432Y1356032D02*
X1285370D01*
X1283401Y1354064D02*
Y1358001D01*
X1290387Y1373740D02*
X1294324D01*
X1292355Y1371771D02*
Y1375708D01*
X1292232Y1393496D02*
X1296169D01*
X1294201Y1391528D02*
Y1395465D01*
X1292232Y1413339D02*
X1296169D01*
X1294201Y1411370D02*
Y1415307D01*
X1292232Y1433181D02*
X1296169D01*
X1294201Y1431213D02*
Y1435150D01*
X1292232Y1453024D02*
X1296169D01*
X1294201Y1451055D02*
Y1454992D01*
X1292232Y1472866D02*
X1296169D01*
X1294201Y1470898D02*
Y1474835D01*
X1292232Y1492709D02*
X1296169D01*
X1294201Y1490740D02*
Y1494677D01*
X1292232Y1512551D02*
X1296169D01*
X1294201Y1510583D02*
Y1514520D01*
X1292232Y1532394D02*
X1296169D01*
X1294201Y1530425D02*
Y1534362D01*
X1292232Y1552236D02*
X1296169D01*
X1294201Y1550268D02*
Y1554205D01*
X1292232Y1572079D02*
X1296169D01*
X1294201Y1570110D02*
Y1574047D01*
X1291906Y1591918D02*
X1295843D01*
X1293875Y1589950D02*
Y1593887D01*
X1286584Y1611034D02*
X1290521D01*
X1288553Y1609065D02*
Y1613002D01*
X1222472Y1653138D02*
X1226409D01*
X1224441Y1651170D02*
Y1655107D01*
X1241602Y1658409D02*
X1245539D01*
X1243571Y1656440D02*
Y1660377D01*
X1292289Y1710692D02*
X1296226D01*
X1294257Y1708724D02*
Y1712661D01*
X1339825Y1769957D02*
X1343762D01*
X1341793Y1767989D02*
Y1771926D01*
X1352004Y1754292D02*
X1355941D01*
X1353973Y1752324D02*
Y1756261D01*
X1352398Y1734454D02*
X1356335D01*
X1354367Y1732485D02*
Y1736422D01*
X1358335Y1715520D02*
X1362272D01*
X1360304Y1713552D02*
Y1717489D01*
X1371461Y1700640D02*
X1375398D01*
X1373430Y1698671D02*
Y1702608D01*
X1389318Y1691987D02*
X1393255D01*
X1391286Y1690019D02*
Y1693956D01*
X1409152Y1691419D02*
X1413089D01*
X1411121Y1689451D02*
Y1693388D01*
X1427652Y1698593D02*
X1431590D01*
X1429621Y1696625D02*
Y1700562D01*
X1449777Y1750909D02*
X1453714D01*
X1451745Y1748941D02*
Y1752878D01*
X1475136Y1771247D02*
X1479072D01*
X1477104Y1769278D02*
Y1773215D01*
X1521016Y1828990D02*
X1524953D01*
X1522985Y1827022D02*
Y1830959D01*
X1525463Y1848328D02*
X1529400D01*
X1527432Y1846360D02*
Y1850296D01*
X1154406Y2181208D02*
X1158343D01*
X1156374Y2179239D02*
Y2183176D01*
X1134563Y2181208D02*
X1138500D01*
X1136532Y2179239D02*
Y2183176D01*
X1114721Y2181208D02*
X1118658D01*
X1116689Y2179239D02*
Y2183176D01*
X1094878Y2181208D02*
X1098815D01*
X1096847Y2179239D02*
Y2183176D01*
X1075036Y2181208D02*
X1078973D01*
X1077004Y2179239D02*
Y2183176D01*
X1055193Y2181208D02*
X1059130D01*
X1057162Y2179239D02*
Y2183176D01*
X1035351Y2181208D02*
X1039288D01*
X1037319Y2179239D02*
Y2183176D01*
X1015508Y2181208D02*
X1019445D01*
X1017477Y2179239D02*
Y2183176D01*
X1203635Y2135985D02*
X1207572D01*
X1205604Y2134016D02*
Y2137953D01*
X1183793Y2135985D02*
X1187730D01*
X1185761Y2134016D02*
Y2137953D01*
X1163950Y2135985D02*
X1167887D01*
X1165919Y2134016D02*
Y2137953D01*
X1144108Y2135985D02*
X1148045D01*
X1146076Y2134016D02*
Y2137953D01*
X1124265Y2135985D02*
X1128202D01*
X1126234Y2134016D02*
Y2137953D01*
X1104423Y2135985D02*
X1108360D01*
X1106391Y2134016D02*
Y2137953D01*
X1084580Y2135985D02*
X1088517D01*
X1086549Y2134016D02*
Y2137953D01*
X1064738Y2135985D02*
X1068675D01*
X1066706Y2134016D02*
Y2137953D01*
X1044895Y2135985D02*
X1048832D01*
X1046864Y2134016D02*
Y2137953D01*
X1025053Y2135985D02*
X1028990D01*
X1027021Y2134016D02*
Y2137953D01*
X1173406Y2181208D02*
X1177343D01*
X1175374Y2179239D02*
Y2183176D01*
X1193248Y2181208D02*
X1197185D01*
X1195217Y2179239D02*
Y2183176D01*
X1213091Y2181208D02*
X1217028D01*
X1215059Y2179239D02*
Y2183176D01*
X1232933Y2181208D02*
X1236870D01*
X1234902Y2179239D02*
Y2183176D01*
X1252776Y2181208D02*
X1256713D01*
X1254744Y2179239D02*
Y2183176D01*
X1272618Y2181208D02*
X1276555D01*
X1274587Y2179239D02*
Y2183176D01*
X1292461Y2181208D02*
X1296398D01*
X1294429Y2179239D02*
Y2183176D01*
X1312303Y2181208D02*
X1316240D01*
X1314272Y2179239D02*
Y2183176D01*
X1332146Y2181208D02*
X1336083D01*
X1334114Y2179239D02*
Y2183176D01*
X1351988Y2181208D02*
X1355925D01*
X1353957Y2179239D02*
Y2183176D01*
X1371831Y2181208D02*
X1375768D01*
X1373799Y2179239D02*
Y2183176D01*
X1391673Y2181208D02*
X1395610D01*
X1393642Y2179239D02*
Y2183176D01*
X1411516Y2181208D02*
X1415453D01*
X1413484Y2179239D02*
Y2183176D01*
X1431358Y2181208D02*
X1435295D01*
X1433327Y2179239D02*
Y2183176D01*
X1451201Y2181208D02*
X1455138D01*
X1453169Y2179239D02*
Y2183176D01*
X1469151Y2181208D02*
X1473088D01*
X1471120Y2179239D02*
Y2183176D01*
X1488994Y2181208D02*
X1492931D01*
X1490962Y2179239D02*
Y2183176D01*
X1508836Y2181208D02*
X1512773D01*
X1510805Y2179239D02*
Y2183176D01*
X1528679Y2181208D02*
X1532616D01*
X1530647Y2179239D02*
Y2183176D01*
X1548521Y2181208D02*
X1552458D01*
X1550490Y2179239D02*
Y2183176D01*
X1568364Y2181208D02*
X1572301D01*
X1570332Y2179239D02*
Y2183176D01*
X1588206Y2181208D02*
X1592143D01*
X1590175Y2179239D02*
Y2183176D01*
X1608049Y2181208D02*
X1611986D01*
X1610017Y2179239D02*
Y2183176D01*
X1627891Y2181208D02*
X1631828D01*
X1629860Y2179239D02*
Y2183176D01*
X1667576Y2181208D02*
X1671513D01*
X1669545Y2179239D02*
Y2183176D01*
X1687419Y2181208D02*
X1691356D01*
X1689387Y2179239D02*
Y2183176D01*
X1707261Y2181208D02*
X1711198D01*
X1709230Y2179239D02*
Y2183176D01*
X1727104Y2181208D02*
X1731041D01*
X1729072Y2179239D02*
Y2183176D01*
X1746946Y2181208D02*
X1750883D01*
X1748915Y2179239D02*
Y2183176D01*
X1764560Y2181208D02*
X1768497D01*
X1766529Y2179239D02*
Y2183176D01*
X1804245Y2181208D02*
X1808182D01*
X1806214Y2179239D02*
Y2183176D01*
X1863773Y2181208D02*
X1867710D01*
X1865741Y2179239D02*
Y2183176D01*
X1923300Y2181208D02*
X1927237D01*
X1925269Y2179239D02*
Y2183176D01*
X1962985Y2181208D02*
X1966922D01*
X1964954Y2179239D02*
Y2183176D01*
X1982828Y2181208D02*
X1986765D01*
X1984796Y2179239D02*
Y2183176D01*
X2002670Y2181208D02*
X2006607D01*
X2004639Y2179239D02*
Y2183176D01*
X2022513Y2181208D02*
X2026450D01*
X2024481Y2179239D02*
Y2183176D01*
X2042355Y2181208D02*
X2046292D01*
X2044324Y2179239D02*
Y2183176D01*
X2105026Y2181208D02*
X2108963D01*
X2106994Y2179239D02*
Y2183176D01*
X2164553Y2181208D02*
X2168490D01*
X2166521Y2179239D02*
Y2183176D01*
X2184396Y2181208D02*
X2188332D01*
X2186364Y2179239D02*
Y2183176D01*
X2204238Y2181208D02*
X2208175D01*
X2206206Y2179239D02*
Y2183176D01*
X2224081Y2181208D02*
X2228017D01*
X2226049Y2179239D02*
Y2183176D01*
X2243923Y2181208D02*
X2247860D01*
X2245892Y2179239D02*
Y2183176D01*
X2263765Y2181208D02*
X2267702D01*
X2265734Y2179239D02*
Y2183176D01*
X2283608Y2181208D02*
X2287545D01*
X2285577Y2179239D02*
Y2183176D01*
X2303450Y2181208D02*
X2307387D01*
X2305419Y2179239D02*
Y2183176D01*
X2323293Y2181208D02*
X2327230D01*
X2325262Y2179239D02*
Y2183176D01*
X2343135Y2181208D02*
X2347073D01*
X2345104Y2179239D02*
Y2183176D01*
X2398490Y2135985D02*
X2402427D01*
X2400459Y2134016D02*
Y2137953D01*
X2378648Y2135985D02*
X2382585D01*
X2380616Y2134016D02*
Y2137953D01*
X2358805Y2135985D02*
X2362742D01*
X2360774Y2134016D02*
Y2137953D01*
X2319120Y2135985D02*
X2323057D01*
X2321089Y2134016D02*
Y2137953D01*
X2299278Y2135985D02*
X2303215D01*
X2301246Y2134016D02*
Y2137953D01*
X2279435Y2135985D02*
X2283372D01*
X2281404Y2134016D02*
Y2137953D01*
X2259593Y2135985D02*
X2263530D01*
X2261561Y2134016D02*
Y2137953D01*
X2239750Y2135985D02*
X2243687D01*
X2241719Y2134016D02*
Y2137953D01*
X2219908Y2135985D02*
X2223845D01*
X2221876Y2134016D02*
Y2137953D01*
X2200065Y2135985D02*
X2204002D01*
X2202034Y2134016D02*
Y2137953D01*
X2180223Y2135985D02*
X2184160D01*
X2182191Y2134016D02*
Y2137953D01*
X2160380Y2135985D02*
X2164317D01*
X2162349Y2134016D02*
Y2137953D01*
X2137729Y2135985D02*
X2141666D01*
X2139698Y2134016D02*
Y2137953D01*
X2117887Y2135985D02*
X2121824D01*
X2119856Y2134016D02*
Y2137953D01*
X2098044Y2135985D02*
X2101981D01*
X2100013Y2134016D02*
Y2137953D01*
X2078202Y2135985D02*
X2082139D01*
X2080171Y2134016D02*
Y2137953D01*
X2058360Y2135985D02*
X2062296D01*
X2060328Y2134016D02*
Y2137953D01*
X2038517Y2135985D02*
X2042454D01*
X2040486Y2134016D02*
Y2137953D01*
X2018675Y2135985D02*
X2022611D01*
X2020643Y2134016D02*
Y2137953D01*
X1998832Y2135985D02*
X2002769D01*
X2000801Y2134016D02*
Y2137953D01*
X1978989Y2135985D02*
X1982927D01*
X1980958Y2134016D02*
Y2137953D01*
X1959147Y2135985D02*
X1963084D01*
X1961116Y2134016D02*
Y2137953D01*
X1939304Y2135985D02*
X1943242D01*
X1941273Y2134016D02*
Y2137953D01*
X1919462Y2135985D02*
X1923399D01*
X1921430Y2134016D02*
Y2137953D01*
X1899620Y2135985D02*
X1903556D01*
X1901588Y2134016D02*
Y2137953D01*
X1879777Y2135985D02*
X1883714D01*
X1881745Y2134016D02*
Y2137953D01*
X1859935Y2135985D02*
X1863871D01*
X1861903Y2134016D02*
Y2137953D01*
X1840977Y2135985D02*
X1844915D01*
X1842946Y2134016D02*
Y2137953D01*
X1821135Y2135985D02*
X1825072D01*
X1823103Y2134016D02*
Y2137953D01*
X1801293Y2135985D02*
X1805229D01*
X1803261Y2134016D02*
Y2137953D01*
X1781450Y2135985D02*
X1785387D01*
X1783418Y2134016D02*
Y2137953D01*
X1761608Y2135985D02*
X1765544D01*
X1763576Y2134016D02*
Y2137953D01*
X1741765Y2135985D02*
X1745702D01*
X1743734Y2134016D02*
Y2137953D01*
X1721922Y2135985D02*
X1725860D01*
X1723891Y2134016D02*
Y2137953D01*
X1702080Y2135985D02*
X1706017D01*
X1704049Y2134016D02*
Y2137953D01*
X1682237Y2135985D02*
X1686175D01*
X1684206Y2134016D02*
Y2137953D01*
X1662395Y2135985D02*
X1666332D01*
X1664363Y2134016D02*
Y2137953D01*
X1642553Y2135985D02*
X1646489D01*
X1644521Y2134016D02*
Y2137953D01*
X1622710Y2135985D02*
X1626647D01*
X1624678Y2134016D02*
Y2137953D01*
X1602868Y2135985D02*
X1606804D01*
X1604836Y2134016D02*
Y2137953D01*
X1583025Y2135985D02*
X1586962D01*
X1584994Y2134016D02*
Y2137953D01*
X1563182Y2135985D02*
X1567120D01*
X1565151Y2134016D02*
Y2137953D01*
X1541876Y2135985D02*
X1545813D01*
X1543844Y2134016D02*
Y2137953D01*
X1522033Y2135985D02*
X1525970D01*
X1524002Y2134016D02*
Y2137953D01*
X1502191Y2135985D02*
X1506128D01*
X1504159Y2134016D02*
Y2137953D01*
X1482348Y2135985D02*
X1486285D01*
X1484317Y2134016D02*
Y2137953D01*
X1462506Y2135985D02*
X1466443D01*
X1464474Y2134016D02*
Y2137953D01*
X1442663Y2135985D02*
X1446600D01*
X1444632Y2134016D02*
Y2137953D01*
X1422821Y2135985D02*
X1426758D01*
X1424789Y2134016D02*
Y2137953D01*
X1402978Y2135985D02*
X1406915D01*
X1404947Y2134016D02*
Y2137953D01*
X1383136Y2135985D02*
X1387073D01*
X1385104Y2134016D02*
Y2137953D01*
X1363293Y2135985D02*
X1367230D01*
X1365262Y2134016D02*
Y2137953D01*
X1343451Y2135985D02*
X1347388D01*
X1345419Y2134016D02*
Y2137953D01*
X1323608Y2135985D02*
X1327545D01*
X1325577Y2134016D02*
Y2137953D01*
X1303766Y2135985D02*
X1307703D01*
X1305734Y2134016D02*
Y2137953D01*
X1283923Y2135985D02*
X1287860D01*
X1285892Y2134016D02*
Y2137953D01*
X1264081Y2135985D02*
X1268018D01*
X1266049Y2134016D02*
Y2137953D01*
X1488243Y2065042D02*
X1492180D01*
X1490211Y2063073D02*
Y2067010D01*
X1468400Y2065035D02*
X1472337D01*
X1470369Y2063066D02*
Y2067003D01*
X1669596Y1980958D02*
X1673533D01*
X1671564Y1978990D02*
Y1982927D01*
X1709279Y1980729D02*
X1713216D01*
X1711248Y1978760D02*
Y1982697D01*
X1729122Y1980729D02*
X1733059D01*
X1731090Y1978760D02*
Y1982697D01*
X1748964Y1980729D02*
X1752901D01*
X1750933Y1978760D02*
Y1982697D01*
X1788649Y1980729D02*
X1792586D01*
X1790618Y1978760D02*
Y1982697D01*
X1808492Y1980729D02*
X1812429D01*
X1810460Y1978760D02*
Y1982697D01*
X1828334Y1980729D02*
X1832271D01*
X1830303Y1978760D02*
Y1982697D01*
X1848177Y1980729D02*
X1852114D01*
X1850145Y1978760D02*
Y1982697D01*
X1868019Y1980729D02*
X1871956D01*
X1869988Y1978760D02*
Y1982697D01*
X1887862Y1980729D02*
X1891799D01*
X1889830Y1978760D02*
Y1982697D01*
X1947389Y1980729D02*
X1951326D01*
X1949358Y1978760D02*
Y1982697D01*
X2026759Y1980729D02*
X2030696D01*
X2028728Y1978760D02*
Y1982697D01*
X2046602Y1980729D02*
X2050539D01*
X2048570Y1978760D02*
Y1982697D01*
X2066444Y1980729D02*
X2070381D01*
X2068413Y1978760D02*
Y1982697D01*
X2145814Y1980729D02*
X2149751D01*
X2147783Y1978760D02*
Y1982697D01*
X2165657Y1980729D02*
X2169594D01*
X2167625Y1978760D02*
Y1982697D01*
X2245027Y1980729D02*
X2248964D01*
X2246995Y1978760D02*
Y1982697D01*
X2264869Y1980729D02*
X2268806D01*
X2266838Y1978760D02*
Y1982697D01*
X2284712Y1980729D02*
X2288649D01*
X2286680Y1978760D02*
Y1982697D01*
X2304554Y1980729D02*
X2308491D01*
X2306523Y1978760D02*
Y1982697D01*
X2331734Y1941856D02*
X2335671D01*
X2333702Y1939887D02*
Y1943824D01*
X2331734Y1842643D02*
X2335671D01*
X2333702Y1840675D02*
Y1844612D01*
X2343727Y1745887D02*
X2347664D01*
X2345695Y1743918D02*
Y1747855D01*
X2357855Y1731955D02*
X2361792D01*
X2359824Y1729986D02*
Y1733923D01*
X2415116Y1720609D02*
X2419053D01*
X2417085Y1718640D02*
Y1722578D01*
X2514329Y1720609D02*
X2518266D01*
X2516297Y1718640D02*
Y1722578D01*
X2568206Y1741969D02*
X2572143D01*
X2570174Y1740001D02*
Y1743938D01*
X2614198Y1820105D02*
X2618135D01*
X2616166Y1818136D02*
Y1822073D01*
X2616765Y1865328D02*
X2620702D01*
X2618734Y1863359D02*
Y1867296D01*
X2562024Y1846564D02*
X2565961D01*
X2563992Y1844596D02*
Y1848533D01*
X2542988Y1791900D02*
X2546925D01*
X2544957Y1789931D02*
Y1793869D01*
X2517092Y1765956D02*
X2521029D01*
X2519060Y1763987D02*
Y1767924D01*
X2417880Y1765832D02*
X2421816D01*
X2419848Y1763863D02*
Y1767801D01*
X2376957Y1793187D02*
X2380894D01*
X2378925Y1791218D02*
Y1795155D01*
X2362693Y2008139D02*
X2366630D01*
X2364662Y2006171D02*
Y2010108D01*
X2307938Y2025952D02*
X2311875D01*
X2309906Y2023983D02*
Y2027920D01*
X2288095Y2025952D02*
X2292032D01*
X2290064Y2023983D02*
Y2027920D01*
X2268253Y2025952D02*
X2272190D01*
X2270221Y2023983D02*
Y2027920D01*
X2248410Y2025952D02*
X2252347D01*
X2250379Y2023983D02*
Y2027920D01*
X2228584Y2026745D02*
X2232521D01*
X2230552Y2024776D02*
Y2028713D01*
X2159511Y2025952D02*
X2163448D01*
X2161480Y2023983D02*
Y2027920D01*
X2139669Y2025952D02*
X2143606D01*
X2141637Y2023983D02*
Y2027920D01*
X2119826Y2025952D02*
X2123763D01*
X2121795Y2023983D02*
Y2027920D01*
X2099984Y2025952D02*
X2103921D01*
X2101952Y2023983D02*
Y2027920D01*
X2080141Y2025952D02*
X2084078D01*
X2082110Y2023983D02*
Y2027920D01*
X2060299Y2025952D02*
X2064236D01*
X2062267Y2023983D02*
Y2027920D01*
X2040456Y2025952D02*
X2044393D01*
X2042425Y2023983D02*
Y2027920D01*
X2020614Y2025952D02*
X2024551D01*
X2022582Y2023983D02*
Y2027920D01*
X2000771Y2025952D02*
X2004708D01*
X2002740Y2023983D02*
Y2027920D01*
X1980929Y2025952D02*
X1984866D01*
X1982897Y2023983D02*
Y2027920D01*
X1961086Y2025952D02*
X1965023D01*
X1963055Y2023983D02*
Y2027920D01*
X1941244Y2025952D02*
X1945181D01*
X1943212Y2023983D02*
Y2027920D01*
X1901559Y2025952D02*
X1905496D01*
X1903527Y2023983D02*
Y2027920D01*
X1881716Y2025952D02*
X1885653D01*
X1883685Y2023983D02*
Y2027920D01*
X1842031Y2025952D02*
X1845968D01*
X1844000Y2023983D02*
Y2027920D01*
X1822189Y2025952D02*
X1826126D01*
X1824157Y2023983D02*
Y2027920D01*
X1802346Y2025952D02*
X1806283D01*
X1804315Y2023983D02*
Y2027920D01*
X1782504Y2025952D02*
X1786441D01*
X1784472Y2023983D02*
Y2027920D01*
X1762661Y2025952D02*
X1766598D01*
X1764630Y2023983D02*
Y2027920D01*
X1742819Y2025952D02*
X1746756D01*
X1744787Y2023983D02*
Y2027920D01*
X1722976Y2025952D02*
X1726913D01*
X1724945Y2023983D02*
Y2027920D01*
X1703134Y2025952D02*
X1707071D01*
X1705102Y2023983D02*
Y2027920D01*
X2502883Y2181208D02*
X2506820D01*
X2504851Y2179239D02*
Y2183176D01*
X2483040Y2181208D02*
X2486977D01*
X2485008Y2179239D02*
Y2183176D01*
X2463198Y2181208D02*
X2467135D01*
X2465166Y2179239D02*
Y2183176D01*
X2443355Y2181208D02*
X2447292D01*
X2445323Y2179239D02*
Y2183176D01*
X2423512Y2181208D02*
X2427450D01*
X2425481Y2179239D02*
Y2183176D01*
X2403670Y2181208D02*
X2407607D01*
X2405639Y2179239D02*
Y2183176D01*
X2383827Y2181208D02*
X2387765D01*
X2385796Y2179239D02*
Y2183176D01*
X2363985Y2181208D02*
X2367922D01*
X2365954Y2179239D02*
Y2183176D01*
X995002Y2178778D02*
X998939D01*
X996970Y2176810D02*
Y2180747D01*
X977726Y2169017D02*
X981663D01*
X979695Y2167049D02*
Y2170986D01*
X965413Y2153457D02*
X969350D01*
X967381Y2151489D02*
Y2155426D01*
X960167Y2134321D02*
X964104D01*
X962135Y2132352D02*
Y2136289D01*
X959966Y2114479D02*
X963903D01*
X961934Y2112511D02*
Y2116448D01*
X959966Y2094637D02*
X963903D01*
X961934Y2092669D02*
Y2096606D01*
X959966Y2074794D02*
X963903D01*
X961934Y2072826D02*
Y2076763D01*
X1007189Y2061333D02*
X1011126D01*
X1009158Y2059365D02*
Y2063302D01*
X1007189Y2081176D02*
X1011126D01*
X1009158Y2079207D02*
Y2083144D01*
X1007189Y2101018D02*
X1011126D01*
X1009158Y2099050D02*
Y2102987D01*
X1007189Y2120861D02*
X1011126D01*
X1009158Y2118892D02*
Y2122829D01*
X1232925Y2119972D02*
X1236862D01*
X1234893Y2118003D02*
Y2121940D01*
X2419909Y2135985D02*
X2423846D01*
X2421878Y2134016D02*
Y2137953D01*
X2459594Y2135985D02*
X2463531D01*
X2461563Y2134016D02*
Y2137953D01*
X2519107Y2135228D02*
X2523044D01*
X2521076Y2133260D02*
Y2137197D01*
X2530773Y2039761D02*
X2534710D01*
X2532741Y2037792D02*
Y2041729D01*
X2543746Y1943345D02*
X2547683D01*
X2545715Y1941377D02*
Y1945314D01*
X2558262Y1929818D02*
X2562199D01*
X2560231Y1927849D02*
Y1931786D01*
X2616041Y1920104D02*
X2619978D01*
X2618009Y1918136D02*
Y1922073D01*
X2643652Y1943680D02*
X2647589D01*
X2645621Y1941712D02*
Y1945649D01*
X2612944Y1965327D02*
X2616881D01*
X2614912Y1963359D02*
Y1967296D01*
X2575996Y1996399D02*
X2579933D01*
X2577964Y1994430D02*
Y1998367D01*
X2575996Y2036084D02*
X2579933D01*
X2577964Y2034115D02*
Y2038052D01*
X2575996Y2095611D02*
X2579933D01*
X2577964Y2093643D02*
Y2097580D01*
X2574222Y2135217D02*
X2578159D01*
X2576191Y2133248D02*
Y2137185D01*
X2566263Y2153393D02*
X2570200D01*
X2568232Y2151425D02*
Y2155361D01*
X2552778Y2167948D02*
X2556715D01*
X2554746Y2165980D02*
Y2169917D01*
X2535451Y2177619D02*
X2539388D01*
X2537419Y2175650D02*
Y2179587D01*
X2517741Y2181129D02*
X2521678D01*
X2519709Y2179161D02*
Y2183098D01*
X1475217Y629491D02*
X1479154D01*
X1477185Y627522D02*
Y631459D01*
X1479581Y610134D02*
X1483518D01*
X1481550Y608166D02*
Y612103D01*
X1491694Y594418D02*
X1495631D01*
X1493662Y592449D02*
Y596386D01*
X1509353Y585368D02*
X1513290D01*
X1511321Y583400D02*
Y587337D01*
X1475172Y539630D02*
X1479109D01*
X1477141Y537662D02*
Y541599D01*
X1544387Y469033D02*
X1548324D01*
X1546355Y467065D02*
Y471002D01*
X1562600Y476909D02*
X1566537D01*
X1564568Y474940D02*
Y478877D01*
X1583534Y509639D02*
X1587470D01*
X1585502Y507671D02*
Y511608D01*
X1584390Y529463D02*
X1588327D01*
X1586359Y527495D02*
Y531432D01*
X1584390Y549306D02*
X1588327D01*
X1586359Y547337D02*
Y551274D01*
X1584390Y569148D02*
X1588327D01*
X1586359Y567180D02*
Y571117D01*
X1581703Y588808D02*
X1585640D01*
X1583672Y586840D02*
Y590777D01*
X1572377Y606322D02*
X1576314D01*
X1574345Y604354D02*
Y608291D01*
X1557964Y619960D02*
X1561901D01*
X1559932Y617991D02*
Y621928D01*
X1539781Y627903D02*
X1543717D01*
X1541749Y625934D02*
Y629871D01*
X1520911Y634039D02*
X1524848D01*
X1522879Y632071D02*
Y636008D01*
X1534221Y648755D02*
X1538158D01*
X1536189Y646787D02*
Y650724D01*
X1543583Y666250D02*
X1547520D01*
X1545552Y664282D02*
Y668219D01*
X1664261Y873193D02*
X1668198D01*
X1666229Y871225D02*
Y875162D01*
X1604733Y873193D02*
X1608670D01*
X1606702Y871225D02*
Y875162D01*
X1584891Y873193D02*
X1588828D01*
X1586859Y871225D02*
Y875162D01*
X1565048Y873193D02*
X1568985D01*
X1567017Y871225D02*
Y875162D01*
X1545206Y873193D02*
X1549143D01*
X1547174Y871225D02*
Y875162D01*
X1525619Y870017D02*
X1529556D01*
X1527588Y868048D02*
Y871986D01*
X1508922Y859297D02*
X1512859D01*
X1510890Y857328D02*
Y861265D01*
X1498163Y842625D02*
X1502100D01*
X1500131Y840656D02*
Y844593D01*
X1542454Y797464D02*
X1546391D01*
X1544422Y795495D02*
Y799432D01*
X1540480Y817208D02*
X1544417D01*
X1542449Y815239D02*
Y819176D01*
X1557351Y827654D02*
X1561288D01*
X1559319Y825685D02*
Y829622D01*
X1576925Y824404D02*
X1580862D01*
X1578894Y822435D02*
Y826372D01*
X1592360Y811934D02*
X1596297D01*
X1594328Y809966D02*
Y813903D01*
X1611665Y816519D02*
X1615602D01*
X1613634Y814550D02*
Y818487D01*
X1628089Y827654D02*
X1632026D01*
X1630058Y825685D02*
Y829622D01*
X1647932Y827654D02*
X1651869D01*
X1649900Y825685D02*
Y829622D01*
X1667774Y827654D02*
X1671711D01*
X1669743Y825685D02*
Y829622D01*
X1687496Y825472D02*
X1691433D01*
X1689465Y823503D02*
Y827440D01*
X1689444Y874988D02*
X1693381D01*
X1691412Y873019D02*
Y876957D01*
X1664261Y2082216D02*
X1668198D01*
X1666229Y2080247D02*
Y2084184D01*
X1644418Y2082216D02*
X1648355D01*
X1646387Y2080247D02*
Y2084184D01*
X1624576Y2082216D02*
X1628513D01*
X1626544Y2080247D02*
Y2084184D01*
X1604733Y2082216D02*
X1608670D01*
X1606702Y2080247D02*
Y2084184D01*
X1584891Y2082216D02*
X1588828D01*
X1586859Y2080247D02*
Y2084184D01*
X1565048Y2082216D02*
X1568985D01*
X1567017Y2080247D02*
Y2084184D01*
X1545206Y2082216D02*
X1549143D01*
X1547174Y2080247D02*
Y2084184D01*
X1525619Y2079040D02*
X1529556D01*
X1527588Y2077071D02*
Y2081008D01*
X1508922Y2068319D02*
X1512859D01*
X1510890Y2066351D02*
Y2070288D01*
X1667774Y2036676D02*
X1671711D01*
X1669743Y2034708D02*
Y2038645D01*
X1687496Y2034494D02*
X1691433D01*
X1689465Y2032526D02*
Y2036463D01*
X1689444Y2084011D02*
X1693381D01*
X1691412Y2082042D02*
Y2085979D01*
X1545206Y1276201D02*
X1549143D01*
X1547174Y1274232D02*
Y1278169D01*
X1525619Y1273024D02*
X1529556D01*
X1527588Y1271056D02*
Y1274993D01*
X1542454Y1200471D02*
X1546391D01*
X1544422Y1198503D02*
Y1202439D01*
X1611665Y1219526D02*
X1615602D01*
X1613634Y1217558D02*
Y1221495D01*
X1667774Y1230661D02*
X1671711D01*
X1669743Y1228693D02*
Y1232630D01*
X1687496Y1228479D02*
X1691433D01*
X1689465Y1226511D02*
Y1230447D01*
X1664261Y1679208D02*
X1668198D01*
X1666229Y1677240D02*
Y1681177D01*
X1604733Y1679208D02*
X1608670D01*
X1606702Y1677240D02*
Y1681177D01*
X1584891Y1679208D02*
X1588828D01*
X1586859Y1677240D02*
Y1681177D01*
X1565048Y1679208D02*
X1568985D01*
X1567017Y1677240D02*
Y1681177D01*
X1542454Y1603479D02*
X1546391D01*
X1544422Y1601510D02*
Y1605447D01*
X1540480Y1623223D02*
X1544417D01*
X1542449Y1621254D02*
Y1625191D01*
X1557351Y1633669D02*
X1561288D01*
X1559319Y1631700D02*
Y1635637D01*
X1611665Y1622534D02*
X1615602D01*
X1613634Y1620565D02*
Y1624502D01*
X1628089Y1633669D02*
X1632026D01*
X1630058Y1631700D02*
Y1635637D01*
X1687496Y1631487D02*
X1691433D01*
X1689465Y1629518D02*
Y1633455D01*
X1689444Y1681003D02*
X1693381D01*
X1691412Y1679034D02*
Y1682972D01*
X2690060Y2067716D02*
X2693997D01*
X2692028Y2065748D02*
Y2069685D01*
X1512242Y1443543D02*
X1516179D01*
X1514210Y1441574D02*
Y1445511D01*
X2690060Y2017716D02*
X2693997D01*
X2692028Y2015748D02*
Y2019685D01*
X1483809Y1443543D02*
X1487746D01*
X1485778Y1441574D02*
Y1445511D01*
X1217407Y624606D02*
X1221344D01*
X1219376Y622638D02*
Y626575D01*
X1485315Y1243922D02*
X1489253D01*
X1487284Y1241954D02*
Y1245891D01*
X1471365Y1243922D02*
X1475302D01*
X1473334Y1241954D02*
Y1245891D01*
X2640060Y1967716D02*
X2643997D01*
X2642028Y1965748D02*
Y1969685D01*
X2640060Y1917716D02*
X2643997D01*
X2642028Y1915748D02*
Y1919685D01*
X1365650Y386637D02*
X1369587D01*
X1367618Y384668D02*
Y388605D01*
X2490060Y1867716D02*
X2493997D01*
X2492028Y1865748D02*
Y1869685D01*
X1707437Y2071289D02*
X1711374D01*
X1709406Y2069320D02*
Y2073257D01*
X1707437Y2047604D02*
X1711374D01*
X1709406Y2045635D02*
Y2049572D01*
X1509784Y559692D02*
X1513722D01*
X1511753Y557723D02*
Y561660D01*
X1486100Y559692D02*
X1490036D01*
X1488068Y557723D02*
Y561660D01*
X1468498Y802707D02*
X1472435D01*
X1470466Y800738D02*
Y804675D01*
X1217407Y593110D02*
X1221344D01*
X1219376Y591142D02*
Y595079D01*
X1488183Y802707D02*
X1492120D01*
X1490151Y800738D02*
Y804675D01*
X1468139Y1068190D02*
X1472076D01*
X1470108Y1066222D02*
Y1070159D01*
X1527195Y1068190D02*
X1531132D01*
X1529163Y1066222D02*
Y1070159D01*
X2790060Y1067716D02*
X2793997D01*
X2792028Y1065748D02*
Y1069685D01*
X2790060Y1017716D02*
X2793997D01*
X2792028Y1015748D02*
Y1019685D01*
X2790060Y2067911D02*
X2793997D01*
X2792028Y2065942D02*
Y2069879D01*
X2790060Y2017911D02*
X2793997D01*
X2792028Y2015942D02*
Y2019879D01*
X1213230Y1181724D02*
X1217167D01*
X1215199Y1179756D02*
Y1183693D01*
X1213230Y1158039D02*
X1217167D01*
X1215199Y1156071D02*
Y1160008D01*
X1466498Y1622416D02*
X1470435D01*
X1468466Y1620447D02*
Y1624384D01*
X1490183Y1622416D02*
X1494120D01*
X1492151Y1620447D02*
Y1624384D01*
X1707437Y1668281D02*
X1711374D01*
X1709406Y1666313D02*
Y1670250D01*
X1707437Y1644596D02*
X1711374D01*
X1709406Y1642628D02*
Y1646565D01*
X1707437Y1265274D02*
X1711374D01*
X1709406Y1263305D02*
Y1267242D01*
X1707437Y1241589D02*
X1711374D01*
X1709406Y1239620D02*
Y1243557D01*
X1707437Y862266D02*
X1711374D01*
X1709406Y860297D02*
Y864234D01*
X1707437Y838581D02*
X1711374D01*
X1709406Y836612D02*
Y840549D01*
X1468498Y1874140D02*
X1472435D01*
X1470466Y1872172D02*
Y1876109D01*
X1217407Y1374606D02*
X1221344D01*
X1219376Y1372638D02*
Y1376575D01*
X1527553Y1874140D02*
X1531490D01*
X1529522Y1872172D02*
Y1876109D01*
X1217407Y1343110D02*
X1221344D01*
X1219376Y1341142D02*
Y1345079D01*
M02*
